<?xml version="1.0" standalone="no"?>
<!DOCTYPE svg PUBLIC "-//W3C//DTD SVG 1.1//EN" "http://www.w3.org/Graphics/SVG/1.1/DTD/svg11.dtd" >
<svg>
<metadata>
Created by FontForge 20090914 at Sun Feb 23 04:41:01 2020
 By www-data
</metadata>
<defs>
<font id="GeorgeRoundedRegular" horiz-adv-x="553" >
  <font-face 
    font-family="George Rounded"
    font-weight="400"
    font-stretch="normal"
    units-per-em="1000"
    panose-1="0 0 0 0 0 0 0 0 0 0"
    ascent="800"
    descent="-200"
    x-height="463.998"
    cap-height="700"
    bbox="49.4406 -316 1092.1 941"
    underline-thickness="50"
    underline-position="-150"
    unicode-range="U+000A-U+F001"
  />
<missing-glyph horiz-adv-x="577" 
d="M50 700h427v-700h-427v700zM78 680l185 -309l186 309h-371zM251 350l-180 300v-601zM264 329l-185 -308h370zM276 350l181 -303v605z" />
    <glyph glyph-name=".notdef" horiz-adv-x="577" 
d="M50 700h427v-700h-427v700zM78 680l185 -309l186 309h-371zM251 350l-180 300v-601zM264 329l-185 -308h370zM276 350l181 -303v605z" />
    <glyph glyph-name=".null" horiz-adv-x="0" 
 />
    <glyph glyph-name=".null" horiz-adv-x="0" 
 />
    <glyph glyph-name="controlLF" unicode="&#xa;" horiz-adv-x="0" 
 />
    <glyph glyph-name="controlCR" unicode="&#xd;" horiz-adv-x="0" 
 />
    <glyph glyph-name="space" unicode=" " horiz-adv-x="300" 
 />
    <glyph glyph-name="exclam" unicode="!" horiz-adv-x="204" 
d="M89 136c-3.33301 0 -6.66797 1 -10.001 3s-6 4.5 -8 7.5s-3 6.16699 -3 9.5l-18 556c0 5.33301 1.83301 10 5.5 14s8.5 6 14.5 6h64c6 0 10.833 -2 14.5 -6s5.5 -8.66699 5.5 -14l-18 -556c0 -5.33301 -2.16699 -10 -6.5 -14s-9.16602 -6 -14.499 -6h-26zM101.998 81
c12.667 0 23.667 -4.5 33 -13.5s14 -20 14 -33s-4.66699 -24.167 -14 -33.5s-20.333 -14 -33 -14s-23.667 4.66699 -33 14s-14 20.5 -14 33.5s4.66699 24 14 33s20.333 13.5 33 13.5z" />
    <glyph glyph-name="quotedbl" unicode="&#x22;" horiz-adv-x="350" 
d="M280 654c3.33301 0 6.66699 -1 10 -3s5.83301 -4.5 7.5 -7.5s2.5 -6.5 2.5 -10.5v-137c0 -5.33301 -2 -10 -6 -14s-8.66699 -6 -14 -6h-37c-6 0 -11 2 -15 6s-6 8.66699 -6 14v137c0 6 2 11 6 15s9 6 15 6h37zM108.001 654c3.33301 0 6.66699 -1 10 -3
s5.83301 -4.5 7.5 -7.5s2.5 -6.5 2.5 -10.5v-137c0 -5.33301 -2 -10 -6 -14s-8.66699 -6 -14 -6h-38c-5.33301 0 -10 2 -14 6s-6 8.66699 -6 14v137c0 6 2 11 6 15s8.66699 6 14 6h38z" />
    <glyph glyph-name="numbersign" unicode="#" horiz-adv-x="668" 
d="M598 483c5.33301 0 10.0039 -1.99902 14.0039 -5.99902s6 -9 6 -15v-37c0 -6 -2 -10.833 -6 -14.5s-8.66699 -5.5 -14 -5.5h-83c-6 0 -11.167 -2 -15.5 -6s-6.83301 -9 -7.5 -15l-15 -114c-0.666992 -5.33301 0.666016 -10 3.99902 -14s8 -6 14 -6h79
c5.33301 0 10 -2 14 -6s6 -8.66699 6 -14v-38c0 -5.33301 -2 -10 -6 -14s-8.66699 -6 -14 -6h-89c-6 0 -11.167 -2 -15.5 -6s-6.83301 -8.66699 -7.5 -14l-18 -134c-0.666992 -5.33301 -3.16699 -10 -7.5 -14s-9.5 -6 -15.5 -6h-38c-5.33301 0 -9.83301 2 -13.5 6
s-5.16699 8.66699 -4.5 14l18 134c0 3.33301 -0.666992 6.5 -2 9.5s-3.5 5.5 -6.5 7.5s-6.16699 3 -9.5 3h-107c-5.33301 0 -10.333 -2 -15 -6s-7.33398 -8.66699 -8.00098 -14l-17 -134c-0.666992 -5.33301 -3.33398 -10 -8.00098 -14s-9.66699 -6 -15 -6h-38
c-6 0 -10.667 2 -14 6s-4.66602 8.66699 -3.99902 14l17 134c0.666992 3.33301 0.333984 6.5 -0.999023 9.5s-3.5 5.5 -6.5 7.5s-6.5 3 -10.5 3h-67c-6 0 -11 2 -15 6s-6 8.66699 -6 14v38c0 5.33301 2 10 6 14s9 6 15 6h77c4 0 7.66699 1 11 3s6.16602 4.5 8.49902 7.5
s3.5 6.16699 3.5 9.5l15 114c0.666992 6 -0.666016 11 -3.99902 15s-8 6 -14 6h-73c-6 0 -11 1.83301 -15 5.5s-6 8.5 -6 14.5v37c0 6 2 11 6 15s9 6 15 6h84c5.33301 0 10.166 2 14.499 6s7.16602 8.66699 8.49902 14l22 174c0.666992 6 3.33398 11 8.00098 15
s9.66699 6 15 6h38c6 0 10.667 -2 14 -6s4.66602 -9 3.99902 -15l-23 -174c-0.666992 -5.33301 0.833008 -10 4.5 -14s8.16699 -6 13.5 -6h107c6 0 11.167 2 15.5 6s6.83301 8.66699 7.5 14l23 174c0 3.33301 0.666992 6.16602 2 8.49902s3.16602 4.33301 5.49902 6
s4.83301 3.16699 7.5 4.5s5.33398 2 8.00098 2h38c5.33301 0 9.83301 -2 13.5 -6s5.16699 -9 4.5 -15l-23 -174c-0.666992 -5.33301 0.666016 -10 3.99902 -14s8 -6 14 -6h73zM398.004 270.001l15.001 114c0.666992 6 -0.833008 11 -4.5 15s-8.16699 6 -13.5 6h-107
c-5.33301 0 -10.333 -2 -15 -6s-7.33398 -9 -8.00098 -15l-15 -114c-0.666992 -5.33301 0.833008 -10 4.5 -14s8.16699 -6 13.5 -6h107c4 0 7.66699 1 11 3s6 4.5 8 7.5s3.33301 6.16699 4 9.5z" />
    <glyph glyph-name="dollar" unicode="$" horiz-adv-x="582" 
d="M530 220c4.66699 -40.667 -0.829102 -79.5 -16.4961 -116.5s-38.667 -68.333 -69 -94s-65.166 -42.834 -104.499 -51.501c-8 -1.33301 -12 -5.66602 -12 -12.999v-48c0 -2 -0.5 -4.16699 -1.5 -6.5s-2.66699 -4.16602 -5 -5.49902s-4.83301 -2 -7.5 -2h-50
c-4 0 -7.33301 1.5 -10 4.5s-4 6.16699 -4 9.5v47c0 7.33301 -3.66699 12 -11 14c-47.333 9.33301 -88.166 31.166 -122.499 65.499s-56.5 75.166 -66.5 122.499c-0.666992 6.66699 1 12.5 5 17.5s10 7.83301 18 8.5l32 3c5.33301 0.666992 10.166 -0.5 14.499 -3.5
s7.16602 -7.16699 8.49902 -12.5c8.66699 -40.667 30 -73.167 64 -97.5s72 -34.5 114 -30.5c44.667 4.66699 81.5 24.667 110.5 60s41.167 75.333 36.5 120c-2.66699 20.667 -7.83398 39 -15.501 55s-16 28.833 -25 38.5s-21.833 19 -38.5 28s-30.167 15.5 -40.5 19.5
s-25.833 9.66699 -46.5 17c-28.667 9.33301 -49 17.333 -61 24c-51.333 26 -86.5 59 -105.5 99s-20.5 83.333 -4.5 130c9.33301 28 24.5 51.667 45.5 71s45.5 33.333 73.5 42c10 3.33301 15 10 15 20v43c0 6 2 11.167 6 15.5s9 6.5 15 6.5h36c6 0 11 -2.16699 15 -6.5
s6 -9.5 6 -15.5v-57c0.666992 0 3.16699 -0.333008 7.5 -1s7.5 -1.33398 9.5 -2.00098c18 -4.66699 36.167 -13 54.5 -25s35.833 -29.5 52.5 -52.5s27 -48.833 31 -77.5c0.666992 -4 0.166992 -7.83301 -1.5 -11.5s-4.33398 -6.66699 -8.00098 -9s-7.5 -3.5 -11.5 -3.5
l-36 -1c-5.33301 0 -10 1.66699 -14 5s-6.33301 7.66602 -7 12.999c-4.66699 24.667 -15.834 44.334 -33.501 59.001s-32.834 23.667 -45.501 27c-30 8 -57.833 5.83301 -83.5 -6.5s-43.167 -31.833 -52.5 -58.5c-18.667 -56 5 -101 71 -135
c8.66699 -4 25.667 -10.333 51 -19c16 -5.33301 28.333 -9.66602 37 -12.999s21.334 -8.83301 38.001 -16.5s30 -15 40 -22s21.667 -16.333 35 -28s24.166 -24 32.499 -37s15.833 -28.667 22.5 -47s11 -38.166 13 -59.499z" />
    <glyph glyph-name="percent" unicode="%" horiz-adv-x="816" 
d="M324 560c0 -37.333 -13.499 -69.335 -40.499 -96.002s-59.333 -40 -97 -40s-69.834 13.333 -96.501 40s-40 58.834 -40 96.501s13.333 69.834 40 96.501s59 40 97 40c24.667 0 47.5 -6.16699 68.5 -18.5s37.667 -29 50 -50s18.5 -43.833 18.5 -68.5zM187.001 501.998
c16 0 29.667 5.66699 41 17s17 25.166 17 41.499s-5.66699 30.166 -17 41.499s-25 17 -41 17s-29.833 -5.66699 -41.5 -17s-17.5 -25.166 -17.5 -41.499s5.83301 -30.166 17.5 -41.499s25.5 -17 41.5 -17zM730.001 227.998c25.333 -28 37.3311 -61 35.998 -99
c-2 -36 -16.167 -66.667 -42.5 -92s-57.833 -38 -94.5 -38h-6c-38 1.33301 -69.667 16 -95 44s-37.166 60.833 -35.499 98.5s16.5 69.5 44.5 95.5c28.667 26 61.334 37.667 98.001 35c38 -1.33301 69.667 -16 95 -44zM645.999 83.998l10.9971 5.50098
c4.66699 2.33301 10.834 7.83301 18.501 16.5s11.834 17.667 12.501 27c0.666992 16 -4.33301 30 -15 42c-3.33301 3.33301 -6.83301 6.16602 -10.5 8.49902s-6.16699 3.83301 -7.5 4.5l-3 1c-12.667 3.33301 -20 5 -22 5h-1c-14.667 0 -27.667 -5 -39 -15
c-12 -11.333 -18.333 -25 -19 -41s4.33301 -30 15 -42l6 -6c2 -2 3.83301 -3.33301 5.5 -4l5 -2c1.66699 -0.666992 2.83398 -1.33398 3.50098 -2.00098h1c13.333 -3.33301 26.333 -2.66602 39 2.00098zM569.996 697.999c5.33301 0 9.16699 -2 11.5 -6s2.5 -8.33301 0.5 -13
l-265 -662c-2 -5.33301 -5.66699 -9.83301 -11 -13.5s-11 -5.5 -17 -5.5h-43c-5.33301 0 -9.33301 1.83301 -12 5.5s-3 8.16699 -1 13.5l265 662c1.33301 3.33301 3.5 6.5 6.5 9.5s6.5 5.33301 10.5 7s7.66699 2.5 11 2.5h44z" />
    <glyph glyph-name="ampersand" unicode="&#x26;" horiz-adv-x="680" 
d="M609 272c6 0 10.9971 -1.99512 14.9971 -5.99512s6 -9 6 -15v-36c0 -2.66699 -0.5 -5.33398 -1.5 -8.00098s-2.5 -5 -4.5 -7s-4.33301 -3.5 -7 -4.5s-5.33398 -1.5 -8.00098 -1.5h-78v-22c0 -62 -23.167 -115 -69.5 -159s-102.166 -66 -167.499 -66h-8
c-64.667 0 -120.167 22 -166.5 66s-69.5 97 -69.5 159v19c0 40 10.333 76.833 31 110.5s48.334 60.5 83.001 80.5c-39.333 34.667 -59 77 -59 127v13c0 47.333 17.5 87.666 52.5 120.999s77.167 50 126.5 50h12c36 0 69 -9.5 99 -28.5s52 -44.167 66 -75.5
c6.66699 -14 11 -28.333 13 -43c0.666992 -6.66699 -1.16602 -12.334 -5.49902 -17.001s-9.5 -7 -15.5 -7h-37c-11.333 0 -18.333 6 -21 18c-0.666992 6 -2.33398 11.667 -5.00098 17c-8 17.333 -20.5 31.333 -37.5 42s-35.833 16 -56.5 16h-12
c-27.333 0 -51 -9.16699 -71 -27.5s-30 -40.166 -30 -65.499v-13c0 -26 10 -48 30 -66s43.667 -27 71 -27h6c2.66699 0 5.33398 -0.666992 8.00098 -2s4.83398 -2.83301 6.50098 -4.5s3 -3.83398 4 -6.50098s1.5 -5.33398 1.5 -8.00098v-37c0 -6 -2 -11 -6 -15
s-8.66699 -6 -14 -6h-4c-43.333 0 -80.5 -14.333 -111.5 -43s-46.5 -63 -46.5 -103v-19c0 -40.667 15.5 -75.334 46.5 -104.001s68.167 -43 111.5 -43h8c44 0 81.5 14.333 112.5 43s46.5 63.334 46.5 104.001v22h-79c-5.33301 0 -10.166 2.16699 -14.499 6.5
s-6.5 9.16602 -6.5 14.499v36c0 6 2.16699 11 6.5 15s9.16602 6 14.499 6h235z" />
    <glyph glyph-name="quotesingle" unicode="'" horiz-adv-x="178" 
d="M108 654c3.33301 0 6.66699 -1 10 -3s5.83301 -4.5 7.5 -7.5s2.5 -6.5 2.5 -10.5v-137c0 -5.33301 -2 -10 -6 -14s-8.66699 -6 -14 -6h-38c-5.33301 0 -10 2 -14 6s-6 8.66699 -6 14v137c0 6 2 11 6 15s8.66699 6 14 6h38z" />
    <glyph glyph-name="parenleft" unicode="(" horiz-adv-x="252" 
d="M128 348c0 -36 6.16504 -81.332 18.498 -135.999s24.5 -101.334 36.5 -140.001s18 -57 18 -55c2 -5.33301 1.66699 -9.83301 -1 -13.5s-7 -5.5 -13 -5.5h-45c-5.33301 0 -10.666 1.83301 -15.999 5.5s-8.66602 8.16699 -9.99902 13.5c-5.33301 16 -11.5 36.667 -18.5 62
s-16.667 67.666 -29 126.999s-18.5 106.833 -18.5 142.5s5.5 81 16.5 136s21.833 100.833 32.5 137.5l16 56c2 5.33301 5.5 10 10.5 14s10.5 6 16.5 6h45c5.33301 0 9.33301 -2 12 -6s3 -8.66699 1 -14c-5.33301 -15.333 -12 -35.666 -20 -60.999s-18.667 -67.5 -32 -126.5
s-20 -106.5 -20 -142.5z" />
    <glyph glyph-name="parenright" unicode=")" horiz-adv-x="252" 
d="M137 678l17.999 -61.501c7.33301 -25.667 17 -68 29 -127s18 -106.333 18 -142s-5.5 -81 -16.5 -136s-21.833 -101.167 -32.5 -138.5l-17 -56c-1.33301 -5.33301 -4.66602 -9.83301 -9.99902 -13.5s-10.666 -5.5 -15.999 -5.5h-45c-6 0 -10.333 1.83301 -13 5.5
s-3 8.16699 -1 13.5s4.66699 13 8 23s9.16602 29.333 17.499 58s15.666 56 21.999 82s12.166 54.833 17.499 86.5s8 58.834 8 81.501c0 36 -6 81.5 -18 136.5s-24 101.167 -36 138.5l-19 55c-1.33301 5.33301 -0.666016 10 2.00098 14s6.66699 6 12 6h45
c4 0 7.83301 -1 11.5 -3s6.83398 -4.5 9.50098 -7.5s4.66699 -6.16699 6 -9.5z" />
    <glyph glyph-name="asterisk" unicode="*" horiz-adv-x="387" 
d="M330 598l5.99805 -37.0049c0.666992 -3.33301 0.5 -6.66602 -0.5 -9.99902s-3 -6.16602 -6 -8.49902s-6.16699 -3.83301 -9.5 -4.5l-46 -8c-5.33301 -1.33301 -9 -4 -11 -8s-1.66699 -8.66699 1 -14l24 -41c3.33301 -4.66699 4.16602 -9.83398 2.49902 -15.501
s-4.83398 -9.83398 -9.50098 -12.501l-32 -19c-5.33301 -2.66699 -10.666 -3.16699 -15.999 -1.5s-9.33301 4.83398 -12 9.50098l-24 42c-3.33301 4.66699 -7.16602 7.16699 -11.499 7.5s-8.5 -1.5 -12.5 -5.5l-31 -37c-3.33301 -4.66699 -7.83301 -7.16699 -13.5 -7.5
s-10.834 1.16699 -15.501 4.5l-28 24c-4.66699 3.33301 -7.16699 7.83301 -7.5 13.5s1.16699 10.834 4.5 15.501l31 37c4 4 5.33301 8.16699 4 12.5s-4.66602 7.5 -9.99902 9.5l-44 16c-5.33301 2 -9.16602 5.66699 -11.499 11s-2.5 10.333 -0.5 15l13 36
c2 4.66699 5.5 8.33398 10.5 11.001s10.167 3 15.5 1l44 -16c5.33301 -2 9.83301 -1.66699 13.5 1s5.5 6.66699 5.5 12v47c0 6 2 11 6 15s8.66699 6 14 6h38c5.33301 0 10 -2 14 -6s6 -9 6 -15v-56c0 -6 2 -10.667 6 -14s8.66699 -4.33301 14 -3l55 10
c6 0.666992 11.333 -0.666016 16 -3.99902s7.33398 -7.66602 8.00098 -12.999z" />
    <glyph glyph-name="plus" unicode="+" horiz-adv-x="487" 
d="M416 387c6 0 11 -2 15 -6s6 -8.66699 6 -14v-37c0 -6 -2 -11 -6 -15s-9 -6 -15 -6h-113c-6 0 -11 -2 -15 -6s-6 -8.66699 -6 -14v-114c0 -5.33301 -2 -10 -6 -14s-8.66699 -6 -14 -6h-37c-6 0 -11 2 -15 6s-6 8.66699 -6 14v114c0 5.33301 -2 10 -6 14s-8.66699 6 -14 6
h-114c-5.33301 0 -10 2 -14 6s-6 9 -6 15v37c0 5.33301 2 10 6 14s8.66699 6 14 6h114c5.33301 0 10 2 14 6s6 9 6 15v113c0 6 2 11 6 15s9 6 15 6h37c5.33301 0 10 -2 14 -6s6 -9 6 -15v-113c0 -6 2 -11 6 -15s9 -6 15 -6h113z" />
    <glyph glyph-name="comma" unicode="," horiz-adv-x="176" 
d="M108 81c5.33301 0 9.83105 -2 13.498 -6s4.83398 -8.66699 3.50098 -14l-12 -85c0 -4 -1.16699 -7.5 -3.5 -10.5s-5.16602 -5.33301 -8.49902 -7s-7 -2.5 -11 -2.5h-20c-5.33301 0 -10 1.83301 -14 5.5s-6 8.5 -6 14.5v84c0 6 2 11 6 15s8.66699 6 14 6h38z" />
    <glyph glyph-name="hyphen" unicode="-" horiz-adv-x="487" 
d="M416 387c6 0 11 -2 15 -6s6 -8.66699 6 -14v-37c0 -6 -2 -11 -6 -15s-9 -6 -15 -6h-346c-5.33301 0 -10 2 -14 6s-6 9 -6 15v37c0 5.33301 2 10 6 14s8.66699 6 14 6h346z" />
    <glyph glyph-name="period" unicode="." horiz-adv-x="194" 
d="M97 81c12.667 0 23.667 -4.66699 33 -14s14 -20.333 14 -33s-4.66699 -23.667 -14 -33s-20.333 -14 -33 -14s-23.667 4.66699 -33 14s-14 20.5 -14 33.5s4.66699 24 14 33s20.333 13.5 33 13.5z" />
    <glyph glyph-name="slash" unicode="/" horiz-adv-x="452" 
d="M388 698c2.66699 0 4.99902 -0.5 6.99902 -1.5s3.66699 -2.5 5 -4.5s2 -4 2 -6s-0.666992 -4.33301 -2 -7l-264 -662c-2.66699 -5.33301 -6.66699 -9.83301 -12 -13.5s-10.666 -5.5 -15.999 -5.5h-44c-5.33301 0 -9.33301 1.83301 -12 5.5s-3 8.16699 -1 13.5l265 662
c2 4.66699 5.83301 9 11.5 13s11.167 6 16.5 6h44z" />
    <glyph glyph-name="zero" unicode="0" horiz-adv-x="558" 
d="M279 0c-63.333 0 -117.333 22.333 -162 67s-67 98.667 -67 162v234c0 63.333 22.333 117.333 67 162s98.667 67 162 67s117.333 -22.333 162 -67s67 -98.667 67 -162v-234c0 -63.333 -22.333 -117.333 -67 -162s-98.667 -67 -162 -67zM128 463v-234
c0 -41.333 14.833 -76.833 44.5 -106.5s65.167 -44.5 106.5 -44.5s76.833 14.833 106.5 44.5s44.5 65.167 44.5 106.5v234c0 42 -14.833 77.667 -44.5 107s-65.167 44 -106.5 44s-76.833 -14.667 -106.5 -44s-44.5 -65 -44.5 -107z" />
    <glyph glyph-name="one" unicode="1" horiz-adv-x="338" 
d="M126 566c-11.333 -4.66699 -25.333 -9.33203 -42 -13.999c-0.666992 -0.666992 -1.5 -0.166992 -2.5 1.5s-1.83301 4 -2.5 7s-1 6.16699 -1 9.5v42c0 5.33301 1.83301 10.666 5.5 15.999s8.16699 9 13.5 11l28 12c12 6 24 12.667 36 20l43 24
c5.33301 3.33301 9.66602 4 12.999 2s5 -6 5 -12v-683c0 -5.33301 -2 -10 -6 -14s-8.66699 -6 -14 -6h-38c-2.66699 0 -5.16699 0.5 -7.5 1.5s-4.5 2.5 -6.5 4.5s-3.5 4.16699 -4.5 6.5s-1.5 4.83301 -1.5 7.5v551c0 5.33301 -1.66699 9.33301 -5 12s-7.66602 3 -12.999 1z
" />
    <glyph glyph-name="two" unicode="2" horiz-adv-x="525" 
d="M128 478l0.000976562 -30.001c0 -5.33301 -1.83301 -10 -5.5 -14s-8.16699 -6 -13.5 -6h-40c-5.33301 0 -9.83301 2 -13.5 6s-5.5 8.66699 -5.5 14v30c0 62 23.167 114.167 69.5 156.5s100.833 60.5 163.5 54.5c54.667 -5.33301 100.334 -29 137.001 -71s55 -91 55 -147
v-6c0 -16 -2.66699 -35.333 -8 -58c-8.66699 -34.667 -79.334 -133.667 -212.001 -297c-5.33301 -6.66699 -6.16602 -13.667 -2.49902 -21s9.5 -11 17.5 -11h169c5.33301 0 9.83301 -1.83301 13.5 -5.5s5.5 -8.16699 5.5 -13.5v-40c0 -5.33301 -1.83301 -9.83301 -5.5 -13.5
s-8.16699 -5.5 -13.5 -5.5h-335c-8 0 -13.833 3.66699 -17.5 11s-2.83398 14.333 2.49902 21l27 32c67.333 80.667 128.666 157.334 183.999 230.001s85.666 116.667 90.999 132c4 16 6 29 6 39v8c0 34.667 -11.167 65.167 -33.5 91.5s-50.166 41.833 -83.499 46.5
c-40.667 4.66699 -76.167 -6.33301 -106.5 -33s-45.5 -60 -45.5 -100z" />
    <glyph glyph-name="three" unicode="3" horiz-adv-x="544" 
d="M296 2c-57.333 -7.33301 -109.329 5.66797 -155.996 39.001s-76.334 77.333 -89.001 132c-1.33301 3.33301 -1.33301 6.83301 0 10.5s3.33301 6.66699 6 9s6 3.83301 10 4.5l39 5c4.66699 0.666992 9 -0.333008 13 -3s6.66699 -6.33398 8 -11.001
c8.66699 -32 26.167 -58.333 52.5 -79s56.166 -31 89.499 -31c42.667 0 78.5 15.5 107.5 46.5s42.167 67.833 39.5 110.5c-2.66699 38.667 -18.834 71.167 -48.501 97.5s-64.167 39.5 -103.5 39.5h-31c-8 0 -13.833 3.33301 -17.5 10s-3.16699 13.334 1.5 20.001l118 182
c4 6.66699 4.16699 13.334 0.5 20.001s-9.16699 10 -16.5 10h-214c-5.33301 0 -10 1.83301 -14 5.5s-6 8.5 -6 14.5v39c0 5.33301 2 9.83301 6 13.5s8.66699 5.5 14 5.5h358c7.33301 0 12.833 -3.33301 16.5 -10s3.5 -13.334 -0.5 -20.001l-131 -201
c-3.33301 -5.33301 -4.16602 -10.833 -2.49902 -16.5s5.5 -9.83398 11.5 -12.501c41.333 -17.333 74.666 -45 99.999 -83s37.666 -80.333 36.999 -127c-0.666992 -56 -20 -105 -58 -147s-84.667 -66.333 -140 -73z" />
    <glyph glyph-name="four" unicode="4" horiz-adv-x="549" 
d="M423 455l0.00195312 -171.001c0 -5.33301 2 -10 6 -14s8.66699 -6 14 -6h36c5.33301 0 10 -2 14 -6s6 -8.66699 6 -14v-38c0 -5.33301 -2 -10 -6 -14s-8.66699 -6 -14 -6h-36c-5.33301 0 -10 -2 -14 -6s-6 -9 -6 -15v-145c0 -5.33301 -2 -10 -6 -14s-8.66699 -6 -14 -6
h-38c-5.33301 0 -10 2 -14 6s-6 8.66699 -6 14v145c0 6 -2 11 -6 15s-9 6 -15 6h-260c-4 0 -7.16699 0.833008 -9.5 2.5s-3.83301 3.83398 -4.5 6.50098s0 6 2 10l207 476c1.33301 3.33301 3.66602 6.5 6.99902 9.5s6.83301 5.33301 10.5 7s7.5 2.5 11.5 2.5h44
c6 0 10.167 -1.83301 12.5 -5.5s2.5 -8.16699 0.5 -13.5l-174 -398c-2 -5.33301 -1.83301 -9.83301 0.5 -13.5s6.16602 -5.5 11.499 -5.5h141c6 0 11 2 15 6s6 8.66699 6 14v171c0 6 2 11 6 15s8.66699 6 14 6h38c5.33301 0 10 -2 14 -6s6 -9 6 -15z" />
    <glyph glyph-name="five" unicode="5" horiz-adv-x="544" 
d="M142 40c-47.333 32.667 -77.668 76.9971 -91.001 132.997c-1.33301 5.33301 -0.5 10.333 2.5 15s7.5 7.66699 13.5 9l39 5c2.66699 0.666992 5.16699 0.666992 7.5 0s4.33301 -1.66699 6 -3s3.16699 -3 4.5 -5s2.33301 -4 3 -6c9.33301 -35.333 29 -63.333 59 -84
c35.333 -24 74.666 -31.333 117.999 -22c27.333 6 50.833 19.333 70.5 40s32.5 44.667 38.5 72c8 40.667 0.666992 75.334 -22 104.001c-28 34 -68.667 51 -122 51h-169c-4 0 -7.5 1 -10.5 3s-5.33301 4.66699 -7 8s-2.5 6.66602 -2.5 9.99902l29 305
c0.666992 4.66699 2.83398 8.66699 6.50098 12s8.16699 5 13.5 5h307c5.33301 0 9.83301 -1.83301 13.5 -5.5s5.5 -8.16699 5.5 -13.5v-40c0 -5.33301 -1.83301 -9.83301 -5.5 -13.5s-8.16699 -5.5 -13.5 -5.5h-236c-5.33301 0 -9.83301 -1.66699 -13.5 -5
s-5.83398 -7.66602 -6.50098 -12.999l-14 -147c0 -6 1.83301 -11.167 5.5 -15.5s8.5 -6.5 14.5 -6.5h83c37.333 0 71.833 -7 103.5 -21s57.834 -33.667 78.501 -59c38.667 -47.333 51.334 -103.666 38.001 -168.999c-8.66699 -42.667 -28.167 -79.667 -58.5 -111
s-66.5 -51.666 -108.5 -60.999c-18 -4 -35.667 -6 -53 -6c-46.667 -0 -89 13.333 -127 40z" />
    <glyph glyph-name="six" unicode="6" horiz-adv-x="540" 
d="M267 0c-56.667 0 -105.498 19.1689 -146.498 57.502s-63.833 85.5 -68.5 141.5h-2v150c0 90.667 31.333 169.167 94 235.5s139 102.166 229 107.499c6 0 10.833 -2 14.5 -6s5.5 -8.66699 5.5 -14v-39c0 -5.33301 -1.66699 -9.83301 -5 -13.5
s-7.33301 -5.83398 -12 -6.50098c-62.667 -4 -116.834 -27.5 -162.501 -70.5s-72.834 -95.5 -81.501 -157.5c40 32.667 85 49 135 49c69.333 0 126.166 -25.5 170.499 -76.5s60.833 -110.5 49.5 -178.5c-9.33301 -52 -34.666 -94.833 -75.999 -128.5s-89 -50.5 -143 -50.5
h-1zM273.002 356.002c-41.333 0 -75.833 -13.5 -103.5 -40.5s-41.5 -59.833 -41.5 -98.5c0 -38 13.667 -70.667 41 -98s60 -41 98 -41h6c38 0 70.667 13.667 98 41s41 60 41 98s-13.667 70.667 -41 98s-60 41 -98 41z" />
    <glyph glyph-name="seven" unicode="7" horiz-adv-x="529" 
d="M273 425l77.001 153.001c3.33301 6.66699 3 13 -1 19s-9.66699 9 -17 9h-263c-5.33301 0 -9.83301 2 -13.5 6s-5.5 8.66699 -5.5 14v39c0 5.33301 1.83301 10 5.5 14s8.16699 6 13.5 6h390c7.33301 0 12.833 -3.16699 16.5 -9.5s4.16699 -12.833 1.5 -19.5l-134 -266
c-58.667 -116.667 -89.334 -240.334 -92.001 -371.001c0 -5.33301 -1.83301 -9.83301 -5.5 -13.5s-8.16699 -5.5 -13.5 -5.5h-40c-5.33301 0 -9.83301 2 -13.5 6s-5.5 8.66699 -5.5 14c2.66699 142.667 36 277.667 100 405z" />
    <glyph glyph-name="eight" unicode="8" horiz-adv-x="534" 
d="M255 0c-56.667 0 -104.999 20.0039 -144.999 60.0039s-60 88.333 -60 145c0 23.333 3.66699 45.666 11 66.999s17.666 40.666 30.999 57.999s29 32 47 44c-43.333 36.667 -65 82.667 -65 138c0 50 17.5 92.5 52.5 127.5s77.5 52.5 127.5 52.5h26
c50 0 92.5 -17.5 127.5 -52.5s52.5 -77.5 52.5 -127.5c0 -55.333 -21.667 -101.333 -65 -138c27.333 -18.667 49 -42.834 65 -72.501s24 -61.834 24 -96.501c0 -56.667 -20 -105 -60 -145s-88.333 -60 -145 -60h-24zM254.001 614.004c-28 0 -52 -10 -72 -30s-30 -44 -30 -72
s10 -52 30 -72s44 -30 72 -30h26c28.667 0 52.834 10 72.501 30s29.5 44 29.5 72s-9.83301 52 -29.5 72s-43.834 30 -72.501 30h-26zM255.001 332.004c-34.667 0 -64.5 -12.333 -89.5 -37s-37.5 -54.5 -37.5 -89.5s12.5 -65 37.5 -90s54.833 -37.5 89.5 -37.5h24
c34.667 0 64.5 12.5 89.5 37.5s37.5 55 37.5 90s-12.5 64.833 -37.5 89.5s-54.833 37 -89.5 37h-24z" />
    <glyph glyph-name="nine" unicode="9" horiz-adv-x="540" 
d="M273 258c-69.333 0 -126.167 25.4941 -170.5 76.4941s-60.833 110.5 -49.5 178.5c8.66699 52 33.834 94.833 75.501 128.5s89.5 50.5 143.5 50.5h1c56 0 104.667 -19.167 146 -57.5s64.333 -85.166 69 -140.499h2v-150c0 -91.333 -31.333 -170.166 -94 -236.499
s-139.334 -101.833 -230.001 -106.5c-5.33301 -0.666992 -10 1 -14 5s-6 8.66699 -6 14v39c0 5.33301 1.83301 9.83301 5.5 13.5s7.83398 5.83398 12.501 6.50098c41.333 2.66699 79.666 14.334 114.999 35.001s64.333 47.834 87 81.501s36.667 70.834 42 111.501
c-40.667 -32.667 -85.667 -49 -135 -49zM266.999 613.994c-38 0 -70.667 -13.501 -98 -40.501s-41 -59.667 -41 -98s13.667 -71.166 41 -98.499s60 -41 98 -41c40.667 0 75 13.5 103 40.5s42 59.833 42 98.5s-13.667 71.5 -41 98.5s-60 40.5 -98 40.5h-6z" />
    <glyph glyph-name="colon" unicode=":" horiz-adv-x="194" 
d="M97 259c-12.667 0 -23.667 4.66699 -33 14s-14 20.333 -14 33s4.66699 23.667 14 33s20.333 14 33 14s23.667 -4.66699 33 -14s14 -20.333 14 -33s-4.66699 -23.667 -14 -33s-20.333 -14 -33 -14zM97 81c12.667 0 23.667 -4.5 33 -13.5s14 -20 14 -33
s-4.66699 -24.167 -14 -33.5s-20.333 -14 -33 -14s-23.667 4.66699 -33 14s-14 20.5 -14 33.5s4.66699 24 14 33s20.333 13.5 33 13.5z" />
    <glyph glyph-name="semicolon" unicode=";" horiz-adv-x="194" 
d="M97 259c-12.667 0 -23.667 4.66699 -33 14s-14 20.333 -14 33s4.66699 23.667 14 33s20.333 14 33 14s23.667 -4.66699 33 -14s14 -20.333 14 -33s-4.66699 -23.667 -14 -33s-20.333 -14 -33 -14zM116 81c5.33301 0 9.66797 -2 13.001 -6s4.66602 -8.66699 3.99902 -14
l-12 -85c-0.666992 -4 -2 -7.5 -4 -10.5s-4.83301 -5.33301 -8.5 -7s-7.16699 -2.5 -10.5 -2.5h-20c-5.33301 0 -10 1.83301 -14 5.5s-6 8.5 -6 14.5v84c0 6 2 11 6 15s8.66699 6 14 6h38z" />
    <glyph glyph-name="less" unicode="&#x3c;" horiz-adv-x="429" 
d="M362 484l-172 -123.998c-4.66699 -3.33301 -7 -7.33301 -7 -12s2.33301 -8.66699 7 -12l172 -124c11.333 -8 17 -19 17 -33v-55c0 -6 -1.66699 -9.83301 -5 -11.5s-7.33301 -0.833984 -12 2.49902l-305 221c-4.66699 3.33301 -7 7.33301 -7 12s2.33301 8.66699 7 12
l305 220c4.66699 3.33301 8.66699 4.16602 12 2.49902s5 -5.16699 5 -10.5v-56c0 -13.333 -5.66699 -24 -17 -32z" />
    <glyph glyph-name="equal" unicode="=" horiz-adv-x="487" 
d="M416 490c6 0 11 -2 15 -6s6 -8.66699 6 -14v-37c0 -6 -2 -11 -6 -15s-9 -6 -15 -6h-346c-5.33301 0 -10 2 -14 6s-6 9 -6 15v37c0 5.33301 2 10 6 14s8.66699 6 14 6h346zM416 281c6 0 11 -2 15 -6s6 -9 6 -15v-37c0 -5.33301 -2 -10 -6 -14s-9 -6 -15 -6h-346
c-5.33301 0 -10 2 -14 6s-6 8.66699 -6 14v37c0 6 2 11 6 15s8.66699 6 14 6h346z" />
    <glyph glyph-name="greater" unicode="&#x3e;" horiz-adv-x="429" 
d="M372 360c4.66699 -3.33301 7 -7.33496 7 -12.002s-2.33301 -8.66699 -7 -12l-305 -221c-4.66699 -3.33301 -8.66699 -4.16602 -12 -2.49902s-5 5.5 -5 11.5v55c0 14 5.66699 25 17 33l172 124c4.66699 3.33301 7 7.33301 7 12s-2.33301 8.66699 -7 12l-172 124
c-11.333 8 -17 19 -17 33v55c0 6 1.66699 9.83301 5 11.5s7.33301 0.833984 12 -2.49902z" />
    <glyph glyph-name="question" unicode="?" horiz-adv-x="476" 
d="M236 81c13.333 0 24.5 -4.5 33.5 -13.5s13.5 -20 13.5 -33s-4.5 -24.167 -13.5 -33.5s-20 -14 -33 -14s-24.167 4.66699 -33.5 14s-14 20.333 -14 33c0 8.66699 2.16699 16.5 6.5 23.5s10 12.667 17 17s14.833 6.5 23.5 6.5zM299 682
c43.333 -14 77.002 -41.999 101.002 -83.999s31.333 -86.333 22 -133c-8 -42.667 -28 -77.334 -60 -104.001c-27.333 -22 -48.5 -50 -63.5 -84s-22.5 -70.333 -22.5 -109v-11c0 -6 -2 -11 -6 -15s-9 -6 -15 -6h-37c-5.33301 0 -10 2 -14 6s-6 9 -6 15v11
c0 50.667 10 98.167 30 142.5s48 81.5 84 111.5c18 14.667 29.333 34 34 58c4.66699 26.667 0 52.667 -14 78s-33.333 42 -58 50c-35.333 12 -68.333 8.33301 -99 -11c-24 -15.333 -39.667 -37 -47 -65c-3.33301 -11.333 -10.666 -16.333 -21.999 -15l-37 4
c-6.66699 0 -11.834 2.5 -15.501 7.5s-4.5 10.5 -2.5 16.5c11.333 50.667 38.666 90 81.999 118c51.333 32.667 106.666 39 165.999 19z" />
    <glyph glyph-name="at" unicode="@" horiz-adv-x="1101" 
d="M1047 371c5.33301 -44 5.66309 -87.334 0.996094 -130.001c-5.33301 -41.333 -19.666 -76.5 -42.999 -105.5s-50.666 -49.5 -81.999 -61.5s-64.333 -16.667 -99 -14c-12.667 1.33301 -25.334 3.66602 -38.001 6.99902s-25 8 -37 14s-23.167 13 -33.5 21
s-20 17.333 -29 28s-16.833 22.334 -23.5 35.001c-20.667 -22.667 -45 -40.5 -73 -53.5s-57 -19.5 -87 -19.5h-7c-54 2 -97 22.667 -129 62c-32 40.667 -43 88.334 -33 143.001c9.33301 51.333 34.666 94.166 75.999 128.499s87.666 51.5 138.999 51.5h7
c36 -1.33301 68 -12 96 -32c0.666992 12 5.66699 22.333 15 31s20.333 12.667 33 12l14 -1c3.33301 0 6.33301 -0.833008 9 -2.5s4.83398 -4 6.50098 -7s2.5 -6.16699 2.5 -9.5l-11 -207c-1.33301 -38 9 -67.333 31 -88s48.333 -32.334 79 -35.001
c32.667 -3.33301 62.834 4.66699 90.501 24s43.834 48.666 48.501 87.999c4.66699 36.667 4.33398 73.667 -0.999023 111c-7.33301 54 -25.166 104.333 -53.499 151s-64.833 85.5 -109.5 116.5s-94 51.833 -148 62.5c-62 12 -124.167 10.5 -186.5 -4.5
s-118.833 -42.5 -169.5 -82.5c-20.667 -16 -39.667 -33.667 -57 -53s-33 -39.666 -47 -60.999s-25.833 -43.666 -35.5 -66.999s-17.334 -47.333 -23.001 -72s-9.16699 -50 -10.5 -76c-2.66699 -56 5.33301 -109.667 24 -161s46.667 -96.666 84 -135.999
c73.333 -76.667 164.333 -117.334 273 -122.001c4.66699 -0.666992 8.83398 -2.66699 12.501 -6s5.5 -7.66602 5.5 -12.999v-41c0 -5.33301 -1.83301 -9.83301 -5.5 -13.5s-8.16699 -5.16699 -13.5 -4.5c-63.333 2 -123.166 15.5 -179.499 40.5
s-106.166 60.167 -149.499 105.5c-44.667 47.333 -78.167 101.666 -100.5 162.999s-31.833 125.333 -28.5 192c2 50 11.5 98.667 28.5 146s40.167 91.5 69.5 132.5s64.333 77.167 105 108.5c59.333 46.667 125.666 78.834 198.999 96.501s146.666 19.5 219.999 5.5
c98 -19.333 181.333 -65.5 250 -138.5s110 -159.167 124 -258.5zM640.997 285.999c6 31.333 0.000976562 58 -17.999 80c-16.667 20.667 -40 31.667 -70 33h-1.5h-2.5c-20.667 0 -41 -5.16699 -61 -15.5s-36.833 -24.5 -50.5 -42.5s-22.5 -37.333 -26.5 -58
c-6 -31.333 -0.333008 -58 17 -80c17.333 -20.667 40.666 -31.667 69.999 -33h2.5h1.5c32 0 61.667 11.333 89 34s44 50 50 82z" />
    <glyph glyph-name="A" unicode="A" horiz-adv-x="674" 
d="M208 162c-8.66699 0 -14.666 -3.66699 -17.999 -11l-60 -140c-3.33301 -7.33301 -9.33301 -11 -18 -11h-43c-6.66699 -0 -12 2.83301 -16 8.5s-4.33301 11.834 -1 18.501l277 646c2 4.66699 5.83301 7 11.5 7s9.5 -2.33301 11.5 -7l270 -646
c2.66699 -6.66699 2.16699 -12.834 -1.5 -18.501s-8.83398 -8.5 -15.501 -8.5h-43c-8.66699 0 -14.667 4 -18 12l-58 139c-3.33301 7.33301 -9.33301 11 -18 11h-260zM351.001 472c-2 5.33301 -5.83301 7.99805 -11.5 7.99805s-9.5 -2.66699 -11.5 -8l-88 -204
c-1.33301 -3.33301 -1.83301 -6.66602 -1.5 -9.99902s1.33301 -6.33301 3 -9s4 -4.66699 7 -6s6.16699 -2 9.5 -2h161c6.66699 0 12 2.83301 16 8.5s4.66699 11.834 2 18.501z" />
    <glyph glyph-name="B" unicode="B" horiz-adv-x="586" 
d="M536 193c0 -53.333 -18.834 -98.832 -56.501 -136.499s-82.834 -56.5 -135.501 -56.5h-274c-5.33301 0 -10 2 -14 6s-6 8.66699 -6 14v655c0 6 2 10.833 6 14.5s8.66699 5.5 14 5.5h232c52.667 0 97.834 -18.833 135.501 -56.5s56.5 -83.167 56.5 -136.5
c0 -47.333 -15.333 -89 -46 -125c-3.33301 -4 -4.66602 -8.33301 -3.99902 -13s3 -8.33398 7 -11.001c26 -18 46.667 -41 62 -69s23 -58.333 23 -91zM147.999 617.001c-5.33301 0 -10 -2.00098 -14 -6.00098s-6 -8.66699 -6 -14v-188c0 -5.33301 2 -10 6 -14
s8.66699 -6 14 -6h154c34 0 62.333 12.833 85 38.5s32 55.834 28 90.501c-2 14 -6.5 27.167 -13.5 39.5s-15.667 22.833 -26 31.5s-22.333 15.5 -36 20.5s-27.5 7.5 -41.5 7.5h-150zM127.999 288v-189c0 -6 2 -10.833 6 -14.5s8.66699 -5.5 14 -5.5h196
c31.333 0 58.166 11.167 80.499 33.5s33.5 49.333 33.5 81s-11.167 58.667 -33.5 81s-49.166 33.5 -80.499 33.5h-196c-5.33301 0 -10 -1.83301 -14 -5.5s-6 -8.5 -6 -14.5z" />
    <glyph glyph-name="C" unicode="C" horiz-adv-x="678" 
d="M395 5c-64 0 -123.165 16.332 -177.498 48.999s-96.5 76.834 -126.5 132.501s-43.667 115.834 -41 180.501c4.66699 86 37.167 160.333 97.5 223s133.166 97.334 218.499 104.001c47.333 4 93 -1.33301 137 -16s83.667 -37.334 119 -68.001
c4 -3.33301 6.16699 -7.83301 6.5 -13.5s-1.5 -10.5 -5.5 -14.5l-27 -28c-4 -3.33301 -8.5 -5.16602 -13.5 -5.49902s-9.5 1.16699 -13.5 4.5c-50 42.667 -108 64 -174 64c-52 0 -99.667 -13.833 -143 -41.5s-76.166 -65 -98.499 -112s-29.833 -97.167 -22.5 -150.5
c8.66699 -66.667 38.167 -121.667 88.5 -165s109.5 -65 177.5 -65c55.333 0.666992 105.666 17 150.999 49c4 2.66699 8.66699 3.66699 14 3s9.66602 -3.33398 12.999 -8.00098l24 -29c3.33301 -4.66699 4.66602 -9.83398 3.99902 -15.501s-3.66699 -10.167 -9 -13.5
c-59.333 -42.667 -125.666 -64 -198.999 -64z" />
    <glyph glyph-name="D" unicode="D" horiz-adv-x="586" 
d="M536 364c2 -64.667 -12.165 -124.5 -42.498 -179.5s-72.333 -98.667 -126 -131s-112.5 -48.5 -176.5 -48.5h-121c-5.33301 0 -10 2 -14 6s-6 8.66699 -6 14v650c0 6 2 10.833 6 14.5s8.66699 5.5 14 5.5h113c61.333 0 118.666 -14.5 171.999 -43.5
s96.166 -69 128.499 -120s49.833 -106.833 52.5 -167.5zM148.002 617c-5.33301 0 -10.001 -2 -14.001 -6s-6 -8.66699 -6 -14v-494c0 -5.33301 2 -9.83301 6 -13.5s8.66699 -5.5 14 -5.5h43c76 0 140.333 27.5 193 82.5s77.334 120.833 74.001 197.5
c-4 70.667 -32.667 130.5 -86 179.5s-116.333 73.5 -189 73.5h-35z" />
    <glyph glyph-name="E" unicode="E" horiz-adv-x="479" 
d="M50 26v649c0 5.33301 2 10 6 14s8.66699 6 14 6h339c5.33301 0 10 -2 14 -6s6 -8.66699 6 -14v-38c0 -5.33301 -2 -10 -6 -14s-8.66699 -6 -14 -6h-260c-6 0 -11 -2 -15 -6s-6 -8.66699 -6 -14v-233c0 -6 2 -11 6 -15s9 -6 15 -6h143c6 0 11 -2 15 -6s6 -8.66699 6 -14
v-37c0 -6 -2 -11 -6 -15s-9 -6 -15 -6h-143c-6 0 -11 -2 -15 -6s-6 -8.66699 -6 -14v-141c0 -6 2 -11 6 -15s9 -6 15 -6h260c5.33301 0 10 -2 14 -6s6 -8.66699 6 -14v-37c0 -6 -2 -11 -6 -15s-8.66699 -6 -14 -6h-339c-5.33301 0 -10 2 -14 6s-6 9 -6 15z" />
    <glyph glyph-name="F" unicode="F" horiz-adv-x="479" 
d="M50 21v654c0 5.33301 2 10 6 14s8.66699 6 14 6h339c5.33301 0 10 -2 14 -6s6 -8.66699 6 -14v-38c0 -5.33301 -2 -10 -6 -14s-8.66699 -6 -14 -6h-260c-6 0 -11 -2 -15 -6s-6 -8.66699 -6 -14v-233c0 -6 2 -11 6 -15s9 -6 15 -6h143c6 0 11 -2 15 -6s6 -8.66699 6 -14
v-37c0 -6 -2 -11 -6 -15s-9 -6 -15 -6h-143c-6 0 -11 -2 -15 -6s-6 -8.66699 -6 -14v-224c0 -6 -2 -11 -6 -15s-8.66699 -6 -14 -6h-38c-5.33301 0 -10 2 -14 6s-6 9 -6 15z" />
    <glyph glyph-name="G" unicode="G" horiz-adv-x="790" 
d="M401 5c-64.667 -0.666992 -124.498 14.999 -179.498 46.999s-98 76 -129 132s-45.167 116.667 -42.5 182c4 86 36.333 160.5 97 223.5s133.667 97.833 219 104.5c31.333 2.66699 62.333 1.16699 93 -4.5s59.667 -15.167 87 -28.5s52.666 -30.333 75.999 -51
c4 -3.33301 6.16699 -7.83301 6.5 -13.5s-1.5 -10.5 -5.5 -14.5l-27 -28c-4 -3.33301 -8.5 -5.16602 -13.5 -5.49902s-9.5 1.16699 -13.5 4.5c-50 42.667 -108 64 -174 64c-76 0 -140.333 -27.5 -193 -82.5s-77 -120.833 -73 -197.5
c2.66699 -69.333 29.667 -128.666 81 -177.999s111.666 -74.333 180.999 -75c65.333 -1.33301 123 18.667 173 60s81 93.333 93 156c0 1.33301 -0.166992 2.66602 -0.5 3.99902s-0.833008 2.5 -1.5 3.5s-1.66699 1.83301 -3 2.5s-3 1 -5 1h-232c-5.33301 0 -10 2 -14 6
s-6 8.66699 -6 14v38c0 6 2 10.833 6 14.5s8.66699 5.5 14 5.5h306c5.33301 0 9.83301 -1.83301 13.5 -5.5s5.5 -8.16699 5.5 -13.5v-10c0 -62 -14.833 -120 -44.5 -174s-70.667 -97.333 -123 -130s-109.5 -49.667 -171.5 -51z" />
    <glyph glyph-name="H" unicode="H" horiz-adv-x="586" 
d="M128 245v-224c0 -6 -2 -11 -6 -15s-8.66699 -6 -14 -6h-38c-5.33301 0 -10 2 -14 6s-6 9 -6 15v659c0 5.33301 2 10 6 14s8.66699 6 14 6h38c5.33301 0 10 -2 14 -6s6 -8.66699 6 -14v-316c0 -6 2 -11 6 -15s9 -6 15 -6h288c6 0 11 2 15 6s6 9 6 15v316
c0 5.33301 2 10 6 14s8.66699 6 14 6h38c5.33301 0 10 -2 14 -6s6 -8.66699 6 -14v-659c0 -6 -2 -11 -6 -15s-8.66699 -6 -14 -6h-38c-5.33301 0 -10 2 -14 6s-6 9 -6 15v224c0 5.33301 -2 10 -6 14s-9 6 -15 6h-288c-6 0 -11 -2 -15 -6s-6 -8.66699 -6 -14z" />
    <glyph glyph-name="I" unicode="I" horiz-adv-x="300" 
d="M189 680v-660c0 -5.33301 -2 -10 -6 -14s-8.66699 -6 -14 -6h-38c-5.33301 0 -10 2 -14 6s-6 8.66699 -6 14v660c0 5.33301 2 10 6 14s8.66699 6 14 6h38c5.33301 0 10 -2 14 -6s6 -8.66699 6 -14z" />
    <glyph glyph-name="J" unicode="J" horiz-adv-x="499" 
d="M275 8c-46.667 -7.33301 -90.4971 -0.329102 -131.497 21.0039s-71.5 52.666 -91.5 93.999c-2.66699 5.33301 -2.83398 11 -0.500977 17s6.5 10 12.5 12l35 12c11.333 4 19.666 0.666992 24.999 -10c14 -26.667 35 -46.334 63 -59.001s57.333 -15 88 -7
c28.667 8 51.834 24.167 69.501 48.5s26.5 51.833 26.5 82.5v460c0 3.33301 0.5 6.16602 1.5 8.49902s2.5 4.5 4.5 6.5s4.16699 3.5 6.5 4.5s5.16602 1.5 8.49902 1.5h37c3.33301 0 6.66602 -1 9.99902 -3s5.83301 -4.5 7.5 -7.5s2.5 -6.5 2.5 -10.5v-458
c0 -52 -16.5 -98.333 -49.5 -139s-74.5 -65.334 -124.5 -74.001z" />
    <glyph glyph-name="K" unicode="K" horiz-adv-x="587" 
d="M128 213l-0.000976562 -192c0 -6 -2 -11 -6 -15s-8.66699 -6 -14 -6h-38c-5.33301 0 -10 2 -14 6s-6 9 -6 15v659c0 5.33301 2 10 6 14s8.66699 6 14 6h38c5.33301 0 10 -2 14 -6s6 -8.66699 6 -14v-309c0 -6 1.33301 -9.5 4 -10.5s6 0.833008 10 5.5l286 319
c8.66699 10 20 15 34 15h64c5.33301 0 8.66602 -1.5 9.99902 -4.5s0.333008 -6.5 -3 -10.5l-281 -314c-4 -4 -6 -9 -6 -15s1.66699 -11.333 5 -16l280 -325c4 -4 5.33301 -7.5 4 -10.5s-5 -4.5 -11 -4.5h-62c-13.333 0 -24.666 5 -33.999 15l-229 267c-4 4 -8.66699 6 -14 6
s-9.66602 -2 -12.999 -6l-30 -34c-9.33301 -10 -14 -21.667 -14 -35z" />
    <glyph glyph-name="L" unicode="L" horiz-adv-x="479" 
d="M128 680v-581c0 -6 2 -11 6 -15s9 -6 15 -6h260c5.33301 0 10 -2 14 -6s6 -8.66699 6 -14v-38c0 -5.33301 -2 -10 -6 -14s-8.66699 -6 -14 -6h-339c-5.33301 0 -10 2 -14 6s-6 8.66699 -6 14v660c0 5.33301 2 10 6 14s8.66699 6 14 6h38c5.33301 0 10 -2 14 -6
s6 -8.66699 6 -14z" />
    <glyph glyph-name="M" unicode="M" horiz-adv-x="654" 
d="M128 489v-468.001c0 -6 -2 -11 -6 -15s-8.66699 -6 -14 -6h-38c-5.33301 0 -10 2 -14 6s-6 9 -6 15v659v25c0 3.33301 1.33301 3.33301 4 0l19 -20l240 -262c4 -4 8.66699 -6 14 -6s10 2 14 6l240 262c12 12.667 18 19.334 18 20.001c3.33301 3.33301 5 3.33301 5 0v-684
c0 -6 -2 -11 -6 -15s-8.66699 -6 -14 -6h-38c-5.33301 0 -10 2 -14 6s-6 9 -6 15v468c0 5.33301 -1.33301 8.5 -4 9.5s-6 -0.5 -10 -4.5l-171 -186c-4 -4 -8.66699 -6 -14 -6s-10 2 -14 6l-171 186c-4 4 -7.33301 5.5 -10 4.5s-4 -4.16699 -4 -9.5z" />
    <glyph glyph-name="N" unicode="N" horiz-adv-x="586" 
d="M128 475v-454c0 -6 -2 -11 -6 -15s-8.66699 -6 -14 -6h-38c-5.33301 0 -10 2 -14 6s-6 9 -6 15v659v30c0 6.66699 2.66699 6.66699 8 0c8 -10 14.667 -18.667 20 -26l367 -463c3.33301 -4 6.33301 -5.66699 9 -5s4 4 4 10v454v20c0 0.666992 6.66699 1 20 1h38
c13.333 0 20 -0.333008 20 -1v-680v-30c0 -6 -2.33301 -6 -7 0l-21 26l-367 463c-3.33301 4.66699 -6.33301 6.5 -9 5.5s-4 -4.16699 -4 -9.5z" />
    <glyph glyph-name="O" unicode="O" horiz-adv-x="790" 
d="M395 5c-62.667 0 -120.502 15.499 -173.502 46.499s-94.833 73 -125.5 126s-46 110.5 -46 172.5c0 46.667 9.16699 91.334 27.5 134.001s42.833 79.5 73.5 110.5s67.334 55.5 110.001 73.5s87.334 27 134.001 27c62.667 0 120.5 -15.333 173.5 -46
s94.833 -72.5 125.5 -125.5s46 -110.667 46 -173s-15.333 -120 -46 -173s-72.5 -95 -125.5 -126s-110.833 -46.5 -173.5 -46.5zM394.998 616.999c-73.333 0 -136.166 -26 -188.499 -78s-78.5 -114.833 -78.5 -188.5s26.167 -136.5 78.5 -188.5s115.166 -78 188.499 -78
s136.166 26 188.499 78s78.5 114.833 78.5 188.5s-26.167 136.5 -78.5 188.5s-115.166 78 -188.499 78z" />
    <glyph glyph-name="P" unicode="P" horiz-adv-x="518" 
d="M149 311c-6 0 -11 -2 -15 -6s-6 -8.66699 -6 -14v-270c0 -6 -2 -11 -6 -15s-8.66699 -6 -14 -6h-37c-6 0 -11 2 -15 6s-6 9 -6 15v654c0 5.33301 2 10 6 14s8.66699 6 14 6h206c56 0 103.167 -20.833 141.5 -62.5s54.833 -90.834 49.5 -147.501
c-4.66699 -49.333 -26 -90.666 -64 -123.999s-82.333 -50 -133 -50h-121zM389 488c4.66699 34.667 -4.5 64.833 -27.5 90.5s-51.5 38.5 -85.5 38.5h-127c-6 0 -11 -2 -15 -6s-6 -9 -6 -15v-186c0 -6 2 -11 6 -15s9 -6 15 -6h123c29.333 0 55.333 9.5 78 28.5
s35.667 42.5 39 70.5z" />
    <glyph glyph-name="Q" unicode="Q" horiz-adv-x="790" 
d="M352 8c-80 10 -148.502 44.6641 -205.502 103.997s-88.833 129.333 -95.5 210c-4 52.667 3.5 103.167 22.5 151.5s45.833 89.5 80.5 123.5s76.5 59.833 125.5 77.5s99.833 23.834 152.5 18.501c80.667 -8 149.834 -41.167 207.501 -99.5s90.5 -127.833 98.5 -208.5
c2.66699 -27.333 2.33398 -54.166 -0.999023 -80.499s-9.5 -51.166 -18.5 -74.499s-20.333 -45.5 -34 -66.5s-29.5 -40.5 -47.5 -58.5c20 -23.333 38 -48 54 -74c4 -6.66699 4.16699 -13.5 0.5 -20.5s-9.5 -10.5 -17.5 -10.5h-44c-7.33301 0 -13 3 -17 9
c-12 18 -24.333 34.333 -37 49c-70 -43.333 -144.667 -60 -224 -50zM394.998 82.9971c30 0 59.667 5.66699 89 17c8 2.66699 12.667 8.16699 14 16.5s-1.66699 14.833 -9 19.5c-81.333 57.333 -172.666 86 -273.999 86h-15c-8.66699 0 -14.667 -3.83301 -18 -11.5
s-2.33301 -15.167 3 -22.5c12 -15.333 25.667 -29.5 41 -42.5s31.833 -24.167 49.5 -33.5s36.667 -16.5 57 -21.5s41.166 -7.5 62.499 -7.5zM127.998 349.997c0 -11.333 0.999023 -23.334 2.99902 -36.001c0.666992 -5.33301 3.33398 -9.66602 8.00098 -12.999
s9.66699 -4.66602 15 -3.99902c22 2.66699 42.333 4 61 4c64.667 0 127.167 -11.167 187.5 -33.5s115.5 -53.833 165.5 -94.5c4 -3.33301 8.83301 -4.83301 14.5 -4.5s10.167 2.83301 13.5 7.5c44 50 66 108 66 174c0 70.667 -24.833 132 -74.5 184s-109.5 79.667 -179.5 83
c-76.667 3.33301 -142.5 -21.334 -197.5 -74.001s-82.5 -117 -82.5 -193z" />
    <glyph glyph-name="R" unicode="R" horiz-adv-x="544" 
d="M149 311c-6 0 -10.999 -2 -14.999 -6s-6 -8.66699 -6 -14v-270c0 -6 -2 -11 -6 -15s-8.66699 -6 -14 -6h-37c-6 0 -11 2 -15 6s-6 9 -6 15v655c0 5.33301 1.83301 9.83301 5.5 13.5s8.16699 5.5 13.5 5.5h201c33.333 0 64.666 -7.5 93.999 -22.5s53.333 -36.167 72 -63.5
s29 -57.333 31 -90c4 -42.667 -5.33301 -81.667 -28 -117s-53 -60.666 -91 -75.999c-6 -2.66699 -10 -6.83398 -12 -12.501s-1.66699 -11.5 1 -17.5l154 -265c4 -7.33301 4 -14.333 0 -21s-10 -10 -18 -10h-43c-8 -0 -13.667 3.33301 -17 10l-168 291
c-4 6.66699 -10 10 -18 10h-78zM389.001 488c4 34.667 -5.33203 64.833 -27.999 90.5s-51 38.5 -85 38.5h-127c-6 0 -11 -2 -15 -6s-6 -9 -6 -15v-186c0 -6 2 -11 6 -15s9 -6 15 -6h123c29.333 0 55.166 9.5 77.499 28.5s35.5 42.5 39.5 70.5z" />
    <glyph glyph-name="S" unicode="S" horiz-adv-x="560" 
d="M132 6c-43.333 35.333 -70.666 79.999 -81.999 133.999c-0.666992 6 0.666016 11.5 3.99902 16.5s8.33301 7.83301 15 8.5l37 3c4.66699 0.666992 9.16699 -0.5 13.5 -3.5s7.16602 -6.83301 8.49902 -11.5c7.33301 -34.667 25 -63.334 53 -86.001
c32.667 -26.667 70.334 -38 113.001 -34c51.333 6 90.333 31.333 117 76c19.333 32.667 25.333 69 18 109c-6.66699 36 -22 62.833 -46 80.5s-59.667 34.834 -107 51.501c-27.333 8.66699 -47 16 -59 22c-24 12.667 -44.5 27 -61.5 43s-29.833 33.333 -38.5 52
s-13.5 38.667 -14.5 60s2.5 43.333 10.5 66c8.66699 26 22.834 48.167 42.501 66.5s42.5 31.833 68.5 40.5c35.333 11.333 71.333 12.333 108 3l10 -3c27.333 -9.33301 53.166 -26.5 77.499 -51.5s39.166 -55.833 44.499 -92.5c0.666992 -6.66699 -1 -12.334 -5 -17.001
s-9 -7 -15 -7l-37 -1c-12 0 -19 5.66699 -21 17c-4.66699 22.667 -15 40.834 -31 54.501s-30 21.834 -42 24.501c-26 6.66699 -51.333 5 -76 -5s-41.334 -28.333 -50.001 -55c-18 -52 4 -93.667 66 -125c8 -4 24 -10.333 48 -19c15.333 -4.66699 27.166 -8.66699 35.499 -12
s20.333 -8.5 36 -15.5s28.334 -13.833 38.001 -20.5s20.834 -15.667 33.501 -27s23 -23.166 31 -35.499s15.167 -27.333 21.5 -45s10.5 -36.834 12.5 -57.501c6.66699 -63.333 -10.333 -120 -51 -170c-11.333 -14 -25.666 -27.333 -42.999 -40
c-34.667 -25.333 -72.334 -40 -113.001 -44c-8 -1.33301 -16.333 -2 -25 -2c-49.333 0 -94.666 15.333 -135.999 46c-0.666992 0.666992 -2.16699 1.66699 -4.5 3s-3.83301 2.33301 -4.5 3z" />
    <glyph glyph-name="T" unicode="T" horiz-adv-x="508" 
d="M50 637v38c0 5.33301 2 10 6 14s8.66699 6 14 6h367c6 0 11 -2 15 -6s6 -8.66699 6 -14v-38c0 -5.33301 -2 -10 -6 -14s-9 -6 -15 -6h-124c-5.33301 0 -10 -2 -14 -6s-6 -8.66699 -6 -14v-576c0 -6 -2 -11 -6 -15s-8.66699 -6 -14 -6h-38c-5.33301 0 -10 2 -14 6
s-6 9 -6 15v576c0 5.33301 -2 10 -6 14s-8.66699 6 -14 6h-125c-5.33301 0 -10 2 -14 6s-6 8.66699 -6 14z" />
    <glyph glyph-name="U" unicode="U" horiz-adv-x="586" 
d="M305 6c-45.333 -2.66699 -87.668 6.66797 -127.001 28.001s-70.5 51 -93.5 89s-34.5 79.667 -34.5 125v453h78v-453c0 -47.333 17.5 -87.333 52.5 -120s76.167 -47.334 123.5 -44.001c43.333 2.66699 79.833 20.667 109.5 54s44.5 72 44.5 116v447h78v-446
c0 -65.333 -22.167 -122.5 -66.5 -171.5s-99.166 -74.833 -164.499 -77.5z" />
    <glyph glyph-name="V" unicode="V" horiz-adv-x="678" 
d="M339 -6l-9.99902 24.999l-278 662c-2 5.33301 -1.66699 9.83301 1 13.5s6.66699 5.5 12 5.5h44c2.66699 0 5.5 -0.5 8.5 -1.5s5.66699 -2.33301 8 -4s4.66602 -3.66699 6.99902 -6s3.83301 -4.83301 4.5 -7.5l197 -470c2 -5.33301 4.5 -8 7.5 -8s5.5 2.66699 7.5 8
l194 470c2 5.33301 5.83301 9.83301 11.5 13.5s11.167 5.5 16.5 5.5h44c6 0 10.167 -1.83301 12.5 -5.5s2.5 -8.16699 0.5 -13.5l-273 -662c-1.33301 -2.66699 -2.83301 -6 -4.5 -10l-4 -9.5c-1 -2.33301 -1.5 -4.16602 -1.5 -5.49902c-2 -3.33301 -3.66699 -3.33301 -5 0z
" />
    <glyph glyph-name="W" unicode="W" horiz-adv-x="932" 
d="M341 -6c-4 8.66699 -7.66895 16.9971 -11.002 24.9971l-279 662c-1.33301 3.33301 -1.66602 6.5 -0.999023 9.5s2.16699 5.33301 4.5 7s5.5 2.5 9.5 2.5h44c5.33301 0 10.833 -1.83301 16.5 -5.5s9.5 -8.16699 11.5 -13.5l197 -468c2.66699 -5.33301 5.5 -8 8.5 -8
s5.5 2.66699 7.5 8l71 177c4.66699 12.667 4.33398 25.334 -0.999023 38.001l-106 253c-2 5.33301 -1.83301 9.83301 0.5 13.5s6.16602 5.5 11.499 5.5h44c6 0 11.667 -1.83301 17 -5.5s9.33301 -8.16699 12 -13.5l197 -468c2 -5.33301 4.5 -8 7.5 -8s5.5 2.66699 7.5 8
l186 468c2.66699 5.33301 6.66699 9.83301 12 13.5s10.666 5.5 15.999 5.5h44c5.33301 0 9.33301 -1.83301 12 -5.5s3 -8.16699 1 -13.5l-264 -662c-1.33301 -4 -3.16602 -9 -5.49902 -15s-3.83301 -9.33301 -4.5 -10c-1.33301 -4.66699 -3 -4.66699 -5 0
c0 0.666992 -0.5 1.83398 -1.5 3.50098s-1.83301 3.66699 -2.5 6s-1.66699 4.83301 -3 7.5s-2.33301 5.33398 -3 8.00098l-114 269c-2 5.33301 -4.5 7.83301 -7.5 7.5s-5.5 -2.83301 -7.5 -7.5l-107 -269c-1.33301 -4 -3.16602 -9 -5.49902 -15s-3.83301 -9.33301 -4.5 -10
c-1.33301 -4.66699 -3 -4.66699 -5 0z" />
    <glyph glyph-name="X" unicode="X" horiz-adv-x="641" 
d="M115 0h-53c-5.33301 0 -9 1.66699 -11 5s-1.33301 7.33301 2 12l209 316c8 11.333 8 22.666 0 33.999l-209 316c-2.66699 4.66699 -3.16699 8.66699 -1.5 12s5.5 5 11.5 5h52c14 0 24.667 -5.66699 32 -17l162 -245c3.33301 -4.66699 7.16602 -7 11.499 -7
s8.16602 2.33301 11.499 7l162 245c7.33301 11.333 18 17 32 17h52c6 0 9.83301 -1.66699 11.5 -5s1.16699 -7.33301 -1.5 -12l-209 -316c-8 -11.333 -8 -22.666 0 -33.999l209 -316c3.33301 -4.66699 4 -8.66699 2 -12s-5.66699 -5 -11 -5h-53
c-13.333 0 -24 5.66699 -32 17l-162 245c-3.33301 4.66699 -7.16602 7 -11.499 7s-8.16602 -2.33301 -11.499 -7l-162 -245c-8 -11.333 -18.667 -17 -32 -17z" />
    <glyph glyph-name="Y" unicode="Y" horiz-adv-x="655" 
d="M288 20l0.00195312 253.002c0 13.333 -3.33301 26 -10 38l-225 372c-3.33301 4.66699 -4 8.66699 -2 12s5.66699 5 11 5h51c3.33301 0 7.16602 -0.833008 11.499 -2.5s8.16602 -3.83398 11.499 -6.50098s6 -5.33398 8 -8.00098l173 -286
c2.66699 -4.66699 6.16699 -7 10.5 -7s7.83301 2.33301 10.5 7l173 286c2.66699 4.66699 7 8.66699 13 12s12 5 18 5h50c6 0 9.83301 -1.66699 11.5 -5s1.16699 -7.33301 -1.5 -12l-225 -372c-7.33301 -12 -11 -24.667 -11 -38v-253c0 -5.33301 -2 -10 -6 -14
s-8.66699 -6 -14 -6h-37c-6 0 -11 2 -15 6s-6 8.66699 -6 14z" />
    <glyph glyph-name="Z" unicode="Z" horiz-adv-x="576" 
d="M505 0l-439 0.00195312c-5.33301 0 -9 1.66699 -11 5s-1.66699 7.66602 1 12.999l329 581c2.66699 5.33301 3 9.66602 1 12.999s-5.66699 5 -11 5h-305c-5.33301 0 -10 2 -14 6s-6 8.66699 -6 14v38c0 5.33301 2 10 6 14s8.66699 6 14 6h439c6 0 10 -1.66699 12 -5
s1.66699 -7.66602 -1 -12.999l-329 -581c-3.33301 -4.66699 -4 -8.83398 -2 -12.501s6 -5.5 12 -5.5h304c6 0 11 -2 15 -6s6 -8.66699 6 -14v-38c0 -5.33301 -2 -10 -6 -14s-9 -6 -15 -6z" />
    <glyph glyph-name="bracketleft" unicode="[" horiz-adv-x="266" 
d="M149 659c-6 0 -11 -2 -15 -6s-6 -9 -6 -15v-581c0 -5.33301 2 -10 6 -14s9 -6 15 -6h46c6 0 11 -2 15 -6s6 -9 6 -15v-37c0 -5.33301 -2 -10 -6 -14s-9 -6 -15 -6h-125c-5.33301 0 -10 2 -14 6s-6 8.66699 -6 14v737c0 6 2 11 6 15s8.66699 6 14 6h125c6 0 11 -2 15 -6
s6 -9 6 -15v-37c0 -6 -2 -10.833 -6 -14.5s-9 -5.5 -15 -5.5h-46z" />
    <glyph glyph-name="backslash" unicode="\" horiz-adv-x="452" 
d="M136 679l264 -661.999c1.33301 -4 1.83301 -7.33301 1.5 -10s-1.83301 -4.83398 -4.5 -6.50098s-5.66699 -2.5 -9 -2.5h-44c-5.33301 0 -10.833 1.83301 -16.5 5.5s-9.5 8.16699 -11.5 13.5l-265 662c-2 5.33301 -1.66699 9.83301 1 13.5s6.66699 5.5 12 5.5h44
c3.33301 0 7 -0.833008 11 -2.5s7.5 -4 10.5 -7s5.16699 -6.16699 6.5 -9.5z" />
    <glyph glyph-name="bracketright" unicode="]" horiz-adv-x="266" 
d="M195 737c6 0 11 -2 15 -6s6 -9 6 -15v-737c0 -5.33301 -2 -10 -6 -14s-9 -6 -15 -6h-125c-5.33301 0 -10 2 -14 6s-6 8.66699 -6 14v37c0 6 2 11 6 15s8.66699 6 14 6h47c6 0 11 2 15 6s6 8.66699 6 14v581c0 6 -2 11 -6 15s-9 6 -15 6h-47
c-5.33301 0 -10 1.83301 -14 5.5s-6 8.5 -6 14.5v37c0 6 2 11 6 15s8.66699 6 14 6h125z" />
    <glyph glyph-name="asciicircum" unicode="^" horiz-adv-x="432" 
d="M379 485c3.33301 -4.66699 4.00098 -8.66699 2.00098 -12s-5.66699 -5 -11 -5h-43c-13.333 0 -24 5.66699 -32 17l-67 94c-3.33301 4.66699 -7.33301 7 -12 7s-8.66699 -2.33301 -12 -7l-67 -94c-8 -11.333 -18.667 -17 -32 -17h-43c-6 0 -9.83301 1.66699 -11.5 5
s-0.833984 7.33301 2.49902 12l151 211c3.33301 4 7.33301 6 12 6s8.66699 -2 12 -6z" />
    <glyph glyph-name="underscore" unicode="_" horiz-adv-x="525" 
d="M454 81c6 0 11 -2 15 -6s6 -8.66699 6 -14v-38c0 -5.33301 -2 -10 -6 -14s-9 -6 -15 -6h-384c-5.33301 0 -10 2 -14 6s-6 8.66699 -6 14v38c0 5.33301 2 10 6 14s8.66699 6 14 6h384z" />
    <glyph glyph-name="grave" unicode="`" horiz-adv-x="187" 
d="M135 569c2 -5.33301 2.16797 -10.499 0.500977 -15.499s-4.5 -8.33301 -8.5 -10s-8.33301 -1.33398 -13 0.999023s-8.33398 5.83301 -11.001 10.5l-51 101c-2.66699 5.33301 -3 10.5 -1 15.5s5.66699 8.83301 11 11.5l9 4c5.33301 2 10.5 1.83301 15.5 -0.5
s8.5 -5.83301 10.5 -10.5z" />
    <glyph glyph-name="a" unicode="a" horiz-adv-x="501" 
d="M216 -2c-48.667 0 -88.5 13.002 -119.5 39.002s-46.5 59.667 -46.5 101c0 46.667 17.167 83.667 51.5 111s80.833 41 139.5 41c48 0 92 -8.66699 132 -26v11c0 30.667 -11 56.834 -33 78.501s-48.333 32.5 -79 32.5c-41.333 0 -76.333 -7.33301 -105 -22
c-4.66699 -2.66699 -9.83398 -3.33398 -15.501 -2.00098s-10.167 4.33301 -13.5 9l-18 29c-3.33301 5.33301 -4.16602 11.166 -2.49902 17.499s5.16699 11.166 10.5 14.499c40.667 21.333 89 32 145 32c52 0 96.5 -18.5 133.5 -55.5s55.5 -81.5 55.5 -133.5v-252
c0 -6.66699 -2.16699 -12.167 -6.5 -16.5s-9.5 -6.5 -15.5 -6.5h-2c-14.667 -0 -27.334 5.33301 -38.001 16s-16 23.667 -16 39c-45.333 -38 -97.666 -57 -156.999 -57zM199 208.002c-16 -3.33301 -29.334 -8.16797 -40.001 -14.501s-18 -13.5 -22 -21.5
s-6.5 -14.333 -7.5 -19s-1.5 -9.66699 -1.5 -15c0 -14 4 -25.667 12 -35s17.833 -15.666 29.5 -18.999s21 -5.5 28 -6.5s13.167 -1.5 18.5 -1.5c30.667 0 60.667 8.66699 90 26s49.333 43 60 77c-10.667 8 -27.667 15.5 -51 22.5s-47.666 10.5 -72.999 10.5
c-14.667 0 -29 -1.33301 -43 -4z" />
    <glyph glyph-name="b" unicode="b" 
d="M128 68l0.000976562 -12.001c0 -15.333 -5.5 -28.5 -16.5 -39.5s-24.167 -16.5 -39.5 -16.5c-6 0 -11.167 2.16699 -15.5 6.5s-6.5 9.5 -6.5 15.5v692c0 6 2.16699 11.167 6.5 15.5s9.5 6.5 15.5 6.5h34c6 0 11.167 -2.16699 15.5 -6.5s6.5 -9.5 6.5 -15.5v-307
c43.333 38 92.666 57 147.999 57c64 0 118.333 -23 163 -69s66 -101 64 -165c-2 -58 -24 -108.167 -66 -150.5s-92 -65.166 -150 -68.499c-59.333 -2.66699 -112.333 16.333 -159 57zM276.501 385.999c-41 0 -76 -14.5 -105 -43.5s-43.5 -64 -43.5 -105s14.5 -76 43.5 -105
s64 -43.5 105 -43.5s76 14.5 105 43.5s43.5 64 43.5 105s-14.5 76 -43.5 105s-64 43.5 -105 43.5z" />
    <glyph glyph-name="c" unicode="c" horiz-adv-x="477" 
d="M277 11c-62.667 0 -116.167 22.1699 -160.5 66.5029s-66.5 97.666 -66.5 159.999s22 115.833 66 160.5c40 39.333 89.5 60.5 148.5 63.5s110.167 -12.833 153.5 -47.5c5.33301 -4 8.16602 -9.33301 8.49902 -16s-1.83398 -12.334 -6.50098 -17.001l-24 -24
c-9.33301 -8.66699 -19 -9.33398 -29 -2.00098c-28.667 22 -62 31.833 -100 29.5s-69.667 -16.166 -95 -41.499c-29.333 -29.333 -44 -64.5 -44 -105.5s14.667 -75.833 44 -104.5c25.333 -26 57 -40 95 -42s71.333 7.66699 100 29c10 8 19.667 7.33301 29 -2l24 -24
c4.66699 -4.66699 6.83398 -10.334 6.50098 -17.001s-3.16602 -12 -8.49902 -16c-40.667 -33.333 -87.667 -50 -141 -50z" />
    <glyph glyph-name="d" unicode="d" 
d="M266 11c-58.667 3.33301 -108.833 26.167 -150.5 68.5s-63.5 92.5 -65.5 150.5c-2 64 19.333 119 64 165s98.667 69 162 69c56 0 105.667 -19 149 -57v307c0 6 2.16699 11.167 6.5 15.5s9.5 6.5 15.5 6.5h34c6 0 11.167 -2.16699 15.5 -6.5s6.5 -9.5 6.5 -15.5v-692
c0 -6 -2.16699 -11.167 -6.5 -15.5s-9.5 -6.5 -15.5 -6.5c-16 0 -29.333 5.5 -40 16.5s-16 24.167 -16 39.5v12c-46.667 -40.667 -99.667 -59.667 -159 -57zM276.501 386.001c-41 0 -76 -14.5 -105 -43.5s-43.5 -64 -43.5 -105s14.5 -76 43.5 -105s64 -43.5 105 -43.5
s76 14.5 105 43.5s43.5 64 43.5 105s-14.5 76 -43.5 105s-64 43.5 -105 43.5z" />
    <glyph glyph-name="e" unicode="e" horiz-adv-x="551" 
d="M74 136l-14.9971 37c-17.333 60 -11 117.5 19 172.5s75 91.5 135 109.5c60 17.333 117.667 11 173 -19c34 -18 61.333 -43.333 82 -76c10.667 -16 19.667 -35.667 27 -59c2 -6 3.66699 -13.333 5 -22c2 -11.333 -2.33301 -18.333 -13 -21l-317 -93
c-4.66699 -1.33301 -7.83398 -4.5 -9.50098 -9.5s-0.833984 -9.5 2.49902 -13.5c12 -14.667 26.333 -26.667 43 -36c36 -19.333 73.667 -23.333 113 -12c33.333 10 60 29 80 57c6.66699 9.33301 15 11.333 25 6l35 -19c4.66699 -2.66699 7.66699 -6.83398 9 -12.501
s0.666016 -10.834 -2.00098 -15.501c-30.667 -45.333 -72.334 -75.666 -125.001 -90.999c-20.667 -6 -42 -9 -64 -9c-38.667 0 -75 9.33301 -109 28c-41.333 22.667 -72.666 55.334 -93.999 98.001zM147.003 308c-9.33301 -16.667 -15.333 -34 -18 -52
c0 -3.33301 0.833008 -6.5 2.5 -9.5s4.16699 -5.16699 7.5 -6.5s6.66602 -1.33301 9.99902 0l255 75c-13.333 22 -31.666 39.667 -54.999 53c-22.667 12 -46.334 18 -71.001 18c-14.667 0 -29 -2 -43 -6c-39.333 -12 -68.666 -36 -87.999 -72z" />
    <glyph glyph-name="f" unicode="f" horiz-adv-x="467" 
d="M159 0c-6 0 -10.8311 2.00195 -14.498 6.00195s-5.5 8.66699 -5.5 14v346c0 5.33301 -2 10 -6 14s-8.66699 6 -14 6h-49c-5.33301 0 -10 1.83301 -14 5.5s-6 8.5 -6 14.5v38c0 5.33301 2 10 6 14s8.66699 6 14 6h49c5.33301 0 10 1.83301 14 5.5s6 8.5 6 14.5v98
c0 44 15 82.167 45 114.5s66.667 49.166 110 50.499c46 2 85 -13.333 117 -46c4.66699 -4.66699 6.66699 -10 6 -16s-3.33398 -10.667 -8.00098 -14l-31 -24c-8.66699 -6 -17.334 -5.33301 -26.001 2c-16 14 -34.667 20.667 -56 20
c-14.667 -0.666992 -28.167 -4.83398 -40.5 -12.501s-21.833 -18 -28.5 -31s-10 -26.833 -10 -41.5v-100c0 -6 2 -10.833 6 -14.5s8.66699 -5.5 14 -5.5h100c6 0 10.833 -2 14.5 -6s5.5 -8.66699 5.5 -14v-39c0 -5.33301 -1.83301 -9.83301 -5.5 -13.5s-8.5 -5.5 -14.5 -5.5
h-100c-5.33301 0 -10 -2 -14 -6s-6 -8.66699 -6 -14v-346c0 -5.33301 -2 -10 -6 -14s-8.66699 -6 -14 -6h-38z" />
    <glyph glyph-name="g" unicode="g" 
d="M266 11c-58.667 3.33301 -108.834 26.166 -150.501 68.499s-63.5 92.5 -65.5 150.5c-2 64 19.333 119 64 165s98.667 69 162 69c56 0 105.667 -19 149 -57v5c0 16.667 5.66699 30.667 17 42s25 17 41 17c5.33301 0 10 -2 14 -6s6 -8.66699 6 -14v-451h-1
c-1.33301 -66.667 -26 -123.5 -74 -170.5s-105.333 -70.5 -172 -70.5c-48.667 0 -93 13 -133 39c-5.33301 3.33301 -8.5 7.83301 -9.5 13.5s0.166992 11.167 3.5 16.5l24 30c7.33301 9.33301 16 11 26 5c26.667 -17.333 56.334 -25.666 89.001 -24.999
c46.667 0 86.5 17.167 119.5 51.5s49.5 75.5 49.5 123.5v55c-46.667 -40.667 -99.667 -59.667 -159 -57zM276.5 386c-41 0 -76 -14.5 -105 -43.5s-43.5 -64 -43.5 -105s14.5 -76 43.5 -105s64 -43.5 105 -43.5s76 14.5 105 43.5s43.5 64 43.5 105s-14.5 76 -43.5 105
s-64 43.5 -105 43.5z" />
    <glyph glyph-name="h" unicode="h" horiz-adv-x="487" 
d="M128 270v-250.001c0 -5.33301 -1.83301 -10 -5.5 -14s-8.5 -6 -14.5 -6h-38c-5.33301 0 -10 2 -14 6s-6 8.66699 -6 14v696c0 5.33301 2 10 6 14s8.66699 6 14 6h38c6 0 10.833 -2 14.5 -6s5.5 -8.66699 5.5 -14v-291c38.667 28.667 81 41.667 127 39
c34 -2 65 -12.333 93 -31s49.833 -43 65.5 -73s23.5 -62 23.5 -96v-244c0 -5.33301 -1.83301 -10 -5.5 -14s-8.5 -6 -14.5 -6h-38c-5.33301 0 -10 2 -14 6s-6 8.66699 -6 14v246c0 30 -9.5 56.333 -28.5 79s-42.833 36 -71.5 40c-35.333 4.66699 -66 -4.66602 -92 -27.999
s-39 -52.333 -39 -87z" />
    <glyph glyph-name="i" unicode="i" horiz-adv-x="202" 
d="M140 450v-430c0 -5.33301 -2 -10 -6 -14s-8.66699 -6 -14 -6h-38c-5.33301 0 -10 2 -14 6s-6 8.66699 -6 14v430c0 6 2 11 6 15s8.66699 6 14 6h38c5.33301 0 10 -2 14 -6s6 -9 6 -15zM152 578c0 -14 -5 -26.167 -15 -36.5s-22 -15.5 -36 -15.5s-26 5.16699 -36 15.5
s-15 22.5 -15 36.5s5 26 15 36s22 15 36 15s26 -5 36 -15s15 -22 15 -36z" />
    <glyph glyph-name="j" unicode="j" horiz-adv-x="326" 
d="M72 -225c-6 -0.666992 -11.168 1 -15.501 5s-6.5 9 -6.5 15v39c0 4.66699 1.66699 8.83398 5 12.501s7.33301 6.16699 12 7.5c34 4.66699 62.333 23 85 55s34 69.333 34 112v430c0 5.33301 2 10 6 14s8.66699 6 14 6h38c5.33301 0 10 -2 14 -6s6 -8.66699 6 -14v-436
c-2 -62 -21.167 -115.833 -57.5 -161.5s-81.166 -71.834 -134.499 -78.501zM173.999 578c0 14 5 26 15 36s22 15 36 15s26 -5 36 -15s15 -22 15 -36s-5 -26.167 -15 -36.5s-22 -15.5 -36 -15.5s-26 5.16699 -36 15.5s-15 22.5 -15 36.5z" />
    <glyph glyph-name="k" unicode="k" horiz-adv-x="511" 
d="M128 71l-0.000976562 -51c0 -5.33301 -2 -10 -6 -14s-8.66699 -6 -14 -6h-38c-5.33301 0 -10 2 -14 6s-6 8.66699 -6 14v696c0 5.33301 2 10 6 14s8.66699 6 14 6h38c5.33301 0 10 -2 14 -6s6 -8.66699 6 -14v-485c0 -6 1.33301 -9.5 4 -10.5s6 0.833008 10 5.5l200 229
c8.66699 10.667 20 16 34 16h62c6 0 9.66699 -1.5 11 -4.5s0 -6.83301 -4 -11.5l-176 -202c-3.33301 -4 -5 -9 -5 -15s2 -11 6 -15l187 -208c4 -4 5.33301 -7.5 4 -10.5s-5 -4.5 -11 -4.5h-64c-14 0 -25.333 5 -34 15l-134 148c-4 4 -8.66699 6 -14 6
s-9.66602 -2 -12.999 -6l-49 -57c-9.33301 -10 -14 -21.667 -14 -35z" />
    <glyph glyph-name="l" unicode="l" horiz-adv-x="178" 
d="M128 716v-696c0 -5.33301 -2 -10 -6 -14s-8.66699 -6 -14 -6h-38c-5.33301 0 -10 2 -14 6s-6 8.66699 -6 14v696c0 5.33301 2 10 6 14s8.66699 6 14 6h38c5.33301 0 10 -2 14 -6s6 -8.66699 6 -14z" />
    <glyph glyph-name="m" unicode="m" horiz-adv-x="758" 
d="M128 270l-0.000976562 -250c0 -5.33301 -2 -10 -6 -14s-8.66699 -6 -14 -6h-38c-5.33301 0 -10 2 -14 6s-6 8.66699 -6 14v431c0 5.33301 2 10 6 14s8.66699 6 14 6h16c11.333 0 21.166 -4.16699 29.499 -12.5s12.5 -18.5 12.5 -30.5c32 24 67.333 36 106 36
c19.333 0 38 -3.16699 56 -9.5s34.5 -15 49.5 -26s28.167 -24.5 39.5 -40.5c17.333 24 38.5 42.667 63.5 56s52.167 20 81.5 20c50.667 0 94 -18.833 130 -56.5s54 -83.5 54 -137.5v-250c0 -5.33301 -2 -10 -6 -14s-8.66699 -6 -14 -6h-38c-6 0 -10.833 2 -14.5 6
s-5.5 8.66699 -5.5 14v250c0 32 -10.5 59.333 -31.5 82s-45.833 34 -74.5 34c-19.333 0 -37.166 -5.16699 -53.499 -15.5s-29.166 -24.333 -38.499 -42s-14 -37.167 -14 -58.5v-250c0 -5.33301 -2 -10 -6 -14s-8.66699 -6 -14 -6h-38c-5.33301 0 -10 2 -14 6
s-6 8.66699 -6 14v250c0 32 -10.333 59.333 -31 82s-45.667 34 -75 34s-54.333 -11.333 -75 -34s-31 -50 -31 -82z" />
    <glyph glyph-name="n" unicode="n" horiz-adv-x="487" 
d="M128 270l0.000976562 -250.001c0 -5.33301 -2 -10 -6 -14s-8.66699 -6 -14 -6h-38c-5.33301 0 -10 2 -14 6s-6 8.66699 -6 14v431c0 5.33301 2 10 6 14s8.66699 6 14 6h16c11.333 0 21.166 -4.16699 29.499 -12.5s12.5 -18.5 12.5 -30.5v-3
c38.667 28.667 81 41.667 127 39c34 -2 65 -12.333 93 -31s49.833 -43 65.5 -73s23.5 -62 23.5 -96v-244c0 -5.33301 -2 -10 -6 -14s-8.66699 -6 -14 -6h-38c-5.33301 0 -10 2 -14 6s-6 8.66699 -6 14v246c0 20 -4.33301 38.5 -13 55.5s-20.667 31.167 -36 42.5
s-32.333 18.333 -51 21c-35.333 4.66699 -66 -4.66602 -92 -27.999s-39 -52.333 -39 -87z" />
    <glyph glyph-name="o" unicode="o" 
d="M276.5 11c-62.333 0 -115.669 22.1641 -160.002 66.4971s-66.5 97.833 -66.5 160.5c0 30.667 6 59.834 18 87.501s28.167 51.667 48.5 72s44.333 36.5 72 48.5s56.834 18 87.501 18c62.667 0 116.167 -22.167 160.5 -66.5s66.5 -97.666 66.5 -159.999
s-22.167 -115.666 -66.5 -159.999s-97.666 -66.5 -159.999 -66.5zM276.497 385.997c-41 0 -76 -14.5 -105 -43.5s-43.5 -64 -43.5 -105s14.5 -76 43.5 -105s64 -43.5 105 -43.5s76 14.5 105 43.5s43.5 64 43.5 105s-14.5 76 -43.5 105s-64 43.5 -105 43.5z" />
    <glyph glyph-name="p" unicode="p" 
d="M128 69l0.000976562 -279.001c0 -5.33301 -1.83301 -9.83301 -5.5 -13.5s-8.16699 -5.5 -13.5 -5.5h-40c-5.33301 0 -9.83301 1.83301 -13.5 5.5s-5.5 8.16699 -5.5 13.5v662c0 4.66699 1.83301 9 5.5 13s8.16699 6 13.5 6c16.667 0 30.667 -5.83301 42 -17.5
s17 -25.5 17 -41.5v-3c43.333 37.333 92.666 56 147.999 56c42 0 80.667 -10.5 116 -31.5s63 -49.333 83 -85s29.333 -74.5 28 -116.5c-2 -58.667 -24 -109.167 -66 -151.5s-92 -64.833 -150 -67.5c-59.333 -3.33301 -112.333 15.334 -159 56.001zM276.001 386.999
c-40.667 0 -75.5 -14.501 -104.5 -43.501s-43.5 -63.833 -43.5 -104.5s14.5 -75.5 43.5 -104.5s64 -43.5 105 -43.5s76 14.5 105 43.5s43.5 63.833 43.5 104.5c0 26.667 -6.66699 51.334 -20 74.001s-31.333 40.667 -54 54s-47.667 20 -75 20z" />
    <glyph glyph-name="q" unicode="q" 
d="M266 13c-58.667 2.66699 -108.832 25.168 -150.499 67.501s-63.5 92.833 -65.5 151.5c-1.33301 42 8 81 28 117s47.667 64.333 83 85s73.666 31 114.999 31c56 0 105.667 -18.667 149 -56v3c0 16 5.66699 29.833 17 41.5s25.333 17.5 42 17.5
c5.33301 0 9.83301 -2 13.5 -6s5.5 -8.33301 5.5 -13v-662c0 -5.33301 -1.83301 -9.83301 -5.5 -13.5s-8.16699 -5.5 -13.5 -5.5h-40c-5.33301 0 -9.83301 1.83301 -13.5 5.5s-5.5 8.16699 -5.5 13.5v279c-46.667 -40.667 -99.667 -59.334 -159 -56.001zM276.002 387.001
c-40.667 0 -75.5 -14.501 -104.5 -43.501s-43.5 -63.833 -43.5 -104.5s14.5 -75.5 43.5 -104.5s64 -43.5 105 -43.5s76 14.5 105 43.5s43.5 63.833 43.5 104.5c0 26.667 -6.66699 51.334 -20 74.001s-31.333 40.667 -54 54s-47.667 20 -75 20z" />
    <glyph glyph-name="r" unicode="r" horiz-adv-x="351" 
d="M128 425c34.667 26 73.334 39 116.001 39c14 0 28 -1.66699 42 -5c10 -2 15 -8 15 -18v-43c0 -6 -2.66699 -10.833 -8 -14.5s-11 -4.5 -17 -2.5c-24.667 8 -49.334 6.66699 -74.001 -4c-22.667 -9.33301 -40.667 -24.833 -54 -46.5s-20 -45.167 -20 -70.5v-241
c0 -5.33301 -1.83301 -9.83301 -5.5 -13.5s-8.16699 -5.5 -13.5 -5.5h-40c-5.33301 -0 -9.83301 1.83301 -13.5 5.5s-5.5 8.16699 -5.5 13.5v433c0 5.33301 1.83301 9.83301 5.5 13.5s8.16699 5.5 13.5 5.5h40c5.33301 0 9.83301 -1.83301 13.5 -5.5s5.5 -8.16699 5.5 -13.5
v-27z" />
    <glyph glyph-name="s" unicode="s" horiz-adv-x="444" 
d="M220 6c-26.667 0 -51.6699 4.83008 -75.0029 14.4971s-43.166 22.834 -59.499 39.501s-27.833 36 -34.5 58c-1.33301 3.33301 -1.5 6.83301 -0.5 10.5s3 6.66699 6 9s6.5 3.83301 10.5 4.5l41 5c9.33301 1.33301 16 -2.66699 20 -12
c6.66699 -16.667 19.667 -29.667 39 -39s40.333 -13 63 -11c31.333 2.66699 55.333 14 72 34c10.667 13.333 15 27.666 13 42.999c-2 16 -9.83301 28 -23.5 36s-37.5 15.667 -71.5 23c-24 4.66699 -41 9.33398 -51 14.001c-23.333 9.33301 -42.333 22.666 -57 39.999
s-23.5 36.166 -26.5 56.499s-0.166992 41.5 8.5 63.5c11.333 28 32.5 48.833 63.5 62.5s64.833 16.834 101.5 9.50098c20 -4 40.167 -14 60.5 -30s33.833 -36 40.5 -60c1.33301 -6 0.166016 -11.5 -3.50098 -16.5s-8.5 -7.5 -14.5 -7.5l-41 -1
c-9.33301 -0.666992 -15.666 3 -18.999 11c-4 7.33301 -10.333 13.5 -19 18.5s-15.334 8.16699 -20.001 9.5c-8.66699 1.33301 -17.167 1.83301 -25.5 1.5s-16 -1.66602 -23 -3.99902s-13 -5.5 -18 -9.5s-8.5 -8.66699 -10.5 -14
c-10.667 -25.333 0.333008 -44.666 33 -57.999c6 -2.66699 18.667 -6 38 -10c15.333 -3.33301 27.5 -6.16602 36.5 -8.49902s21.333 -6.83301 37 -13.5s28.334 -14 38.001 -22s18.834 -19 27.501 -33s14.334 -30 17.001 -48c4.66699 -37.333 -5.33301 -71.333 -30 -102
c-30.667 -37.333 -72.667 -58.333 -126 -63c-5.33301 -0.666992 -11 -1 -17 -1z" />
    <glyph glyph-name="t" unicode="t" horiz-adv-x="408" 
d="M188 665c6 4.66699 12.3311 5.16699 18.998 1.5s10 -9.5 10 -17.5v-166c0 -5.33301 1.83301 -9.83301 5.5 -13.5s8.16699 -5.5 13.5 -5.5h103c4.66699 0 9 -1.83301 13 -5.5s6 -8.16699 6 -13.5v-40c0 -5.33301 -2 -9.83301 -6 -13.5s-8.33301 -5.5 -13 -5.5h-103
c-5.33301 0 -9.83301 -2 -13.5 -6s-5.5 -8.33301 -5.5 -13v-195c0 -19.333 6.33301 -36.5 19 -51.5s28.334 -24.5 47.001 -28.5c10.667 -2 16 -8 16 -18v-41c0 -4 -1 -7.5 -3 -10.5s-4.66699 -5.33301 -8 -7s-7 -2.16699 -11 -1.5c-39.333 5.33301 -72.166 23 -98.499 53
s-39.5 65 -39.5 105v195c0 4.66699 -1.83301 9 -5.5 13s-8.16699 6 -13.5 6h-51c-5.33301 0 -9.83301 1.83301 -13.5 5.5s-5.5 8.16699 -5.5 13.5v40c0 5.33301 1.83301 9.83301 5.5 13.5s8.16699 5.5 13.5 5.5h51c5.33301 0 9.83301 1.83301 13.5 5.5s5.5 8.16699 5.5 13.5
v139c0 6.66699 2.66699 12 8 16z" />
    <glyph glyph-name="u" unicode="u" horiz-adv-x="487" 
d="M216 9c-48 6.66699 -87.667 28.999 -119 66.999s-47 81.667 -47 131v245c0 5.33301 1.83301 9.83301 5.5 13.5s8.16699 5.5 13.5 5.5h40c5.33301 0 9.83301 -1.83301 13.5 -5.5s5.5 -8.16699 5.5 -13.5v-252c0 -34.667 13 -63.5 39 -86.5s56.667 -32.167 92 -27.5
c28.667 3.33301 52.5 16.5 71.5 39.5s28.5 49.167 28.5 78.5v243c0 5.33301 1.83301 9.83301 5.5 13.5s8.16699 5.5 13.5 5.5h40c5.33301 0 9.83301 -1.83301 13.5 -5.5s5.5 -8.16699 5.5 -13.5v-431c0 -4.66699 -1.5 -8.5 -4.5 -11.5s-6.83301 -4.5 -11.5 -4.5h-46
c-4 0 -7.66699 1.5 -11 4.5s-5 6.83301 -5 11.5c0 7.33301 -0.333008 12.833 -1 16.5s-2 5.66699 -4 6s-3.83301 0.333008 -5.5 0s-4 -1.66602 -7 -3.99902s-5.16699 -3.83301 -6.5 -4.5c-37.333 -20.667 -77 -27.667 -119 -21z" />
    <glyph glyph-name="v" unicode="v" horiz-adv-x="541" 
d="M490 448l-208.995 -428.998c-2 -5.33301 -4.83301 -8 -8.5 -8s-6.83398 2.33301 -9.50098 7l-211 430c-2.66699 5.33301 -2.83398 9.66602 -0.500977 12.999s6.16602 5 11.499 5h47c3.33301 0 7 -0.833008 11 -2.5s7.66699 -3.83398 11 -6.50098
s5.66602 -5.66699 6.99902 -9l124 -251c2.66699 -5.33301 5.66699 -8 9 -8s6.33301 2.66699 9 8l122 251c2 5.33301 6 9.66602 12 12.999s11.667 5 17 5h46c5.33301 0 9.16602 -1.66699 11.499 -5s2.5 -7.66602 0.5 -12.999z" />
    <glyph glyph-name="w" unicode="w" horiz-adv-x="765" 
d="M372 204l-87.9951 -185.998c-2 -5.33301 -4.83301 -8 -8.5 -8s-6.5 2.66699 -8.5 8l-215 430c-2.66699 5.33301 -2.83398 9.66602 -0.500977 12.999s6.16602 5 11.499 5h47c5.33301 0 11 -1.66699 17 -5s10 -7.66602 12 -12.999l126 -251c2 -4.66699 4.83301 -7 8.5 -7
s6.5 2.33301 8.5 7l46 96c5.33301 12.667 5 25 -1 37l-59 118c-2.66699 5.33301 -2.83398 9.66602 -0.500977 12.999s6.5 5 12.5 5h46c2.66699 0 5.5 -0.333008 8.5 -1s5.83301 -1.83398 8.5 -3.50098s5.16699 -3.66699 7.5 -6s4.16602 -4.83301 5.49902 -7.5l130 -262
c2.66699 -4.66699 5.66699 -7 9 -7s6.33301 2.66699 9 8l123 261c2.66699 5.33301 6.83398 9.66602 12.501 12.999s11.167 5 16.5 5h46c5.33301 0 9.16602 -1.66699 11.499 -5s2.16602 -7.66602 -0.500977 -12.999l-207 -441c-2.66699 -4.66699 -5.66699 -7 -9 -7
s-6.33301 2.33301 -9 7l-98 197c-2.66699 5.33301 -5.66699 8 -9 8s-6.33301 -2.66699 -9 -8z" />
    <glyph glyph-name="x" unicode="x" horiz-adv-x="485" 
d="M54 20l129.998 197c8 11.333 8 22.666 0 33.999l-131 198c-3.33301 4.66699 -4 8.66699 -2 12s5.66699 5 11 5h53c13.333 0 24 -5.66699 32 -17l84 -127c2 -2.66699 3.83301 -4.5 5.5 -5.5s3.66699 -1.5 6 -1.5s4.33301 0.5 6 1.5s3.5 2.83301 5.5 5.5l84 127
c8 11.333 18.667 17 32 17h53c5.33301 0 9 -1.66699 11 -5s1.33301 -7.33301 -2 -12l-131 -198c-8 -11.333 -8 -22.666 0 -33.999l130 -197c3.33301 -4.66699 4 -8.66699 2 -12s-5.66699 -5 -11 -5h-53c-14 0 -24.667 5.66699 -32 17l-83 126
c-3.33301 4.66699 -7.16602 7 -11.499 7s-8.16602 -2.33301 -11.499 -7l-83 -126c-7.33301 -11.333 -18 -17 -32 -17h-53c-5.33301 0 -9 1.66699 -11 5s-1.33301 7.33301 2 12z" />
    <glyph glyph-name="y" unicode="y" horiz-adv-x="549" 
d="M81 -215l139.003 286.003c6 12 6 24 0 36l-168 341c-2.66699 5.33301 -2.83398 9.66602 -0.500977 12.999s6.16602 5 11.499 5h47c3.33301 0 7 -0.666992 11 -2s7.66699 -3.5 11 -6.5s5.66602 -6.16699 6.99902 -9.5l124 -251c2.66699 -5.33301 5.66699 -8 9 -8
s6.33301 2.66699 9 8l122 251c2 5.33301 6 9.66602 12 12.999s11.667 5 17 5h46h21l-9 -18l-306 -630l-9 -19c-2.66699 -4.66699 -5.33398 -10 -8.00098 -16c-2 -4.66699 -5.83301 -8.5 -11.5 -11.5s-11.167 -4.5 -16.5 -4.5h-46c-6 0 -10.167 1.66699 -12.5 5
s-2.16602 7.66602 0.500977 12.999z" />
    <glyph glyph-name="z" unicode="z" horiz-adv-x="472" 
d="M58 19l214 355.999c2.66699 4.66699 3 8.83398 1 12.501s-5.66699 5.5 -11 5.5h-192c-5.33301 0 -10 2 -14 6s-6 8.66699 -6 14v37c0 6 2 11 6 15s8.66699 6 14 6h329c5.33301 0 9 -1.83301 11 -5.5s1.66699 -7.83398 -1 -12.501l-214 -356
c-2.66699 -4.66699 -3 -8.66699 -1 -12s5.66699 -5 11 -5h197c5.33301 0 10 -2 14 -6s6 -9 6 -15v-37c0 -6 -2 -11 -6 -15s-8.66699 -6 -14 -6h-334c-5.33301 0 -9 1.83301 -11 5.5s-1.66699 7.83398 1 12.501z" />
    <glyph glyph-name="braceleft" unicode="{" horiz-adv-x="363" 
d="M225 571l0.000976562 -31c0 -72.667 -23 -137.334 -69 -194.001c46 -62.667 69 -133.334 69 -212.001v-10c0 -20.667 6.66699 -39 20 -55s30 -26 50 -30c12 -2.66699 18 -9.66699 18 -21v-36c0 -6.66699 -2.5 -12.167 -7.5 -16.5s-10.5 -6.16602 -16.5 -5.49902
c-40 6 -73.667 24.5 -101 55.5s-41 67.167 -41 108.5v10c0 72 -24 134.667 -72 188l-25 28l27 26c46.667 44.667 70 99.334 70 164.001v31c0 41.333 13.667 77.5 41 108.5s61 49.5 101 55.5c3.33301 0.666992 6.5 0.5 9.5 -0.5s5.5 -2.5 7.5 -4.5s3.66699 -4.33301 5 -7
s2 -5.66699 2 -9v-36c0 -12 -6 -19 -18 -21c-12.667 -2.66699 -24.334 -8.16699 -35.001 -16.5s-19.167 -18.5 -25.5 -30.5s-9.5 -25 -9.5 -39z" />
    <glyph glyph-name="verticalbar" unicode="|" horiz-adv-x="178" 
d="M108 698c5.33301 0 10 -2 14 -6s6 -9 6 -15v-751c0 -5.33301 -2 -10 -6 -14s-8.66699 -6 -14 -6h-38c-5.33301 0 -10 2 -14 6s-6 8.66699 -6 14v751c0 6 2 11 6 15s8.66699 6 14 6h38z" />
    <glyph glyph-name="braceright" unicode="}" horiz-adv-x="363" 
d="M286 376l27 -25.999l-25 -28c-48 -53.333 -72 -116 -72 -188v-10c0 -41.333 -13.667 -77.5 -41 -108.5s-61 -49.5 -101 -55.5c-6.66699 -0.666992 -12.334 1.16602 -17.001 5.49902s-7 9.83301 -7 16.5v36c0 11.333 6 18.333 18 21c20 4 36.667 14 50 30s20 34.333 20 55
v10c0 78.667 23 149.334 69 212.001c-46 56.667 -69 121.334 -69 194.001v31c0 20.667 -6.66699 39.167 -20 55.5s-30 26.5 -50 30.5c-12 2 -18 9 -18 21v36c0 6 2.33301 11.167 7 15.5s10.334 6.16602 17.001 5.49902c40 -6 73.667 -24.5 101 -55.5s41 -67.167 41 -108.5
v-31c0 -64.667 23.333 -119.334 70 -164.001z" />
    <glyph glyph-name="asciitilde" unicode="~" horiz-adv-x="467" 
d="M391 385c6.66699 2.66699 12.6689 1.99805 18.002 -2.00195s8 -9.33301 8 -16v-42c0 -9.33301 -4.33301 -15.333 -13 -18c-27.333 -8.66699 -55 -13 -83 -13c-32 0 -63 5.33301 -93 16c-4.66699 2 -9.33398 3.66699 -14.001 5
c-44.667 16.667 -90.667 15.334 -138 -3.99902c-6 -2.66699 -11.833 -2.16699 -17.5 1.5s-8.5 8.83398 -8.5 15.501v42c0 9.33301 4 15.333 12 18c62 21.333 122.333 21.333 181 0l12 -5c45.333 -16 90.666 -15.333 135.999 2z" />
    <glyph glyph-name="nonbreakingspace" unicode="&#xa0;" horiz-adv-x="300" 
 />
    <glyph glyph-name="exclamdown" unicode="&#xa1;" horiz-adv-x="194" 
d="M97 301c-12.667 0 -23.667 4.66699 -33 14s-14 20.5 -14 33.5s4.66699 24 14 33s20.333 13.5 33 13.5s23.667 -4.5 33 -13.5s14 -20.167 14 -33.5c0 -8.66699 -2.16699 -16.5 -6.5 -23.5s-10 -12.667 -17 -17s-14.833 -6.5 -23.5 -6.5zM110 246c5.33301 0 10 -2 14 -6
s6 -8.66699 6 -14l6 -522c0 -5.33301 -2 -10 -6 -14s-8.66699 -6 -14 -6h-38c-5.33301 0 -10 2 -14 6s-6 8.66699 -6 14l5 522c0.666992 5.33301 3 10 7 14s8.66699 6 14 6h26z" />
    <glyph glyph-name="cent" unicode="&#xa2;" horiz-adv-x="477" 
d="M421 85c4 -4 5.83398 -9.16895 5.50098 -15.502s-2.83301 -11.5 -7.5 -15.5c-26 -21.333 -55.333 -36 -88 -44c-10.667 -2.66699 -16 -9.66699 -16 -21v-40c0 -6 -2 -11 -6 -15s-9 -6 -15 -6h-36c-6 0 -11 2 -15 6s-6 9 -6 15v41c0 10.667 -5.66699 17.334 -17 20.001
c-40 10.667 -74.667 30.334 -104 59.001c-44 44 -66 97.333 -66 160s22 116 66 160c28.667 28.667 63.667 48 105 58c10.667 2.66699 16 9.33398 16 20.001v43c0 6 2 11 6 15s9 6 15 6h36c6 0 11 -2 15 -6s6 -9 6 -15v-42c0 -11.333 5.33301 -18.333 16 -21
c33.333 -7.33301 62.666 -21.333 87.999 -42c4.66699 -4 7.16699 -9.16699 7.5 -15.5s-1.5 -11.5 -5.5 -15.5l-26 -26c-8.66699 -8.66699 -17.667 -9.33398 -27 -2.00098c-28.667 22 -62.167 32 -100.5 30s-70.166 -16 -95.499 -42c-29.333 -28.667 -44 -63.5 -44 -104.5
s14.667 -75.833 44 -104.5c25.333 -26 57.166 -40.167 95.499 -42.5s71.833 7.83398 100.5 30.501c9.33301 7.33301 18.333 6.66602 27 -2.00098z" />
    <glyph glyph-name="sterling" unicode="&#xa3;" horiz-adv-x="523" 
d="M452 81c6 0 10.999 -2 14.999 -6s6 -9 6 -15v-36c0 -5.33301 -2 -10.166 -6 -14.499s-9 -6.5 -15 -6.5h-364c-6.66699 0 -12.167 2.66699 -16.5 8s-5.83301 11.333 -4.5 18l4 21c22.667 107.333 37.334 192.666 44.001 255.999c0.666992 4.66699 -0.5 8.66699 -3.5 12
s-6.5 5 -10.5 5h-36c-4 0 -7.5 1.33301 -10.5 4s-4.5 6 -4.5 10v22c0 4 1.5 7.5 4.5 10.5s6.5 4.5 10.5 4.5h37c4 0 7.5 1.5 10.5 4.5s4.16699 6.83301 3.5 11.5c-2 22.667 -5.66699 49.334 -11 80.001c-6.66699 42 -0.166992 82 19.5 120s49.834 66.667 90.501 86
c22.667 11.333 49 17 79 17c44 -0.666992 83.333 -14 118 -40c4.66699 -4 7.33398 -9.16699 8.00098 -15.5s-1.33301 -11.833 -6 -16.5l-25 -26c-8.66699 -8.66699 -18 -9.33398 -28 -2.00098c-20 14 -42.333 21 -67 21c-16 0 -30 -2.33301 -42 -7
c-16.667 -7.33301 -30.834 -17.666 -42.501 -30.999s-19.667 -28 -24 -44s-5.16602 -32.333 -2.49902 -49c6 -38 10 -70 12 -96c0 -2.66699 0.666992 -5 2 -7s3.16602 -3.5 5.49902 -4.5s4.83301 -1.5 7.5 -1.5h129c4 0 7.5 -1.5 10.5 -4.5s4.5 -6.5 4.5 -10.5v-22
c0 -4 -1.5 -7.33301 -4.5 -10s-6.5 -4 -10.5 -4h-130c-8.66699 0 -13.667 -4.66699 -15 -14c-4.66699 -46.667 -15.334 -114.334 -32.001 -203.001c-1.33301 -6 0.166992 -11.667 4.5 -17s9.83301 -8 16.5 -8h269z" />
    <glyph glyph-name="currency" unicode="&#xa4;" horiz-adv-x="419" 
d="M331 282l32 -33c4 -3.33301 6 -7.66602 6 -12.999s-2 -10 -6 -14l-27 -28c-4 -4 -8.66699 -6 -14 -6s-10 2 -14 6l-32 32c-6 6.66699 -13 8.33398 -21 5.00098c-14.667 -6 -29.667 -9 -45 -9c-16 0 -31.333 3 -46 9c-7.33301 3.33301 -14.333 1.66602 -21 -5.00098
l-32 -32c-4 -4 -8.66699 -6 -14 -6s-9.66602 2 -12.999 6l-28 28c-4 4 -6 8.66699 -6 14s2 9.66602 6 12.999l32 33c6 6 7.33301 13.333 4 22c-10.667 29.333 -10.667 59 0 89c3.33301 8 2 15 -4 21l-32 33c-4 3.33301 -6 7.66602 -6 12.999s2 10 6 14l28 28
c3.33301 4 7.66602 6 12.999 6s10 -2 14 -6l33 -33c5.33301 -6 12.333 -7.33301 21 -4c30 11.333 59.667 11.333 89 0c8.66699 -3.33301 16 -2 22 4l32 33c4 4 8.66699 6 14 6s10 -2 14 -6l27 -28c4 -4 6 -8.66699 6 -14s-2 -9.66602 -6 -12.999l-32 -33
c-6 -6 -7.33301 -13 -4 -21c5.33301 -14.667 8 -29.667 8 -45s-2.66699 -30.333 -8 -45c-3.33301 -8 -2 -15 4 -21zM244 314c8.66699 9.33301 12.999 20.668 12.999 34.001s-4.5 24.666 -13.5 33.999s-20.167 14 -33.5 14c-18 0 -31.667 -7.66699 -41 -23
c-10 -15.333 -10.667 -31.333 -2 -48c8.66699 -14 20.834 -22.167 36.501 -24.5s29.167 2.16699 40.5 13.5z" />
    <glyph glyph-name="yen" unicode="&#xa5;" horiz-adv-x="655" 
d="M603 681l-208.999 -345c-1.33301 -2 -1.5 -4 -0.5 -6s2.83301 -3 5.5 -3h85c4.66699 0 8.33398 -1.33301 11.001 -4s4 -6 4 -10v-22c0 -4 -1.33301 -7.5 -4 -10.5s-6.33398 -4.5 -11.001 -4.5h-103c-4 0 -7.33301 -1.33301 -10 -4s-4 -6 -4 -10v-83
c0 -4 1.33301 -7.5 4 -10.5s6 -4.5 10 -4.5h109c4 0 7.5 -1.33301 10.5 -4s4.5 -6.33398 4.5 -11.001v-21c0 -4 -1.5 -7.5 -4.5 -10.5s-6.5 -4.5 -10.5 -4.5h-109c-4 0 -7.33301 -1.33301 -10 -4s-4 -6.33398 -4 -11.001v-80c0 -5.33301 -2 -10 -6 -14s-9 -6 -15 -6h-37
c-6 0 -11 2 -15 6s-6 8.66699 -6 14v80c0 4.66699 -1.33301 8.33398 -4 11.001s-6 4 -10 4h-109c-4 0 -7.33301 1.5 -10 4.5s-4 6.5 -4 10.5v21c0 4.66699 1.33301 8.33398 4 11.001s6 4 10 4h109c4 0 7.33301 1.5 10 4.5s4 6.5 4 10.5v83c0 4 -1.33301 7.33301 -4 10
s-6 4 -10 4h-114c-4 0 -7.5 1.5 -10.5 4.5s-4.5 6.5 -4.5 10.5v22c0 4 1.5 7.33301 4.5 10s6.5 4 10.5 4h96c2.66699 0 4.5 1 5.5 3s0.833008 4 -0.5 6l-208 345c-3.33301 4.66699 -4 8.66699 -2 12s5.66699 5 11 5h51c5.33301 0 11.166 -1.66699 17.499 -5
s10.833 -7.33301 13.5 -12l173 -286c2.66699 -4.66699 6.16699 -7 10.5 -7s7.83301 2.33301 10.5 7l173 286c3.33301 4.66699 8 8.66699 14 12s11.667 5 17 5h51c5.33301 0 9 -1.66699 11 -5s1.66699 -7.33301 -1 -12z" />
    <glyph glyph-name="section" unicode="&#xa7;" horiz-adv-x="444" 
d="M383 203c-4.66699 -14 -11 -26.998 -19 -38.998c32 -42 38.333 -90.667 19 -146c-12.667 -37.333 -35.667 -66 -69 -86c-27.333 -16 -57.666 -24 -90.999 -24c-16 0 -31.667 2 -47 6c-26 6 -51.833 21.333 -77.5 46s-41.167 55.334 -46.5 92.001
c-0.666992 6 0.833008 11.333 4.5 16s8.5 7 14.5 7l39 1c11.333 0 18 -5.33301 20 -16c2.66699 -14 8.83398 -26.667 18.501 -38s18.5 -19.333 26.5 -24s14.667 -7.66699 20 -9c29.333 -6.66699 55.666 -3.33398 78.999 9.99902c17.333 10.667 29 25.334 35 44.001
c16.667 49.333 -2 86.333 -56 111c-18 8.66699 -47 20 -87 34l-11 4c-44.667 23.333 -75.334 53 -92.001 89s-17.667 75 -3 117c4.66699 14 11.334 27.333 20.001 40c-32 42.667 -38.667 91 -20 145c14 40.667 40.667 71 80 91s81.666 24.333 126.999 13
c16 -4 32.333 -11.333 49 -22s32.334 -26.5 47.001 -47.5s24 -44.167 28 -69.5c0.666992 -3.33301 0.166992 -6.83301 -1.5 -10.5s-4 -6.5 -7 -8.5s-6.5 -3.33301 -10.5 -4h-39c-11.333 -0.666992 -18 4.66602 -20 15.999c-2.66699 14 -8.83398 26.667 -18.501 38
s-18.5 19.166 -26.5 23.499s-14.667 7.16602 -20 8.49902c-24 6 -47 4.5 -69 -4.5s-37 -25.5 -45 -49.5c-16 -46 3.33301 -83 58 -111c36.667 -12.667 67.667 -24.667 93 -36c46 -21.333 77.667 -50.333 95 -87s18.333 -76.667 3 -120zM309 228.002
c16.667 48.667 -1.99902 85.667 -55.999 111c-18.667 8 -47.667 19 -87 33l-11 5c-2 0.666992 -4.83301 2.16699 -8.5 4.5s-5.83398 3.83301 -6.50098 4.5c-3.33301 -6.66699 -5.33301 -11 -6 -13c-16 -46 3.33301 -83.333 58 -112c36.667 -12 67.667 -24 93 -36
c1.33301 0 7.33301 -3.33301 18 -10c3.33301 6.66699 5.33301 11 6 13z" />
    <glyph glyph-name="dieresis" unicode="&#xa8;" horiz-adv-x="380" 
d="M97 701c6.66699 0 12.834 -1.33301 18.501 -4s10.667 -6 15 -10s7.66602 -9 9.99902 -15s3.5 -12 3.5 -18c0 -12.667 -4.66699 -23.667 -14 -33s-20.333 -14 -33 -14s-23.667 4.66699 -33 14s-14 20.333 -14 33s4.66699 23.667 14 33s20.333 14 33 14zM283.5 701
c13 0 24 -4.66699 33 -14s13.5 -20.333 13.5 -33c0 -8.66699 -2 -16.5 -6 -23.5s-9.66699 -12.667 -17 -17s-15.333 -6.5 -24 -6.5c-12.667 0 -23.667 4.66699 -33 14s-14 20.333 -14 33s4.66699 23.667 14 33s20.5 14 33.5 14z" />
    <glyph glyph-name="copyright" unicode="&#xa9;" horiz-adv-x="790" 
d="M393 527c52 0 96.0049 -18.999 132.005 -56.999c3.33301 -4 4.83301 -8.83301 4.5 -14.5s-2.83301 -10.167 -7.5 -13.5l-33 -24c-8.66699 -6.66699 -16.667 -6 -24 2c-20 19.333 -44 29 -72 29c-30.667 0 -56 -11.667 -76 -35s-28 -50.333 -24 -81
c4 -24.667 15.667 -45.334 35 -62.001s41.666 -24.667 66.999 -24c18.667 0 35.667 4.66699 51 14c9.33301 6 17.333 4.66699 24 -4l26 -31c4 -4 5.5 -8.83301 4.5 -14.5s-3.83301 -10.167 -8.5 -13.5c-24.667 -16 -51.834 -25.5 -81.501 -28.5s-59.167 1.83301 -88.5 14.5
c-32 13.333 -57.833 34.833 -77.5 64.5s-29.834 62.167 -30.501 97.5c-0.666992 50 16.666 92.667 51.999 128s77.666 53 126.999 53zM395.005 693.001c62.667 0 120.498 -15.335 173.498 -46.002s94.833 -72.5 125.5 -125.5s46 -110.833 46 -173.5
s-15.333 -120.5 -46 -173.5s-72.5 -94.833 -125.5 -125.5s-110.833 -46 -173.5 -46s-120.5 15.333 -173.5 46s-94.833 72.5 -125.5 125.5s-46 110.833 -46 173.5c0 46.667 9.16699 91.334 27.5 134.001s42.833 79.334 73.5 110.001s67.334 55.167 110.001 73.5
s87.334 27.5 134.001 27.5zM395.003 80.999c48 0 92.499 11.999 133.499 35.999s73.5 56.5 97.5 97.5s36 85.5 36 133.5c0 73.333 -26.167 136.166 -78.5 188.499s-115.166 78.5 -188.499 78.5s-136.166 -26.167 -188.499 -78.5s-78.5 -115.166 -78.5 -188.499
s26.167 -136.166 78.5 -188.499s115.166 -78.5 188.499 -78.5z" />
    <glyph glyph-name="guillemotleft" unicode="&#xab;" 
d="M262 461l-97 -98c-3.33301 -4 -5 -8.83301 -5 -14.5s1.66699 -10.5 5 -14.5l97 -99c4 -4 6 -8.83301 6 -14.5s-2 -10.5 -6 -14.5l-27 -26c-4 -4 -8.83301 -6 -14.5 -6s-10.5 2 -14.5 6l-150 153c-4 4 -6 9 -6 15s2 11 6 15l150 153c4 4 8.83301 6 14.5 6s10.5 -2 14.5 -6
l27 -26c4 -4 6 -8.83301 6 -14.5s-2 -10.5 -6 -14.5zM401 333l97 -98c3.33301 -4 5 -8.83301 5 -14.5s-2 -10.5 -6 -14.5l-26 -26c-4 -4 -8.83301 -6 -14.5 -6s-10.5 2 -14.5 6l-151 153c-3.33301 4 -5 9 -5 15s1.66699 11 5 15l151 153c4 4 8.83301 6 14.5 6
s10.5 -2 14.5 -6l26 -26c4 -4 6 -8.83301 6 -14.5s-1.66699 -10.5 -5 -14.5l-97 -98c-4 -4 -6 -9 -6 -15s2 -11 6 -15z" />
    <glyph glyph-name="softhyphen" unicode="&#xad;" horiz-adv-x="0" 
 />
    <glyph glyph-name="registered" unicode="&#xae;" horiz-adv-x="790" 
d="M395 693c62.667 0 120.498 -15.335 173.498 -46.002s94.833 -72.5 125.5 -125.5s46 -110.833 46 -173.5s-15.333 -120.5 -46 -173.5s-72.5 -94.833 -125.5 -125.5s-110.833 -46 -173.5 -46s-120.5 15.333 -173.5 46s-94.833 72.5 -125.5 125.5s-46 110.833 -46 173.5
c0 46.667 9.16699 91.334 27.5 134.001s42.833 79.334 73.5 110.001s67.334 55.167 110.001 73.5s87.334 27.5 134.001 27.5zM567.998 146.998c19.333 16.667 35.998 35.3291 49.998 55.9961s24.833 43.334 32.5 68.001s11.5 50.334 11.5 77.001
c0 73.333 -26.167 136.166 -78.5 188.499s-115.166 78.5 -188.499 78.5s-136.166 -26.167 -188.499 -78.5s-78.5 -115.166 -78.5 -188.499s26.167 -136.166 78.5 -188.499s115.166 -78.5 188.499 -78.5c20.667 0 43.334 3.33301 68.001 10
c39.333 10.667 74.333 29.334 105 56.001zM470.996 328.993c-5.33301 -4 -6.33301 -8.99902 -3 -14.999l62 -106c1.33301 -2.66699 1.33301 -5.16699 0 -7.5s-3.33301 -3.5 -6 -3.5h-71c-4.66699 0 -8 2 -10 6l-62 106h-13v-101c0 -2.66699 -1 -5.16699 -3 -7.5
s-4.66699 -3.5 -8 -3.5h-55c-3.33301 0 -6.16602 1.16699 -8.49902 3.5s-3.5 4.83301 -3.5 7.5v299c0 3.33301 1.16699 6.16602 3.5 8.49902s5.16602 3.5 8.49902 3.5h104c26.667 0 50.5 -8.5 71.5 -25.5s33.167 -38.5 36.5 -64.5c2.66699 -20 0.166992 -38.833 -7.5 -56.5
s-19.5 -32.167 -35.5 -43.5zM409.996 386.994c7.33301 0 13.666 2.66895 18.999 8.00195s8 11.666 8 18.999s-2.66699 13.666 -8 18.999s-11.666 8 -18.999 8h-42v-54h42z" />
    <glyph glyph-name="degree" unicode="&#xb0;" horiz-adv-x="258" 
d="M129 679c22 0 40.667 -7.66699 56 -23s23 -33.833 23 -55.5s-7.66699 -40.334 -23 -56.001s-34 -23.5 -56 -23.5s-40.667 7.83301 -56 23.5s-23 34.334 -23 56.001s7.66699 40.167 23 55.5s34 23 56 23zM129 572c4 0 7.66699 0.834961 11 2.50195s6.33301 3.66699 9 6
s4.66699 5.16602 6 8.49902s2 7 2 11c0 8 -2.66699 14.667 -8 20s-12 8 -20 8s-14.667 -2.66699 -20 -8s-8 -11.833 -8 -19.5s2.66699 -14.334 8 -20.001s12 -8.5 20 -8.5z" />
    <glyph glyph-name="plusminus" unicode="&#xb1;" horiz-adv-x="487" 
d="M416 81c6 0 11 -2 15 -6s6 -8.66699 6 -14v-37c0 -6 -2 -11 -6 -15s-9 -6 -15 -6h-346c-5.33301 0 -10 2 -14 6s-6 9 -6 15v37c0 5.33301 2 10 6 14s8.66699 6 14 6h346zM416 387c6 0 11 -2 15 -6s6 -8.66699 6 -14v-37c0 -6 -2 -11 -6 -15s-9 -6 -15 -6h-113
c-6 0 -11 -2 -15 -6s-6 -8.66699 -6 -14v-114c0 -5.33301 -2 -10 -6 -14s-8.66699 -6 -14 -6h-37c-6 0 -11 2 -15 6s-6 8.66699 -6 14v114c0 5.33301 -2 10 -6 14s-8.66699 6 -14 6h-114c-5.33301 0 -10 2 -14 6s-6 9 -6 15v37c0 5.33301 2 10 6 14s8.66699 6 14 6h114
c5.33301 0 10 2 14 6s6 9 6 15v113c0 6 2 11 6 15s9 6 15 6h37c5.33301 0 10 -2 14 -6s6 -9 6 -15v-113c0 -6 2 -11 6 -15s9 -6 15 -6h113z" />
    <glyph glyph-name="acute" unicode="&#xb4;" horiz-adv-x="187" 
d="M125 683c5.33301 -2.66699 8.83301 -6.49902 10.5 -11.499s1.5 -10.167 -0.5 -15.5l-51 -101c-2 -3.33301 -4.33301 -6 -7 -8s-5.5 -3.33301 -8.5 -4s-5.83301 -0.333984 -8.5 0.999023c-4.66699 1.33301 -7.66699 4.5 -9 9.5s-1 10.167 1 15.5l38 107
c2 4.66699 5.5 8.16699 10.5 10.5s10.167 2.5 15.5 0.5z" />
    <glyph glyph-name="paragraph" unicode="&#xb6;" horiz-adv-x="609" 
d="M539 693c5.33301 0 10.001 -1.99902 14.001 -5.99902s6 -8.66699 6 -14v-38c0 -6 -2 -10.833 -6 -14.5s-8.66699 -5.5 -14 -5.5h-29c-5.33301 0 -10 -2 -14 -6s-6 -8.66699 -6 -14v-669c0 -5.33301 -2 -10 -6 -14s-8.66699 -6 -14 -6h-38c-6 0 -10.833 2 -14.5 6
s-5.5 8.66699 -5.5 14v669c0 3.33301 -1 6.5 -3 9.5s-4.5 5.5 -7.5 7.5s-6.16699 3 -9.5 3h-85v-689c0 -5.33301 -1.83301 -10 -5.5 -14s-8.5 -6 -14.5 -6h-38c-5.33301 0 -10 2 -14 6s-6 8.66699 -6 14v423c-38 4.66699 -73 18 -105 40s-54.333 49.667 -67 83
s-9.33398 70.666 9.99902 111.999c17.333 34 42.5 60.667 75.5 80s68.5 29 106.5 29h290z" />
    <glyph glyph-name="cedilla" unicode="&#xb8;" horiz-adv-x="270" 
d="M159 -38c18.667 -6.66699 33.5 -17.167 44.5 -31.5s16.5 -29.833 16.5 -46.5c0 -16 -4.5 -30.5 -13.5 -43.5s-21.333 -23.333 -37 -31s-32.834 -11.5 -51.501 -11.5c-21.333 0 -41 5.33301 -59 16c-5.33301 2.66699 -8.33301 6.83398 -9 12.501s1 10.834 5 15.501l11 11
c6 6.66699 13.333 7.66699 22 3c9.33301 -4.66699 19.333 -7 30 -7c9.33301 0 17.833 1.5 25.5 4.5s13.834 7.16699 18.501 12.5s7 11.333 7 18c0 9.33301 -5 17.333 -15 24s-22 10 -36 10h-25v33l4 7l38 61c2.66699 4 6.5 6.5 11.5 7.5s9.5 0.166992 13.5 -2.5l13 -8
c4 -2.66699 6.5 -6.33398 7.5 -11.001s0.166992 -9.33398 -2.5 -14.001z" />
    <glyph glyph-name="guillemotright" unicode="&#xbb;" 
d="M112 516l150 -154.001c4 -4 6 -8.83301 6 -14.5s-2 -10.5 -6 -14.5l-150 -153c-4 -4 -8.83301 -6 -14.5 -6s-10.5 2 -14.5 6l-27 26c-4 4 -6 8.83301 -6 14.5s2 10.5 6 14.5l97 98c3.33301 4 5 8.83301 5 14.5s-1.66699 10.834 -5 15.501l-97 98c-4 4 -6 8.83301 -6 14.5
s2 10.5 6 14.5l27 26c4 4 8.83301 6 14.5 6s10.5 -2 14.5 -6zM498 362.999c3.33301 -4.66699 5 -9.83301 5 -15.5s-1.66699 -10.5 -5 -14.5l-151 -153c-4 -4 -8.83301 -6 -14.5 -6s-10.5 2 -14.5 6l-26 26c-4 4 -6 8.83301 -6 14.5s1.66699 10.5 5 14.5l97 98
c4 4 6 8.83301 6 14.5s-2 10.5 -6 14.5l-97 99c-3.33301 4 -5 8.83301 -5 14.5s2 10.5 6 14.5l26 26c4 4 8.83301 6 14.5 6s10.5 -2 14.5 -6z" />
    <glyph glyph-name="questiondown" unicode="&#xbf;" horiz-adv-x="476" 
d="M236.5 301c-13 0 -24.167 4.66699 -33.5 14s-14 20.5 -14 33.5s4.66699 24 14 33s20.5 13.5 33.5 13.5s24 -4.5 33 -13.5s13.5 -20 13.5 -33s-4.5 -24.167 -13.5 -33.5s-20 -14 -33 -14zM422 -83c9.33301 -46 1.99805 -89.9971 -22.002 -131.997
s-57.667 -70.333 -101 -85c-20.667 -7.33301 -41.667 -11 -63 -11c-37.333 0 -71.666 10 -102.999 30c-43.333 28 -70.666 67.333 -81.999 118c-2 6 -1.16699 11.5 2.5 16.5s8.83398 7.83301 15.501 8.5l37 4c11.333 0.666992 18.666 -4.66602 21.999 -15.999
c7.33301 -27.333 23 -49 47 -65c30.667 -19.333 63.667 -23 99 -11c24.667 8 44 24.667 58 50s18.667 51.333 14 78c-4.66699 24.667 -16 44 -34 58c-24 20 -44.667 43.333 -62 70s-30.333 55.667 -39 87s-13 63.666 -13 96.999v12c0 5.33301 2 10 6 14s8.66699 6 14 6h37
c6 0 11 -2 15 -6s6 -8.66699 6 -14v-12c0 -38.667 7.5 -74.834 22.5 -108.501s36.167 -61.834 63.5 -84.501c32 -26.667 52 -61.334 60 -104.001z" />
    <glyph glyph-name="Agrave" unicode="&#xc0;" horiz-adv-x="682" 
d="M341 693l290 -678c2 -5.33301 1.83301 -9.83301 -0.5 -13.5s-6.5 -5.5 -12.5 -5.5h-44c-5.33301 0 -10.833 1.83301 -16.5 5.5s-9.5 8.16699 -11.5 13.5l-58 135c-2 5.33301 -5.83301 9.83301 -11.5 13.5s-11.167 5.5 -16.5 5.5h-242
c-5.33301 0 -10.833 -1.83301 -16.5 -5.5s-9.5 -8.16699 -11.5 -13.5l-54 -135c-2 -5.33301 -5.83301 -9.83301 -11.5 -13.5s-11.167 -5.5 -16.5 -5.5h-44c-5.33301 0 -9.33301 1.83301 -12 5.5s-3 8.16699 -1 13.5l274 678c2 5.33301 4.66699 8 8 8s6 -2.66699 8 -8z
M426 247c6 0 10.168 1.83301 12.501 5.5s2.16602 8.16699 -0.500977 13.5l-95 223c-2 5.33301 -4.66699 8 -8 8s-6 -2.66699 -8 -8l-90 -223c-2 -5.33301 -1.83301 -9.83301 0.5 -13.5s6.5 -5.5 12.5 -5.5h176zM290.001 765l-42 80.998
c-2.66699 4.66699 -3 8.83398 -1 12.501s5.66699 5.5 11 5.5h31c5.33301 0 10.666 -2 15.999 -6s9 -8.33301 11 -13l26 -78c4.66699 -13.333 6.83398 -20 6.50098 -20h-20.5h-8c-5.33301 0 -11 1.83301 -17 5.5s-10.333 7.83398 -13 12.501z" />
    <glyph glyph-name="Aacute" unicode="&#xc1;" horiz-adv-x="682" 
d="M354 747c-5.33301 0 -9.33203 1.83398 -11.999 5.50098s-3.33398 8.16699 -2.00098 13.5l27 79c0.666992 2 2 4.33301 4 7s4.16699 4.83398 6.5 6.50098s5 3 8 4s5.83301 1.5 8.5 1.5h31c5.33301 0 9 -1.83301 11 -5.5s2 -7.83398 0 -12.501l-43 -81
c-2.66699 -4.66699 -7 -8.83398 -13 -12.501s-11.667 -5.5 -17 -5.5h-9zM357.001 693.001l273.999 -678c2 -5.33301 1.83301 -9.83301 -0.5 -13.5s-6.5 -5.5 -12.5 -5.5h-43c-6 0 -11.667 1.83301 -17 5.5s-9 8.16699 -11 13.5l-55 135
c-2 5.33301 -5.66699 9.83301 -11 13.5s-11 5.5 -17 5.5h-241c-6 0 -11.667 -1.83301 -17 -5.5s-9.33301 -8.16699 -12 -13.5l-58 -135c-2 -5.33301 -5.83301 -9.83301 -11.5 -13.5s-11.167 -5.5 -16.5 -5.5h-44c-6 0 -10.167 1.83301 -12.5 5.5
s-2.16602 8.16699 0.500977 13.5l289 678c2.66699 5.33301 5.5 8 8.5 8s5.5 -2.66699 7.5 -8zM432 247.001c6 0 10.167 1.83301 12.5 5.5s2.5 8.16699 0.5 13.5l-90 223c-2 5.33301 -4.5 8 -7.5 8s-5.83301 -2.66699 -8.5 -8l-95 -223
c-2.66699 -5.33301 -2.66699 -9.83301 0 -13.5s6.66699 -5.5 12 -5.5h176z" />
    <glyph glyph-name="Acircumflex" unicode="&#xc2;" horiz-adv-x="682" 
d="M231 772c-5.33301 0 -8.83105 1.66699 -10.498 5s-0.833984 7 2.49902 11l104 146c3.33301 4.66699 7.33301 7 12 7s8.33398 -2.33301 11.001 -7l105 -146c3.33301 -4 4.16602 -7.66699 2.49902 -11s-5.5 -5 -11.5 -5h-55c-14 0 -24.667 5.33301 -32 16l-9 12
c-2.66699 4.66699 -6.33398 7 -11.001 7s-8.66699 -2.33301 -12 -7l-8 -12c-8 -10.667 -19 -16 -33 -16h-55zM347.002 693l284 -678c2 -5.33301 1.83301 -9.83301 -0.5 -13.5s-6.5 -5.5 -12.5 -5.5h-43c-6 0 -11.667 1.83301 -17 5.5s-9.33301 8.16699 -12 13.5l-56 135
c-2.66699 5.33301 -6.66699 9.83301 -12 13.5s-11 5.5 -17 5.5h-241c-5.33301 0 -10.833 -1.83301 -16.5 -5.5s-9.5 -8.16699 -11.5 -13.5l-56 -135c-2 -5.33301 -5.83301 -9.83301 -11.5 -13.5s-11.167 -5.5 -16.5 -5.5h-44c-5.33301 0 -9.33301 1.83301 -12 5.5
s-3 8.16699 -1 13.5l280 678c2 5.33301 4.66699 8 8 8s6 -2.66699 8 -8zM429.002 247c5.33301 0 9.16699 1.83301 11.5 5.5s2.5 8.16699 0.5 13.5l-94 223c-2 5.33301 -4.5 8 -7.5 8s-5.5 -2.66699 -7.5 -8l-93 -223c-0.666992 -2.66699 -1 -5.16699 -1 -7.5
s0.666992 -4.33301 2 -6s3 -3 5 -4s4.33301 -1.5 7 -1.5h177zM411.003 718c-0.666992 -0.666992 -1.33203 -0.666992 -1.99902 0l1 1c1.33301 0 1.66602 -0.333008 0.999023 -1z" />
    <glyph glyph-name="Atilde" unicode="&#xc3;" horiz-adv-x="682" 
d="M347 693l284 -678c2 -5.33301 1.83301 -9.83301 -0.5 -13.5s-6.5 -5.5 -12.5 -5.5h-44c-5.33301 0 -10.833 1.83301 -16.5 5.5s-9.5 8.16699 -11.5 13.5l-56 135c-1.33301 2.66699 -3 5.16699 -5 7.5s-4.33301 4.33301 -7 6s-5.5 3 -8.5 4s-5.83301 1.5 -8.5 1.5h-241
c-5.33301 0 -10.833 -1.83301 -16.5 -5.5s-9.5 -8.16699 -11.5 -13.5l-56 -135c-2 -5.33301 -5.83301 -9.83301 -11.5 -13.5s-11.167 -5.5 -16.5 -5.5h-44c-5.33301 0 -9.33301 1.83301 -12 5.5s-3 8.16699 -1 13.5l280 678c2 5.33301 4.66699 8 8 8s6 -2.66699 8 -8z
M428 247c6 0 10.167 1.83301 12.5 5.5s2.5 8.16699 0.5 13.5l-94 223c-2 5.33301 -4.5 8 -7.5 8s-5.5 -2.66699 -7.5 -8l-93 -223c-2 -5.33301 -1.66699 -9.83301 1 -13.5s6.66699 -5.5 12 -5.5h176zM210 806l-3.99805 3c-6 4 -9.16699 9.5 -9.5 16.5
s1.83398 12.833 6.50098 17.5c22.667 23.333 47.667 36.333 75 39s53 -5.33301 77 -24l8 -7c25.333 -19.333 52.333 -17 81 7c9.33301 8 18.666 8 27.999 0l5 -4c5.33301 -4 8.16602 -9.33301 8.49902 -16s-1.83398 -12.334 -6.50098 -17.001
c-24.667 -23.333 -51 -35 -79 -35c-24 0 -46.667 8.33301 -68 25c-4 2.66699 -7.33301 5.33398 -10 8.00098c-11.333 8.66699 -23 13 -35 13c-16 0 -31.667 -8 -47 -24c-9.33301 -9.33301 -19.333 -10 -30 -2z" />
    <glyph glyph-name="Adieresis" unicode="&#xc4;" horiz-adv-x="682" 
d="M347 693l284 -678c2 -5.33301 1.83301 -9.83301 -0.5 -13.5s-6.5 -5.5 -12.5 -5.5h-44c-5.33301 0 -10.833 1.83301 -16.5 5.5s-9.5 8.16699 -11.5 13.5l-56 135c-1.33301 2.66699 -3 5.16699 -5 7.5s-4.33301 4.33301 -7 6s-5.5 3 -8.5 4s-5.83301 1.5 -8.5 1.5h-241
c-5.33301 0 -10.833 -1.83301 -16.5 -5.5s-9.5 -8.16699 -11.5 -13.5l-56 -135c-2 -5.33301 -5.83301 -9.83301 -11.5 -13.5s-11.167 -5.5 -16.5 -5.5h-44c-5.33301 0 -9.33301 1.83301 -12 5.5s-3 8.16699 -1 13.5l280 678c2 5.33301 4.66699 8 8 8s6 -2.66699 8 -8z
M429 247c3.33301 0 6.16602 0.832031 8.49902 2.49902s3.83301 3.83398 4.5 6.50098s0.333984 6 -0.999023 10l-94 223c-2 5.33301 -4.5 8 -7.5 8s-5.5 -2.66699 -7.5 -8l-92 -223c-2.66699 -5.33301 -2.66699 -9.83301 0 -13.5s6.66699 -5.5 12 -5.5h177zM432 785.999
c-12.667 0 -23.667 4.49902 -33 13.499s-14 20 -14 33s4.66699 24.167 14 33.5s20.333 14 33 14c8.66699 0 16.667 -2.16699 24 -6.5s13 -10.166 17 -17.499s6 -15 6 -23c0 -6.66699 -1.16699 -12.834 -3.5 -18.501s-5.66602 -10.667 -9.99902 -15
s-9.33301 -7.66602 -15 -9.99902s-11.834 -3.5 -18.501 -3.5zM246 785.998c-12.667 0 -23.667 4.5 -33 13.5s-14 20 -14 33s4.66699 24.167 14 33.5s20.5 14 33.5 14s24 -4.66699 33 -14s13.5 -20.333 13.5 -33c0 -8.66699 -2 -16.667 -6 -24s-9.66699 -13 -17 -17
s-15.333 -6 -24 -6z" />
    <glyph glyph-name="Aring" unicode="&#xc5;" horiz-adv-x="682" 
d="M386 601l244.999 -586c2 -5.33301 1.83301 -9.83301 -0.5 -13.5s-6.5 -5.5 -12.5 -5.5h-44c-5.33301 0 -10.833 1.83301 -16.5 5.5s-9.5 8.16699 -11.5 13.5l-56 135c-2.66699 5.33301 -6.66699 9.83301 -12 13.5s-11 5.5 -17 5.5h-241
c-5.33301 0 -10.833 -1.83301 -16.5 -5.5s-9.5 -8.16699 -11.5 -13.5l-56 -135c-1.33301 -3.33301 -3.5 -6.5 -6.5 -9.5s-6.5 -5.33301 -10.5 -7s-7.66699 -2.5 -11 -2.5h-44c-5.33301 0 -9.33301 1.83301 -12 5.5s-3 8.16699 -1 13.5l242 586
c2 4.66699 2.33301 10.167 1 16.5s-4.33301 11.5 -9 15.5c-2.66699 2 -6 5.16699 -10 9.5s-9.33301 12.333 -16 24s-10 22.834 -10 33.501c0 16 4 31 12 45s19 25 33 33s29 12 45 12c24.667 0 45.834 -8.83301 63.501 -26.5s26.5 -38.834 26.5 -63.501
c0 -10.667 -3 -21.5 -9 -32.5s-12 -19.5 -18 -25.5l-9 -9c-4 -4 -6.83301 -9.16699 -8.5 -15.5s-1.16699 -11.833 1.5 -16.5zM338.999 739c-10.667 0 -19.834 -3.83301 -27.501 -11.5s-11.5 -16.834 -11.5 -27.501c0 -5.33301 1 -10.333 3 -15s4.83301 -8.83398 8.5 -12.501
s7.83398 -6.5 12.501 -8.5s9.66699 -3 15 -3c10.667 0 19.834 3.83301 27.501 11.5s11.5 16.834 11.5 27.501s-3.83301 19.834 -11.5 27.501s-16.834 11.5 -27.501 11.5zM428.999 247c5.33301 0 9.16699 1.83301 11.5 5.5s2.5 8.16699 0.5 13.5l-94 223
c-2 5.33301 -4.5 8 -7.5 8s-5.5 -2.66699 -7.5 -8l-92 -223c-2.66699 -5.33301 -2.66699 -9.83301 0 -13.5s6.66699 -5.5 12 -5.5h177z" />
    <glyph glyph-name="AE" unicode="&#xc6;" horiz-adv-x="840" 
d="M510 615c-6 0 -11.001 -2 -15.001 -6s-6 -9 -6 -15v-233c0 -5.33301 2 -10 6 -14s9 -6 15 -6h143c6 0 11 -2 15 -6s6 -9 6 -15v-37c0 -5.33301 -2 -10 -6 -14s-9 -6 -15 -6h-143c-6 0 -11 -2 -15 -6s-6 -9 -6 -15v-141c0 -5.33301 2 -10 6 -14s9 -6 15 -6h260
c5.33301 0 10 -2 14 -6s6 -8.66699 6 -14v-38c0 -5.33301 -2 -10 -6 -14s-8.66699 -6 -14 -6h-339c-5.33301 0 -10 2 -14 6s-6 8.66699 -6 14v125c0 6 -2 11 -6 15s-8.66699 6 -14 6h-173c-6 0 -11.667 -2 -17 -6s-9 -8.33301 -11 -13l-54 -135
c-2.66699 -5.33301 -6.66699 -9.83301 -12 -13.5s-10.666 -5.5 -15.999 -5.5h-44c-5.33301 0 -9.33301 1.83301 -12 5.5s-3 8.16699 -1 13.5l266 659c2 5.33301 5.66699 9.83301 11 13.5s11 5.5 17 5.5h46h193h186c5.33301 0 10 -2 14 -6s6 -8.66699 6 -14v-38
c0 -5.33301 -2 -10 -6 -14s-8.66699 -6 -14 -6h-145h-115zM410.999 267v327c0 4 -0.666992 7.5 -2 10.5s-3.33301 5.5 -6 7.5s-5.5 3 -8.5 3s-6.16699 -0.833008 -9.5 -2.5s-6.33301 -4 -9 -7s-4.66699 -6.16699 -6 -9.5l-133 -330c-2 -5.33301 -1.83301 -9.83301 0.5 -13.5
s6.5 -5.5 12.5 -5.5h141c5.33301 0 10 2 14 6s6 8.66699 6 14z" />
    <glyph glyph-name="Ccedilla" unicode="&#xc7;" horiz-adv-x="678" 
d="M395 615c-52 0 -99.666 -13.834 -142.999 -41.501s-76.166 -65 -98.499 -112s-29.833 -97.167 -22.5 -150.5c8.66699 -66.667 38.167 -121.667 88.5 -165s109.5 -65 177.5 -65c55.333 0.666992 105.666 16.667 150.999 48c4 3.33301 8.66699 4.5 14 3.5
s9.66602 -3.5 12.999 -7.5l23 -29c4 -4.66699 5.5 -10 4.5 -16s-3.83301 -10.667 -8.5 -14c-52 -36.667 -110.667 -57 -176 -61c-6.66699 -0.666992 -11.667 -4 -15 -10l-9 -14c-3.33301 -4.66699 -4.16602 -9.83398 -2.49902 -15.501s4.83398 -9.83398 9.50098 -12.501
c28 -17.333 42 -40.333 42 -69c0 -24 -10 -44.333 -30 -61s-44 -25 -72 -25c-20.667 0 -39.667 4.66699 -57 14c-5.33301 3.33301 -8.5 8.33301 -9.5 15s0.833008 12.334 5.5 17.001l7 7c7.33301 8 15.333 9.66699 24 5s18.667 -7 30 -7c13.333 0 25.166 3.33301 35.499 10
s15.5 14.834 15.5 24.501s-5.16699 17.834 -15.5 24.501s-22.166 10 -35.499 10h-26v33l4 7l15 24c4 6 4.66699 12.167 2 18.5s-7.66699 10.166 -15 11.499c-78.667 17.333 -143.834 57.833 -195.501 121.5s-76.834 137.167 -75.501 220.5c0.666992 57.333 15 111 43 161
s66 90.833 114 122.5s100.667 49.834 158 54.501c47.333 4 93 -1.16699 137 -15.5s83.667 -36.833 119 -67.5c4.66699 -4 7 -9 7 -15s-2 -11 -6 -15l-26 -27c-4 -4 -8.5 -6.16699 -13.5 -6.5s-9.5 1.5 -13.5 5.5c-50 42.667 -108 64 -174 64z" />
    <glyph glyph-name="Egrave" unicode="&#xc8;" horiz-adv-x="479" 
d="M250 765l-42.998 80.998c-2.66699 4.66699 -2.83398 8.83398 -0.500977 12.501s6.16602 5.5 11.499 5.5h31c3.33301 0 6.83301 -0.833008 10.5 -2.5s7 -4 10 -7s5.16699 -6.16699 6.5 -9.5l26 -79c2 -5.33301 1.66699 -9.83301 -1 -13.5s-6.66699 -5.5 -12 -5.5h-9
c-4 0 -8 0.833008 -12 2.5s-7.5 3.83398 -10.5 6.50098s-5.5 5.66699 -7.5 9zM149.002 614.998c-6 0 -11 -2 -15 -6s-6 -9 -6 -15v-233c0 -5.33301 2 -10 6 -14s9 -6 15 -6h143c6 0 11 -2 15 -6s6 -9 6 -15v-37c0 -5.33301 -2 -10 -6 -14s-9 -6 -15 -6h-143
c-6 0 -11 -2 -15 -6s-6 -9 -6 -15v-141c0 -5.33301 2 -10 6 -14s9 -6 15 -6h260c5.33301 0 10 -2 14 -6s6 -8.66699 6 -14v-38c0 -5.33301 -2 -10 -6 -14s-8.66699 -6 -14 -6h-339c-5.33301 0 -10 2 -14 6s-6 8.66699 -6 14v650c0 5.33301 2 10 6 14s8.66699 6 14 6h339
c5.33301 0 10 -2 14 -6s6 -8.66699 6 -14v-38c0 -5.33301 -2 -10 -6 -14s-8.66699 -6 -14 -6h-260z" />
    <glyph glyph-name="Eacute" unicode="&#xc9;" horiz-adv-x="479" 
d="M230 747c-6 0 -10.3369 1.83398 -13.0039 5.50098s-3 8.16699 -1 13.5l26 79l4.5 7c1.66699 2.66699 3.83398 4.83398 6.50098 6.50098s5.33398 3 8.00098 4s5.33398 1.5 8.00098 1.5h31c6 0 10 -1.83301 12 -5.5s1.66699 -7.83398 -1 -12.501l-43 -81
c-1.33301 -3.33301 -3.66602 -6.33301 -6.99902 -9s-7 -4.83398 -11 -6.50098s-8 -2.5 -12 -2.5h-8zM148.996 615.001c-6 0 -11 -2 -15 -6s-6 -9 -6 -15v-233c0 -5.33301 2 -10 6 -14s9 -6 15 -6h143c6 0 11 -2 15 -6s6 -9 6 -15v-37c0 -5.33301 -2 -10 -6 -14s-9 -6 -15 -6
h-143c-6 0 -11 -2 -15 -6s-6 -9 -6 -15v-141c0 -5.33301 2 -10 6 -14s9 -6 15 -6h260c5.33301 0 10 -2 14 -6s6 -8.66699 6 -14v-38c0 -5.33301 -2 -10 -6 -14s-8.66699 -6 -14 -6h-339c-5.33301 0 -10 2 -14 6s-6 8.66699 -6 14v650c0 5.33301 2 10 6 14s8.66699 6 14 6
h339c5.33301 0 10 -2 14 -6s6 -8.66699 6 -14v-38c0 -5.33301 -2 -10 -6 -14s-8.66699 -6 -14 -6h-260z" />
    <glyph glyph-name="Ecircumflex" unicode="&#xca;" horiz-adv-x="479" 
d="M168 772c-5.33301 0 -8.83105 1.66699 -10.498 5s-0.833984 7 2.49902 11l87 123c3.33301 4 7.33301 6 12 6s8.66699 -2 12 -6l87 -123c3.33301 -4 4.16602 -7.66699 2.49902 -11s-5.16699 -5 -10.5 -5h-22c-13.333 0 -24 5.33301 -32 16l-25 35
c-3.33301 4.66699 -7.33301 7 -12 7s-8.66699 -2.33301 -12 -7l-24 -35c-8 -10.667 -19 -16 -33 -16h-22zM149.002 615c-6 0 -11 -2 -15 -6s-6 -9 -6 -15v-233c0 -5.33301 2 -10 6 -14s9 -6 15 -6h143c6 0 11 -2 15 -6s6 -9 6 -15v-37c0 -5.33301 -2 -10 -6 -14
s-9 -6 -15 -6h-143c-6 0 -11 -2 -15 -6s-6 -9 -6 -15v-141c0 -5.33301 2 -10 6 -14s9 -6 15 -6h260c5.33301 0 10 -2 14 -6s6 -8.66699 6 -14v-38c0 -5.33301 -2 -10 -6 -14s-8.66699 -6 -14 -6h-339c-5.33301 0 -10 2 -14 6s-6 8.66699 -6 14v650c0 5.33301 2 10 6 14
s8.66699 6 14 6h339c5.33301 0 10 -2 14 -6s6 -8.66699 6 -14v-38c0 -5.33301 -2 -10 -6 -14s-8.66699 -6 -14 -6h-260z" />
    <glyph glyph-name="Edieresis" unicode="&#xcb;" horiz-adv-x="479" 
d="M166 786c-12.667 0 -23.667 4.5 -33 13.5s-14 20 -14 33s4.66699 24.167 14 33.5s20.333 14 33 14s23.667 -4.66699 33 -14s14 -20.5 14 -33.5s-4.66699 -24 -14 -33s-20.333 -13.5 -33 -13.5zM352 786c-12.667 0 -23.667 4.5 -33 13.5s-14 20 -14 33
s4.66699 24.167 14 33.5s20.5 14 33.5 14s24 -4.66699 33 -14s13.5 -20.333 13.5 -33c0 -8.66699 -2 -16.667 -6 -24s-9.66699 -13 -17 -17s-15.333 -6 -24 -6zM149 615c-6 0 -11 -2 -15 -6s-6 -9 -6 -15v-233c0 -5.33301 2 -10 6 -14s9 -6 15 -6h143c6 0 11 -2 15 -6
s6 -9 6 -15v-37c0 -5.33301 -2 -10 -6 -14s-9 -6 -15 -6h-143c-6 0 -11 -2 -15 -6s-6 -9 -6 -15v-141c0 -5.33301 2 -10 6 -14s9 -6 15 -6h260c5.33301 0 10 -2 14 -6s6 -8.66699 6 -14v-38c0 -5.33301 -2 -10 -6 -14s-8.66699 -6 -14 -6h-339c-5.33301 0 -10 2 -14 6
s-6 8.66699 -6 14v650c0 5.33301 2 10 6 14s8.66699 6 14 6h339c5.33301 0 10 -2 14 -6s6 -8.66699 6 -14v-38c0 -5.33301 -2 -10 -6 -14s-8.66699 -6 -14 -6h-260z" />
    <glyph glyph-name="Igrave" unicode="&#xcc;" horiz-adv-x="213" 
d="M133 699c6 0 11 -2 15 -6s6 -9 6 -15v-660c0 -5.33301 -2 -10 -6 -14s-9 -6 -15 -6h-37c-5.33301 0 -10 2 -14 6s-6 8.66699 -6 14v660c0 6 2 11 6 15s8.66699 6 14 6h37zM136 844l26.001 -78.001c1.33301 -5.33301 0.666016 -9.83301 -2.00098 -13.5
s-6.66699 -5.5 -12 -5.5h-16c-6 0 -12 1.83301 -18 5.5s-10.333 7.83398 -13 12.501l-43 79c-6.66699 12 -9.33398 18.333 -8.00098 19s9 1 23 1h36c4 0 7.83301 -0.833008 11.5 -2.5s6.83398 -4 9.50098 -7s4.66699 -6.5 6 -10.5z" />
    <glyph glyph-name="Iacute" unicode="&#xcd;" horiz-adv-x="213" 
d="M117 699c5.33301 0 10 -2 14 -6s6 -9 6 -15v-660c0 -5.33301 -2 -10 -6 -14s-8.66699 -6 -14 -6h-38c-5.33301 0 -10 2 -14 6s-6 8.66699 -6 14v660c0 6 2 11 6 15s8.66699 6 14 6h38zM140 864c14 0 21.667 -0.332031 23 -0.999023l-1 -2.5
c-0.666992 -1.66699 -1.66699 -4 -3 -7s-2.66602 -6.16699 -3.99902 -9.5l-44 -79c-2.66699 -4.66699 -6.83398 -8.83398 -12.501 -12.501s-11.5 -5.5 -17.5 -5.5h-16c-5.33301 0 -9.5 1.83301 -12.5 5.5s-3.5 8.16699 -1.5 13.5l26 78c0.666992 4 2.5 7.5 5.5 10.5
s6.33301 5.33301 10 7s7.16699 2.5 10.5 2.5h37z" />
    <glyph glyph-name="Icircumflex" unicode="&#xce;" horiz-adv-x="305" 
d="M171 699c6 0 11 -2 15 -6s6 -9 6 -15v-660c0 -5.33301 -2 -10 -6 -14s-9 -6 -15 -6h-37c-6 0 -11 2 -15 6s-6 8.66699 -6 14v660c0 6 2 11 6 15s9 6 15 6h37zM252 788c3.33301 -4 4.16797 -7.66699 2.50098 -11s-5.5 -5 -11.5 -5h-22c-13.333 0 -24 5.33301 -32 16
l-25 35c-2.66699 4.66699 -6.33398 7 -11.001 7s-8.66699 -2.33301 -12 -7l-25 -35c-8 -10.667 -18.667 -16 -32 -16h-22c-6 0 -9.83301 1.66699 -11.5 5s-0.833984 7 2.49902 11l88 123c3.33301 4 7.33301 6 12 6s8.33398 -2 11.001 -6z" />
    <glyph glyph-name="Idieresis" unicode="&#xcf;" horiz-adv-x="380" 
d="M209 699c5.33301 0 10 -2 14 -6s6 -9 6 -15v-660c0 -5.33301 -2 -10 -6 -14s-8.66699 -6 -14 -6h-38c-5.33301 0 -10 2 -14 6s-6 8.66699 -6 14v660c0 6 2 11 6 15s8.66699 6 14 6h38zM97 880c8.66699 0 16.5 -2.16797 23.5 -6.50098s12.667 -10.166 17 -17.499
s6.5 -15 6.5 -23c0 -13.333 -4.66699 -24.5 -14 -33.5s-20.333 -13.5 -33 -13.5s-23.667 4.5 -33 13.5s-14 20 -14 33s4.66699 24.167 14 33.5s20.333 14 33 14zM283.5 879.999c13 0 24 -4.66699 33 -14s13.5 -20.5 13.5 -33.5s-4.5 -24 -13.5 -33s-20 -13.5 -33 -13.5
s-24.167 4.5 -33.5 13.5s-14 20 -14 33s4.66699 24.167 14 33.5s20.5 14 33.5 14z" />
    <glyph glyph-name="Eth" unicode="&#xd0;" horiz-adv-x="634" 
d="M239 693c64 0 122.831 -16 176.498 -48s95.667 -75.667 126 -131s44.5 -115 42.5 -179c-2.66699 -61.333 -20.167 -117.5 -52.5 -168.5s-75.166 -91 -128.499 -120s-110.666 -43.5 -171.999 -43.5h-113c-5.33301 0 -10 2 -14 6s-6 8.66699 -6 14v220
c0 5.33301 -2 10 -6 14s-8.66699 6 -14 6h-8c-5.33301 0 -10 1.83301 -14 5.5s-6 8.5 -6 14.5v38c0 6 2 10.833 6 14.5s8.66699 5.5 14 5.5h8c5.33301 0 10 2 14 6s6 8.66699 6 14v312c0 5.33301 2 10 6 14s8.66699 6 14 6h121zM238.998 81c76 0 140.332 27.667 192.999 83
s77 121 73 197c-3.33301 71.333 -31.666 131.5 -84.999 180.5s-116.333 73.5 -189 73.5h-35c-5.33301 0 -10 -2 -14 -6s-6 -8.66699 -6 -14v-234c0 -5.33301 2 -10 6 -14s8.66699 -6 14 -6h58c5.33301 0 9.83301 -2 13.5 -6s5.5 -8.66699 5.5 -14v-38
c0 -6 -1.83301 -10.833 -5.5 -14.5s-8.16699 -5.5 -13.5 -5.5h-58c-5.33301 0 -10 -2 -14 -6s-6 -8.66699 -6 -14v-142c0 -5.33301 2 -10 6 -14s8.66699 -6 14 -6h43z" />
    <glyph glyph-name="Ntilde" unicode="&#xd1;" horiz-adv-x="586" 
d="M162 806l-4.99902 3c-5.33301 4 -8.33301 9.5 -9 16.5s1.33301 12.833 6 17.5c23.333 23.333 48.5 36.333 75.5 39s52.833 -5.33301 77.5 -24l8 -7c25.333 -19.333 52 -17 80 7c9.33301 8 19 8 29 0l5 -4c5.33301 -4 8.16602 -9.33301 8.49902 -16
s-2.16699 -12.334 -7.5 -17.001c-24 -23.333 -50.333 -35 -79 -35c-23.333 0 -46 8.33301 -68 25c-3.33301 2.66699 -6.33301 5.33398 -9 8.00098c-11.333 8.66699 -23 13 -35 13c-16 0 -31.667 -8 -47 -24c-10 -9.33301 -20 -10 -30 -2zM516.001 699
c2.66699 0 5.16699 -0.665039 7.5 -1.99805s4.5 -2.83301 6.5 -4.5s3.5 -3.83398 4.5 -6.50098s1.5 -5.33398 1.5 -8.00098v-670c0 -4.66699 -2.33301 -7.83398 -7 -9.50098s-8.33398 -0.5 -11.001 3.5l-390 491v-475c0 -5.33301 -2 -10 -6 -14s-8.66699 -6 -14 -6h-38
c-5.33301 0 -10 2 -14 6s-6 8.66699 -6 14v670c0 4.66699 2.33301 7.83398 7 9.50098s8.33398 0.5 11.001 -3.5l390 -491v475c0 6 2 11 6 15s8.66699 6 14 6h38z" />
    <glyph glyph-name="Ograve" unicode="&#xd2;" horiz-adv-x="790" 
d="M386 765l-42.9971 80.998c-2.66699 4.66699 -2.83398 8.83398 -0.500977 12.501s6.16602 5.5 11.499 5.5h31c3.33301 0 6.83301 -0.833008 10.5 -2.5s7 -4 10 -7s5.16699 -6.16699 6.5 -9.5l26 -79c2 -5.33301 1.66699 -9.83301 -1 -13.5s-6.66699 -5.5 -12 -5.5h-9
c-6 0 -11.833 1.83301 -17.5 5.5s-9.83398 7.83398 -12.501 12.501zM395.003 692.998c62.667 0 120.498 -15.335 173.498 -46.002s94.833 -72.5 125.5 -125.5s46 -110.833 46 -173.5s-15.333 -120.5 -46 -173.5s-72.5 -94.833 -125.5 -125.5s-110.833 -46 -173.5 -46
s-120.5 15.333 -173.5 46s-94.833 72.5 -125.5 125.5s-46 110.833 -46 173.5c0 46.667 9.16699 91.334 27.5 134.001s42.833 79.334 73.5 110.001s67.334 55.167 110.001 73.5s87.334 27.5 134.001 27.5zM395.001 80.9961c73.333 0 136.166 26.167 188.499 78.5
s78.5 115.166 78.5 188.499s-26.167 136.166 -78.5 188.499s-115.166 78.5 -188.499 78.5s-136.166 -26.167 -188.499 -78.5s-78.5 -115.166 -78.5 -188.499s26.167 -136.166 78.5 -188.499s115.166 -78.5 188.499 -78.5z" />
    <glyph glyph-name="Oacute" unicode="&#xd3;" horiz-adv-x="790" 
d="M365 747c-5.33301 0 -9.33203 1.83496 -11.999 5.50195s-3 8.16699 -1 13.5l26 79c1.33301 3.33301 3.5 6.5 6.5 9.5s6.33301 5.33301 10 7s7.16699 2.5 10.5 2.5h31c6 0 10 -1.83301 12 -5.5s1.66699 -7.83398 -1 -12.501l-43 -81
c-2.66699 -4.66699 -6.83398 -8.83398 -12.501 -12.501s-11.5 -5.5 -17.5 -5.5h-9zM395.001 693.002c62.667 0 120.5 -15.333 173.5 -46s94.833 -72.5 125.5 -125.5s46 -110.833 46 -173.5s-15.333 -120.5 -46 -173.5s-72.5 -94.833 -125.5 -125.5s-110.833 -46 -173.5 -46
s-120.5 15.333 -173.5 46s-94.833 72.5 -125.5 125.5s-46 110.833 -46 173.5s15.333 120.5 46 173.5s72.5 94.833 125.5 125.5s110.833 46 173.5 46zM395.001 81.002c73.333 0 136.166 26.167 188.499 78.5s78.5 115.166 78.5 188.499s-26.167 136.166 -78.5 188.499
s-115.166 78.5 -188.499 78.5s-136.166 -26.167 -188.499 -78.5s-78.5 -115.166 -78.5 -188.499s26.167 -136.166 78.5 -188.499s115.166 -78.5 188.499 -78.5z" />
    <glyph glyph-name="Ocircumflex" unicode="&#xd4;" horiz-adv-x="790" 
d="M304 772c-5.33301 0 -8.83105 1.66699 -10.498 5s-0.833984 7 2.49902 11l87 123c3.33301 4 7.33301 6 12 6s8.66699 -2 12 -6l87 -123c3.33301 -4 4.16602 -7.66699 2.49902 -11s-5.16699 -5 -10.5 -5h-22c-13.333 0 -24 5.33301 -32 16l-25 35
c-3.33301 4.66699 -7.33301 7 -12 7s-8.66699 -2.33301 -12 -7l-25 -35c-7.33301 -10.667 -18 -16 -32 -16h-22zM395.002 693c62.667 0 120.498 -15.335 173.498 -46.002s94.833 -72.5 125.5 -125.5s46 -110.833 46 -173.5s-15.333 -120.5 -46 -173.5
s-72.5 -94.833 -125.5 -125.5s-110.667 -46 -173 -46s-120 15.333 -173 46s-95 72.5 -126 125.5s-46.5 110.833 -46.5 173.5c0 46.667 9.16699 91.334 27.5 134.001s42.833 79.334 73.5 110.001s67.334 55.167 110.001 73.5s87.334 27.5 134.001 27.5zM395 80.998
c73.333 0 136.166 26.167 188.499 78.5s78.5 115.166 78.5 188.499s-26.167 136.166 -78.5 188.499s-115.166 78.5 -188.499 78.5s-136.166 -26.167 -188.499 -78.5s-78.5 -115.166 -78.5 -188.499s26.167 -136.166 78.5 -188.499s115.166 -78.5 188.499 -78.5z" />
    <glyph glyph-name="Otilde" unicode="&#xd5;" horiz-adv-x="790" 
d="M265 804l-7.99609 5.99902c-4.66699 4 -7.33398 9 -8.00098 15s1.33301 11.333 6 16c23.333 24 48.666 37.5 75.999 40.5s53.333 -4.83301 78 -23.5l8 -7c25.333 -20 52.666 -17.333 81.999 8c8 7.33301 16.667 7.33301 26 0l8 -6c4.66699 -4 7.16699 -9 7.5 -15
s-1.83398 -11.333 -6.50098 -16c-24.667 -24 -51.667 -36 -81 -36c-24 0 -46.667 8.33301 -68 25c-3.33301 2.66699 -6.33301 5.33398 -9 8.00098c-11.333 8.66699 -23 13 -35 13c-16.667 0 -33 -8.33301 -49 -25c-8 -8.66699 -17 -9.66699 -27 -3zM395.004 692.999
c62.667 0 120.498 -15.335 173.498 -46.002s94.833 -72.5 125.5 -125.5s46 -110.833 46 -173.5s-15.333 -120.5 -46 -173.5s-72.5 -94.833 -125.5 -125.5s-110.833 -46 -173.5 -46s-120.5 15.333 -173.5 46s-94.833 72.5 -125.5 125.5s-46 110.833 -46 173.5
c0 46.667 9.16699 91.334 27.5 134.001s42.833 79.334 73.5 110.001s67.334 55.167 110.001 73.5s87.334 27.5 134.001 27.5zM395.002 80.9971c73.333 0 136.166 26.167 188.499 78.5s78.5 115.166 78.5 188.499s-26.167 136.166 -78.5 188.499s-115.166 78.5 -188.499 78.5
s-136.166 -26.167 -188.499 -78.5s-78.5 -115.166 -78.5 -188.499s26.167 -136.166 78.5 -188.499s115.166 -78.5 188.499 -78.5z" />
    <glyph glyph-name="Odieresis" unicode="&#xd6;" horiz-adv-x="790" 
d="M488.5 786c-13 0 -24.167 4.5 -33.5 13.5s-14 20 -14 33s4.66699 24.167 14 33.5s20.333 14 33 14s23.667 -4.66699 33 -14s14 -20.5 14 -33.5s-4.5 -24 -13.5 -33s-20 -13.5 -33 -13.5zM302 786c-12.667 0 -23.667 4.5 -33 13.5s-14 20 -14 33s4.66699 24.167 14 33.5
s20.333 14 33 14s23.667 -4.66699 33 -14s14 -20.333 14 -33c0 -8.66699 -2.16699 -16.667 -6.5 -24s-10 -13 -17 -17s-14.833 -6 -23.5 -6zM395 693c62.667 0 120.498 -15.335 173.498 -46.002s94.833 -72.5 125.5 -125.5s46 -110.833 46 -173.5s-15.333 -120.5 -46 -173.5
s-72.5 -94.833 -125.5 -125.5s-110.833 -46 -173.5 -46s-120.5 15.333 -173.5 46s-94.833 72.5 -125.5 125.5s-46 110.833 -46 173.5c0 46.667 9.16699 91.334 27.5 134.001s42.833 79.334 73.5 110.001s67.334 55.167 110.001 73.5s87.334 27.5 134.001 27.5z
M394.998 80.998c73.333 0 136.166 26.167 188.499 78.5s78.5 115.166 78.5 188.499s-26.167 136.166 -78.5 188.499s-115.166 78.5 -188.499 78.5s-136.166 -26.167 -188.499 -78.5s-78.5 -115.166 -78.5 -188.499s26.167 -136.166 78.5 -188.499
s115.166 -78.5 188.499 -78.5z" />
    <glyph glyph-name="multiply" unicode="&#xd7;" horiz-adv-x="412" 
d="M276 334l80 -80c4 -4 6 -8.83301 6 -14.5s-2 -10.5 -6 -14.5l-27 -27c-4 -4 -8.83301 -6 -14.5 -6s-10.167 2 -13.5 6l-81 81c-4 4 -8.83301 6 -14.5 6s-10.5 -2 -14.5 -6l-80 -81c-4 -4 -8.83301 -6 -14.5 -6s-10.5 2 -14.5 6l-26 27c-4 4 -6 8.83301 -6 14.5
s2 10.5 6 14.5l80 80c4 4 6 8.83301 6 14.5s-2 10.5 -6 14.5l-80 80c-4 4 -6 8.83301 -6 14.5s2 10.5 6 14.5l26 26c4 4 8.83301 6 14.5 6s10.5 -2 14.5 -6l80 -80c4 -4 8.83301 -6 14.5 -6s10.5 2 14.5 6l81 80c3.33301 4 7.83301 6 13.5 6s10.5 -2 14.5 -6l27 -26
c4 -4 6 -8.83301 6 -14.5s-2 -10.5 -6 -14.5l-80 -80c-4 -4 -6 -8.83301 -6 -14.5s2 -10.5 6 -14.5z" />
    <glyph glyph-name="Oslash" unicode="&#xd8;" horiz-adv-x="790" 
d="M395 693c62.667 0 120.498 -15.335 173.498 -46.002s94.833 -72.5 125.5 -125.5s46 -110.833 46 -173.5s-15.333 -120.5 -46 -173.5s-72.5 -94.833 -125.5 -125.5s-110.833 -46 -173.5 -46s-120.5 15.333 -173.5 46s-94.833 72.5 -125.5 125.5s-46 110.833 -46 173.5
c0 46.667 9.16699 91.334 27.5 134.001s42.833 79.334 73.5 110.001s67.334 55.167 110.001 73.5s87.334 27.5 134.001 27.5zM171.998 203.998c3.33301 -5.33301 8.16602 -8.33301 14.499 -9s11.833 1.33301 16.5 6l342 336c4.66699 4.66699 6.83398 10.167 6.50098 16.5
s-3.16602 11.5 -8.49902 15.5c-64 42.667 -133.333 55.667 -208 39c-49.333 -11.333 -92 -35 -128 -71s-60 -78.333 -72 -127c-16.667 -74 -4.33398 -142.667 36.999 -206zM451.998 86.998c50 10.667 93.5 34.499 130.5 71.499s61.167 80.5 72.5 130.5
c17.333 76 3.66602 146 -41.001 210c-4 4.66699 -9.16699 7.33398 -15.5 8.00098s-11.833 -1 -16.5 -5l-344 -339c-4.66699 -4 -6.66699 -9.16699 -6 -15.5s3.33398 -11.5 8.00098 -15.5c64 -46 134.667 -61 212 -45z" />
    <glyph glyph-name="Ugrave" unicode="&#xd9;" horiz-adv-x="586" 
d="M516 699c5.33301 0 10 -1.99902 14 -5.99902s6 -9 6 -15v-432c0 -69.333 -25.167 -128 -75.5 -176s-110.166 -70.333 -179.499 -67c-42.667 2 -81.834 14.667 -117.501 38s-63.5 53.666 -83.5 90.999s-30 77.666 -30 120.999v425c0 6 2 11 6 15s9 6 15 6h37
c5.33301 0 10 -2 14 -6s6 -9 6 -15v-426c0 -44.667 14.833 -83.5 44.5 -116.5s66.167 -50.833 109.5 -53.5c48 -3.33301 89.333 11.334 124 44.001s52 72.667 52 120v432c0 6 2 11 6 15s8.66699 6 14 6h38zM283 765.001l-42.998 80.998
c-2.66699 4.66699 -2.83398 8.83398 -0.500977 12.501s6.16602 5.5 11.499 5.5h31c3.33301 0 6.83301 -0.833008 10.5 -2.5s7 -4 10 -7s5.16699 -6.16699 6.5 -9.5l26 -79c2 -5.33301 1.66699 -9.83301 -1 -13.5s-7 -5.5 -13 -5.5h-8c-4 0 -7.83301 0.833008 -11.5 2.5
s-7.16699 3.83398 -10.5 6.50098s-6 5.66699 -8 9z" />
    <glyph glyph-name="Uacute" unicode="&#xda;" horiz-adv-x="586" 
d="M516 699c5.33301 0 10 -1.99902 14 -5.99902s6 -9 6 -15v-432c0 -69.333 -25.167 -128 -75.5 -176s-110.166 -70.333 -179.499 -67c-42.667 2 -81.834 14.667 -117.501 38s-63.5 53.666 -83.5 90.999s-30 77.666 -30 120.999v425c0 6 2 11 6 15s9 6 15 6h37
c5.33301 0 10 -2 14 -6s6 -9 6 -15v-426c0 -44.667 14.833 -83.5 44.5 -116.5s66.167 -50.833 109.5 -53.5c48 -3.33301 89.333 11.334 124 44.001s52 72.667 52 120v432c0 6 2 11 6 15s8.66699 6 14 6h38zM265 747.001c-6 0 -10.3311 1.83496 -12.998 5.50195
s-3 8.16699 -1 13.5l27 79c1.33301 4.66699 4.66602 9 9.99902 13s11 6 17 6h30c6 0 10 -1.83301 12 -5.5s1.66699 -7.83398 -1 -12.501l-43 -81c-2.66699 -4.66699 -6.83398 -8.83398 -12.501 -12.501s-11.5 -5.5 -17.5 -5.5h-8z" />
    <glyph glyph-name="Ucircumflex" unicode="&#xdb;" horiz-adv-x="586" 
d="M516 699c3.33301 0 6.66699 -0.999023 10 -2.99902s5.83301 -4.5 7.5 -7.5s2.5 -6.5 2.5 -10.5v-432c0 -69.333 -25.167 -128 -75.5 -176s-110.166 -70.333 -179.499 -67c-42.667 2 -81.834 14.667 -117.501 38s-63.5 53.666 -83.5 90.999s-30 77.666 -30 120.999v425
c0 6 2 11 6 15s9 6 15 6h37c5.33301 0 10 -2 14 -6s6 -9 6 -15v-426c0 -44.667 14.833 -83.5 44.5 -116.5s66.167 -50.833 109.5 -53.5c48 -3.33301 89.333 11.334 124 44.001s52 72.667 52 120v432c0 6 2 11 6 15s8.66699 6 14 6h38zM202.001 772.001
c-5.33301 0 -8.83203 1.66699 -10.499 5s-0.833984 7 2.49902 11l87 123c3.33301 4 7.33301 6 12 6s8.66699 -2 12 -6l88 -123c2.66699 -4 3.16699 -7.66699 1.5 -11s-5.16699 -5 -10.5 -5h-22c-13.333 0 -24 5.33301 -32 16l-25 35c-3.33301 4.66699 -7.33301 7 -12 7
s-8.66699 -2.33301 -12 -7l-24 -35c-8 -10.667 -19 -16 -33 -16h-22z" />
    <glyph glyph-name="Udieresis" unicode="&#xdc;" horiz-adv-x="586" 
d="M386 786c-12.667 0 -23.6641 4.49805 -32.9971 13.498s-14 20.167 -14 33.5c0 8 2.16699 15.667 6.5 23s10.166 13.166 17.499 17.499s15.166 6.5 23.499 6.5s16.166 -2.16699 23.499 -6.5s13 -10.166 17 -17.499s6 -15.166 6 -23.499s-2 -16.166 -6 -23.499
s-9.66699 -13 -17 -17s-15.333 -6 -24 -6zM200.503 785.998c-13 0 -24.167 4.5 -33.5 13.5s-14 20 -14 33s4.66699 24.167 14 33.5s20.5 14 33.5 14s24 -4.66699 33 -14s13.5 -20.5 13.5 -33.5s-4.5 -24 -13.5 -33s-20 -13.5 -33 -13.5zM516.003 698.998
c5.33301 0 10 -1.99902 14 -5.99902s6 -9 6 -15v-432c0 -69.333 -25.167 -128 -75.5 -176s-110.166 -70.333 -179.499 -67c-42.667 2 -81.834 14.667 -117.501 38s-63.5 53.666 -83.5 90.999s-30 77.666 -30 120.999v425c0 6 2 11 6 15s9 6 15 6h37c5.33301 0 10 -2 14 -6
s6 -9 6 -15v-426c0 -44.667 14.833 -83.5 44.5 -116.5s66.167 -50.833 109.5 -53.5c48 -3.33301 89.333 11.334 124 44.001s52 72.667 52 120v432c0 6 2 11 6 15s8.66699 6 14 6h38z" />
    <glyph glyph-name="Yacute" unicode="&#xdd;" horiz-adv-x="659" 
d="M300 747c-5.33301 0 -9.5 1.83398 -12.5 5.50098s-3.5 8.16699 -1.5 13.5l27 79c0.666992 2 2 4.33301 4 7s4.16699 4.83398 6.5 6.50098s5 3 8 4s5.83301 1.5 8.5 1.5h30c6 0 10 -1.83301 12 -5.5s1.66699 -7.83398 -1 -12.501l-43 -81
c-2 -4.66699 -6 -8.83398 -12 -12.501s-11.667 -5.5 -17 -5.5h-9zM608 698.001c3.33301 0 1.33398 -6.00098 -5.99902 -18.001l-225 -372c-7.33301 -11.333 -11 -23.666 -11 -36.999v-255c0 -5.33301 -2 -10 -6 -14s-8.66699 -6 -14 -6h-37c-6 0 -11 2 -15 6
s-6 8.66699 -6 14v255c0 13.333 -3.33301 25.666 -10 36.999l-225 372c-3.33301 4.66699 -4 8.83398 -2 12.501s5.66699 5.5 11 5.5h51c5.33301 0 11.166 -1.83301 17.499 -5.5s10.833 -7.83398 13.5 -12.501l173 -285c2.66699 -4.66699 6.16699 -7 10.5 -7
s7.83301 2.33301 10.5 7l173 285c2 3.33301 4.66699 6.33301 8 9s7 4.83398 11 6.50098s8 2.5 12 2.5h40h26z" />
    <glyph glyph-name="Thorn" unicode="&#xde;" horiz-adv-x="415" 
d="M142 571c61.333 0 113.833 -21.833 157.5 -65.5s65.5 -96.167 65.5 -157.5s-21.833 -113.833 -65.5 -157.5s-96.167 -65.5 -157.5 -65.5h-4c-2.66699 0 -5 -1.83301 -7 -5.5s-3 -8.5 -3 -14.5v-87c0 -6 -2 -11 -6 -15s-8.66699 -6 -14 -6h-38c-5.33301 0 -10 2 -14 6
s-6 9 -6 15v105v409v146c0 5.33301 2 10 6 14s8.66699 6 14 6h38c5.33301 0 10 -2 14 -6s6 -8.66699 6 -14v-87c0 -6 1 -10.833 3 -14.5s4.33301 -5.5 7 -5.5h4zM147 211c4 1.33301 9.16699 3.33594 15.5 6.00293s17.5 8.5 33.5 17.5s30.167 18.5 42.5 28.5
s23.5 22.667 33.5 38s15 31 15 47c0 11.333 -2.5 22.666 -7.5 33.999s-11.667 21.333 -20 30s-17.5 17 -27.5 25s-20 14.833 -30 20.5l-27 15c-8 4.33301 -14.667 7.5 -20 9.5l-8 3c-3.33301 1.33301 -6.5 1.66602 -9.5 0.999023s-5.33301 -2.33398 -7 -5.00098
s-2.5 -5.66699 -2.5 -9v-248c0 -5.33301 1.83301 -9.33301 5.5 -12s8.16699 -3 13.5 -1z" />
    <glyph glyph-name="germandbls" unicode="&#xdf;" horiz-adv-x="544" 
d="M393 364c32.667 -18 58.168 -43.3359 76.501 -76.0029s26.166 -68 23.499 -106c-3.33301 -50.667 -24.333 -93.167 -63 -127.5s-83.667 -51.5 -135 -51.5h-105c-5.33301 0 -10 2 -14 6s-6 8.66699 -6 14v38c0 6 2 10.833 6 14.5s8.66699 5.5 14 5.5h111
c34.667 0 63.334 12.833 86.001 38.5s31.667 55.834 27 90.501c-2 18.667 -8.66699 35.667 -20 51s-25.5 27.166 -42.5 35.499s-35.167 12.5 -54.5 12.5h-18c-5.33301 0 -10 1.83301 -14 5.5s-6 8.5 -6 14.5v40c0 4.66699 1.66699 8.83398 5 12.501
s7.33301 5.83398 12 6.50098c27.333 4 50.333 16.667 69 38s28 46.333 28 75c0 38.667 -15.833 69.5 -47.5 92.5s-66.834 27.833 -105.501 14.5c-27.333 -9.33301 -49.5 -26.333 -66.5 -51s-25.5 -52 -25.5 -82v-688c0 -5.33301 -1.83301 -10 -5.5 -14s-8.5 -6 -14.5 -6h-38
c-5.33301 0 -10 2 -14 6s-6 8.66699 -6 14v697c0 56.667 19.833 105.334 59.5 146.001s87.834 61.667 144.501 63c48.667 1.33301 92.167 -14.5 130.5 -47.5s60.166 -73.833 65.499 -122.5c3.33301 -30 0 -59 -10 -87s-25.667 -52 -47 -72z" />
    <glyph glyph-name="agrave" unicode="&#xe0;" horiz-adv-x="501" 
d="M239 545l-40.9971 77c-6 12 -7.5 18.667 -4.5 20s11.167 2 24.5 2h21c5.33301 0 10.666 -1.83301 15.999 -5.5s9 -8.16699 11 -13.5l26 -78c1.33301 -4 1.66602 -7.33301 0.999023 -10s-2.33398 -5 -5.00098 -7s-5.66699 -3 -9 -3h-10c-3.33301 0 -7 0.833008 -11 2.5
s-7.66699 4 -11 7s-6 5.83301 -8 8.5zM255.003 461c54 0.666992 100.165 -17.833 138.498 -55.5s57.5 -83.5 57.5 -137.5v-249c0 -6 -2 -11 -6 -15s-9 -6 -15 -6h-11c-12.667 0 -23.5 4.5 -32.5 13.5s-13.5 19.5 -13.5 31.5c0 2 -0.833008 3.33301 -2.5 4
s-3.16699 0.666992 -4.5 0c-44 -34.667 -94 -52 -150 -52c-48.667 0 -88.5 13 -119.5 39s-46.5 59.667 -46.5 101c0 31.333 7.66699 58.5 23 81.5s37.5 40.667 66.5 53s62.833 18.5 101.5 18.5c45.333 0 87.333 -8 126 -24c4 -1.33301 6 0 6 4c0 32 -11.333 59.167 -34 81.5
s-50 33.5 -82 33.5c-39.333 0 -72.666 -7.33301 -99.999 -22c-5.33301 -2.66699 -10.833 -3.16699 -16.5 -1.5s-10.167 4.83398 -13.5 9.50098l-18 27c-3.33301 6 -4.16602 12.167 -2.49902 18.5s5.5 11.166 11.5 14.499c39.333 21.333 85 32 137 32zM216.001 73
c30 0 59.5 8.33008 88.5 24.9971s49.167 41.667 60.5 75c0.666992 2 0 3.66699 -2 5c-11.333 8 -28.333 15.167 -51 21.5s-46 9.5 -70 9.5c-14.667 0 -29 -1.33301 -43 -4c-16 -2.66699 -29.333 -7.16699 -40 -13.5s-18 -13.666 -22 -21.999s-6.5 -14.666 -7.5 -18.999
s-1.5 -9.5 -1.5 -15.5c0 -14 4 -25.667 12 -35s17.833 -15.666 29.5 -18.999s21 -5.5 28 -6.5s13.167 -1.5 18.5 -1.5z" />
    <glyph glyph-name="aacute" unicode="&#xe1;" horiz-adv-x="501" 
d="M222 527c-5.33301 0 -9.33105 2 -11.998 6s-3.33398 8.66699 -2.00098 14l27 78c2 5.33301 5.66699 9.83301 11 13.5s10.666 5.5 15.999 5.5h21c13.333 0 21.5 -0.666992 24.5 -2s1.5 -8 -4.5 -20l-41 -77c-2 -2.66699 -4.66699 -5.5 -8 -8.5s-7 -5.33301 -11 -7
s-7.66699 -2.5 -11 -2.5h-10zM255.002 461c54 0.666992 100.165 -17.834 138.498 -55.501s57.5 -83.5 57.5 -137.5v-249c0 -6 -2 -11 -6 -15s-9 -6 -15 -6h-11c-12.667 0 -23.5 4.5 -32.5 13.5s-13.5 19.5 -13.5 31.5c0 2 -0.833008 3.33301 -2.5 4
s-3.16699 0.666992 -4.5 0c-44 -34.667 -94 -52 -150 -52c-48.667 0 -88.5 13 -119.5 39s-46.5 59.667 -46.5 101c0 46.667 17.167 83.834 51.5 111.501s80.833 41.5 139.5 41.5c45.333 0 87.333 -8 126 -24c4 -1.33301 6 0 6 4c0 32 -11.333 59.167 -34 81.5
s-50 33.5 -82 33.5c-39.333 0 -72.666 -7.33301 -99.999 -22c-5.33301 -2.66699 -10.833 -3.16699 -16.5 -1.5s-10.167 4.83398 -13.5 9.50098l-18 27c-3.33301 6 -4.16602 12.167 -2.49902 18.5s5.5 11.166 11.5 14.499c39.333 21.333 85 32 137 32zM216 72.999
c30 0 59.502 8.33203 88.502 24.999s49.167 41.667 60.5 75c0.666992 2 0 3.66699 -2 5c-11.333 8 -28.333 15.167 -51 21.5s-46 9.5 -70 9.5c-14.667 0 -28.834 -1.33301 -42.501 -4s-25.334 -6.5 -35.001 -11.5s-16.667 -10 -21 -15s-7.83301 -10.833 -10.5 -17.5
s-4.16699 -11.667 -4.5 -15s-0.5 -7 -0.5 -11c0 -14 4 -25.667 12 -35s17.833 -15.666 29.5 -18.999s21 -5.5 28 -6.5s13.167 -1.5 18.5 -1.5z" />
    <glyph glyph-name="acircumflex" unicode="&#xe2;" horiz-adv-x="501" 
d="M160 522c-6 0 -9.83105 1.66699 -11.498 5s-0.833984 7 2.49902 11l88 123c2.66699 4 6.33398 6 11.001 6s8.66699 -2 12 -6l88 -123c3.33301 -4 4.16602 -7.66699 2.49902 -11s-5.5 -5 -11.5 -5h-22c-13.333 0 -24 5.33301 -32 16l-25 35
c-3.33301 4.66699 -7.33301 7 -12 7s-8.33398 -2.33301 -11.001 -7l-25 -35c-8 -10.667 -18.667 -16 -32 -16h-22zM255.002 461c54 0.666992 100.165 -17.833 138.498 -55.5s57.5 -83.5 57.5 -137.5v-249c0 -6 -2 -11 -6 -15s-9 -6 -15 -6h-12c-12 0 -22.5 4.5 -31.5 13.5
s-13.5 19.5 -13.5 31.5c0 2 -0.833008 3.33301 -2.5 4s-3.16699 0.666992 -4.5 0c-44 -34.667 -94 -52 -150 -52c-48.667 0 -88.5 13 -119.5 39s-46.5 59.667 -46.5 101c0 31.333 7.66699 58.5 23 81.5s37.5 40.667 66.5 53s62.833 18.5 101.5 18.5
c45.333 0 87.333 -8 126 -24c4 -1.33301 6 0 6 4c0 32 -11.333 59.167 -34 81.5s-50 33.5 -82 33.5c-39.333 0 -72.666 -7.33301 -99.999 -22c-5.33301 -2.66699 -10.833 -3.16699 -16.5 -1.5s-10.167 4.83398 -13.5 9.50098l-18 27
c-3.33301 6 -4.16602 12.167 -2.49902 18.5s5.5 11.166 11.5 14.499c39.333 21.333 85 32 137 32zM216 73c18.667 0 37.5 3.16309 56.5 9.49609s37.333 17.333 55 33s30.167 34.834 37.5 57.501c0.666992 2 0 3.66699 -2 5c-11.333 8 -28.333 15.167 -51 21.5
s-46 9.5 -70 9.5c-14.667 0 -29 -1.33301 -43 -4c-16 -2.66699 -29.5 -7.16699 -40.5 -13.5s-18.333 -13.666 -22 -21.999s-6 -14.666 -7 -18.999s-1.5 -9.5 -1.5 -15.5c0 -14 4 -25.667 12 -35s17.833 -15.666 29.5 -18.999s21 -5.5 28 -6.5s13.167 -1.5 18.5 -1.5z" />
    <glyph glyph-name="atilde" unicode="&#xe3;" horiz-adv-x="501" 
d="M255 461c54 0.666992 100.165 -17.833 138.498 -55.5s57.5 -83.5 57.5 -137.5v-249c0 -6 -2 -11 -6 -15s-9 -6 -15 -6h-12c-12 0 -22.5 4.5 -31.5 13.5s-13.5 19.5 -13.5 31.5c0 2 -0.833008 3.33301 -2.5 4s-3.16699 0.666992 -4.5 0c-44 -34.667 -94 -52 -150 -52
c-48.667 0 -88.5 13 -119.5 39s-46.5 59.667 -46.5 101c0 31.333 7.66699 58.5 23 81.5s37.5 40.667 66.5 53s62.833 18.5 101.5 18.5c45.333 0 87.333 -8 126 -24c4 -1.33301 6 0 6 4c0 32 -11.333 59.167 -34 81.5s-50 33.5 -82 33.5
c-39.333 0 -72.666 -7.33301 -99.999 -22c-5.33301 -2.66699 -10.833 -3.16699 -16.5 -1.5s-10.167 4.83398 -13.5 9.50098l-18 27c-3.33301 6 -4.16602 12.167 -2.49902 18.5s5.5 11.166 11.5 14.499c39.333 21.333 85 32 137 32zM215.998 73
c18.667 0 37.5 3.16309 56.5 9.49609s37.333 17.333 55 33s30.167 34.834 37.5 57.501c0.666992 2 0 3.66699 -2 5c-11.333 8 -28.333 15.167 -51 21.5s-46 9.5 -70 9.5c-14.667 0 -29 -1.33301 -43 -4c-16 -2.66699 -29.5 -7.16699 -40.5 -13.5
s-18.333 -13.666 -22 -21.999s-6 -14.666 -7 -18.999s-1.5 -9.5 -1.5 -15.5c0 -14 4 -25.667 12 -35s17.833 -15.666 29.5 -18.999s21 -5.5 28 -6.5s13.167 -1.5 18.5 -1.5zM146.998 554.996l-9.00098 6.00098c-4.66699 4 -7.16699 9 -7.5 15s1.5 11 5.5 15
c23.333 24.667 48.833 38.5 76.5 41.5s53.834 -5.16699 78.501 -24.5l7 -6c26.667 -20.667 54.334 -18 83.001 8c8 7.33301 16.333 7.33301 25 0l9 -7c4.66699 -3.33301 7.16699 -8 7.5 -14s-1.83398 -11.333 -6.50098 -16c-24.667 -24 -51.667 -36 -81 -36
c-24 0 -46.667 8.33301 -68 25c-3.33301 2 -6.33301 4.33301 -9 7c-11.333 8.66699 -23 13 -35 13c-16.667 0 -33 -8.33301 -49 -25c-8.66699 -8.66699 -17.667 -9.33398 -27 -2.00098z" />
    <glyph glyph-name="adieresis" unicode="&#xe4;" horiz-adv-x="501" 
d="M157.5 536c-13 0 -24.167 4.66699 -33.5 14s-14 20.5 -14 33.5s4.66699 24 14 33s20.5 13.5 33.5 13.5s24 -4.5 33 -13.5s13.5 -20 13.5 -33s-4.5 -24.167 -13.5 -33.5s-20 -14 -33 -14zM343 536c-8 0 -15.665 2.16992 -22.998 6.50293s-13 10.166 -17 17.499
s-6 15.166 -6 23.499s2 16.166 6 23.499s9.66699 13 17 17s15.166 6 23.499 6s16.166 -2 23.499 -6s13.166 -9.66699 17.499 -17s6.5 -15.333 6.5 -24c0 -12.667 -4.66699 -23.667 -14 -33s-20.666 -14 -33.999 -14zM255.002 461.003
c35.333 0.666992 67.999 -7.66895 97.999 -25.002s53.833 -40.833 71.5 -70.5s26.5 -62.167 26.5 -97.5v-249c0 -6 -2 -11 -6 -15s-9 -6 -15 -6h-12c-12.667 0 -23.334 4.33301 -32.001 13s-13 19.334 -13 32.001c0 2 -0.833008 3.33301 -2.5 4s-3.16699 0.666992 -4.5 0
c-44 -34.667 -94 -52 -150 -52c-48.667 0 -88.5 13 -119.5 39s-46.5 59.667 -46.5 101c0 46.667 17.167 83.834 51.5 111.501s80.833 41.5 139.5 41.5c45.333 0 87.333 -8 126 -24c4 -1.33301 6 0 6 4c0 32 -11.333 59.167 -34 81.5s-50 33.5 -82 33.5
c-39.333 0 -72.666 -7.33301 -99.999 -22c-5.33301 -2.66699 -10.833 -3.16699 -16.5 -1.5s-10.167 4.83398 -13.5 9.50098l-18 27c-3.33301 6 -4.16602 12.167 -2.49902 18.5s5.5 11.166 11.5 14.499c39.333 21.333 85 32 137 32zM216.001 73
c30 0 59.502 8.33008 88.502 24.9971s49.167 41.667 60.5 75c0.666992 2 0 3.66699 -2 5c-7.33301 5.33301 -16.833 10.333 -28.5 15s-25.834 8.5 -42.501 11.5s-33.334 4.5 -50.001 4.5c-14.667 0 -29 -1.33301 -43 -4c-16 -2.66699 -29.333 -7.16699 -40 -13.5
s-18 -13.666 -22 -21.999s-6.5 -14.666 -7.5 -18.999s-1.5 -9.5 -1.5 -15.5c0 -14 4 -25.667 12 -35s17.833 -15.666 29.5 -18.999s21 -5.5 28 -6.5s13.167 -1.5 18.5 -1.5z" />
    <glyph glyph-name="aring" unicode="&#xe5;" horiz-adv-x="501" 
d="M265 481c-25.333 0 -46.667 8.83203 -64 26.499s-26 38.834 -26 63.501s8.66699 45.834 26 63.501s38.5 26.5 63.5 26.5s46.333 -8.83301 64 -26.5s26.5 -38.834 26.5 -63.501c0 -12 -2.5 -23.5 -7.5 -34.5s-11.5 -20.5 -19.5 -28.5s-17.5 -14.5 -28.5 -19.5
s-22.5 -7.5 -34.5 -7.5zM264.999 609.999c-10.667 0 -19.834 -3.83301 -27.501 -11.5s-11.5 -16.834 -11.5 -27.501s3.83301 -19.834 11.5 -27.501s16.834 -11.5 27.501 -11.5s19.834 3.83301 27.501 11.5s11.5 16.834 11.5 27.501s-3.83301 19.834 -11.5 27.501
s-16.834 11.5 -27.501 11.5zM254.999 460.999c54 0.666992 100.165 -17.835 138.498 -55.502s57.5 -83.5 57.5 -137.5v-249c0 -6 -2 -11 -6 -15s-9 -6 -15 -6h-11c-12.667 0 -23.5 4.33301 -32.5 13s-13.5 19.334 -13.5 32.001c0 2 -0.833008 3.33301 -2.5 4
s-3.16699 0.666992 -4.5 0c-44 -34.667 -94 -52 -150 -52c-48.667 0 -88.5 13 -119.5 39s-46.5 59.667 -46.5 101c0 46.667 17.167 83.834 51.5 111.501s80.833 41.5 139.5 41.5c45.333 0 87.333 -8 126 -24c4 -1.33301 6 0 6 4c0 32 -11.333 59.167 -34 81.5
s-50 33.5 -82 33.5c-39.333 0 -72.666 -7.33301 -99.999 -22c-5.33301 -2.66699 -10.833 -3.16699 -16.5 -1.5s-10.167 4.83398 -13.5 9.50098l-18 27c-3.33301 6 -4.16602 12.167 -2.49902 18.5s5.5 11.166 11.5 14.499c39.333 21.333 85 32 137 32zM215.997 72.9971
c30 0 59.5 8.33008 88.5 24.9971s49.167 41.667 60.5 75c0.666992 2 0 3.66699 -2 5c-11.333 8 -28.333 15.167 -51 21.5s-46 9.5 -70 9.5c-14.667 0 -29 -1.33301 -43 -4c-16 -2.66699 -29.333 -7.16699 -40 -13.5s-18 -13.666 -22 -21.999s-6.5 -14.666 -7.5 -18.999
s-1.5 -9.5 -1.5 -15.5c0 -14 4 -25.667 12 -35s17.833 -15.666 29.5 -18.999s21 -5.5 28 -6.5s13.167 -1.5 18.5 -1.5z" />
    <glyph glyph-name="ae" unicode="&#xe6;" horiz-adv-x="873" 
d="M810 313c4.66699 -12 8.99609 -24.666 12.9961 -37.999c1.33301 -4.66699 0.666016 -9.5 -2.00098 -14.5s-6.66699 -8.16699 -12 -9.5l-317 -93c-5.33301 -1.33301 -8.66602 -4.16602 -9.99902 -8.49902s-0.333008 -8.83301 3 -13.5
c13.333 -16 27.666 -28.333 42.999 -37c35.333 -19.333 73 -23.333 113 -12c7.33301 2 14.833 5.33301 22.5 10s14.5 9.5 20.5 14.5s11.667 10 17 15l12 11.5l4 5c3.33301 4.66699 8 7.5 14 8.5s11.667 0.166992 17 -2.5l33 -18c4.66699 -2.66699 7.5 -6.5 8.5 -11.5
s-0.5 -9.5 -4.5 -13.5c-4.66699 -6 -11 -13.333 -19 -22s-22.833 -21.5 -44.5 -38.5s-41.167 -28.167 -58.5 -33.5c-21.333 -6 -42.666 -9 -63.999 -9c-38.667 0 -75 9.33301 -109 28l-23 14c-4.66699 4 -8.5 5.16699 -11.5 3.5s-4.5 -5.16699 -4.5 -10.5v-20
c0 -5.33301 -2 -10 -6 -14s-8.66699 -6 -14 -6h-38c-5.33301 0 -10 2 -14 6s-6 8.66699 -6 14v14c0 5.33301 -1.83301 9 -5.5 11s-7.83398 1.66699 -12.501 -1l-24.5 -13c-10.333 -5.33301 -27.833 -12.333 -52.5 -21s-45.334 -13 -62.001 -13c-48.667 0 -88.5 13 -119.5 39
s-46.5 59.667 -46.5 101c0 46.667 17.167 83.667 51.5 111s80.833 41 139.5 41c6.66699 0 13.667 -0.333008 21 -1s14.5 -1.5 21.5 -2.5s14 -2.33301 21 -4l19 -4.5c5.66699 -1.33301 10.834 -2.66602 15.501 -3.99902s8.33398 -2.33301 11.001 -3l3 -1
c4 -0.666992 7.5 -1.33398 10.5 -2.00098s5.33301 -0.833984 7 -0.500977s2.5 1.16602 2.5 2.49902c0 3.33301 -3 11.333 -9 24c-0.666992 2 -2.16699 5.16699 -4.5 9.5s-7 11.833 -14 22.5s-14.167 20 -21.5 28s-16.666 15.333 -27.999 22s-22.666 10 -33.999 10
c-12 0 -26.667 -2.16699 -44 -6.5s-31.666 -8.5 -42.999 -12.5l-17 -6c-5.33301 -2 -11 -2 -17 0s-10.333 5.33301 -13 10l-20 31c-3.33301 4.66699 -4.16602 9.5 -2.49902 14.5s5.16699 8.5 10.5 10.5c66.667 24.667 115.334 37 146.001 37
c20 0 42.167 -6.16699 66.5 -18.5s43.5 -24.833 57.5 -37.5l21 -19c4 -4 9 -6 15 -6s11 1.66699 15 5c35.333 33.333 68 54.333 98 63c60 18 117.667 11.667 173 -19c34 -18 61.333 -43.333 82 -76c3.33301 -5.33301 6.66602 -11.333 9.99902 -18l8 -16zM351.996 161.001
c4 4.66699 5.5 9.16309 4.5 13.4961s-4.16699 7.83301 -9.5 10.5c-34 16 -69 24 -105 24c-14.667 0 -29 -1.33301 -43 -4c-16 -2.66699 -29.333 -7.16699 -40 -13.5s-18 -13.666 -22 -21.999s-6.5 -14.666 -7.5 -18.999s-1.5 -9.5 -1.5 -15.5c0 -14 4 -25.667 12 -35
s17.833 -15.666 29.5 -18.999s21 -5.5 28 -6.5s13.167 -1.5 18.5 -1.5c15.333 0 34.333 7.33301 57 22s41.667 29.334 57 44.001zM705.996 301.997c2.66699 0.666992 4.83008 1.33105 6.49707 1.99805l5 2c1.66699 0.666992 3 1.33398 4 2.00098s1.83301 1.16699 2.5 1.5
l1 0.5l-1 1c-13.333 21.333 -31.166 38 -53.499 50s-46.166 18 -71.499 18c-14 0 -28 -2 -42 -6c-39.333 -11.333 -69 -35 -89 -71c-3.33301 -6.66699 -6.16602 -13.667 -8.49902 -21s-3.83301 -13.333 -4.5 -18l-1 -7c-2 -13.333 -3 -21.333 -3 -24
c0 -1.33301 0.833008 -2 2.5 -2s4 0.333008 7 1s6.16699 1.33398 9.5 2.00098z" />
    <glyph glyph-name="ccedilla" unicode="&#xe7;" horiz-adv-x="477" 
d="M335 11c-5.33301 -1.33301 -9.33203 -4.33203 -11.999 -8.99902l-22 -34c17.333 -9.33301 30.833 -21.333 40.5 -36s14.5 -31 14.5 -49c0 -17.333 -5.16699 -33.666 -15.5 -48.999s-24.333 -27.5 -42 -36.5s-36.834 -13.5 -57.501 -13.5c-26 0 -49 6.66699 -69 20
c-5.33301 2.66699 -8.16602 7.16699 -8.49902 13.5s1.5 11.5 5.5 15.5l28 30c6.66699 6 14 7.33301 22 4c6.66699 -2.66699 14 -4 22 -4c10.667 0 19.5 2.16699 26.5 6.5s10.5 9 10.5 14s-3.5 9.66699 -10.5 14s-15.833 6.5 -26.5 6.5h-39v51l5 10l11 17
c4 6 4.66699 12.333 2 19s-7.33398 11 -14.001 13c-34 11.333 -64 29.666 -90 54.999c-44 44.667 -66 98.167 -66 160.5s22 115.833 66 160.5c40 39.333 89.667 60.5 149 63.5s110.666 -13.167 153.999 -48.5c4.66699 -4 7.16699 -9.16699 7.5 -15.5
s-1.5 -11.833 -5.5 -16.5l-25 -25c-9.33301 -8.66699 -18.666 -9.33398 -27.999 -2.00098c-28.667 22 -62.167 32 -100.5 30s-70.166 -16 -95.499 -42c-29.333 -28.667 -44 -63.5 -44 -104.5s14.667 -76.167 44 -105.5c25.333 -25.333 57.166 -39 95.499 -41
s71.833 7.66699 100.5 29c9.33301 8 18.333 7.33301 27 -2l26 -25c4 -4 5.83301 -9.33301 5.5 -16s-2.83301 -12 -7.5 -16c-24.667 -19.333 -52.667 -33.333 -84 -42z" />
    <glyph glyph-name="egrave" unicode="&#xe8;" horiz-adv-x="551" 
d="M495 297c2 -5.33301 3.66895 -12.6631 5.00195 -21.9961c2 -10.667 -2.33301 -17.667 -13 -21l-317 -93c-4.66699 -1.33301 -7.83398 -4.5 -9.50098 -9.5s-0.833984 -9.5 2.49902 -13.5c12 -14.667 26.333 -26.667 43 -36c36 -19.333 73.667 -23.333 113 -12
c33.333 10 60 29.333 80 58c6.66699 8.66699 15 10.334 25 5.00098l35 -19c5.33301 -2.66699 8.66602 -6.83398 9.99902 -12.501s0.333008 -10.834 -3 -15.501c-14.667 -22 -32.667 -40.833 -54 -56.5s-45 -27.167 -71 -34.5c-20.667 -6 -42 -9 -64 -9
c-38 0 -74.333 9.33301 -109 28c-41.333 22.667 -72.666 55.667 -93.999 99l-15 36c-17.333 60 -11 117.667 19 173s75 91.666 135 108.999c60 18 117.667 12 173 -18c34 -18.667 61.333 -44.334 82 -77.001c10.667 -16.667 19.667 -36.334 27 -59.001zM149.002 236.003
l255.001 74.999c-13.333 22.667 -31.666 40.334 -54.999 53.001c-22.667 12 -46.334 18 -71.001 18c-14.667 0 -29 -2 -43 -6c-39.333 -11.333 -68.666 -35 -87.999 -71c-9.33301 -16.667 -15.333 -34.334 -18 -53.001c-0.666992 -5.33301 1.16602 -9.66602 5.49902 -12.999
s9.16602 -4.33301 14.499 -3zM225.003 545.002l-40.998 76.999c-6 12 -7.5 18.667 -4.5 20s11.167 2 24.5 2h21c5.33301 0 10.666 -1.83301 15.999 -5.5s9 -8.16699 11 -13.5l27 -78c1.33301 -5.33301 0.666016 -10 -2.00098 -14s-6.66699 -6 -12 -6h-10
c-5.33301 0 -11 1.83301 -17 5.5s-10.333 7.83398 -13 12.501z" />
    <glyph glyph-name="eacute" unicode="&#xe9;" horiz-adv-x="551" 
d="M495 297c2 -5.33301 3.66895 -12.6641 5.00195 -21.9971c2 -10.667 -2.33301 -17.667 -13 -21l-317 -93c-4.66699 -1.33301 -7.83398 -4.5 -9.50098 -9.5s-0.833984 -9.5 2.49902 -13.5c12 -14.667 26.333 -26.667 43 -36c36 -19.333 73.667 -23.333 113 -12
c33.333 10 60 29.333 80 58c6.66699 8.66699 15 10.334 25 5.00098l35 -19c4.66699 -2.66699 7.66699 -6.83398 9 -12.501s0.666016 -10.834 -2.00098 -15.501c-14.667 -22 -32.667 -40.833 -54 -56.5s-45 -27.167 -71 -34.5c-20.667 -6 -42 -9 -64 -9
c-38 0 -74.333 9.33301 -109 28c-41.333 22.667 -72.666 55.667 -93.999 99l-15 36c-17.333 60 -11 117.667 19 173s75 91.666 135 108.999c60 18 117.667 12 173 -18c34 -18.667 61.333 -44.334 82 -77.001c10.667 -16 19.667 -35.667 27 -59zM149.002 236.002
l254.999 74.999c-13.333 22.667 -31.666 40.334 -54.999 53.001c-22.667 12 -46.334 18 -71.001 18c-14.667 0 -29 -2 -43 -6c-39.333 -11.333 -68.666 -35 -87.999 -71c-9.33301 -16.667 -15 -34.334 -17 -53.001c-0.666992 -5.33301 1 -9.66602 5 -12.999
s8.66699 -4.33301 14 -3zM244.001 527.001c-3.33301 0 -6.33105 1.00098 -8.99805 3.00098s-4.33398 4.33301 -5.00098 7s-0.666992 6 0 10l27 78c2 5.33301 5.66699 9.83301 11 13.5s10.666 5.5 15.999 5.5h21c13.333 0 21.5 -0.666992 24.5 -2s1.5 -8 -4.5 -20l-41 -77
c-2.66699 -4.66699 -7 -8.83398 -13 -12.501s-11.667 -5.5 -17 -5.5h-10z" />
    <glyph glyph-name="ecircumflex" unicode="&#xea;" horiz-adv-x="551" 
d="M495 297c2 -6 3.66895 -13.3301 5.00195 -21.9971c2 -10.667 -2.33301 -17.667 -13 -21l-317 -93c-4.66699 -1.33301 -7.83398 -4.5 -9.50098 -9.5s-0.833984 -9.5 2.49902 -13.5c12 -14.667 26.333 -26.667 43 -36c36 -19.333 73.667 -23.333 113 -12
c33.333 10 60 29.333 80 58c6.66699 8.66699 15 10.334 25 5.00098l35 -19c5.33301 -2.66699 8.66602 -6.83398 9.99902 -12.501s0.333008 -10.834 -3 -15.501c-14.667 -22 -32.667 -40.833 -54 -56.5s-45 -27.167 -71 -34.5c-20.667 -6 -42 -9 -64 -9
c-38 0 -74.333 9.33301 -109 28c-41.333 22.667 -72.666 55.667 -93.999 99l-15 36c-17.333 60 -11 117.667 19 173s75 91.666 135 108.999c60 18 117.667 12 173 -18c34 -18.667 61.333 -44.334 82 -77.001c10.667 -16 19.667 -35.667 27 -59zM149.002 236.003
l255.001 74.999c-13.333 22.667 -31.666 40.334 -54.999 53.001c-22.667 12 -46.334 18 -71.001 18c-14.667 0 -29 -2 -43 -6c-39.333 -11.333 -68.666 -35 -87.999 -71c-9.33301 -16.667 -15.333 -34.334 -18 -53.001c-0.666992 -5.33301 1.16602 -9.66602 5.49902 -12.999
s9.16602 -4.33301 14.499 -3zM172.003 522.002c-5.33301 0 -8.83105 1.66699 -10.498 5s-0.833984 7 2.49902 11l87 123c3.33301 4 7.33301 6 12 6s8.66699 -2 12 -6l88 -123c3.33301 -4 4.16602 -7.66699 2.49902 -11s-5.5 -5 -11.5 -5h-22c-13.333 0 -24 5.33301 -32 16
l-25 35c-3.33301 4.66699 -7.33301 7 -12 7s-8.66699 -2.33301 -12 -7l-24 -35c-8 -10.667 -19 -16 -33 -16h-22z" />
    <glyph glyph-name="edieresis" unicode="&#xeb;" horiz-adv-x="551" 
d="M495 297c2 -5.33301 3.66895 -12.6641 5.00195 -21.9971c2 -10.667 -2.33301 -17.667 -13 -21l-317 -93c-4.66699 -1.33301 -7.83398 -4.5 -9.50098 -9.5s-0.833984 -9.5 2.49902 -13.5c12 -14.667 26.333 -26.667 43 -36c36 -19.333 73.667 -23.333 113 -12
c33.333 10 60 29.333 80 58c6.66699 8.66699 15 10.334 25 5.00098l35 -19c4.66699 -2.66699 7.66699 -6.83398 9 -12.501s0.666016 -10.834 -2.00098 -15.501c-14.667 -22 -32.667 -40.833 -54 -56.5s-45 -27.167 -71 -34.5c-20.667 -6 -42 -9 -64 -9
c-38 0 -74.333 9.33301 -109 28c-41.333 22.667 -72.666 55.667 -93.999 99l-15 36c-17.333 60 -11 117.667 19 173s75 91.666 135 108.999c60 18 117.667 12 173 -18c34 -18.667 61.333 -44.334 82 -77.001c10.667 -16 19.667 -35.667 27 -59zM149.002 236.002l255.001 75
c-13.333 22.667 -31.666 40.334 -54.999 53.001c-22.667 12 -46.667 18 -72 18c-14 0 -28 -2 -42 -6c-39.333 -11.333 -69 -35 -89 -71c-8.66699 -16.667 -14.334 -34.334 -17.001 -53.001c0 -3.33301 0.833008 -6.5 2.5 -9.5s4.16699 -5 7.5 -6
s6.66602 -1.16699 9.99902 -0.5zM174.003 536.002c-12.667 0 -23.667 4.66699 -33 14s-14 20.5 -14 33.5s4.66699 24 14 33s20.333 13.5 33 13.5s23.667 -4.5 33 -13.5s14 -20 14 -33s-4.66699 -24.167 -14 -33.5s-20.333 -14 -33 -14zM360.503 536.002
c-13 0 -24.167 4.66699 -33.5 14s-14 20.5 -14 33.5s4.66699 24 14 33s20.5 13.5 33.5 13.5s24 -4.5 33 -13.5s13.5 -20 13.5 -33s-4.5 -24.167 -13.5 -33.5s-20 -14 -33 -14z" />
    <glyph glyph-name="igrave" unicode="&#xec;" horiz-adv-x="228" 
d="M136 527l-9 -0.000976562c-4 0 -8 0.833008 -12 2.5s-7.66699 3.83398 -11 6.50098s-5.66602 5.66699 -6.99902 9l-41 77c-6 12 -7.66699 18.667 -5 20s11 2 25 2h20c6 0 11.667 -1.83301 17 -5.5s8.66602 -8.16699 9.99902 -13.5l27 -78c2 -5.33301 1.66699 -10 -1 -14
s-7 -6 -13 -6zM157 467.999c6 0 11 -2 15 -6s6 -8.66699 6 -14v-430c0 -5.33301 -2 -10 -6 -14s-9 -6 -15 -6h-37c-6 0 -10.833 2 -14.5 6s-5.5 8.66699 -5.5 14v430c0 5.33301 1.83301 10 5.5 14s8.5 6 14.5 6h37z" />
    <glyph glyph-name="iacute" unicode="&#xed;" horiz-adv-x="231" 
d="M108 468c5.33301 0 10 -2 14 -6s6 -8.66699 6 -14v-430c0 -5.33301 -2 -10 -6 -14s-8.66699 -6 -14 -6h-38c-5.33301 0 -10 2 -14 6s-6 8.66699 -6 14v430c0 5.33301 2 10 6 14s8.66699 6 14 6h38zM179 641c4.66699 -2 3.66699 -8.99902 -3 -20.999l-41 -75
c-2.66699 -4.66699 -7 -8.83398 -13 -12.501s-11.667 -5.5 -17 -5.5h-17c-5.33301 0 -9.5 2 -12.5 6s-3.5 8.66699 -1.5 14l25 78c1.33301 3.33301 3.5 6.5 6.5 9.5s6.33301 5.33301 10 7s7.16699 2.5 10.5 2.5h26c13.333 0 22.333 -1 27 -3zM111 504.001h1
c0 -0.666992 -0.333008 -0.666992 -1 0z" />
    <glyph glyph-name="icircumflex" unicode="&#xee;" horiz-adv-x="305" 
d="M252 538c3.33301 -4 4.16797 -7.66699 2.50098 -11s-5.5 -5 -11.5 -5h-22c-13.333 0 -24 5.33301 -32 16l-25 35c-3.33301 4.66699 -7.16602 7 -11.499 7s-8.16602 -2.33301 -11.499 -7l-25 -35c-8 -10.667 -18.667 -16 -32 -16h-22c-6 0 -9.83301 1.66699 -11.5 5
s-0.833984 7 2.49902 11l88 123c3.33301 4 7.16602 6 11.499 6s8.16602 -2 11.499 -6zM171.002 468c6 0 11 -2 15 -6s6 -8.66699 6 -14v-430c0 -5.33301 -2 -10 -6 -14s-9 -6 -15 -6h-37c-6 0 -11 2 -15 6s-6 8.66699 -6 14v430c0 5.33301 2 10 6 14s9 6 15 6h37z" />
    <glyph glyph-name="idieresis" unicode="&#xef;" horiz-adv-x="380" 
d="M209 468c5.33301 0 10 -2 14 -6s6 -8.66699 6 -14v-430c0 -5.33301 -2 -10 -6 -14s-8.66699 -6 -14 -6h-38c-5.33301 0 -10 2 -14 6s-6 8.66699 -6 14v430c0 5.33301 2 10 6 14s8.66699 6 14 6h38zM97 630c6.66699 0 12.834 -1.16699 18.501 -3.5
s10.667 -5.66602 15 -9.99902s7.66602 -9.33301 9.99902 -15s3.5 -11.834 3.5 -18.501c0 -12.667 -4.66699 -23.5 -14 -32.5s-20.333 -13.5 -33 -13.5s-23.667 4.5 -33 13.5s-14 19.833 -14 32.5c0 8.66699 2.16699 16.667 6.5 24s10 13 17 17s14.833 6 23.5 6zM283 630
c8.66699 0 16.667 -2.00195 24 -6.00195s13 -9.66699 17 -17s6 -15.166 6 -23.499s-2 -16.166 -6 -23.499s-9.66699 -13 -17 -17s-15.333 -6 -24 -6c-12.667 0 -23.667 4.5 -33 13.5s-14 19.833 -14 32.5c0 8.66699 2.16699 16.667 6.5 24s10 13 17 17s14.833 6 23.5 6z" />
    <glyph glyph-name="eth" unicode="&#xf0;" 
d="M503 229c0 -0.666992 -0.163086 -1.83398 -0.496094 -3.50098s-0.5 -3.33398 -0.5 -5.00098v-3.5v-2.5v-2.5h-1c-4.66699 -61.333 -30 -112.333 -76 -153s-100 -59.334 -162 -56.001c-56.667 3.33301 -105.667 25.833 -147 67.5s-63.333 91.167 -66 148.5
c-2.66699 64.667 18.333 120.334 63 167.001s99 70 163 70c30.667 0 60 -6 88 -18c-22 39.333 -49.667 75 -83 107c-8 7.33301 -16.333 7.66602 -25 0.999023l-72 -54c-4.66699 -3.33301 -9.66699 -4.66602 -15 -3.99902s-9.66602 3.33398 -12.999 8.00098l-23 31
c-3.33301 4.66699 -4.66602 9.66699 -3.99902 15s3.33398 9.33301 8.00098 12l43 33c5.33301 4 7.83301 9.5 7.5 16.5s-3.83301 12.167 -10.5 15.5c-24.667 14 -49 25 -73 33l-9 2c-4.66699 2 -8.33398 5.33301 -11.001 10s-3 9.66699 -1 15l12 37
c2 5.33301 5.33301 9.16602 10 11.499s9.66699 2.83301 15 1.5l9 -3c44.667 -14.667 88 -35.667 130 -63c7.33301 -5.33301 14.666 -5.33301 21.999 0l51 39c4.66699 2.66699 9.66699 3.66699 15 3s9.66602 -3 12.999 -7l23 -32c3.33301 -4 4.66602 -8.66699 3.99902 -14
s-3.33398 -9.66602 -8.00098 -12.999l-28 -22c-4.66699 -3.33301 -7.33398 -8 -8.00098 -14s1.33301 -11 6 -15c83.333 -85.333 132.666 -187.666 147.999 -306.999c4 -18.667 6 -36 6 -52zM276.004 81c38.667 0 72 13.167 100 39.5s43.667 58.5 47 96.5
c0 12 -1.33301 28.667 -4 50c-8 32 -25.333 58.5 -52 79.5s-57 31.5 -91 31.5c-40.667 0 -75.5 -14.5 -104.5 -43.5s-43.5 -64 -43.5 -105s14.5 -76 43.5 -105s63.833 -43.5 104.5 -43.5z" />
    <glyph glyph-name="ntilde" unicode="&#xf1;" horiz-adv-x="487" 
d="M116 554l-12 9c-4.66699 3.33301 -7.16699 7.66602 -7.5 12.999s1.16699 10 4.5 14c23.333 24.667 49 38.667 77 42s54.667 -4.66699 80 -24l7 -6c26.667 -20.667 54.334 -18 83.001 8c8 7.33301 16 8 24 2l12 -10c4 -3.33301 6.16699 -7.66602 6.5 -12.999
s-1.5 -10 -5.5 -14c-25.333 -25.333 -53 -38 -83 -38c-24 0 -46.667 8.33301 -68 25c-3.33301 2 -6.33301 4.33301 -9 7c-11.333 9.33301 -23.333 14 -36 14c-16.667 0 -33.334 -9 -50.001 -27c-7.33301 -8 -15 -8.66699 -23 -2zM254 461
c52 -2.66699 95.502 -23.6641 130.502 -62.9971s52.5 -85.333 52.5 -138v-244c0 -4.66699 -1.83301 -8.83398 -5.5 -12.501s-7.83398 -5.5 -12.501 -5.5h-41c-5.33301 0 -9.83301 1.83301 -13.5 5.5s-5.5 7.83398 -5.5 12.501v247c0 30 -9.66699 56.667 -29 80
s-43.333 36.666 -72 39.999c-22.667 2.66699 -44.167 -0.833008 -64.5 -10.5s-36.333 -23.834 -48 -42.501s-17.5 -39.334 -17.5 -62.001v-252c0 -4.66699 -1.83301 -8.83398 -5.5 -12.501s-8.16699 -5.5 -13.5 -5.5h-40c-5.33301 0 -9.83301 1.83301 -13.5 5.5
s-5.5 7.83398 -5.5 12.501v434c0 4.66699 1.83301 8.83398 5.5 12.501s8.16699 5.5 13.5 5.5h40c5.33301 0 9.83301 -1.83301 13.5 -5.5s5.5 -7.83398 5.5 -12.501v-25c0 -1.33301 0.666992 -1.66602 2 -0.999023c37.333 27.333 78.666 39.666 123.999 36.999z" />
    <glyph glyph-name="ograve" unicode="&#xf2;" 
d="M265 545l-40.998 76.999c-6 12 -7.5 18.667 -4.5 20s11.167 2 24.5 2h21c3.33301 0 6.83301 -0.833008 10.5 -2.5s7 -4 10 -7s5.16699 -6.16699 6.5 -9.5l26 -78c1.33301 -4 1.66602 -7.33301 0.999023 -10s-2.33398 -5 -5.00098 -7s-5.66699 -3 -9 -3h-10
c-5.33301 0 -11 1.83301 -17 5.5s-10.333 7.83398 -13 12.501zM276.502 455.999c62.333 0 115.666 -22.167 159.999 -66.5s66.5 -97.666 66.5 -159.999s-22.167 -115.666 -66.5 -159.999s-97.666 -66.5 -159.999 -66.5s-115.666 22.167 -159.999 66.5
s-66.5 97.666 -66.5 159.999s22.167 115.666 66.5 159.999s97.666 66.5 159.999 66.5zM276.002 80.999c20.667 0 40 4 58 12s33.667 18.5 47 31.5s24 28.667 32 47s12 37.5 12 57.5c0 41.333 -14.5 76.5 -43.5 105.5s-64 43.5 -105 43.5s-76 -14.5 -105 -43.5
s-43.5 -64 -43.5 -105s14.5 -76 43.5 -105s63.833 -43.5 104.5 -43.5z" />
    <glyph glyph-name="oacute" unicode="&#xf3;" 
d="M248 527c-3.33301 0 -6.33008 1.00098 -8.99707 3.00098s-4.33398 4.33301 -5.00098 7s-0.333984 6 0.999023 10l26 78c2 5.33301 5.66699 9.83301 11 13.5s10.666 5.5 15.999 5.5h21c13.333 0 21.5 -0.666992 24.5 -2s1.5 -8 -4.5 -20l-41 -77
c-2.66699 -4.66699 -7 -8.83398 -13 -12.501s-11.667 -5.5 -17 -5.5h-10zM276.503 456.001c62.333 0 115.669 -22.1699 160.002 -66.5029s66.5 -97.666 66.5 -159.999s-22.167 -115.666 -66.5 -159.999s-97.833 -66.5 -160.5 -66.5c-40.667 0 -78.334 10.167 -113.001 30.5
s-62.167 47.833 -82.5 82.5s-30.5 72.334 -30.5 113.001c0 62.667 22.167 116.167 66.5 160.5s97.666 66.5 159.999 66.5zM276.506 80.998c41 0 76 14.5 105 43.5s43.5 64 43.5 105s-14.5 76 -43.5 105s-64 43.5 -105 43.5s-76 -14.5 -105 -43.5s-43.5 -64 -43.5 -105
s14.5 -76 43.5 -105s64 -43.5 105 -43.5z" />
    <glyph glyph-name="ocircumflex" unicode="&#xf4;" 
d="M276.5 456c62.333 0 115.666 -22.167 159.999 -66.5s66.5 -97.666 66.5 -159.999s-22.167 -115.666 -66.5 -159.999s-97.666 -66.5 -159.999 -66.5s-115.666 22.167 -159.999 66.5s-66.5 97.666 -66.5 159.999s22.167 115.666 66.5 159.999s97.666 66.5 159.999 66.5z
M277 81c20 0 39.167 4 57.5 12s34 18.5 47 31.5s23.5 28.667 31.5 47s12 37.5 12 57.5c0 41.333 -14.5 76.5 -43.5 105.5s-64 43.5 -105 43.5s-76 -14.5 -105 -43.5s-43.5 -64 -43.5 -105s14.5 -76 43.5 -105s64.167 -43.5 105.5 -43.5zM185 522
c-5.33301 0 -8.83203 1.66699 -10.499 5s-0.833984 7 2.49902 11l87 123c3.33301 4 7.33301 6 12 6s8.66699 -2 12 -6l88 -123c2.66699 -4 3.16699 -7.66699 1.5 -11s-5.16699 -5 -10.5 -5h-22c-13.333 0 -24 5.33301 -32 16l-25 35c-3.33301 4.66699 -7.33301 7 -12 7
s-8.66699 -2.33301 -12 -7l-24 -35c-8 -10.667 -19 -16 -33 -16h-22z" />
    <glyph glyph-name="otilde" unicode="&#xf5;" 
d="M147 554l-10.002 7.99902c-4 3.33301 -6.33301 7.83301 -7 13.5s1 10.834 5 15.501c23.333 24.667 48.833 38.5 76.5 41.5s53.834 -5.16699 78.501 -24.5l8 -6c26 -20.667 53.333 -18 82 8c8 7.33301 16.667 7.33301 26 0l9 -7c4.66699 -4 7.16699 -8.83301 7.5 -14.5
s-1.5 -10.5 -5.5 -14.5c-25.333 -24.667 -52.666 -37 -81.999 -37c-24 0 -46.667 8.33301 -68 25c-3.33301 2 -6.33301 4.33301 -9 7c-11.333 8.66699 -23.333 13 -36 13c-16.667 0 -33 -8.33301 -49 -25c-8 -8.66699 -16.667 -9.66699 -26 -3zM275.998 455.999
c41.333 0 79.334 -10.168 114.001 -30.501s62.167 -47.833 82.5 -82.5s30.5 -72.667 30.5 -114c0 -62 -22.167 -115.167 -66.5 -159.5s-97.833 -66.5 -160.5 -66.5c-40.667 0 -78.334 10.167 -113.001 30.5s-62.167 47.833 -82.5 82.5s-30.5 72.334 -30.5 113.001
c0 62.667 22.167 116.167 66.5 160.5s97.5 66.5 159.5 66.5zM275.999 80.998c20.667 0 40 4 58 12s33.667 18.5 47 31.5s24 28.667 32 47s12 37.5 12 57.5c0 41.333 -14.5 76.5 -43.5 105.5s-64 43.5 -105 43.5s-76 -14.5 -105 -43.5s-43.5 -64 -43.5 -105
s14.5 -76 43.5 -105s63.833 -43.5 104.5 -43.5z" />
    <glyph glyph-name="odieresis" unicode="&#xf6;" 
d="M276.5 456c62.333 0 115.666 -22.167 159.999 -66.5s66.5 -97.666 66.5 -159.999s-22.167 -115.666 -66.5 -159.999s-97.666 -66.5 -159.999 -66.5s-115.666 22.167 -159.999 66.5s-66.5 97.666 -66.5 159.999s22.167 115.666 66.5 159.999s97.666 66.5 159.999 66.5z
M277 81c20 0 39.167 4 57.5 12s34 18.5 47 31.5s23.5 28.667 31.5 47s12 37.5 12 57.5c0 41.333 -14.5 76.5 -43.5 105.5s-64 43.5 -105 43.5s-76 -14.5 -105 -43.5s-43.5 -64 -43.5 -105s14.5 -76 43.5 -105s64.167 -43.5 105.5 -43.5zM369.5 536
c-8.33301 0 -16.1689 2.16699 -23.502 6.5s-13 10.166 -17 17.499s-6 15 -6 23c0 13.333 4.5 24.5 13.5 33.5s20 13.5 33 13.5s24.167 -4.5 33.5 -13.5s14 -20.167 14 -33.5c0 -8 -2.16699 -15.667 -6.5 -23s-10.166 -13.166 -17.499 -17.499s-15.166 -6.5 -23.499 -6.5z
M182.997 536c-6 0 -11.835 1.33301 -17.502 4s-10.667 6.16699 -15 10.5s-7.66602 9.33301 -9.99902 15s-3.5 11.5 -3.5 17.5c0 13.333 4.5 24.5 13.5 33.5s20 13.5 33 13.5s24.167 -4.5 33.5 -13.5s14 -20 14 -33s-4.66699 -24.167 -14 -33.5s-20.666 -14 -33.999 -14z" />
    <glyph glyph-name="divide" unicode="&#xf7;" horiz-adv-x="513" 
d="M257 232c12.667 0 23.668 -4.66797 33.001 -14.001s14 -20.333 14 -33c0 -4 -0.666992 -8.16699 -2 -12.5s-3 -8.16602 -5 -11.499s-4.33301 -6.5 -7 -9.5s-5.83398 -5.5 -9.50098 -7.5s-7.5 -3.5 -11.5 -4.5s-8 -1.5 -12 -1.5c-13.333 0 -24.5 4.66699 -33.5 14
s-13.5 20.333 -13.5 33c0 8.66699 2 16.5 6 23.5s9.66699 12.667 17 17s15.333 6.5 24 6.5zM256.501 463.999c-13 0 -24 4.66699 -33 14s-13.5 20.333 -13.5 33s4.5 23.667 13.5 33s20 14 33 14s24.167 -4.66699 33.5 -14s14 -20.333 14 -33s-4.66699 -23.667 -14 -33
s-20.5 -14 -33.5 -14zM443.001 386.999c5.33301 0 10 -2 14 -6s6 -8.66699 6 -14v-38c0 -5.33301 -2 -10 -6 -14s-8.66699 -6 -14 -6h-373c-5.33301 0 -10 2 -14 6s-6 8.66699 -6 14v38c0 5.33301 2 10 6 14s8.66699 6 14 6h373z" />
    <glyph glyph-name="oslash" unicode="&#xf8;" 
d="M276.5 456c62.333 0 115.669 -22.1699 160.002 -66.5029s66.5 -97.666 66.5 -159.999s-22.167 -115.666 -66.5 -159.999s-97.833 -66.5 -160.5 -66.5c-40.667 0 -78.334 10.167 -113.001 30.5s-62.167 47.833 -82.5 82.5s-30.5 72.334 -30.5 113.001
c0 62.667 22.167 116.167 66.5 160.5s97.666 66.5 159.999 66.5zM140.003 175.997c2 -4.66699 5.16699 -7.5 9.5 -8.5s8.5 0.5 12.5 4.5l174 171c4 4 5.66699 8.16699 5 12.5s-3.66699 7.5 -9 9.5c-18.667 8.66699 -37 13 -55 13c-41.333 0 -76.5 -14.5 -105.5 -43.5
s-43.5 -64.167 -43.5 -105.5c0 -7.33301 1 -15.5 3 -24.5s4 -15.833 6 -20.5zM276.003 80.9971c41.333 0 76.5 14.502 105.5 43.502s43.5 63.833 43.5 104.5c0 5.33301 -0.5 10.666 -1.5 15.999s-2 10.166 -3 14.499s-2 8.33301 -3 12s-1.83301 6.5 -2.5 8.5l-2 2
c-2 5.33301 -5.16699 8.5 -9.5 9.5s-8.5 -0.5 -12.5 -4.5l-174 -171c-4 -4 -5.66699 -8.16699 -5 -12.5s3.66699 -7.5 9 -9.5c18.667 -8.66699 37 -13 55 -13z" />
    <glyph glyph-name="ugrave" unicode="&#xf9;" horiz-adv-x="487" 
d="M419 463c3.33301 0 6.33105 -0.833984 8.99805 -2.50098s4.83398 -4 6.50098 -7s2.5 -6.16699 2.5 -9.5v-432c0 -4 -1.5 -7.66699 -4.5 -11s-6.83301 -5 -11.5 -5h-46c-4 0 -7.66699 1.66699 -11 5s-5 7 -5 11c0 6.66699 -2.66699 11.5 -8 14.5
s-10.666 2.83301 -15.999 -0.5c-37.333 -20 -77 -27 -119 -21c-48 6.66699 -87.667 29.167 -119 67.5s-47 81.833 -47 130.5v245c0 5.33301 1.83301 9.83301 5.5 13.5s8.16699 5.5 13.5 5.5h40c5.33301 0 9.83301 -1.83301 13.5 -5.5s5.5 -8.16699 5.5 -13.5v-251
c0 -34.667 13 -63.667 39 -87s56.667 -32.666 92 -27.999c28.667 4 52.5 17.333 71.5 40s28.5 48.667 28.5 78v244c0 5.33301 1.83301 9.83301 5.5 13.5s8.16699 5.5 13.5 5.5h41zM231.998 544.999l-39.998 76.999c-6.66699 12 -8.5 18.667 -5.5 20s11.167 2 24.5 2h21
c5.33301 0 10.666 -1.83301 15.999 -5.5s9 -8.16699 11 -13.5l27 -78c1.33301 -5.33301 0.666016 -10 -2.00098 -14s-6.66699 -6 -12 -6h-10c-5.33301 0 -11 1.83301 -17 5.5s-10.333 7.83398 -13 12.501z" />
    <glyph glyph-name="uacute" unicode="&#xfa;" horiz-adv-x="487" 
d="M419 463c3.33301 0 6.3291 -0.833984 8.99609 -2.50098s4.83398 -4 6.50098 -7s2.5 -6.16699 2.5 -9.5v-432c0 -2.66699 -0.666992 -5.16699 -2 -7.5s-3.16602 -4.33301 -5.49902 -6s-5.16602 -2.5 -8.49902 -2.5h-46c-4 0 -7.66699 1.66699 -11 5s-5 7 -5 11
c0 6.66699 -2.66699 11.5 -8 14.5s-10.666 2.83301 -15.999 -0.5c-37.333 -20 -77 -27 -119 -21c-48 6.66699 -87.667 29 -119 67s-47 81.667 -47 131v245c0 5.33301 1.83301 9.83301 5.5 13.5s8.16699 5.5 13.5 5.5h40c5.33301 0 9.83301 -1.83301 13.5 -5.5
s5.5 -8.16699 5.5 -13.5v-251c0 -34.667 13 -63.667 39 -87s56.667 -32.666 92 -27.999c28.667 4 52.5 17.333 71.5 40s28.5 48.667 28.5 78v244c0 5.33301 1.83301 9.83301 5.5 13.5s8.16699 5.5 13.5 5.5h41zM215.996 526.999c-6 0 -10.333 2 -13 6s-3 8.66699 -1 14
l27 78c1.33301 5.33301 4.66602 9.83301 9.99902 13.5s11 5.5 17 5.5h20c14 0 22.333 -0.666992 25 -2s1 -8 -5 -20l-41 -77c-1.33301 -2.66699 -3.66602 -5.5 -6.99902 -8.5s-7 -5.33301 -11 -7s-8 -2.5 -12 -2.5h-9z" />
    <glyph glyph-name="ucircumflex" unicode="&#xfb;" horiz-adv-x="487" 
d="M419 463c4.66699 0 8.83203 -1.83398 12.499 -5.50098s5.5 -8.16699 5.5 -13.5v-432c0 -4 -1.5 -7.66699 -4.5 -11s-6.83301 -5 -11.5 -5h-46c-4 0 -7.66699 1.66699 -11 5s-5 7 -5 11c0 6.66699 -2.66699 11.5 -8 14.5s-10.666 2.83301 -15.999 -0.5
c-37.333 -20 -77 -27 -119 -21c-48 6.66699 -87.667 29 -119 67s-47 81.667 -47 131v245c0 5.33301 1.83301 9.83301 5.5 13.5s8.16699 5.5 13.5 5.5h40c5.33301 0 9.83301 -1.83301 13.5 -5.5s5.5 -8.16699 5.5 -13.5v-251c0 -34.667 13 -63.667 39 -87
s56.667 -32.666 92 -27.999c28.667 4 52.5 17.333 71.5 40s28.5 48.667 28.5 78v244c0 5.33301 1.83301 9.83301 5.5 13.5s8.16699 5.5 13.5 5.5h41zM152.998 521.999c-5.33301 0 -8.83105 1.66699 -10.498 5s-1.16699 7 1.5 11l88 123c3.33301 4 7.33301 6 12 6
s8.66699 -2 12 -6l87 -123c3.33301 -4 4.16602 -7.66699 2.49902 -11s-5.16699 -5 -10.5 -5h-22c-14 0 -25 5.33301 -33 16l-24 35c-2.66699 2.66699 -5.33398 4.66699 -8.00098 6s-5.5 1.33301 -8.5 0s-5.5 -3.33301 -7.5 -6l-25 -35c-8 -10.667 -18.667 -16 -32 -16h-22z
" />
    <glyph glyph-name="udieresis" unicode="&#xfc;" horiz-adv-x="487" 
d="M419 463c3.33301 0 6.3291 -0.833984 8.99609 -2.50098s4.83398 -4 6.50098 -7s2.5 -6.16699 2.5 -9.5v-432c0 -2.66699 -0.666992 -5.16699 -2 -7.5s-3.16602 -4.33301 -5.49902 -6s-5.16602 -2.5 -8.49902 -2.5h-46c-4 0 -7.66699 1.66699 -11 5s-5 7 -5 11
c0 6.66699 -2.66699 11.5 -8 14.5s-10.666 2.83301 -15.999 -0.5c-37.333 -20 -77 -27 -119 -21c-48 6.66699 -87.667 29 -119 67s-47 81.667 -47 131v245c0 5.33301 1.83301 9.83301 5.5 13.5s8.16699 5.5 13.5 5.5h40c5.33301 0 9.83301 -1.83301 13.5 -5.5
s5.5 -8.16699 5.5 -13.5v-251c0 -34.667 13.167 -63.667 39.5 -87s56.833 -32.666 91.5 -27.999c28.667 4 52.5 17.333 71.5 40s28.5 48.667 28.5 78v244c0 5.33301 1.83301 9.83301 5.5 13.5s8.16699 5.5 13.5 5.5h41zM336.996 535.999c-12.667 0 -23.667 4.66699 -33 14
s-14 20.5 -14 33.5s4.66699 24 14 33s20.333 13.5 33 13.5s23.667 -4.5 33 -13.5s14 -20 14 -33s-4.66699 -24.167 -14 -33.5s-20.333 -14 -33 -14zM150.496 535.999c-13 0 -24 4.66699 -33 14s-13.5 20.5 -13.5 33.5s4.5 24 13.5 33s20 13.5 33 13.5
s24.167 -4.5 33.5 -13.5s14 -20 14 -33s-4.66699 -24.167 -14 -33.5s-20.5 -14 -33.5 -14z" />
    <glyph glyph-name="yacute" unicode="&#xfd;" horiz-adv-x="542" 
d="M244 526c-6 0 -10.333 1.83203 -13 5.49902s-3 8.16699 -1 13.5l26 78c1.33301 4 3.5 7.33301 6.5 10s6.33301 5 10 7s7.16699 3 10.5 3h25c14 0 21.667 -0.333008 23 -1c2 -1.33301 -0.333008 -8 -7 -20l-41 -78c-2.66699 -5.33301 -7 -9.66602 -13 -12.999
s-11.667 -5 -17 -5h-9zM478 466.999c6 0 10.002 -1.83301 12.002 -5.5s2 -7.83398 0 -12.501l-306 -631l-9 -18c-2.66699 -4.66699 -5.33398 -10 -8.00098 -16c-2 -4.66699 -5.83301 -8.66699 -11.5 -12s-11.167 -5 -16.5 -5h-46c-6 0 -10 1.83301 -12 5.5
s-2 8.16699 0 13.5l139 285c6 12.667 6 25 0 37l-168 341c-2.66699 4.66699 -2.83398 8.83398 -0.500977 12.501s6.16602 5.5 11.499 5.5h47c5.33301 0 10.833 -1.83301 16.5 -5.5s9.83398 -7.83398 12.501 -12.501l124 -252c2.66699 -4.66699 5.66699 -7 9 -7
s6.33301 2.33301 9 7l122 252c2 4.66699 6 8.83398 12 12.501s11.667 5.5 17 5.5h46z" />
    <glyph glyph-name="thorn" unicode="&#xfe;" 
d="M276 456c42 0 80.668 -10.499 116.001 -31.499s63 -49.5 83 -85.5s29.333 -75 28 -117c-2 -58 -24 -108.333 -66 -151s-92 -65.334 -150 -68.001c-59.333 -2.66699 -112.333 16.333 -159 57v-273c0 -5.33301 -1.83301 -10 -5.5 -14s-8.16699 -6 -13.5 -6h-39
c-6 0 -10.833 2 -14.5 6s-5.5 8.66699 -5.5 14v891c0 5.33301 1.83301 10 5.5 14s8.5 6 14.5 6h39c5.33301 0 9.83301 -2 13.5 -6s5.5 -8.66699 5.5 -14v-279c43.333 38 92.666 57 147.999 57zM276.501 81.001c41 0 76 14.5 105 43.5s43.5 64 43.5 105s-14.5 76 -43.5 105
s-64 43.5 -105 43.5s-76 -14.5 -105 -43.5s-43.5 -64 -43.5 -105s14.5 -76 43.5 -105s64 -43.5 105 -43.5z" />
    <glyph glyph-name="ydieresis" unicode="&#xff;" horiz-adv-x="541" 
d="M179.5 536c-13 0 -24.167 4.66699 -33.5 14s-14 20.5 -14 33.5s4.66699 24 14 33s20.5 13.5 33.5 13.5s24 -4.5 33 -13.5s13.5 -20 13.5 -33s-4.5 -24.167 -13.5 -33.5s-20 -14 -33 -14zM365 536c-8 0 -15.665 2.16992 -22.998 6.50293s-13.166 10.166 -17.499 17.499
s-6.5 15.166 -6.5 23.499s2.16699 16.166 6.5 23.499s10.166 13 17.499 17s15.166 6 23.499 6s16.166 -2 23.499 -6s13 -9.66699 17 -17s6 -15.333 6 -24c0 -12.667 -4.5 -23.667 -13.5 -33s-20.167 -14 -33.5 -14zM478.002 467.003c6 0 10.001 -1.83203 12.001 -5.49902
s2 -7.83398 0 -12.501l-322 -663c-2.66699 -5.33301 -6.83398 -9.83301 -12.501 -13.5s-11.167 -5.5 -16.5 -5.5h-46c-6 0 -10.167 1.83301 -12.5 5.5s-2.16602 8.16699 0.500977 13.5l15 30l9 18l9 18l106 219c6 12.667 6 25 0 37l-168 341
c-2.66699 4.66699 -2.83398 8.83398 -0.500977 12.501s6.16602 5.5 11.499 5.5h47c5.33301 0 10.833 -1.83301 16.5 -5.5s9.83398 -7.83398 12.501 -12.501l124 -252c2.66699 -4.66699 5.66699 -7 9 -7s6.33301 2.33301 9 7l122 252l9 18h66z" />
    <glyph glyph-name="dotlessi" unicode="&#x131;" horiz-adv-x="178" 
d="M108 468c5.33301 0 10 -2 14 -6s6 -8.66699 6 -14v-430c0 -5.33301 -2 -10 -6 -14s-8.66699 -6 -14 -6h-38c-5.33301 0 -10 2 -14 6s-6 8.66699 -6 14v430c0 5.33301 2 10 6 14s8.66699 6 14 6h38z" />
    <glyph glyph-name="Lslash" unicode="&#x141;" horiz-adv-x="548" 
d="M477 81c4 0 7.5 -0.833008 10.5 -2.5s5.5 -4.16699 7.5 -7.5s3 -6.66602 3 -9.99902v-38c0 -5.33301 -2 -10 -6 -14s-9 -6 -15 -6h-338c-5.33301 0 -10 2 -14 6s-6 8.66699 -6 14v262c0 6 -1.83301 10.167 -5.5 12.5s-8.16699 2.16602 -13.5 -0.500977l-32 -15
c-4.66699 -2.66699 -8.83398 -2.83398 -12.501 -0.500977s-5.5 6.5 -5.5 12.5v15c0 6 1.83301 11.833 5.5 17.5s7.83398 9.83398 12.501 12.501l32 15c5.33301 2 9.83301 5.83301 13.5 11.5s5.5 11.5 5.5 17.5v295c0 6 2 11 6 15s8.66699 6 14 6h37c6 0 11 -2 15 -6
s6 -9 6 -15v-258c0 -5.33301 1.83301 -9.16602 5.5 -11.499s7.83398 -2.5 12.501 -0.5l36 18c5.33301 2 9.83301 1.83301 13.5 -0.5s5.5 -6.16602 5.5 -11.499v-16c0 -5.33301 -1.83301 -10.833 -5.5 -16.5s-8.16699 -9.83398 -13.5 -12.501l-36 -17
c-4.66699 -2.66699 -8.83398 -6.83398 -12.501 -12.501s-5.5 -11.167 -5.5 -16.5v-221c0 -6 2 -11 6 -15s8.66699 -6 14 -6h260z" />
    <glyph glyph-name="lslash" unicode="&#x142;" horiz-adv-x="330" 
d="M278 386c2 -5.33301 2.16797 -10.6641 0.500977 -15.9971s-5.16699 -9.33301 -10.5 -12l-46 -22c-4.66699 -2 -8.83398 -5.83301 -12.501 -11.5s-5.5 -11.5 -5.5 -17.5v-289c0 -5.33301 -2 -10 -6 -14s-9 -6 -15 -6h-37c-5.33301 0 -10 2 -14 6s-6 8.66699 -6 14v252
c0 5.33301 -1.83301 9.16602 -5.5 11.499s-8.16699 2.16602 -13.5 -0.500977l-12 -5c-4.66699 -2.66699 -9.66699 -3.16699 -15 -1.5s-9.33301 5.16699 -12 10.5l-16 34c-2.66699 4.66699 -3 9.66699 -1 15s5.66699 9.33301 11 12l45 22
c3.33301 1.33301 6.5 3.66602 9.5 6.99902s5.33301 7 7 11s2.5 7.66699 2.5 11v316c0 6 2 11 6 15s8.66699 6 14 6h38c5.33301 0 10 -2 14 -6s6 -9 6 -15v-278c0 -6 1.83301 -10 5.5 -12s7.83398 -2 12.501 0l12 6c5.33301 2.66699 10.666 3 15.999 1s9 -5.66699 11 -11z
" />
    <glyph glyph-name="OE" unicode="&#x152;" horiz-adv-x="1091" 
d="M761 615c-3.33301 0 -6.16895 -0.666016 -8.50195 -1.99902s-4.5 -2.83301 -6.5 -4.5s-3.5 -3.83398 -4.5 -6.50098s-1.5 -5.33398 -1.5 -8.00098v-232c0 -6 2 -11 6 -15s9 -6 15 -6h143c6 0 11 -2 15 -6s6 -8.66699 6 -14v-38c0 -5.33301 -2 -10 -6 -14s-9 -6 -15 -6
h-143c-6 0 -11 -2 -15 -6s-6 -9 -6 -15v-140c0 -6 2 -11 6 -15s9 -6 15 -6h259c6 0 11 -2 15 -6s6 -8.66699 6 -14v-38c0 -5.33301 -2 -10 -6 -14s-9 -6 -15 -6h-338c-5.33301 0 -10 2 -14 6s-6 8.66699 -6 14v109c-32.667 -40 -72.167 -71.5 -118.5 -94.5
s-95.833 -34.5 -148.5 -34.5c-50 0 -97.5 10.333 -142.5 31s-83 48.167 -114 82.5s-54.5 75.333 -70.5 123s-21.333 96.834 -16 147.501c8.66699 78.667 41.667 146.667 99 204s125.333 90.666 204 99.999c60.667 6.66699 117.834 -1.5 171.501 -24.5
s98.834 -57.167 135.501 -102.5v108c0 6 2 11 6 15s8.66699 6 14 6h338c6 0 11 -2 15 -6s6 -9 6 -15v-37c0 -3.33301 -1 -6.66602 -3 -9.99902s-4.5 -5.83301 -7.5 -7.5s-6.5 -2.5 -10.5 -2.5h-259zM394.997 81.001c73.333 0 136.166 26.167 188.499 78.5
s78.5 115.166 78.5 188.499s-26.167 136.166 -78.5 188.499s-115.166 78.5 -188.499 78.5s-136.166 -26.167 -188.499 -78.5s-78.5 -115.166 -78.5 -188.499s26.167 -136.166 78.5 -188.499s115.166 -78.5 188.499 -78.5z" />
    <glyph glyph-name="oe" unicode="&#x153;" horiz-adv-x="926" 
d="M863 313l13.0049 -36.998c1.33301 -5.33301 0.666016 -10.5 -2.00098 -15.5s-6.66699 -8.16699 -12 -9.5l-317 -93c-5.33301 -1.33301 -8.66602 -4.16602 -9.99902 -8.49902s-0.333008 -8.83301 3 -13.5c13.333 -16 27.666 -28 42.999 -36c35.333 -20 73 -24.333 113 -13
c7.33301 2 14.833 5.33301 22.5 10s14.5 9.5 20.5 14.5s11.5 10 16.5 15l12.5 12.5l4 4c3.33301 4.66699 8 7.5 14 8.5s11.667 0.166992 17 -2.5l32 -18c5.33301 -2.66699 8.5 -6.5 9.5 -11.5s-0.5 -9.5 -4.5 -13.5c-4.66699 -6 -11 -13.333 -19 -22
s-22.833 -21.5 -44.5 -38.5s-41.167 -28.167 -58.5 -33.5c-21.333 -6 -42.666 -9 -63.999 -9c-38.667 0 -75 9.33301 -109 28c-9.33301 5.33301 -19.5 12.666 -30.5 21.999s-19.5 17.333 -25.5 24l-9 11c-4 4 -8.66699 6.16699 -14 6.5s-10 -1.16699 -14 -4.5
c-2.66699 -2.66699 -6.33398 -6 -11.001 -10s-13.834 -10.833 -27.501 -20.5s-27.167 -18.334 -40.5 -26.001s-28.833 -14.667 -46.5 -21s-33.5 -9.5 -47.5 -9.5c-62.667 0 -116.167 22.167 -160.5 66.5s-66.5 97.666 -66.5 159.999s22.167 115.666 66.5 159.999
s97.833 66.5 160.5 66.5c14 0 29.667 -3 47 -9s33 -13.167 47 -21.5s27.167 -16.833 39.5 -25.5s21.833 -15.667 28.5 -21l10 -9c4 -4 8.83301 -5.83301 14.5 -5.5s10.5 2.5 14.5 6.5c2 1.33301 4.33301 3.5 7 6.5s8.33398 8.33301 17.001 16s17.167 14.667 25.5 21
s18.166 12.833 29.499 19.5s21.666 11.334 30.999 14.001c60 18 117.667 11.667 173 -19c34 -18 61.333 -43.333 82 -76l6.5 -11c2.33301 -4 4.16602 -7.66699 5.49902 -11s2.66602 -6.33301 3.99902 -9l3 -6zM276.505 81.002c41 0 76 14.5 105 43.5s43.5 64 43.5 105
s-14.5 76 -43.5 105s-64 43.5 -105 43.5s-76 -14.5 -105 -43.5s-43.5 -64 -43.5 -105s14.5 -76 43.5 -105s64 -43.5 105 -43.5zM759.005 302.002c2.66699 0.666992 4.83203 1.33301 6.49902 2l5 2c1.66699 0.666992 3 1.33398 4 2.00098s1.83301 1.16699 2.5 1.5l1 0.5l-1 1
c-13.333 21.333 -31.166 38 -53.499 50s-46.166 18 -71.499 18c-14 0 -28 -2 -42 -6c-39.333 -11.333 -69 -35 -89 -71c-3.33301 -7.33301 -6.33301 -15.5 -9 -24.5s-4.66699 -16.167 -6 -21.5l-1 -9c-0.666992 -5.33301 0.666016 -9.33301 3.99902 -12
s8 -3.33398 14 -2.00098z" />
    <glyph glyph-name="Scaron" unicode="&#x160;" horiz-adv-x="551" 
d="M496 235c6.66699 -28 6.50195 -60.502 -0.498047 -97.502s-18.5 -66.833 -34.5 -89.5c-40.667 -56 -95 -87.667 -163 -95c-8 -0.666992 -16 -1 -24 -1c-54 0 -102 17.167 -144 51.5s-68.333 77.833 -79 130.5c-1.33301 6 -0.333008 11.5 3 16.5s8 7.5 14 7.5l39 4
c2 0.666992 4.16699 0.666992 6.5 0s4.5 -1.66699 6.5 -3s3.66699 -3 5 -5s2.33301 -4.33301 3 -7c8 -36.667 27.5 -66.167 58.5 -88.5s65.5 -31.5 103.5 -27.5c41.333 4 75 22.167 101 54.5s37 68.833 33 109.5c-2.66699 21.333 -7.83398 39.833 -15.501 55.5
s-19 29 -34 40s-29.833 19.833 -44.5 26.5s-34 14 -58 22c-26.667 8.66699 -45.667 16 -57 22c-48 24.667 -81 55.834 -99 93.501s-19.333 78.834 -4 123.501c14 42.667 41.667 74.5 83 95.5s85.666 25.5 132.999 13.5c12 -3.33301 24.667 -8.66602 38 -15.999
s26.333 -17 39 -29s23.834 -26.833 33.501 -44.5s16.167 -36.5 19.5 -56.5c0 -4 -0.666992 -7.66699 -2 -11s-3.66602 -6 -6.99902 -8s-7 -3 -11 -3l-39 -1c-10.667 -0.666992 -17.334 4.66602 -20.001 15.999c-4 22 -13.833 39.667 -29.5 53s-29.167 21.333 -40.5 24
c-26 6.66699 -50.833 5 -74.5 -5s-39.834 -27.667 -48.501 -53c-17.333 -50.667 4 -91.334 64 -122.001c8 -4 23.667 -10 47 -18c19.333 -6.66699 34.5 -12.167 45.5 -16.5s26.167 -11.666 45.5 -21.999s35 -21.166 47 -32.499s23.833 -26.333 35.5 -45
s20.167 -39.334 25.5 -62.001zM263.002 757.998l-87.001 122c-3.33301 4.66699 -4.16602 8.66699 -2.49902 12s5.16699 5 10.5 5h22c14 0 25 -5.66699 33 -17l24 -35c3.33301 -4 7.33301 -6 12 -6s8.66699 2 12 6l25 35c8 11.333 18.667 17 32 17h22
c5.33301 0 8.83301 -1.66699 10.5 -5s1.16699 -7.33301 -1.5 -12l-88 -122c-3.33301 -4.66699 -7.33301 -7 -12 -7s-8.66699 2.33301 -12 7z" />
    <glyph glyph-name="scaron" unicode="&#x161;" horiz-adv-x="444" 
d="M393 163c4.66699 -36.667 -5.33398 -70.3379 -30.001 -101.005c-14.667 -18 -33 -32.5 -55 -43.5s-45.667 -17.5 -71 -19.5c-6 -0.666992 -12 -1 -18 -1c-39.333 0 -74.666 10.333 -105.999 31s-52 47.334 -62 80.001c-1.33301 4 -1.33301 7.66699 0 11
s3.33301 6.33301 6 9s6 4 10 4l41 5c9.33301 1.33301 16 -2.66699 20 -12c4 -10 11.167 -19.167 21.5 -27.5s22.666 -14.5 36.999 -18.5s28.833 -5 43.5 -3c31.333 2.66699 55.333 14 72 34c10.667 13.333 15 27.333 13 42c-2 16.667 -9.83301 28.834 -23.5 36.501
s-37.5 15.167 -71.5 22.5c-24 5.33301 -41 10 -51 14c-36 15.333 -61 37.833 -75 67.5s-14.333 60.834 -1 93.501c12 28 33.5 48.833 64.5 62.5s64.833 16.834 101.5 9.50098c20 -4 40.167 -14 60.5 -30s33.5 -36 39.5 -60c2 -6 1.16699 -11.5 -2.5 -16.5
s-8.5 -7.5 -14.5 -7.5l-43 -1c-8 -0.666992 -13.667 2.66602 -17 9.99902s-9.33301 13.666 -18 18.999s-15.667 8.33301 -21 9c-17.333 4 -33.5 3.5 -48.5 -1.5s-24.5 -12.833 -28.5 -23.5c-10.667 -25.333 0.333008 -44.666 33 -57.999c6 -2.66699 18.667 -6 38 -10
c12.667 -2.66699 22.667 -5 30 -7s17.666 -5.16699 30.999 -9.5s24.333 -9.5 33 -15.5s17.834 -13.167 27.501 -21.5s17.334 -18.666 23.001 -30.999s9.5 -26.166 11.5 -41.499zM204.999 488.996l-75 104c-4 6 -4.33301 12.5 -1 19.5s9 10.5 17 10.5h16
c6.66699 0 11.667 -2.66699 15 -8l28 -38c3.33301 -5.33301 8.33301 -8 15 -8s12 2.66699 16 8l27 38c3.33301 5.33301 8.33301 8 15 8h16c8 0 13.833 -3.5 17.5 -10.5s3.16699 -13.5 -1.5 -19.5l-74 -104c-4 -5.33301 -9.33301 -8 -16 -8s-11.667 2.66699 -15 8z" />
    <glyph glyph-name="Ydieresis" unicode="&#x178;" horiz-adv-x="659" 
d="M424 786c-12.667 0 -23.6641 4.49805 -32.9971 13.498s-14 20.167 -14 33.5c0 8 2.16699 15.667 6.5 23s10.166 13.166 17.499 17.499s15.166 6.5 23.499 6.5s16.166 -2.16699 23.499 -6.5s13 -10.166 17 -17.499s6 -15.166 6 -23.499s-2 -16.166 -6 -23.499
s-9.66699 -13 -17 -17s-15.333 -6 -24 -6zM238.503 785.998c-13 0 -24.167 4.49902 -33.5 13.499s-14 20 -14 33s4.66699 24.167 14 33.5s20.333 14 33 14c8.66699 0 16.667 -2.16699 24 -6.5s13 -10.166 17 -17.499s6 -15 6 -23c0 -13.333 -4.5 -24.5 -13.5 -33.5
s-20 -13.5 -33 -13.5zM596.003 697.997c6 0 10 -1.83203 12 -5.49902s1.33301 -7.83398 -2 -12.501l-225 -372c-6.66699 -11.333 -10 -23.666 -10 -36.999v-255c0 -5.33301 -2 -10 -6 -14s-9 -6 -15 -6h-37c-6 0 -11 2 -15 6s-6 8.66699 -6 14v255
c0 13.333 -3.33301 25.666 -10 36.999l-225 372c-7.33301 12 -9.33301 18 -6 18h66c6 0 12 -1.83301 18 -5.5s10.333 -7.83398 13 -12.501l173 -285c2.66699 -4.66699 6.16699 -7 10.5 -7s7.83301 2.33301 10.5 7l173 285c2.66699 4.66699 7 8.83398 13 12.501
s12 5.5 18 5.5h50z" />
    <glyph glyph-name="Zcaron" unicode="&#x17d;" horiz-adv-x="576" 
d="M197 772c-5.33301 0 -8.83105 1.66699 -10.498 5s-0.833984 7 2.49902 11l87 123c3.33301 4 7.33301 6 12 6s8.66699 -2 12 -6l87 -123c3.33301 -4 4.16602 -7.66699 2.49902 -11s-5.16699 -5 -10.5 -5h-22c-14 0 -24.667 5.33301 -32 16l-25 35
c-3.33301 4.66699 -7.33301 7 -12 7s-8.66699 -2.33301 -12 -7l-25 -35c-8 -10.667 -18.667 -16 -32 -16h-22zM505.002 81c6 0 11 -2 15 -6s6 -8.66699 6 -14v-38c0 -5.33301 -2 -10 -6 -14s-9 -6 -15 -6h-439c-5.33301 0 -9 1.66699 -11 5s-1.66699 7.66602 1 12.999
l329 576c2.66699 4.66699 3 8.83398 1 12.501s-5.66699 5.5 -11 5.5h-305c-5.33301 0 -10 2 -14 6s-6 8.66699 -6 14v38c0 5.33301 2 10 6 14s8.66699 6 14 6h439c6 0 10 -1.66699 12 -5s1.66699 -7.66602 -1 -12.999l-329 -576c-3.33301 -4.66699 -4 -8.83398 -2 -12.501
s6 -5.5 12 -5.5h304z" />
    <glyph glyph-name="zcaron" unicode="&#x17e;" horiz-adv-x="473" 
d="M221 489l-74 104c-4.66699 6 -5.16699 12.5 -1.5 19.5s9.16699 10.5 16.5 10.5h16c6.66699 0 12 -2.66699 16 -8l43 -60l42 60c4 5.33301 9.33301 8 16 8h16c7.33301 0 12.833 -3.5 16.5 -10.5s3.16699 -13.5 -1.5 -19.5l-74 -104c-4 -5.33301 -9.16699 -8 -15.5 -8
s-11.5 2.66699 -15.5 8zM404 81c5.33301 0 9.83301 -1.83301 13.5 -5.5s5.5 -8.16699 5.5 -13.5v-40c0 -5.33301 -1.83301 -9.83301 -5.5 -13.5s-8.16699 -5.5 -13.5 -5.5h-310c-7.33301 0 -12.833 3.16699 -16.5 9.5s-3.83398 12.833 -0.500977 19.5l189 318
c3.33301 6.66699 3.16602 13.167 -0.500977 19.5s-9.16699 9.5 -16.5 9.5h-180c-5.33301 0 -9.83301 1.83301 -13.5 5.5s-5.5 8.16699 -5.5 13.5v40c0 5.33301 1.83301 9.83301 5.5 13.5s8.16699 5.5 13.5 5.5h317c7.33301 0 12.833 -3.16699 16.5 -9.5
s3.83398 -12.833 0.500977 -19.5l-189 -318c-3.33301 -6.66699 -3.16602 -13.167 0.500977 -19.5s9.16699 -9.5 16.5 -9.5h173z" />
    <glyph glyph-name="circumflex" unicode="&#x2c6;" horiz-adv-x="305" 
d="M252 559c3.33301 -4.66699 4.16797 -8.66699 2.50098 -12s-5.5 -5 -11.5 -5h-22c-13.333 0 -24 5.66699 -32 17l-25 34c-3.33301 4.66699 -7.16602 7 -11.499 7s-8.16602 -2.33301 -11.499 -7l-25 -34c-8 -11.333 -18.667 -17 -32 -17h-22c-6 0 -9.83301 1.66699 -11.5 5
s-0.833984 7.33301 2.49902 12l88 122c3.33301 4.66699 7.16602 7 11.499 7s8.16602 -2.33301 11.499 -7z" />
    <glyph glyph-name="caron" unicode="&#x2c7;" horiz-adv-x="305" 
d="M243 698c6 0 9.83105 -1.5 11.498 -4.5s0.833984 -6.83301 -2.49902 -11.5l-88 -122c-3.33301 -4.66699 -7.16602 -7 -11.499 -7s-8.16602 2.33301 -11.499 7l-88 122c-3.33301 4.66699 -4.16602 8.5 -2.49902 11.5s5.5 4.5 11.5 4.5h22c13.333 0 24 -5.33301 32 -16
l25 -35c3.33301 -4.66699 7.16602 -7 11.499 -7s8.16602 2.33301 11.499 7l25 35c8 10.667 18.667 16 32 16h22z" />
    <glyph glyph-name="ilde" unicode="&#x2dc;" horiz-adv-x="394" 
d="M337 672c4 -3.33301 6.16699 -7.66406 6.5 -12.9971s-1.5 -10 -5.5 -14c-25.333 -25.333 -52.666 -38 -81.999 -38c-24 0 -47 8.33301 -69 25c-2 2 -4.66699 4.33301 -8 7c-12 9.33301 -24 14 -36 14c-16.667 0 -33.334 -9 -50.001 -27
c-7.33301 -8 -15.333 -8.66699 -24 -2l-12 9c-4 3.33301 -6.33301 7.66602 -7 12.999s1 10 5 14c23.333 25.333 49 39.666 77 42.999s54.333 -4.66699 79 -24l8 -7c26 -20 53.333 -17 82 9c8 7.33301 16 7.66602 24 0.999023z" />
    <glyph glyph-name="endash" unicode="&#x2013;" horiz-adv-x="406" 
d="M336 268c5.33301 0 10 -2 14 -6s6 -8.66699 6 -14v-38c0 -5.33301 -2 -10 -6 -14s-8.66699 -6 -14 -6h-266c-5.33301 0 -10 2 -14 6s-6 8.66699 -6 14v38c0 5.33301 2 10 6 14s8.66699 6 14 6h266z" />
    <glyph glyph-name="emdash" unicode="&#x2014;" horiz-adv-x="529" 
d="M459 268c5.33301 0 10 -2 14 -6s6 -8.66699 6 -14v-38c0 -5.33301 -2 -10 -6 -14s-8.66699 -6 -14 -6h-389c-5.33301 0 -10 2 -14 6s-6 8.66699 -6 14v38c0 5.33301 2 10 6 14s8.66699 6 14 6h389z" />
    <glyph glyph-name="quoteleft" unicode="&#x2018;" horiz-adv-x="194" 
d="M127 654c6 0 10.499 -2 13.499 -6s4.16699 -8.66699 3.5 -14l-28 -130c-1.33301 -5.33301 -4.33301 -10 -9 -14s-10 -6 -16 -6h-23c-6 0 -10.667 2 -14 6s-4.66602 9 -3.99902 15l20 129c0.666992 5.33301 3.16699 10 7.5 14s9.5 6 15.5 6h34z" />
    <glyph glyph-name="quoteright" unicode="&#x2019;" horiz-adv-x="187" 
d="M120 654c6 0 10.498 -2 13.498 -6s3.83301 -8.66699 2.5 -14l-30 -130c-1.33301 -5.33301 -4.33301 -9.83301 -9 -13.5s-10 -5.5 -16 -5.5h-13c-6 0 -10.667 1.83301 -14 5.5s-4.66602 8.5 -3.99902 14.5l17 129c0.666992 5.33301 3.33398 10 8.00098 14s9.66699 6 15 6
h30z" />
    <glyph glyph-name="quotesinglbase" unicode="&#x201a;" horiz-adv-x="176" 
d="M107 44c5.33301 0 9.83203 -2 13.499 -6s5.16699 -8.66699 4.5 -14l-9 -137c0 -6 -2.16699 -10.833 -6.5 -14.5s-9.5 -5.5 -15.5 -5.5h-13c-5.33301 0 -10.166 1.83301 -14.499 5.5s-6.83301 8.5 -7.5 14.5l-9 137c0 5.33301 1.83301 10 5.5 14s8.16699 6 13.5 6h38z" />
    <glyph glyph-name="quoteleftreversed" unicode="&#x201b;" horiz-adv-x="166" 
d="M96 692c5.33301 0 9.99902 -1.83203 13.999 -5.49902s6 -8.5 6 -14.5v-26c0 -13.333 -2.66699 -20 -8 -20s-8 -1 -8 -3v-2l2 -12c7.33301 -11.333 7.33301 -21 0 -29c-2.66699 -3.33301 -6.5 -5 -11.5 -5s-9.83301 1.66699 -14.5 5
c-7.33301 6.66699 -13.666 15.667 -18.999 27l-3 6c-1.33301 8.66699 -2.33301 13 -3 13s-1 1.5 -1 4.5v4.5v7v14v18c0 5.33301 2 9.66602 6 12.999s8.66699 5 14 5h26z" />
    <glyph glyph-name="quotedblleft" unicode="&#x201c;" horiz-adv-x="313" 
d="M118 654c6 0 10.6689 -2 14.002 -6s4.66602 -8.66699 3.99902 -14l-18 -129c-0.666992 -6 -3.33398 -11 -8.00098 -15s-9.66699 -6 -15 -6h-29c-5.33301 0 -9.5 2 -12.5 6s-4.16699 8.66699 -3.5 14l30 130c0.666992 5.33301 3.5 10 8.5 14s10.5 6 16.5 6h13z
M245.002 654c5.33301 0 9.66699 -2 13 -6s4.66602 -8.66699 3.99902 -14l-17 -129c-1.33301 -6 -4.16602 -11 -8.49902 -15s-9.5 -6 -15.5 -6h-28c-6 0 -10.5 2 -13.5 6s-3.83301 8.66699 -2.5 14l29 130c1.33301 5.33301 4.33301 10 9 14s10 6 16 6h14z" />
    <glyph glyph-name="quotedblright" unicode="&#x201d;" horiz-adv-x="314" 
d="M121 654c4 0 7.33398 -0.833984 10.001 -2.50098s4.5 -4.16699 5.5 -7.5s1.16699 -6.66602 0.5 -9.99902l-29 -130c-1.33301 -5.33301 -4.5 -10 -9.5 -14s-10.167 -6 -15.5 -6h-15c-6 0 -10.667 2 -14 6s-4.66602 9 -3.99902 15l18 129
c0.666992 3.33301 2.16699 6.5 4.5 9.5s5.16602 5.5 8.49902 7.5s6.66602 3 9.99902 3h30zM247.001 653.999c6 0 10.502 -2 13.502 -6s3.83301 -8.66699 2.5 -14l-29 -130c-1.33301 -5.33301 -4.33301 -9.83301 -9 -13.5s-10 -5.5 -16 -5.5h-15
c-5.33301 0 -9.83301 1.83301 -13.5 5.5s-5.16699 8.5 -4.5 14.5l18 129c0.666992 3.33301 2.16699 6.5 4.5 9.5s5.16602 5.5 8.49902 7.5s6.66602 3 9.99902 3h30z" />
    <glyph glyph-name="quotedblbase" unicode="&#x201e;" horiz-adv-x="348" 
d="M107 44c5.33301 0 9.83203 -2 13.499 -6s5.5 -8.66699 5.5 -14l-8 -137c-0.666992 -5.33301 -3 -10 -7 -14s-9 -6 -15 -6h-17c-3.33301 0 -6.66602 0.833008 -9.99902 2.5s-6 4 -8 7s-3 6.5 -3 10.5l-8 137c0 5.33301 1.83301 10 5.5 14s8.16699 6 13.5 6h38zM278.999 44
c5.33301 0 9.83105 -2 13.498 -6s5.5 -8.66699 5.5 -14l-10 -137c0 -6 -2.16699 -10.833 -6.5 -14.5s-9.16602 -5.5 -14.499 -5.5h-14c-3.33301 0 -6.66602 0.833008 -9.99902 2.5s-6 4 -8 7s-3 6.5 -3 10.5l-10 137c0 5.33301 1.83301 10 5.5 14s8.16699 6 13.5 6h38z" />
    <glyph glyph-name="dagger" unicode="&#x2020;" horiz-adv-x="576" 
d="M506 474c5.33301 0 10 -2 14 -6s6 -8.66699 6 -14v-38c0 -5.33301 -2 -10 -6 -14s-8.66699 -6 -14 -6h-158c-6 0 -11 -2 -15 -6s-6 -8.66699 -6 -14v-449c0 -6 -2 -11 -6 -15s-8.66699 -6 -14 -6h-38c-5.33301 0 -10 2 -14 6s-6 9 -6 15v449c0 5.33301 -2 10 -6 14
s-8.66699 6 -14 6h-159c-5.33301 0 -10 2 -14 6s-6 8.66699 -6 14v38c0 5.33301 2 10 6 14s8.66699 6 14 6h159c5.33301 0 10 2 14 6s6 9 6 15v182c0 6 2 11 6 15s8.66699 6 14 6h38c5.33301 0 10 -2 14 -6s6 -9 6 -15v-182c0 -6 2 -11 6 -15s9 -6 15 -6h158z" />
    <glyph glyph-name="daggerdbl" unicode="&#x2021;" horiz-adv-x="576" 
d="M348 396c-6 0 -11 -2 -15 -6s-6 -8.66699 -6 -14v-89c0 -5.33301 2 -10 6 -14s9 -6 15 -6h158c5.33301 0 10 -2 14 -6s6 -9 6 -15v-37c0 -5.33301 -2 -10 -6 -14s-8.66699 -6 -14 -6h-158c-6 0 -11 -2 -15 -6s-6 -9 -6 -15v-241c0 -6 -2 -11 -6 -15s-8.66699 -6 -14 -6
h-38c-5.33301 0 -10 2 -14 6s-6 9 -6 15v241c0 6 -2 11 -6 15s-8.66699 6 -14 6h-159c-5.33301 0 -10 2 -14 6s-6 8.66699 -6 14v37c0 6 2 11 6 15s8.66699 6 14 6h159c5.33301 0 10 2 14 6s6 8.66699 6 14v89c0 5.33301 -2 10 -6 14s-8.66699 6 -14 6h-159
c-5.33301 0 -10 2 -14 6s-6 8.66699 -6 14v38c0 5.33301 2 10 6 14s8.66699 6 14 6h159c5.33301 0 10 2 14 6s6 9 6 15v182c0 6 2 11 6 15s8.66699 6 14 6h38c5.33301 0 10 -2 14 -6s6 -9 6 -15v-182c0 -6 2 -11 6 -15s9 -6 15 -6h158c5.33301 0 10 -2 14 -6
s6 -8.66699 6 -14v-38c0 -5.33301 -2 -10 -6 -14s-8.66699 -6 -14 -6h-158z" />
    <glyph glyph-name="bullet" unicode="&#x2022;" horiz-adv-x="194" 
d="M96.5 395c13 0 24.167 -4.66699 33.5 -14s14 -20.333 14 -33s-4.66699 -23.667 -14 -33s-20.333 -14 -33 -14c-8.66699 0 -16.5 2.16699 -23.5 6.5s-12.667 10 -17 17s-6.5 14.833 -6.5 23.5c0 12.667 4.5 23.667 13.5 33s20 14 33 14z" />
    <glyph glyph-name="ellipsis" unicode="&#x2026;" horiz-adv-x="738" 
d="M97 53c12.667 0 23.667 -4.66699 33 -14s14 -20.5 14 -33.5s-4.66699 -24 -14 -33s-20.333 -13.5 -33 -13.5s-23.667 4.5 -33 13.5s-14 20 -14 33s4.66699 24.167 14 33.5s20.333 14 33 14zM368.5 53c13 0 24.168 -4.66699 33.501 -14s14 -20.333 14 -33
c0 -4.66699 -0.666992 -9 -2 -13s-3 -7.66699 -5 -11s-4.33301 -6.5 -7 -9.5s-5.83398 -5.5 -9.50098 -7.5s-7.5 -3.5 -11.5 -4.5s-8 -1.5 -12 -1.5c-8.66699 0 -16.667 2 -24 6s-13 9.66699 -17 17s-6 15.333 -6 24c0 12.667 4.5 23.667 13.5 33s20 14 33 14zM640.501 53
c13 0 24.167 -4.66699 33.5 -14s14 -20.5 14 -33.5s-4.66699 -24 -14 -33s-20.5 -13.5 -33.5 -13.5s-24 4.5 -33 13.5s-13.5 20 -13.5 33s4.5 24.167 13.5 33.5s20 14 33 14z" />
    <glyph glyph-name="perthousand" unicode="&#x2030;" horiz-adv-x="1142" 
d="M569 698c3.33301 0 5.99902 -0.5 7.99902 -1.5s3.5 -2.5 4.5 -4.5s1.66699 -4 2 -6s-0.166992 -4.33301 -1.5 -7l-265 -662c-2 -5.33301 -5.66699 -9.83301 -11 -13.5s-10.666 -5.5 -15.999 -5.5h-44c-5.33301 0 -9.33301 1.83301 -12 5.5s-3 8.16699 -1 13.5l265 662
c2 4.66699 5.83301 9 11.5 13s11.167 6 16.5 6h43zM323.999 560c0 -37.333 -13.499 -69.335 -40.499 -96.002s-59.333 -40 -97 -40s-69.834 13.333 -96.501 40s-40 58.834 -40 96.501s13.333 69.834 40 96.501s59 40 97 40c24.667 0 47.5 -6.16699 68.5 -18.5
s37.667 -29 50 -50s18.5 -43.833 18.5 -68.5zM187 501.998c16 0 29.667 5.66699 41 17s17 25.166 17 41.499s-5.66699 30.166 -17 41.499s-25 17 -41 17s-29.833 -5.66699 -41.5 -17s-17.5 -25.166 -17.5 -41.499s5.83301 -30.166 17.5 -41.499s25.5 -17 41.5 -17z
M1056 227.998c25.333 -28 37.3311 -61 35.998 -99c-2 -36 -16.333 -66.667 -43 -92s-58 -38 -94 -38h-6c-38 1.33301 -69.667 16 -95 44s-37.166 60.833 -35.499 98.5s16.5 69.5 44.5 95.5c28.667 26 61.334 37.667 98.001 35c38 -1.33301 69.667 -16 95 -44z
M970.998 83.998c1.33301 0.666992 2.8291 1.49902 4.49609 2.49902l10 6c5 3 9.33301 6.16699 13 9.5s7 7.83301 10 13.5s4.83301 11.5 5.5 17.5c0.666992 16 -4.66602 30 -15.999 42c-3.33301 3.33301 -6.66602 6.16602 -9.99902 8.49902s-6 3.83301 -8 4.5l-3 1
c-12.667 3.33301 -19.667 5 -21 5h-1c-15.333 0 -28.666 -5 -39.999 -15c-12 -11.333 -18.333 -25 -19 -41s4.66602 -30 15.999 -42c2.66699 -3.33301 5.83398 -6.16602 9.50098 -8.49902s6.5 -3.83301 8.5 -4.5l3 -1c12.667 -3.33301 25.334 -2.66602 38.001 2.00098z
M634.994 271.997c38 -1.33301 69.665 -16 94.998 -44s37.333 -61 36 -99c-2 -36 -16.167 -66.667 -42.5 -92s-57.833 -38 -94.5 -38h-6c-38 1.33301 -69.667 16 -95 44s-37.166 60.833 -35.499 98.5s16.5 69.5 44.5 95.5c28.667 26 61.334 37.667 98.001 35z
M644.992 83.9971c3.33301 1.33301 7.33008 3.16602 11.9971 5.49902s10.834 7.83301 18.501 16.5s11.834 17.667 12.501 27c0.666992 16 -4.66602 30 -15.999 42c-2.66699 3.33301 -5.83398 6.16602 -9.50098 8.49902s-6.16699 3.83301 -7.5 4.5l-3 1
c-13.333 3.33301 -20.666 5 -21.999 5h-1c-15.333 0 -28.333 -5 -39 -15c-12 -11.333 -18.5 -25 -19.5 -41s4.16699 -30 15.5 -42c3.33301 -3.33301 6.66602 -6.16602 9.99902 -8.49902s6 -3.83301 8 -4.5l3 -1c12.667 -3.33301 25.334 -2.66602 38.001 2.00098z" />
    <glyph glyph-name="guilsinglright" unicode="&#x203a;" horiz-adv-x="318" 
d="M262 363c4 -4.66699 6 -9.83301 6 -15.5s-2 -10.5 -6 -14.5l-150 -153c-4 -4 -8.83301 -6 -14.5 -6s-10.5 2 -14.5 6l-27 26c-4 4 -6 8.83301 -6 14.5s2 10.5 6 14.5l96 98c4 4 6 8.83301 6 14.5s-2 10.5 -6 14.5l-96 99c-4 4 -6 8.83301 -6 14.5s2 10.5 6 14.5l27 26
c4 4 8.83301 6 14.5 6s10.5 -2 14.5 -6z" />
    <glyph glyph-name="fraction" unicode="&#x2044;" horiz-adv-x="582" 
d="M519 698c6 0 10 -1.83301 12 -5.5s1.33301 -7.83398 -2 -12.501l-386 -665c-2.66699 -4.66699 -7 -8.66699 -13 -12s-12 -5 -18 -5h-49c-6 0 -10 1.66699 -12 5s-1.66699 7.33301 1 12l387 665c2.66699 4.66699 7 8.83398 13 12.501s12 5.5 18 5.5h49z" />
    <glyph glyph-name="Euro" unicode="&#x20ac;" horiz-adv-x="680" 
d="M623 120c4.66699 -4.66699 6.83203 -10.0068 6.49902 -16.0068s-2.83301 -11.333 -7.5 -16c-64.667 -56.667 -140.334 -85 -227.001 -85c-95.333 0 -176.666 33.667 -243.999 101s-101 148.666 -101 243.999c0 58 13.5 112.333 40.5 163s65.167 92.334 114.5 125.001
c36.667 24.667 76.334 41.334 119.001 50.001c37.333 7.33301 73.5 9 108.5 5s68.667 -13 101 -27s61.833 -32.667 88.5 -56c4.66699 -4.66699 7.16699 -10 7.5 -16s-1.5 -11.333 -5.5 -16l-26 -25c-4 -4 -8.66699 -6.16699 -14 -6.5s-10 1.16699 -14 4.5
c-51.333 44.667 -112.833 65.834 -184.5 63.501s-131.5 -27.5 -179.5 -75.5c-14.667 -15.333 -27.667 -32 -39 -50c-4 -7.33301 -4 -14.666 0 -21.999s10 -11 18 -11h195c5.33301 0 10.166 -2 14.499 -6s6.5 -9 6.5 -15v-9c0 -5.33301 -2.16699 -10.166 -6.5 -14.499
s-9.16602 -6.5 -14.499 -6.5h-228c-5.33301 0 -10 -1.66699 -14 -5s-6.33301 -7.66602 -7 -12.999c-2 -12.667 -3 -25 -3 -37c0 -12.667 1 -25.667 3 -39c1.33301 -5.33301 4 -9.66602 8 -12.999s8.33301 -5 13 -5h228c5.33301 0 10.166 -2.16699 14.499 -6.5
s6.5 -9.5 6.5 -15.5v-8c0 -6 -2.16699 -11 -6.5 -15s-9.16602 -6 -14.499 -6h-193c-8.66699 0 -15 -3.66699 -19 -11s-3.66699 -14.666 1 -21.999c10.667 -17.333 23 -33.333 37 -48c48 -48 107.833 -73.167 179.5 -75.5s133.167 18.5 184.5 62.5
c4 4 8.66699 5.83301 14 5.5s10 -2.5 14 -6.5z" />
    <glyph glyph-name="trademark" unicode="&#x2122;" horiz-adv-x="642" 
d="M218 693c3.33301 0 6.66699 -1 10 -3s5.83301 -4.5 7.5 -7.5s2.5 -6.16699 2.5 -9.5v-38c0 -5.33301 -2 -10 -6 -14s-8.66699 -6 -14 -6h-14c-6 0 -11 -2 -15 -6s-6 -9 -6 -15v-223c0 -5.33301 -2 -10 -6 -14s-8.66699 -6 -14 -6h-38c-5.33301 0 -10 2 -14 6
s-6 8.66699 -6 14v223c0 6 -2 11 -6 15s-8.66699 6 -14 6h-15c-5.33301 0 -10 2 -14 6s-6 8.66699 -6 14v38c0 5.33301 2 10 6 14s8.66699 6 14 6h148zM576.001 698c2.66699 0 5.16699 -1 7.5 -3s4.33301 -4.5 6 -7.5s2.5 -6.5 2.5 -10.5v-306c0 -5.33301 -2 -10 -6 -14
s-9 -6 -15 -6h-37c-6 0 -11 2 -15 6s-6 8.66699 -6 14v141c0 5.33301 -1.33301 8.5 -4 9.5s-5.66699 -0.5 -9 -4.5l-44 -47c-3.33301 -4 -7.66602 -6 -12.999 -6s-10 2 -14 6l-43 47c-4 4 -7.33301 5.5 -10 4.5s-4 -4.16699 -4 -9.5v-141c0 -5.33301 -2 -10 -6 -14
s-8.66699 -6 -14 -6h-38c-5.33301 0 -10 2 -14 6s-6 8.66699 -6 14v306c0 6 1.5 11 4.5 15s6.83301 6 11.5 6c10.667 0 20.667 -5 30 -15l89 -97c4 -4.66699 8.66699 -7 14 -7s9.66602 2.33301 12.999 7l90 97c8.66699 10 18.667 15 30 15z" />
    <glyph glyph-name="minus" unicode="&#x2212;" horiz-adv-x="549" 
d="M479 343c5.33301 0 10 -2 14 -6s6 -8.66699 6 -14v-37c0 -6 -2 -11 -6 -15s-8.66699 -6 -14 -6l-409 1c-5.33301 0 -10 1.83301 -14 5.5s-6 8.5 -6 14.5v37c0 6 2 11 6 15s8.66699 6 14 6z" />
    <glyph glyph-name="unie992" unicode="&#xe992;" horiz-adv-x="685" 
d="M559 138c2.66699 1.33301 4.66992 0.99707 6.00293 -1.00293l44 -54c2 -2.66699 1.66699 -4.66699 -1 -6c-62.667 -49.333 -133.667 -74 -213 -74c-45.333 0 -88.833 8.5 -130.5 25.5s-77.5 40.333 -107.5 70s-54.833 64.334 -74.5 104.001
s-30.334 82.334 -32.001 128.001s5.5 92.834 21.5 141.501c16 46 41.167 86.333 75.5 121s74.5 60.334 120.5 77.001c67.333 24 133.166 29.333 197.499 16s120.5 -43 168.5 -89c2 -2 2 -4 0 -6l-49 -50c-2 -2 -4 -2 -6 0c-39.333 37.333 -85.333 60.666 -138 69.999
s-106.334 2.33301 -161.001 -21c-30 -12.667 -56.5 -31.167 -79.5 -55.5s-40.5 -51.833 -52.5 -82.5c-18.667 -47.333 -24.5 -93.333 -17.5 -138s22.167 -84.167 45.5 -118.5s54.5 -62 93.5 -83s80.833 -31.5 125.5 -31.5c61.333 0 116 19 164 57zM508.003 378.997
l-62.002 -44c-2 -1.33301 -2.33301 -3 -1 -5l23 -72c0.666992 -2 0.166992 -3.66699 -1.5 -5s-3.5 -1.33301 -5.5 0l-61 45c-2 0.666992 -3.66699 0.666992 -5 0l-62 -45c-1.33301 -1.33301 -2.83301 -1.33301 -4.5 0s-2.16699 3 -1.5 5l23 72c0.666992 2 0 3.66699 -2 5
l-61 44c-2 1.33301 -2.66699 3 -2 5s2 3 4 3h76c2.66699 0 4.33398 1 5.00098 3l23 73c0.666992 2 2 3 4 3s3.33301 -1 4 -3l24 -73c0.666992 -2 2 -3 4 -3h76c2 0 3.33301 -1 4 -3s0.333984 -3.66699 -0.999023 -5z" />
    <glyph glyph-name="a.alt1" unicode="&#xf001;" 
d="M266 11c-58.667 3.33301 -108.833 26.167 -150.5 68.5s-63.5 92.5 -65.5 150.5c-2 64 19.333 119 64 165s98.667 69 162 69c56 0 105.667 -19 149 -57v41c0 6.66699 2.16699 12.167 6.5 16.5s9.5 6.5 15.5 6.5h34c6 0 11.167 -2.16699 15.5 -6.5s6.5 -9.83301 6.5 -16.5
v-426c0 -6 -2.16699 -11.167 -6.5 -15.5s-9.5 -6.5 -15.5 -6.5c-16 0 -29.333 5.5 -40 16.5s-16 24.167 -16 39.5v12c-46.667 -40.667 -99.667 -59.667 -159 -57zM276.001 386.001c-26.667 0 -51.333 -6.66602 -74 -19.999s-40.667 -31.333 -54 -54s-20 -47.334 -20 -74.001
c0 -41.333 14.5 -76.5 43.5 -105.5s64 -43.5 105 -43.5s76 14.5 105 43.5s43.5 64 43.5 105s-14.5 76 -43.5 105s-64.167 43.5 -105.5 43.5z" />
    <glyph glyph-name="nonmarkingreturn" horiz-adv-x="333" 
 />
    </font>
</defs>
</svg>
