<?xml version="1.0" standalone="no"?>
<!DOCTYPE svg PUBLIC "-//W3C//DTD SVG 1.1//EN" "http://www.w3.org/Graphics/SVG/1.1/DTD/svg11.dtd" >
<svg>
<metadata>
Created by FontForge 20090914 at Sun Feb 23 04:39:36 2020
 By www-data
</metadata>
<defs>
<font id="GeorgeRoundedBoldItalic" horiz-adv-x="570" >
  <font-face 
    font-family="George Rounded"
    font-weight="700"
    font-style="italic"
    font-stretch="normal"
    units-per-em="1000"
    panose-1="0 0 0 0 0 0 0 0 0 0"
    ascent="800"
    descent="-200"
    x-height="476"
    cap-height="707.002"
    bbox="49.3317 -326.001 1116.05 950"
    underline-thickness="50"
    underline-position="-150"
    unicode-range="U+000A-U+F001"
  />
<missing-glyph horiz-adv-x="527" 
d="M50 700h427v-700h-427v700zM78 680l185 -309l186 309h-371zM251 350l-180 300v-601zM264 329l-185 -308h370zM276 350l181 -303v605z" />
    <glyph glyph-name=".notdef" horiz-adv-x="527" 
d="M50 700h427v-700h-427v700zM78 680l185 -309l186 309h-371zM251 350l-180 300v-601zM264 329l-185 -308h370zM276 350l181 -303v605z" />
    <glyph glyph-name=".null" horiz-adv-x="0" 
 />
    <glyph glyph-name=".null" horiz-adv-x="0" 
 />
    <glyph glyph-name="controlLF" unicode="&#xa;" horiz-adv-x="0" 
 />
    <glyph glyph-name="controlCR" unicode="&#xd;" horiz-adv-x="0" 
 />
    <glyph glyph-name="space" unicode=" " horiz-adv-x="345" 
 />
    <glyph glyph-name="exclam" unicode="!" horiz-adv-x="320" 
d="M101 149c-6 0 -10.6631 2.00098 -13.9961 6.00098s-5 9 -5 15l59 559c0.666992 5.33301 3.16699 10 7.5 14s9.16602 6 14.499 6h89c5.33301 0 9.66602 -2 12.999 -6s4.66602 -8.66699 3.99902 -14l-76 -559c0 -2.66699 -0.833008 -5.33398 -2.5 -8.00098s-3.5 -5 -5.5 -7
s-4.33301 -3.5 -7 -4.5s-5.33398 -1.5 -8.00098 -1.5h-69zM132.004 119.001c20 0 36.167 -7 48.5 -21s17.333 -31.167 15 -51.5s-11.5 -37.666 -27.5 -51.999s-34 -21.5 -54 -21.5s-36.167 7.16699 -48.5 21.5s-17.333 31.666 -15 51.999s11.5 37.5 27.5 51.5s34 21 54 21z
" />
    <glyph glyph-name="quotedbl" unicode="&#x22;" horiz-adv-x="418" 
d="M178 671c5.33301 0 9.83203 -2.16699 13.499 -6.5s5.16699 -9.16602 4.5 -14.499l-17 -138c-0.666992 -6 -3.16699 -11 -7.5 -15s-9.16602 -6 -14.499 -6h-89c-5.33301 0 -9.83301 2 -13.5 6s-5.16699 9 -4.5 15l17 138c0.666992 5.33301 3.16699 10.166 7.5 14.499
s9.5 6.5 15.5 6.5h88zM349.999 671c5.33301 0 9.83203 -2.16699 13.499 -6.5s5.16699 -9.16602 4.5 -14.499l-17 -138c-0.666992 -6 -3.16699 -11 -7.5 -15s-9.16602 -6 -14.499 -6h-89c-5.33301 0 -9.83301 2 -13.5 6s-5.16699 9 -4.5 15l17 138
c0.666992 5.33301 3.16699 10.166 7.5 14.499s9.5 6.5 15.5 6.5h88z" />
    <glyph glyph-name="numbersign" unicode="#" horiz-adv-x="707" 
d="M639 524c5.33301 0 9.83789 -1.99902 13.5049 -5.99902s5.16699 -9 4.5 -15l-11 -89c-0.666992 -5.33301 -3.16699 -10 -7.5 -14s-9.5 -6 -15.5 -6h-60c-6 0 -11.5 -2 -16.5 -6s-8.16699 -9 -9.5 -15l-16 -63c-0.666992 -2.66699 -0.666992 -5.33398 0 -8.00098
s1.66699 -4.83398 3 -6.50098s3.16602 -3 5.49902 -4s4.83301 -1.5 7.5 -1.5h50c5.33301 0 9.83301 -2 13.5 -6s5.16699 -9 4.5 -15l-11 -89c-0.666992 -5.33301 -3.16699 -10 -7.5 -14s-9.5 -6 -15.5 -6h-66c-4 0 -7.83301 -1 -11.5 -3s-6.83398 -4.5 -9.50098 -7.5
s-4.33398 -6.5 -5.00098 -10.5l-27 -109c-0.666992 -3.33301 -2.33398 -6.66602 -5.00098 -9.99902s-5.83398 -5.83301 -9.50098 -7.5s-7.5 -2.5 -11.5 -2.5h-89c-5.33301 0 -9.5 2 -12.5 6s-3.83301 8.66699 -2.5 14l27 109c1.33301 6 0.5 11 -2.5 15s-7.5 6 -13.5 6h-55
c-6 0 -11.5 -2 -16.5 -6s-8.16699 -9 -9.5 -15l-27 -109c-1.33301 -5.33301 -4.5 -10 -9.5 -14s-10.167 -6 -15.5 -6h-90c-5.33301 0 -9.5 2 -12.5 6s-3.83301 8.66699 -2.5 14l27 109c1.33301 6 0.5 11 -2.5 15s-7.16699 6 -12.5 6h-39c-5.33301 0 -9.83301 2 -13.5 6
s-5.16699 8.66699 -4.5 14l11 89c0.666992 6 3.16699 11 7.5 15s9.5 6 15.5 6h55c6 0 11.333 2 16 6s8 8.66699 10 14l15 63c1.33301 4 1.5 7.5 0.5 10.5s-2.83301 5.5 -5.5 7.5s-6 3 -10 3h-45c-5.33301 0 -9.83301 2 -13.5 6s-5.16699 8.66699 -4.5 14l11 89
c0.666992 6 3.33398 11 8.00098 15s9.66699 6 15 6h61c6 0 11.5 2 16.5 6s8.16699 8.66699 9.5 14l37 150c1.33301 6 4.5 11 9.5 15s10.5 6 16.5 6h89c5.33301 0 9.5 -2 12.5 -6s3.83301 -9 2.5 -15l-37 -150c-1.33301 -5.33301 -0.5 -10 2.5 -14s7.16699 -6 12.5 -6h56
c2 0 4.16699 0.333008 6.5 1s4.5 1.66699 6.5 3s3.83301 2.83301 5.5 4.5s3.16699 3.5 4.5 5.5s2 4 2 6l38 150c0.666992 4 2.33398 7.5 5.00098 10.5s5.83398 5.5 9.50098 7.5s7.16699 3 10.5 3h90c5.33301 0 9.5 -2 12.5 -6s3.83301 -9 2.5 -15l-37 -150
c-0.666992 -2.66699 -0.833984 -5.16699 -0.500977 -7.5s1.16602 -4.5 2.49902 -6.5s3.16602 -3.5 5.49902 -4.5s4.83301 -1.5 7.5 -1.5h44zM391.005 310.001l16 62.999c0.666992 4 0.5 7.5 -0.5 10.5s-2.83301 5.5 -5.5 7.5s-5.66699 3 -9 3h-56
c-5.33301 0 -10.5 -2 -15.5 -6s-8.16699 -9 -9.5 -15l-16 -63c-1.33301 -3.33301 -1.33301 -6.66602 0 -9.99902s3.33301 -5.83301 6 -7.5s5.66699 -2.5 9 -2.5h56c5.33301 0 10.5 2 15.5 6s8.16699 8.66699 9.5 14z" />
    <glyph glyph-name="dollar" unicode="$" horiz-adv-x="640" 
d="M384 482c11.333 -3.33301 19.8291 -6.16797 25.4961 -8.50098l26 -11c11.667 -5 21.167 -9.5 28.5 -13.5s16.333 -9.33301 27 -16s19.5 -13.334 26.5 -20.001l23.5 -23.5c8.66699 -9 15.667 -18.833 21 -29.5s10.333 -22.167 15 -34.5s8 -26.166 10 -41.499
s3 -31.333 3 -48c-1.33301 -63.333 -22.666 -121.5 -63.999 -174.5s-93 -89.167 -155 -108.5c-12 -4 -18.667 -12 -20 -24l-1 -8c-0.666992 -7.33301 -3.83398 -13.5 -9.50098 -18.5s-11.834 -7.5 -18.501 -7.5h-79c-6.66699 0 -12.167 2.5 -16.5 7.5
s-6.16602 11.167 -5.49902 18.5l1 8c1.33301 12 -3.66699 19.667 -15 23c-44 14.667 -80.167 39.834 -108.5 75.501s-44.5 77.5 -48.5 125.5c-0.666992 7.33301 1.66602 14 6.99902 20s11.666 9.33301 18.999 10l80 8c6 0.666992 11.333 -0.833008 16 -4.5
s7.66699 -8.5 9 -14.5c4.66699 -32.667 19.834 -58.834 45.501 -78.501s55.834 -27.834 90.501 -24.501c25.333 2.66699 49 11.334 71 26.001s39.333 33.334 52 56.001s19.334 46.667 20.001 72c0 20 -2.66699 37.167 -8 51.5s-14.5 26.666 -27.5 36.999
s-26.333 18.666 -40 24.999s-32.5 13.833 -56.5 22.5c-29.333 10.667 -50 19.334 -62 26.001c-53.333 29.333 -87.833 66.833 -103.5 112.5s-11.167 95.5 13.5 149.5c8.66699 19.333 19.834 37 33.501 53s28.667 30 45 42s34.166 21.667 53.499 29
c10.667 4 16.667 11.667 18 23l2 18c0.666992 7.33301 3.83398 13.333 9.50098 18s12.167 7 19.5 7h78c4.66699 0 8.83398 -1 12.501 -3s6.33398 -5 8.00098 -9s2.16699 -8.33301 1.5 -13l-1 -14c-1.33301 -12 3 -20 13 -24c18.667 -7.33301 36.334 -18 53.001 -32
s31.334 -33.167 44.001 -57.5s19.667 -51.166 21 -80.499c0 -4.66699 -1.33301 -9.16699 -4 -13.5s-6.16699 -7.83301 -10.5 -10.5s-8.83301 -4 -13.5 -4l-80 -2c-3.33301 0 -6.16602 0.333008 -8.49902 1s-4.5 1.83398 -6.5 3.50098s-3.66699 3.66699 -5 6
s-2.33301 4.83301 -3 7.5c-1.33301 8.66699 -3.83301 16.667 -7.5 24s-7.83398 13.166 -12.501 17.499s-9.5 8.16602 -14.5 11.499s-8.83301 5.66602 -11.5 6.99902s-4.33398 2 -5.00098 2c-21.333 5.33301 -42.833 4 -64.5 -4s-37.5 -23 -47.5 -45
c-3.33301 -7.33301 -5.66602 -13.833 -6.99902 -19.5s-1.83301 -13.667 -1.5 -24s5.16602 -20.666 14.499 -30.999s22.666 -20.166 39.999 -29.499c6.66699 -4 21.667 -10.333 45 -19z" />
    <glyph glyph-name="percent" unicode="%" horiz-adv-x="818" 
d="M376 576.5c-5.33301 -45 -25.833 -83.5 -61.5 -115.5s-75.834 -48 -120.501 -48s-81 16 -109 48s-39.333 70.5 -34 115.5s25.833 83.5 61.5 115.5s75.834 48 120.501 48s81 -16 109 -48s39.333 -70.5 34 -115.5zM180.5 576.5c-1 -9 1.33301 -16.834 7 -23.501
s13 -10 22 -10s17.167 3.33301 24.5 10s11.666 14.334 12.999 23.001c0 4.66699 -0.5 9.16699 -1.5 13.5s-2.83301 8 -5.5 11s-6 5.33301 -10 7s-8 2.5 -12 2.5c-9.33301 0 -17.666 -3.33301 -24.999 -10s-11.5 -14.5 -12.5 -23.5zM640 714.999c6 0 10 -2 12 -6
s1.66699 -8.66699 -1 -14l-345 -666c-2 -3.33301 -4.66699 -6.5 -8 -9.5s-7 -5.33301 -11 -7s-8 -2.5 -12 -2.5h-98c-5.33301 0 -9 1.83301 -11 5.5s-1.66699 8.16699 1 13.5l345 666c2.66699 5.33301 7 10 13 14s11.667 6 17 6h98zM737.5 258.999
c26.333 -33.333 35.6689 -72.5 28.002 -117.5s-29.834 -82.833 -66.501 -113.5c-34 -28.667 -72 -43 -114 -43h-8c-44 2.66699 -79.167 20.5 -105.5 53.5s-35.833 72.167 -28.5 117.5s29.666 83 66.999 113c36.667 30.667 77 45 121 43c44.667 -2 80.167 -19.667 106.5 -53z
M624.003 123.999c7.33301 6 11.835 13.668 13.502 23.001s-0.166016 17.333 -5.49902 24l-6 7c-10.667 2.66699 -16.334 4 -17.001 4h-1c-8 0 -15.667 -3 -23 -9s-11.833 -13.667 -13.5 -23s0.166016 -17.333 5.49902 -24s12.666 -10.334 21.999 -11.001
c8.66699 -0.666992 17 2.33301 25 9z" />
    <glyph glyph-name="ampersand" unicode="&#x26;" horiz-adv-x="720" 
d="M648 312c6.66699 0 12.1641 -2.33105 16.4971 -6.99805s6.16602 -10.667 5.49902 -18l-10 -80c-0.666992 -4.66699 -2.33398 -8.83398 -5.00098 -12.501s-6 -6.66699 -10 -9s-8.33301 -3.5 -13 -3.5h-26c-6.66699 0 -12.5 -2 -17.5 -6s-8.16699 -9.33301 -9.5 -16
c-14.667 -64 -49.5 -117.833 -104.5 -161.5s-116.167 -65.5 -183.5 -65.5h-8c-72 0 -130.667 24.667 -176 74s-63.666 108.666 -54.999 177.999l2 19c4.66699 39.333 18 76.166 40 110.499s50 63.166 84 86.499c-26 36.667 -36 77.667 -30 123l1 14
c4.66699 35.333 18 68.166 40 98.499s49.667 54.333 83 72s68.666 26.5 105.999 26.5h12c40.667 0 76.834 -10.833 108.501 -32.5s53.5 -50.5 65.5 -86.5c4.66699 -16.667 7.33398 -33.667 8.00098 -51c0 -4.66699 -1.16699 -9.16699 -3.5 -13.5
s-5.66602 -7.66602 -9.99902 -9.99902s-9.16602 -3.5 -14.499 -3.5h-81c-12.667 0 -20 5.66699 -22 17l-2 8c-4 12.667 -12 22.834 -24 30.501s-25.667 11.5 -41 11.5h-12c-20.667 0 -39.167 -6.5 -55.5 -19.5s-25.5 -29.167 -27.5 -48.5l-2 -13
c-1.33301 -9.33301 -0.5 -18.166 2.5 -26.499s7.5 -15.5 13.5 -21.5s13.5 -10.833 22.5 -14.5s18.5 -5.5 28.5 -5.5h3c6.66699 0 12 -2.33301 16 -7s5.66699 -10.667 5 -18l-9 -80c-0.666992 -4.66699 -2.33398 -8.83398 -5.00098 -12.501s-6 -6.66699 -10 -9
s-8.33301 -3.5 -13 -3.5c-36.667 0 -69.5 -11.833 -98.5 -35.5s-45.5 -52.5 -49.5 -86.5l-2 -19c-2.66699 -22 0.833008 -42.333 10.5 -61s24 -33.5 43 -44.5s40.5 -16.5 64.5 -16.5h8c19.333 0 38.333 3.83301 57 11.5s34.834 18.167 48.501 31.5s24.167 28.333 31.5 45
c4 7.33301 3.83301 14.333 -0.5 21s-10.5 10 -18.5 10h-20c-7.33301 0 -13 2.5 -17 7.5s-5.66699 10.833 -5 17.5l10 80c0.666992 4.66699 2.33398 8.83398 5.00098 12.501s6 6.66699 10 9s8 3.5 12 3.5h228z" />
    <glyph glyph-name="quotesingle" unicode="'" horiz-adv-x="246" 
d="M178 671c5.33301 0 9.83203 -2.16992 13.499 -6.50293s5.16699 -9.16602 4.5 -14.499l-17 -138c-0.666992 -6 -3.16699 -11 -7.5 -15s-9.16602 -6 -14.499 -6h-89c-5.33301 0 -9.83301 2 -13.5 6s-5.16699 9 -4.5 15l17 138c0 2.66699 0.666992 5.33398 2 8.00098
s3.16602 4.83398 5.49902 6.50098s4.83301 3.16699 7.5 4.5s5.33398 2 8.00098 2h88z" />
    <glyph glyph-name="parenleft" unicode="(" horiz-adv-x="351" 
d="M299 695c-8 -15.333 -17.666 -35.834 -28.999 -61.501s-27.666 -68.167 -48.999 -127.5s-34.166 -107.166 -38.499 -143.499s-3.5 -82.166 2.5 -137.499s13.333 -102 22 -140l12 -56c1.33301 -5.33301 0.5 -9.83301 -2.5 -13.5s-7.5 -5.5 -13.5 -5.5h-102
c-5.33301 0 -10.333 1.83301 -15 5.5s-7.66699 8.5 -9 14.5c-0.666992 5.33301 -1.83398 12.833 -3.50098 22.5s-4.66699 29.5 -9 59.5s-7.33301 57 -9 81s-3.33398 53.5 -5.00098 88.5s-0.833984 62.167 2.49902 81.5c4.66699 35.333 15.667 80.666 33 135.999
s33.333 102 48 140l23 56c2 5.33301 5.83301 10 11.5 14s11.5 6 17.5 6h102c5.33301 0 9 -2 11 -6s2 -8.66699 0 -14z" />
    <glyph glyph-name="parenright" unicode=")" horiz-adv-x="351" 
d="M274 695c1.33301 -6 2.66504 -13.6641 3.99805 -22.9971l8.5 -59c4.33301 -30 7.5 -57 9.5 -81s3.66699 -53.5 5 -88.5s0.333008 -61.833 -3 -80.5c-4.66699 -36 -15.667 -81.833 -33 -137.5s-33.333 -102.167 -48 -139.5l-23 -57
c-2.66699 -5.33301 -6.66699 -9.83301 -12 -13.5s-11 -5.5 -17 -5.5h-102c-5.33301 0 -9.16602 1.83301 -11.499 5.5s-2.16602 8.16699 0.500977 13.5l28.5 62.5c11.667 25.667 28.167 68.167 49.5 127.5s34.166 107.166 38.499 143.499s3.5 82.166 -2.5 137.499
s-13 101.666 -21 138.999l-12 56c-1.33301 5.33301 -0.5 10 2.5 14s7.16699 6 12.5 6h102c6 0 11.333 -2 16 -6s7.33398 -8.66699 8.00098 -14z" />
    <glyph glyph-name="asterisk" unicode="*" horiz-adv-x="397" 
d="M343 640l3.99707 -87.9971c0.666992 -6 -1 -11.167 -5 -15.5s-8.66699 -7.16602 -14 -8.49902l-10 -2c-5.33301 -0.666992 -9.33301 -3.16699 -12 -7.5s-2.66699 -8.83301 0 -13.5l4 -10c2.66699 -4.66699 2.83398 -9.83398 0.500977 -15.501
s-6.16602 -9.83398 -11.499 -12.501l-82 -45c-4.66699 -2.66699 -9.66699 -3.16699 -15 -1.5s-9.33301 4.83398 -12 9.50098l-4 10c-2 5.33301 -5.33301 8.16602 -10 8.49902s-9 -1.83398 -13 -6.50098l-9 -9c-4 -4 -8.83301 -6.33301 -14.5 -7s-10.5 1 -14.5 5l-61 57
c-4 3.33301 -5.83301 7.83301 -5.5 13.5s2.5 10.834 6.5 15.501l9 9c4 4 5.66699 8.33301 5 13s-3.66699 8 -9 10l-9 3c-4.66699 2 -8 5.5 -10 10.5s-1.66699 10.167 1 15.5l41 84c2 5.33301 5.83301 9.16602 11.5 11.499s10.834 2.5 15.501 0.5l9 -3
c5.33301 -2 10 -1.66699 14 1s6.33301 6.66699 7 12l1 11c0.666992 6 3.33398 11 8.00098 15s9.66699 6 15 6h88c3.33301 0 6.16602 -0.666992 8.49902 -2s4.33301 -2.83301 6 -4.5s2.83398 -3.83398 3.50098 -6.50098s0.666992 -5.33398 0 -8.00098l-3 -26
c-0.666992 -6 0.833008 -10.667 4.5 -14s8.16699 -4.33301 13.5 -3l26 4c5.33301 1.33301 10.166 0.333008 14.499 -3s6.83301 -7.66602 7.5 -12.999z" />
    <glyph glyph-name="plus" unicode="+" horiz-adv-x="498" 
d="M430 428c3.33301 0 6.50684 -0.998047 9.50684 -2.99805s5.16699 -4.5 6.5 -7.5s1.66602 -6.5 0.999023 -10.5l-10 -89c-0.666992 -5.33301 -3.33398 -10 -8.00098 -14s-9.66699 -6 -15 -6h-88c-5.33301 0 -10.333 -2 -15 -6s-7.33398 -9 -8.00098 -15l-10 -88
c-0.666992 -6 -3.33398 -11 -8.00098 -15s-9.66699 -6 -15 -6h-89c-5.33301 0 -9.83301 2 -13.5 6s-5.16699 9 -4.5 15l11 88c0.666992 6 -0.833008 11 -4.5 15s-8.16699 6 -13.5 6h-88c-5.33301 0 -9.83301 2 -13.5 6s-5.16699 8.66699 -4.5 14l11 89
c0.666992 6 3.16699 11 7.5 15s9.5 6 15.5 6h88c5.33301 0 10.166 2 14.499 6s6.83301 8.66699 7.5 14l11 89c0.666992 5.33301 3.33398 10 8.00098 14s9.66699 6 15 6h88c3.33301 0 6.16602 -0.5 8.49902 -1.5s4.16602 -2.33301 5.49902 -4s2.5 -3.83398 3.5 -6.50098
s1.16699 -5.33398 0.5 -8.00098l-10 -89c-0.666992 -5.33301 0.666016 -10 3.99902 -14s8 -6 14 -6h88z" />
    <glyph glyph-name="comma" unicode="," horiz-adv-x="227" 
d="M163 94c5.33301 0 9.33301 -2 12 -6s2.66699 -8.66699 0 -14l-45 -112c-2 -5.33301 -5.83301 -9.83301 -11.5 -13.5s-11.167 -5.5 -16.5 -5.5h-32c-6 0 -10.833 2 -14.5 6s-5.5 8.66699 -5.5 14l3 110c0.666992 6 3 11 7 15s8.66699 6 14 6h89z" />
    <glyph glyph-name="hyphen" unicode="-" horiz-adv-x="498" 
d="M430 428c5.33301 0 9.83203 -2.00098 13.499 -6.00098s4.83398 -9 3.50098 -15l-10 -89c-0.666992 -5.33301 -3.33398 -10 -8.00098 -14s-9.66699 -6 -15 -6h-346c-5.33301 0 -9.83301 2 -13.5 6s-5.16699 8.66699 -4.5 14l11 89c0 2.66699 0.833008 5.33398 2.5 8.00098
s3.5 5 5.5 7s4.33301 3.5 7 4.5s5.33398 1.5 8.00098 1.5h346z" />
    <glyph glyph-name="period" unicode="." horiz-adv-x="246" 
d="M132 119c20 0 36.167 -7 48.5 -21s17.333 -31.167 15 -51.5s-11.5 -37.666 -27.5 -51.999s-34 -21.5 -54 -21.5s-36.167 7.16699 -48.5 21.5s-17.333 31.666 -15 51.999s11.5 37.5 27.5 51.5s34 21 54 21z" />
    <glyph glyph-name="slash" unicode="/" horiz-adv-x="589" 
d="M526 715c5.33301 0 9.16602 -2 11.499 -6s1.83301 -8.66699 -1.5 -14l-345 -666c-1.33301 -3.33301 -3.66602 -6.5 -6.99902 -9.5s-7 -5.33301 -11 -7s-8 -2.5 -12 -2.5h-98c-6 0 -10 1.83301 -12 5.5s-1.66699 8.16699 1 13.5l345 666c2.66699 5.33301 7 10 13 14
s12 6 18 6h98z" />
    <glyph glyph-name="zero" unicode="0" horiz-adv-x="641" 
d="M365.5 748c70.333 0 127.333 -25 171 -75s61.167 -110.333 52.5 -181l-28 -236c-8.66699 -70.667 -40.834 -131 -96.501 -181s-118.667 -75 -189 -75s-127.333 25 -171 75s-61.167 110.333 -52.5 181l28 236c8.66699 70.667 40.834 131 96.501 181s118.667 75 189 75z
M432 256l28 236c4 34.667 -4.66699 64.334 -26 89.001s-49.333 37 -84 37s-65.667 -12.333 -93 -37s-43.333 -54.334 -48 -89.001l-28 -236c-4 -34.667 4.66699 -64.334 26 -89.001s49.333 -37 84 -37s65.667 12.333 93 37s43.333 54.334 48 89.001z" />
    <glyph glyph-name="one" unicode="1" horiz-adv-x="318" 
d="M108 689c13.333 4.66699 31.999 13.334 55.999 26.001l87 48c5.33301 2.66699 9.5 3 12.5 1s4.16699 -6 3.5 -12l-88 -731c-0.666992 -6 -3.16699 -11 -7.5 -15s-9.16602 -6 -14.499 -6h-89c-5.33301 0 -9.83301 2 -13.5 6s-5.16699 9 -4.5 15l62 516
c0.666992 5.33301 -0.5 9.5 -3.5 12.5s-5.83301 4.16699 -8.5 3.5c-5.33301 -1.33301 -11 -3.33301 -17 -6c-2 -0.666992 -3.66699 -0.333984 -5 0.999023s-2.33301 3.5 -3 6.5s-0.666992 6.16699 0 9.5l12 97c0.666992 5.33301 3 10.833 7 16.5s8.66699 9.5 14 11.5z" />
    <glyph glyph-name="two" unicode="2" horiz-adv-x="624" 
d="M351 746c68 3.33301 123.832 -18.667 167.499 -66s61.5 -105.333 53.5 -174l-2 -12c-2 -18.667 -7.33301 -40 -16 -64c-14 -38 -91.667 -133.667 -233 -287c-2.66699 -2.66699 -3.5 -5.5 -2.5 -8.5s3.16699 -4.5 6.5 -4.5h176c7.33301 0 13.166 -2.5 17.499 -7.5
s5.83301 -11.167 4.5 -18.5l-9 -78c-0.666992 -7.33301 -3.83398 -13.5 -9.50098 -18.5s-12.167 -7.5 -19.5 -7.5h-412c-11.333 0 -18.666 5 -21.999 15s-1 19 7 27l62 65l204.5 223c63.667 72 99.834 116.667 108.501 134c4.66699 12.667 7.33398 22.667 8.00098 30l2 12
c4 33.333 -5 60.833 -27 82.5s-49.667 30.5 -83 26.5c-28 -3.33301 -52.167 -15.833 -72.5 -37.5s-32.166 -46.5 -35.499 -74.5l-3 -21c-0.666992 -6.66699 -3.83398 -12.5 -9.50098 -17.5s-11.834 -7.5 -18.501 -7.5h-79c-6.66699 0 -12.167 2.5 -16.5 7.5
s-6.16602 10.833 -5.49902 17.5l2 17c8 65.333 36.667 122 86 170s106 73.667 170 77z" />
    <glyph glyph-name="three" unicode="3" horiz-adv-x="663" 
d="M109 723c0.666992 7.33301 3.66699 13.332 9 17.999s11.666 7 18.999 7h454c10 0 16.833 -4.33301 20.5 -13s2.16699 -17 -4.5 -25l-157 -206c-4.66699 -6 -6.66699 -12.333 -6 -19s4 -12 10 -16c39.333 -24.667 67.5 -59.5 84.5 -104.5s19.167 -93.5 6.5 -145.5
c-12.667 -50.667 -38.334 -95.334 -77.001 -134.001s-83 -64.334 -133 -77.001c-71.333 -18 -134.5 -8.66699 -189.5 28s-86.833 88 -95.5 154c-0.666992 4.66699 0 9.33398 2 14.001s5 8.5 9 11.5s8.33301 4.83301 13 5.5l82 11c6 0.666992 11.333 -0.666016 16 -3.99902
s7.66699 -8 9 -14c4.66699 -24.667 16.667 -44.834 36 -60.501s42.333 -23.5 69 -23.5c36 0 67.833 13.833 95.5 41.5s41.5 59.834 41.5 96.501c-0.666992 30.667 -11.667 56 -33 76s-47.666 30 -78.999 30h-70c-9.33301 0 -15.833 4.33301 -19.5 13s-2.5 17.334 3.5 26.001
l158 205h-262c-6.66699 0 -12.167 2.5 -16.5 7.5s-6.16602 10.833 -5.49902 17.5z" />
    <glyph glyph-name="four" unicode="4" horiz-adv-x="600" 
d="M522 458l-18.0029 -145.998c0 -4 0.666992 -7.5 2 -10.5s3.5 -5.5 6.5 -7.5s6.16699 -3 9.5 -3h10c5.33301 0 9.83301 -2 13.5 -6s5.16699 -8.66699 4.5 -14l-11 -89c-0.666992 -6 -3.16699 -11 -7.5 -15s-9.5 -6 -15.5 -6h-9c-3.33301 0 -6.16602 -0.5 -8.49902 -1.5
s-4.66602 -2.33301 -6.99902 -4s-4.16602 -3.83398 -5.49902 -6.50098s-2 -5.33398 -2 -8.00098l-15 -121c-0.666992 -5.33301 -3.16699 -10 -7.5 -14s-9.5 -6 -15.5 -6h-88c-5.33301 0 -9.83301 2 -13.5 6s-5.16699 8.66699 -4.5 14l15 121
c0.666992 5.33301 -0.833008 10 -4.5 14s-8.16699 6 -13.5 6h-274c-6 0 -10 1.83301 -12 5.5s-1.66699 8.16699 1 13.5l283 527c2.66699 4.66699 7 8.83398 13 12.501s12 5.5 18 5.5h100c5.33301 0 9 -1.83301 11 -5.5s1.66699 -7.83398 -1 -12.501l-211 -397
c-2.66699 -4.66699 -3 -9 -1 -13s5.66699 -6 11 -6h77c6 0 11.167 2 15.5 6s6.83301 9 7.5 15l18 146c0.666992 6 3.16699 11 7.5 15s9.5 6 15.5 6h88c5.33301 0 9.83301 -2 13.5 -6s5.16699 -9 4.5 -15z" />
    <glyph glyph-name="five" unicode="5" horiz-adv-x="609" 
d="M328 481c40.667 0 77.6709 -7.83203 111.004 -23.499s60 -37.5 80 -65.5c37.333 -54.667 44 -118.667 20 -192c-15.333 -48 -42.166 -89.5 -80.499 -124.5s-81.5 -57.833 -129.5 -68.5c-20 -4.66699 -40 -7 -60 -7c-51.333 0 -96.666 15 -135.999 45
c-46.667 35.333 -74.334 83.333 -83.001 144c-0.666992 7.33301 1.5 14.166 6.5 20.499s11.5 10.166 19.5 11.499l79 11c6 0.666992 11.5 -0.666016 16.5 -3.99902s8.16699 -8 9.5 -14c5.33301 -26 18.333 -46.667 39 -62c26.667 -20.667 58.334 -26.667 95.001 -18
c23.333 4.66699 44.166 15.5 62.499 32.5s31.166 36.833 38.499 59.5c10.667 33.333 8.33398 61 -6.99902 83c-19.333 28.667 -51.666 43 -96.999 43h-190c-8 0 -14.167 2.66699 -18.5 8s-5.5 12 -3.5 20l74 345c1.33301 6.66699 4.66602 12.167 9.99902 16.5
s11.333 6.5 18 6.5h334c7.33301 0 13.166 -2.5 17.499 -7.5s6.16602 -11.167 5.49902 -18.5l-10 -78c-0.666992 -7.33301 -3.83398 -13.5 -9.50098 -18.5s-11.834 -7.5 -18.501 -7.5h-217c-4.66699 0 -9 -1 -13 -3s-7.33301 -4.83301 -10 -8.5s-4.66699 -7.5 -6 -11.5
l-18 -85c-1.33301 -8 0.166992 -14.833 4.5 -20.5s10.166 -8.5 17.499 -8.5h49z" />
    <glyph glyph-name="six" unicode="6" horiz-adv-x="595" 
d="M324 488c38 0 72.999 -7.83301 104.999 -23.5s57.333 -36.834 76 -63.501s31.167 -57.5 37.5 -92.5s3.16602 -71.833 -9.50098 -110.5c-17.333 -57.333 -51.166 -104.666 -101.499 -141.999s-105.166 -56 -164.499 -56h-2c-63.333 -0 -115.333 21.833 -156 65.5
s-59.667 97.167 -57 160.5h-2l2 18l16 133c12 97.333 55.167 181.5 129.5 252.5s159.833 110.167 256.5 117.5c7.33301 0.666992 13.5 -1.5 18.5 -6.5s7.16699 -11.5 6.5 -19.5l-10 -78c-0.666992 -6.66699 -3.5 -12.5 -8.5 -17.5s-10.833 -7.83301 -17.5 -8.5
c-44.667 -4 -86.5 -19.5 -125.5 -46.5s-69.167 -60.833 -90.5 -101.5c32 12.667 64.333 19 97 19zM286.999 130c31.333 0 59.335 11.168 84.002 33.501s39 49.166 43 80.499s-3.83301 58.166 -23.5 80.499s-44.834 33.5 -75.501 33.5c-34 0 -63.833 -11 -89.5 -33
s-40.167 -49 -43.5 -81c-4 -31.333 3.66699 -58.166 23 -80.499s44.666 -33.5 75.999 -33.5h6z" />
    <glyph glyph-name="seven" unicode="7" horiz-adv-x="576" 
d="M73 585c-7.33301 0 -13.1719 2.5 -17.5049 7.5s-6.16602 11.167 -5.49902 18.5l10 78c0.666992 7.33301 3.83398 13.5 9.50098 18.5s11.834 7.5 18.501 7.5h415c10 0 17 -4.16699 21 -12.5s3.33301 -16.833 -2 -25.5l-184 -296c-69.333 -112 -113.333 -230.333 -132 -355
c-0.666992 -4.66699 -2.33398 -9 -5.00098 -13s-6 -7.16699 -10 -9.5s-8.33301 -3.5 -13 -3.5h-78c-7.33301 0 -13.166 2.5 -17.499 7.5s-6.16602 11.167 -5.49902 18.5c21.333 146 72.333 283.667 153 413l67 108c5.33301 8.66699 5.83301 17.167 1.5 25.5
s-11.166 12.5 -20.499 12.5h-205z" />
    <glyph glyph-name="eight" unicode="8" horiz-adv-x="602" 
d="M550 541c-6 -51.333 -29 -97 -69 -137c45.333 -46.667 64 -104 56 -172c-8 -64 -37.167 -118.667 -87.5 -164s-107.5 -68 -171.5 -68h-24c-63.333 0 -114.833 22.667 -154.5 68s-55.5 100 -47.5 164c8 68 40.333 125.333 97 172c-30.667 39.333 -42.667 85 -36 137
c6.66699 57.333 32.5 106.166 77.5 146.499s95.833 60.5 152.5 60.5h27c56.667 0 102.667 -20.167 138 -60.5s49.333 -89.166 42 -146.499zM327 618c-20.667 0 -39.333 -7.50098 -56 -22.501s-26.334 -33.167 -29.001 -54.5c-2 -14 -0.166992 -26.833 5.5 -38.5
s13.834 -21 24.501 -28s23 -10.5 37 -10.5h27c10 0 20 2.16699 30 6.5s18.833 9.83301 26.5 16.5s14 14.834 19 24.501s8.16699 19.5 9.5 29.5c2.66699 21.333 -2.5 39.5 -15.5 54.5s-30.167 22.5 -51.5 22.5h-27zM294.001 129.999c28 0 53.166 9.99902 75.499 29.999
s35.166 44 38.499 72c2 18.667 -0.666992 35.834 -8 51.501s-18.166 28 -32.499 37s-30.833 13.5 -49.5 13.5h-23c-28 0 -53.167 -10 -75.5 -30s-35.166 -44 -38.499 -72s3.66699 -52 21 -72s40 -30 68 -30h24z" />
    <glyph glyph-name="nine" unicode="9" horiz-adv-x="595" 
d="M330 748c63.333 0 115.331 -21.6709 155.998 -65.0039s59.667 -96.666 57 -159.999h2l-2 -19l-16 -133c-6 -47.333 -20.5 -93.166 -43.5 -137.499s-51.667 -82.833 -86 -115.5s-73.833 -59.5 -118.5 -80.5s-90.667 -33.167 -138 -36.5
c-7.33301 -0.666992 -13.5 1.66602 -18.5 6.99902s-7.16699 11.666 -6.5 18.999l10 79c0.666992 6.66699 3.5 12.334 8.5 17.001s10.833 7.33398 17.5 8.00098c44.667 4.66699 86.5 20.334 125.5 47.001s69.167 60.667 90.5 102c-32 -13.333 -64.333 -20 -97 -20
c-38 0 -73 7.83301 -105 23.5s-57.333 36.834 -76 63.501s-31.167 57.5 -37.5 92.5s-3.16602 71.833 9.50098 110.5c11.333 38 30.5 72.167 57.5 102.5s58.833 53.833 95.5 70.5s74.334 25 113.001 25h2zM280.998 389.996c33.333 0 62.833 11.001 88.5 33.001
s40.5 49 44.5 81c3.33301 31.333 -4.66699 58.166 -24 80.499s-44.666 33.5 -75.999 33.5h-6c-20.667 0 -40.334 -5 -59.001 -15s-34 -23.833 -46 -41.5s-19.333 -36.834 -22 -57.501c-4 -31.333 3.83301 -58.166 23.5 -80.499s45.167 -33.5 76.5 -33.5z" />
    <glyph glyph-name="colon" unicode=":" horiz-adv-x="279" 
d="M132 119c20 0 36.167 -7 48.5 -21s17.333 -31.167 15 -51.5s-11.5 -37.666 -27.5 -51.999s-34 -21.5 -54 -21.5s-36.167 7.16699 -48.5 21.5s-17.333 31.666 -15 51.999s11.5 37.5 27.5 51.5s34 21 54 21zM165 393c20 0 36.167 -7.16699 48.5 -21.5
s17.166 -31.5 14.499 -51.5c-0.666992 -10 -3.5 -19.5 -8.5 -28.5s-11.167 -16.667 -18.5 -23s-15.666 -11.5 -24.999 -15.5s-19 -6 -29 -6c-20 0 -36.167 7.16699 -48.5 21.5s-17.333 31.5 -15 51.5s11.5 37.167 27.5 51.5s34 21.5 54 21.5z" />
    <glyph glyph-name="semicolon" unicode=";" horiz-adv-x="269" 
d="M163 94c5.33301 0 9.33301 -2 12 -6s2.66699 -8.66699 0 -14l-45 -112c-2 -5.33301 -5.83301 -9.83301 -11.5 -13.5s-11.167 -5.5 -16.5 -5.5h-32c-6 0 -10.833 2 -14.5 6s-5.5 8.66699 -5.5 14l3 110c0.666992 6 3 11 7 15s8.66699 6 14 6h89zM155 393
c20 0 36.165 -7.16504 48.498 -21.498s17.166 -31.5 14.499 -51.5c-0.666992 -10 -3.5 -19.5 -8.5 -28.5s-11.167 -16.667 -18.5 -23s-15.666 -11.5 -24.999 -15.5s-19 -6 -29 -6c-13.333 0 -25.166 3.33301 -35.499 10s-18 15.5 -23 26.5s-6.66699 23.167 -5 36.5
s6.33398 25.666 14.001 36.999s17.5 20.166 29.5 26.499s24.667 9.5 38 9.5z" />
    <glyph glyph-name="less" unicode="&#x3c;" horiz-adv-x="505" 
d="M437 628c4.66699 3.33301 8.83008 6 12.4971 8l5.5 3l-2 -21l-14 -118c-2 -13.333 -9 -24 -21 -32l-139 -93c-5.33301 -3.33301 -8.16602 -7.5 -8.49902 -12.5s1.5 -8.83301 5.5 -11.5l117 -94c10 -8 14.333 -18.667 13 -32l-15 -118
c-1.33301 -14 -2.16602 -21.167 -2.49902 -21.5s-5.5 3.5 -15.5 11.5l-317 254c-4.66699 2.66699 -6.66699 6.5 -6 11.5s3.33398 9.16699 8.00098 12.5z" />
    <glyph glyph-name="equal" unicode="=" horiz-adv-x="523" 
d="M455 532c5.33301 0 9.83398 -2 13.501 -6s5.16699 -9 4.5 -15l-11 -89c-0.666992 -5.33301 -3.16699 -10 -7.5 -14s-9.5 -6 -15.5 -6h-345c-6 0 -10.667 2 -14 6s-4.66602 8.66699 -3.99902 14l10 89c0.666992 4 2.16699 7.5 4.5 10.5s5.16602 5.5 8.49902 7.5
s6.66602 3 9.99902 3h346zM430.001 321c3.33301 0 6.50098 -1 9.50098 -3s5.16699 -4.5 6.5 -7.5s2 -6.5 2 -10.5l-11 -89c-0.666992 -5.33301 -3.33398 -10 -8.00098 -14s-9.66699 -6 -15 -6h-346c-5.33301 0 -9.83301 2 -13.5 6s-5.16699 8.66699 -4.5 14l11 89
c0.666992 4 2 7.5 4 10.5s4.66699 5.5 8 7.5s7 3 11 3h346z" />
    <glyph glyph-name="greater" unicode="&#x3e;" horiz-adv-x="505" 
d="M450 375c4 -3.33301 5.66797 -7.33301 5.00098 -12s-3.33398 -8.66699 -8.00098 -12l-378 -254c-5.33301 -3.33301 -9.83301 -6 -13.5 -8l-5.5 -3c0 0.666992 0.666992 8 2 22l14 116c2 14 9 25 21 33l139 94c5.33301 3.33301 8.33301 7.33301 9 12
s-1.33301 8.66699 -6 12l-117 93c-10 8 -14.333 19 -13 33l14 117c2 13.333 3.16699 20.333 3.5 21s5.5 -3 15.5 -11z" />
    <glyph glyph-name="question" unicode="?" horiz-adv-x="520" 
d="M206 119c30 0 49.5 -12 58.5 -36s5.83301 -48.167 -9.5 -72.5s-37.333 -36.5 -66 -36.5c-32 0 -52 14.333 -60 43c-7.33301 28 -1.33301 53.333 18 76c15.333 17.333 35 26 59 26zM349 724c37.333 -13.333 67.0049 -36.8281 89.0049 -70.4951s32.667 -71.167 32 -112.5
c0 -20 -2.16699 -38.333 -6.5 -55s-11.5 -32.334 -21.5 -47.001s-19.333 -27 -28 -37s-21 -23.333 -37 -40s-28.333 -30 -37 -40c-28.667 -34 -48 -74 -58 -120c-0.666992 -2.66699 -1.33398 -8.33398 -2.00098 -17.001s-1.66699 -16.334 -3 -23.001s-3.33301 -11 -6 -13
c-3.33301 -2.66699 -24.166 -4.16699 -62.499 -4.5s-59.166 1.16699 -62.499 4.5c-3.33301 4 0.333984 29.333 11.001 76c11.333 50 31.666 96 60.999 138c5.33301 8 12.666 17 21.999 27s18.333 19.167 27 27.5l27.5 27c9.66699 9.66699 17.834 19.167 24.501 28.5
s12.167 19.166 16.5 29.499s6.16602 21.166 5.49902 32.499s-4.33398 22.666 -11.001 33.999c-8 13.333 -19.667 22.666 -35 27.999c-19.333 5.33301 -35 7.5 -47 6.5s-22.5 -5.16699 -31.5 -12.5s-16 -15 -21 -23s-10.333 -16 -16 -24s-11.167 -13.333 -16.5 -16
c-12.667 -5.33301 -43.334 -2.66602 -92.001 8.00098c-8.66699 2 -14.834 6.83301 -18.501 14.5s-3.83398 15.834 -0.500977 24.501c23.333 59.333 64.666 104 123.999 134s117 35 173 15z" />
    <glyph glyph-name="at" unicode="@" horiz-adv-x="1166" 
d="M773 810c66.667 -13.333 125.826 -39.833 177.493 -79.5s91.834 -89 120.501 -148s43.667 -123.5 45 -193.5c0.666992 -46 -4.33301 -92 -15 -138c-11.333 -46.667 -32.166 -86.334 -62.499 -119.001s-64 -55.667 -101 -69s-74.5 -18.666 -112.5 -15.999
c-21.333 2 -41.5 6.66699 -60.5 14s-36.5 17.666 -52.5 30.999s-29.333 28.666 -40 45.999c-50.667 -39.333 -105 -59 -163 -59h-8c-61.333 2 -107.333 26.333 -138 73c-32 46.667 -38.333 101.334 -19 164.001c18 57.333 52.5 102.5 103.5 135.5s106.5 48.167 166.5 45.5
c12 0 25.667 -3.5 41 -10.5s24.333 -12.833 27 -17.5c1.33301 10 6.33301 18.667 15 26s18 10.666 28 9.99902l68 -3c6 -0.666992 10.833 -3.33398 14.5 -8.00098s5.16699 -10 4.5 -16l-35 -204c-1.33301 -14 -1.5 -26.167 -0.5 -36.5s4.33301 -19 10 -26
s11.167 -12.667 16.5 -17s11.833 -7.83301 19.5 -10.5s13.5 -4.5 17.5 -5.5s7.66699 -1.5 11 -1.5c14.667 -1.33301 29.5 0 44.5 4s30.5 13.333 46.5 28s26.667 34 32 58c8.66699 34.667 12.667 69.667 12 105c-0.666992 51.333 -11.667 98.833 -33 142.5
s-51.166 80.167 -89.499 109.5s-81.833 49 -130.5 59c-58 11.333 -116.833 10 -176.5 -4s-116.167 -40.333 -169.5 -79c-53.333 -38 -97.666 -84.333 -132.999 -139s-58 -112.334 -68 -173.001c-9.33301 -52.667 -8.16602 -103.167 3.50098 -151.5
s33.167 -91.166 64.5 -128.499c58 -71.333 136.667 -109.666 236 -114.999c6 -0.666992 10.833 -3.33398 14.5 -8.00098s5.16699 -10.334 4.5 -17.001l-10 -81c-0.666992 -6.66699 -3.66699 -12.5 -9 -17.5s-11.333 -7.16699 -18 -6.5
c-65.333 2.66699 -125.666 17.334 -180.999 44.001s-102.666 63.667 -141.999 111c-41.333 50.667 -69.833 108.334 -85.5 173.001s-17.5 132.334 -5.5 203.001c13.333 80 42.833 155.667 88.5 227s103.5 132 173.5 182c68.667 49.333 142.5 83.333 221.5 102
s156.167 20.334 231.5 5.00098zM649.992 305c6.66699 24 4.66602 44 -6.00098 60c-10 14.667 -26 22.334 -48 23.001h-1h-2c-26 0 -51.333 -9.33301 -76 -28s-41 -41.334 -49 -68.001c-7.33301 -24 -5.66602 -43.667 5.00098 -59s27 -23.333 49 -24
c26.667 0.666992 52.5 10.167 77.5 28.5s41.833 40.833 50.5 67.5z" />
    <glyph glyph-name="A" unicode="A" horiz-adv-x="735" 
d="M441 683c2.66699 5.33301 6.66602 7.99902 11.999 7.99902s9 -2.66699 11 -8l220 -664c2 -4 1.5 -7.83301 -1.5 -11.5s-6.83301 -5.5 -11.5 -5.5h-107c-10 0 -16.667 4.66699 -20 14l-24 72c-1.33301 4.66699 -4.66602 7 -9.99902 7h-264
c-5.33301 0 -9.33301 -2.33301 -12 -7l-43 -73c-5.33301 -8.66699 -13 -13 -23 -13h-107c-4.66699 0 -8 1.83301 -10 5.5s-1.66699 7.83398 1 12.501zM322.999 239.999c-2 -4 -2.16797 -8 -0.500977 -12s4.83398 -6 9.50098 -6h124c4.66699 0 8.5 2 11.5 6s3.83301 8 2.5 12
l-45 135c-2 4.66699 -5.5 7 -10.5 7s-9.16699 -2.33301 -12.5 -7z" />
    <glyph glyph-name="B" unicode="B" horiz-adv-x="661" 
d="M541 374c24.667 -19.333 43.165 -43.332 55.498 -71.999s16.5 -59.667 12.5 -93c-4.66699 -41.333 -20.834 -79 -48.501 -113s-61.5 -59.333 -101.5 -76c-30.667 -12.667 -61.334 -19 -92.001 -19h-294c-7.33301 0 -13.166 2.5 -17.499 7.5
s-6.16602 11.167 -5.49902 18.5l32 266l15 123l32 266c0.666992 4.66699 2.33398 9 5.00098 13s6.16699 7.16699 10.5 9.5s8.83301 3.5 13.5 3.5h251c31.333 0 61 -6.66699 89 -20c36 -16.667 63.5 -41.834 82.5 -75.501s26.167 -71.167 21.5 -112.5
c-5.33301 -46 -25.666 -88 -60.999 -126zM244.998 570.001l-17.001 -139.001c-0.666992 -4 0.333008 -7.5 3 -10.5s6 -4.5 10 -4.5h133c16 0 31.333 3.83301 46 11.5s26.667 18 36 31s15 26.833 17 41.5c2.66699 23.333 -3.66602 43.333 -18.999 60s-35.333 25 -60 25h-133
c-2.66699 0 -5.16699 -0.666992 -7.5 -2s-4.33301 -3.16602 -6 -5.49902s-2.5 -4.83301 -2.5 -7.5zM380.997 124c24.667 0 46.667 8.33203 66 24.999s30.333 36.667 33 60c2 14.667 -0.166992 28.5 -6.5 41.5s-15.833 23.333 -28.5 31s-27 11.5 -43 11.5h-176
c-2.66699 0 -5.16699 -0.666992 -7.5 -2s-4.33301 -3.16602 -6 -5.49902s-2.5 -4.83301 -2.5 -7.5l-17 -139c-0.666992 -4 0.333008 -7.5 3 -10.5s6 -4.5 10 -4.5h175z" />
    <glyph glyph-name="C" unicode="C" horiz-adv-x="754" 
d="M428 596c-59.333 -5.33301 -112.495 -30.3311 -159.495 -74.998s-75.5 -96.667 -85.5 -156c-10.667 -69.333 4.66602 -128.833 45.999 -178.5s96.333 -74.5 165 -74.5c48.667 0 94.667 13.333 138 40c6 3.33301 12.167 4.5 18.5 3.5s11.166 -3.83301 14.499 -8.5l42 -62
c4 -6 5 -12.667 3 -20s-6.33301 -13 -13 -17c-30.667 -20 -63.334 -35.333 -98.001 -46c-40.667 -13.333 -81 -20 -121 -20s-78.667 6.66699 -116 20c-71.333 25.333 -126.5 70.166 -165.5 134.499s-53.5 136.833 -43.5 217.5c9.33301 80.667 41 153.167 95 217.5
s119.333 109.5 196 135.5c41.333 14 82.666 21 123.999 21c38 0 76.667 -7 116 -21c44 -16 81.667 -38.667 113 -68c4.66699 -4.66699 6.83398 -10.834 6.50098 -18.501s-3.5 -14.167 -9.5 -19.5l-62 -56c-4.66699 -4.66699 -10.334 -7.16699 -17.001 -7.5
s-12.334 1.5 -17.001 5.5c-46 42 -102.667 59.667 -170 53z" />
    <glyph glyph-name="D" unicode="D" horiz-adv-x="679" 
d="M417 687c74.667 -26 131.332 -71.5 169.999 -136.5s50.667 -137.5 36 -217.5c-12 -68 -42.5 -129.5 -91.5 -184.5s-107.5 -94.833 -175.5 -119.5c-47.333 -17.333 -94.666 -26 -141.999 -26h-142c-6.66699 0 -12.167 2.33301 -16.5 7s-6.16602 10.667 -5.49902 18l79 653
c0.666992 7.33301 3.66699 13.333 9 18s11.666 7 18.999 7h141c41.333 0 81 -6.33301 119 -19zM228.998 125c66 0 125.333 22.5 178 67.5s82.834 99 90.501 162s-9.33301 117 -51 162s-95.834 67.5 -162.501 67.5h-29c-6 0 -9.33301 -3 -10 -9l-53 -441
c-0.666992 -6 2 -9 8 -9h29z" />
    <glyph glyph-name="E" unicode="E" horiz-adv-x="587" 
d="M132 697c1.33301 6.66699 8.6709 10 22.0039 10h364c5.33301 0 9.83301 -1 13.5 -3s5.5 -4.33301 5.5 -7c0 -0.666992 -1.33301 -11 -4 -31l-7 -62c-0.666992 -5.33301 -3.33398 -10 -8.00098 -14s-9.66699 -6 -15 -6h-235c-5.33301 0 -10.333 -2 -15 -6
s-7.33398 -9 -8.00098 -15l-20 -170c-0.666992 -6 0.666016 -11 3.99902 -15s8 -6 14 -6h118c6 0 10.667 -2 14 -6s4.66602 -8.66699 3.99902 -14l-10 -82c-0.666992 -6 -3.16699 -11 -7.5 -15s-9.5 -6 -15.5 -6h-118c-5.33301 0 -10.333 -2 -15 -6
s-7.33398 -8.66699 -8.00098 -14l-10 -83c-0.666992 -6 0.833008 -11 4.5 -15s8.16699 -6 13.5 -6h235c5.33301 0 9.83301 -2 13.5 -6s5.16699 -8.66699 4.5 -14l-8 -63c-2 -16.667 -3 -26.667 -3 -30c-1.33301 -6.66699 -8.66602 -10 -21.999 -10h-364
c-5.33301 0 -9.83301 1 -13.5 3s-5.5 4.33301 -5.5 7c0.666992 3.33301 2 13.333 4 30l75 624c2 20 3 30.333 3 31z" />
    <glyph glyph-name="F" unicode="F" horiz-adv-x="586" 
d="M131 696c0.666992 2.66699 2.99902 4.99902 6.99902 6.99902s9 3 15 3h363c6 0 10.833 -1 14.5 -3s5.5 -4.33301 5.5 -7c-0.666992 -2 -1.16699 -4.66699 -1.5 -8s-0.833008 -7.33301 -1.5 -12s-1 -8.33398 -1 -11.001l-8 -68c-0.666992 -6 -3.33398 -11 -8.00098 -15
s-9.66699 -6 -15 -6h-235c-3.33301 0 -6.66602 -0.833008 -9.99902 -2.5s-6.16602 -4.16699 -8.49902 -7.5s-3.83301 -6.66602 -4.5 -9.99902l-19 -162c-0.666992 -6 0.666016 -11 3.99902 -15s8 -6 14 -6h118c6 0 10.667 -2 14 -6s4.66602 -8.66699 3.99902 -14l-11 -89
c-0.666992 -6 -3.16699 -11 -7.5 -15s-9.16602 -6 -14.499 -6h-119c-5.33301 0 -10.333 -2 -15 -6s-7.33398 -8.66699 -8.00098 -14l-24 -200c-0.666992 -6 -3.16699 -11 -7.5 -15s-9.16602 -6 -14.499 -6h-89c-5.33301 0 -9.83301 2 -13.5 6s-5.16699 9 -4.5 15l77 642
c0.666992 2.66699 1.33398 6.33398 2.00098 11.001s1.16699 8.66699 1.5 12s0.5 6 0.5 8z" />
    <glyph glyph-name="G" unicode="G" horiz-adv-x="849" 
d="M441 290c-7.33301 0 -13.1631 2.5 -17.4961 7.5s-6.16602 10.833 -5.49902 17.5l10 79c0.666992 7.33301 3.83398 13.5 9.50098 18.5s12.167 7.5 19.5 7.5h319c7.33301 0 13.166 -2.5 17.499 -7.5s5.83301 -11.167 4.5 -18.5l-4 -39
c-10 -81.333 -42.333 -154.166 -97 -218.499s-120.334 -109.166 -197.001 -134.499c-40.667 -13.333 -81.167 -20 -121.5 -20s-79.166 6.66699 -116.499 20c-71.333 25.333 -126.5 70.166 -165.5 134.499s-53.5 137.166 -43.5 218.499c9.33301 80 41 152.167 95 216.5
s119.333 109.5 196 135.5c41.333 14 82.666 21 123.999 21c38 0 76.667 -7 116 -21c44 -16 81.667 -38.667 113 -68c4.66699 -4.66699 6.83398 -10.834 6.50098 -18.501s-3.5 -14.167 -9.5 -19.5l-62 -56c-4.66699 -4.66699 -10.334 -7.16699 -17.001 -7.5
s-12.334 1.5 -17.001 5.5c-40 36 -88.667 54 -146 54c-71.333 0 -134.333 -26.833 -189 -80.5s-82.334 -116.834 -83.001 -189.501c-0.666992 -55.333 16.5 -103.166 51.5 -143.499s79.5 -63.833 133.5 -70.5c58 -6.66699 112.833 5.83301 164.5 37.5
s89.5 74.167 113.5 127.5c1.33301 2.66699 1.16602 5.33398 -0.500977 8.00098s-3.83398 4 -6.50098 4h-195z" />
    <glyph glyph-name="H" unicode="H" horiz-adv-x="717" 
d="M503 394l34.998 292.003c0.666992 5.33301 3.16699 10.166 7.5 14.499s9.5 6.5 15.5 6.5h88c6 0 10.667 -2.16699 14 -6.5s4.66602 -9.16602 3.99902 -14.499l-80 -663c-0.666992 -6 -3.16699 -11 -7.5 -15s-9.5 -6 -15.5 -6h-88c-5.33301 0 -9.83301 2 -13.5 6
s-5.16699 9 -4.5 15l24 200c0.666992 5.33301 -0.666016 10 -3.99902 14s-8 6 -14 6h-238c-5.33301 0 -10.333 -2 -15 -6s-7.33398 -8.66699 -8.00098 -14l-24 -200c-0.666992 -6 -3.16699 -11 -7.5 -15s-9.16602 -6 -14.499 -6h-89c-5.33301 0 -9.83301 2 -13.5 6
s-5.16699 9 -4.5 15l80 663c0.666992 5.33301 3.16699 10.166 7.5 14.499s9.5 6.5 15.5 6.5h88c2.66699 0 5.33398 -0.666992 8.00098 -2s4.66699 -2.83301 6 -4.5s2.5 -3.83398 3.5 -6.50098s1.16699 -5.33398 0.5 -8.00098l-35 -292c-0.666992 -6 0.833008 -11 4.5 -15
s8.16699 -6 13.5 -6h238c5.33301 0 10.333 2 15 6s7.33398 9 8.00098 15z" />
    <glyph glyph-name="I" unicode="I" horiz-adv-x="309" 
d="M50 23l79.998 663.003c0.666992 5.33301 3.16699 10.166 7.5 14.499s9.5 6.5 15.5 6.5h88c2.66699 0 5.33398 -0.666992 8.00098 -2s4.66699 -2.83301 6 -4.5s2.5 -3.83398 3.5 -6.50098s1.16699 -5.33398 0.5 -8.00098l-80 -663c-0.666992 -6 -3.16699 -11 -7.5 -15
s-9.16602 -6 -14.499 -6h-89c-5.33301 0 -9.83301 2 -13.5 6s-5.16699 9 -4.5 15z" />
    <glyph glyph-name="J" unicode="J" horiz-adv-x="615" 
d="M380 222l55.9951 459.999c0.666992 6.66699 3.66699 12.334 9 17.001s11.333 7 18 7h80c7.33301 0 13 -2.33301 17 -7s5.66699 -10.334 5 -17.001l-56 -464c-6 -48 -24.333 -91.667 -55 -131c-21.333 -26.667 -47.666 -47.5 -78.999 -62.5s-63.666 -22.5 -96.999 -22.5
h-57c-35.333 0 -67.5 8.16699 -96.5 24.5s-50.5 38.833 -64.5 67.5c-3.33301 6.66699 -6.16602 13.167 -8.49902 19.5s-1.66602 13 2.00098 20s8.83398 11.5 15.501 13.5l79 27c14 4.66699 23.667 1.33398 29 -9.99902c9.33301 -20 24.333 -34.667 45 -44s43 -11 67 -5
s44.5 19.167 61.5 39.5s26.833 42.833 29.5 67.5z" />
    <glyph glyph-name="K" unicode="K" horiz-adv-x="728" 
d="M536 707l-0.000976562 -0.999023h132c6 0 9.33301 -1.5 10 -4.5s-1 -6.5 -5 -10.5l-319 -316c-4.66699 -4 -7.33398 -9 -8.00098 -15s0.666016 -11.333 3.99902 -16l240 -327c3.33301 -4 4 -7.5 2 -10.5s-5.66699 -4.5 -11 -4.5h-130c-13.333 0 -23.666 5 -30.999 15
l-169 229c-3.33301 4.66699 -7.5 7 -12.5 7s-9.83301 -2 -14.5 -6l-5 -5c-10 -10 -16 -22 -18 -36l-22 -184c0 -3.33301 -1.16699 -6.66602 -3.5 -9.99902s-5.16602 -5.83301 -8.49902 -7.5s-6.66602 -2.5 -9.99902 -2.5h-89c-5.33301 0 -9.83301 2 -13.5 6
s-5.16699 8.66699 -4.5 14l80 664c0.666992 5.33301 3.16699 10 7.5 14s9.5 6 15.5 6h88c2.66699 0 5.33398 -0.5 8.00098 -1.5s4.66699 -2.33301 6 -4s2.5 -3.83398 3.5 -6.50098s1.16699 -5.33398 0.5 -8.00098l-29 -244c-0.666992 -5.33301 0.166016 -8.5 2.49902 -9.5
s5.83301 0.5 10.5 4.5l257 254c10 10.667 22 16 36 16z" />
    <glyph glyph-name="L" unicode="L" horiz-adv-x="513" 
d="M259 686l-65.9961 -554c-0.666992 -5.33301 0.666016 -10 3.99902 -14s7.66602 -6 12.999 -6h235c5.33301 0 9.83301 -2 13.5 -6s5.16699 -9 4.5 -15l-8 -69c-0.666992 -5.33301 -3.33398 -10 -8.00098 -14s-9.66699 -6 -15 -6h-364c-5.33301 0 -9.83301 2 -13.5 6
s-5.16699 8.66699 -4.5 14l80 664c0.666992 5.33301 3.16699 10.166 7.5 14.499s9.5 6.5 15.5 6.5h88c6 0 10.667 -2.16699 14 -6.5s4.66602 -9.16602 3.99902 -14.499z" />
    <glyph glyph-name="M" unicode="M" horiz-adv-x="790" 
d="M415 427l232.996 225.999c3.33301 2.66699 8.66602 7.66699 15.999 15l15 15l47 45c4.66699 4.66699 8.33398 6.33398 11.001 5.00098s3.33398 -4.66602 2.00098 -9.99902l-4 -35c0 -3.33301 -0.666992 -10 -2 -20s-2.33301 -17 -3 -21l-75 -625
c0 -3.33301 -1.16699 -6.66602 -3.5 -9.99902s-5.16602 -5.83301 -8.49902 -7.5s-7 -2.5 -11 -2.5h-88c-5.33301 0 -9.83301 2 -13.5 6s-5.16699 8.66699 -4.5 14l44 368c0.666992 5.33301 -0.333008 8.5 -3 9.5s-6 -0.5 -10 -4.5l-165 -160c-4 -4 -8.66699 -6 -14 -6
s-9.66602 2 -12.999 6l-127 160c-3.33301 4 -6.33301 5.5 -9 4.5s-4.33398 -4.16699 -5.00098 -9.5l-45 -368c0 -3.33301 -1.16699 -6.66602 -3.5 -9.99902s-5.16602 -5.83301 -8.49902 -7.5s-6.66602 -2.5 -9.99902 -2.5h-89c-5.33301 0 -9.83301 2 -13.5 6
s-5.16699 8.66699 -4.5 14l75 625c0.666992 3.33301 1.33398 7.66602 2.00098 12.999l2 16c0.666992 5.33301 1 9.33301 1 12l4 35c0.666992 5.33301 2.5 8.66602 5.5 9.99902s6.16699 -0.333984 9.5 -5.00098l36 -45l24 -30l179 -226c3.33301 -4 7.66602 -6 12.999 -6
s10 2 14 6z" />
    <glyph glyph-name="N" unicode="N" horiz-adv-x="719" 
d="M540 707c0 0.666992 6.99805 0.665039 20.998 -0.00195312h88h10.5h7.5c2 0 2.83301 0 2.5 0s-1.16602 -7 -2.49902 -21l-84 -700c-0.666992 -6 -2.5 -9.5 -5.5 -10.5s-6.16699 0.5 -9.5 4.5l-330 418c-3.33301 4.66699 -6.33301 6.5 -9 5.5
s-4.33398 -4.5 -5.00098 -10.5l-45 -371c0 -3.33301 -1.16699 -6.66602 -3.5 -9.99902s-5.16602 -5.83301 -8.49902 -7.5s-6.66602 -2.5 -9.99902 -2.5h-89c-5.33301 0 -9.83301 2 -13.5 6s-5.16699 8.66699 -4.5 14l84 701c0.666992 6 2.5 9.5 5.5 10.5
s6.16699 -0.833008 9.5 -5.5l329 -421c3.33301 -4 6.5 -5.5 9.5 -4.5s4.83301 4.5 5.5 10.5l45 373c0 3.33301 0.333008 6.83301 1 10.5s1 6.33398 1 8.00098v2.5z" />
    <glyph glyph-name="O" unicode="O" horiz-adv-x="846" 
d="M587 707c70 -26 124.333 -71.167 163 -135.5s53.334 -136.833 44.001 -217.5c-10 -80.667 -42.333 -153.167 -97 -217.5s-120.334 -109.166 -197.001 -134.499c-40.667 -13.333 -81.167 -20 -121.5 -20s-79.166 6.66699 -116.499 20
c-71.333 25.333 -126.5 70.166 -165.5 134.499s-53.5 136.833 -43.5 217.5c9.33301 80.667 41 153.167 95 217.5s119.333 109.5 196 135.5c41.333 14 82.666 21 123.999 21s81 -7 119 -21zM394 112c66.667 0 126.332 23.667 178.999 71s83.334 104.333 92.001 171
c4.66699 44 -1.5 84.667 -18.5 122s-42.667 66.833 -77 88.5s-73.5 32.5 -117.5 32.5c-66 0 -125.5 -23.667 -178.5 -71s-83.5 -104.5 -91.5 -171.5s8.66699 -124.167 50 -171.5s95.333 -71 162 -71z" />
    <glyph glyph-name="P" unicode="P" horiz-adv-x="629" 
d="M550 638c30 -48.667 37.002 -102.667 21.002 -162c-14.667 -54 -45.334 -98.5 -92.001 -133.5s-97.334 -52.5 -152.001 -52.5h-91c-4.66699 0 -9 -1.16699 -13 -3.5s-7.33301 -5.5 -10 -9.5s-4.33398 -8.33301 -5.00098 -13l-29 -236
c-0.666992 -7.33301 -3.83398 -13.5 -9.50098 -18.5s-11.834 -7.5 -18.501 -7.5h-79c-6.66699 0 -12.167 2.5 -16.5 7.5s-6.16602 10.833 -5.49902 17.5l32 262l47 392c0.666992 7.33301 3.83398 13.5 9.50098 18.5s11.834 7.5 18.501 7.5h260c28 0 53.833 -6 77.5 -18
s42.167 -29 55.5 -51zM345.002 420c23.333 0 44.835 7.5 64.502 22.5s31.834 34.167 36.501 57.5c4 17.333 3.16699 33.5 -2.5 48.5s-15 26.833 -28 35.5s-28.167 13 -45.5 13h-97c-6.66699 0 -12.834 -2.5 -18.501 -7.5s-8.83398 -10.833 -9.50098 -17.5l-15 -127
c-1.33301 -6.66699 0.166992 -12.5 4.5 -17.5s10.166 -7.5 17.499 -7.5h93z" />
    <glyph glyph-name="Q" unicode="Q" horiz-adv-x="847" 
d="M587 707c70 -26 124.334 -71.167 163.001 -135.5s53.334 -136.5 44.001 -216.5c-10.667 -88 -47.667 -166.333 -111 -235c-8.66699 -9.33301 -10 -18.666 -4 -27.999c14 -22 25.667 -43.667 35 -65c1.33301 -2.66699 1.66602 -5.5 0.999023 -8.5
s-1.83398 -5.83301 -3.50098 -8.5s-3.83398 -4.66699 -6.50098 -6s-5.66699 -2 -9 -2h-110c-7.33301 0 -12.666 2.66699 -15.999 8l-0.5 0.5c-0.333008 0.333008 -0.5 0.833008 -0.5 1.5c-6.66699 9.33301 -15.667 11.333 -27 6c-13.333 -6 -27.333 -11.333 -42 -16
c-40.667 -13.333 -81.167 -20 -121.5 -20s-79.166 6.66699 -116.499 20c-71.333 25.333 -126.5 70.166 -165.5 134.499s-53.5 136.833 -43.5 217.5c9.33301 80.667 41 153.167 95 217.5s119.333 109.5 196 135.5c41.333 14 82.666 21 123.999 21s81 -7 119 -21zM182.001 355
c-0.666992 -3.33301 -0.999023 -12.668 -0.999023 -28.001c21.333 2 41 3 59 3c126.667 0 237.667 -38.667 333 -116c4.66699 -4 10.167 -5.5 16.5 -4.5s11.833 4.16699 16.5 9.5c43.333 53.333 63.333 112 60 176c-2.66699 53.333 -21.5 98.833 -56.5 136.5
s-78.833 59.167 -131.5 64.5c-71.333 7.33301 -136.333 -13.167 -195 -61.5s-92.334 -108.166 -101.001 -179.499zM394.002 111.998c22 0 46.332 4.00098 72.999 12.001c-71.333 51.333 -153.666 76.666 -246.999 75.999c19.333 -27.333 44 -48.833 74 -64.5
s63.333 -23.5 100 -23.5z" />
    <glyph glyph-name="R" unicode="R" horiz-adv-x="629" 
d="M577 509c-4.66699 -40 -18.8359 -76.834 -42.5029 -110.501s-53.167 -60.167 -88.5 -79.5c-6.66699 -3.33301 -11.167 -8.33301 -13.5 -15s-2.16602 -13 0.500977 -19l111 -245c3.33301 -8.66699 2.16602 -17.167 -3.50098 -25.5s-13.5 -12.5 -23.5 -12.5h-91
c-9.33301 0 -16 4 -20 12l-119 263c-4 8 -10.667 12 -20 12h-31c-2 0 -4.16699 -0.166992 -6.5 -0.5s-4.5 -1.16602 -6.5 -2.49902s-3.83301 -2.66602 -5.5 -3.99902s-3.16699 -3 -4.5 -5s-2.5 -4 -3.5 -6s-1.5 -4.33301 -1.5 -7l-29 -237
c-0.666992 -6.66699 -3.66699 -12.5 -9 -17.5s-11.666 -7.5 -18.999 -7.5h-79c-6.66699 0 -12.167 2.5 -16.5 7.5s-6.16602 10.833 -5.49902 17.5l32 263l47 391c0.666992 4.66699 2.33398 9 5.00098 13s6 7.16699 10 9.5s8.33301 3.5 13 3.5h260
c18.667 0 36.167 -2.66699 52.5 -8s31.333 -13 45 -23s25.167 -22 34.5 -36c24.667 -38.667 34 -82.334 28 -131.001zM272.998 596.999c-6.66699 0 -12.834 -2.33203 -18.501 -6.99902s-8.83398 -10.667 -9.50098 -18l-15 -127c-0.666992 -4.66699 -0.166992 -9 1.5 -13
s4.33398 -7 8.00098 -9s7.83398 -3 12.501 -3h97c26 0 49 9.66699 69 29s30.333 42 31 68c0 15.333 -3.66699 29.166 -11 41.499s-17.333 21.833 -30 28.5s-26.667 10 -42 10h-93z" />
    <glyph glyph-name="S" unicode="S" horiz-adv-x="618" 
d="M369 471l26.5 -9.5l28.5 -11c12.667 -5 22.834 -9.66699 30.501 -14s17.167 -10.166 28.5 -17.499s20.5 -14.666 27.5 -21.999s14.5 -16.333 22.5 -27s14.333 -21.834 19 -33.501s8.5 -25 11.5 -40s4.5 -30.833 4.5 -47.5c-0.666992 -66.667 -26.667 -126 -78 -178
c-4 -4 -13 -11.667 -27 -23c-47.333 -38 -99.666 -59.667 -156.999 -65c-9.33301 -1.33301 -18.666 -2 -27.999 -2c-60.667 0 -112.334 18.333 -155.001 55c-2 1.33301 -4.33301 3.5 -7 6.5s-4.33398 4.83301 -5.00098 5.5c-34.667 34.667 -55 75.667 -61 123
c-0.666992 4.66699 0.166016 9.33398 2.49902 14.001s5.5 8.5 9.5 11.5s8.66699 4.83301 14 5.5l80 8c6 0 11.333 -1.66699 16 -5s7.33398 -8 8.00098 -14c4.66699 -24 16.667 -44.333 36 -61c25.333 -21.333 55.666 -30 90.999 -26c36 3.33301 66.667 18 92 44
s38.333 55.667 39 89c0 17.333 -2.5 32.166 -7.5 44.499s-13.667 23 -26 32s-25 16.333 -38 22s-30.5 12.167 -52.5 19.5c-27.333 9.33301 -47 17 -59 23c-51.333 26 -84.833 60 -100.5 102s-11.834 87 11.499 135c18.667 38.667 48.334 70 89.001 94
c56 32 114.333 40.667 175 26c18 -4 36.667 -12.667 56 -26c46.667 -32.667 72 -75.667 76 -129c0 -7.33301 -2.66699 -14 -8 -20s-12 -9 -20 -9l-80 -2c-13.333 0 -21 5.66699 -23 17s-7.16699 21.333 -15.5 30s-15 14.167 -20 16.5s-8.5 3.83301 -10.5 4.5
c-20 4.66699 -39.833 3.5 -59.5 -3.5s-33.834 -19.5 -42.501 -37.5c-2.66699 -6.66699 -4.66699 -12.334 -6 -17.001s-1.66602 -11.334 -0.999023 -20.001s5.16699 -17.5 13.5 -26.5s20.5 -17.5 36.5 -25.5c6.66699 -3.33301 21 -8.66602 43 -15.999z" />
    <glyph glyph-name="T" unicode="T" horiz-adv-x="516" 
d="M50 618l7.99805 68c0.666992 5.33301 3.33398 10 8.00098 14s9.66699 6 15 6h367c2.66699 0 5.33398 -0.5 8.00098 -1.5s4.66699 -2.33301 6 -4s2.5 -3.83398 3.5 -6.50098s1.16699 -5.33398 0.5 -8.00098l-8 -68c-0.666992 -6 -3.16699 -11 -7.5 -15s-9.5 -6 -15.5 -6
h-98c-6 0 -11.167 -2 -15.5 -6s-6.83301 -8.66699 -7.5 -14l-67 -554c-0.666992 -6 -3.16699 -11 -7.5 -15s-9.5 -6 -15.5 -6h-88c-6 0 -10.667 2 -14 6s-4.66602 9 -3.99902 15l67 554c0.666992 5.33301 -0.833008 10 -4.5 14s-8.16699 6 -13.5 6h-99
c-2.66699 0 -5.16699 0.666992 -7.5 2s-4.33301 2.83301 -6 4.5s-2.83398 3.83398 -3.50098 6.50098s-1 5.33398 -1 8.00098z" />
    <glyph glyph-name="U" unicode="U" horiz-adv-x="689" 
d="M460 272l49.001 410.999c0.666992 4.66699 2.33398 8.83398 5.00098 12.501s6 6.66699 10 9s8.33301 3.5 13 3.5h80c6.66699 0 12.167 -2.5 16.5 -7.5s5.83301 -10.833 4.5 -17.5l-49 -411c-6.66699 -55.333 -28.167 -105.666 -64.5 -150.999s-80.833 -78.333 -133.5 -99
c-34 -13.333 -68.333 -20 -103 -20s-67.334 6.66699 -98.001 20c-47.333 20.667 -83.833 53.667 -109.5 99s-35.167 95.666 -28.5 150.999l49 411c1.33301 6.66699 4.66602 12.5 9.99902 17.5s11.333 7.5 18 7.5h80c4.66699 0 8.66699 -1.16699 12 -3.5
s5.83301 -5.33301 7.5 -9s2.5 -7.83398 2.5 -12.501l-49 -406c-4.66699 -36 2.83301 -67.833 22.5 -95.5s46.5 -43.834 80.5 -48.501c27.333 -3.33301 54 0.833984 80 12.501s47.5 28.834 64.5 51.501s27.167 47.667 30.5 75z" />
    <glyph glyph-name="V" unicode="V" horiz-adv-x="738" 
d="M337 330l207.999 358c1.33301 2.66699 3.33301 5 6 7s5.33398 3.83301 8.00098 5.5s5.5 3 8.5 4s5.83301 1.5 8.5 1.5h99c6 0 10 -1.83301 12 -5.5s1.33301 -7.83398 -2 -12.501l-388 -696c-2.66699 -5.33301 -5.66699 -8 -9 -8s-5.66602 2.33301 -6.99902 7l-225 696
l-6 19h21h98c5.33301 0 10.666 -1.66699 15.999 -5s9 -7.66602 11 -12.999l124 -358c2 -4.66699 4.66699 -7 8 -7s6.33301 2.33301 9 7z" />
    <glyph glyph-name="W" unicode="W" horiz-adv-x="991" 
d="M599 333l200.003 354.998c3.33301 4.66699 8 9 14 13s11.667 6 17 6h98c6 0 10 -2 12 -6s1.66699 -8.33301 -1 -13l-379 -698c-2.66699 -5.33301 -5.5 -8 -8.5 -8s-5.16699 2.66699 -6.5 8l-85 283c-1.33301 5.33301 -3.5 8 -6.5 8s-5.83301 -2.66699 -8.5 -8l-146 -283
c-2.66699 -5.33301 -5.66699 -8 -9 -8s-5.66602 2.33301 -6.99902 7l-227 698c-4.66699 12.667 -6.66699 19 -6 19h21h98c5.33301 0 10.666 -1.66699 15.999 -5s9 -7.66602 11 -12.999l124 -356c2 -4.66699 4.83301 -7.16699 8.5 -7.5s7.16699 2.16699 10.5 7.5l46 64
c8.66699 12 11 24.333 7 37l-76 254l-5 19h21h98c6 0 11.667 -1.66699 17 -5s8.66602 -7.66602 9.99902 -12.999l125 -356c1.33301 -4.66699 3.66602 -7 6.99902 -7s6.66602 2.66699 9.99902 8z" />
    <glyph glyph-name="X" unicode="X" horiz-adv-x="784" 
d="M731 689l-248 -316.999c-8.66699 -11.333 -10 -23 -4 -35l171 -318c2.66699 -4.66699 3 -8.66699 1 -12s-6 -5 -12 -5h-114c-5.33301 0 -11 1.66699 -17 5s-10.333 7.33301 -13 12l-107 201c-2.66699 4.66699 -6.16699 7 -10.5 7s-8.5 -2.33301 -12.5 -7l-156 -201
c-9.33301 -11.333 -20.666 -17 -33.999 -17h-114c-5.33301 0 -8.83301 1.66699 -10.5 5s-0.5 7.33301 3.5 12l248 318c8.66699 11.333 10 23 4 35l-171 317c-2.66699 4.66699 -2.83398 8.83398 -0.500977 12.501s6.16602 5.5 11.499 5.5h115
c5.33301 0 10.833 -1.83301 16.5 -5.5s9.83398 -7.83398 12.501 -12.501l108 -200c2 -4.66699 5.33301 -7 10 -7s8.66699 2.33301 12 7l156 200c8.66699 12 14.667 18 18 18h129c6 0 9.66699 -1.83301 11 -5.5s0.333008 -7.83398 -3 -12.501z" />
    <glyph glyph-name="Y" unicode="Y" horiz-adv-x="714" 
d="M338 451l172.002 238.001c8 11.333 19 17 33 17h110c6 0 9.66699 -1.66699 11 -5s0.333008 -7.33301 -3 -12l-275 -381c-8.66699 -12 -14 -24.667 -16 -38l-29 -248c-0.666992 -5.33301 -3.33398 -10 -8.00098 -14s-9.66699 -6 -15 -6h-89c-5.33301 0 -9.83301 2 -13.5 6
s-5.16699 8.66699 -4.5 14l30 248c2 13.333 0 26 -6 38l-183 381c-2.66699 4.66699 -2.83398 8.66699 -0.500977 12s6.5 5 12.5 5h110c2.66699 0 5.5 -0.333008 8.5 -1s5.83301 -1.83398 8.5 -3.50098s5 -3.66699 7 -6s3.66699 -4.5 5 -6.5l114 -238
c2.66699 -4.66699 6 -7 10 -7s7.66699 2.33301 11 7z" />
    <glyph glyph-name="Z" unicode="Z" horiz-adv-x="692" 
d="M171 707h459.002c5.33301 0 8.83301 -1.83301 10.5 -5.5s0.833984 -8.16699 -2.49902 -13.5l-370 -558c-3.33301 -5.33301 -4.16602 -9.66602 -2.49902 -12.999s5.5 -5 11.5 -5h258c5.33301 0 9.66602 -2 12.999 -6s4.66602 -9 3.99902 -15l-8 -69
c-0.666992 -5.33301 -3.16699 -10 -7.5 -14s-9.5 -6 -15.5 -6h-459c-6 0 -9.83301 1.66699 -11.5 5s-0.833984 7.66602 2.49902 12.999l371 559c3.33301 5.33301 4.16602 9.66602 2.49902 12.999s-5.16699 5 -10.5 5h-258c-2.66699 0 -5.16699 0.666992 -7.5 2
s-4.33301 2.83301 -6 4.5s-2.83398 3.83398 -3.50098 6.50098s-1 5.33398 -1 8.00098l8 68c0.666992 5.33301 3.33398 10.166 8.00098 14.499s9.66699 6.5 15 6.5z" />
    <glyph glyph-name="bracketleft" unicode="[" horiz-adv-x="387" 
d="M319 780c5.33301 0 9.83496 -2.00098 13.502 -6.00098s5.16699 -9 4.5 -15l-11 -89c-0.666992 -5.33301 -3.16699 -10.166 -7.5 -14.499s-9.5 -6.5 -15.5 -6.5h-21c-5.33301 0 -10.333 -2 -15 -6s-7.33398 -8.66699 -8.00098 -14l-64 -533
c-0.666992 -6 0.666016 -11 3.99902 -15s8 -6 14 -6h21c6 0 10.667 -2 14 -6s4.66602 -9 3.99902 -15l-11 -88c0 -4 -1.16699 -7.5 -3.5 -10.5s-5.16602 -5.5 -8.49902 -7.5s-6.66602 -3 -9.99902 -3h-151c-5.33301 0 -9.83301 2 -13.5 6s-5.16699 9 -4.5 15l96 793
c0.666992 6 3.16699 11 7.5 15s9.16602 6 14.499 6h151z" />
    <glyph glyph-name="backslash" unicode="\" horiz-adv-x="425" 
d="M190 695l184.002 -666c1.33301 -3.33301 1.5 -6.5 0.5 -9.5s-2.83301 -5.33301 -5.5 -7s-6 -2.5 -10 -2.5h-98c-5.33301 0 -10.5 1.83301 -15.5 5.5s-8.5 8.16699 -10.5 13.5l-184 666c-1.33301 4 -1.5 7.33301 -0.5 10s2.83301 5 5.5 7s6 3 10 3h98
c5.33301 0 10.666 -2 15.999 -6s8.66602 -8.66699 9.99902 -14z" />
    <glyph glyph-name="bracketright" unicode="]" horiz-adv-x="387" 
d="M319 780c5.33301 0 9.83398 -2.00098 13.501 -6.00098s5.16699 -9 4.5 -15l-95 -793c-0.666992 -6 -3.33398 -11 -8.00098 -15s-9.66699 -6 -15 -6h-151c-5.33301 0 -9.83301 2 -13.5 6s-5.16699 9 -4.5 15l11 89c0.666992 5.33301 3.16699 10 7.5 14s9.5 6 15.5 6h21
c6 0 11.167 2 15.5 6s6.83301 9 7.5 15l64 533c0.666992 5.33301 -0.666016 10.166 -3.99902 14.499s-8 6.5 -14 6.5h-21c-2.66699 0 -5.16699 0.5 -7.5 1.5s-4.33301 2.33301 -6 4s-3 3.83398 -4 6.50098s-1.16699 5.33398 -0.5 8.00098l11 89
c0.666992 6 3.16699 11 7.5 15s9.16602 6 14.499 6h151z" />
    <glyph glyph-name="asciicircum" unicode="^" horiz-adv-x="475" 
d="M423 501c2.66699 -4.66699 3 -8.66699 1 -12s-5.66699 -5 -11 -5h-87c-13.333 0 -23.333 5.66699 -30 17l-38 63c-2.66699 4.66699 -6.33398 7 -11.001 7s-8.66699 -2.33301 -12 -7l-54 -63c-8.66699 -11.333 -20 -17 -34 -17h-86c-6 0 -9.5 1.66699 -10.5 5
s0.166992 7.33301 3.5 12l202 242c4 4.66699 8.33301 7 13 7s8.33398 -2.33301 11.001 -7z" />
    <glyph glyph-name="underscore" unicode="_" horiz-adv-x="536" 
d="M468 120c5.33301 0 9.83301 -2 13.5 -6s5.16699 -9 4.5 -15l-11 -89c-0.666992 -5.33301 -3.16699 -10 -7.5 -14s-9.5 -6 -15.5 -6h-384c-5.33301 0 -9.83301 2 -13.5 6s-5.16699 8.66699 -4.5 14l11 89c0.666992 4 2 7.5 4 10.5s4.66699 5.5 8 7.5s7 3 11 3h384z" />
    <glyph glyph-name="grave" unicode="`" horiz-adv-x="188" 
d="M114 696l22.999 -108c1.33301 -5.33301 0.5 -10.833 -2.5 -16.5s-7.16699 -9.5 -12.5 -11.5l-3 -1c-5.33301 -2 -10.666 -2.16699 -15.999 -0.5s-9 5.16699 -11 10.5l-41 101c-2 4.66699 -1.66699 9.66699 1 15s6.66699 9 12 11l26 11c5.33301 2 10.333 2 15 0
s7.66699 -5.66699 9 -11z" />
    <glyph glyph-name="a" unicode="a" horiz-adv-x="571" 
d="M332 505c58.667 0 106.498 -21.167 143.498 -63.5s51.833 -93.166 44.5 -152.499l-6 -48l-7 -55l-18 -149c-0.666992 -6.66699 -3.66699 -12.5 -9 -17.5s-11.333 -7.5 -18 -7.5h-55c-13.333 0 -24.333 5 -33 15s-12.334 22 -11.001 36
c-10.667 -17.333 -30.667 -32.5 -60 -45.5s-55.666 -19.5 -78.999 -19.5c-56.667 0 -101 13.667 -133 41s-45.333 64.666 -40 111.999c6.66699 54 31.667 97.333 75 130s98 49 164 49c33.333 0 66 -4.66699 98 -14c-3.33301 17.333 -13.333 32.833 -30 46.5
s-34.334 20.5 -53.001 20.5c-30.667 0 -58.667 -6.33301 -84 -19c-6.66699 -2.66699 -13 -3.16699 -19 -1.5s-10.333 5.16699 -13 10.5l-31 60c-3.33301 6.66699 -3.66602 13.5 -0.999023 20.5s7.33398 12.5 14.001 16.5c46.667 23.333 100.334 35 161.001 35zM237.998 114
c10 0 20.167 1.16699 30.5 3.5s21.5 5.83301 33.5 10.5s23.5 11.667 34.5 21s20.5 20 28.5 32c-26.667 12.667 -57.334 19 -92.001 19c-20.667 0 -39.334 -3 -56.001 -9c-14 -4.66699 -23.333 -10.334 -28 -17.001s-7.66699 -14.334 -9 -23.001
c-0.666992 -6.66699 0.833008 -12.5 4.5 -17.5s7.83398 -8.66699 12.501 -11s10.334 -4.16602 17.001 -5.49902s11.667 -2.16602 15 -2.49902s6.33301 -0.5 9 -0.5z" />
    <glyph glyph-name="b" unicode="b" horiz-adv-x="632" 
d="M398 502c58.667 -10.667 105.333 -39.501 140 -86.501s48.667 -101.167 42 -162.5c-7.33301 -68.667 -37.333 -128.167 -90 -178.5s-107.667 -75.5 -165 -75.5c-60 0 -107.333 21.667 -142 65c-2 -14 -8.66699 -26.167 -20 -36.5s-24 -15.5 -38 -15.5h-53
c-6.66699 0 -12.167 2.33301 -16.5 7s-6.16602 10.667 -5.49902 18l26 214l57 477c0.666992 4.66699 2.33398 8.83398 5.00098 12.501s6 6.66699 10 9s8.33301 3.5 13 3.5h80c6.66699 0 12.167 -2.5 16.5 -7.5s6.16602 -10.833 5.49902 -17.5l-31 -257
c55.333 30 110.666 40.333 165.999 31zM312.999 127.999c34 0 64.3291 12 90.9961 36s42.167 53 46.5 87s-4.16699 63.167 -25.5 87.5s-48.666 36.5 -81.999 36.5c-11.333 0 -22.5 -1.5 -33.5 -4.5s-21.333 -7.16699 -31 -12.5s-18.667 -11.833 -27 -19.5
s-15.666 -16 -21.999 -25s-11.666 -18.833 -15.999 -29.5s-7.16602 -21.667 -8.49902 -33c-4 -34 4.5 -63 25.5 -87s48.5 -36 82.5 -36z" />
    <glyph glyph-name="c" unicode="c" horiz-adv-x="542" 
d="M419 354c-10.667 -9.33301 -21.335 -10.002 -32.002 -2.00195c-21.333 16.667 -47.5 23.834 -78.5 21.501s-57.833 -13.833 -80.5 -34.5c-27.333 -24 -43 -53.167 -47 -87.5s4.33301 -63.5 25 -87.5c18.667 -20.667 43 -32.167 73 -34.5s58 4.83398 84 21.501
c12 8 22.333 7 31 -3l50 -58c4.66699 -4.66699 6.33398 -10.667 5.00098 -18s-5 -13.333 -11 -18c-50.667 -37.333 -105.667 -56 -165 -56c-69.333 0 -125.666 24.667 -168.999 74s-60.666 109 -51.999 179s40.334 130 95.001 180c49.333 44 107.166 67.667 173.499 71
s121.166 -14.334 164.499 -53.001c5.33301 -4.66699 7.83301 -10.667 7.5 -18s-3.5 -13.666 -9.5 -18.999z" />
    <glyph glyph-name="d" unicode="d" horiz-adv-x="663" 
d="M52 253c8 61.333 35 115.499 81 162.499s99.667 75.833 161 86.5c57.333 9.33301 110.333 -1 159 -31l31 257c0.666992 4.66699 2.33398 8.83398 5.00098 12.501s6 6.66699 10 9s8.33301 3.5 13 3.5h80c6.66699 0 12 -2.5 16 -7.5s5.66699 -10.833 5 -17.5l-57 -477
l-26 -214c-0.666992 -7.33301 -3.66699 -13.333 -9 -18s-11.333 -7 -18 -7h-53c-14.667 0 -26.334 5.16699 -35.001 15.5s-12.334 22.5 -11.001 36.5c-44.667 -43.333 -97 -65 -157 -65c-58 0 -107.167 25.167 -147.5 75.5s-56.166 109.833 -47.499 178.5zM181 250.999
c-4 -34 4.49902 -63 25.499 -87s48.5 -36 82.5 -36s64.5 12 91.5 36s42.5 53 46.5 87s-4.5 63.167 -25.5 87.5s-48.5 36.5 -82.5 36.5c-16.667 0 -33 -3.33301 -49 -10s-30.167 -15.5 -42.5 -26.5s-22.666 -24.167 -30.999 -39.5s-13.5 -31.333 -15.5 -48z" />
    <glyph glyph-name="e" unicode="e" horiz-adv-x="611" 
d="M557 322c2.66699 -15.333 3.99609 -29.666 3.99609 -42.999c0 -4 -0.833008 -7.83301 -2.5 -11.5s-4.16699 -6.83398 -7.5 -9.50098s-7 -4.66699 -11 -6l-327 -94c6.66699 -7.33301 13.667 -13 21 -17c28 -16 59 -19.333 93 -10c26 7.33301 48 21.333 66 42
c10.667 11.333 21.667 13.666 33 6.99902l66 -39c6 -3.33301 9.33301 -8.66602 10 -15.999s-1.33301 -14 -6 -20c-39.333 -48.667 -88.666 -81.667 -147.999 -99c-24 -6.66699 -48.333 -10 -73 -10c-46.667 0 -85.667 10.333 -117 31
c-9.33301 6.66699 -18.166 13.5 -26.499 20.5s-15.666 14 -21.999 21s-12 13.833 -17 20.5s-9.33301 13.667 -13 21l-9.5 19c-2.66699 5.33301 -4.83398 11.166 -6.50098 17.499s-3 11 -4 14s-2 6.83301 -3 11.5l-1.5 7c-14.667 62 0 126.333 44 193
c40.667 62 95.834 102.833 165.501 122.5s132.834 12.834 189.501 -20.499c35.333 -20.667 62.333 -49 81 -85c10.667 -20.667 18 -43 22 -67zM190.996 283l208.999 60c-6 6 -13 11.667 -21 17c-17.333 10 -36.666 15 -57.999 15c-11.333 0 -23 -1.66699 -35 -5
c-34 -10 -61 -30 -81 -60c-5.33301 -8.66699 -10 -17.667 -14 -27z" />
    <glyph glyph-name="f" unicode="f" horiz-adv-x="525" 
d="M267 601l-8.00098 -73.002c-0.666992 -4.66699 -0.166992 -8.66699 1.5 -12s4 -6 7 -8s6.83301 -3 11.5 -3h69c6 0 11 -2.33301 15 -7s5.66699 -10 5 -16l-10 -84c-0.666992 -6.66699 -3.5 -12.167 -8.5 -16.5s-10.833 -6.5 -17.5 -6.5h-69c-4 0 -8 -1.16699 -12 -3.5
s-7.16699 -5.16602 -9.5 -8.49902s-3.83301 -7 -4.5 -11l-38 -317c-0.666992 -6 -3.5 -11.333 -8.5 -16s-10.833 -7 -17.5 -7h-83c-6 0 -11 2.33301 -15 7s-5.66699 10 -5 16l38 317c0.666992 6 -1 11.333 -5 16s-9 7 -15 7h-18c-6 0 -11 2.16699 -15 6.5
s-5.66699 9.83301 -5 16.5l10 84c0.666992 6 3.66699 11.333 9 16s11 7 17 7h18c6 0 11.5 2.16699 16.5 6.5s7.83301 9.83301 8.5 16.5l9 69c6 51.333 28.667 96 68 134s84 57.667 134 59c54 2 97.333 -16 130 -54c4.66699 -5.33301 6.33398 -11.5 5.00098 -18.5
s-5.33301 -12.5 -12 -16.5l-74 -51c-10 -7.33301 -18.667 -7.66602 -26 -0.999023c-9.33301 8 -21 11.667 -35 11c-10 0 -19.5 -2.83301 -28.5 -8.5s-16.333 -13 -22 -22s-9.16699 -18.5 -10.5 -28.5z" />
    <glyph glyph-name="g" unicode="g" horiz-adv-x="631" 
d="M326 505c24.667 0 49.3301 -6.00195 73.9971 -18.002s41 -27.333 49 -46c2 12.667 7.83301 23.334 17.5 32.001s20.5 13 32.5 13h61c4 0 7.83301 -1.16699 11.5 -3.5s6.33398 -5.33301 8.00098 -9s2.16699 -7.83398 1.5 -12.501l-25 -210l-28 -232l-1 -6h-1
c-10.667 -74.667 -45.5 -138.167 -104.5 -190.5s-125.5 -78.5 -199.5 -78.5c-52.667 0 -99.334 14 -140.001 42c-5.33301 4 -8.16602 9.5 -8.49902 16.5s1.83398 13.5 6.50098 19.5l58 64c9.33301 11.333 20 13.333 32 6c19.333 -11.333 41 -17.333 65 -18
c40 -0.666992 76.167 14 108.5 44s50.833 65.667 55.5 107l1 6c-63.333 -33.333 -125.666 -41.666 -186.999 -24.999c-56 14.667 -98.833 45.334 -128.5 92.001s-40.167 99.667 -31.5 159c9.33301 69.333 40.333 128 93 176s112.667 72 180 72zM288.996 127.998
c34 0 64.5 12 91.5 36s42.5 53 46.5 87c2.66699 22.667 -0.333008 43.5 -9 62.5s-21.834 34 -39.501 45s-37.667 16.5 -60 16.5s-43.5 -5.5 -63.5 -16.5s-36.667 -26 -50 -45s-21.333 -39.667 -24 -62s0.333008 -43 9 -62s21.834 -34 39.501 -45s37.5 -16.5 59.5 -16.5z" />
    <glyph glyph-name="h" unicode="h" 
d="M364 499c50.667 -9.33301 90.665 -34.168 119.998 -74.501s40.666 -86.833 33.999 -139.5l-30 -248c-0.666992 -6.66699 -3.66699 -12.5 -9 -17.5s-11.666 -7.5 -18.999 -7.5h-79c-6.66699 0 -12.167 2.5 -16.5 7.5s-6.16602 10.833 -5.49902 17.5l30 247
c3.33301 26.667 -3.83398 49 -21.501 67s-39.834 25.667 -66.501 23c-23.333 -2 -43.833 -12.167 -61.5 -30.5s-27.834 -39.5 -30.501 -63.5l-30 -243c-0.666992 -6.66699 -3.66699 -12.5 -9 -17.5s-11.666 -7.5 -18.999 -7.5h-79c-6.66699 0 -12.167 2.5 -16.5 7.5
s-6.16602 10.833 -5.49902 17.5l30 247l53 444c0.666992 6.66699 3.83398 12.5 9.50098 17.5s11.834 7.5 18.501 7.5h79c7.33301 0 13.166 -2.5 17.499 -7.5s5.83301 -10.833 4.5 -17.5l-32 -267c38.667 34.667 83.334 47.334 134.001 38.001z" />
    <glyph glyph-name="i" unicode="i" horiz-adv-x="304" 
d="M50 33l51.999 432c0.666992 6 3.33398 11 8.00098 15s9.66699 6 15 6h88c6 0 10.667 -2 14 -6s4.66602 -9 3.99902 -15l-52 -432c-0.666992 -6 -3.16699 -11 -7.5 -15s-9.16602 -6 -14.499 -6h-89c-5.33301 0 -9.83301 2 -13.5 6s-5.16699 9 -4.5 15zM116.999 620
c1.33301 8.66699 4.33008 17.335 8.99707 26.002s10.334 16 17.001 22s14.5 10.833 23.5 14.5s18.167 5.5 27.5 5.5c18.667 0 33.834 -6.66699 45.501 -20s16.167 -29.333 13.5 -48c-1.33301 -12.667 -5.66602 -24.334 -12.999 -35.001s-16.666 -19 -27.999 -25
s-23 -9 -35 -9c-18.667 0 -33.834 6.66699 -45.501 20s-16.5 29.666 -14.5 48.999z" />
    <glyph glyph-name="j" unicode="j" horiz-adv-x="444" 
d="M242 461c0.666992 6.66699 3.66699 12.501 9 17.501s11.333 7.5 18 7.5h81c6.66699 0 12 -2.5 16 -7.5s5.66699 -10.833 5 -17.5l-51 -428l-1 -6h-1c-9.33301 -68.667 -37.333 -128.334 -84 -179.001s-99.667 -79.667 -159 -87c-7.33301 -1.33301 -13.5 0.5 -18.5 5.5
s-7.16699 11.167 -6.5 18.5l10 82c1.33301 13.333 9 21.333 23 24c26.667 6 50.167 22.5 70.5 49.5s32.5 57.833 36.5 92.5zM257.5 619.501c2.33301 19 11 35.167 26 48.5s31.833 20 50.5 20s33.834 -6.66699 45.501 -20s16.334 -29.5 14.001 -48.5s-11 -35.167 -26 -48.5
s-31.833 -20 -50.5 -20s-33.834 6.66699 -45.501 20s-16.334 29.5 -14.001 48.5z" />
    <glyph glyph-name="k" unicode="k" horiz-adv-x="613" 
d="M558 471l-200.999 -204c-4 -4 -6.33301 -9 -7 -15s0.666016 -11.333 3.99902 -16l162 -209c3.33301 -4 4.16602 -7.5 2.49902 -10.5s-5.16699 -4.5 -10.5 -4.5h-134c-13.333 0 -24 5 -32 15l-85 111c-3.33301 4 -7.66602 6 -12.999 6s-10 -2 -14 -6l-28 -28
c-10 -10.667 -16 -22.667 -18 -36l-5 -41c-0.666992 -6 -3.16699 -11 -7.5 -15s-9.16602 -6 -14.499 -6h-89c-5.33301 0 -9.83301 2 -13.5 6s-5.16699 9 -4.5 15l84 699c0.666992 6 3.33398 11 8.00098 15s9.66699 6 15 6h89c2 0 4 -0.333008 6 -1s3.66699 -1.66699 5 -3
s2.66602 -2.83301 3.99902 -4.5s2.16602 -3.5 2.49902 -5.5s0.5 -4.33301 0.5 -7l-51 -419c-0.666992 -6 0.333008 -9.5 3 -10.5s6 0.833008 10 5.5l160 163c10.667 10 22.667 15 36 15h130c6 0 9.5 -1.5 10.5 -4.5s-0.5 -6.5 -4.5 -10.5z" />
    <glyph glyph-name="l" unicode="l" horiz-adv-x="314" 
d="M50 33l84 699c0.666992 6 3.33398 11 8.00098 15s9.66699 6 15 6h89c2 0 4 -0.333008 6 -1s3.66699 -1.66699 5 -3s2.66602 -2.83301 3.99902 -4.5s2.16602 -3.5 2.49902 -5.5s0.5 -4.33301 0.5 -7l-85 -699c-0.666992 -6 -3.16699 -11 -7.5 -15s-9.16602 -6 -14.499 -6
h-89c-5.33301 0 -9.83301 2 -13.5 6s-5.16699 9 -4.5 15z" />
    <glyph glyph-name="m" unicode="m" horiz-adv-x="840" 
d="M606 505c57.333 0 103.998 -21.499 139.998 -64.499s50.333 -95.167 43 -156.5l-30 -247c-0.666992 -6.66699 -3.66699 -12.5 -9 -17.5s-11.666 -7.5 -18.999 -7.5h-80c-6.66699 0 -12 2.5 -16 7.5s-5.66699 10.833 -5 17.5l30 247
c2.66699 25.333 -2.83301 46.833 -16.5 64.5s-31.5 26.5 -53.5 26.5s-42 -8.83301 -60 -26.5s-28.333 -39.167 -31 -64.5l-30 -247c-0.666992 -6.66699 -3.66699 -12.5 -9 -17.5s-11.333 -7.5 -18 -7.5h-80c-7.33301 0 -13 2.5 -17 7.5s-5.66699 10.833 -5 17.5l30 247
c2 16.667 0.166992 32 -5.5 46s-14.167 25 -25.5 33s-24.166 12 -38.499 12s-28.166 -4 -41.499 -12s-24.5 -19 -33.5 -33s-14.5 -29.333 -16.5 -46l-30 -247c-0.666992 -6.66699 -3.66699 -12.5 -9 -17.5s-11.333 -7.5 -18 -7.5h-80c-6.66699 0 -12.167 2.5 -16.5 7.5
s-6.16602 10.833 -5.49902 17.5l30 247l22 185c0.666992 6.66699 3.66699 12.334 9 17.001s11.333 7 18 7h57c12 0 21.833 -4.33301 29.5 -13s10.834 -19 9.50098 -31c3.33301 2 9.16602 6.33301 17.499 13s15.666 12.167 21.999 16.5s14.666 8.66602 24.999 12.999
s20.833 7.16602 31.5 8.49902c51.333 4.66699 95.333 -14.333 132 -57c46 41.333 97 62 153 62z" />
    <glyph glyph-name="n" unicode="n" 
d="M209 287l-30.001 -244.001c-0.666992 -6.66699 -3.66699 -12.334 -9 -17.001s-11.333 -7 -18 -7h-80c-6.66699 0 -12.167 2.33301 -16.5 7s-6.16602 10.334 -5.49902 17.001l29 244l22 182c1.33301 6.66699 4.66602 12.334 9.99902 17.001s11.333 7 18 7h60
c12.667 0 22.667 -4.33301 30 -13s10.333 -19 9 -31c7.33301 6.66699 17.666 13.667 30.999 21s27.333 13.333 42 18s27.334 7 38.001 7c60 0 106.667 -19.5 140 -58.5s46.333 -88.833 39 -149.5l-30 -248c-0.666992 -6.66699 -3.66699 -12.5 -9 -17.5
s-11.666 -7.5 -18.999 -7.5h-80c-6.66699 0 -12.167 2.5 -16.5 7.5s-5.83301 10.833 -4.5 17.5l29 244c2.66699 24 -2.5 45 -15.5 63s-31.167 28.333 -54.5 31c-17.333 1.33301 -34 -1.83398 -50 -9.50098s-29.333 -18.667 -40 -33s-17 -30.166 -19 -47.499z" />
    <glyph glyph-name="o" unicode="o" horiz-adv-x="608" 
d="M334 505c69.333 0 125.666 -24.833 168.999 -74.5s60.833 -109.5 52.5 -179.5s-40.166 -129.667 -95.499 -179s-117.666 -74 -186.999 -74s-125.666 24.667 -168.999 74s-60.833 109 -52.5 179s40.166 129.833 95.499 179.5s117.666 74.5 186.999 74.5zM289 128
c34 0 64.499 12 91.499 36s42.5 53 46.5 87s-4.66699 63.167 -26 87.5s-48.833 36.5 -82.5 36.5s-64 -12.167 -91 -36.5s-42.5 -53.5 -46.5 -87.5c-2.66699 -22 0.333008 -42.5 9 -61.5s21.834 -34 39.501 -45s37.5 -16.5 59.5 -16.5z" />
    <glyph glyph-name="p" unicode="p" horiz-adv-x="660" 
d="M608 252c-8 -60.667 -35.002 -114.668 -81.002 -162.001s-99.667 -76 -161 -86c-57.333 -10 -110.333 0 -159 30l-28 -228c-0.666992 -6.66699 -3.66699 -12.5 -9 -17.5s-11.333 -7.5 -18 -7.5h-80c-6.66699 0 -12.167 2.5 -16.5 7.5s-6.16602 10.833 -5.49902 17.5
l54 448l26 215c0.666992 6.66699 3.66699 12.334 9 17.001s11.333 7 18 7h53c14.667 0 26.334 -5 35.001 -15s12.334 -22.333 11.001 -37c44.667 43.333 97 65 157 65c58 0 107.167 -25.167 147.5 -75.5s56.166 -109.833 47.499 -178.5zM478.998 253.999
c4 34 -4.50098 63.168 -25.501 87.501s-48.5 36.5 -82.5 36.5c-22 0 -43.167 -5.66699 -63.5 -17s-37.166 -26.333 -50.499 -45s-21.333 -39.334 -24 -62.001c-4 -34 4.5 -63.167 25.5 -87.5s48.5 -36.5 82.5 -36.5s64.5 12.167 91.5 36.5s42.5 53.5 46.5 87.5z" />
    <glyph glyph-name="q" unicode="q" horiz-adv-x="632" 
d="M201 12c-29.333 9.33301 -55.1689 23.999 -77.502 43.999s-40 43.833 -53 71.5s-19.833 57.167 -20.5 88.5c-0.666992 38 6.5 75.167 21.5 111.5s34.833 67.333 59.5 93s52.667 46.334 84 62.001s62 23.5 92 23.5c60 0 107.333 -21.667 142 -65
c2 14.667 8.66699 27 20 37s24 15 38 15h54c6.66699 0 12 -2.33301 16 -7s5.66699 -10 5 -16l-26 -216l-54 -448c-0.666992 -6.66699 -3.66699 -12.5 -9 -17.5s-11.666 -7.5 -18.999 -7.5h-80c-6.66699 0 -12 2.5 -16 7.5s-5.66699 10.833 -5 17.5l27 228
c-67.333 -36 -133.666 -43.333 -198.999 -22zM318.997 377.999c-22.667 0 -44 -5.66602 -64 -16.999s-36.667 -26.333 -50 -45s-21.333 -39.334 -24 -62.001c-4 -34 4.5 -63.167 25.5 -87.5s48.5 -36.5 82.5 -36.5s64.5 12.167 91.5 36.5s42.5 53.5 46.5 87.5
s-4.5 63.167 -25.5 87.5s-48.5 36.5 -82.5 36.5z" />
    <glyph glyph-name="r" unicode="r" horiz-adv-x="430" 
d="M229 451c42.667 34.667 78.334 51.999 107.001 51.999c10.667 0 20 -0.666992 28 -2c5.33301 -1.33301 9.5 -4 12.5 -8s4.16699 -8.66699 3.5 -14l-11 -87c-0.666992 -7.33301 -4 -13.166 -10 -17.499s-12.333 -5.5 -19 -3.5
c-12.667 3.33301 -25.334 4.66602 -38.001 3.99902c-16 -2 -30.667 -7.33301 -44 -16s-24.333 -20 -33 -34s-14 -28.667 -16 -44l-30 -245c0 -4 -1.33301 -8 -4 -12s-6 -7 -10 -9s-8.33301 -3 -13 -3h-81c-6.66699 0 -12 2.33301 -16 7s-5.66699 10.334 -5 17.001l30 248
l22 185c0.666992 6.66699 3.66699 12.334 9 17.001s11.333 7 18 7h81c6.66699 0 12.167 -2.33301 16.5 -7s5.83301 -10.334 4.5 -17.001z" />
    <glyph glyph-name="s" unicode="s" horiz-adv-x="500" 
d="M292 336c11.333 -2.66699 20.167 -4.66895 26.5 -6.00195s15.833 -4.16602 28.5 -8.49902s22.834 -8.66602 30.501 -12.999s16.667 -10.333 27 -18s18.333 -16.167 24 -25.5s10.667 -20.5 15 -33.5s6.5 -27.5 6.5 -43.5c0.666992 -44.667 -16 -85 -50 -121
c-40 -44 -90.667 -68.667 -152 -74c-6.66699 -0.666992 -13.667 -1 -21 -1c-46 0 -85.333 12.333 -118 37s-52.334 56.667 -59.001 96c-0.666992 6 1.16602 11.667 5.49902 17s9.83301 8.33301 16.5 9l90 12c9.33301 1.33301 15.666 -1.66699 18.999 -9
c4.66699 -10 13.5 -18 26.5 -24s27.833 -8.33301 44.5 -7c24.667 2 44 10.333 58 25c6.66699 8 10 16 10 24c0 5.33301 -2.16699 10 -6.5 14s-11.333 7.83301 -21 11.5s-23.834 7.5 -42.501 11.5c-25.333 5.33301 -43.666 10.333 -54.999 15
c-40 18 -66.167 45.167 -78.5 81.5s-7.83301 74.5 13.5 114.5c18 34 46.333 59.167 85 75.5s78.334 20.166 119.001 11.499c25.333 -5.33301 48.833 -17.833 70.5 -37.5s34.167 -44.5 37.5 -74.5c0.666992 -7.33301 -1.33301 -13.666 -6 -18.999s-10.334 -8 -17.001 -8
l-96 -3c-5.33301 0 -10 2 -14 6c-5.33301 4.66699 -10.666 7.66699 -15.999 9c-11.333 2.66699 -22 2.66699 -32 0s-16 -6 -18 -10c-5.33301 -10 0.333984 -18.333 17.001 -25c4 -2 14.667 -5 32 -9z" />
    <glyph glyph-name="t" unicode="t" horiz-adv-x="417" 
d="M242 685c8.66699 4 16.498 3.66406 23.498 -1.00293s9.83301 -11.667 8.5 -21l-16 -134c-0.666992 -4 0 -8 2 -12s4.66699 -7.16699 8 -9.5s7.33301 -3.5 12 -3.5h66c6.66699 0 12 -2.33301 16 -7s5.66699 -10.334 5 -17.001l-9 -81
c-0.666992 -4.66699 -2.33398 -8.83398 -5.00098 -12.501s-6 -6.66699 -10 -9s-8.33301 -3.5 -13 -3.5h-66c-4 0 -8.16699 -1 -12.5 -3s-7.83301 -5 -10.5 -9s-4 -8 -4 -12l-20 -165c-1.33301 -8 -0.666016 -15.667 2.00098 -23s6.66699 -13.666 12 -18.999
s11.666 -9 18.999 -11c10.667 -4 15.334 -12 14.001 -24l-10 -82c-1.33301 -7.33301 -5 -13.666 -11 -18.999s-12.667 -7.33301 -20 -6c-44 6.66699 -79 27.5 -105 62.5s-36 75.5 -30 121.5l20 165c0.666992 6.66699 -1.16602 12.334 -5.49902 17.001s-9.83301 7 -16.5 7
h-14c-6.66699 0 -12.167 2.5 -16.5 7.5s-6.16602 10.833 -5.49902 17.5l10 81c0.666992 6.66699 3.66699 12.5 9 17.5s11.333 7.5 18 7.5h15c6.66699 0 12.667 2.33301 18 7s8.33301 10.334 9 17.001l12 96c1.33301 10.667 7 18.334 17 23.001z" />
    <glyph glyph-name="u" unicode="u" 
d="M361 204l28.998 242.998c0.666992 6.66699 3.83398 12.5 9.50098 17.5s11.834 7.5 18.501 7.5h80c6.66699 0 12.167 -2.5 16.5 -7.5s5.83301 -10.833 4.5 -17.5l-29 -243l-22 -182c-0.666992 -7.33301 -3.66699 -13.333 -9 -18s-11.333 -7 -18 -7h-61
c-12 0 -21.833 4.33301 -29.5 13s-10.834 19.334 -9.50098 32.001c-7.33301 -7.33301 -17.666 -14.666 -30.999 -21.999s-27.333 -13.333 -42 -18s-27 -7 -37 -7c-60.667 0 -107.5 19.5 -140.5 58.5s-45.833 89.167 -38.5 150.5l30 247
c0.666992 6.66699 3.66699 12.5 9 17.5s11.333 7.5 18 7.5h80c6.66699 0 12.167 -2.5 16.5 -7.5s6.16602 -10.833 5.49902 -17.5l-29 -243c-3.33301 -24 1.66699 -45.167 15 -63.5s31.333 -28.5 54 -30.5c26.667 -2.66699 50.834 5 72.501 23s34.167 40.333 37.5 67z" />
    <glyph glyph-name="v" unicode="v" horiz-adv-x="598" 
d="M285 268l117 195c3.33301 5.33301 8 9.83301 14 13.5s12 5.5 18 5.5h102c6 0 9.83301 -1.83301 11.5 -5.5s1.16699 -8.16699 -1.5 -13.5l-296 -491c-3.33301 -4.66699 -6.66602 -7 -9.99902 -7s-6 2.33301 -8 7l-181 491c-2 5.33301 -1.66699 9.83301 1 13.5
s7 5.5 13 5.5h103c3.33301 0 7 -0.833008 11 -2.5s7.33301 -4 10 -7s4.66699 -6.16699 6 -9.5l72 -195c2 -4.66699 4.66699 -7 8 -7s6.66602 2.33301 9.99902 7z" />
    <glyph glyph-name="w" unicode="w" horiz-adv-x="822" 
d="M506 259l120.002 204c3.33301 5.33301 8 9.83301 14 13.5s12 5.5 18 5.5h102c5.33301 0 9 -1.83301 11 -5.5s1.33301 -8.16699 -2 -13.5l-295 -502c-3.33301 -5.33301 -6.66602 -8 -9.99902 -8s-6 2.66699 -8 8l-75 198c-1.33301 4.66699 -3.83301 7 -7.5 7
s-6.83398 -2.33301 -9.50098 -7l-111 -188c-2.66699 -4.66699 -5.66699 -7 -9 -7s-6 2.33301 -8 7l-185 492c-2 5.33301 -1.66699 9.66602 1 12.999s7 5 13 5h103c6 0 11.667 -1.66699 17 -5s8.66602 -7.66602 9.99902 -12.999l73 -194c2 -4.66699 4.66699 -7 8 -7
s6.66602 2.33301 9.99902 7l22 38c7.33301 12.667 8.66602 25 3.99902 37l-45 119c-1.33301 5.33301 -0.833008 9.83301 1.5 13.5s6.5 5.5 12.5 5.5h103c6 0 11.667 -1.83301 17 -5.5s9 -8.16699 11 -13.5l76 -204c2 -5.33301 4.83301 -8 8.5 -8s6.83398 2.66699 9.50098 8z
" />
    <glyph glyph-name="x" unicode="x" horiz-adv-x="599" 
d="M424 482h114.001c5.33301 0 8.83301 -1.66699 10.5 -5s0.5 -7.66602 -3.5 -12.999l-155 -199c-9.33301 -12 -11 -23.667 -5 -35l107 -198c2.66699 -4.66699 2.83398 -8.66699 0.500977 -12s-6.16602 -5 -11.499 -5h-114c-3.33301 0 -6.5 0.5 -9.5 1.5
s-5.83301 2.16699 -8.5 3.5s-5 3.16602 -7 5.49902s-3.66699 4.5 -5 6.5l-43 81c-2.66699 4.66699 -6.16699 7 -10.5 7s-8.5 -2.33301 -12.5 -7l-62 -81c-8.66699 -11.333 -20 -17 -34 -17h-114c-5.33301 0 -8.83301 1.66699 -10.5 5s-0.5 7.33301 3.5 12l154 198
c8.66699 11.333 10 23 4 35l-107 199c-2.66699 5.33301 -2.83398 9.66602 -0.500977 12.999s6.16602 5 11.499 5h114c6 0 11.833 -1.66699 17.5 -5s9.83398 -7.66602 12.501 -12.999l44 -82c2.66699 -4.66699 6.16699 -7 10.5 -7s8.16602 2.33301 11.499 7l64 82
c9.33301 12 20.666 18 33.999 18z" />
    <glyph glyph-name="y" unicode="y" horiz-adv-x="659" 
d="M466 482l122.998 -0.000976562h20l-11 -19l-389 -646l-11 -18c-2 -3.33301 -4 -7 -6 -11c-4.66699 -7.33301 -13.667 -11 -27 -11h-103c-5.33301 0 -9 1.83301 -11 5.5s-1.33301 7.83398 2 12.501l173 288c7.33301 12.667 8.66602 25 3.99902 37l-126 343
c-2 5.33301 -1.66699 9.83301 1 13.5s6.66699 5.5 12 5.5h104c2.66699 0 5.33398 -0.5 8.00098 -1.5s5.33398 -2.33301 8.00098 -4s4.83398 -3.66699 6.50098 -6s3.16699 -4.83301 4.5 -7.5l72 -195c1.33301 -4.66699 3.83301 -7 7.5 -7s7.16699 2.33301 10.5 7l117 195z
" />
    <glyph glyph-name="z" unicode="z" horiz-adv-x="573" 
d="M227 485l285.003 1.00195c5.33301 0 8.66602 -1.66699 9.99902 -5s0.333008 -7.33301 -3 -12l-232 -317c-3.33301 -4.66699 -4.16602 -8.83398 -2.49902 -12.501s5.16699 -5.5 10.5 -5.5h140c6 0 10.667 -2 14 -6s4.66602 -8.66699 3.99902 -14l-9 -80
c-0.666992 -5.33301 -3.33398 -10 -8.00098 -14s-9.66699 -6 -15 -6l-360 -2c-5.33301 0 -8.83301 1.83301 -10.5 5.5s-0.5 7.83398 3.5 12.501l231 317c4 4.66699 5.16699 8.66699 3.5 12s-5.16699 5 -10.5 5h-147c-6 0 -10.667 2.16699 -14 6.5
s-4.66602 9.16602 -3.99902 14.499l9 80c0.666992 3.33301 2.16699 6.66602 4.5 9.99902s5.16602 5.83301 8.49902 7.5s6.66602 2.5 9.99902 2.5h42h40z" />
    <glyph glyph-name="braceleft" unicode="{" horiz-adv-x="445" 
d="M371 778c7.33301 0.666992 13.3291 -1.5 17.9961 -6.5s6.66699 -10.833 6 -17.5l-10 -83c-1.33301 -12.667 -7.66602 -20.667 -18.999 -24c-14 -3.33301 -25.833 -10.666 -35.5 -21.999s-15.5 -24 -17.5 -38l-4 -31c-8.66699 -72 -37.667 -137.333 -87 -196
c34.667 -64.667 47.334 -135.667 38.001 -213l-1 -10c-2 -14 0.666992 -26.5 8 -37.5s17.333 -18.5 30 -22.5c10.667 -2.66699 15.334 -10.334 14.001 -23.001l-10 -83c-0.666992 -7.33301 -4.16699 -13.5 -10.5 -18.5s-12.833 -6.83301 -19.5 -5.5
c-46 6.66699 -82.5 28 -109.5 64s-37.5 78 -31.5 126l1 10c8 66 -7 123.333 -45 172l-36 47l50 44c46.667 39.333 73.334 88 80.001 146l4 31c5.33301 48 26 90.167 62 126.5s77.667 57.833 125 64.5z" />
    <glyph glyph-name="verticalbar" unicode="|" horiz-adv-x="320" 
d="M252 715c6 0 10.666 -2.16699 13.999 -6.5s4.66602 -9.16602 3.99902 -14.499l-91 -756c-0.666992 -5.33301 -3.16699 -10 -7.5 -14s-9.16602 -6 -14.499 -6h-89c-5.33301 0 -9.83301 2 -13.5 6s-5.16699 8.66699 -4.5 14l91 756
c0.666992 5.33301 3.33398 10.166 8.00098 14.499s9.66699 6.5 15 6.5h88z" />
    <glyph glyph-name="braceright" unicode="}" horiz-adv-x="446" 
d="M356 409l40.001 -43l-47 -47c-50 -48.667 -78.667 -106 -86 -172l-2 -10c-3.33301 -31.333 -14 -60.833 -32 -88.5s-40.5 -50.5 -67.5 -68.5s-56.167 -29 -87.5 -33c-7.33301 -1.33301 -13.333 0.5 -18 5.5s-6.66699 11.167 -6 18.5l10 83
c1.33301 12.667 7.66602 20.334 18.999 23.001c14 4 26 11.5 36 22.5s15.667 23.5 17 37.5l1 10c9.33301 77.333 39 148.333 89 213c-34.667 58.667 -47.667 124 -39 196l3 31c2 14 -0.666992 26.667 -8 38s-17.333 18.666 -30 21.999
c-10.667 3.33301 -15.334 11.333 -14.001 24l10 82c1.33301 7.33301 5 13.5 11 18.5s12.333 7.16699 19 6.5c46 -6.66699 82.5 -28.167 109.5 -64.5s37.833 -78.5 32.5 -126.5l-4 -31c-7.33301 -58 7.33398 -107 44.001 -147z" />
    <glyph glyph-name="asciitilde" unicode="~" horiz-adv-x="478" 
d="M425 420c2 -4 2.66602 -8.66504 1.99902 -13.998l-10 -86c-1.33301 -14.667 -9.33301 -23.667 -24 -27c-26 -7.33301 -51.333 -11 -76 -11c-34.667 0 -67.667 6 -99 18c-6 2.66699 -11 4.66699 -15 6c-16.667 7.33301 -39.167 9.66602 -67.5 6.99902
s-53.833 -10.334 -76.5 -23.001l-6 14c-2.66699 4 -3.66699 8.66699 -3 14l11 88c1.33301 14 8.66602 22.667 21.999 26c65.333 18 126 16.333 182 -5l12 -5c20.667 -8 43.834 -10.833 69.501 -8.5s49.834 9.5 72.501 21.5z" />
    <glyph glyph-name="nonbreakingspace" unicode="&#xa0;" horiz-adv-x="345" 
 />
    <glyph glyph-name="exclamdown" unicode="&#xa1;" horiz-adv-x="315" 
d="M201 436c20 0 36.334 -7.16699 49.001 -21.5s17.667 -31.5 15 -51.5s-11.834 -37.167 -27.501 -51.5s-33.5 -21.5 -53.5 -21.5s-36.333 7.16699 -49 21.5s-17.667 31.5 -15 51.5c1.33301 13.333 6 25.5 14 36.5s18 19.833 30 26.5s24.333 10 37 10zM215.001 260
c5.33301 0 9.83105 -2 13.498 -6s5.16699 -8.66699 4.5 -14l-54 -526c-0.666992 -5.33301 -3.16699 -10 -7.5 -14s-9.5 -6 -15.5 -6h-88c-6 0 -10.667 2 -14 6s-4.66602 8.66699 -3.99902 14l72 526c0.666992 5.33301 3.33398 10 8.00098 14s9.66699 6 15 6h70z" />
    <glyph glyph-name="cent" unicode="&#xa2;" horiz-adv-x="542" 
d="M228 331c-27.333 -24.667 -43.0059 -53.999 -47.0059 -87.999s4.66699 -63 26 -87c18 -20.667 42 -32.334 72 -35.001s57.667 4.33301 83 21c12.667 8 23.334 7 32.001 -3l50 -56c4.66699 -5.33301 6.33398 -11.833 5.00098 -19.5s-5.33301 -13.834 -12 -18.501
c-24.667 -18 -51.667 -31.667 -81 -41c-12 -4 -18.667 -12 -20 -24l-2 -15c-0.666992 -7.33301 -3.66699 -13.5 -9 -18.5s-11.666 -7.5 -18.999 -7.5h-79c-6.66699 0 -12.167 2.5 -16.5 7.5s-6.16602 11.167 -5.49902 18.5l2 15c1.33301 12.667 -3.33398 20.667 -14.001 24
c-35.333 12.667 -65 32.667 -89 60c-43.333 49.333 -60.666 109 -51.999 179s40.334 129.667 95.001 179c29.333 26.667 63.666 46 102.999 58c12 4 18.667 12 20 24l2 17c0.666992 7.33301 3.83398 13.5 9.50098 18.5s12.167 7.5 19.5 7.5h78
c4.66699 0 8.83398 -1.16699 12.501 -3.5s6.33398 -5.5 8.00098 -9.5s2.16699 -8.33301 1.5 -13l-2 -16c-1.33301 -12.667 3.33398 -20.667 14.001 -24c27.333 -9.33301 51.333 -22.666 72 -39.999c5.33301 -4.66699 7.66602 -10.834 6.99902 -18.501s-4 -14.167 -10 -19.5
l-63 -56c-10.667 -10 -21.667 -11 -33 -3c-21.333 16.667 -47.333 23.834 -78 21.501s-57.334 -13.833 -80.001 -34.5z" />
    <glyph glyph-name="sterling" unicode="&#xa3;" horiz-adv-x="580" 
d="M379 605c-29.333 0 -53.998 -11.9971 -73.998 -35.9971c-17.333 -20 -25.333 -43 -24 -69c1.33301 -32.667 1.66602 -61.667 0.999023 -87c0 -7.33301 3.66699 -11 11 -11h110c2 0 3.83301 -0.5 5.5 -1.5s3 -2.5 4 -4.5s1.16699 -4 0.5 -6l-6 -54
c0 -2.66699 -0.666992 -4.83398 -2 -6.50098s-3 -3.16699 -5 -4.5s-4.33301 -2 -7 -2h-111c-7.33301 0 -11.666 -3.66699 -12.999 -11c-9.33301 -41.333 -24.333 -96 -45 -164c-2 -7.33301 -1 -13.833 3 -19.5s9.66699 -8.5 17 -8.5h233c6 0 11.167 -2.33301 15.5 -7
s6.16602 -10.334 5.49902 -17.001l-10 -82c-0.666992 -6.66699 -3.66699 -12.334 -9 -17.001s-11.333 -7 -18 -7h-390c-7.33301 0 -13 2.83301 -17 8.5s-5 12.5 -3 20.5l16 49c32 98 55.667 178.333 71 241c0.666992 2.66699 0.666992 5 0 7s-2 3.66699 -4 5s-4 2 -6 2h-14
c-3.33301 0 -6 1.16699 -8 3.5s-3 5.5 -3 9.5l7 54c0 3.33301 1.5 6.16602 4.5 8.49902s6.16699 3.5 9.5 3.5h14c4 0 7.33301 1.33301 10 4s4 6 4 10c0.666992 18.667 0.333984 40.334 -0.999023 65.001c-0.666992 23.333 2.16602 46.5 8.49902 69.5
s15.833 44.833 28.5 65.5s28.667 39.5 48 56.5s40.666 31.167 63.999 42.5c28.667 13.333 60.334 20 95.001 20h1c49.333 0 91.666 -15 126.999 -45c5.33301 -4.66699 7.83301 -10.5 7.5 -17.5s-3.5 -13.167 -9.5 -18.5l-64 -60c-10 -9.33301 -20.667 -10.333 -32 -3
c-13.333 9.33301 -28.333 14 -45 14h-1z" />
    <glyph glyph-name="currency" unicode="&#xa4;" horiz-adv-x="458" 
d="M399 450l-22.9971 -21c-8 -7.33301 -11.333 -15.666 -10 -24.999c5.33301 -28 2.33301 -55.667 -9 -83c-4 -9.33301 -3 -17.666 3 -24.999l18 -21c4.66699 -4.66699 6.5 -10.334 5.5 -17.001s-4.16699 -12.334 -9.5 -17.001l-44 -39
c-4.66699 -4.66699 -10.334 -7 -17.001 -7s-12.334 2.33301 -17.001 7l-18 21c-6 7.33301 -13.667 9.66602 -23 6.99902c-14.667 -4.66699 -28.667 -7 -42 -7c-14 0 -27.667 2.33301 -41 7c-8.66699 2.66699 -16.667 0.333984 -24 -6.99902l-24 -21
c-5.33301 -4.66699 -11.333 -7 -18 -7s-12 2.33301 -16 7l-35 39c-4 4.66699 -5.5 10.334 -4.5 17.001s3.83301 12.334 8.5 17.001l23 21c8.66699 7.33301 12 15.666 10 24.999c-4.66699 27.333 -1.33398 55 9.99902 83c4 9.33301 2.66699 17.666 -4 24.999l-18 21
c-4 4.66699 -5.5 10.334 -4.5 17.001s4.16699 12.334 9.5 17.001l43 39c5.33301 4.66699 11.333 7 18 7s12 -2.33301 16 -7l18 -21c6.66699 -7.33301 14.667 -9.66602 24 -6.99902c28.667 8.66699 56 8.66699 82 0c9.33301 -2.66699 18 -0.333984 26 6.99902l23 21
c5.33301 4.66699 11.333 7 18 7s12 -2.33301 16 -7l34 -39c4.66699 -4.66699 6.5 -10.334 5.5 -17.001s-4.16699 -12.334 -9.5 -17.001zM251.503 337.5c7.66699 7 12.001 15.333 13.001 25s-1.5 18 -7.5 25s-13.833 10.5 -23.5 10.5s-18.334 -3.5 -26.001 -10.5
s-12.167 -15.333 -13.5 -25s1 -18 7 -25s14 -10.5 24 -10.5s18.833 3.5 26.5 10.5z" />
    <glyph glyph-name="yen" unicode="&#xa5;" horiz-adv-x="715" 
d="M661 697l-233.994 -324c-3.33301 -4.66699 -4.33301 -8.66699 -3 -12s5 -5 11 -5h32c5.33301 0 9.83301 -2 13.5 -6s5.16699 -9 4.5 -15l-5 -38c-0.666992 -5.33301 -3.16699 -10 -7.5 -14s-9.5 -6 -15.5 -6h-66c-6 0 -11.167 -2 -15.5 -6s-6.83301 -9 -7.5 -15l-5 -44
c-0.666992 -6 0.666016 -11 3.99902 -15s8 -6 14 -6h71c6 0 10.667 -2 14 -6s4.66602 -8.66699 3.99902 -14l-4 -38c-0.666992 -5.33301 -3.33398 -10 -8.00098 -14s-9.66699 -6 -15 -6h-72c-5.33301 0 -10.333 -2 -15 -6s-7.33398 -9 -8.00098 -15l-7 -61
c-0.666992 -6 -3.33398 -11 -8.00098 -15s-9.66699 -6 -15 -6h-88c-6 0 -10.667 2 -14 6s-4.66602 9 -3.99902 15l7 61c0.666992 6 -0.666016 11 -3.99902 15s-8 6 -14 6h-71c-6 0 -10.667 2 -14 6s-4.66602 8.66699 -3.99902 14l4 38
c0.666992 5.33301 3.33398 10 8.00098 14s9.66699 6 15 6h72c3.33301 0 6.66602 1 9.99902 3s6.16602 4.5 8.49902 7.5s3.5 6.5 3.5 10.5l6 44c0.666992 6 -0.833008 11 -4.5 15s-8.16699 6 -13.5 6h-77c-5.33301 0 -9.83301 2 -13.5 6s-5.16699 8.66699 -4.5 14l5 38
c0 4 1.16699 7.5 3.5 10.5s5.16602 5.5 8.49902 7.5s6.66602 3 9.99902 3h43c5.33301 0 9.16602 1.66699 11.499 5s2.5 7.33301 0.5 12l-156 324c-1.33301 2.66699 -2 5 -2 7s0.5 3.83301 1.5 5.5s2.5 3 4.5 4s4.66699 1.5 8 1.5h110c3.33301 0 7 -0.833008 11 -2.5
s7.5 -3.83398 10.5 -6.50098s5.5 -5.66699 7.5 -9l114 -238c2.66699 -4.66699 6 -7 10 -7s7.66699 2.33301 11 7l172 238c8.66699 12 19.667 18 33 18h111c5.33301 0 8.83301 -1.66699 10.5 -5s0.5 -7.66602 -3.5 -12.999z" />
    <glyph glyph-name="section" unicode="&#xa7;" horiz-adv-x="551" 
d="M377 729c29.333 -8 56.9951 -26.1699 82.9951 -54.5029s39.667 -63.5 41 -105.5c0 -4.66699 -1.16699 -9 -3.5 -13s-5.5 -7.33301 -9.5 -10s-8.33301 -4 -13 -4l-85 -2c-12 0 -18.667 5.33301 -20 16c-1.33301 10 -5.66602 19 -12.999 27s-13 13.167 -17 15.5
s-7.33301 3.83301 -10 4.5c-16.667 4.66699 -33.667 3.83398 -51 -2.49902s-29.666 -18.166 -36.999 -35.499l-5 -11.5c-1.33301 -3 -2.16602 -7.66699 -2.49902 -14s0.666992 -12 3 -17s6.5 -10.833 12.5 -17.5s14.333 -13 25 -19c40.667 -15.333 71 -28 91 -38
c48.667 -24 80.334 -57.5 95.001 -100.5s10.667 -89.5 -12 -139.5c-2.66699 -4.66699 -8.66699 -14.334 -18 -29.001c22.667 -47.333 21 -99.666 -5 -156.999c-20 -43.333 -51 -76.666 -93 -99.999c-33.333 -18.667 -69 -28 -107 -28c-18 0 -35.333 2.33301 -52 7
c-29.333 7.33301 -57 25.166 -83 53.499s-39.667 63.833 -41 106.5c0 2.66699 0.333008 5.33398 1 8.00098s1.83398 5.16699 3.50098 7.5s3.66699 4.33301 6 6s4.83301 3 7.5 4s5.33398 1.5 8.00098 1.5l84 1c12 0.666992 19 -4.33301 21 -15
c1.33301 -10 5.5 -19.167 12.5 -27.5s12.667 -13.5 17 -15.5s7.5 -3.33301 9.5 -4c22 -6 42.333 -3.66699 61 7c12.667 6.66699 22 16.667 28 30c3.33301 7.33301 5.5 14 6.5 20s1 12.667 0 20s-5 14.333 -12 21s-16.5 13 -28.5 19c-16 8 -43 19 -81 33l-13 6
c-46.667 26.667 -77 61 -91 103s-10 87 12 135c2.66699 6 9 16.333 19 31c-23.333 47.333 -22 99 4 155c21.333 48 56.166 83.5 104.499 106.5s97.5 28.167 147.5 15.5zM296.995 329.997c-16 8 -42.666 18.999 -79.999 32.999l-3 1c-6.66699 -24 6 -45.333 38 -64
c37.333 -14 65.666 -25.667 84.999 -35c7.33301 26.667 -6 48.334 -40 65.001z" />
    <glyph glyph-name="dieresis" unicode="&#xa8;" horiz-adv-x="437" 
d="M336.5 728c15.667 0 28.5 -5.66699 38.5 -17s14 -24.833 12 -40.5s-9.16699 -29.167 -21.5 -40.5s-26.5 -17 -42.5 -17c-10 0 -19 2.66699 -27 8s-14.167 12.333 -18.5 21s-5.83301 18.334 -4.5 29.001c2 15.333 9.16699 28.666 21.5 39.999s26.333 17 42 17zM114 728
c15.333 0 28 -5.66699 38 -17s14 -24.833 12 -40.5s-9.16699 -29.167 -21.5 -40.5s-26.333 -17 -42 -17s-28.334 5.66699 -38.001 17s-13.667 24.833 -12 40.5s8.83398 29.167 21.501 40.5s26.667 17 42 17z" />
    <glyph glyph-name="copyright" unicode="&#xa9;" horiz-adv-x="795" 
d="M418 543c50.667 0 91.665 -18.6699 122.998 -56.0029c3.33301 -4.66699 4.33301 -10.167 3 -16.5s-4.66602 -11.166 -9.99902 -14.499l-33 -22c-10 -6.66699 -18.667 -6 -26 2c-17.333 18.667 -39.666 28 -66.999 28c-30.667 0 -57.5 -11.667 -80.5 -35
s-34.167 -50.666 -33.5 -81.999c0.666992 -24.667 9.83398 -45.334 27.501 -62.001s38.834 -24.667 63.501 -24c18 0 35.333 4.66699 52 14c10.667 6 19 4.33301 25 -5l21 -28c3.33301 -4.66699 4.16602 -10.167 2.49902 -16.5s-5.16699 -11.166 -10.5 -14.499
c-26.667 -16 -54.834 -25.333 -84.501 -28s-58.5 2 -86.5 14c-30 14 -53 36 -69 66s-22.333 62.333 -19 97c2.66699 24.667 10.167 48.334 22.5 71.001s27.5 42.167 45.5 58.5s38.667 29.333 62 39s47.333 14.5 72 14.5zM439.498 709.997
c62.333 0 118.166 -15.5 167.499 -46.5s86.166 -73.167 110.499 -126.5s32.666 -111.5 24.999 -174.5s-30 -121.167 -67 -174.5s-84 -95.5 -141 -126.5s-116.667 -46.5 -179 -46.5s-118.166 15.5 -167.499 46.5s-86.166 73.167 -110.499 126.5s-32.666 111.5 -24.999 174.5
s30.167 121.167 67.5 174.5s84.333 95.5 141 126.5s116.167 46.5 178.5 46.5zM664.498 362.497c9 74.333 -9.5 137.666 -55.5 189.999s-105.833 78.5 -179.5 78.5s-139.667 -26.167 -198 -78.5s-92 -115.666 -101 -189.999s9.5 -137.666 55.5 -189.999
s105.833 -78.5 179.5 -78.5s139.667 26.167 198 78.5s92 115.666 101 189.999z" />
    <glyph glyph-name="guillemotleft" unicode="&#xab;" horiz-adv-x="621" 
d="M235 348l70.002 -81c3.33301 -4 4.66602 -8.83301 3.99902 -14.5s-3.33398 -10.5 -8.00098 -14.5l-71 -63c-4.66699 -4 -9.66699 -5.83301 -15 -5.5s-10 2.5 -14 6.5l-147 172c-3.33301 4 -4.66602 8.83301 -3.99902 14.5s3.33398 10.5 8.00098 14.5l188 173
c4.66699 4 9.83398 6 15.501 6s10.167 -2 13.5 -6l56 -62c3.33301 -4 4.66602 -8.83301 3.99902 -14.5s-3 -10.5 -7 -14.5l-89 -82c-4.66699 -4 -7.33398 -8.83301 -8.00098 -14.5s0.666016 -10.5 3.99902 -14.5zM563.002 459l-88.9961 -82
c-4 -4 -6.33301 -8.83301 -7 -14.5s0.666016 -10.5 3.99902 -14.5l69 -81c3.33301 -4 4.66602 -8.83301 3.99902 -14.5s-3.33398 -10.5 -8.00098 -14.5l-70 -63c-4.66699 -4 -9.83398 -5.83301 -15.501 -5.5s-10.167 2.5 -13.5 6.5l-147 172
c-3.33301 4 -4.66602 8.83301 -3.99902 14.5s3 10.5 7 14.5l189 173c4 4 8.83301 6 14.5 6s10.5 -2 14.5 -6l55 -62c4 -4 5.66699 -8.83301 5 -14.5s-3.33398 -10.5 -8.00098 -14.5z" />
    <glyph glyph-name="softhyphen" unicode="&#xad;" horiz-adv-x="0" 
 />
    <glyph glyph-name="registered" unicode="&#xae;" horiz-adv-x="795" 
d="M439.5 710c62.333 0 118.166 -15.5 167.499 -46.5s86.166 -73.167 110.499 -126.5s32.666 -111.5 24.999 -174.5s-30 -121.167 -67 -174.5s-84 -95.5 -141 -126.5s-116.667 -46.5 -179 -46.5s-118.166 15.5 -167.499 46.5s-86.166 73.167 -110.499 126.5
s-32.666 111.5 -24.999 174.5s30.167 121.167 67.5 174.5s84.333 95.5 141 126.5s116.167 46.5 178.5 46.5zM664 363c9.33301 74 -8.99902 137.166 -54.999 189.499s-105.833 78.5 -179.5 78.5s-139.667 -26.167 -198 -78.5s-91.833 -115.5 -100.5 -189.5
c-6 -48.667 0.5 -93.667 19.5 -135s47.5 -74 85.5 -98s81 -36 129 -36c20.667 0 43.667 3.33301 69 10c40.667 10.667 78 29.334 112 56.001c10.667 8 20.667 16.833 30 26.5s18.166 19.667 26.499 30s15.833 21.333 22.5 33s12.667 23.5 18 35.5s9.83301 24.5 13.5 37.5
s6.16699 26.5 7.5 40.5zM526.001 443.999c0.666992 -22 -4.83398 -42.5 -16.501 -61.5s-27.5 -33.833 -47.5 -44.5l58 -128h-90l-51 113h-13l-11 -92c-0.666992 -4 -2 -7.5 -4 -10.5s-4.66699 -5.5 -8 -7.5s-7 -3 -11 -3h-37c-5.33301 0 -9.83301 2 -13.5 6
s-5.16699 9 -4.5 15l11 92l21 173l2 18c0.666992 6 3.33398 11 8.00098 15s9.66699 6 15 6h95c17.333 0 33.5 -3.83301 48.5 -11.5s26.833 -18.5 35.5 -32.5s13 -29.667 13 -47zM417 401.999c7.33301 0 14 2.66895 20 8.00195s9.5 11.666 10.5 18.999
s-0.833008 13.666 -5.5 18.999s-10.667 8 -18 8h-42l-6 -54h41z" />
    <glyph glyph-name="degree" unicode="&#xb0;" horiz-adv-x="259" 
d="M139.5 696c21.667 0 39.332 -7.83301 52.999 -23.5s19.167 -34.334 16.5 -56.001s-12.667 -40.334 -30 -56.001s-37 -23.5 -59 -23.5s-39.667 7.83301 -53 23.5s-18.666 34.334 -15.999 56.001s12.667 40.334 30 56.001s36.833 23.5 58.5 23.5zM126.498 588
c7.66699 0 14.5 2.83301 20.5 8.5s9.5 12.334 10.5 20.001s-0.833008 14.334 -5.5 20.001s-11 8.5 -19 8.5s-15 -2.83301 -21 -8.5s-9.5 -12.334 -10.5 -20.001s1 -14.334 6 -20.001s11.333 -8.5 19 -8.5z" />
    <glyph glyph-name="plusminus" unicode="&#xb1;" horiz-adv-x="535" 
d="M467 428c5.33301 0 9.83008 -1.99805 13.4971 -5.99805s4.83398 -9 3.50098 -15l-10 -89c-0.666992 -5.33301 -3.33398 -10 -8.00098 -14s-9.66699 -6 -15 -6h-88c-5.33301 0 -10.333 -2 -15 -6s-7.33398 -9 -8.00098 -15l-10 -88c-1.33301 -6 -4.16602 -11 -8.49902 -15
s-9.16602 -6 -14.499 -6h-89c-5.33301 0 -9.83301 2 -13.5 6s-5.16699 9 -4.5 15l11 88c0.666992 6 -0.666016 11 -3.99902 15s-8 6 -14 6h-88c-5.33301 0 -9.83301 2 -13.5 6s-5.16699 8.66699 -4.5 14l11 89c0.666992 6 3.16699 11 7.5 15s9.5 6 15.5 6h88
c5.33301 0 10.333 2 15 6s7.33398 8.66699 8.00098 14l10 89c0.666992 5.33301 3.33398 10 8.00098 14s9.66699 6 15 6h88c3.33301 0 6.16602 -0.5 8.49902 -1.5s4.33301 -2.33301 6 -4s2.83398 -3.83398 3.50098 -6.50098s0.666992 -5.33398 0 -8.00098l-10 -89
c-0.666992 -5.33301 0.666016 -10 3.99902 -14s8 -6 14 -6h88zM429.997 120.002c5.33301 0 9.83301 -2 13.5 -6s4.83398 -9 3.50098 -15l-10 -89c-0.666992 -5.33301 -3.33398 -10 -8.00098 -14s-9.66699 -6 -15 -6h-346c-5.33301 0 -9.83301 2 -13.5 6
s-5.16699 8.66699 -4.5 14l11 89c0.666992 4 2 7.5 4 10.5s4.66699 5.5 8 7.5s7 3 11 3h346z" />
    <glyph glyph-name="acute" unicode="&#xb4;" horiz-adv-x="211" 
d="M152 696c4.66699 -2 7.66699 -5.66602 9 -10.999s0.333008 -10.333 -3 -15l-65 -101c-3.33301 -4.66699 -7.83301 -8 -13.5 -10s-11.167 -2 -16.5 0l-2 1c-4.66699 2.66699 -8 6.66699 -10 12s-1.66699 10.666 1 15.999l50 108c2 5.33301 5.66699 9 11 11s10.333 2 15 0z
" />
    <glyph glyph-name="paragraph" unicode="&#xb6;" horiz-adv-x="633" 
d="M563 736c6 0 11 -2.16309 15 -6.49609s5.33301 -9.5 4 -15.5l-10 -87c0 -2 -0.5 -3.83301 -1.5 -5.5l-3 -5c-1 -1.66699 -2.16699 -3.16699 -3.5 -4.5s-2.83301 -2.5 -4.5 -3.5s-3.5 -1.83301 -5.5 -2.5s-4 -1 -6 -1c-4 0 -7.83301 -0.833008 -11.5 -2.5
s-6.66699 -4.16699 -9 -7.5s-3.5 -7 -3.5 -11l-78 -645c0 -2 -0.5 -4.16699 -1.5 -6.5s-2.33301 -4.33301 -4 -6s-3.5 -3.16699 -5.5 -4.5s-4 -2.33301 -6 -3s-4.33301 -1 -7 -1h-86c-4 0 -7.5 1 -10.5 3s-5.33301 4.66699 -7 8s-2.16699 6.66602 -1.5 9.99902l78 645
c0.666992 6 -1 11 -5 15s-8.66699 6 -14 6h-11c-6 0 -11.333 -2 -16 -6s-7.33398 -9 -8.00098 -15l-78 -645c0 -2.66699 -0.666992 -5.33398 -2 -8.00098s-3.16602 -5 -5.49902 -7s-4.83301 -3.5 -7.5 -4.5s-5.66699 -1.5 -9 -1.5h-86c-4 0 -7.5 1 -10.5 3
s-5.16699 4.66699 -6.5 8s-2 6.66602 -2 9.99902l54 446c-44 4 -79.167 22.667 -105.5 56s-36.833 72.666 -31.5 117.999c6 48.667 28.167 90.167 66.5 124.5s81.5 51.5 129.5 51.5l-7 -65l7 66h316z" />
    <glyph glyph-name="cedilla" unicode="&#xb8;" horiz-adv-x="275" 
d="M173 -26c17.333 -6.66699 30.8311 -17.166 40.498 -31.499s13.5 -30.166 11.5 -47.499c-3.33301 -24 -16 -44.333 -38 -61s-47 -25 -75 -25c-20 0 -37.667 4.33301 -53 13c-6 3.33301 -9 8.66602 -9 15.999s2.66699 13.666 8 18.999l6 5c8.66699 8 17 9.66699 25 5
c8.66699 -4.66699 18.334 -7 29.001 -7c14 0 26.5 3.5 37.5 10.5s17 15.167 18 24.5s-3 17.5 -12 24.5s-20.5 10.5 -34.5 10.5h-26l4 33l5 7l43 58c4 4.66699 9 7.66699 15 9s11.333 0.333008 16 -3l6 -4c4.66699 -2.66699 7.33398 -7 8.00098 -13s-1 -11.667 -5 -17z" />
    <glyph glyph-name="guillemotright" unicode="&#xbb;" horiz-adv-x="621" 
d="M567 377c3.33301 -4 4.66406 -8.83301 3.99707 -14.5s-3.33398 -10.5 -8.00098 -14.5l-188 -172c-4.66699 -4 -9.83398 -6.16699 -15.501 -6.5s-10.167 1.5 -13.5 5.5l-56 63c-3.33301 4 -4.66602 8.83301 -3.99902 14.5s3 10.5 7 14.5l89 81
c4.66699 4 7.33398 8.83301 8.00098 14.5s-0.666016 10.5 -3.99902 14.5l-70 82c-3.33301 4 -4.66602 8.83301 -3.99902 14.5s3.33398 10.5 8.00098 14.5l71 62c4.66699 4 9.66699 6 15 6s10 -2 14 -6zM330.998 377c3.33301 -4 4.66211 -8.83301 3.99512 -14.5
s-3 -10.5 -7 -14.5l-189 -172c-4.66699 -4 -9.83398 -6.16699 -15.501 -6.5s-10.167 1.5 -13.5 5.5l-56 63c-3.33301 4 -4.66602 8.83301 -3.99902 14.5s3.33398 10.5 8.00098 14.5l89 81c4 4 6.33301 8.83301 7 14.5s-0.666016 10.5 -3.99902 14.5l-69 82
c-3.33301 4 -4.66602 8.83301 -3.99902 14.5s3.33398 10.5 8.00098 14.5l70 62c4.66699 4 9.83398 6 15.501 6s10.167 -2 13.5 -6z" />
    <glyph glyph-name="questiondown" unicode="&#xbf;" horiz-adv-x="522" 
d="M314 290c-20 0 -36.166 7.16699 -48.499 21.5s-17.333 31.5 -15 51.5s11.5 37.167 27.5 51.5s34 21.5 54 21.5c13.333 0 25.166 -3.33301 35.499 -10s18 -15.5 23 -26.5s6.83301 -23.167 5.5 -36.5c-2.66699 -20 -12 -37.167 -28 -51.5s-34 -21.5 -54 -21.5z
M453.001 -129c7.33301 -0.666992 12.665 -4.00098 15.998 -10.001s4 -12.667 2 -20c-20 -56.667 -56.667 -101 -110 -133c-38 -22.667 -78 -34 -120 -34c-24.667 0 -48 4 -70 12c-47.333 16.667 -81.666 48.834 -102.999 96.501s-24 98.167 -8 151.5
c15.333 48.667 43.333 88.334 84 119.001c26.667 20 48.5 45.333 65.5 76s27.833 63.667 32.5 99l1 8c0.666992 6.66699 3.66699 12.334 9 17.001s11.333 7 18 7h81c6.66699 0 12 -2.33301 16 -7s5.66699 -10.334 5 -17.001l-1 -8c-6.66699 -54.667 -23.667 -106 -51 -154
s-62.666 -88.333 -105.999 -121c-14 -10.667 -24 -25.334 -30 -44.001c-6.66699 -20.667 -5.83398 -40.834 2.49902 -60.501s21.833 -32.834 40.5 -39.501c26 -9.33301 51.667 -6.33301 77 9c18.667 10.667 32.334 25.334 41.001 44.001c6 12.667 15 18.334 27 17.001z" />
    <glyph glyph-name="Agrave" unicode="&#xc0;" horiz-adv-x="737" 
d="M436 763c-6 0 -11.667 1.66895 -17 5.00195s-9 7.66602 -11 12.999l-33 81c-2 5.33301 -1.66699 9.66602 1 12.999s6.66699 5 12 5h31c5.33301 0 10.5 -1.83301 15.5 -5.5s8.16699 -8.16699 9.5 -13.5l17 -79c0.666992 -5.33301 -0.5 -9.83301 -3.5 -13.5
s-7.16699 -5.5 -12.5 -5.5h-9zM452 716.002l233.997 -689c2 -5.33301 1.5 -9.83301 -1.5 -13.5s-7.16699 -5.5 -12.5 -5.5h-102c-5.33301 0 -10.666 1.83301 -15.999 5.5s-8.66602 8.16699 -9.99902 13.5l-21 60c-1.33301 5.33301 -4.66602 9.83301 -9.99902 13.5
s-11 5.5 -17 5.5h-238c-6 0 -12 -1.83301 -18 -5.5s-10.333 -8.16699 -13 -13.5l-34 -60c-2.66699 -5.33301 -7 -9.83301 -13 -13.5s-11.667 -5.5 -17 -5.5h-101c-5.33301 0 -9 1.83301 -11 5.5s-1.66699 8.16699 1 13.5l383 689c2.66699 5.33301 5.66699 8 9 8
s6 -2.66699 8 -8zM451.997 236.002c6 0 10.333 1.83301 13 5.5s3 8.16699 1 13.5l-49 145c-2 4.66699 -4.5 7 -7.5 7s-6.16699 -2.66699 -9.5 -8l-80 -144c-2.66699 -5.33301 -3 -9.83301 -1 -13.5s5.66699 -5.5 11 -5.5h122z" />
    <glyph glyph-name="Aacute" unicode="&#xc1;" horiz-adv-x="737" 
d="M479 763l-8.00098 -0.00195312h-20l2 5c1.33301 3.33301 3.33301 8 6 14l37 79c2 5.33301 5.83301 9.83301 11.5 13.5s11.5 5.5 17.5 5.5h30c6 0 9.83301 -1.66699 11.5 -5s0.833984 -7.66602 -2.49902 -12.999l-53 -81
c-2.66699 -5.33301 -7.16699 -9.66602 -13.5 -12.999s-12.5 -5 -18.5 -5zM469.999 715.998l215.999 -689c2 -5.33301 1.5 -9.83301 -1.5 -13.5s-7.16699 -5.5 -12.5 -5.5h-100c-6 0 -11.5 1.83301 -16.5 5.5s-8.5 8.16699 -10.5 13.5l-18 60
c-2 5.33301 -5.5 9.83301 -10.5 13.5s-10.5 5.5 -16.5 5.5h-238c-6 0 -12 -1.83301 -18 -5.5s-10.667 -8.16699 -14 -13.5l-35 -60c-2.66699 -5.33301 -7.16699 -9.83301 -13.5 -13.5s-12.166 -5.5 -17.499 -5.5h-102c-5.33301 0 -9 1.83301 -11 5.5
s-1.33301 8.16699 2 13.5l400 689c3.33301 5.33301 6.5 8 9.5 8s5.5 -2.66699 7.5 -8zM458.998 235.998c6 0 10.3311 1.83301 12.998 5.5s3.33398 8.16699 2.00098 13.5l-46 144c-1.33301 5.33301 -3.66602 8 -6.99902 8s-6.33301 -2.33301 -9 -7l-85 -145
c-2.66699 -5.33301 -3 -9.83301 -1 -13.5s5.66699 -5.5 11 -5.5h122z" />
    <glyph glyph-name="Acircumflex" unicode="&#xc2;" horiz-adv-x="737" 
d="M368 789c-6 0 -9.66797 1.66699 -11.001 5s0 7.33301 4 12l102 123c4 4.66699 8.33301 7 13 7s8.33398 -2.33301 11.001 -7l73 -123c2.66699 -4.66699 3 -8.66699 1 -12s-6 -5 -12 -5h-22c-13.333 0 -23.333 5.66699 -30 17l-21 35
c-2.66699 4.66699 -6.33398 7 -11.001 7s-8.66699 -2.33301 -12 -7l-29 -35c-9.33301 -11.333 -20.666 -17 -33.999 -17h-22zM457.999 716l227.998 -689c1.33301 -3.33301 1.5 -6.5 0.5 -9.5s-2.83301 -5.33301 -5.5 -7s-5.66699 -2.5 -9 -2.5h-101
c-6 0 -11.5 1.83301 -16.5 5.5s-8.5 8.16699 -10.5 13.5l-20 60c-1.33301 5.33301 -4.66602 9.83301 -9.99902 13.5s-10.666 5.5 -15.999 5.5h-239c-5.33301 0 -11.166 -1.83301 -17.499 -5.5s-10.833 -8.16699 -13.5 -13.5l-34 -60
c-2.66699 -5.33301 -7.16699 -9.83301 -13.5 -13.5s-12.166 -5.5 -17.499 -5.5h-101c-5.33301 0 -9 1.83301 -11 5.5s-1.33301 8.16699 2 13.5l388 689c3.33301 5.33301 6.66602 8 9.99902 8s5.66602 -2.66699 6.99902 -8zM454.997 236
c5.33301 0 9.33008 1.83301 11.9971 5.5s3.33398 8.16699 2.00098 13.5l-48 145c-1.33301 4.66699 -3.66602 7 -6.99902 7s-6.66602 -2.66699 -9.99902 -8l-81 -144c-3.33301 -5.33301 -4 -9.83301 -2 -13.5s5.66699 -5.5 11 -5.5h123z" />
    <glyph glyph-name="Atilde" unicode="&#xc3;" horiz-adv-x="737" 
d="M338 818l-18.9971 15.999c-4 3.33301 -5.83301 7.5 -5.5 12.5s2.83301 9.16699 7.5 12.5c47.333 34 80 51 98 51c8 0 16.5 -1.5 25.5 -4.5s15.833 -5.83301 20.5 -8.5l8 -4c11.333 -7.33301 18 -12 20 -14s9.66699 -3.33301 23 -4l47 6c4.66699 4 10.167 6 16.5 6
s11.166 -1.66699 14.499 -5l20 -17c4 -4 5.5 -8.5 4.5 -13.5s-3.83301 -9.16699 -8.5 -12.5c-44 -29.333 -74.667 -44 -92 -44c-26 0 -49.333 9 -70 27l-3 2c-4 4 -11.333 9.33301 -22 16c-1.33301 0.666992 -5.33301 1 -12 1s-13.5 -1.66699 -20.5 -5
s-12.5 -6.66602 -16.5 -9.99902l-5 -5c-4.66699 -4.66699 -9.83398 -7.16699 -15.501 -7.5s-10.834 1.16699 -15.501 4.5zM458.003 715.999l227.999 -689c2 -5.33301 1.5 -9.83301 -1.5 -13.5s-7.16699 -5.5 -12.5 -5.5h-101c-6 0 -11.5 1.83301 -16.5 5.5
s-8.5 8.16699 -10.5 13.5l-20 60c-1.33301 5.33301 -4.66602 9.83301 -9.99902 13.5s-10.666 5.5 -15.999 5.5h-239c-5.33301 0 -11.166 -1.83301 -17.499 -5.5s-10.833 -8.16699 -13.5 -13.5l-34 -60c-2.66699 -5.33301 -7 -9.83301 -13 -13.5s-12 -5.5 -18 -5.5h-101
c-5.33301 0 -9 1.83301 -11 5.5s-1.33301 8.16699 2 13.5l388 689c3.33301 5.33301 6.66602 8 9.99902 8s5.66602 -2.66699 6.99902 -8zM455.002 235.999c5.33301 0 9.33203 1.83301 11.999 5.5s3.33398 8.16699 2.00098 13.5l-48 145c-2 4.66699 -4.5 7 -7.5 7
s-6.16699 -2.66699 -9.5 -8l-81 -144c-3.33301 -5.33301 -4 -9.83301 -2 -13.5s5.66699 -5.5 11 -5.5h123z" />
    <glyph glyph-name="Adieresis" unicode="&#xc4;" horiz-adv-x="737" 
d="M458 716l227.998 -689c1.33301 -3.33301 1.5 -6.5 0.5 -9.5s-2.83301 -5.33301 -5.5 -7s-5.66699 -2.5 -9 -2.5h-101c-6 0 -11.5 1.83301 -16.5 5.5s-8.5 8.16699 -10.5 13.5l-20 60c-1.33301 5.33301 -4.66602 9.83301 -9.99902 13.5s-10.666 5.5 -15.999 5.5h-239
c-5.33301 0 -11.166 -1.83301 -17.499 -5.5s-10.833 -8.16699 -13.5 -13.5l-34 -60c-2.66699 -5.33301 -7.16699 -9.83301 -13.5 -13.5s-12.166 -5.5 -17.499 -5.5h-101c-5.33301 0 -9 1.83301 -11 5.5s-1.33301 8.16699 2 13.5l388 689
c3.33301 5.33301 6.66602 8 9.99902 8s5.66602 -2.66699 6.99902 -8zM454.998 236c5.33301 0 9.33203 1.83301 11.999 5.5s3.33398 8.16699 2.00098 13.5l-48 145c-2 4.66699 -4.5 7 -7.5 7s-6.16699 -2.66699 -9.5 -8l-81 -144c-3.33301 -5.33301 -4 -9.83301 -2 -13.5
s5.66699 -5.5 11 -5.5h123zM552.497 793c-15.667 0 -28.332 5.66699 -37.999 17s-13.5 24.833 -11.5 40.5s9.16699 29.167 21.5 40.5s26.166 17 41.499 17c10.667 0 20 -2.66699 28 -8s14 -12.333 18 -21s5.33301 -18 4 -28c-2 -16 -9.16699 -29.667 -21.5 -41
s-26.333 -17 -42 -17zM366.499 793c-15.667 0 -28.3359 5.66699 -38.0029 17s-13.667 24.833 -12 40.5s8.83398 29.167 21.501 40.5s26.834 17 42.501 17s28.334 -5.66699 38.001 -17s13.5 -24.833 11.5 -40.5s-9.16699 -29.167 -21.5 -40.5s-26.333 -17 -42 -17z" />
    <glyph glyph-name="Aring" unicode="&#xc5;" horiz-adv-x="738" 
d="M508 631l178.995 -603.999c0.666992 -2.66699 0.833984 -5.16699 0.500977 -7.5s-1.16602 -4.33301 -2.49902 -6s-3.16602 -3 -5.49902 -4s-4.83301 -1.5 -7.5 -1.5h-99c-5.33301 0 -10.666 1.83301 -15.999 5.5s-8.66602 8.16699 -9.99902 13.5l-18 60
c-0.666992 2.66699 -1.83398 5.16699 -3.50098 7.5s-3.66699 4.33301 -6 6s-5 3 -8 4s-5.83301 1.5 -8.5 1.5h-249c-5.33301 0 -11 -1.83301 -17 -5.5s-10.333 -8.16699 -13 -13.5l-32 -60c-2 -3.33301 -4.66699 -6.5 -8 -9.5s-7 -5.33301 -11 -7s-7.66699 -2.5 -11 -2.5
h-99c-6 0 -10 1.83301 -12 5.5s-1.66699 8.16699 1 13.5l321 604c6.66699 12.667 6.33398 24.667 -0.999023 36l-3.5 7c-1.66699 3.33301 -3.66699 9.33301 -6 18s-2.83301 17 -1.5 25c1.33301 12 5 23.667 11 35s13.5 21 22.5 29s19.333 14.333 31 19s23.834 7 36.501 7
c24.667 0 44.667 -8.83301 60 -26.5s21.666 -38.834 18.999 -63.501c-0.666992 -5.33301 -2 -10.5 -4 -15.5s-4 -9.5 -6 -13.5s-4.16699 -7.66699 -6.5 -11l-5.5 -8l-2 -2c-9.33301 -11.333 -12.333 -23.333 -9 -36zM464.995 236.001c5.33301 0 9.5 1.83301 12.5 5.5
s3.83301 8.16699 2.5 13.5l-55 183c-1.33301 5.33301 -3.5 8 -6.5 8s-5.83301 -2.66699 -8.5 -8l-97 -183c-2.66699 -5.33301 -3 -9.83301 -1 -13.5s5.66699 -5.5 11 -5.5h142zM445.995 678.001c7.33301 0 14.165 1.66895 20.498 5.00195s11.5 8 15.5 14s6.5 12.5 7.5 19.5
s0.166992 13.5 -2.5 19.5s-6.83398 10.833 -12.501 14.5s-12.167 5.5 -19.5 5.5c-10.667 0 -20.167 -3.83301 -28.5 -11.5s-13.166 -16.834 -14.499 -27.501s1.33398 -19.834 8.00098 -27.501s15.334 -11.5 26.001 -11.5z" />
    <glyph glyph-name="AE" unicode="&#xc6;" horiz-adv-x="951" 
d="M883 736c4 0 7.33105 -1.00293 9.99805 -3.00293s4.83398 -4.5 6.50098 -7.5s2.16699 -6.5 1.5 -10.5l-11 -89c-0.666992 -5.33301 -3.16699 -10.166 -7.5 -14.499s-9.5 -6.5 -15.5 -6.5h-144h-90c-4 0 -7.66699 -0.833008 -11 -2.5s-6 -4.16699 -8 -7.5
s-3.33301 -6.66602 -4 -9.99902l-22 -183c-0.666992 -6 0.833008 -11 4.5 -15s8.16699 -6 13.5 -6h118c6 0 10.667 -2 14 -6s4.66602 -8.66699 3.99902 -14l-10 -89c-0.666992 -6 -3.33398 -11 -8.00098 -15s-9.66699 -6 -15 -6h-119
c-3.33301 0 -6.66602 -0.833008 -9.99902 -2.5s-6.16602 -4.16699 -8.49902 -7.5s-3.5 -6.66602 -3.5 -9.99902l-11 -91c-0.666992 -5.33301 0.666016 -10 3.99902 -14s8 -6 14 -6h234c6 0 10.667 -2 14 -6s4.66602 -9 3.99902 -15l-8 -70
c-0.666992 -4 -2.16699 -7.5 -4.5 -10.5s-5.16602 -5.5 -8.49902 -7.5s-6.66602 -3 -9.99902 -3h-15h-349c-5.33301 0 -9.83301 2 -13.5 6s-5.16699 9 -4.5 15l13 107c0.666992 5.33301 -0.666016 10 -3.99902 14s-8 6 -14 6h-130c-5.33301 0 -11 -1.83301 -17 -5.5
s-10.333 -8.16699 -13 -13.5l-58 -110c-2.66699 -5.33301 -7 -9.83301 -13 -13.5s-11.667 -5.5 -17 -5.5h-98c-6 0 -10 1.83301 -12 5.5s-1.66699 8.16699 1 13.5l359 690c2 3.33301 4.66699 6.33301 8 9s7 5 11 7s7.66699 3 11 3h38h219h185zM477.998 562.997
c0.666992 6 0.332031 9.00098 -1.00098 9.00098s-3.33301 -2.33301 -6 -7l-135 -259c-2.66699 -5.33301 -3 -10 -1 -14s6 -6 12 -6h78c5.33301 0 10.333 2.16699 15 6.5s7.33398 9.16602 8.00098 14.499z" />
    <glyph glyph-name="Ccedilla" unicode="&#xc7;" horiz-adv-x="756" 
d="M700 644c4 -4 5.83789 -9.16602 5.50488 -15.499s-2.83301 -11.833 -7.5 -16.5l-68 -62c-4.66699 -4 -9.83398 -6 -15.501 -6s-10.167 1.66699 -13.5 5c-46.667 43.333 -104.334 61.666 -173.001 54.999c-60 -5.33301 -113.333 -30.333 -160 -75s-75 -96.667 -85 -156
c-6.66699 -45.333 -1.83398 -87.5 14.499 -126.5s42 -69.833 77 -92.5s74.833 -34 119.5 -34c50 0 97 14 141 42c5.33301 3.33301 10.666 4.5 15.999 3.5s9.33301 -3.5 12 -7.5l46 -68c3.33301 -5.33301 4.16602 -11 2.49902 -17s-5.16699 -11 -10.5 -15
c-70 -45.333 -144.333 -68 -223 -68h-1h-2l-12 -16c17.333 -6.66699 30.833 -17.167 40.5 -31.5s13.5 -30.166 11.5 -47.499c-2.66699 -24 -15 -44.333 -37 -61s-47.333 -25 -76 -25c-20 0 -37.667 4.33301 -53 13c-6 3.33301 -9 8.66602 -9 15.999s2.66699 13.333 8 18l7 6
c8 8 16 9.66699 24 5c8.66699 -4.66699 18.334 -7 29.001 -7c14 0 26.5 3.5 37.5 10.5s17 15.167 18 24.5s-3 17.5 -12 24.5s-20.5 10.5 -34.5 10.5h-26l4 33l5 7l19 25c-89.333 15.333 -159.5 59.166 -210.5 131.499s-68.833 155.833 -53.5 250.5
c14.667 93.333 58.667 174.333 132 243s156.666 106.667 249.999 114c50.667 4 98.667 -1.66699 144 -17s85 -39.666 119 -72.999z" />
    <glyph glyph-name="Egrave" unicode="&#xc8;" horiz-adv-x="584" 
d="M394 763c-3.33301 0 -6.83496 0.833008 -10.502 2.5s-7 3.83398 -10 6.50098s-5.16699 5.66699 -6.5 9l-33 81c-2 5.33301 -1.83301 9.66602 0.5 12.999s6.5 5 12.5 5h30c2.66699 0 5.33398 -0.5 8.00098 -1.5s5.16699 -2.33301 7.5 -4s4.33301 -3.66699 6 -6
s2.83398 -4.83301 3.50098 -7.5l17 -79l4 -19h-29zM515.998 715c6 0 10.667 -2.16797 14 -6.50098s4.66602 -9.16602 3.99902 -14.499l-10 -82c-0.666992 -5.33301 -3.16699 -10 -7.5 -14s-9.16602 -6 -14.499 -6h-235c-3.33301 0 -6.66602 -1 -9.99902 -3
s-6.16602 -4.5 -8.49902 -7.5s-3.83301 -6.5 -4.5 -10.5l-20 -170c-0.666992 -6 0.666016 -11 3.99902 -15s8 -6 14 -6h118c5.33301 0 9.83301 -2 13.5 -6s5.16699 -8.66699 4.5 -14l-10 -82c-0.666992 -5.33301 -3.16699 -10 -7.5 -14s-9.5 -6 -15.5 -6h-118
c-5.33301 0 -10.333 -2.16699 -15 -6.5s-7.33398 -9.16602 -8.00098 -14.499l-10 -83c-0.666992 -6 0.833008 -11 4.5 -15s8.16699 -6 13.5 -6h235c5.33301 0 9.83301 -2 13.5 -6s4.83398 -8.66699 3.50098 -14l-9 -82c-0.666992 -5.33301 -3.33398 -10 -8.00098 -14
s-9.66699 -6 -15 -6h-364c-5.33301 0 -9.83301 2 -13.5 6s-5.16699 8.66699 -4.5 14l80 663c0.666992 5.33301 3.16699 10.166 7.5 14.499s9.5 6.5 15.5 6.5h363z" />
    <glyph glyph-name="Eacute" unicode="&#xc9;" horiz-adv-x="584" 
d="M351 763l-8.00293 -0.00195312h-21l2.5 5c1.66699 3.33301 3.83398 8 6.50098 14l36 79c2.66699 5.33301 6.83398 9.83301 12.501 13.5s11.5 5.5 17.5 5.5h30c6 0 9.83301 -1.66699 11.5 -5s0.833984 -7.66602 -2.49902 -12.999l-53 -81
c-3.33301 -5.33301 -8 -9.66602 -14 -12.999s-12 -5 -18 -5zM515.997 714.998c6 0 10.6699 -2.16797 14.0029 -6.50098s4.66602 -9.16602 3.99902 -14.499l-10 -82c-0.666992 -5.33301 -3.16699 -10 -7.5 -14s-9.16602 -6 -14.499 -6h-235c-5.33301 0 -10.333 -2 -15 -6
s-7.33398 -9 -8.00098 -15l-20 -170c-0.666992 -6 0.666016 -11 3.99902 -15s8 -6 14 -6h118c5.33301 0 9.83301 -2 13.5 -6s5.16699 -8.66699 4.5 -14l-10 -82c-0.666992 -5.33301 -3.16699 -10 -7.5 -14s-9.5 -6 -15.5 -6h-118c-5.33301 0 -10.333 -2.16699 -15 -6.5
s-7.33398 -9.16602 -8.00098 -14.499l-10 -83c-0.666992 -6 0.833008 -11 4.5 -15s8.16699 -6 13.5 -6h235c5.33301 0 9.83301 -2 13.5 -6s4.83398 -8.66699 3.50098 -14l-9 -82c-0.666992 -5.33301 -3.33398 -10 -8.00098 -14s-9.66699 -6 -15 -6h-364
c-5.33301 0 -9.83301 2 -13.5 6s-5.16699 8.66699 -4.5 14l80 663c0.666992 5.33301 3.16699 10.166 7.5 14.499s9.5 6.5 15.5 6.5h363z" />
    <glyph glyph-name="Ecircumflex" unicode="&#xca;" horiz-adv-x="584" 
d="M275 789c-6 0 -9.66895 1.66699 -11.002 5s0 7.33301 4 12l115 138c3.33301 4 7.33301 6 12 6s8.33398 -2 11.001 -6l82 -138c2.66699 -4.66699 2.83398 -8.66699 0.500977 -12s-6.16602 -5 -11.499 -5h-43c-13.333 0 -23.333 5.66699 -30 17l-12 20
c-2.66699 4.66699 -6.33398 7 -11.001 7s-9 -2.33301 -13 -7l-16 -20c-9.33301 -11.333 -21 -17 -35 -17h-42zM515.998 715c6 0 10.6699 -2.16797 14.0029 -6.50098s4.66602 -9.16602 3.99902 -14.499l-10 -82c-0.666992 -5.33301 -3.16699 -10 -7.5 -14
s-9.16602 -6 -14.499 -6h-235c-5.33301 0 -10.333 -2 -15 -6s-7.33398 -9 -8.00098 -15l-20 -170c-0.666992 -6 0.666016 -11 3.99902 -15s8 -6 14 -6h118c5.33301 0 9.83301 -2 13.5 -6s5.16699 -8.66699 4.5 -14l-10 -82c-0.666992 -5.33301 -3.16699 -10 -7.5 -14
s-9.5 -6 -15.5 -6h-118c-5.33301 0 -10.333 -2.16699 -15 -6.5s-7.33398 -9.16602 -8.00098 -14.499l-10 -83c-0.666992 -4 -0.166992 -7.5 1.5 -10.5s4 -5.5 7 -7.5s6.16699 -3 9.5 -3h235c5.33301 0 9.83301 -2 13.5 -6s4.83398 -8.66699 3.50098 -14l-9 -82
c-0.666992 -5.33301 -3.33398 -10 -8.00098 -14s-9.66699 -6 -15 -6h-364c-5.33301 0 -9.83301 2 -13.5 6s-5.16699 8.66699 -4.5 14l80 663c0.666992 5.33301 3.16699 10.166 7.5 14.499s9.5 6.5 15.5 6.5h363z" />
    <glyph glyph-name="Edieresis" unicode="&#xcb;" horiz-adv-x="584" 
d="M469.5 793c-15.667 0 -28.3359 5.66699 -38.0029 17s-13.667 24.833 -12 40.5s8.83398 29.167 21.501 40.5s26.834 17 42.501 17s28.334 -5.66699 38.001 -17s13.5 -24.833 11.5 -40.5s-9.16699 -29.167 -21.5 -40.5s-26.333 -17 -42 -17zM283.498 793
c-15.667 0 -28.334 5.66699 -38.001 17s-13.667 24.833 -12 40.5s8.83398 29.167 21.501 40.5s26.667 17 42 17s28 -5.66699 38 -17s14 -24.833 12 -40.5s-9.16699 -29.167 -21.5 -40.5s-26.333 -17 -42 -17zM515.998 715c6 0 10.6699 -2.16895 14.0029 -6.50195
s4.66602 -9.16602 3.99902 -14.499l-10 -82c-0.666992 -5.33301 -3.16699 -10 -7.5 -14s-9.16602 -6 -14.499 -6h-235c-5.33301 0 -10.333 -2 -15 -6s-7.33398 -9 -8.00098 -15l-20 -170c-0.666992 -6 0.666016 -11 3.99902 -15s8 -6 14 -6h118
c5.33301 0 9.83301 -2 13.5 -6s5.16699 -8.66699 4.5 -14l-10 -82c-0.666992 -5.33301 -3.16699 -10 -7.5 -14s-9.5 -6 -15.5 -6h-118c-5.33301 0 -10.333 -2.16699 -15 -6.5s-7.33398 -9.16602 -8.00098 -14.499l-10 -83c-0.666992 -6 0.833008 -11 4.5 -15
s8.16699 -6 13.5 -6h235c5.33301 0 9.83301 -2 13.5 -6s4.83398 -8.66699 3.50098 -14l-9 -82c-0.666992 -5.33301 -3.33398 -10 -8.00098 -14s-9.66699 -6 -15 -6h-364c-5.33301 0 -9.83301 2 -13.5 6s-5.16699 8.66699 -4.5 14l80 663c0.666992 4 2 7.5 4 10.5
s4.66699 5.5 8 7.5s7 3 11 3h363z" />
    <glyph glyph-name="Igrave" unicode="&#xcc;" horiz-adv-x="310" 
d="M225 763c-4 0 -7.83398 0.833008 -11.501 2.5s-7 3.83398 -10 6.50098s-5.16699 5.66699 -6.5 9l-33 81c-2 5.33301 -1.83301 9.66602 0.5 12.999s6.5 5 12.5 5h30c4 0 7.66699 -0.833008 11 -2.5s6.33301 -4 9 -7s4.33398 -6.16699 5.00098 -9.5l17 -79l4 -19h-28z
M240.999 716c6 0 10.666 -2 13.999 -6s4.66602 -9 3.99902 -15l-80 -664c-0.666992 -6 -3.16699 -11 -7.5 -15s-9.16602 -6 -14.499 -6h-89c-5.33301 0 -9.83301 2 -13.5 6s-5.16699 9 -4.5 15l80 664c0.666992 6 3.33398 11 8.00098 15s9.66699 6 15 6h88z" />
    <glyph glyph-name="Iacute" unicode="&#xcd;" horiz-adv-x="319" 
d="M241 716c6 0 10.666 -2 13.999 -6s4.66602 -9 3.99902 -15l-80 -664c-0.666992 -6 -3.16699 -11 -7.5 -15s-9.16602 -6 -14.499 -6h-89c-5.33301 0 -9.83301 2 -13.5 6s-5.16699 9 -4.5 15l80 664c0.666992 6 3.33398 11 8.00098 15s9.66699 6 15 6h88zM256.999 880
c6 0 9.83105 -1.66895 11.498 -5.00195s0.833984 -7.66602 -2.49902 -12.999l-53 -81c-2.66699 -5.33301 -7.16699 -9.66602 -13.5 -12.999s-12.5 -5 -18.5 -5h-8h-20c-0.666992 0 -0.166992 1.66699 1.5 5s3.83398 8 6.50098 14l37 79c2 5.33301 5.83301 9.83301 11.5 13.5
s11.5 5.5 17.5 5.5h30z" />
    <glyph glyph-name="Icircumflex" unicode="&#xce;" horiz-adv-x="370" 
d="M241 716c6 0 10.666 -2 13.999 -6s4.66602 -9 3.99902 -15l-80 -664c-0.666992 -6 -3.16699 -11 -7.5 -15s-9.16602 -6 -14.499 -6h-89c-5.33301 0 -9.83301 2 -13.5 6s-5.16699 9 -4.5 15l80 664c0.666992 6 3.33398 11 8.00098 15s9.66699 6 15 6h88zM317.999 806
c2.66699 -4.66699 3.00098 -8.66699 1.00098 -12s-6 -5 -12 -5h-42c-14 0 -24.333 5.66699 -31 17l-12 20c-2.66699 4.66699 -6.33398 7 -11.001 7s-8.66699 -2.33301 -12 -7l-17 -20c-9.33301 -11.333 -20.666 -17 -33.999 -17h-43c-6 0 -9.5 1.66699 -10.5 5
s0.166992 7.33301 3.5 12l115 138c4 4 8.16699 6 12.5 6s8.16602 -2 11.499 -6z" />
    <glyph glyph-name="Idieresis" unicode="&#xcf;" horiz-adv-x="414" 
d="M113.5 793c-15.667 0 -28.334 5.66699 -38.001 17s-13.5 24.833 -11.5 40.5s9.16699 29.167 21.5 40.5s26.333 17 42 17s28.334 -5.66699 38.001 -17s13.5 -24.833 11.5 -40.5s-9.16699 -29.167 -21.5 -40.5s-26.333 -17 -42 -17zM241 716c6 0 10.666 -2 13.999 -6
s4.66602 -9 3.99902 -15l-80 -664c-0.666992 -6 -3.16699 -11 -7.5 -15s-9.16602 -6 -14.499 -6h-89c-5.33301 0 -9.83301 2 -13.5 6s-5.16699 9 -4.5 15l80 664c0.666992 6 3.33398 11 8.00098 15s9.66699 6 15 6h88zM313.499 908c15.667 0 28.332 -5.66699 37.999 -17
s13.5 -24.833 11.5 -40.5s-9.16699 -29.167 -21.5 -40.5s-26.166 -17 -41.499 -17c-10.667 0 -20 2.66699 -28 8s-14 12.333 -18 21s-5.33301 18 -4 28c2 16 9.16699 29.667 21.5 41s26.333 17 42 17z" />
    <glyph glyph-name="Eth" unicode="&#xd0;" horiz-adv-x="681" 
d="M300 715c66.667 0 126.67 -15.834 180.003 -47.501s93.333 -74.5 120 -128.5s36.167 -112.833 28.5 -176.5s-31.334 -122.5 -71.001 -176.5s-89.834 -96.667 -150.501 -128s-124.667 -47 -192 -47h-142c-6.66699 0 -12 2.33301 -16 7s-5.66699 10.334 -5 17.001l26 223
h-14c-4 0 -7.5 1.5 -10.5 4.5s-4.16699 6.83301 -3.5 11.5l11 90c0.666992 4.66699 2.66699 8.5 6 11.5s7.33301 4.5 12 4.5h14l37 310c1.33301 6.66699 4.66602 12.5 9.99902 17.5s11.333 7.5 18 7.5h142zM499.003 362.499c7.33301 63 -9.83398 117.003 -51.501 162.003
s-95.834 67.5 -162.501 67.5h-13c-6.66699 0 -12.667 -2.5 -18 -7.5s-8.33301 -10.833 -9 -17.5l-20 -162c-0.666992 -4.66699 0 -8.83398 2 -12.501s4.66699 -6.66699 8 -9s7.33301 -3.5 12 -3.5h23c6.66699 0 12 -2.33301 16 -7s5.66699 -10.667 5 -18l-9 -73
c-0.666992 -6.66699 -3.66699 -12.5 -9 -17.5s-11.333 -7.5 -18 -7.5h-23c-6.66699 0 -12.667 -2.33301 -18 -7s-8.33301 -10.334 -9 -17.001l-9 -75c-0.666992 -4.66699 -0.166992 -8.83398 1.5 -12.501s4.33398 -6.66699 8.00098 -9s7.5 -3.5 11.5 -3.5h13
c66.667 0 126.334 22.5 179.001 67.5s82.667 99 90 162z" />
    <glyph glyph-name="Ntilde" unicode="&#xd1;" horiz-adv-x="716" 
d="M286 820l-11.9951 10.002c-5.33301 4.66699 -7.83301 11 -7.5 19s3.83301 14.667 10.5 20c30 26.667 61 40 93 40c25.333 0 48.666 -9 69.999 -27l7 -6c18.667 -16.667 41 -15.334 67 3.99902c12 8.66699 23 8.66699 33 0l12 -11
c5.33301 -4.66699 7.66602 -11 6.99902 -19s-4.33398 -14.667 -11.001 -20c-28 -23.333 -57 -35 -87 -35c-25.333 0 -48.666 9 -69.999 27c-2.66699 2 -5.33398 4.66699 -8.00098 8c-8.66699 7.33301 -18.334 11 -29.001 11c-12.667 0 -26.334 -6.33301 -41.001 -19
c-12 -10.667 -23.333 -11.334 -34 -2.00098zM643.005 716.002c7.33301 0 13.167 -2.66699 17.5 -8s6.16602 -11.333 5.49902 -18l-80 -666c-0.666992 -5.33301 -3.66699 -9 -9 -11s-9.66602 -1.33301 -12.999 2l-321 377c-3.33301 3.33301 -7.66602 4 -12.999 2
s-8.33301 -5.66699 -9 -11l-42 -347c-0.666992 -7.33301 -3.83398 -13.5 -9.50098 -18.5s-11.834 -7.5 -18.501 -7.5h-78c-7.33301 0 -13.166 2.5 -17.499 7.5s-6.16602 11.167 -5.49902 18.5l80 665c0.666992 5.33301 3.66699 9 9 11s9.66602 1.33301 12.999 -2l321 -377
c3.33301 -3.33301 7.66602 -4 12.999 -2s8.33301 5.66699 9 11l42 348c0.666992 4.66699 2.33398 9 5.00098 13s6.16699 7.16699 10.5 9.5s8.83301 3.5 13.5 3.5h77z" />
    <glyph glyph-name="Ograve" unicode="&#xd2;" horiz-adv-x="847" 
d="M493 763c-3.33301 0 -7 0.833008 -11 2.5s-7.5 3.83398 -10.5 6.50098s-5.16699 5.66699 -6.5 9l-33 81c-2 5.33301 -1.66699 9.66602 1 12.999s6.66699 5 12 5h31c3.33301 0 6.83301 -0.833008 10.5 -2.5s6.66699 -4 9 -7s3.83301 -6.16699 4.5 -9.5l18 -79l4 -19h-29z
M468.5 736c67 0 126.833 -16.667 179.5 -50s92.167 -78.666 118.5 -135.999s35.5 -119.833 27.5 -187.5s-32 -130 -72 -187s-90.5 -102.167 -151.5 -135.5s-125 -50 -192 -50s-127 16.667 -180 50s-92.5 78.5 -118.5 135.5s-35 119.333 -27 187s32 130.167 72 187.5
s90.5 102.666 151.5 135.999s125 50 192 50zM664.5 362.5c8.33301 67 -8.33398 124.167 -50.001 171.5s-95.667 71 -162 71s-126 -23.667 -179 -71s-83.5 -104.5 -91.5 -171.5s8.66699 -124.167 50 -171.5s95.333 -71 162 -71s126.334 23.667 179.001 71
s83.167 104.5 91.5 171.5z" />
    <glyph glyph-name="Oacute" unicode="&#xd3;" horiz-adv-x="846" 
d="M450 763l-8.00488 -0.00195312h-21l2.5 5c1.66699 3.33301 3.83398 8 6.50098 14l36 79c2.66699 5.33301 6.83398 9.83301 12.501 13.5s11.167 5.5 16.5 5.5h31c5.33301 0 8.83301 -1.66699 10.5 -5s0.833984 -7.66602 -2.49902 -12.999l-52 -81
c-3.33301 -5.33301 -8.16602 -9.66602 -14.499 -12.999s-12.166 -5 -17.499 -5zM467.995 735.998c67.333 0 127.333 -16.668 180 -50.001s92.167 -78.666 118.5 -135.999s35.5 -119.833 27.5 -187.5s-32 -130 -72 -187s-90.5 -102.167 -151.5 -135.5s-125 -50 -192 -50
s-127 16.667 -180 50s-92.5 78.5 -118.5 135.5s-35 119.5 -27 187.5c6 50 21.5 98 46.5 144s56.167 85.667 93.5 119s80 60 128 80s97 30 147 30zM664.995 362.997c4.66699 43.333 -1.50195 83.668 -18.502 121.001s-42.667 66.833 -77 88.5s-73.5 32.5 -117.5 32.5
c-66 0 -125.5 -23.667 -178.5 -71s-83.5 -104.333 -91.5 -171c-5.33301 -44 0.5 -84.667 17.5 -122s42.833 -66.833 77.5 -88.5s73.667 -32.5 117 -32.5c66.667 0 126.334 23.667 179.001 71s83.334 104.666 92.001 171.999z" />
    <glyph glyph-name="Ocircumflex" unicode="&#xd4;" horiz-adv-x="846" 
d="M373 789c-5.33301 0 -8.66699 1.66699 -10 5s0 7.33301 4 12l114 138c4 4 8.33301 6 13 6s8.33398 -2 11.001 -6l81 -138c2.66699 -4.66699 3 -8.66699 1 -12s-5.66699 -5 -11 -5h-43c-13.333 0 -23.333 5.66699 -30 17l-12 20c-2.66699 4.66699 -6.33398 7 -11.001 7
s-9 -2.33301 -13 -7l-17 -20c-8.66699 -11.333 -20 -17 -34 -17h-43zM468.499 736c67 0 126.833 -16.667 179.5 -50s92.167 -78.666 118.5 -135.999s35.5 -119.833 27.5 -187.5s-32 -130 -72 -187s-90.5 -102.167 -151.5 -135.5s-125 -50 -192 -50s-127 16.667 -180 50
s-92.5 78.5 -118.5 135.5s-35 119.333 -27 187s32 130.167 72 187.5s90.5 102.666 151.5 135.999s125 50 192 50zM664.999 363c4.66699 43.333 -1.50195 83.668 -18.502 121.001s-42.667 66.833 -77 88.5s-73.5 32.5 -117.5 32.5c-66 0 -125.5 -23.667 -178.5 -71
s-83.5 -104.5 -91.5 -171.5s8.66699 -124.167 50 -171.5s95.333 -71 162 -71s126.334 23.667 179.001 71s83.334 104.666 92.001 171.999z" />
    <glyph glyph-name="Otilde" unicode="&#xd5;" horiz-adv-x="846" 
d="M427 841c-18 0 -37.333 -11.999 -58 -35.999l-50 42c36.667 41.333 75.334 62 116.001 62c26 0 49.333 -9 70 -27l7 -6c8.66699 -8.66699 18.667 -12.334 30 -11.001s21.166 4.5 29.499 9.5s16.5 11.833 24.5 20.5l47 -43c-34.667 -38 -71 -57 -109 -57
c-26 0 -49.333 9 -70 27c-2.66699 2 -5.66699 4.66699 -9 8c-8.66699 7.33301 -18 11 -28 11zM468 736.001c67.333 0 127.333 -16.668 180 -50.001s92.167 -78.666 118.5 -135.999s35.5 -119.833 27.5 -187.5s-32 -130 -72 -187s-90.5 -102.167 -151.5 -135.5
s-125 -50 -192 -50s-127 16.667 -180 50s-92.5 78.5 -118.5 135.5s-35 119.5 -27 187.5c6 50 21.5 98 46.5 144s56.167 85.667 93.5 119s80 60 128 80s97 30 147 30zM665 363c5.33301 43.333 -0.668945 83.668 -18.002 121.001s-43.166 66.833 -77.499 88.5
s-73.166 32.5 -116.499 32.5c-66.667 0 -126.5 -23.667 -179.5 -71s-83.5 -104.333 -91.5 -171c-5.33301 -44 0.5 -84.667 17.5 -122s42.833 -66.833 77.5 -88.5s73.667 -32.5 117 -32.5c66.667 0 126.5 23.667 179.5 71s83.5 104.666 91.5 171.999z" />
    <glyph glyph-name="Odieresis" unicode="&#xd6;" horiz-adv-x="846" 
d="M568 793c-15.333 0 -28 5.66699 -38 17s-14 24.833 -12 40.5s9.16699 29.167 21.5 40.5s26.5 17 42.5 17c10 0 19.167 -2.66699 27.5 -8s14.5 -12.333 18.5 -21s5.33301 -18.167 4 -28.5s-5 -19.833 -11 -28.5s-13.667 -15.667 -23 -21s-19.333 -8 -30 -8zM468 736
c67.333 0 127.333 -16.668 180 -50.001s92.167 -78.666 118.5 -135.999s35.5 -119.833 27.5 -187.5s-32 -130 -72 -187s-90.5 -102.167 -151.5 -135.5s-125 -50 -192 -50s-127 16.667 -180 50s-92.5 78.5 -118.5 135.5s-35 119.5 -27 187.5c6 50 21.5 98 46.5 144
s56.167 85.667 93.5 119s80 60 128 80s97 30 147 30zM665 362.999c4.66699 43.333 -1.50195 83.6689 -18.502 121.002s-42.667 66.833 -77 88.5s-73.5 32.5 -117.5 32.5c-66 0 -125.5 -23.667 -178.5 -71s-83.5 -104.333 -91.5 -171c-4 -33.333 -1.5 -65 7.5 -95
s23 -55.833 42 -77.5s42.667 -38.834 71 -51.501s58.833 -19 91.5 -19c66.667 0 126.334 23.667 179.001 71s83.334 104.666 92.001 171.999zM381.998 793.002c-15.333 0 -27.999 5.66699 -37.999 17s-14 25 -12 41c1.33301 10 5 19.333 11 28s13.667 15.667 23 21
s19.333 8 30 8c15.333 0 27.833 -5.66699 37.5 -17s13.667 -24.833 12 -40.5s-8.83398 -29.167 -21.501 -40.5s-26.667 -17 -42 -17z" />
    <glyph glyph-name="multiply" unicode="&#xd7;" horiz-adv-x="470" 
d="M412 440l-70 -63c-4 -4 -6.33301 -8.83301 -7 -14.5s0.666016 -10.5 3.99902 -14.5l55 -62c3.33301 -4 4.66602 -8.83301 3.99902 -14.5s-3.33398 -10.5 -8.00098 -14.5l-70 -63c-4.66699 -4 -9.83398 -6 -15.501 -6s-10.167 2 -13.5 6l-54 62c-4 4 -8.83301 6 -14.5 6
s-10.5 -2 -14.5 -6l-70 -62c-4.66699 -4 -9.83398 -6 -15.501 -6s-10.167 2 -13.5 6l-55 63c-3.33301 4 -4.66602 8.83301 -3.99902 14.5s3.33398 10.5 8.00098 14.5l70 62c4 4 6.33301 8.83301 7 14.5s-0.666016 10.5 -3.99902 14.5l-55 63
c-3.33301 4 -4.66602 8.83301 -3.99902 14.5s3.33398 10.5 8.00098 14.5l70 63c4.66699 4 9.83398 6 15.501 6s10.167 -2 13.5 -6l54 -63c4 -4 8.83301 -6 14.5 -6s10.5 2 14.5 6l70 63c4.66699 4 9.83398 6 15.501 6s10.167 -2 13.5 -6l55 -63
c3.33301 -4 4.66602 -8.83301 3.99902 -14.5s-3.33398 -10.5 -8.00098 -14.5z" />
    <glyph glyph-name="Oslash" unicode="&#xd8;" horiz-adv-x="846" 
d="M468.5 736c67 0 126.833 -16.667 179.5 -50s92.167 -78.666 118.5 -135.999s35.5 -119.833 27.5 -187.5s-32 -130 -72 -187s-90.5 -102.167 -151.5 -135.5s-125 -50 -192 -50s-127 16.667 -180 50s-92.5 78.5 -118.5 135.5s-35 119.333 -27 187s32 130.167 72 187.5
s90.5 102.666 151.5 135.999s125 50 192 50zM190 269c2.66699 -8 8.16797 -12.834 16.501 -14.501s15.833 0.5 22.5 6.5l320 283c7.33301 6 10.666 13.333 9.99902 22s-4.66699 14.667 -12 18c-47.333 22.667 -98.666 27.334 -153.999 14.001
c-43.333 -10 -82.5 -30.667 -117.5 -62s-60.833 -68 -77.5 -110c-20.667 -54 -23.334 -106.333 -8.00098 -157zM655.001 316.999c15.333 51.333 15 100.333 -1 147c-2.66699 8 -8 12.833 -16 14.5s-15.667 -0.5 -23 -6.5l-325 -288
c-7.33301 -6 -10.666 -13.167 -9.99902 -21.5s4.66699 -14.5 12 -18.5c43.333 -22.667 91 -29.667 143 -21c50.667 8 96.167 30 136.5 66s68.166 78.667 83.499 128z" />
    <glyph glyph-name="Ugrave" unicode="&#xd9;" horiz-adv-x="691" 
d="M620 716c4 0 7.83398 -1.16797 11.501 -3.50098s6.33398 -5.33301 8.00098 -9s2.16699 -7.83398 1.5 -12.501l-51 -423c-8.66699 -73.333 -40.834 -137.166 -96.501 -191.499s-119.5 -83.166 -191.5 -86.499c-50.667 -2.66699 -96.334 7.83301 -137.001 31.5
s-71.167 56.667 -91.5 99s-27.5 88.833 -21.5 139.5l52 431c0.666992 6.66699 3.66699 12.5 9 17.5s11.333 7.5 18 7.5h81c6.66699 0 12 -2.5 16 -7.5s5.66699 -10.833 5 -17.5l-51 -426c-2.66699 -24 -0.166992 -46.333 7.5 -67s20 -38 37 -52s36.5 -22.333 58.5 -25
c42 -5.33301 80.333 6 115 34s54.667 63 60 105l52 431c0.666992 6.66699 3.66699 12.5 9 17.5s11.333 7.5 18 7.5h81zM373.001 780.999l-32 80.001c-5.33301 12 -7.5 18.167 -6.5 18.5s8.5 0.5 22.5 0.5h27c6 0 11.333 -1.83301 16 -5.5s7.66699 -8.16699 9 -13.5l17 -79
c1.33301 -5.33301 0.5 -9.83301 -2.5 -13.5s-7.5 -5.5 -13.5 -5.5h-9c-5.33301 0 -10.833 1.66699 -16.5 5s-9.5 7.66602 -11.5 12.999z" />
    <glyph glyph-name="Uacute" unicode="&#xda;" horiz-adv-x="689" 
d="M617 716c6.66699 0 12.1719 -2.5 16.5049 -7.5s5.83301 -10.833 4.5 -17.5l-48 -403c-8.66699 -73.333 -40.834 -137 -96.501 -191s-119.5 -83 -191.5 -87c-50.667 -2.66699 -96.334 7.83301 -137.001 31.5s-71.167 56.834 -91.5 99.501s-27.5 89 -21.5 139l49 411
c1.33301 6.66699 4.66602 12.5 9.99902 17.5s11.333 7.5 18 7.5h80c6.66699 0 12.167 -2.5 16.5 -7.5s6.16602 -10.833 5.49902 -17.5l-49 -406c-4.66699 -36 2.83301 -67.833 22.5 -95.5s46.5 -43.834 80.5 -48.501c42 -5.33301 80.333 6 115 34s54.667 63 60 105l49 411
c0.666992 6.66699 3.66699 12.5 9 17.5s11.666 7.5 18.999 7.5h80zM359.005 763l-9.00391 -0.00195312c-6 0 -10 1.83301 -12 5.5s-2 8.16699 0 13.5l36 79c2.66699 5.33301 6.83398 9.83301 12.501 13.5s11.5 5.5 17.5 5.5h27h22l-0.5 -1
c-0.333008 -0.666992 -0.666016 -1.66699 -0.999023 -3s-1 -2.66602 -2 -3.99902s-2.16699 -3 -3.5 -5s-2.33301 -4 -3 -6l-52 -80c-3.33301 -5.33301 -8.16602 -9.66602 -14.499 -12.999s-12.166 -5 -17.499 -5z" />
    <glyph glyph-name="Ucircumflex" unicode="&#xdb;" horiz-adv-x="689" 
d="M617 716c6.66699 0 12.1719 -2.5 16.5049 -7.5s5.83301 -10.833 4.5 -17.5l-48 -403c-8.66699 -73.333 -40.834 -137 -96.501 -191s-119.5 -83 -191.5 -87c-50.667 -2.66699 -96.334 7.83301 -137.001 31.5s-71.167 56.834 -91.5 99.501s-27.5 89 -21.5 139l49 411
c1.33301 6.66699 4.66602 12.5 9.99902 17.5s11.333 7.5 18 7.5h80c6.66699 0 12.167 -2.5 16.5 -7.5s6.16602 -10.833 5.49902 -17.5l-49 -406c-4.66699 -36 2.83301 -67.833 22.5 -95.5s46.5 -43.834 80.5 -48.501c42 -5.33301 80.333 6 115 34s54.667 63 60 105l49 411
c0.666992 6.66699 3.66699 12.5 9 17.5s11.666 7.5 18.999 7.5h80zM281.005 789c-6 0 -9.66895 1.66699 -11.002 5s0 7.33301 4 12l114 138c4 4 8.33301 6 13 6s8.33398 -2 11.001 -6l82 -138c2.66699 -4.66699 2.83398 -8.66699 0.500977 -12s-6.16602 -5 -11.499 -5h-43
c-13.333 0 -23.333 5.66699 -30 17l-12 20c-2.66699 4.66699 -6.33398 7 -11.001 7s-9 -2.33301 -13 -7l-16 -20c-9.33301 -11.333 -21 -17 -35 -17h-42z" />
    <glyph glyph-name="Udieresis" unicode="&#xdc;" horiz-adv-x="689" 
d="M475.5 793c-15.667 0 -28.3359 5.66699 -38.0029 17s-13.667 24.833 -12 40.5s8.83398 29.167 21.501 40.5s26.834 17 42.501 17s28.334 -5.66699 38.001 -17s13.5 -24.833 11.5 -40.5s-9.16699 -29.167 -21.5 -40.5s-26.333 -17 -42 -17zM616.998 716
c6.66699 0 12.1699 -2.50098 16.5029 -7.50098s6.16602 -10.833 5.49902 -17.5l-49 -403c-8.66699 -73.333 -40.834 -137 -96.501 -191s-119.5 -83 -191.5 -87c-50.667 -2.66699 -96.334 7.83301 -137.001 31.5s-71.167 56.834 -91.5 99.501s-27.5 89 -21.5 139l50 411
c0 4.66699 1.33301 8.83398 4 12.501s6 6.66699 10 9s8.33301 3.5 13 3.5h80c7.33301 0 13 -2.5 17 -7.5s5.66699 -10.833 5 -17.5l-49 -406c-4.66699 -36 2.83301 -67.833 22.5 -95.5s46.834 -43.834 81.501 -48.501c41.333 -5.33301 79.333 6 114 34s54.667 63 60 105
l49 411c1.33301 6.66699 4.66602 12.5 9.99902 17.5s11.333 7.5 18 7.5h80zM289.501 792.999c-15.667 0 -28.3359 5.66699 -38.0029 17s-13.667 24.833 -12 40.5s8.83398 29.167 21.501 40.5s26.834 17 42.501 17s28.334 -5.66699 38.001 -17s13.5 -24.833 11.5 -40.5
s-9.16699 -29.167 -21.5 -40.5s-26.333 -17 -42 -17z" />
    <glyph glyph-name="Yacute" unicode="&#xdd;" horiz-adv-x="714" 
d="M337 763h-10.0039c-5.33301 0 -9.16602 1.83301 -11.499 5.5s-2.16602 8.16699 0.500977 13.5l36 79c2.66699 5.33301 6.83398 9.83301 12.501 13.5s11.167 5.5 16.5 5.5h27h22c0 -0.666992 -0.333008 -1.83398 -1 -3.50098s-1.83398 -4 -3.50098 -7l-5.5 -9.5l-51 -79
c-3.33301 -5.33301 -8.16602 -9.66602 -14.499 -12.999s-12.166 -5 -17.499 -5zM653.996 715c5.33301 0 8.66699 -1.83203 10 -5.49902s0.333008 -7.83398 -3 -12.501l-275 -381c-8.66699 -12 -14 -24.667 -16 -38l-30 -249c0 -2.66699 -0.5 -5 -1.5 -7
s-2.16699 -3.83301 -3.5 -5.5s-3 -3.16699 -5 -4.5s-4 -2.33301 -6 -3s-4 -1 -6 -1h-89c-5.33301 0 -9.83301 2 -13.5 6s-5.16699 9 -4.5 15l30 249c2 13.333 0 26 -6 38l-183 381c-2.66699 4.66699 -2.83398 8.83398 -0.500977 12.501s6.5 5.5 12.5 5.5h110
c5.33301 0 10.833 -1.83301 16.5 -5.5s9.83398 -7.83398 12.501 -12.501l114 -238c2.66699 -4.66699 6 -7 10 -7s7.66699 2.33301 11 7l172 238c8 12 19 18 33 18h70h41z" />
    <glyph glyph-name="Thorn" unicode="&#xde;" horiz-adv-x="508" 
d="M267 603c5.33301 -2.66699 12.666 -6.66602 21.999 -11.999s25.5 -16.5 48.5 -33.5s43 -34.5 60 -52.5s31.833 -40 44.5 -66s17.5 -51.5 14.5 -76.5s-13.5 -50.333 -31.5 -76s-38.833 -48 -62.5 -67s-47.167 -36 -70.5 -51s-43 -26.5 -59 -34.5l-24 -12
c-2.66699 -1.33301 -5.33398 -3 -8.00098 -5s-5 -4.33301 -7 -7s-3.66699 -5.5 -5 -8.5s-2 -5.83301 -2 -8.5l-8 -63c-0.666992 -5.33301 -3.16699 -10 -7.5 -14s-9.16602 -6 -14.499 -6h-89c-5.33301 0 -9.83301 2 -13.5 6s-5.16699 8.66699 -4.5 14l11 87
c0 4 0.666992 10.833 2 20.5s2.33301 16.5 3 20.5l49 409c0.666992 4 1.5 11 2.5 21s1.83301 16.667 2.5 20l10 86l3 21h3h106c5.33301 0 9.83301 -2 13.5 -6s4.83398 -8.66699 3.50098 -14l-7 -63c-0.666992 -5.33301 0.5 -10.833 3.5 -16.5s6.83301 -9.83398 11.5 -12.501
zM224 252.001l10.501 5.49707c4.33301 2.33301 12.166 7.5 23.499 15.5s21.5 16 30.5 24s17.333 18 25 30s12.334 23.833 14.001 35.5s0 23.5 -5 35.5s-11.333 22.333 -19 31s-15.5 16.334 -23.5 23.001s-15 12 -21 16l-8 5c-4.66699 2.66699 -8.83398 3 -12.501 1
s-6.16699 -6 -7.5 -12l-23 -199c-0.666992 -5.33301 0.5 -9.16602 3.5 -11.499s7.16699 -2.16602 12.5 0.500977z" />
    <glyph glyph-name="germandbls" unicode="&#xdf;" horiz-adv-x="645" 
d="M527 384c26.667 -22 45.8301 -49.667 57.4971 -83s13.834 -69 6.50098 -107c-10.667 -57.333 -40.167 -105.666 -88.5 -144.999s-101.5 -59 -159.5 -59h-99c-7.33301 0 -13.166 2.5 -17.499 7.5s-6.16602 10.833 -5.49902 17.5l10 79
c0.666992 4.66699 2.33398 9 5.00098 13s6.16699 7.16699 10.5 9.5s8.5 3.5 12.5 3.5h106c26 0 49 9.66699 69 29s30.333 42 31 68c0.666992 23.333 -7 42.666 -23 57.999s-35.667 23 -59 23h-13c-7.33301 0 -13.166 2.33301 -17.499 7s-6.16602 10.667 -5.49902 18l10 83
c2 12.667 9.66699 20.667 23 24c20.667 4.66699 38.334 15 53.001 31s23.334 34.667 26.001 56c4 32 -6.83301 57 -32.5 75s-55.167 19 -88.5 3c-20.667 -9.33301 -37.834 -23.5 -51.501 -42.5s-21.834 -39.833 -24.501 -62.5l-15 -127l-68 -560
c-0.666992 -6.66699 -3.83398 -12.5 -9.50098 -17.5s-11.834 -7.5 -18.501 -7.5h-79c-6.66699 0 -12.167 2.5 -16.5 7.5s-6.16602 10.833 -5.49902 17.5l67 560l17 136c8 64.667 37.167 120 87.5 166s107.5 69.333 171.5 70c38.667 0.666992 73.667 -8.33301 105 -27
s55.166 -44.5 71.499 -77.5s22.833 -68.833 19.5 -107.5c-4.66699 -52 -25.334 -98.333 -62.001 -139z" />
    <glyph glyph-name="agrave" unicode="&#xe0;" horiz-adv-x="571" 
d="M345 539c-3.33301 0 -7.00098 0.832031 -11.001 2.49902s-7.33301 3.83398 -10 6.50098s-4.66699 5.66699 -6 9l-33 81c-2 5.33301 -1.83301 9.83301 0.5 13.5s6.5 5.5 12.5 5.5h30c6 0 11.333 -2 16 -6s7.66699 -8.66699 9 -14l17 -79
c1.33301 -5.33301 0.333008 -9.83301 -3 -13.5s-7.66602 -5.5 -12.999 -5.5h-9zM331.999 500.999c59.333 0 107.33 -20.998 143.997 -62.998s51.334 -93 44.001 -153l-6 -47l-7 -56l-18 -148c-0.666992 -7.33301 -3.66699 -13.333 -9 -18s-11.333 -7 -18 -7h-55
c-13.333 0 -24.333 4.83301 -33 14.5s-12.334 21.5 -11.001 35.5c-10.667 -16.667 -30.667 -31.667 -60 -45s-55.666 -20 -78.999 -20c-56.667 0 -101 13.667 -133 41s-45.333 64.666 -40 111.999c6.66699 54.667 31.667 98.167 75 130.5s98 48.5 164 48.5
c33.333 0 66 -4.66699 98 -14c-3.33301 17.333 -13.333 33 -30 47s-34.334 21 -53.001 21c-30.667 0 -58.667 -6.66699 -84 -20c-6.66699 -2.66699 -13 -3.16699 -19 -1.5s-10.333 5.16699 -13 10.5l-31 61c-3.33301 6 -3.66602 12.667 -0.999023 20
s7.33398 12.666 14.001 15.999c46.667 23.333 100.334 35 161.001 35zM237.996 111.001c13.333 0 27.1699 1.83008 41.5029 5.49707s29.666 10.834 45.999 21.501s29.5 24 39.5 40c-26.667 12 -57.334 18 -92.001 18c-20.667 0 -39.334 -2.66699 -56.001 -8
c-14 -5.33301 -23.333 -11.166 -28 -17.499s-7.66699 -14.166 -9 -23.499c-0.666992 -8 1.5 -14.833 6.5 -20.5s11.5 -9.5 19.5 -11.5s14.5 -3.16699 19.5 -3.5s9.16699 -0.5 12.5 -0.5z" />
    <glyph glyph-name="aacute" unicode="&#xe1;" horiz-adv-x="571" 
d="M332 501c59.333 0 107.33 -20.998 143.997 -62.998s51.334 -93 44.001 -153l-6 -47l-7 -56l-18 -148c-0.666992 -7.33301 -3.66699 -13.333 -9 -18s-11.333 -7 -18 -7h-55c-13.333 0 -24.333 4.83301 -33 14.5s-12.334 21.5 -11.001 35.5
c-10.667 -16.667 -30.667 -31.667 -60 -45s-55.666 -20 -78.999 -20c-56.667 0 -101 13.667 -133 41s-45.333 64.666 -40 111.999c6.66699 54.667 31.667 98.167 75 130.5s98 48.5 164 48.5c33.333 0 66 -4.66699 98 -14c-3.33301 17.333 -13.333 33 -30 47
s-34.334 21 -53.001 21c-30.667 0 -58.667 -6.66699 -84 -20c-6.66699 -2.66699 -13 -3.16699 -19 -1.5s-10.333 5.16699 -13 10.5l-31 61c-3.33301 6 -3.66602 12.667 -0.999023 20s7.33398 12.666 14.001 15.999c46.667 23.333 100.334 35 161.001 35zM237.997 111.002
c13.333 0 27.1699 1.83008 41.5029 5.49707s29.666 10.834 45.999 21.501s29.5 24 39.5 40c-26.667 12 -57.334 18 -92.001 18c-20.667 0 -39.334 -2.66699 -56.001 -8c-14 -5.33301 -23.333 -11.166 -28 -17.499s-7.66699 -14.166 -9 -23.499
c-0.666992 -8 1.5 -14.833 6.5 -20.5s11.5 -9.5 19.5 -11.5s14.5 -3.16699 19.5 -3.5s9.16699 -0.5 12.5 -0.5zM304.001 538.999l-9.00391 0.000976562c-5.33301 0 -9.16602 1.83301 -11.499 5.5s-2.5 8.16699 -0.5 13.5l37 79c2 5.33301 6 10 12 14s11.667 6 17 6h31
c5.33301 0 8.83301 -1.83301 10.5 -5.5s0.833984 -8.16699 -2.49902 -13.5l-52 -81c-3.33301 -4.66699 -8.16602 -8.83398 -14.499 -12.501s-12.166 -5.5 -17.499 -5.5z" />
    <glyph glyph-name="acircumflex" unicode="&#xe2;" horiz-adv-x="571" 
d="M332 501c59.333 0 107.33 -20.998 143.997 -62.998s51.334 -93 44.001 -153l-6 -47l-7 -56l-18 -148c-0.666992 -7.33301 -3.66699 -13.333 -9 -18s-11.333 -7 -18 -7h-55c-13.333 0 -24.333 4.83301 -33 14.5s-12.334 21.5 -11.001 35.5
c-10.667 -16.667 -30.667 -31.667 -60 -45s-55.666 -20 -78.999 -20c-56.667 0 -101 13.667 -133 41s-45.333 64.666 -40 111.999c6.66699 54.667 31.667 98.167 75 130.5s98 48.5 164 48.5c33.333 0 66 -4.66699 98 -14c-3.33301 17.333 -13.333 33 -30 47
s-34.334 21 -53.001 21c-30.667 0 -58.667 -6.66699 -84 -20c-6.66699 -2.66699 -13 -3.16699 -19 -1.5s-10.333 5.16699 -13 10.5l-31 61c-3.33301 6 -3.66602 12.667 -0.999023 20s7.33398 12.666 14.001 15.999c46.667 23.333 100.334 35 161.001 35zM237.997 111.002
c22 0 45.002 5.33105 69.002 15.998s43.333 27.667 58 51c-26.667 12 -57.334 18 -92.001 18c-20.667 0 -39.334 -2.66699 -56.001 -8c-14 -5.33301 -23.333 -11.166 -28 -17.499s-7.66699 -14.166 -9 -23.499c-0.666992 -8 1.5 -14.833 6.5 -20.5s11.5 -9.5 19.5 -11.5
s14.5 -3.16699 19.5 -3.5s9.16699 -0.5 12.5 -0.5zM222.999 538c-5.33301 0 -8.66797 1.5 -10.001 4.5s-0.333008 6.83301 3 11.5l115 138c4 4.66699 8.33301 7 13 7s8.33398 -2.33301 11.001 -7l81 -138c2.66699 -4.66699 3 -8.5 1 -11.5s-6 -4.5 -12 -4.5h-42
c-14 0 -24.333 5.33301 -31 16l-11 20c-2.66699 4.66699 -6.33398 7 -11.001 7s-9 -2.33301 -13 -7l-17 -20c-9.33301 -10.667 -20.666 -16 -33.999 -16h-43z" />
    <glyph glyph-name="atilde" unicode="&#xe3;" horiz-adv-x="571" 
d="M232 565l-21 18c-4.66699 3.33301 -6.83398 8 -6.50098 14s2.5 11 6.5 15c32.667 30.667 66 46 100 46c26 0 49.333 -9 70 -27l7 -6c20.667 -17.333 44.334 -15 71.001 7c9.33301 7.33301 18 7.33301 26 0l20 -18c4 -4 5.83301 -8.83301 5.5 -14.5
s-2.83301 -10.5 -7.5 -14.5c-30 -27.333 -61 -41 -93 -41c-26 0 -49.333 9 -70 27c-2.66699 2 -5.66699 4.66699 -9 8c-8.66699 7.33301 -18 11 -28 11c-14 0 -29 -7.33301 -45 -22c-9.33301 -8.66699 -18 -9.66699 -26 -3zM332 501
c59.333 0 107.33 -20.998 143.997 -62.998s51.334 -93 44.001 -153l-6 -47l-7 -56l-18 -148c-0.666992 -7.33301 -3.66699 -13.333 -9 -18s-11.333 -7 -18 -7h-55c-13.333 0 -24.333 4.83301 -33 14.5s-12.334 21.5 -11.001 35.5c-10.667 -16.667 -30.667 -31.667 -60 -45
s-55.666 -20 -78.999 -20c-56.667 0 -101 13.667 -133 41s-45.333 64.666 -40 111.999c6.66699 54.667 31.667 98.167 75 130.5s98 48.5 164 48.5c33.333 0 66 -4.66699 98 -14c-3.33301 17.333 -13.333 33 -30 47s-34.334 21 -53.001 21
c-30.667 0 -58.667 -6.66699 -84 -20c-6.66699 -2.66699 -13 -3.16699 -19 -1.5s-10.333 5.16699 -13 10.5l-31 61c-3.33301 6 -3.66602 12.667 -0.999023 20s7.33398 12.666 14.001 15.999c46.667 23.333 100.334 35 161.001 35zM237.997 111.002
c13.333 0 27.1699 1.83008 41.5029 5.49707s29.666 10.834 45.999 21.501s29.5 24 39.5 40c-26.667 12 -57.334 18 -92.001 18c-20.667 0 -39.334 -2.66699 -56.001 -8c-14 -5.33301 -23.333 -11.166 -28 -17.499s-7.66699 -14.166 -9 -23.499
c-0.666992 -8 1.5 -14.833 6.5 -20.5s11.5 -9.5 19.5 -11.5s14.5 -3.16699 19.5 -3.5s9.16699 -0.5 12.5 -0.5z" />
    <glyph glyph-name="adieresis" unicode="&#xe4;" horiz-adv-x="571" 
d="M232 543c-10.667 0 -20.002 2.5 -28.002 7.5s-14 11.833 -18 20.5s-5.33301 18.334 -4 29.001c2 15.333 9.16699 28.666 21.5 39.999s26.333 17 42 17s28.334 -5.66699 38.001 -17s13.5 -24.833 11.5 -40.5s-9.16699 -29 -21.5 -40s-26.166 -16.5 -41.499 -16.5z
M417.998 543c-10 0 -19.166 2.5 -27.499 7.5s-14.5 11.833 -18.5 20.5s-5.33301 18.167 -4 28.5s5 19.833 11 28.5s13.667 15.667 23 21s19.333 8 30 8c15.333 0 27.833 -5.66699 37.5 -17s13.667 -24.833 12 -40.5s-8.83398 -29 -21.501 -40s-26.667 -16.5 -42 -16.5z
M331.999 501c59.333 0 107.33 -20.998 143.997 -62.998s51.334 -93 44.001 -153l-6 -47l-7 -56l-18 -148c-0.666992 -7.33301 -3.66699 -13.333 -9 -18s-11.333 -7 -18 -7h-55c-13.333 0 -24.333 4.83301 -33 14.5s-12.334 21.5 -11.001 35.5
c-10.667 -16.667 -30.667 -31.667 -60 -45s-55.666 -20 -78.999 -20c-56.667 0 -101 13.667 -133 41s-45.333 64.666 -40 111.999c6.66699 54.667 31.667 98.167 75 130.5s98 48.5 164 48.5c33.333 0 66 -4.66699 98 -14c-3.33301 17.333 -13.333 33 -30 47
s-34.334 21 -53.001 21c-30.667 0 -58.667 -6.66699 -84 -20c-6.66699 -2.66699 -13 -3.16699 -19 -1.5s-10.333 5.16699 -13 10.5l-31 61c-3.33301 6 -3.66602 12.667 -0.999023 20s7.33398 12.666 14.001 15.999c46.667 23.333 100.334 35 161.001 35zM237.996 111.002
c22 0 45.001 5.33105 69.001 15.998s43.333 27.667 58 51c-26 12 -56.667 18 -92 18c-20.667 0 -39.334 -2.66699 -56.001 -8c-14 -5.33301 -23.333 -11.166 -28 -17.499s-7.66699 -14.166 -9 -23.499c-0.666992 -8 1.5 -14.833 6.5 -20.5s11.5 -9.5 19.5 -11.5
s14.5 -3.16699 19.5 -3.5s9.16699 -0.5 12.5 -0.5z" />
    <glyph glyph-name="aring" unicode="&#xe5;" 
d="M513 369c1.33301 -4.66699 2.50195 -10.1758 3.50195 -16.5088s1.66699 -12.166 2 -17.499s0.666016 -10.166 0.999023 -14.499s0.5 -7.83301 0.5 -10.5v-4c0 -14 -1 -27.667 -3 -41l-1 -5c-1.33301 -14 -2 -21.167 -2 -21.5s-1 -7.16602 -3 -20.499l-1 -14l-3 -21
l-2 -21l-16 -131c0 -2 -0.333008 -5 -1 -9l-2 -12c0 -0.666992 -6.66699 -1 -20 -1h-88c-14 0 -21 0.333008 -21 1l1 3c0 4.66699 0.666992 10.334 2 17.001c0 4 -1.66699 6.33301 -5 7s-7.33301 -0.333008 -12 -3c-49.333 -26.667 -89 -40 -119 -40
c-48.667 0 -88.667 10.333 -120 31s-49 49.667 -53 87c-1.33301 11.333 -1.33301 23 0 35v1c0 0.666992 0.166992 1.5 0.5 2.5s0.5 1.83301 0.5 2.5c2 12.667 5 24.667 9 36c0.666992 1.33301 1.33398 2.83301 2.00098 4.5s1.5 3.5 2.5 5.5l2.5 5c4 10 7.33301 17 10 21
s6.66699 9.66699 12 17c5.33301 6 9.66602 10.667 12.999 14c5.33301 6 11 11.667 17 17l13 9c42.667 30 95 45 157 45c10 0 21.5 -0.833008 34.5 -2.5s23.833 -3.5 32.5 -5.5l12 -2c3.33301 -1.33301 6.5 -2.16602 9.5 -2.49902s5.33301 -0.666016 7 -0.999023l2.5 -0.5v1
c-4 16.667 -12.5 30.5 -25.5 41.5s-28.833 16.5 -47.5 16.5c-4.66699 0 -10 -0.5 -16 -1.5s-12 -2.16699 -18 -3.5l-17.5 -4c-5.66699 -1.33301 -11 -2.83301 -16 -4.5s-9.33301 -3 -13 -4s-6.5 -1.83301 -8.5 -2.5l-3 -2c-6 -2 -11.833 -2 -17.5 0s-9.5 5.33301 -11.5 10
l-39 75c-2.66699 4.66699 -4.83398 8.66699 -6.50098 12s-2.16699 5.33301 -1.5 6c8 4.66699 16.667 9.33398 26 14.001l0.5 0.5l0.5 0.5c13.333 6 27.666 11.667 42.999 17c1.33301 0.666992 2.66602 1 3.99902 1c1.33301 0.666992 2.33301 1 3 1
c9.33301 3.33301 19.333 6 30 8s19 3.33301 25 4l9 1c5.33301 0.666992 8.5 2.33398 9.5 5.00098s-0.5 5.66699 -4.5 9c-3.33301 2 -7.33301 5.33301 -12 10s-10.667 13.334 -18 26.001s-10 25 -8 37c2.66699 25.333 13.834 46.833 33.501 64.5s42 26.5 67 26.5
s45.167 -8.83301 60.5 -26.5s21.333 -39.167 18 -64.5c-1.33301 -12.667 -7.33301 -25.334 -18 -38.001s-21 -22.334 -31 -29.001l-15 -9c-8.66699 -6 -12.667 -10 -12 -12l4 -1c8 -1.33301 15 -2.66602 21 -3.99902c5.33301 -1.33301 11 -3.33301 17 -6
c8 -2.66699 14.333 -5.16699 19 -7.5s10.334 -5.5 17.001 -9.5c8 -5.33301 12.667 -8.66602 14 -9.99902c5.33301 -4 11.333 -9.33301 18 -16c0 -0.666992 1.16699 -2.16699 3.5 -4.5l5.5 -5.5c5.33301 -6 10.666 -13.667 15.999 -23
c0.666992 -0.666992 1.33398 -1.66699 2.00098 -3c1.33301 -2 2.33301 -3.66699 3 -5c5.33301 -9.33301 10 -20 14 -32l0.5 -1.5zM305.002 586.991c-0.666992 -10.667 2.33301 -19.834 9 -27.501s15.334 -11.5 26.001 -11.5s20.167 3.83301 28.5 11.5
s13.166 16.834 14.499 27.501c1.33301 7.33301 0.5 14 -2.5 20s-7.16699 10.667 -12.5 14s-11.666 5 -18.999 5c-5.33301 0 -10.5 -1 -15.5 -3s-9.5 -4.66699 -13.5 -8s-7.33301 -7.5 -10 -12.5s-4.33398 -10.167 -5.00098 -15.5zM347.002 164.991
c3.33301 2 6.33301 4.00195 9 6.00195s4.66699 3.66699 6 5l2 2c-26 12.667 -56.333 19 -91 19c-20.667 0 -39.667 -3 -57 -9c-21.333 -8 -33 -21.333 -35 -40l-1 -1c-0.666992 -8 1.5 -14.833 6.5 -20.5s11.5 -9.33398 19.5 -11.001s14.5 -2.83398 19.5 -3.50098
s9.16699 -1 12.5 -1c10.667 0 25 4.5 43 13.5s33.667 17.833 47 26.5z" />
    <glyph glyph-name="ae" unicode="&#xe6;" horiz-adv-x="946" 
d="M892 296l4.00098 -23.0039c0.666992 -5.33301 -0.666016 -10.5 -3.99902 -15.5s-7.66602 -8.5 -12.999 -10.5l-315 -89c-6 -2 -9.66699 -4.66699 -11 -8s0 -6.66602 4 -9.99902l8 -5c28 -16.667 59 -20 93 -10c6 1.33301 12.333 3.83301 19 7.5s12.667 7.5 18 11.5
s10.166 7.83301 14.499 11.5s7.83301 6.83398 10.5 9.50098l3 4c4.66699 4 10 6.66699 16 8s11.333 0.666016 16 -2.00098l73 -43c4 -2.66699 6.16699 -6.5 6.5 -11.5s-1.5 -9.83301 -5.5 -14.5l-24.5 -24c-10.333 -10 -28.833 -24.833 -55.5 -44.5s-50 -32.167 -70 -37.5
c-24 -6.66699 -48.333 -10 -73 -10c-42.667 0 -81.667 10.333 -117 31l-2 -5c0 -4 -7 -6 -21 -6h-88c-6 0 -10.833 1 -14.5 3s-5.16699 4.33301 -4.5 7c-0.666992 6 -6.66699 6.33301 -18 1c-48.667 -26 -88 -39 -118 -39c-50 0 -90.667 12.667 -122 38
c-39.333 31.333 -56 74 -50 128c8 62.667 39.667 110.334 95 143.001c40 24 88 36 144 36c10 0 21.5 -0.666992 34.5 -2s23.833 -3 32.5 -5l12 -2c5.33301 -1.33301 8.83301 -0.833008 10.5 1.5s1.16699 5.83301 -1.5 10.5c-0.666992 1.33301 -1.66699 3 -3 5
s-4 5.33301 -8 10s-8.33301 8.83398 -13 12.501s-10.5 7 -17.5 10s-14.167 4.5 -21.5 4.5c-10.667 0 -23.667 -1.66699 -39 -5s-28.333 -7 -39 -11l-15 -5c-5.33301 -2 -10.833 -2 -16.5 0s-9.5 5.33301 -11.5 10l-39 75
c-2.66699 4.66699 -2.83398 9.33398 -0.500977 14.001s6.16602 8 11.499 10c76.667 28 131.667 42 165 42c19.333 0 40.5 -5.33301 63.5 -16s41.167 -21 54.5 -31l21 -16c4 -4 9.16699 -6 15.5 -6s11.833 2 16.5 6c34.667 24.667 65.667 41 93 49c70 20 133.333 13 190 -21
c35.333 -20.667 62.333 -49 81 -85c3.33301 -6 6.5 -13 9.5 -21s5.16699 -14.333 6.5 -19l1 -7c3.33301 -12.667 6.33301 -25.667 9 -39zM347.001 165.996c4.66699 3.33301 7 6.83105 7 10.498s-2.66699 6.5 -8 8.5c-24.667 8 -49 12 -73 12
c-21.333 0 -40.333 -2.66699 -57 -8c-13.333 -5.33301 -22.333 -11.166 -27 -17.499s-7.66699 -14.166 -9 -23.499c-0.666992 -8 1.33301 -14.833 6 -20.5s11.167 -9.5 19.5 -11.5s15 -3.16699 20 -3.5s9.16699 -0.5 12.5 -0.5c10.667 0 25 4.5 43 13.5
s33.667 17.833 47 26.5zM711.001 329.994c5.33301 2 8.66797 4.66699 10.001 8s0.333008 6.66602 -3 9.99902l-8 5c-17.333 10 -36.333 15 -57 15c-12 0 -24 -1.66699 -36 -5c-34 -9.33301 -61 -29 -81 -59l-6 -9c-2 -5.33301 -1.83301 -9.16602 0.5 -11.499
s6.16602 -2.83301 11.499 -1.5z" />
    <glyph glyph-name="ccedilla" unicode="&#xe7;" horiz-adv-x="542" 
d="M228 331c-27.333 -24 -43.002 -53.3311 -47.002 -87.998c-4 -34 4.33301 -63 25 -87c18 -20.667 42.167 -32.167 72.5 -34.5s58.166 4.5 83.499 20.5c12.667 8 23.334 7.33301 32.001 -2l50 -58c4.66699 -4.66699 6.33398 -10.834 5.00098 -18.501
s-5 -13.834 -11 -18.501c-41.333 -30 -87.333 -47.667 -138 -53l-11 -14c16.667 -8.66699 29.334 -20.334 38.001 -35.001s11.667 -30.667 9 -48c-2.66699 -26 -16 -48.333 -40 -67s-51.333 -28 -82 -28c-20.667 0 -39 4.66699 -55 14c-6.66699 4 -10.167 10 -10.5 18
s2.83398 15 9.50098 21l15 14c8.66699 8 18 10 28 6c6.66699 -2.66699 14 -4 22 -4c11.333 0 21.5 2.66699 30.5 8s14 11.333 15 18s-2.33301 12.667 -10 18s-17.5 8 -29.5 8h-34l5 44l7 10l15 20c-47.333 10.667 -86.666 33.667 -117.999 69
c-43.333 49.333 -60.666 109 -51.999 179s40.334 130 95.001 180c49.333 44 107.166 67.667 173.499 71s121.166 -14.334 164.499 -53.001c5.33301 -4.66699 7.66602 -10.667 6.99902 -18s-3.66699 -13.666 -9 -18.999l-64 -58c-10.667 -9.33301 -21.334 -10 -32.001 -2
c-21.333 16.667 -47.5 23.834 -78.5 21.501s-57.833 -13.833 -80.5 -34.5z" />
    <glyph glyph-name="egrave" unicode="&#xe8;" horiz-adv-x="611" 
d="M557 319c2.66699 -15.333 3.99902 -29.998 3.99902 -43.998c0 -4 -0.833008 -7.83301 -2.5 -11.5s-4.16699 -6.83398 -7.5 -9.50098s-7 -4.66699 -11 -6l-327 -93c7.33301 -7.33301 14.333 -13 21 -17c28 -16.667 59 -20 93 -10c26 7.33301 48.333 21 67 41
c10 11.333 20.667 13.666 32 6.99902l66 -38c6 -4 9.5 -9.5 10.5 -16.5s-1.16699 -13.5 -6.5 -19.5c-39.333 -49.333 -88.666 -82.333 -147.999 -99c-24 -6.66699 -48.333 -10 -73 -10c-46 0 -85 10.333 -117 31c-9.33301 6 -18.166 12.667 -26.499 20
s-15.666 14.5 -21.999 21.5s-12 13.833 -17 20.5s-9.33301 13.5 -13 20.5l-9.5 18.5c-2.66699 5.33301 -4.83398 11.166 -6.50098 17.499s-3 11 -4 14s-2 6.83301 -3 11.5l-1.5 7c-14.667 62.667 0 127.334 44 194.001c41.333 61.333 96.666 102 165.999 122
s132.333 13 189 -21c35.333 -20.667 62.333 -49 81 -85c10.667 -20.667 18 -42.667 22 -66zM190.999 279.002l208.999 59.999c-6 6.66699 -13 12.334 -21 17.001c-17.333 10 -36.666 15 -57.999 15c-11.333 0 -23 -1.66699 -35 -5c-34 -9.33301 -61 -29 -81 -59
c-5.33301 -8.66699 -10 -18 -14 -28zM318.998 539.001c-6 0 -11.667 1.83203 -17 5.49902s-9 7.83398 -11 12.501l-33 81c-2 5.33301 -1.66699 9.83301 1 13.5s6.66699 5.5 12 5.5h31c3.33301 0 6.83301 -1 10.5 -3s6.66699 -4.5 9 -7.5s4.16602 -6.16699 5.49902 -9.5
l17 -79c1.33301 -5.33301 0.333008 -9.83301 -3 -13.5s-7.66602 -5.5 -12.999 -5.5h-9z" />
    <glyph glyph-name="eacute" unicode="&#xe9;" horiz-adv-x="611" 
d="M557 319c2.66699 -15.333 3.99609 -29.999 3.99609 -43.999c0 -6 -2 -11.5 -6 -16.5s-9 -8.5 -15 -10.5l-327 -93c6.66699 -7.33301 13.667 -13 21 -17c28 -16.667 59 -20 93 -10c26 7.33301 48 21 66 41c10.667 11.333 21.667 13.666 33 6.99902l66 -38
c6 -4 9.33301 -9.5 10 -16.5s-1.33301 -13.5 -6 -19.5c-39.333 -49.333 -88.666 -82.333 -147.999 -99c-24 -6.66699 -48.333 -10 -73 -10c-46.667 0 -85.667 10.333 -117 31c-9.33301 6 -18.166 12.667 -26.499 20s-15.666 14.5 -21.999 21.5s-12 13.833 -17 20.5
s-9.33301 13.5 -13 20.5l-9.5 18.5c-2.66699 5.33301 -4.83398 11.166 -6.50098 17.499s-3 11 -4 14s-2 6.83301 -3 11.5l-1.5 7c-14.667 62.667 0 127.334 44 194.001c40.667 61.333 95.834 102 165.501 122s132.834 13 189.501 -21c35.333 -20.667 62.333 -49 81 -85
c10.667 -20.667 18 -42.667 22 -66zM190.996 279.001l209 59.999c-6 6.66699 -13.333 12.334 -22 17.001c-16.667 10 -35.667 15 -57 15c-11.333 0 -23 -1.66699 -35 -5c-34 -9.33301 -61 -29 -81 -59c-6 -8.66699 -10.667 -18 -14 -28zM306.996 539l-8.00195 0.000976562
c-6 0 -10 1.83301 -12 5.5s-2 8.16699 0 13.5l36 79c2.66699 5.33301 6.83398 10 12.501 14s11.5 6 17.5 6h30c6 0 9.83301 -1.83301 11.5 -5.5s0.833984 -8.16699 -2.49902 -13.5l-53 -81c-2.66699 -4.66699 -7.16699 -8.83398 -13.5 -12.501s-12.5 -5.5 -18.5 -5.5z" />
    <glyph glyph-name="ecircumflex" unicode="&#xea;" horiz-adv-x="611" 
d="M223 538c-5.33301 0 -8.66797 1.5 -10.001 4.5s0 6.83301 4 11.5l114 138c4 4.66699 8.33301 7 13 7s8.33398 -2.33301 11.001 -7l81 -138c2.66699 -4.66699 3 -8.5 1 -11.5s-5.66699 -4.5 -11 -4.5h-43c-13.333 0 -23.333 5.33301 -30 16l-12 20
c-2.66699 4.66699 -6.33398 7 -11.001 7s-9 -2.33301 -13 -7l-17 -20c-9.33301 -10.667 -20.666 -16 -33.999 -16h-43zM556.998 319c2.66699 -15.333 4 -29.999 4 -43.999c0 -6 -1.83301 -11.5 -5.5 -16.5s-8.83398 -8.5 -15.501 -10.5l-327 -93
c7.33301 -7.33301 14.333 -13 21 -17c28 -16.667 59 -20 93 -10c26 7.33301 48.333 21 67 41c10 11.333 20.667 13.666 32 6.99902l66 -38c6 -4 9.5 -9.5 10.5 -16.5s-1.16699 -13.5 -6.5 -19.5c-39.333 -49.333 -88.666 -82.333 -147.999 -99
c-24 -6.66699 -48.333 -10 -73 -10c-46 0 -85 10.333 -117 31c-9.33301 6 -18.166 12.667 -26.499 20s-15.666 14.5 -21.999 21.5s-12 13.833 -17 20.5s-9.33301 13.5 -13 20.5l-9.5 18.5c-2.66699 5.33301 -4.83398 11.166 -6.50098 17.499s-3 11 -4 14s-2 6.83301 -3 11.5
l-1.5 7c-14.667 62.667 0 127.334 44 194.001c41.333 61.333 96.666 102 165.999 122s132.333 13 189 -21c35.333 -20.667 62.333 -49 81 -85c10.667 -20.667 18 -42.667 22 -66zM190.998 279.001l209 59.999c-6 6.66699 -13 12.334 -21 17.001
c-17.333 10 -36.333 15 -57 15c-12 0 -24 -1.66699 -36 -5c-34 -9.33301 -61 -29 -81 -59c-5.33301 -8.66699 -10 -18 -14 -28z" />
    <glyph glyph-name="edieresis" unicode="&#xeb;" horiz-adv-x="611" 
d="M422 543c-10.667 0 -20.001 2.5 -28.001 7.5s-14 11.833 -18 20.5s-5.33301 18.167 -4 28.5s5 19.833 11 28.5s13.667 15.667 23 21s19 8 29 8c16 0 28.833 -5.66699 38.5 -17s13.5 -24.833 11.5 -40.5s-9.16699 -29 -21.5 -40s-26.166 -16.5 -41.499 -16.5zM234.999 543
c-15.333 0 -27.832 5.5 -37.499 16.5s-13.5 24.333 -11.5 40s9.16699 29.167 21.5 40.5s26.166 17 41.499 17c10.667 0 20 -2.66699 28 -8s14 -12.333 18 -21s5.33301 -18.167 4 -28.5s-5 -19.833 -11 -28.5s-13.667 -15.5 -23 -20.5s-19.333 -7.5 -30 -7.5zM557 319
c2.66699 -16 3.99609 -30.665 3.99609 -43.998c0 -4 -0.833008 -7.83301 -2.5 -11.5s-4.16699 -6.83398 -7.5 -9.50098s-7 -4.66699 -11 -6l-327 -93c6.66699 -7.33301 13.667 -13 21 -17c28 -16.667 59 -20 93 -10c26 7.33301 48 21 66 41
c10.667 11.333 21.667 13.666 33 6.99902l66 -38c6 -4 9.33301 -9.5 10 -16.5s-1.33301 -13.5 -6 -19.5c-39.333 -49.333 -88.666 -82.333 -147.999 -99c-24 -6.66699 -48.333 -10 -73 -10c-46.667 0 -85.667 10.333 -117 31c-9.33301 6 -18.166 12.667 -26.499 20
s-15.666 14.5 -21.999 21.5s-12 13.833 -17 20.5s-9.33301 13.5 -13 20.5l-9.5 18.5c-2.66699 5.33301 -4.83398 11.166 -6.50098 17.499s-3 11 -4 14s-2 6.83301 -3 11.5l-1.5 7c-14.667 62.667 0 127.334 44 194.001c40.667 61.333 95.834 102 165.501 122
s132.834 13 189.501 -21c35.333 -20.667 62.333 -49 81 -85c10.667 -20.667 18 -42.667 22 -66zM190.996 279.002l208.999 59.999c-6 6.66699 -13 12.334 -21 17.001c-17.333 10 -36.666 15 -57.999 15c-11.333 0 -23 -1.66699 -35 -5c-34 -9.33301 -61 -29 -81 -59
c-5.33301 -8.66699 -10 -18 -14 -28z" />
    <glyph glyph-name="igrave" unicode="&#xec;" horiz-adv-x="282" 
d="M166 539c-5.33301 0 -10.6689 1.83203 -16.002 5.49902s-9 7.83398 -11 12.501l-33 81c-2 5.33301 -1.83301 9.83301 0.5 13.5s6.5 5.5 12.5 5.5h30c4 0 7.66699 -1 11 -3s6.33301 -4.5 9 -7.5s4.33398 -6.16699 5.00098 -9.5l17 -79
c1.33301 -5.33301 0.333008 -9.83301 -3 -13.5s-7.66602 -5.5 -12.999 -5.5h-9zM213.997 483.999c3.33301 0 6.49902 -1.00098 9.49902 -3.00098s5.16699 -4.5 6.5 -7.5s1.66602 -6.5 0.999023 -10.5l-52 -433c-0.666992 -5.33301 -3.16699 -10 -7.5 -14
s-9.16602 -6 -14.499 -6h-89c-5.33301 0 -9.83301 2 -13.5 6s-5.16699 8.66699 -4.5 14l52 433c0.666992 2.66699 1.66699 5.33398 3 8.00098s3 5 5 7s4.33301 3.5 7 4.5s5.33398 1.5 8.00098 1.5h89z" />
    <glyph glyph-name="iacute" unicode="&#xed;" horiz-adv-x="323" 
d="M262 656c5.33301 0 8.8291 -1.66699 10.4961 -5s0.833984 -7.66602 -2.49902 -12.999l-52 -81c-3.33301 -4.66699 -8.16602 -8.83398 -14.499 -12.501s-12.166 -5.5 -17.499 -5.5h-9c-5.33301 0 -9.16602 1.83301 -11.499 5.5s-2.5 8.16699 -0.5 13.5l37 79
c2 5.33301 5.83301 9.83301 11.5 13.5s11.5 5.5 17.5 5.5h31zM212.996 484c6 0 10.666 -2 13.999 -6s4.66602 -9 3.99902 -15l-52 -433c-0.666992 -5.33301 -3.16699 -10 -7.5 -14s-9.16602 -6 -14.499 -6h-89c-5.33301 0 -9.83301 2 -13.5 6s-5.16699 8.66699 -4.5 14
l52 433c0.666992 6 3.33398 11 8.00098 15s9.66699 6 15 6h88z" />
    <glyph glyph-name="icircumflex" unicode="&#xee;" horiz-adv-x="340" 
d="M213 484c6 0 10.666 -2 13.999 -6s4.66602 -9 3.99902 -15l-52 -433c-0.666992 -5.33301 -3.16699 -10 -7.5 -14s-9.16602 -6 -14.499 -6h-89c-5.33301 0 -9.83301 2 -13.5 6s-5.16699 8.66699 -4.5 14l52 433c0.666992 6 3.33398 11 8.00098 15s9.66699 6 15 6h88z
M287.999 554c2.66699 -4.66699 2.83203 -8.5 0.499023 -11.5s-6.16602 -4.5 -11.499 -4.5h-43c-13.333 0 -23.333 5.33301 -30 16l-12 20c-2.66699 4.66699 -6.33398 7 -11.001 7s-9 -2.33301 -13 -7l-16 -20c-9.33301 -10.667 -21 -16 -35 -16h-42
c-6 0 -9.66699 1.5 -11 4.5s0 6.83301 4 11.5l114 138c4 4.66699 8.33301 7 13 7s8.33398 -2.33301 11.001 -7z" />
    <glyph glyph-name="idieresis" unicode="&#xef;" horiz-adv-x="400" 
d="M164 600c-1.33301 -10.667 -5.00098 -20.334 -11.001 -29.001s-13.667 -15.5 -23 -20.5s-19.166 -7.5 -29.499 -7.5s-19.5 2.5 -27.5 7.5s-14 11.833 -18 20.5s-5.66699 18.334 -5 29.001c2 15.333 9.33301 28.666 22 39.999s26.667 17 42 17s28 -5.66699 38 -17
s14 -24.666 12 -39.999zM229.999 484c6 0 10.666 -2 13.999 -6s4.66602 -9 3.99902 -15l-52 -433c-0.666992 -5.33301 -3.16699 -10 -7.5 -14s-9.16602 -6 -14.499 -6h-89c-5.33301 0 -9.83301 2 -13.5 6s-5.16699 8.66699 -4.5 14l52 433c0.666992 6 3.33398 11 8.00098 15
s9.66699 6 15 6h88zM300.498 657c15.667 0 28.332 -5.66699 37.999 -17s13.5 -24.833 11.5 -40.5s-9.16699 -29.167 -21.5 -40.5s-26.333 -17 -42 -17s-28.334 5.66699 -38.001 17s-13.667 24.833 -12 40.5s8.83398 29.167 21.501 40.5s26.834 17 42.501 17z" />
    <glyph glyph-name="eth" unicode="&#xf0;" horiz-adv-x="607" 
d="M556 300c2 -20.667 1.99707 -39.6641 -0.00292969 -56.9971c0 -1.33301 -0.5 -3.5 -1.5 -6.5s-1.5 -5.16699 -1.5 -6.5v-2.5v-1.5h-1c-14 -72 -51.333 -131.333 -112 -178s-127 -65.334 -199 -56.001c-56 6.66699 -101.833 30.834 -137.5 72.501
s-53.5 91.167 -53.5 148.5c0 50 13.333 97 40 141s61.834 78.833 105.501 104.5s89.834 38.5 138.501 38.5c3.33301 0 13.333 -1 30 -3c-11.333 18 -25 35.333 -41 52c-8.66699 9.33301 -19 9.66602 -31 0.999023l-69 -47l-21 35c-4 5.33301 -5 11.333 -3 18s6 12 12 16
l13 9c7.33301 5.33301 11.333 12.666 12 21.999s-3 16 -11 20c-17.333 10 -35 18 -53 24l-4 1c-6 2 -10.167 6 -12.5 12s-2.16602 12.333 0.500977 19l34 77c3.33301 6.66699 8.16602 11.5 14.499 14.5s12.5 3.5 18.5 1.5l4 -2c50 -16.667 95.667 -40.667 137 -72
c8.66699 -6.66699 18.334 -6.33398 29.001 0.999023l22 15c6 4 12.333 5.5 19 4.5s11.667 -4.16699 15 -9.5l9 -15c4 -5.33301 5 -11.333 3 -18s-6 -12.334 -12 -17.001c-6 -4 -9.83301 -9.66699 -11.5 -17s-0.166992 -13.666 4.5 -18.999
c74.667 -90 112.667 -196.667 114 -320zM423.997 230.003c0.666992 10 1.33301 25.333 2 46c-4 26.667 -15.833 48.5 -35.5 65.5s-43.5 25.5 -71.5 25.5c-22.667 0 -44 -5.5 -64 -16.5s-36.667 -26 -50 -45s-21.333 -39.833 -24 -62.5c-4 -34 4.5 -63 25.5 -87
s48.5 -36 82.5 -36c31.333 0 59.833 10.5 85.5 31.5s42.167 47.167 49.5 78.5z" />
    <glyph glyph-name="ntilde" unicode="&#xf1;" 
d="M339 491c60 0 106.665 -19.3311 139.998 -57.998s46.333 -88.667 39 -150l-30 -247c-0.666992 -7.33301 -3.66699 -13.333 -9 -18s-11.333 -7 -18 -7h-81c-6.66699 0 -12 2.33301 -16 7s-5.66699 10.667 -5 18l29 243c3.33301 24 -1.66699 45.167 -15 63.5
s-31.333 28.5 -54 30.5c-17.333 2 -34.166 -0.833008 -50.499 -8.5s-29.833 -18.834 -40.5 -33.501s-17 -30.667 -19 -48l-29 -243c-1.33301 -6.66699 -4.66602 -12.5 -9.99902 -17.5s-11.333 -7.5 -18 -7.5h-80c-6.66699 0 -12.167 2.5 -16.5 7.5
s-6.16602 10.833 -5.49902 17.5l30 243l21 182c1.33301 6.66699 4.66602 12.5 9.99902 17.5s11.333 7.5 18 7.5h60c12.667 0 22.667 -4.33301 30 -13s10.333 -19.334 9 -32.001c12 11.333 29.5 21.833 52.5 31.5s42.5 14.5 58.5 14.5zM207.998 568.002l-16 12.999
c-4.66699 4 -7 9.33301 -7 16s2.66699 12.667 8 18c31.333 28.667 63.666 43 96.999 43c26 0 49.333 -9 70 -27l6 -6c20 -16.667 43 -15 69 5c11.333 8.66699 21.333 8.66699 30 0l16 -14c4.66699 -4 6.66699 -9.66699 6 -17s-3.66699 -13.333 -9 -18
c-29.333 -24.667 -59.333 -37 -90 -37c-25.333 0 -48.666 9 -69.999 27l-8 8c-8.66699 7.33301 -18.334 11 -29.001 11c-13.333 0 -27.666 -7 -42.999 -21c-10.667 -9.33301 -20.667 -9.66602 -30 -0.999023z" />
    <glyph glyph-name="ograve" unicode="&#xf2;" horiz-adv-x="608" 
d="M360 539c-5.33301 0 -10.6689 1.83203 -16.002 5.49902s-9 7.83398 -11 12.501l-33 81c-2 5.33301 -1.83301 9.83301 0.5 13.5s6.5 5.5 12.5 5.5h30c4 0 7.66699 -1 11 -3s6.33301 -4.5 9 -7.5s4.33398 -6.16699 5.00098 -9.5l17 -79
c1.33301 -5.33301 0.333008 -9.83301 -3 -13.5s-7.66602 -5.5 -12.999 -5.5h-9zM334.497 496.999c69.667 0 125.998 -24.833 168.998 -74.5s60.333 -109.5 52 -179.5s-40.166 -129.667 -95.499 -179s-117.666 -74 -186.999 -74s-125.666 24.667 -168.999 74
s-60.833 109 -52.5 179s40.166 129.833 95.499 179.5s117.833 74.5 187.5 74.5zM426.495 242.999c4.33301 34 -4.16797 63.167 -25.501 87.5s-48.666 36.5 -81.999 36.5c-22.667 0 -44 -5.5 -64 -16.5s-36.667 -26 -50 -45s-21.333 -39.833 -24 -62.5
c-4 -34 4.5 -63 25.5 -87s48.5 -36 82.5 -36s64.333 12 91 36s42.167 53 46.5 87z" />
    <glyph glyph-name="oacute" unicode="&#xf3;" horiz-adv-x="608" 
d="M334.5 497c69.667 0 126.167 -24.833 169.5 -74.5s60.666 -109.5 51.999 -179.5s-40.5 -129.667 -95.5 -179s-117.333 -74 -187 -74s-126.167 24.667 -169.5 74s-60.666 109 -51.999 179s40.5 129.833 95.5 179.5s117.333 74.5 187 74.5zM427 243
c4 34 -4.5 63.167 -25.5 87.5s-48.5 36.5 -82.5 36.5s-64.5 -12.167 -91.5 -36.5s-42.5 -53.5 -46.5 -87.5s4.5 -63 25.5 -87s48.5 -36 82.5 -36s64.5 12 91.5 36s42.5 53 46.5 87zM319 539l-9.00488 0.000976562c-5.33301 0 -9.16602 1.83301 -11.499 5.5
s-2.16602 8.16699 0.500977 13.5l36 79c2 5.33301 6 10 12 14s11.667 6 17 6h31c5.33301 0 8.83301 -1.83301 10.5 -5.5s0.833984 -8.16699 -2.49902 -13.5l-52 -81c-3.33301 -4.66699 -8.16602 -8.83398 -14.499 -12.501s-12.166 -5.5 -17.499 -5.5z" />
    <glyph glyph-name="ocircumflex" unicode="&#xf4;" horiz-adv-x="608" 
d="M238 538c-6 0 -9.66895 1.5 -11.002 4.5s0 6.83301 4 11.5l114 138c4 4.66699 8.33301 7 13 7s8.33398 -2.33301 11.001 -7l82 -138c2.66699 -4.66699 2.83398 -8.5 0.500977 -11.5s-6.16602 -4.5 -11.499 -4.5h-43c-13.333 0 -23.333 5.33301 -30 16l-12 20
c-2.66699 4.66699 -6.33398 7 -11.001 7s-9 -2.33301 -13 -7l-16 -20c-9.33301 -10.667 -21 -16 -35 -16h-42zM407.998 484c50 -16.667 88.832 -47 116.499 -91s38.167 -94 31.5 -150c-8.66699 -70 -40.5 -129.667 -95.5 -179s-117.333 -74 -187 -74
s-126.167 24.667 -169.5 74s-60.666 109 -51.999 179c6.66699 56 29.167 106 67.5 150s84.5 74.333 138.5 91c28 8.66699 53.5 13 76.5 13s47.5 -4.33301 73.5 -13zM426.497 243c4.33301 34 -4 63.167 -25 87.5s-48.5 36.5 -82.5 36.5c-22.667 0 -44 -5.5 -64 -16.5
s-36.667 -26 -50 -45s-21.333 -39.833 -24 -62.5c-4 -34 4.5 -63 25.5 -87s48.5 -36 82.5 -36s64.333 12 91 36s42.167 53 46.5 87z" />
    <glyph glyph-name="otilde" unicode="&#xf5;" horiz-adv-x="608" 
d="M220 566l-19.998 17c-4.66699 3.33301 -6.83398 8 -6.50098 14s2.83301 11.333 7.5 16c31.333 30 64.333 45 99 45c26 0 49.333 -9 70 -27l6 -6c20.667 -17.333 44.667 -15 72 7c9.33301 7.33301 18 7.33301 26 0l19 -18c4.66699 -3.33301 6.66699 -8.16602 6 -14.499
s-3.33398 -11.5 -8.00098 -15.5c-30 -26.667 -61 -40 -93 -40c-25.333 0 -48.666 9 -69.999 27l-8 8c-8.66699 7.33301 -18.334 11 -29.001 11c-13.333 0 -28 -7.33301 -44 -22c-9.33301 -8.66699 -18.333 -9.33398 -27 -2.00098zM334.002 497
c46 0 87.001 -11.333 123.001 -34s62.833 -53.5 80.5 -92.5s23.834 -81.5 18.501 -127.5c-8.66699 -70 -40.5 -129.667 -95.5 -179s-117.333 -74 -187 -74s-126.167 24.667 -169.5 74s-60.833 109 -52.5 179s40.166 129.833 95.499 179.5s117.666 74.5 186.999 74.5z
M426.503 243c4.33301 34 -4 63.167 -25 87.5s-48.5 36.5 -82.5 36.5s-64.5 -12.167 -91.5 -36.5s-42.5 -53.5 -46.5 -87.5s4.5 -63 25.5 -87s48.5 -36 82.5 -36s64.333 12 91 36s42.167 53 46.5 87z" />
    <glyph glyph-name="odieresis" unicode="&#xf6;" horiz-adv-x="608" 
d="M433 543c-15.333 0 -27.999 5.5 -37.999 16.5s-14 24.5 -12 40.5c1.33301 10 5 19.333 11 28s13.667 15.667 23 21s19.333 8 30 8c15.333 0 27.833 -5.66699 37.5 -17s13.667 -24.833 12 -40.5s-8.83398 -29 -21.501 -40s-26.667 -16.5 -42 -16.5zM334.001 497
c46 0 86.998 -11.333 122.998 -34s62.833 -53.5 80.5 -92.5s23.834 -81.5 18.501 -127.5c-8.66699 -70 -40.5 -129.667 -95.5 -179s-117.333 -74 -187 -74s-126.167 24.667 -169.5 74s-60.666 109 -51.999 179s40.5 129.833 95.5 179.5s117.167 74.5 186.5 74.5z
M426.499 243c4.33301 34 -4 63.167 -25 87.5s-48.5 36.5 -82.5 36.5s-64.5 -12.167 -91.5 -36.5s-42.5 -53.5 -46.5 -87.5s4.5 -63 25.5 -87s48.5 -36 82.5 -36s64.333 12 91 36s42.167 53 46.5 87zM246.499 543c-15.667 0 -28.332 5.5 -37.999 16.5s-13.5 24.333 -11.5 40
s9.16699 29.167 21.5 40.5s26.333 17 42 17s28.334 -5.66699 38.001 -17s13.667 -24.833 12 -40.5s-8.83398 -29 -21.501 -40s-26.834 -16.5 -42.501 -16.5z" />
    <glyph glyph-name="divide" unicode="&#xf7;" horiz-adv-x="525" 
d="M273 454c-20 0 -36.167 7 -48.5 21s-17.333 31.167 -15 51.5s11.5 37.666 27.5 51.999s34 21.5 54 21.5s36.167 -7.16699 48.5 -21.5s17.333 -31.666 15 -51.999s-11.5 -37.5 -27.5 -51.5s-34 -21 -54 -21zM251 271c20 0 36.334 -6.99902 49.001 -20.999
s17.667 -31.167 15 -51.5s-11.834 -37.666 -27.501 -51.999s-33.5 -21.5 -53.5 -21.5s-36.333 7.16699 -49 21.5s-17.667 31.5 -15 51.5c1.33301 13.333 6 25.666 14 36.999s18 20.166 30 26.499s24.333 9.5 37 9.5zM456.001 428.001c6 0 10.668 -2.00195 14.001 -6.00195
s4.66602 -9 3.99902 -15l-10 -89c-0.666992 -5.33301 -3.33398 -10 -8.00098 -14s-9.66699 -6 -15 -6h-373c-5.33301 0 -9.83301 2 -13.5 6s-5.16699 8.66699 -4.5 14l11 89c0 2.66699 0.833008 5.33398 2.5 8.00098s3.5 4.83398 5.5 6.50098s4.33301 3.16699 7 4.5
s5.33398 2 8.00098 2h372z" />
    <glyph glyph-name="oslash" unicode="&#xf8;" horiz-adv-x="608" 
d="M334.5 497c69.667 0 125.999 -24.833 168.999 -74.5s60.333 -109.5 52 -179.5s-40 -129.667 -95 -179s-117.333 -74 -187 -74s-126.167 24.667 -169.5 74s-60.666 109 -51.999 179s40.5 129.833 95.5 179.5s117.333 74.5 187 74.5zM179.999 234
c0 -4.66699 1.83398 -7.33105 5.50098 -7.99805s7.5 0.666016 11.5 3.99902l134 119c4.66699 4 6.66699 7.66699 6 11s-3.33398 5.66602 -8.00098 6.99902h-10c-34 0 -64.5 -12.167 -91.5 -36.5s-42.5 -53.5 -46.5 -87.5zM427 243.003l0.000976562 1.00098l1 8
c-0.666992 5.33301 -2.66699 8.33301 -6 9s-7.33301 -1 -12 -5l-133 -118c-4.66699 -4 -6.83398 -7.83301 -6.50098 -11.5s3.16602 -5.83398 8.49902 -6.50098h10c34 0 64.333 12 91 36s42.334 53 47.001 87z" />
    <glyph glyph-name="ugrave" unicode="&#xf9;" 
d="M333 539c-6 0 -11.667 1.83203 -17 5.49902s-9 7.83398 -11 12.501l-33 81c-2 5.33301 -1.66699 9.83301 1 13.5s6.66699 5.5 12 5.5h31c3.33301 0 6.83301 -1 10.5 -3s6.66699 -4.5 9 -7.5s3.83301 -6.16699 4.5 -9.5l18 -79
c0.666992 -5.33301 -0.5 -9.83301 -3.5 -13.5s-7.5 -5.5 -13.5 -5.5h-8zM498 467.999c6.66699 0 12.165 -2.33398 16.498 -7.00098s5.83301 -10.667 4.5 -18l-29 -243l-22 -182c-0.666992 -6.66699 -3.66699 -12.5 -9 -17.5s-11.333 -7.5 -18 -7.5h-61
c-12 0 -21.833 4.33301 -29.5 13s-10.834 19.334 -9.50098 32.001c-7.33301 -7.33301 -17.666 -14.5 -30.999 -21.5s-27.333 -12.833 -42 -17.5s-27 -7 -37 -7c-60 0 -106.667 19.333 -140 58s-46.333 88.667 -39 150l30 248c0.666992 6.66699 3.66699 12.334 9 17.001
s11.333 7 18 7h80c6.66699 0 12.167 -2.33301 16.5 -7s6.16602 -10.334 5.49902 -17.001l-29 -244c-3.33301 -24 1.66699 -45.167 15 -63.5s31.333 -28.5 54 -30.5c26.667 -2.66699 50.834 5 72.501 23s34.167 40.333 37.5 67l29 243
c0.666992 7.33301 3.83398 13.333 9.50098 18s11.834 7 18.501 7h80z" />
    <glyph glyph-name="uacute" unicode="&#xfa;" 
d="M291 539l-9.00586 0.000976562c-5.33301 0 -9.16602 1.83301 -11.499 5.5s-2.16602 8.16699 0.500977 13.5l36 79c2.66699 5.33301 6.83398 10 12.501 14s11.167 6 16.5 6h31c6 0 9.83301 -1.83301 11.5 -5.5s0.833984 -8.16699 -2.49902 -13.5l-53 -81
c-3.33301 -4.66699 -8.16602 -8.83398 -14.499 -12.501s-12.166 -5.5 -17.499 -5.5zM497.994 468.001c6.66699 0 12.167 -2.50098 16.5 -7.50098s5.83301 -10.833 4.5 -17.5l-29 -243l-22 -182c-0.666992 -6.66699 -3.66699 -12.5 -9 -17.5s-11.333 -7.5 -18 -7.5h-61
c-12 0 -21.833 4.33301 -29.5 13s-10.834 19.334 -9.50098 32.001c-11.333 -11.333 -28.5 -21.833 -51.5 -31.5s-42.5 -14.5 -58.5 -14.5c-60 0 -106.667 19.333 -140 58s-46.333 88.667 -39 150l30 248c0.666992 4 2.16699 8 4.5 12s5.66602 7 9.99902 9s8.5 3 12.5 3h80
c7.33301 0 13 -2.33301 17 -7s5.66699 -10.334 5 -17.001l-29 -244c-3.33301 -24 1.66699 -45.167 15 -63.5s31.333 -28.5 54 -30.5c13.333 -1.33301 26.333 0.166992 39 4.5s23.834 10.5 33.501 18.5s18 18 25 30s11.167 24.333 12.5 37l29 243
c0.666992 4.66699 2.33398 8.83398 5.00098 12.501s6 6.66699 10 9s8.33301 3.5 13 3.5h80z" />
    <glyph glyph-name="ucircumflex" unicode="&#xfb;" 
d="M210 538c-5.33301 0 -8.66895 1.5 -10.002 4.5s0 6.83301 4 11.5l114 138c4 4.66699 8.33301 7 13 7s8.33398 -2.33301 11.001 -7l82 -138c2.66699 -4.66699 2.83398 -8.5 0.500977 -11.5s-6.16602 -4.5 -11.499 -4.5h-43c-13.333 0 -23.333 5.33301 -30 16l-12 20
c-2.66699 4.66699 -6.33398 7 -11.001 7s-9 -2.33301 -13 -7l-16 -20c-9.33301 -10.667 -21 -16 -35 -16h-43zM497.997 468c6.66699 0 12.1689 -2.33301 16.502 -7s6.16602 -10.667 5.49902 -18l-30 -243l-22 -182c-0.666992 -6.66699 -3.66699 -12.5 -9 -17.5
s-11.333 -7.5 -18 -7.5h-61c-12 0 -21.833 4.33301 -29.5 13s-10.5 19.334 -8.5 32.001c-12 -11.333 -29.5 -21.833 -52.5 -31.5s-42.5 -14.5 -58.5 -14.5c-60 0 -106.667 19.333 -140 58s-46.333 88.667 -39 150l30 248c0.666992 6.66699 3.66699 12.334 9 17.001
s11.333 7 18 7h80c7.33301 0 13 -2.33301 17 -7s5.66699 -10.334 5 -17.001l-29 -244c-2 -15.333 -0.333008 -30 5 -44s13.666 -25.5 24.999 -34.5s24.333 -14.167 39 -15.5c13.333 -1.33301 26.333 0.166992 39 4.5s23.834 10.5 33.501 18.5s18 18 25 30
s11.167 24.333 12.5 37l29 243c0.666992 3.33301 1.83398 6.5 3.50098 9.5s3.66699 5.66699 6 8s5.16602 4.16602 8.49902 5.49902s6.66602 2 9.99902 2h80z" />
    <glyph glyph-name="udieresis" unicode="&#xfc;" 
d="M405.5 543c-15.667 0 -28.332 5.5 -37.999 16.5s-13.5 24.5 -11.5 40.5c0.666992 10 4.16699 19.333 10.5 28s14.166 15.667 23.499 21s19 8 29 8s19.167 -2.66699 27.5 -8s14.5 -12.333 18.5 -21s5.33301 -18 4 -28c-2 -16 -9.16699 -29.5 -21.5 -40.5
s-26.333 -16.5 -42 -16.5zM219.502 543c-15.667 0 -28.333 5.5 -38 16.5s-13.667 24.333 -12 40s8.66699 29.167 21 40.5s26.5 17 42.5 17c10 0 19.167 -2.66699 27.5 -8s14.5 -12.333 18.5 -21s5.33301 -18 4 -28c-2 -16 -9.16699 -29.5 -21.5 -40.5
s-26.333 -16.5 -42 -16.5zM498.003 468c6.66699 0 12.167 -2.33301 16.5 -7s6.16602 -10.667 5.49902 -18l-30 -243l-22 -182c-0.666992 -6.66699 -3.66699 -12.5 -9 -17.5s-11.333 -7.5 -18 -7.5h-61c-12 0 -21.833 4.33301 -29.5 13s-10.5 19.334 -8.5 32.001
c-12 -11.333 -29.5 -21.833 -52.5 -31.5s-42.5 -14.5 -58.5 -14.5c-60 0 -106.667 19.333 -140 58s-46.333 88.667 -39 150l30 248c0.666992 4 2.33398 8 5.00098 12s6 7 10 9s8 3 12 3h80c7.33301 0 13 -2.33301 17 -7s5.66699 -10.334 5 -17.001l-29 -244
c-3.33301 -24 1.66699 -45.167 15 -63.5s31.333 -28.5 54 -30.5c26.667 -2.66699 50.834 5 72.501 23s34.167 40.333 37.5 67l29 243c1.33301 7.33301 4.66602 13.333 9.99902 18s11.333 7 18 7h80z" />
    <glyph glyph-name="yacute" unicode="&#xfd;" horiz-adv-x="659" 
d="M341 539l-9.00488 0.000976562c-5.33301 0 -9.16602 1.83301 -11.499 5.5s-2.16602 8.16699 0.500977 13.5l36 79c2 5.33301 6 10 12 14s11.667 6 17 6h31c5.33301 0 8.83301 -1.83301 10.5 -5.5s0.833984 -8.16699 -2.49902 -13.5l-52 -81
c-3.33301 -4.66699 -8.16602 -8.83398 -14.499 -12.501s-12.166 -5.5 -17.499 -5.5zM588.995 482.001l20.001 -0.000976562l-3 -5l-8 -13l-295 -491l-11 -18c-3.33301 -6 -7.33301 -12.333 -12 -19l-71 -118l-11 -19c-2 -2.66699 -4 -6 -6 -10
c-4.66699 -7.33301 -13.667 -11 -27 -11h-103c-5.33301 0 -9 1.83301 -11 5.5s-1.33301 7.83398 2 12.501l173 288c7.33301 12 8.66602 24.333 3.99902 37l-126 343c-2 4.66699 -1.66699 8.83398 1 12.501s6.66699 5.5 12 5.5h104c5.33301 0 10.666 -1.83301 15.999 -5.5
s9 -7.83398 11 -12.501l71 -195c2 -5.33301 4.83301 -7.83301 8.5 -7.5s6.83398 2.83301 9.50098 7.5l118 195l11 18h123z" />
    <glyph glyph-name="thorn" unicode="&#xfe;" horiz-adv-x="659" 
d="M426 493c58.667 -10 105.331 -38.667 139.998 -86s48.334 -101.333 41.001 -162c-8 -70 -39.667 -130 -95 -180s-117.666 -75 -186.999 -75c-42.667 0 -82.334 11 -119.001 33l-27 -220c0 -4.66699 -1.33301 -9 -4 -13s-6.16699 -7 -10.5 -9s-8.5 -3 -12.5 -3h-80
c-6.66699 0 -12.167 2.33301 -16.5 7s-6.16602 10.667 -5.49902 18l107 887c0.666992 6.66699 3.66699 12.5 9 17.5s11.333 7.5 18 7.5h80c7.33301 0 13 -2.5 17 -7.5s5.66699 -10.833 5 -17.5l-27 -227c56 30 111.667 40 167 30zM477.997 243
c2.66699 22.667 -0.332031 43.5 -8.99902 62.5s-21.834 34 -39.501 45s-37.5 16.5 -59.5 16.5c-34 0 -64.333 -12.167 -91 -36.5s-42.334 -53.5 -47.001 -87.5c-2.66699 -22 0.333008 -42.5 9 -61.5s21.834 -34 39.501 -45s37.5 -16.5 59.5 -16.5c34 0 64.5 12 91.5 36
s42.5 53 46.5 87z" />
    <glyph glyph-name="ydieresis" unicode="&#xff;" horiz-adv-x="659" 
d="M455 543c-7.33301 0 -14.332 1.5 -20.999 4.5s-12.334 7 -17.001 12s-8 11 -10 18s-2.66699 14.5 -2 22.5c1.33301 10 5 19.333 11 28s13.667 15.667 23 21s19.333 8 30 8c15.333 0 27.833 -5.66699 37.5 -17s13.667 -24.833 12 -40.5s-8.66699 -29 -21 -40
s-26.5 -16.5 -42.5 -16.5zM269.001 543c-15.333 0 -27.999 5.5 -37.999 16.5s-14 24.5 -12 40.5c1.33301 10 5 19.333 11 28s13.667 15.667 23 21s19.166 8 29.499 8s19.5 -2.66699 27.5 -8s14 -12.333 18 -21s5.66699 -18 5 -28c-2 -16 -9.33301 -29.5 -22 -40.5
s-26.667 -16.5 -42 -16.5zM589.002 482l8.50098 0.000976562h6h4.5h1l-1 -2c-0.666992 -1.33301 -2.16699 -3.83301 -4.5 -7.5l-5.5 -8.5l-295 -491l-11 -19l-11 -18l-85 -140c-2.66699 -4.66699 -7.16699 -8.83398 -13.5 -12.501s-12.166 -5.5 -17.499 -5.5h-103
c-5.33301 0 -9 1.83301 -11 5.5s-1.33301 7.83398 2 12.501l25 42l11 18c3.33301 5.33301 7 11.666 11 18.999l126 209c7.33301 12 8.66602 24.333 3.99902 37l-126 343c-2 4.66699 -1.66699 8.83398 1 12.501s6.66699 5.5 12 5.5h104
c5.33301 0 10.666 -1.83301 15.999 -5.5s9 -7.83398 11 -12.501l72 -195c1.33301 -5.33301 3.83301 -7.83301 7.5 -7.5s7.16699 2.83301 10.5 7.5l117 195l11 18h123z" />
    <glyph glyph-name="dotlessi" unicode="&#x131;" horiz-adv-x="282" 
d="M213 484c4 0 7.49902 -1 10.499 -3s5.16699 -4.5 6.5 -7.5s1.66602 -6.5 0.999023 -10.5l-52 -433c-0.666992 -5.33301 -3.16699 -10 -7.5 -14s-9.16602 -6 -14.499 -6h-89c-5.33301 0 -9.83301 2 -13.5 6s-5.16699 8.66699 -4.5 14l52 433
c0.666992 6 3.33398 11 8.00098 15s9.66699 6 15 6h88z" />
    <glyph glyph-name="Lslash" unicode="&#x141;" horiz-adv-x="525" 
d="M457 120c6 0 10.666 -2.00293 13.999 -6.00293s4.66602 -9 3.99902 -15l-11 -89c-0.666992 -5.33301 -3.16699 -10 -7.5 -14s-9.16602 -6 -14.499 -6h-364c-6 0 -10.667 2 -14 6s-4.66602 8.66699 -3.99902 14l31 256c0.666992 6 -0.666016 10.167 -3.99902 12.5
s-7.66602 2.16602 -12.999 -0.500977l-7 -3c-5.33301 -2 -9.66602 -2 -12.999 0s-4.66602 6 -3.99902 12l7 57c0.666992 6 3.16699 11.833 7.5 17.5s9.16602 9.83398 14.499 12.501l7 3c5.33301 2 10.166 6 14.499 12s6.83301 11.667 7.5 17l34 289
c0.666992 6 3.33398 11 8.00098 15s9.66699 6 15 6h89c3.33301 0 6.5 -1 9.5 -3s5.16699 -4.5 6.5 -7.5s2 -6.5 2 -10.5l-28 -227c-0.666992 -5.33301 0.666016 -9.16602 3.99902 -11.499s7.66602 -2.16602 12.999 0.500977l11 5c5.33301 2 9.66602 1.83301 12.999 -0.5
s4.66602 -6.16602 3.99902 -11.499l-7 -58c-0.666992 -5.33301 -3.16699 -10.833 -7.5 -16.5s-9.16602 -9.83398 -14.499 -12.501l-11 -5c-3.33301 -1.33301 -6.66602 -3.66602 -9.99902 -6.99902s-6 -7 -8 -11s-3.33301 -7.66699 -4 -11l-22 -189
c-0.666992 -5.33301 0.666016 -10 3.99902 -14s8 -6 14 -6h234z" />
    <glyph glyph-name="lslash" unicode="&#x142;" horiz-adv-x="455" 
d="M384 471l20.002 -56.0029c2 -5.33301 1.66699 -10.666 -1 -15.999s-6.66699 -9 -12 -11l-82 -38c-4 -1.33301 -7.5 -3.66602 -10.5 -6.99902s-5.66699 -7 -8 -11s-3.5 -7.66699 -3.5 -11l-35 -291c-0.666992 -5.33301 -3.33398 -10 -8.00098 -14s-9.66699 -6 -15 -6h-89
c-5.33301 0 -9.83301 2 -13.5 6s-5.16699 8.66699 -4.5 14l28 228c0.666992 6 -0.666016 10 -3.99902 12s-7.66602 2 -12.999 0l-36 -17c-5.33301 -2 -10.5 -2.16699 -15.5 -0.5s-8.5 5.16699 -10.5 10.5l-20 56c-2 4.66699 -1.66699 9.66699 1 15s6.66699 9.33301 12 12
l83 38c5.33301 2 10 6 14 12s6.33301 11.667 7 17l39 317c0.666992 6 3.16699 11 7.5 15s9.16602 6 14.499 6h89c2 0 4 -0.333008 6 -1s3.83301 -1.66699 5.5 -3s3 -2.83301 4 -4.5s1.66699 -3.5 2 -5.5s0.5 -4.33301 0.5 -7l-31 -254
c-0.666992 -6 0.666016 -10.167 3.99902 -12.5s7.66602 -2.16602 12.999 0.500977l36 16c5.33301 2.66699 10.5 3 15.5 1s8.5 -5.33301 10.5 -10z" />
    <glyph glyph-name="OE" unicode="&#x152;" horiz-adv-x="1161" 
d="M1089 736c7.33301 0 12.999 -2.49609 16.999 -7.49609s5.66699 -10.833 5 -17.5l-10 -81c-0.666992 -6.66699 -3.66699 -12.5 -9 -17.5s-11.333 -7.5 -18 -7.5h-227c-6.66699 0 -12.667 -2.33301 -18 -7s-8.33301 -10.334 -9 -17.001l-21 -175
c-0.666992 -6.66699 1 -12.5 5 -17.5s9.33301 -7.5 16 -7.5h111c6.66699 0 12 -2.33301 16 -7s5.66699 -10.334 5 -17.001l-10 -81c-0.666992 -6.66699 -3.66699 -12.5 -9 -17.5s-11.333 -7.5 -18 -7.5h-110c-6.66699 0 -12.667 -2.33301 -18 -7
s-8.66602 -10.334 -9.99902 -17.001l-10 -83c0 -4.66699 0.833008 -8.83398 2.5 -12.501s4.16699 -6.5 7.5 -8.5s7.33301 -3 12 -3h226c6.66699 0 12.167 -2.5 16.5 -7.5s6.16602 -10.833 5.49902 -17.5l-10 -81c-0.666992 -6.66699 -3.66699 -12.334 -9 -17.001
s-11.333 -7 -18 -7h-356c-6.66699 0 -12.167 2.33301 -16.5 7s-5.83301 10.334 -4.5 17.001l8 66c-77.333 -60 -161.666 -90 -252.999 -90c-69.333 0 -131 17.667 -185 53s-93.5 83.333 -118.5 144s-31.167 126 -18.5 196c16.667 96 63.834 178 141.501 246
s164.167 103.333 259.5 106c96 2.66699 176.667 -27.333 242 -90l7 66c1.33301 6.66699 4.66602 12.5 9.99902 17.5s11.333 7.5 18 7.5h355zM664.999 363.004c4.66699 43.333 -1.50195 83.6689 -18.502 121.002s-42.667 66.833 -77 88.5s-73.5 32.5 -117.5 32.5
c-66 0 -125.5 -23.667 -178.5 -71s-83.5 -104.333 -91.5 -171c-4 -33.333 -1.5 -65 7.5 -95s23 -55.833 42 -77.5s42.667 -38.834 71 -51.501s58.833 -19 91.5 -19c66.667 0 126.334 23.667 179.001 71s83.334 104.666 92.001 171.999z" />
    <glyph glyph-name="oe" unicode="&#x153;" horiz-adv-x="988" 
d="M934 296l4 -23.002c0.666992 -5.33301 -0.666016 -10.5 -3.99902 -15.5s-7.66602 -8.5 -12.999 -10.5l-315 -89c-5.33301 -2 -8.66602 -4.66699 -9.99902 -8s-0.333008 -7 3 -11l8 -4c28 -16.667 59 -20 93 -10c4 1.33301 8.5 3 13.5 5s9.5 4.33301 13.5 7s8 5.5 12 8.5
l11 8.5c3.33301 2.66699 6.16602 5.16699 8.49902 7.5l5.5 5.5l2 2c4 4 9 6.66699 15 8s11.333 0.333008 16 -3l73 -42c4.66699 -2.66699 7.16699 -6.5 7.5 -11.5s-1.83398 -9.83301 -6.50098 -14.5l-24.5 -24.5c-10.333 -10.333 -28.833 -25.166 -55.5 -44.499
s-50 -31.666 -70 -36.999c-24 -6.66699 -48.333 -10 -73 -10c-42.667 0 -81.667 10.333 -117 31c-6.66699 4 -14 9.33301 -22 16s-14.333 12.334 -19 17.001l-6 7c-3.33301 4 -8 6.16699 -14 6.5s-11.667 -1.16699 -17 -4.5c-1.33301 -1.33301 -3.33301 -2.83301 -6 -4.5
l-16.5 -10l-25 -14.5c-8.33301 -4.66699 -18.333 -9.83398 -30 -15.501s-23 -10.5 -34 -14.5s-22.5 -7.33301 -34.5 -10s-23.333 -4 -34 -4c-69.333 0 -125.666 24.667 -168.999 74s-60.833 109 -52.5 179s40.166 129.833 95.499 179.5s117.666 74.5 186.999 74.5
c22 0 46.5 -6 73.5 -18s48.5 -24 64.5 -36l24 -19c4 -3.33301 9.16699 -4.83301 15.5 -4.5s11.833 2.5 16.5 6.5c41.333 32 78 52.667 110 62c69.333 20 132.333 13 189 -21c35.333 -20.667 62.333 -49 81 -85c3.33301 -6 6.5 -13 9.5 -21s5.16699 -14.333 6.5 -19l2 -7z
M426.5 242.998c4.33301 34 -4 63.167 -25 87.5s-48.5 36.5 -82.5 36.5c-22.667 0 -44 -5.5 -64 -16.5s-36.667 -26 -50 -45s-21.333 -39.833 -24 -62.5c-4 -34 4.5 -63 25.5 -87s48.5 -36 82.5 -36s64.333 12 91 36s42.167 53 46.5 87zM753 329.998
c6 2 9.50098 4.66699 10.501 8s-0.166992 6.66602 -3.5 9.99902l-8 5c-17.333 10 -36.333 15 -57 15c-12 0 -24 -1.66699 -36 -5c-34 -9.33301 -61 -29 -81 -59l-6 -9c-2 -5.33301 -1.83301 -9.16602 0.5 -11.499s6.16602 -2.83301 11.499 -1.5z" />
    <glyph glyph-name="Scaron" unicode="&#x160;" horiz-adv-x="611" 
d="M367 452l34.502 -12.5029c8.33301 -3 20.333 -8.33301 36 -16s28.334 -15.167 38.001 -22.5s20.5 -17.166 32.5 -29.499s21.5 -25.333 28.5 -39s12.833 -30.167 17.5 -49.5s7 -40.333 7 -63c-1.33301 -70 -27.333 -132.333 -78 -187s-111.334 -85.667 -182.001 -93
c-8.66699 -1.33301 -17.667 -2 -27 -2c-60 0 -111 19 -153 57s-65.667 86.333 -71 145c0 4.66699 1 9.16699 3 13.5s5 8 9 11s8.33301 4.83301 13 5.5l82 8c6 0.666992 11.167 -0.833008 15.5 -4.5s7.16602 -8.5 8.49902 -14.5c4.66699 -28.667 18.334 -51.667 41.001 -69
s49.667 -24.333 81 -21c43.333 4.66699 78.333 26.334 105 65.001c16 24 23.333 51 22 81c0 16 -2.66699 30 -8 42s-13.833 22.333 -25.5 31s-23.667 15.834 -36 21.501s-28.833 12.167 -49.5 19.5c-27.333 10 -46.666 18 -57.999 24c-50 28 -82.5 64 -97.5 108
s-11.167 91.333 11.5 142c18 38.667 45.167 70 81.5 94s75.833 36.667 118.5 38l-75 126c-4.66699 8.66699 -4.16699 17.5 1.5 26.5s13.5 13.5 23.5 13.5h23c8 0 14 -3.66699 18 -11l26 -43l36 43c6 7.33301 13 11 21 11h23c10 0 16.833 -4.5 20.5 -13.5
s1.83398 -17.833 -5.49902 -26.5l-105 -126c20.667 0 39 -2 55 -6c7.33301 -2 15 -4.83301 23 -8.5s16 -8.16699 24 -13.5s15.833 -11.5 23.5 -18.5s15 -15 22 -24s13 -18.667 18 -29s9.16699 -21.666 12.5 -33.999s5 -25.5 5 -39.5
c0.666992 -6.66699 -1.83301 -12.834 -7.5 -18.501s-12.167 -8.5 -19.5 -8.5l-81 -2c-5.33301 0 -10.166 1.5 -14.499 4.5s-6.83301 7.16699 -7.5 12.5c-4 24 -19 41.667 -45 53c-8.66699 2.66699 -17.834 3.5 -27.501 2.5s-18.834 -3 -27.501 -6
s-16.834 -7.83301 -24.501 -14.5s-13.834 -14.667 -18.501 -24c-3.33301 -7.33301 -5.5 -13.5 -6.5 -18.5s-1.33301 -11.833 -1 -20.5s4.66602 -17.5 12.999 -26.5s20.5 -17.833 36.5 -26.5c5.33301 -3.33301 19 -9 41 -17z" />
    <glyph glyph-name="scaron" unicode="&#x161;" horiz-adv-x="502" 
d="M429 639l-136 -132l-103 132h92l23 -30l32 30h92zM394 695l2 -2h-4zM294 328c15.333 -3.33301 27.8311 -6.33008 37.498 -8.99707s23.167 -7.83398 40.5 -15.501s31 -16.334 41 -26.001s19 -23 27 -40s12 -36.167 12 -57.5c0 -44.667 -16.667 -85 -50 -121
c-40 -44 -91 -68.667 -153 -74c-6 -0.666992 -12.667 -1 -20 -1c-50.667 0 -93 14.833 -127 44.5s-51.333 67.167 -52 112.5l130 16c0 -12 7.16699 -22.5 21.5 -31.5s31.833 -12.5 52.5 -10.5c24.667 2 43.667 10.333 57 25c7.33301 8 11 16 11 24s-4.83301 14.667 -14.5 20
s-28.167 11 -55.5 17c-25.333 5.33301 -43.666 10.333 -54.999 15c-40 18 -66.167 45.167 -78.5 81.5s-7.83301 74.5 13.5 114.5c12 22 29 40.833 51 56.5s46 26 72 31s53 4.83301 81 -0.5c29.333 -6 55.5 -21.167 78.5 -45.5s32.833 -55.5 29.5 -93.5l-130 -3
c0.666992 2 -1.33301 4.66699 -6 8s-9 5.66602 -13 6.99902c-11.333 2.66699 -22 2.5 -32 -0.5s-16 -6.16699 -18 -9.5c-5.33301 -10 0.333984 -18.667 17.001 -26c4 -1.33301 14.667 -4 32 -8z" />
    <glyph glyph-name="Ydieresis" unicode="&#x178;" horiz-adv-x="715" 
d="M461.5 793c-15.667 0 -28.501 5.66699 -38.501 17s-14 24.833 -12 40.5s9.16699 29.167 21.5 40.5s26.333 17 42 17s28.334 -5.66699 38.001 -17s13.667 -24.833 12 -40.5s-8.66699 -29.167 -21 -40.5s-26.333 -17 -42 -17zM274.499 793
c-15.667 0 -28.332 5.66699 -37.999 17s-13.5 24.833 -11.5 40.5s9.16699 29.167 21.5 40.5s26.333 17 42 17s28.334 -5.66699 38.001 -17s13.667 -24.833 12 -40.5s-8.83398 -29.167 -21.501 -40.5s-26.834 -17 -42.501 -17zM653.001 715
c6 0 9.66895 -1.83105 11.002 -5.49805s0.333008 -7.83398 -3 -12.501l-275 -381c-8.66699 -12 -14 -24.667 -16 -38l-30 -249c0 -2.66699 -0.666992 -5.33398 -2 -8.00098s-3 -5 -5 -7s-4.33301 -3.5 -7 -4.5s-5.33398 -1.5 -8.00098 -1.5h-89
c-5.33301 0 -9.83301 2 -13.5 6s-5.16699 9 -4.5 15l30 249c2 13.333 0 26 -6 38l-183 381c-2.66699 4.66699 -2.83398 8.83398 -0.500977 12.501s6.16602 5.5 11.499 5.5h111c5.33301 0 10.833 -1.83301 16.5 -5.5s9.83398 -7.83398 12.501 -12.501l114 -238
c2.66699 -4.66699 6 -7 10 -7s7.66699 2.33301 11 7l172 238c8.66699 12 19.667 18 33 18h110z" />
    <glyph glyph-name="Zcaron" unicode="&#x17d;" horiz-adv-x="738" 
d="M319 789c-5.33301 0 -8.66699 1.66699 -10 5s0 7.33301 4 12l114 138c4 4 8.33301 6 13 6s8.33398 -2 11.001 -6l81 -138c2.66699 -4.66699 3 -8.66699 1 -12s-5.66699 -5 -11 -5h-43c-13.333 0 -23.333 5.66699 -30 17l-12 20c-2.66699 4.66699 -6.33398 7 -11.001 7
s-9 -2.33301 -13 -7l-17 -20c-8.66699 -11.333 -20 -17 -34 -17h-43zM683.999 697l-393 -545.998c-3.33301 -4.66699 -4.33301 -8.83398 -3 -12.501s5 -5.5 11 -5.5h260c6 0 10.667 -2 14 -6s4.66602 -8.66699 3.99902 -14l-10 -82
c-0.666992 -5.33301 -3.16699 -10 -7.5 -14s-9.5 -6 -15.5 -6h-483c-5.33301 0 -8.83301 1.66699 -10.5 5s-0.5 7.33301 3.5 12l393 546c4 4.66699 5.16699 8.83398 3.5 12.501s-5.16699 5.5 -10.5 5.5h-261c-5.33301 0 -9.83301 2 -13.5 6s-5.16699 8.66699 -4.5 14l10 82
c0.666992 5.33301 3.33398 10.166 8.00098 14.499s9.66699 6.5 15 6.5h483c5.33301 0 8.83301 -1.83301 10.5 -5.5s0.5 -7.83398 -3.5 -12.501z" />
    <glyph glyph-name="zcaron" unicode="&#x17e;" horiz-adv-x="606" 
d="M276 695l2 -2h-4zM432 695l2 -2h-4zM556 482l-265 -355h181l-14 -122h-408l265 355h-188l15 122h414zM467 639l-136 -132l-103 132h92l24 -30l31 30h92z" />
    <glyph glyph-name="circumflex" unicode="&#x2c6;" horiz-adv-x="326" 
d="M274 575c2.66699 -4.66699 2.99902 -8.66699 0.999023 -12s-6 -5 -12 -5h-43c-13.333 0 -23.333 5.66699 -30 17l-12 20c-2.66699 4.66699 -6.33398 7 -11.001 7s-8.66699 -2.33301 -12 -7l-17 -20c-9.33301 -11.333 -20.666 -17 -33.999 -17h-43
c-6 0 -9.5 1.66699 -10.5 5s0.166992 7.33301 3.5 12l115 138c3.33301 4 7.33301 6 12 6s8.33398 -2 11.001 -6z" />
    <glyph glyph-name="caron" unicode="&#x2c7;" horiz-adv-x="326" 
d="M265 715c6 0 9.66797 -1.5 11.001 -4.5s0 -6.83301 -4 -11.5l-115 -138c-3.33301 -4.66699 -7.33301 -7 -12 -7s-8.33398 2.33301 -11.001 7l-82 138c-2.66699 4.66699 -3 8.5 -1 11.5s6 4.5 12 4.5h43c13.333 0 23.333 -5.33301 30 -16l12 -21
c2.66699 -4 6.33398 -6 11.001 -6s8.66699 2 12 6l17 21c9.33301 10.667 20.666 16 33.999 16h43z" />
    <glyph glyph-name="ilde" unicode="&#x2dc;" horiz-adv-x="402" 
d="M345 688c5.33301 -4.66699 7.83398 -10.667 7.50098 -18s-3.5 -13.333 -9.5 -18c-29.333 -24.667 -59.333 -37 -90 -37c-25.333 0 -48.666 9 -69.999 27l-8 8c-8.66699 7.33301 -18.334 11 -29.001 11c-13.333 0 -27.666 -7 -42.999 -21
c-10.667 -9.33301 -20.667 -10 -30 -2l-16 13c-4.66699 4 -7 9.66699 -7 17s2.66699 13.333 8 18c31.333 28.667 63.666 43 96.999 43c26 0 49.333 -9 70 -27l6 -6c20 -16.667 43 -15 69 5c11.333 8 21.666 8 30.999 0z" />
    <glyph glyph-name="endash" unicode="&#x2013;" horiz-adv-x="417" 
d="M349 308c5.33301 0 9.83301 -2 13.5 -6s5.16699 -9 4.5 -15l-11 -89c-0.666992 -5.33301 -3.16699 -10 -7.5 -14s-9.5 -6 -15.5 -6h-265c-5.33301 0 -9.83301 2 -13.5 6s-5.16699 8.66699 -4.5 14l11 89c0.666992 6 3.16699 11 7.5 15s9.5 6 15.5 6h265z" />
    <glyph glyph-name="emdash" unicode="&#x2014;" horiz-adv-x="540" 
d="M472 308c5.33301 0 9.83301 -2 13.5 -6s5.16699 -9 4.5 -15l-11 -89c-0.666992 -5.33301 -3.16699 -10 -7.5 -14s-9.5 -6 -15.5 -6h-388c-5.33301 0 -9.83301 2 -13.5 6s-5.16699 8.66699 -4.5 14l11 89c0.666992 6 3.16699 11 7.5 15s9.5 6 15.5 6h388z" />
    <glyph glyph-name="quoteleft" unicode="&#x2018;" horiz-adv-x="256" 
d="M192 671c5.33301 0 9.33203 -2 11.999 -6s3 -9 1 -15l-46 -130c-2 -5.33301 -5.66699 -10 -11 -14s-10.666 -6 -15.999 -6h-66c-5.33301 0 -9.5 2 -12.5 6s-3.83301 8.66699 -2.5 14l32 130c1.33301 6 4.5 11 9.5 15s10.167 6 15.5 6h84z" />
    <glyph glyph-name="quoteright" unicode="&#x2019;" horiz-adv-x="244" 
d="M180 671c6 0 10.165 -1.99902 12.498 -5.99902s2.5 -8.66699 0.5 -14l-50 -131c-2 -5.33301 -5.66699 -10 -11 -14s-11 -6 -17 -6h-49c-3.33301 0 -6.33301 0.833008 -9 2.5s-4.66699 4.16699 -6 7.5s-1.66602 6.66602 -0.999023 9.99902l29 130
c0.666992 4 2.33398 7.5 5.00098 10.5s5.66699 5.5 9 7.5s7 3 11 3h76z" />
    <glyph glyph-name="quotesinglbase" unicode="&#x201a;" horiz-adv-x="227" 
d="M160 57c6 0 10.501 -2 13.501 -6s3.83301 -8.66699 2.5 -14l-32 -139c-1.33301 -5.33301 -4.5 -10 -9.5 -14s-10.167 -6 -15.5 -6h-49c-5.33301 0 -10 2 -14 6s-6 8.66699 -6 14l1 139c0 5.33301 2.16699 10 6.5 14s9.16602 6 14.499 6h88z" />
    <glyph glyph-name="quoteleftreversed" unicode="&#x201b;" horiz-adv-x="191" 
d="M123 718c5.33301 0 9.83301 -2 13.5 -6s5.16699 -9 4.5 -15l-5 -43c-2 -13.333 -5.66699 -20 -11 -20s-9 -4.66699 -11 -14v-7c-0.666992 -5.33301 -1 -10 -1 -14s0.333008 -7.33301 1 -10l1 -4c0.666992 -2.66699 0.666992 -5.5 0 -8.5s-1.5 -6 -2.5 -9
s-2.5 -5.66699 -4.5 -8s-4 -4.5 -6 -6.5l-2 -1c-4.66699 -3.33301 -9.66699 -4.83301 -15 -4.5s-9.66602 2.83301 -12.999 7.5c-10 15.333 -16.333 31 -19 47l-2 12l-1 20v2v2l3 21l1 10c0.666992 6 1.66699 12.667 3 20l1 8c0.666992 6 3.16699 11 7.5 15
s9.16602 6 14.499 6h43z" />
    <glyph glyph-name="quotedblleft" unicode="&#x201c;" horiz-adv-x="365" 
d="M298 671c6 0 10.501 -2 13.501 -6s3.83301 -9 2.5 -15l-30 -130c-0.666992 -2 -1.66699 -4 -3 -6s-2.83301 -3.83301 -4.5 -5.5s-3.5 -3.16699 -5.5 -4.5s-4 -2.33301 -6 -3s-4.33301 -1 -7 -1h-67c-6 0 -10.167 2 -12.5 6s-2.5 8.66699 -0.5 14l48 131
c2 5.33301 5.66699 10 11 14s10.666 6 15.999 6h45zM172.001 671c5.33301 0 9.66699 -2 13 -6s4.33301 -9 3 -15l-31 -130c-1.33301 -5.33301 -4.33301 -10 -9 -14s-10 -6 -16 -6h-68c-5.33301 0 -9.33301 2 -12 6s-3 8.66699 -1 14l48 131c2 5.33301 5.83301 10 11.5 14
s11.167 6 16.5 6h45z" />
    <glyph glyph-name="quotedblright" unicode="&#x201d;" horiz-adv-x="366" 
d="M176 671c5.33301 0 9.33105 -2.00195 11.998 -6.00195s3 -8.66699 1 -14l-48 -131c-2 -5.33301 -5.83301 -10 -11.5 -14s-11.167 -6 -16.5 -6h-47c-5.33301 0 -9.5 2 -12.5 6s-3.83301 8.66699 -2.5 14l30 130c0.666992 2.66699 1.83398 5.33398 3.50098 8.00098
s3.66699 4.83398 6 6.50098s4.83301 3.16699 7.5 4.5s5.33398 2 8.00098 2h70zM301.998 670.998c6 0 10.167 -2 12.5 -6s2.5 -8.66699 0.5 -14l-48 -131c-2 -5.33301 -5.66699 -10 -11 -14s-11 -6 -17 -6h-47c-5.33301 0 -9.5 2 -12.5 6s-3.83301 8.66699 -2.5 14l30 130
c1.33301 6 4.5 11 9.5 15s10.167 6 15.5 6h70z" />
    <glyph glyph-name="quotedblbase" unicode="&#x201e;" horiz-adv-x="401" 
d="M163 57c4 0 7.33301 -1 10 -3s4.5 -4.5 5.5 -7.5s1.16699 -6.5 0.5 -10.5l-30 -138c-1.33301 -5.33301 -4.33301 -10 -9 -14s-10 -6 -16 -6h-54c-5.33301 0 -10 2 -14 6s-6 8.66699 -6 14l4 138c0 4 1 7.5 3 10.5s4.5 5.5 7.5 7.5s6.5 3 10.5 3h88zM335 57
c5.33301 0 9.66602 -2.00098 12.999 -6.00098s4.33301 -8.66699 3 -14l-32 -139c-1.33301 -3.33301 -3.16602 -6.66602 -5.49902 -9.99902s-5.33301 -5.83301 -9 -7.5s-7.16699 -2.5 -10.5 -2.5h-49c-5.33301 0 -10 2 -14 6s-6 8.66699 -6 14l1 139c0 3.33301 1 6.5 3 9.5
s4.5 5.5 7.5 7.5s6.5 3 10.5 3h88z" />
    <glyph glyph-name="dagger" unicode="&#x2020;" horiz-adv-x="587" 
d="M519 515c6 0 10.6641 -1.99902 13.9971 -5.99902s4.66602 -8.66699 3.99902 -14l-11 -89c-0.666992 -6 -3.16699 -11 -7.5 -15s-9.16602 -6 -14.499 -6h-133c-6 0 -11.167 -2 -15.5 -6s-6.83301 -8.66699 -7.5 -14l-51 -427
c-0.666992 -5.33301 -3.33398 -10 -8.00098 -14s-9.66699 -6 -15 -6h-89c-5.33301 0 -9.66602 2 -12.999 6s-4.66602 8.66699 -3.99902 14l51 427c0.666992 5.33301 -0.833008 10 -4.5 14s-8.16699 6 -13.5 6h-133c-5.33301 0 -9.83301 2 -13.5 6s-5.16699 9 -4.5 15l11 89
c0 2.66699 0.833008 5.16699 2.5 7.5s3.5 4.5 5.5 6.5s4.33301 3.5 7 4.5s5.33398 1.5 8.00098 1.5h132c4 0 7.66699 1 11 3s6.16602 4.5 8.49902 7.5s3.5 6.5 3.5 10.5l19 158c0.666992 5.33301 3.33398 10.166 8.00098 14.499s9.66699 6.5 15 6.5h89
c3.33301 0 6.5 -1 9.5 -3s5.16699 -4.5 6.5 -7.5s2 -6.5 2 -10.5l-19 -158c-1.33301 -6 -0.166016 -11 3.50098 -15s8.16699 -6 13.5 -6h133z" />
    <glyph glyph-name="daggerdbl" unicode="&#x2021;" horiz-adv-x="612" 
d="M544 515c6 0 10.668 -1.99902 14.001 -5.99902s4.66602 -8.66699 3.99902 -14l-11 -89c-0.666992 -6 -3.16699 -11 -7.5 -15s-9.16602 -6 -14.499 -6h-133c-6 0 -11.167 -2 -15.5 -6s-6.83301 -8.66699 -7.5 -14l-5 -38c-0.666992 -5.33301 0.833008 -10.166 4.5 -14.499
s8.16699 -6.5 13.5 -6.5h133c6 0 10.667 -2 14 -6s4.66602 -8.66699 3.99902 -14l-11 -89c-0.666992 -6 -3.16699 -11 -7.5 -15s-9.16602 -6 -14.499 -6h-133c-6 0 -11.167 -2 -15.5 -6s-6.83301 -8.66699 -7.5 -14l-26 -218c-0.666992 -5.33301 -3.33398 -10 -8.00098 -14
s-9.66699 -6 -15 -6h-88c-6 0 -10.667 2 -14 6s-4.66602 8.66699 -3.99902 14l26 218c0.666992 5.33301 -0.833008 10 -4.5 14s-8.16699 6 -13.5 6h-133c-5.33301 0 -9.83301 2 -13.5 6s-5.16699 9 -4.5 15l11 89c0.666992 5.33301 3.16699 10 7.5 14s9.5 6 15.5 6h132
c6 0 11.167 2.16699 15.5 6.5s6.83301 9.16602 7.5 14.499l5 38c0.666992 5.33301 -0.833008 10 -4.5 14s-8.16699 6 -13.5 6h-133c-5.33301 0 -9.83301 2 -13.5 6s-5.16699 9 -4.5 15l11 89c0.666992 5.33301 3.16699 10 7.5 14s9.5 6 15.5 6h132c4 0 7.66699 1 11 3
s6.16602 4.5 8.49902 7.5s3.5 6.5 3.5 10.5l19 158c0.666992 5.33301 3.33398 10.166 8.00098 14.499s9.66699 6.5 15 6.5h89c3.33301 0 6.5 -1 9.5 -3s5.16699 -4.5 6.5 -7.5s1.66602 -6.5 0.999023 -10.5l-19 -158c-0.666992 -6 0.833008 -11 4.5 -15s8.16699 -6 13.5 -6
h133z" />
    <glyph glyph-name="bullet" unicode="&#x2022;" horiz-adv-x="246" 
d="M132 436c20 0 36.167 -7.16797 48.5 -21.501s17.5 -31.5 15.5 -51.5c-2 -13.333 -6.83301 -25.666 -14.5 -36.999s-17.5 -20.166 -29.5 -26.499s-24.667 -9.5 -38 -9.5c-20 0 -36.167 7 -48.5 21s-17.333 31.167 -15 51.5s11.5 37.666 27.5 51.999s34 21.5 54 21.5z" />
    <glyph glyph-name="ellipsis" unicode="&#x2026;" horiz-adv-x="758" 
d="M114 75c15.333 0 28.0039 -5.66699 38.0039 -17s14 -24.833 12 -40.5s-9.16699 -29 -21.5 -40s-26.333 -16.5 -42 -16.5s-28.334 5.5 -38.001 16.5s-13.834 24.5 -12.501 40.5c1.33301 10 5.16602 19.5 11.499 28.5s14.166 16 23.499 21s19 7.5 29 7.5zM658.004 75
c15.333 0 27.833 -5.66699 37.5 -17s13.667 -24.833 12 -40.5s-8.66699 -29 -21 -40s-26.333 -16.5 -42 -16.5s-28.5 5.5 -38.5 16.5s-14 24.5 -12 40.5c1.33301 10 5 19.5 11 28.5s13.667 16 23 21s19.333 7.5 30 7.5zM385.504 75c15.667 0 28.5 -5.66699 38.5 -17
s14 -24.833 12 -40.5s-9.16699 -29 -21.5 -40s-26.333 -16.5 -42 -16.5s-28.5 5.5 -38.5 16.5s-14 24.333 -12 40s9.16699 29.167 21.5 40.5s26.333 17 42 17z" />
    <glyph glyph-name="perthousand" unicode="&#x2030;" horiz-adv-x="1144" 
d="M640 715c6 0 9.99902 -2 11.999 -6s1.66699 -8.66699 -1 -14l-345 -666c-1.33301 -2.66699 -3.16602 -5.16699 -5.49902 -7.5s-4.83301 -4.33301 -7.5 -6s-5.5 -3 -8.5 -4s-6.16699 -1.5 -9.5 -1.5h-98c-5.33301 0 -9 1.83301 -11 5.5s-1.66699 8.16699 1 13.5l345 666
c2.66699 5.33301 7 10 13 14s11.667 6 17 6h98zM375.999 576.5c-5.33301 -45 -25.832 -83.5 -61.499 -115.5s-75.834 -48 -120.501 -48s-81 16 -109 48s-39.333 70.333 -34 115c4 30 14.667 57.5 32 82.5s39.333 44.833 66 59.5s54.667 22 84 22c44.667 0 81 -16 109 -48
s39.333 -70.5 34 -115.5zM180.5 576.5c-1 -9 1.33301 -16.833 7 -23.5s13 -10 22 -10s17.167 3.33301 24.5 10s11.5 14.5 12.5 23.5s-1.33301 16.833 -7 23.5s-13 10 -22 10s-17.167 -3.33301 -24.5 -10s-11.5 -14.5 -12.5 -23.5zM737.5 259
c26.333 -33.333 35.6699 -72.5 28.0029 -117.5s-29.834 -82.833 -66.501 -113.5c-8 -6.66699 -16.667 -12.667 -26 -18c-28 -16.667 -57.333 -25 -88 -25h-8c-26.667 1.33301 -51.334 9.66602 -74.001 24.999c-13.333 8.66699 -24 18.334 -32 29.001
c-26 32.667 -35.333 71.667 -28 117s29.666 83 66.999 113c36.667 30.667 77 45 121 43c44.667 -2 80.167 -19.667 106.5 -53zM624.004 124c7.33301 6 11.832 13.668 13.499 23.001s-0.166016 17.333 -5.49902 24l-5 7c-11.333 2.66699 -17.333 4 -18 4h-1
c-8 0 -15.667 -3 -23 -9s-11.833 -13.667 -13.5 -23s0.166016 -17.333 5.49902 -24l4 -4c12 -4.66699 24.667 -5.33398 38 -2.00098c0.666992 0.666992 2.33398 2 5.00098 4zM1063.5 259.001c26.333 -33.333 35.6689 -72.5 28.002 -117.5s-29.834 -82.833 -66.501 -113.5
c-8 -6.66699 -16.667 -12.667 -26 -18c-28 -16.667 -57.333 -25 -88 -25h-8c-26.667 1.33301 -51.334 9.66602 -74.001 24.999c-13.333 8.66699 -24 18.334 -32 29.001c-26 32.667 -35.333 71.667 -28 117s29.333 83 66 113c37.333 30.667 78 45 122 43
c44.667 -2 80.167 -19.667 106.5 -53zM950.006 124.001c7.33301 6 11.6709 13.667 13.0039 23s-0.666992 17.333 -6 24l-5 7c-10.667 2.66699 -16.334 4 -17.001 4h-1c-8.66699 0 -16.334 -3 -23.001 -9c-7.33301 -6 -11.833 -13.667 -13.5 -23
s0.166016 -17.333 5.49902 -24l5 -6c11.333 -3.33301 23.666 -3.33301 36.999 0c0 0.666992 1.66699 2 5 4z" />
    <glyph glyph-name="guilsinglright" unicode="&#x203a;" horiz-adv-x="385" 
d="M331 377c3.33301 -4 4.66211 -8.83301 3.99512 -14.5s-3 -10.5 -7 -14.5l-189 -172c-4.66699 -4 -9.66699 -6.16699 -15 -6.5s-10 1.5 -14 5.5l-55 63c-4 4 -5.66699 8.83301 -5 14.5s3.33398 10.5 8.00098 14.5l89 81c4 4 6.33301 8.83301 7 14.5
s-0.666016 10.5 -3.99902 14.5l-69 82c-3.33301 4 -4.66602 8.83301 -3.99902 14.5s3.33398 10.5 8.00098 14.5l70 62c4.66699 4 9.83398 6 15.501 6s10.167 -2 13.5 -6z" />
    <glyph glyph-name="fraction" unicode="&#x2044;" horiz-adv-x="723" 
d="M662 715c5.33301 0 8.83301 -1.83105 10.5 -5.49805s0.833984 -7.83398 -2.49902 -12.501l-467 -669c-8.66699 -12 -19.667 -18 -33 -18h-109c-5.33301 0 -8.83301 1.66699 -10.5 5s-0.833984 7.66602 2.49902 12.999l468 669c8 12 18.667 18 32 18h109z" />
    <glyph glyph-name="Euro" unicode="&#x20ac;" horiz-adv-x="756" 
d="M273 534c-6.66699 -6 -12.666 -11.998 -17.999 -17.998c-6 -6.66699 -7.5 -13.834 -4.5 -21.501s8.5 -11.5 16.5 -11.5h152c6.66699 0 12.167 -2.5 16.5 -7.5s6.16602 -10.833 5.49902 -17.5l-4 -29c0 -3.33301 -0.833008 -6.5 -2.5 -9.5s-3.83398 -5.66699 -6.50098 -8
s-5.5 -4.16602 -8.5 -5.49902s-6.16699 -2 -9.5 -2h-201c-5.33301 0 -10.166 -1.66699 -14.499 -5s-7.16602 -7.66602 -8.49902 -12.999c-2 -8.66699 -3.33301 -16.667 -4 -24c-0.666992 -8 -1 -16.333 -1 -25c0 -5.33301 1.66699 -9.83301 5 -13.5s7.33301 -5.5 12 -5.5
h201c6.66699 0 12.167 -2.33301 16.5 -7s6.16602 -10.334 5.49902 -17.001l-4 -30c-0.666992 -4 -2.33398 -8 -5.00098 -12s-6 -7 -10 -9s-8 -3 -12 -3h-151c-5.33301 0 -10.166 -2 -14.499 -6s-6.83301 -8.33301 -7.5 -13s0.333008 -9.33398 3 -14.001
c3.33301 -6 7.33301 -11.333 12 -16c37.333 -43.333 87.833 -66.333 151.5 -69s120.834 15.333 171.501 54c5.33301 4 11.166 5.83301 17.499 5.5s11.5 -2.83301 15.5 -7.5l50 -57c4 -5.33301 5.5 -11.666 4.5 -18.999s-4.5 -13.333 -10.5 -18
c-76.667 -60.667 -161.334 -91 -254.001 -91c-49.333 0 -95.333 9.5 -138 28.5s-79.5 46.167 -110.5 81.5s-53 75.666 -66 120.999s-16.5 92.833 -10.5 142.5s21 97.167 45 142.5s55.667 85.666 95 120.999c81.333 72.667 173 109 275 109c92 0 169.333 -30 232 -90
c4.66699 -5.33301 6.66699 -11.5 6 -18.5s-3.66699 -13.167 -9 -18.5l-64 -57c-4.66699 -4.66699 -10.167 -7.16699 -16.5 -7.5s-11.833 1.5 -16.5 5.5c-41.333 38.667 -94.166 56.667 -158.499 54s-120.5 -25.667 -168.5 -69z" />
    <glyph glyph-name="trademark" unicode="&#x2122;" horiz-adv-x="647" 
d="M225 710c6 0 10.666 -2.00098 13.999 -6.00098s4.66602 -9 3.99902 -15l-5 -37c-0.666992 -6 -3.16699 -11 -7.5 -15s-9.16602 -6 -14.499 -6h-15c-3.33301 0 -6.66602 -0.833008 -9.99902 -2.5s-6.16602 -4.16699 -8.49902 -7.5s-3.5 -6.66602 -3.5 -9.99902l-27 -225
c-0.666992 -5.33301 -3.33398 -10 -8.00098 -14s-9.66699 -6 -15 -6h-38c-5.33301 0 -9.83301 2 -13.5 6s-5.16699 8.66699 -4.5 14l27 225c0.666992 3.33301 0.333984 6.66602 -0.999023 9.99902s-3.5 5.83301 -6.5 7.5s-6.5 2.5 -10.5 2.5h-14
c-2.66699 0 -5.16699 0.5 -7.5 1.5s-4.33301 2.5 -6 4.5s-2.83398 4.33301 -3.50098 7s-1 5.33398 -1 8.00098l5 37c0.666992 6 3.16699 11 7.5 15s9.5 6 15.5 6h147zM582.999 714.999c4.66699 0 8.33008 -1.99902 10.9971 -5.99902s3.66699 -9 3 -15l-37 -308
c-0.666992 -5.33301 -3.16699 -10 -7.5 -14s-9.5 -6 -15.5 -6h-37c-6 0 -10.667 2 -14 6s-4.66602 8.66699 -3.99902 14l17 141c0.666992 6 -0.333008 9.5 -3 10.5s-6 -0.5 -10 -4.5l-49 -48c-4.66699 -4 -9.66699 -6 -15 -6s-9.66602 2 -12.999 6l-37 48
c-3.33301 4 -6.5 5.5 -9.5 4.5s-4.83301 -4.5 -5.5 -10.5l-17 -141c-0.666992 -5.33301 -3.16699 -10 -7.5 -14s-9.5 -6 -15.5 -6h-37c-5.33301 0 -9.83301 2 -13.5 6s-5.16699 8.66699 -4.5 14l37 308c0.666992 5.33301 2.83398 10.166 6.50098 14.499
s7.83398 6.5 12.501 6.5c10.667 0 20 -5.33301 28 -16l77 -97c3.33301 -4 7.66602 -6 12.999 -6s10.333 2 15 6l101 97c10 10.667 20.333 16 31 16z" />
    <glyph glyph-name="minus" unicode="&#x2212;" horiz-adv-x="561" 
d="M492 384c6 0 10.666 -2 13.999 -6s4.66602 -9 3.99902 -15l-10 -89c-1.33301 -5.33301 -4.16602 -10 -8.49902 -14s-9.16602 -6 -14.499 -6h-409c-5.33301 0 -9.83301 2 -13.5 6s-5.16699 8.66699 -4.5 14l11 89c0.666992 6 3.16699 11 7.5 15s9.5 6 15.5 6h408z" />
    <glyph glyph-name="unie992" unicode="&#xe992;" horiz-adv-x="754" 
d="M698 646c4.66699 -4.66699 6.66992 -10.5 6.00293 -17.5s-3.66699 -13.167 -9 -18.5l-63 -58c-5.33301 -4 -11.166 -6.16699 -17.499 -6.5s-11.5 1.5 -15.5 5.5c-46.667 42 -103.667 59.667 -171 53c-60 -5.33301 -113.333 -30.333 -160 -75s-75 -97 -85 -157
c-4 -26.667 -3.83301 -52.834 0.5 -78.501s12.666 -49 24.999 -70s27.666 -39.333 45.999 -55s39.5 -27.667 63.5 -36s49.333 -12.5 76 -12.5c49.333 0 95.666 13.333 138.999 40c5.33301 4 11.166 5.5 17.499 4.5s11.166 -4.16699 14.499 -9.5l43 -63
c3.33301 -5.33301 4 -11.666 2 -18.999s-6 -13 -12 -17c-69.333 -44 -142.666 -66 -219.999 -66c-68.667 0 -130 17.5 -184 52.5s-93.5 82.5 -118.5 142.5s-31.833 125 -20.5 195c10.667 63.333 35.667 122 75 176s88 97 146 129s118.667 48.667 182 50
c95.333 2.66699 175.333 -27 240 -89zM535.003 391l-61.002 -41.001c-2.66699 -1.33301 -3.66699 -3.66602 -3 -6.99902l13 -66c0.666992 -3.33301 -0.166016 -5.83301 -2.49902 -7.5s-4.83301 -1.5 -7.5 0.5l-51 41c-2 2 -4.33301 2 -7 0l-62 -41
c-2 -2 -4.16699 -2.16699 -6.5 -0.5s-2.83301 4.16699 -1.5 7.5l30 66c0.666992 2.66699 0 5 -2 7l-51 41c-2 2 -2.5 4.33301 -1.5 7s3.16699 4 6.5 4h69c3.33301 0 5.66602 1.33301 6.99902 4l29 67c1.33301 2.66699 3.5 4 6.5 4s4.83301 -1.33301 5.5 -4l13 -67
c0.666992 -2.66699 2.33398 -4 5.00098 -4h70c2.66699 0 4.33398 -1.33301 5.00098 -4s-0.333008 -5 -3 -7z" />
    <glyph glyph-name="a.alt1" unicode="&#xf001;" horiz-adv-x="631" 
d="M294 504c48 8 100.669 -5.33594 158.002 -40.0029c0.666992 6.66699 3.66699 12.334 9 17.001s11.333 7 18 7h80c6.66699 0 12.167 -2.5 16.5 -7.5s6.16602 -10.833 5.49902 -17.5l-25 -209l-26 -214c-0.666992 -7.33301 -3.83398 -13.5 -9.50098 -18.5
s-11.834 -7.5 -18.501 -7.5h-48c-12.667 0 -23.5 3.83301 -32.5 11.5s-14.5 17.5 -16.5 29.5c-0.666992 2.66699 -3.33398 1.33398 -8.00098 -3.99902c-2.66699 -3.33301 -4.66699 -5.66602 -6 -6.99902c-8.66699 -8 -20.167 -15.5 -34.5 -22.5s-28.833 -12.333 -43.5 -16
s-28 -5.5 -40 -5.5c-69.333 0 -125.666 25 -168.999 75s-60.666 110.333 -51.999 181c8 60.667 35 114.5 81 161.5s99.667 75.833 161 86.5zM289.002 129.997c34 0 64.333 12 91 36s42.334 53.333 47.001 88c2.66699 22 -0.333008 42.5 -9 61.5s-21.834 34 -39.501 45
s-37.5 16.5 -59.5 16.5c-34 0 -64.5 -12 -91.5 -36s-42.5 -53.167 -46.5 -87.5s4.5 -63.5 25.5 -87.5s48.5 -36 82.5 -36z" />
    <glyph glyph-name="nonmarkingreturn" horiz-adv-x="333" 
 />
    </font>
</defs>
</svg>
