<?xml version="1.0" standalone="no"?>
<!DOCTYPE svg PUBLIC "-//W3C//DTD SVG 1.1//EN" "http://www.w3.org/Graphics/SVG/1.1/DTD/svg11.dtd" >
<svg>
<metadata>
Created by FontForge 20090914 at Sun Feb 23 04:39:29 2020
 By www-data
</metadata>
<defs>
<font id="GeorgeRoundedBold" horiz-adv-x="581" >
  <font-face 
    font-family="George Rounded"
    font-weight="700"
    font-stretch="normal"
    units-per-em="1000"
    panose-1="0 0 0 0 0 0 0 0 0 0"
    ascent="800"
    descent="-200"
    x-height="471.998"
    cap-height="702"
    bbox="24.7132 -324.001 1131.19 944.002"
    underline-thickness="50"
    underline-position="-150"
    unicode-range="U+000A-U+F001"
  />
<missing-glyph horiz-adv-x="577" 
d="M50 700h427v-700h-427v700zM78 680l185 -309l186 309h-371zM251 350l-180 300v-601zM264 329l-185 -308h370zM276 350l181 -303v605z" />
    <glyph glyph-name=".notdef" horiz-adv-x="577" 
d="M50 700h427v-700h-427v700zM78 680l185 -309l186 309h-371zM251 350l-180 300v-601zM264 329l-185 -308h370zM276 350l181 -303v605z" />
    <glyph glyph-name=".null" horiz-adv-x="0" 
 />
    <glyph glyph-name=".null" horiz-adv-x="0" 
 />
    <glyph glyph-name="controlLF" unicode="&#xa;" horiz-adv-x="0" 
 />
    <glyph glyph-name="controlCR" unicode="&#xd;" horiz-adv-x="0" 
 />
    <glyph glyph-name="space" unicode=" " horiz-adv-x="300" 
 />
    <glyph glyph-name="exclam" unicode="!" horiz-adv-x="232" 
d="M81 148c-6 0 -11 2 -15 6s-6 8.66699 -6 14l-9 555c0 6 2 11 6 15s8.66699 6 14 6h89c5.33301 0 10 -2 14 -6s6 -9 6 -15l-9 -555c0 -5.33301 -2 -10 -6 -14s-9 -6 -15 -6h-69zM115.5 118c19.667 0 36.6641 -7 50.9971 -21s21.5 -31 21.5 -51
c0 -13.333 -3.16699 -25.5 -9.5 -36.5s-15.166 -19.833 -26.499 -26.5s-23.666 -10 -36.999 -10c-19.333 0 -36.166 7.16699 -50.499 21.5s-21.5 31.5 -21.5 51.5s7.16699 37 21.5 51s31.333 21 51 21z" />
    <glyph glyph-name="quotedbl" unicode="&#x22;" horiz-adv-x="378" 
d="M147 665c5.33301 0 10 -2 14 -6s6 -8.66699 6 -14v-137c0 -5.33301 -2 -10 -6 -14s-8.66699 -6 -14 -6h-89c-5.33301 0 -10 2 -14 6s-6 8.66699 -6 14v137c0 5.33301 2 10 6 14s8.66699 6 14 6h89zM319 665c5.33301 0 10 -2 14 -6s6 -8.66699 6 -14v-137
c0 -5.33301 -2 -10 -6 -14s-8.66699 -6 -14 -6h-89c-5.33301 0 -10 2 -14 6s-6 8.66699 -6 14v137c0 4 1 7.5 3 10.5s4.5 5.33301 7.5 7s6.16699 2.5 9.5 2.5h89z" />
    <glyph glyph-name="numbersign" unicode="#" horiz-adv-x="669" 
d="M597 520c6 0 10.9932 -1.99609 14.9932 -5.99609s6 -9 6 -15v-88c0 -5.33301 -2 -10 -6 -14s-9 -6 -15 -6h-60c-6 0 -11.167 -2 -15.5 -6s-6.83301 -9 -7.5 -15l-9 -63c-0.666992 -5.33301 0.833008 -10 4.5 -14s8.16699 -6 13.5 -6h50c6 0 11 -2 15 -6s6 -8.66699 6 -14
v-89c0 -5.33301 -2 -10 -6 -14s-9 -6 -15 -6h-66c-4 0 -7.66699 -0.833008 -11 -2.5s-6.16602 -4.16699 -8.49902 -7.5s-3.5 -6.66602 -3.5 -9.99902l-14 -109c-1.33301 -5.33301 -4.16602 -10 -8.49902 -14s-9.16602 -6 -14.499 -6h-90c-5.33301 0 -9.83301 2 -13.5 6
s-5.16699 8.66699 -4.5 14l14 109c0.666992 5.33301 -0.666016 10 -3.99902 14s-7.66602 6 -12.999 6h-56c-5.33301 0 -10.333 -2 -15 -6s-7.33398 -8.66699 -8.00098 -14l-14 -109c-0.666992 -5.33301 -3.33398 -10 -8.00098 -14s-9.66699 -6 -15 -6h-89
c-6 0 -10.667 2 -14 6s-4.66602 8.66699 -3.99902 14l14 109c0.666992 5.33301 -0.833008 10 -4.5 14s-8.16699 6 -13.5 6h-39c-5.33301 0 -10 2 -14 6s-6 8.66699 -6 14v89c0 5.33301 2 10 6 14s8.66699 6 14 6h56c5.33301 0 10.333 2 15 6s7.33398 8.66699 8.00098 14
l8 63c0.666992 6 -0.666016 11 -3.99902 15s-8 6 -14 6h-44c-6 0 -11 2 -15 6s-6 8.66699 -6 14v88c0 6 2 11 6 15s9 6 15 6h61c5.33301 0 10.333 2 15 6s7.33398 8.66699 8.00098 14l19 149c0.666992 5.33301 3.33398 10 8.00098 14s9.66699 6 15 6h90
c5.33301 0 9.66602 -2 12.999 -6s4.66602 -8.66699 3.99902 -14l-19 -149c0 -2.66699 0.333008 -5.33398 1 -8.00098s1.83398 -4.83398 3.50098 -6.50098s3.66699 -3 6 -4s4.83301 -1.5 7.5 -1.5h55c4 0 7.66699 0.833008 11 2.5s6.16602 4.16699 8.49902 7.5
s3.5 6.66602 3.5 9.99902l20 149c0.666992 5.33301 3.16699 10 7.5 14s9.5 6 15.5 6h89c5.33301 0 9.83301 -2 13.5 -6s5.16699 -8.66699 4.5 -14l-19 -149c-0.666992 -2.66699 -0.666992 -5.33398 0 -8.00098s1.83398 -4.83398 3.50098 -6.50098s3.66699 -3 6 -4
s4.83301 -1.5 7.5 -1.5h44zM374.993 307.004l8.00098 63c0.666992 4 0.333984 7.5 -0.999023 10.5s-3.5 5.5 -6.5 7.5s-6.16699 3 -9.5 3h-56c-5.33301 0 -10.333 -2 -15 -6s-7.33398 -9 -8.00098 -15l-8 -63c-0.666992 -5.33301 0.666016 -10 3.99902 -14s8 -6 14 -6h55
c6 0 11.167 2 15.5 6s6.83301 8.66699 7.5 14z" />
    <glyph glyph-name="dollar" unicode="$" horiz-adv-x="610" 
d="M568 234c6.66699 -63.333 -7.50391 -121.337 -42.5039 -174.004s-82.5 -88.667 -142.5 -108c-10.667 -3.33301 -16 -11.333 -16 -24v-7c0 -7.33301 -2.5 -13.5 -7.5 -18.5s-11.167 -7.5 -18.5 -7.5h-78c-7.33301 0 -13.5 2.5 -18.5 7.5s-7.5 11.167 -7.5 18.5v8
c0 11.333 -5.66699 19 -17 23c-30 9.33301 -57.5 23.5 -82.5 42.5s-46.167 42 -63.5 69s-29 56.167 -35 87.5c-1.33301 4.66699 -1.16602 9.33398 0.500977 14.001s4.5 8.33398 8.5 11.001s8.33301 4.33398 13 5.00098l79 8c6 0.666992 11.5 -0.833008 16.5 -4.5
s8.5 -8.5 10.5 -14.5c8.66699 -32.667 27 -58.834 55 -78.501s59.333 -27.5 94 -23.5c38 4 69.167 20.833 93.5 50.5s34.5 63.834 30.5 102.501c-2 20 -6.66699 37 -14 51s-18 26.167 -32 36.5s-28.333 18.666 -43 24.999s-34.667 13.833 -60 22.5
c-30 10.667 -51.333 19.334 -64 26.001c-57.333 28.667 -96.666 65.834 -117.999 111.501s-22.666 95.167 -3.99902 148.5c9.33301 28.667 24.333 53.5 45 74.5s44.667 37.167 72 48.5c10 4 15 11.667 15 23v18c0 6.66699 2.5 12.5 7.5 17.5s11.167 7.5 18.5 7.5h78
c7.33301 0 13.5 -2.5 18.5 -7.5s7.5 -10.833 7.5 -17.5v-14c0 -11.333 5 -19.333 15 -24c32 -12 61.5 -32.5 88.5 -61.5s43.833 -64.5 50.5 -106.5c0.666992 -7.33301 -1.5 -13.833 -6.5 -19.5s-11.167 -8.83398 -18.5 -9.50098l-80 -1
c-5.33301 -0.666992 -10.333 0.666016 -15 3.99902s-7.66699 7.66602 -9 12.999c-3.33301 13.333 -10.166 25.333 -20.499 36s-18.666 17.5 -24.999 20.5s-10.833 4.83301 -13.5 5.5c-14.667 2.66699 -28.834 3.33398 -42.501 2.00098s-26.5 -6.5 -38.5 -15.5
s-20.333 -20.5 -25 -34.5c-2.66699 -8 -4.33398 -14.833 -5.00098 -20.5s-0.166992 -13.5 1.5 -23.5s7.83398 -20.167 18.501 -30.5s25.334 -20.166 44.001 -29.499c7.33301 -4 23 -10 47 -18l38.5 -14c9 -3.33301 22.333 -9 40 -17s32.167 -15.833 43.5 -23.5
s24.166 -18 38.499 -31s26 -26.833 35 -41.5s17.333 -32.167 25 -52.5s12.5 -42.166 14.5 -65.499z" />
    <glyph glyph-name="percent" unicode="%" horiz-adv-x="844" 
d="M363 572c0 -44.667 -16 -82.834 -48 -114.501s-70.333 -47.5 -115 -47.5s-82.834 15.833 -114.501 47.5s-47.5 69.834 -47.5 114.501s15.833 82.834 47.5 114.501s69.834 47.5 114.501 47.5s83 -15.833 115 -47.5s48 -69.834 48 -114.501zM200.5 539
c9 0 16.668 3.16602 23.001 9.49902s9.5 14.166 9.5 23.499c0 4.66699 -0.833008 9 -2.5 13s-4 7.5 -7 10.5s-6.5 5.33301 -10.5 7s-8.33301 2.5 -13 2.5c-8.66699 0 -16.334 -3.16699 -23.001 -9.5s-10 -14.166 -10 -23.499s3.33301 -17.166 10 -23.499
s14.5 -9.5 23.5 -9.5zM762.501 256.499c30.333 -33 44.5 -71.832 42.5 -116.499s-19.667 -82.334 -53 -113.001c-30.667 -28 -67 -42 -109 -42h-8c-44.667 2 -82.167 19.667 -112.5 53s-44.333 72.333 -42 117s19.833 82 52.5 112c33.333 30.667 72.333 44.667 117 42
c44.667 -2 82.167 -19.5 112.5 -52.5zM665.001 123c6.66699 6 10.334 13.667 11.001 23c0 8.66699 -3 16.334 -9 23.001l-6 7c-10.667 2.66699 -16.667 4 -18 4c-8.66699 0 -16.334 -2.66699 -23.001 -8c-6.66699 -6.66699 -10.167 -14.5 -10.5 -23.5
s2.66699 -16.833 9 -23.5s13.833 -10.334 22.5 -11.001c9.33301 -0.666992 17.333 2.33301 24 9zM610.001 709c6 0 10.167 -1.83301 12.5 -5.5s2.5 -8.16699 0.5 -13.5l-265 -662c-2 -5.33301 -5.66699 -9.83301 -11 -13.5s-11 -5.5 -17 -5.5h-98
c-5.33301 0 -9.33301 1.83301 -12 5.5s-3 8.16699 -1 13.5l265 662c2 5.33301 5.83301 9.83301 11.5 13.5s11.167 5.5 16.5 5.5h98z" />
    <glyph glyph-name="ampersand" unicode="&#x26;" horiz-adv-x="694" 
d="M625 310c6.66699 0 12.5059 -2.49805 17.5059 -7.49805s7.5 -10.833 7.5 -17.5v-80c0 -4.66699 -1.16699 -8.83398 -3.5 -12.501s-5.33301 -6.66699 -9 -9s-7.83398 -3.5 -12.501 -3.5h-27c-6 0 -11.333 -2 -16 -6s-7.33398 -9 -8.00098 -15
c-6.66699 -64 -34.834 -117.667 -84.501 -161s-108.167 -65 -175.5 -65h-8c-72 0 -133.667 24.5 -185 73.5s-77 108.167 -77 177.5v18c0 39.333 9 76 27 110s42.667 62.667 74 86c-30.667 36.667 -46 77.334 -46 122.001v13c0 36 9.16699 69 27.5 99
s43.166 53.833 74.499 71.5s65.666 26.5 102.999 26.5h12c26.667 0 52.5 -4.83301 77.5 -14.5s47 -23.5 66 -41.5s33.833 -39 44.5 -63c7.33301 -16 12.333 -32.667 15 -50c0.666992 -7.33301 -1.5 -13.833 -6.5 -19.5s-11.167 -8.5 -18.5 -8.5h-81
c-12.667 0 -20.667 5.66699 -24 17c-0.666992 2.66699 -1.66699 5.33398 -3 8.00098c-6 13.333 -15.333 23.833 -28 31.5s-26.667 11.5 -42 11.5h-12c-13.333 0 -25.833 -3 -37.5 -9s-20.834 -14.167 -27.501 -24.5s-10 -21.833 -10 -34.5v-13
c0 -12 3.33301 -23.167 10 -33.5s15.834 -18.5 27.501 -24.5s24.167 -9 37.5 -9h3c4 0 7.83301 -1.16699 11.5 -3.5s6.66699 -5.33301 9 -9s3.5 -7.83398 3.5 -12.501v-80c0 -6.66699 -2.33301 -12.5 -7 -17.5s-10.334 -7.5 -17.001 -7.5h-1
c-36.667 0 -68 -11.833 -94 -35.5s-39 -52.167 -39 -85.5v-18c0 -16.667 3.5 -32.5 10.5 -47.5s16.5 -27.833 28.5 -38.5s26.167 -19.334 42.5 -26.001s33.5 -10 51.5 -10h8c30 0 56.667 8.16699 80 24.5s39 37.166 47 62.499c1.33301 5.33301 1.16602 10.333 -0.500977 15
s-4.66699 8.5 -9 11.5s-9.16602 4.5 -14.499 4.5h-20c-6.66699 0 -12.334 2.5 -17.001 7.5s-7 10.833 -7 17.5v80c0 6.66699 2.33301 12.5 7 17.5s10.334 7.5 17.001 7.5h228z" />
    <glyph glyph-name="quotesingle" unicode="'" horiz-adv-x="205" 
d="M147 665c5.33301 0 10 -2 14 -6s6 -8.66699 6 -14v-137c0 -5.33301 -2 -10 -6 -14s-8.66699 -6 -14 -6h-89c-5.33301 0 -10 2 -14 6s-6 8.66699 -6 14v137c0 5.33301 2 10 6 14s8.66699 6 14 6h89z" />
    <glyph glyph-name="parenleft" unicode="(" horiz-adv-x="281" 
d="M165 360c0 -36 6.32715 -81.667 18.9941 -137s25.334 -101.666 38.001 -138.999l20 -56c2 -4.66699 1.66699 -9 -1 -13s-7 -6 -13 -6h-102c-5.33301 0 -10.666 2 -15.999 6s-8.66602 8.66699 -9.99902 14c-4.66699 15.333 -10.5 35.833 -17.5 61.5s-16.5 68 -28.5 127
s-18 106.333 -18 142s5.33301 81 16 136s21.334 101.167 32.001 138.5l16 56c0.666992 3.33301 2.33398 6.5 5.00098 9.5s5.83398 5.33301 9.50098 7s7.5 2.5 11.5 2.5h102c5.33301 0 9.33301 -1.83301 12 -5.5s3 -8.16699 1 -13.5l-21 -61.5
c-8.66699 -25.667 -20 -67.834 -34 -126.501s-21 -106 -21 -142z" />
    <glyph glyph-name="parenright" unicode=")" horiz-adv-x="282" 
d="M180 690l17.5049 -61.999c7 -25.333 16.5 -67.5 28.5 -126.5s18 -106.333 18 -142s-5.33301 -81 -16 -136s-21.334 -101.167 -32.001 -138.5l-16 -56c-2 -5.33301 -5.5 -10 -10.5 -14s-10.167 -6 -15.5 -6h-102c-6 0 -10.333 2 -13 6s-3 8.33301 -1 13
c6 16 13.167 36.667 21.5 62s19.666 67.666 33.999 126.999s21.5 107 21.5 143s-6.33301 81.5 -19 136.5s-25.334 100.833 -38.001 137.5l-19 56c-2 5.33301 -1.66699 9.83301 1 13.5s6.66699 5.5 12 5.5h102c5.33301 0 10.666 -1.83301 15.999 -5.5
s8.66602 -8.16699 9.99902 -13.5z" />
    <glyph glyph-name="asterisk" unicode="*" horiz-adv-x="396" 
d="M331 635l15.9941 -86.9971c0.666992 -6 -0.666016 -11.333 -3.99902 -16s-7.66602 -7.33398 -12.999 -8.00098l-10 -2c-5.33301 -0.666992 -9 -3.16699 -11 -7.5s-1.33301 -8.83301 2 -13.5l5 -10c2.66699 -4.66699 3.33398 -9.83398 2.00098 -15.501
s-4.33301 -9.83398 -9 -12.501l-77 -44c-4.66699 -2.66699 -9.66699 -3.33398 -15 -2.00098s-9.66602 4.66602 -12.999 9.99902l-5 10c-3.33301 4.66699 -7.16602 7.16699 -11.499 7.5s-8.5 -1.5 -12.5 -5.5l-7 -9c-4 -4.66699 -8.83301 -7.16699 -14.5 -7.5
s-10.5 1.16699 -14.5 4.5l-68 57c-4 3.33301 -6.33301 7.83301 -7 13.5s1 10.834 5 15.501l7 9c4 4 5.33301 8.33301 4 13s-4.66602 7.66699 -9.99902 9l-10 4c-3.33301 1.33301 -6.16602 3.33301 -8.49902 6s-3.83301 5.83398 -4.5 9.50098
s-0.333984 7.16699 0.999023 10.5l30 83c2 5.33301 5.66699 9.16602 11 11.499s10.666 2.5 15.999 0.5l9 -3c5.33301 -2 9.83301 -1.66699 13.5 1s5.5 6.66699 5.5 12v11c0 5.33301 2 10 6 14s9 6 15 6h88c5.33301 0 10 -2 14 -6s6 -8.66699 6 -14v-26c0 -6 2 -10.667 6 -14
s8.66699 -4.33301 14 -3l26 4c5.33301 1.33301 10.333 0.333008 15 -3s7.33398 -7.66602 8.00098 -12.999z" />
    <glyph glyph-name="plus" unicode="+" horiz-adv-x="488" 
d="M416 424c6 0 11 -2 15 -6s6 -8.66699 6 -14v-88c0 -6 -2 -11 -6 -15s-9 -6 -15 -6h-88c-5.33301 0 -10 -2 -14 -6s-6 -8.66699 -6 -14v-88c0 -6 -2 -10.833 -6 -14.5s-8.66699 -5.5 -14 -5.5h-89c-5.33301 0 -10 1.83301 -14 5.5s-6 8.5 -6 14.5v88
c0 5.33301 -2 10 -6 14s-9 6 -15 6h-88c-5.33301 0 -10 2 -14 6s-6 9 -6 15v88c0 5.33301 2 10 6 14s8.66699 6 14 6h88c6 0 11 2 15 6s6 9 6 15v88c0 5.33301 2 10 6 14s8.66699 6 14 6h89c5.33301 0 10 -2 14 -6s6 -8.66699 6 -14v-88c0 -6 2 -11 6 -15s8.66699 -6 14 -6
h88z" />
    <glyph glyph-name="comma" unicode="," horiz-adv-x="201" 
d="M145 92c5.33301 0 9.5 -1.83301 12.5 -5.5s3.83301 -8.16699 2.5 -13.5l-32 -111c-0.666992 -2.66699 -2 -5.16699 -4 -7.5s-4.16699 -4.33301 -6.5 -6s-4.83301 -3.16699 -7.5 -4.5s-5.33398 -2 -8.00098 -2h-32c-5.33301 0 -10.166 2 -14.499 6s-6.83301 9 -7.5 15
l-10 109c-0.666992 6 0.833008 10.833 4.5 14.5s8.5 5.5 14.5 5.5h88z" />
    <glyph glyph-name="hyphen" unicode="-" horiz-adv-x="487" 
d="M416 424c6 0 11 -2 15 -6s6 -8.66699 6 -14v-88c0 -6 -2 -11 -6 -15s-9 -6 -15 -6h-346c-5.33301 0 -10 2 -14 6s-6 9 -6 15v88c0 5.33301 2 10 6 14s8.66699 6 14 6h346z" />
    <glyph glyph-name="period" unicode="." horiz-adv-x="220" 
d="M109 118c13.333 0 25.666 -3.16797 36.999 -9.50098s20.166 -15.166 26.499 -26.499s9.5 -23.5 9.5 -36.5s-3.16699 -25 -9.5 -36s-15.166 -19.833 -26.499 -26.5s-23.666 -10 -36.999 -10c-19.333 0 -36.166 7.16699 -50.499 21.5s-21.5 31.5 -21.5 51.5
s7.16699 37 21.5 51s31.166 21 50.499 21z" />
    <glyph glyph-name="slash" unicode="/" horiz-adv-x="481" 
d="M429 709c5.33301 0 9.16699 -1.83301 11.5 -5.5s2.5 -8.16699 0.5 -13.5l-265 -662c-2 -5.33301 -5.66699 -9.83301 -11 -13.5s-11 -5.5 -17 -5.5h-98c-5.33301 0 -9.33301 1.83301 -12 5.5s-3 8.16699 -1 13.5l265 662c2 5.33301 5.83301 9.83301 11.5 13.5
s11.167 5.5 16.5 5.5h99z" />
    <glyph glyph-name="zero" unicode="0" horiz-adv-x="585" 
d="M292.5 743c70.333 0 130.333 -24.833 180 -74.5s74.5 -109.5 74.5 -179.5v-235c0 -70 -24.833 -129.833 -74.5 -179.5s-109.667 -74.5 -180 -74.5s-130.333 24.833 -180 74.5s-74.5 109.5 -74.5 179.5v235c0 70 24.833 129.833 74.5 179.5s109.667 74.5 180 74.5z
M418 254l-0.000976562 235c0 34.667 -12.333 64.167 -37 88.5s-54.334 36.5 -89.001 36.5c-22 0 -42.667 -5.66699 -62 -17s-34.666 -26.5 -45.999 -45.5s-17 -39.833 -17 -62.5v-235c0 -22.667 5.66699 -43.5 17 -62.5s26.5 -34.167 45.5 -45.5s39.833 -17 62.5 -17
c34.667 0 64.334 12.333 89.001 37s37 54 37 88z" />
    <glyph glyph-name="one" unicode="1" horiz-adv-x="259" 
d="M62 684c11.333 4.66699 28.998 13.6689 52.998 27.002l81 46c4.66699 3.33301 8.83398 4 12.501 2s5.5 -6 5.5 -12v-727c0 -5.33301 -2 -10 -6 -14s-9 -6 -15 -6h-88c-5.33301 0 -10 2 -14 6s-6 8.66699 -6 14v513c0 5.33301 -1.83301 9.5 -5.5 12.5
s-6.5 4.16699 -8.5 3.5l-17 -5c-2.66699 -1.33301 -5 -0.333008 -7 3s-3 7.66602 -3 12.999v97c0 5.33301 1.83301 10.666 5.5 15.999s7.83398 9 12.501 11z" />
    <glyph glyph-name="two" unicode="2" horiz-adv-x="553" 
d="M264 741c68 3.33301 126.666 -18.5039 175.999 -65.5039s74 -104.5 74 -172.5v-13c0 -18 -3 -39 -9 -63c-9.33301 -37.333 -75.333 -132.333 -198 -285c-2.66699 -2.66699 -3.16699 -5.5 -1.5 -8.5s4.16699 -4.5 7.5 -4.5h175c7.33301 0 13.5 -2.5 18.5 -7.5
s7.5 -10.833 7.5 -17.5v-79c0 -6.66699 -2.5 -12.5 -7.5 -17.5s-11.167 -7.5 -18.5 -7.5h-412c-11.333 0 -19.166 4.83301 -23.499 14.5s-3.16602 18.834 3.50098 27.501l54 64l177.5 221.5c55 71.667 85.833 115.834 92.5 132.501c3.33301 13.333 5 23.333 5 30v13
c0 32.667 -12.333 59.834 -37 81.501s-53.334 30.5 -86.001 26.5c-27.333 -3.33301 -50 -15.833 -68 -37.5s-27 -46.5 -27 -74.5v-20c0 -6.66699 -2.5 -12.5 -7.5 -17.5s-10.833 -7.5 -17.5 -7.5h-79c-6.66699 0 -12.5 2.5 -17.5 7.5s-7.5 10.833 -7.5 17.5v17
c0 64.667 21.833 120.834 65.5 168.501s97.167 73.167 160.5 76.5z" />
    <glyph glyph-name="three" unicode="3" horiz-adv-x="568" 
d="M32 719c0 6.66699 2.33301 12.332 7 16.999s10.667 7 18 7h454c10 0 17.333 -4.33301 22 -13s4.33398 -17 -0.999023 -25l-133 -204c-4 -6 -5.16699 -12.333 -3.5 -19s5.5 -12 11.5 -16c42.667 -24.667 75.167 -59.334 97.5 -104.001s30.166 -92.667 23.499 -144
c-6 -50.667 -26 -95.167 -60 -133.5s-75.333 -63.833 -124 -76.5c-69.333 -17.333 -133.666 -8 -192.999 28s-97.333 87 -114 153c-1.33301 6.66699 0 13.167 4 19.5s9.66699 9.83301 17 10.5l80 12c6 0.666992 11.5 -0.666016 16.5 -3.99902s8.5 -8 10.5 -14
c4 -12 9.83301 -23.167 17.5 -33.5s16.334 -19.166 26.001 -26.499s20.667 -13.166 33 -17.499s25.166 -6.5 38.499 -6.5c36 0 66.167 13.667 90.5 41s34.166 59.333 29.499 96c-3.33301 30.667 -17 56 -41 76s-51.667 30 -83 30h-70c-9.33301 0 -16.333 4.33301 -21 13
s-4.33398 17 0.999023 25l132 204h-261c-3.33301 0 -6.66602 0.666992 -9.99902 2s-6 3.16602 -8 5.49902s-3.66699 5 -5 8s-2 6.16699 -2 9.5v80z" />
    <glyph glyph-name="four" unicode="4" horiz-adv-x="570" 
d="M478 455l0.00195312 -145c0 -6 2 -11 6 -15s8.66699 -6 14 -6h10c5.33301 0 10 -2 14 -6s6 -8.66699 6 -14v-88c0 -6 -2 -11 -6 -15s-8.66699 -6 -14 -6h-10c-5.33301 0 -10 -2 -14 -6s-6 -8.66699 -6 -14v-120c0 -5.33301 -2 -10 -6 -14s-9 -6 -15 -6h-88
c-6 0 -11 2 -15 6s-6 8.66699 -6 14v120c0 2.66699 -0.5 5.16699 -1.5 7.5s-2.33301 4.5 -4 6.5s-3.83398 3.5 -6.50098 4.5s-5.33398 1.5 -8.00098 1.5h-274c-5.33301 0 -9.33301 1.83301 -12 5.5s-3 8.16699 -1 13.5l220 523c2 4.66699 5.83301 9 11.5 13s11.167 6 16.5 6
h100c6 0 10.167 -2 12.5 -6s2.5 -8.33301 0.5 -13l-163 -394c-2.66699 -4.66699 -2.66699 -9 0 -13s6.66699 -6 12 -6h77c5.33301 0 10 2 14 6s6 9 6 15v145c0 5.33301 2 10 6 14s9 6 15 6h88c4 0 7.5 -0.833008 10.5 -2.5s5.5 -4 7.5 -7s3 -6.5 3 -10.5z" />
    <glyph glyph-name="five" unicode="5" horiz-adv-x="572" 
d="M281 478c27.333 0 53.4951 -3.5 78.4951 -10.5s48 -17.167 69 -30.5s39.167 -29.333 54.5 -48c44 -54 58.333 -117.667 43 -191c-6 -31.333 -17.833 -60.166 -35.5 -86.499s-39.5 -48.666 -65.5 -66.999s-54.667 -30.833 -86 -37.5
c-19.333 -4.66699 -38.666 -7 -57.999 -7c-52 0 -99.333 14.667 -142 44c-51.333 35.333 -84.666 83.333 -99.999 144c-2 7.33301 -0.833008 14.166 3.5 20.499s10.166 9.83301 17.499 10.5l78 11c6 1.33301 11.667 0.166016 17 -3.50098s9 -8.5 11 -14.5
c8.66699 -25.333 24.334 -46 47.001 -62c28.667 -20 61.334 -25.667 98.001 -17c22 4.66699 41.167 15.5 57.5 32.5s26.833 36.5 31.5 58.5c6.66699 33.333 1 61 -17 83c-22.667 28 -56.667 42 -102 42h-190c-8 0 -14.5 2.83301 -19.5 8.5s-7.16699 12.167 -6.5 19.5l33 343
c0.666992 6.66699 3.33398 12.167 8.00098 16.5s10.334 6.5 17.001 6.5h334c7.33301 0 13.5 -2.5 18.5 -7.5s7.5 -10.833 7.5 -17.5v-78c0 -7.33301 -2.5 -13.5 -7.5 -18.5s-11.167 -7.5 -18.5 -7.5h-216c-6.66699 0 -12.5 -2.16699 -17.5 -6.5
s-7.83301 -9.83301 -8.5 -16.5l-8 -85c-0.666992 -7.33301 1.5 -13.833 6.5 -19.5s11.5 -8.5 19.5 -8.5h48z" />
    <glyph glyph-name="six" unicode="6" horiz-adv-x="567" 
d="M281 485c50.667 0 96.498 -13.168 137.498 -39.501s71.333 -61.833 91 -106.5s24.834 -92 15.501 -142c-10.667 -57.333 -39 -104.5 -85 -141.5s-98.667 -55.5 -158 -55.5h-2c-63.333 0 -118 21.667 -164 65s-71.333 96.333 -76 159h-2v150c0 64 15.167 123.333 45.5 178
s71.5 98.834 123.5 132.501s109.333 52.834 172 57.501c4.66699 0.666992 9.16699 -0.166016 13.5 -2.49902s7.83301 -5.5 10.5 -9.5s4 -8.66699 4 -14v-78c0 -6.66699 -2.16699 -12.334 -6.5 -17.001s-9.83301 -7.33398 -16.5 -8.00098
c-44.667 -4 -84.667 -19.5 -120 -46.5s-61.666 -60.833 -78.999 -101.5c30.667 13.333 62.667 20 96 20zM286.998 128.999c30.667 0 57.167 11.167 79.5 33.5s33.5 48.833 33.5 79.5c0 20.667 -5 39.667 -15 57s-23.833 31.166 -41.5 41.499s-36.5 15.5 -56.5 15.5
c-22.667 0 -43.167 -5.16699 -61.5 -15.5s-32.666 -24.166 -42.999 -41.499s-15.5 -36.333 -15.5 -57c0 -30.667 11.167 -57.167 33.5 -79.5s49.166 -33.5 80.499 -33.5h6z" />
    <glyph glyph-name="seven" unicode="7" horiz-adv-x="552" 
d="M68 581c-7.33301 0 -13.501 2.5 -18.501 7.5s-7.5 11.167 -7.5 18.5v77c0 7.33301 2.5 13.5 7.5 18.5s11.167 7.5 18.5 7.5h414c10 0 17.5 -4 22.5 -12s5.16699 -16.333 0.5 -25l-147 -294c-56 -111.333 -86 -229.333 -90 -354c0 -6.66699 -2.5 -12.5 -7.5 -17.5
s-10.833 -7.5 -17.5 -7.5h-78c-7.33301 0 -13.5 2.5 -18.5 7.5s-7.5 11.167 -7.5 18.5c4 144.667 38.333 281.667 103 411l54 107c2.66699 6 3.33398 11.667 2.00098 17s-4.33301 10 -9 14s-10 6 -16 6h-205z" />
    <glyph glyph-name="eight" unicode="8" horiz-adv-x="561" 
d="M499 538c0 -52 -17.667 -97.667 -53 -137c51.333 -46 77 -102.667 77 -170c0 -64 -22.5 -118.5 -67.5 -163.5s-99.5 -67.5 -163.5 -67.5h-23c-64 0 -118.5 22.5 -163.5 67.5s-67.5 99.5 -67.5 163.5c0 67.333 25.667 124 77 170c-35.333 39.333 -53 85 -53 137
c0 56.667 20 105 60 145s88.333 60 145 60h27c56.667 0 105 -20 145 -60s60 -88.333 60 -145zM267 614c-20.667 0 -38.5 -7.5 -53.5 -22.5s-22.5 -33 -22.5 -54s7.5 -39 22.5 -54s32.833 -22.5 53.5 -22.5h27c20.667 0 38.5 7.5 53.5 22.5s22.5 33 22.5 54s-7.5 39 -22.5 54
s-32.833 22.5 -53.5 22.5h-27zM292 129c28 0 52.001 10 72.001 30s30 44 30 72s-10 51.833 -30 71.5s-44 29.5 -72 29.5h-23c-18.667 0 -35.834 -4.5 -51.501 -13.5s-28 -21.333 -37 -37s-13.5 -32.5 -13.5 -50.5c0 -28 10 -52 30 -72s44 -30 72 -30h23z" />
    <glyph glyph-name="nine" unicode="9" horiz-adv-x="568" 
d="M286 743c64 0 119.002 -21.668 165.002 -65.001s71.333 -96.333 76 -159h2v-150c0 -63.333 -15.167 -122.5 -45.5 -177.5s-71.5 -99.333 -123.5 -133s-109.333 -52.834 -172 -57.501c-7.33301 -0.666992 -13.833 1.66602 -19.5 6.99902s-8.5 11.666 -8.5 18.999v78
c0 6.66699 2.16699 12.334 6.5 17.001s9.83301 7.33398 16.5 8.00098c44.667 4.66699 84.667 20.334 120 47.001s61.666 60.334 78.999 101.001c-30.667 -13.333 -62.667 -20 -96 -20c-50.667 0 -96.5 13.333 -137.5 40s-71.333 62.167 -91 106.5
s-24.834 91.833 -15.501 142.5c10.667 56.667 39 103.5 85 140.5s98.333 55.5 157 55.5h2zM281.002 386.999c33.333 0 61.5 10.999 84.5 32.999s34.5 49 34.5 81c0 31.333 -11.167 58 -33.5 80s-48.833 33 -79.5 33h-6c-31.333 0 -58.166 -11 -80.499 -33
s-33.5 -48.667 -33.5 -80s11.167 -58.166 33.5 -80.499s49.166 -33.5 80.499 -33.5z" />
    <glyph glyph-name="colon" unicode=":" horiz-adv-x="220" 
d="M109 245c-20 0 -37 7.16699 -51 21.5s-21 31.5 -21 51.5s7 37 21 51s31 21 51 21s37.167 -7 51.5 -21s21.5 -31 21.5 -51s-7.16699 -37.167 -21.5 -51.5s-31.5 -21.5 -51.5 -21.5zM109 118c13.333 0 25.665 -3.16797 36.998 -9.50098s20.166 -15.166 26.499 -26.499
s9.5 -23.5 9.5 -36.5s-3.16699 -25 -9.5 -36s-15.166 -19.833 -26.499 -26.5s-23.666 -10 -36.999 -10c-19.333 0 -36.166 7.16699 -50.499 21.5s-21.5 31.5 -21.5 51.5s7 37 21 51s31 21 51 21z" />
    <glyph glyph-name="semicolon" unicode=";" horiz-adv-x="220" 
d="M109 245c-12.667 0 -24.668 3.33301 -36.001 10s-20.166 15.5 -26.499 26.5s-9.5 23.167 -9.5 36.5c0 20 7 37 21 51s31 21 51 21s37.167 -7 51.5 -21s21.5 -31 21.5 -51c0 -8 -1.16699 -15.667 -3.5 -23s-5.83301 -14 -10.5 -20s-10 -11.333 -16 -16
s-12.667 -8.16699 -20 -10.5s-15 -3.5 -23 -3.5zM153.999 92c5.33301 0 9.5 -1.83301 12.5 -5.5s3.5 -8.16699 1.5 -13.5l-32 -111c-1.33301 -5.33301 -4.5 -10 -9.5 -14s-10.5 -6 -16.5 -6h-31c-4 0 -7.66699 1 -11 3s-6 4.5 -8 7.5s-3 6.5 -3 10.5l-10 109
c-0.666992 6 0.833008 10.833 4.5 14.5s8.16699 5.5 13.5 5.5h89z" />
    <glyph glyph-name="less" unicode="&#x3c;" horiz-adv-x="453" 
d="M395 464l-129.001 -92.999c-4.66699 -3.33301 -7 -7.33301 -7 -12s2.33301 -8.33398 7 -11.001l129 -93c10.667 -8 16 -19 16 -33v-116c0 -14 -0.166992 -21.167 -0.5 -21.5s-5.83301 3.5 -16.5 11.5l-348 252c-4.66699 3.33301 -7 7.33301 -7 12s2.33301 8.66699 7 12
l348 251l8 6c2.66699 2 4.83398 3.5 6.50098 4.5s2.5 1.16699 2.5 0.5v-21v-116c0 -14 -5.33301 -25 -16 -33z" />
    <glyph glyph-name="equal" unicode="=" horiz-adv-x="487" 
d="M416 318c6 0 11 -2 15 -6s6 -9 6 -15v-88c0 -5.33301 -2 -10 -6 -14s-9 -6 -15 -6h-346c-5.33301 0 -10 2 -14 6s-6 8.66699 -6 14v89c0 5.33301 2 10 6 14s8.66699 6 14 6h346zM416 528c6 0 11 -2 15 -6s6 -9 6 -15v-88c0 -6 -2 -11 -6 -15s-9 -6 -15 -6h-346
c-5.33301 0 -10 2 -14 6s-6 9 -6 15v88c0 6 2 11 6 15s8.66699 6 14 6h346z" />
    <glyph glyph-name="greater" unicode="&#x3e;" horiz-adv-x="453" 
d="M405 372c4.66699 -3.33301 7 -7.33301 7 -12s-2.33301 -8.66699 -7 -12l-348 -252c-11.333 -8 -17.166 -11.667 -17.499 -11s-0.5 7.66699 -0.5 21v116c0 14 5.66699 25 17 33l128 93c4.66699 3.33301 7 7.33301 7 12s-2.33301 8.66699 -7 12l-128 93
c-11.333 8 -17 18.667 -17 32v116c0 13.333 0.166992 20.333 0.5 21s6.16602 -3 17.499 -11z" />
    <glyph glyph-name="question" unicode="?" horiz-adv-x="501" 
d="M461 536c2 -19.333 1.82812 -37.167 -0.504883 -53.5s-7.66602 -32 -15.999 -47s-16.166 -27.333 -23.499 -37s-18 -22.834 -32 -39.501s-24.667 -30 -32 -40c-24.667 -33.333 -39 -73 -43 -119c-0.666992 -4.66699 -0.833984 -10.5 -0.500977 -17.5
s0.166016 -14 -0.500977 -21s-2 -11.5 -4 -13.5c-3.33301 -3.33301 -24.166 -5 -62.499 -5s-59.166 1.66699 -62.499 5c-4 3.33301 -3.33301 28.333 2 75c5.33301 49.333 20 95 44 137c6 10.667 15.333 23.167 28 37.5l34.5 39c10.333 11.667 19.833 24.334 28.5 38.001
s12.834 28.167 12.501 43.5s-5.83301 30.666 -16.5 45.999c-9.33301 13.333 -22 22.666 -38 27.999c-20 6 -35.833 8.33301 -47.5 7s-21.667 -5.66602 -30 -12.999s-14.5 -14.833 -18.5 -22.5s-8.33301 -15.5 -13 -23.5s-9.66699 -13.333 -15 -16
c-12 -5.33301 -42.667 -2.66602 -92 8.00098c-6 1.33301 -11.167 3.83301 -15.5 7.5s-7.16602 8.33398 -8.49902 14.001s-1.33301 11.167 0 16.5c16 59.333 51.833 103.833 107.5 133.5s112.834 34.5 171.501 14.5c38.667 -12.667 71 -35.834 97 -69.501
s41.333 -71.167 46 -112.5zM247.995 117.999c11.333 0 21.5 -1.99902 30.5 -5.99902s16.333 -9.5 22 -16.5s10 -14.833 13 -23.5s4.5 -17.5 4.5 -26.5s-1.66699 -17.833 -5 -26.5s-7.83301 -16.334 -13.5 -23.001s-13 -12.167 -22 -16.5s-18.833 -6.5 -29.5 -6.5
c-22 0 -39.333 7.66699 -52 23s-19 32 -19 50s6.16699 34.5 18.5 49.5s29.833 22.5 52.5 22.5z" />
    <glyph glyph-name="at" unicode="@" horiz-adv-x="1129" 
d="M1085 386c6.66699 -45.333 7.33594 -91.0088 2.00293 -137.009c-6 -46.667 -22.167 -86.167 -48.5 -118.5s-57.166 -55.166 -92.499 -68.499s-72 -18.666 -110 -15.999c-32.667 2.66699 -63.334 11.834 -92.001 27.501s-52.667 36.5 -72 62.5
c-46.667 -38.667 -98.667 -58 -156 -58h-8c-61.333 2 -110.333 26 -147 72c-37.333 46.667 -50 101 -38 163c10.667 57.333 39.5 102.333 86.5 135s100.5 47.667 160.5 45c12.667 0 27 -3.5 43 -10.5s25.667 -12.833 29 -17.5c0 10 3.83301 18.667 11.5 26
s16.834 10.666 27.501 9.99902l68 -3c6 -0.666992 11.167 -3.33398 15.5 -8.00098s6.16602 -10 5.49902 -16l-10 -203c-0.666992 -15.333 1.5 -29.166 6.5 -41.499s10.833 -21.666 17.5 -27.999s14.834 -11.666 24.501 -15.999s17.167 -7 22.5 -8s10.333 -1.83301 15 -2.5
c14.667 -1.33301 29.334 0 44.001 4s29 13.333 43 28s22.333 33.667 25 57c4 34.667 3.66699 69.667 -1 105c-10.667 77.333 -42.667 144.333 -96 201s-118 92.334 -194 107.001c-59.333 12 -118 11 -176 -3s-111.333 -40 -160 -78
c-48.667 -38.667 -87.334 -85 -116.001 -139s-44.334 -111 -47.001 -171c-2.66699 -52.667 4.66602 -103 21.999 -151s43.666 -90.667 78.999 -128c67.333 -70.667 150.666 -108.667 249.999 -114c6 0 11.167 -2.5 15.5 -7.5s6.5 -10.5 6.5 -16.5v-81
c0 -6.66699 -2.33301 -12.5 -7 -17.5s-10.667 -7.16699 -18 -6.5c-65.333 2.66699 -127.333 17.334 -186 44.001s-110.334 63.334 -155.001 110.001c-47.333 50 -82.833 107.167 -106.5 171.5s-33.5 131.833 -29.5 202.5c4 79.333 24.5 154.333 61.5 225
s87.5 130.667 151.5 180c62.667 49.333 132.334 83.333 209.001 102s153.667 20.334 231 5.00098c68 -13.333 130.167 -39.666 186.5 -78.999s102.5 -88.333 138.5 -147s58.667 -122.667 68 -192zM629.002 302.991c4.66699 23.333 0.665039 42.999 -12.002 58.999
c-12 14.667 -29 22.334 -51 23.001h-2h-1c-26 0 -50.167 -9.33301 -72.5 -28s-36.166 -41 -41.499 -67c-4 -24 0.333008 -43.667 13 -59c12 -15.333 29 -23.333 51 -24c17.333 0.666992 34.333 5.16699 51 13.5s30.834 19.833 42.501 34.5s19.167 30.667 22.5 48z" />
    <glyph glyph-name="A" unicode="A" horiz-adv-x="703" 
d="M343 679c2.66699 4.66699 6.66895 7 12.002 7s9 -2.33301 11 -7l301 -660c0.666992 -2 1 -4 1 -6s-0.666992 -3.83301 -2 -5.5s-2.83301 -3 -4.5 -4s-3.83398 -1.5 -6.50098 -1.5h-106c-10 0 -17.333 4.66699 -22 14l-33 72c-2 4.66699 -5.66699 7 -11 7h-264
c-5.33301 0 -9 -2.33301 -11 -7l-34 -73c-4 -8.66699 -11 -13 -21 -13h-107c-4.66699 0 -8.33398 1.83301 -11.001 5.5s-3 7.5 -1 11.5zM279.002 239c-2 -4.66699 -1.83301 -8.83301 0.5 -12.5s5.83301 -5.5 10.5 -5.5h124c4.66699 0 8.16699 1.83301 10.5 5.5
s2.83301 7.5 1.5 11.5l-61 134c-2.66699 5.33301 -6.66699 8 -12 8s-9 -2.66699 -11 -8z" />
    <glyph glyph-name="B" unicode="B" horiz-adv-x="614" 
d="M487 372c27.333 -19.333 48.835 -43.332 64.502 -71.999s23.5 -59.667 23.5 -93c0 -40.667 -11.667 -77.834 -35 -111.501s-54.333 -58.834 -93 -75.501c-28.667 -12.667 -58.334 -19 -89.001 -19h-295c-6.66699 0 -12.5 2.5 -17.5 7.5s-7.5 11.167 -7.5 18.5v651
c0 6.66699 2.5 12.5 7.5 17.5s10.833 7.5 17.5 7.5h252c31.333 0 62 -6.33301 92 -19c37.333 -17.333 67.666 -42.666 90.999 -75.999s35 -70.333 35 -111c0 -46 -15.333 -87.667 -46 -125zM167.002 566.001v-137.998c0 -4 1.5 -7.5 4.5 -10.5s6.5 -4.5 10.5 -4.5h133
c24.667 0 45.667 8.16699 63 24.5s26 36.166 26 59.499s-8.66699 43.166 -26 59.499s-38.333 24.5 -63 24.5h-133c-4 0 -7.5 -1.5 -10.5 -4.5s-4.5 -6.5 -4.5 -10.5zM357.002 123.003c24.667 0 45.667 8.33301 63 25s26 36.5 26 59.5s-8.66699 42.667 -26 59
s-38.333 24.5 -63 24.5h-175c-4 0 -7.5 -1.5 -10.5 -4.5s-4.5 -6.5 -4.5 -10.5v-138c0 -4 1.5 -7.5 4.5 -10.5s6.5 -4.5 10.5 -4.5h175z" />
    <glyph glyph-name="C" unicode="C" horiz-adv-x="700" 
d="M387 592c-59.333 -5.33301 -109.831 -30.1689 -151.498 -74.502s-63.834 -96.166 -66.501 -155.499c-1.33301 -45.333 8.5 -87.333 29.5 -126s50.333 -69.167 88 -91.5s79.167 -33.5 124.5 -33.5c48.667 0 93 13.333 133 40c5.33301 3.33301 11.166 4.5 17.499 3.5
s11.5 -4.16699 15.5 -9.5l50 -61c4.66699 -5.33301 6.33398 -11.666 5.00098 -18.999s-5 -13.333 -11 -18c-28 -19.333 -58.667 -34.333 -92 -45c-39.333 -13.333 -79 -20 -119 -20s-79.667 6.66699 -119 20c-74 24.667 -134.333 69.167 -181 133.5s-70 136.5 -70 216.5
c0 52.667 10.667 102.834 32 150.501s50.833 88.667 88.5 123s80.5 59.833 128.5 76.5c40 14 80.333 21 121 21c38 0 77.667 -7 119 -21c46 -16 86.333 -38.333 121 -67c5.33301 -4.66699 8.33301 -10.834 9 -18.501s-1.66602 -14.167 -6.99902 -19.5l-55 -56
c-4.66699 -4.66699 -10.334 -7.16699 -17.001 -7.5s-12.334 1.83398 -17.001 6.50098c-51.333 41.333 -110 58.666 -176 51.999z" />
    <glyph glyph-name="D" unicode="D" horiz-adv-x="614" 
d="M326 682c77.333 -25.333 139.331 -70.334 185.998 -135.001s67.334 -136.667 62.001 -216c-4 -68 -27.167 -129.167 -69.5 -183.5s-95.833 -93.833 -160.5 -118.5c-45.333 -17.333 -91.666 -26 -138.999 -26h-142c-6.66699 0 -12.5 2.33301 -17.5 7
s-7.5 10.334 -7.5 17.001v650c0 6.66699 2.5 12.5 7.5 17.5s10.833 7.5 17.5 7.5h142c40.667 0 81 -6.66699 121 -20zM204.998 123.999c66 0 122.667 22.3311 170 66.998s71 98.334 71 161.001s-23.667 116.334 -71 161.001s-104 67 -170 67h-29c-6 0 -9 -3 -9 -9v-437
c0 -6.66699 3 -10 9 -10h29z" />
    <glyph glyph-name="E" unicode="E" horiz-adv-x="494" 
d="M44 692c0 6.66699 6.66797 10.001 20.001 10.001h364c13.333 0 20 -3.33301 20 -10v-92c0 -5.33301 -1.83301 -10 -5.5 -14s-8.5 -6 -14.5 -6h-234c-6 0 -11 -2 -15 -6s-6 -9 -6 -15v-169c0 -5.33301 2 -10 6 -14s9 -6 15 -6h118c5.33301 0 10 -2 14 -6s6 -9 6 -15v-81
c0 -2.66699 -0.5 -5.33398 -1.5 -8.00098s-2.33301 -4.83398 -4 -6.50098s-3.83398 -3 -6.50098 -4s-5.33398 -1.5 -8.00098 -1.5h-118c-3.33301 0 -6.16602 -0.5 -8.49902 -1.5s-4.5 -2.5 -6.5 -4.5s-3.5 -4.16699 -4.5 -6.5s-1.5 -5.16602 -1.5 -8.49902v-82
c0 -6 2 -11 6 -15s9 -6 15 -6h234c6 0 10.833 -2 14.5 -6s5.5 -8.66699 5.5 -14v-62v-30c0 -6.66699 -6.66699 -10 -20 -10h-364c-13.333 0 -20 3.33301 -20 10v650v30z" />
    <glyph glyph-name="F" unicode="F" horiz-adv-x="494" 
d="M44 691c0 3.33301 2 6 6 8s8.66699 3 14 3h364c5.33301 0 10 -1 14 -3s6 -4.66699 6 -8v-98c0 -5.33301 -1.83301 -10 -5.5 -14s-8.5 -6 -14.5 -6h-234c-6 0 -11 -2 -15 -6s-6 -9 -6 -15v-161c0 -5.33301 2 -10 6 -14s9 -6 15 -6h118c5.33301 0 10 -2 14 -6s6 -9 6 -15
v-88c0 -5.33301 -2 -10 -6 -14s-8.66699 -6 -14 -6h-118c-6 0 -11 -2 -15 -6s-6 -9 -6 -15v-199c0 -5.33301 -2 -10 -6 -14s-8.66699 -6 -14 -6h-89c-5.33301 0 -10 2 -14 6s-6 8.66699 -6 14v639v30z" />
    <glyph glyph-name="G" unicode="G" horiz-adv-x="818" 
d="M434 288c-7.33301 0 -13.3281 2.33398 -17.9951 7.00098s-7 10.667 -7 18v78c0 7.33301 2.33301 13.5 7 18.5s10.667 7.5 18 7.5h320c6.66699 0 12.5 -2.5 17.5 -7.5s7.5 -11.167 7.5 -18.5v-39c0 -80 -23.333 -152.167 -70 -216.5s-107 -108.833 -181 -133.5
c-39.333 -13.333 -79 -20 -119 -20c-40.667 0 -80.667 6.66699 -120 20c-74 24.667 -134.333 69.167 -181 133.5s-70 136.5 -70 216.5c0 53.333 10.667 103.666 32 150.999s50.833 88.166 88.5 122.499s80.5 59.833 128.5 76.5c40 14 80.667 21 122 21
c37.333 0 76.666 -7 117.999 -21c46 -15.333 86.333 -37.666 121 -66.999c5.33301 -4.66699 8.33301 -10.834 9 -18.501s-1.66602 -14.167 -6.99902 -19.5l-55 -56c-4.66699 -4.66699 -10.334 -7.16699 -17.001 -7.5s-12.334 1.5 -17.001 5.5
c-44.667 36 -95.334 54 -152.001 54c-72 0 -132 -26.667 -180 -80s-68 -116.333 -60 -189c6 -54.667 28.833 -102 68.5 -142s87.167 -63 142.5 -69c38.667 -4.66699 75.667 -0.5 111 12.5s65.666 32.667 90.999 59s43.666 56.833 54.999 91.5
c1.33301 2.66699 1 5.33398 -1 8.00098s-4.33301 4 -7 4h-195z" />
    <glyph glyph-name="H" unicode="H" horiz-adv-x="614" 
d="M446 391v290c0 6 2 11 6 15s8.66699 6 14 6h89c5.33301 0 10 -2 14 -6s6 -9 6 -15v-659c0 -5.33301 -2 -10 -6 -14s-8.66699 -6 -14 -6h-89c-5.33301 0 -10 2 -14 6s-6 8.66699 -6 14v199c0 6 -2 11 -6 15s-9 6 -15 6h-237c-6 0 -11 -2 -15 -6s-6 -9 -6 -15v-199
c0 -5.33301 -2 -10 -6 -14s-8.66699 -6 -14 -6h-89c-5.33301 0 -10 2 -14 6s-6 8.66699 -6 14v659c0 6 2 11 6 15s8.66699 6 14 6h89c5.33301 0 10 -2 14 -6s6 -9 6 -15v-290c0 -5.33301 2 -10 6 -14s9 -6 15 -6h237c6 0 11 2 15 6s6 8.66699 6 14z" />
    <glyph glyph-name="I" unicode="I" horiz-adv-x="327" 
d="M99 22v659c0 6 2 11 6 15s8.66699 6 14 6h89c5.33301 0 10 -2 14 -6s6 -9 6 -15v-659c0 -5.33301 -2 -10 -6 -14s-8.66699 -6 -14 -6h-89c-5.33301 0 -10 2 -14 6s-6 8.66699 -6 14z" />
    <glyph glyph-name="J" unicode="J" horiz-adv-x="524" 
d="M356 221v456c0 6.66699 2.5 12.5 7.5 17.5s10.833 7.5 17.5 7.5h80c6.66699 0 12.5 -2.5 17.5 -7.5s7.5 -10.833 7.5 -17.5v-461c0 -47.333 -13.333 -90.333 -40 -129c-18 -27.333 -41.833 -48.333 -71.5 -63s-61.167 -22 -94.5 -22h-57c-35.333 0 -68.333 8 -99 24
s-55 38.667 -73 68c-3.33301 5.33301 -7 11.666 -11 18.999c-2.66699 6 -2.66699 12.5 0 19.5s7.33398 11.5 14.001 13.5l76 27c13.333 4.66699 23.333 1.33398 30 -9.99902c12 -20 28.833 -34.667 50.5 -44s44.167 -11 67.5 -5s42.166 19 56.499 39s21.5 42.667 21.5 68z
" />
    <glyph glyph-name="K" unicode="K" horiz-adv-x="619" 
d="M438 702l133.002 0.00195312c5.33301 0 8.66602 -1.5 9.99902 -4.5s0 -6.5 -4 -10.5l-281 -314c-4 -4.66699 -6 -10 -6 -16s2 -11 6 -15l279 -325c4 -4 5.33301 -7.5 4 -10.5s-5 -4.5 -11 -4.5h-129c-14 0 -25.333 5 -34 15l-196 228c-4 4 -8.5 6 -13.5 6
s-9.5 -2 -13.5 -6l-4 -5c-9.33301 -10 -14 -21.667 -14 -35v-183c0 -5.33301 -2 -10 -6 -14s-8.66699 -6 -14 -6h-89c-5.33301 0 -10 2 -14 6s-6 8.66699 -6 14v659c0 6 2 11 6 15s8.66699 6 14 6h89c2.66699 0 5.16699 -0.666992 7.5 -2s4.5 -2.83301 6.5 -4.5
s3.5 -3.83398 4.5 -6.50098s1.5 -5.33398 1.5 -8.00098v-242c0 -5.33301 1.33301 -8.5 4 -9.5s6 0.5 10 4.5l226 253c9.33301 10 20.666 15 33.999 15z" />
    <glyph glyph-name="L" unicode="L" horiz-adv-x="494" 
d="M173 681l0.000976562 -550c0 -5.33301 2 -10 6 -14s9 -6 15 -6h234c6 0 10.833 -2 14.5 -6s5.5 -9 5.5 -15v-68c0 -4 -0.833008 -7.5 -2.5 -10.5s-4 -5.33301 -7 -7s-6.5 -2.5 -10.5 -2.5h-364c-5.33301 0 -10 2 -14 6s-6 8.66699 -6 14v659c0 6 2 11 6 15
s8.66699 6 14 6h89c3.33301 0 6.66602 -1 9.99902 -3s5.83301 -4.5 7.5 -7.5s2.5 -6.5 2.5 -10.5z" />
    <glyph glyph-name="M" unicode="M" horiz-adv-x="682" 
d="M354 425l206.002 223c17.333 18.667 26.666 28.667 27.999 30l41 46c4 4 7.33301 5.5 10 4.5s4 -4.5 4 -10.5v-34v-662c0 -5.33301 -2 -10 -6 -14s-8.66699 -6 -14 -6h-89c-5.33301 0 -10 2 -14 6s-6 8.66699 -6 14v365c0 5.33301 -1.33301 8.66602 -4 9.99902
s-6 -0.333984 -10 -5.00098l-146 -158c-3.33301 -4 -7.83301 -6 -13.5 -6s-10.167 2 -13.5 6l-146 158c-4 4.66699 -7.33301 6.33398 -10 5.00098s-4 -4.66602 -4 -9.99902v-365c0 -5.33301 -2 -10 -6 -14s-8.66699 -6 -14 -6h-89c-5.33301 0 -10 2 -14 6s-6 8.66699 -6 14
v621v75c0 6 1.33301 9.5 4 10.5s6 -0.5 10 -4.5l41 -46c15.333 -16.667 24.666 -26.667 27.999 -30l206 -223c3.33301 -4.66699 7.83301 -7 13.5 -7s10.167 2.33301 13.5 7z" />
    <glyph glyph-name="N" unicode="N" horiz-adv-x="614" 
d="M446 702c0 0.666992 6.66699 0.998047 20 0.998047h89c13.333 0 20 -0.333008 20 -1v-716c0 -5.33301 -1.33301 -8.66602 -4 -9.99902s-6 0.333984 -10 5.00098l-380 415c-4 4 -7.33301 5.5 -10 4.5s-4 -4.16699 -4 -9.5v-369c0 -5.33301 -2 -10 -6 -14
s-8.66699 -6 -14 -6h-89c-5.33301 0 -10 2 -14 6s-6 8.66699 -6 14v696c0 6 1.33301 9.5 4 10.5s6 -0.5 10 -4.5l380 -419c4 -4 7.33301 -5.5 10 -4.5s4 4.16699 4 9.5v371v21z" />
    <glyph glyph-name="O" unicode="O" horiz-adv-x="818" 
d="M530 702c73.333 -26 133.167 -70.834 179.5 -134.501s69.5 -135.5 69.5 -215.5s-23.333 -152.167 -70 -216.5s-107 -108.833 -181 -133.5c-39.333 -13.333 -79.333 -20 -120 -20c-40 0 -79.667 6.66699 -119 20c-74 24.667 -134.333 69.167 -181 133.5
s-70 136.5 -70 216.5c0 52.667 10.667 102.834 32 150.501s50.833 88.667 88.5 123s80.5 59.833 128.5 76.5c40 14 80.5 21 121.5 21s81.5 -7 121.5 -21zM408.001 110.999c66.667 0 123.665 23.498 170.998 70.498s71 103.833 71 170.5s-23.667 123.5 -71 170.5
s-104.166 70.5 -170.499 70.5s-123.166 -23.5 -170.499 -70.5s-71 -103.833 -71 -170.5c0 -43.333 10.833 -83.666 32.5 -120.999s51 -66.666 88 -87.999s77.167 -32 120.5 -32z" />
    <glyph glyph-name="P" unicode="P" horiz-adv-x="545" 
d="M465 633c35.333 -47.333 48.666 -100.667 39.999 -160c-8 -53.333 -33.167 -97.5 -75.5 -132.5s-91.166 -52.5 -146.499 -52.5h-91c-6.66699 0 -12.5 -2.5 -17.5 -7.5s-7.5 -11.167 -7.5 -18.5v-235c0 -6.66699 -2.5 -12.5 -7.5 -17.5s-10.833 -7.5 -17.5 -7.5h-79
c-6.66699 0 -12.5 2.5 -17.5 7.5s-7.5 10.833 -7.5 17.5v649c0 7.33301 2.5 13.5 7.5 18.5s10.833 7.5 17.5 7.5h260c28 0 54.5 -6 79.5 -18s45.833 -29 62.5 -51zM286 416.999c23.333 0 43.832 7.5 61.499 22.5s27.834 33.833 30.501 56.5
c2 26.667 -5.83301 49.5 -23.5 68.5s-39.167 28.5 -64.5 28.5h-97c-7.33301 0 -13.5 -2.33301 -18.5 -7s-7.5 -10.667 -7.5 -18v-126c0 -6.66699 2.5 -12.5 7.5 -17.5s11.167 -7.5 18.5 -7.5h93z" />
    <glyph glyph-name="Q" unicode="Q" horiz-adv-x="818" 
d="M530 702c73.333 -26 133.166 -70.834 179.499 -134.501s69.5 -135.5 69.5 -215.5c0 -86.667 -27.667 -164 -83 -232c-7.33301 -10 -7.33301 -19.667 0 -29c16 -22 30 -43.333 42 -64c3.33301 -6 3.5 -11.667 0.5 -17s-7.83301 -8 -14.5 -8h-110
c-7.33301 0 -13.333 2.66699 -18 8l-0.5 0.5c-0.333008 0.333008 -0.5 0.833008 -0.5 1.5c-7.33301 8.66699 -16.666 10.667 -27.999 6c-12 -6 -25 -11.333 -39 -16c-39.333 -13.333 -79.333 -20 -120 -20c-40 0 -79.667 6.66699 -119 20
c-74 24.667 -134.333 69.167 -181 133.5s-70 136.5 -70 216.5c0 52.667 10.667 102.834 32 150.501s50.833 88.667 88.5 123s80.5 59.833 128.5 76.5c40 14 80.5 21 121.5 21s81.5 -7 121.5 -21zM167 351.999c0 -2 1.00293 -10.9971 3.00293 -26.9971c20.667 2 40 3 58 3
c127.333 0 243 -38.667 347 -116c5.33301 -4 11.166 -5.5 17.499 -4.5s11.166 4.16699 14.499 9.5c36.667 53.333 49.667 111.666 39 174.999c-8.66699 53.333 -32.834 98.666 -72.501 135.999s-86.167 58.666 -139.5 63.999c-47.333 4.66699 -91.5 -3.16602 -132.5 -23.499
s-73.667 -49.833 -98 -88.5s-36.5 -81.334 -36.5 -128.001zM408.003 111.002c22 0 46 4.00098 72 12.001c-78 51.333 -163.333 76.666 -256 75.999v-1c14.667 -17.333 31.5 -32.5 50.5 -45.5s40 -23.167 63 -30.5s46.5 -11 70.5 -11z" />
    <glyph glyph-name="R" unicode="R" horiz-adv-x="571" 
d="M506 505c0 -39.333 -9.83105 -75.668 -29.498 -109.001s-45.834 -59.666 -78.501 -78.999c-6 -3.33301 -10 -8.33301 -12 -15s-1.33301 -13 2 -19l141 -244c2.66699 -5.33301 3.66699 -10.833 3 -16.5s-3.33398 -10.5 -8.00098 -14.5s-10.334 -6 -17.001 -6h-91
c-9.33301 0 -16.666 4 -21.999 12l-150 261c-4.66699 8.66699 -12 13 -22 13h-31c-6.66699 0 -12.5 -2.5 -17.5 -7.5s-7.5 -11.167 -7.5 -18.5v-235c0 -6.66699 -2.5 -12.5 -7.5 -17.5s-10.833 -7.5 -17.5 -7.5h-79c-6.66699 0 -12.5 2.5 -17.5 7.5s-7.5 10.833 -7.5 17.5
v649c0 7.33301 2.5 13.5 7.5 18.5s10.833 7.5 17.5 7.5h261c18 0 35.5 -2.5 52.5 -7.5s33 -12.5 48 -22.5s27.833 -22.333 38.5 -37c29.333 -38 44 -81.333 44 -130zM191.002 592.998c-6.66699 0 -12.501 -2.33301 -17.501 -7s-7.5 -10.667 -7.5 -18v-126
c0 -7.33301 2.5 -13.333 7.5 -18s10.833 -7 17.5 -7h97c26 0 47.833 9.66699 65.5 29s25.167 42 22.5 68c-0.666992 11.333 -3.66699 21.833 -9 31.5s-12.166 18 -20.499 25s-17.833 12.5 -28.5 16.5s-21.667 6 -33 6h-94z" />
    <glyph glyph-name="S" unicode="S" horiz-adv-x="587" 
d="M322 468l36.0039 -12.4941c8.66699 -3 21.5 -8.16699 38.5 -15.5s30.833 -14.5 41.5 -21.5s23 -16.333 37 -28s25.333 -23.834 34 -36.501s16.5 -28.334 23.5 -47.001s11.833 -38.334 14.5 -59.001c7.33301 -66.667 -11.667 -125.667 -57 -177
c-3.33301 -4.66699 -11.333 -12.334 -24 -23.001c-42.667 -38 -92.334 -59.667 -149.001 -65c-8.66699 -0.666992 -17.667 -1 -27 -1c-60.667 0 -114.667 17.667 -162 53l-7.5 7.5c-3 3 -5.16699 4.83301 -6.5 5.5c-38.667 34.667 -63.667 75.334 -75 122.001
c-2 7.33301 -0.833008 14 3.5 20s10.166 9.33301 17.499 10l80 8c6 0.666992 11.5 -0.666016 16.5 -3.99902s8.16699 -8 9.5 -14c7.33301 -24 21.666 -44.333 42.999 -61c28 -20.667 59.667 -29.334 95 -26.001s64.166 18 86.499 44s31.5 55.333 27.5 88
c-2 17.333 -6.16699 32.166 -12.5 44.499s-16.166 23 -29.499 32s-26.833 16.333 -40.5 22s-32.167 12.167 -55.5 19.5c-28 8.66699 -48.667 16.334 -62 23.001c-54 26 -91.333 59.667 -112 101s-22.334 86 -5.00098 134c14 38.667 40 69.667 78 93
c52 32 109.333 40.667 172 26c18.667 -4 38.334 -12.667 59.001 -26c50.667 -32 81 -74.333 91 -127c1.33301 -8 -0.333984 -15 -5.00098 -21s-11 -9 -19 -9l-80 -2c-13.333 0 -21.666 5.66699 -24.999 17s-9.66602 21.333 -18.999 30s-16.5 14.167 -21.5 16.5
s-9.16699 3.83301 -12.5 4.5c-20 4.66699 -39.333 3.5 -58 -3.5s-31.334 -19.5 -38.001 -37.5c-1.33301 -4 -2.33301 -7.33301 -3 -10s-1.33398 -6.83398 -2.00098 -12.501s0 -10.834 2 -15.501s5 -9.83398 9 -15.501s10 -11.5 18 -17.5s18 -12 30 -18
c6.66699 -2.66699 21.667 -7.66699 45 -15z" />
    <glyph glyph-name="T" unicode="T" horiz-adv-x="508" 
d="M50 614v67c0 6 2 11 6 15s8.66699 6 14 6h367c6 0 11 -2 15 -6s6 -9 6 -15v-67c0 -6 -2 -11 -6 -15s-9 -6 -15 -6h-98c-5.33301 0 -10 -2 -14 -6s-6 -8.66699 -6 -14v-551c0 -5.33301 -2 -10 -6 -14s-9 -6 -15 -6h-88c-6 0 -11 2 -15 6s-6 8.66699 -6 14v551
c0 5.33301 -2 10 -6 14s-8.66699 6 -14 6h-99c-5.33301 0 -10 2 -14 6s-6 9 -6 15z" />
    <glyph glyph-name="U" unicode="U" horiz-adv-x="613" 
d="M446 270l-0.000976562 408c0 6.66699 2.33301 12.5 7 17.5s10.334 7.5 17.001 7.5h80c7.33301 0 13.333 -2.5 18 -7.5s7 -10.833 7 -17.5v-408c0 -55.333 -15.5 -105.5 -46.5 -150.5s-71.5 -77.5 -121.5 -97.5c-32.667 -13.333 -66 -20 -100 -20
c-34.667 0 -68.334 6.66699 -101.001 20c-50 20 -90.5 52.5 -121.5 97.5s-46.5 95.167 -46.5 150.5v408c0 6.66699 2.33301 12.5 7 17.5s10.667 7.5 18 7.5h80c6.66699 0 12.334 -2.5 17.001 -7.5s7 -10.833 7 -17.5v-403c0 -36 11.5 -67.667 34.5 -95
s51.833 -43.333 86.5 -48c42.667 -5.33301 79.667 6 111 34s47 62.667 47 104z" />
    <glyph glyph-name="V" unicode="V" horiz-adv-x="712" 
d="M369 328l163.998 355c2.66699 5.33301 6.83398 9.83301 12.501 13.5s11.167 5.5 16.5 5.5h99c4 0 7.16699 -0.833008 9.5 -2.5s3.83301 -4 4.5 -7s0.333984 -6.16699 -0.999023 -9.5l-305 -691c-2 -5.33301 -4.66699 -8 -8 -8s-6 2.66699 -8 8l-309 691
c-5.33301 12 -8 18.167 -8 18.5s7 0.5 21 0.5h98c5.33301 0 11 -1.83301 17 -5.5s10 -8.16699 12 -13.5l167 -355c2.66699 -5.33301 5.66699 -8 9 -8s6.33301 2.66699 9 8z" />
    <glyph glyph-name="W" unicode="W" horiz-adv-x="967" 
d="M630 330l157.996 352.999c2 5.33301 5.83301 9.83301 11.5 13.5s11.167 5.5 16.5 5.5h99c5.33301 0 9.16602 -1.83301 11.499 -5.5s2.5 -8.16699 0.5 -13.5l-294 -694c-2.66699 -4.66699 -5.5 -7 -8.5 -7s-5.5 2.33301 -7.5 7l-119 282c-2 5.33301 -4.5 8 -7.5 8
s-5.5 -2.66699 -7.5 -8l-112 -281c-2 -5.33301 -4.5 -8 -7.5 -8s-5.83301 2.33301 -8.5 7l-311 694c-1.33301 3.33301 -2.66602 6.33301 -3.99902 9s-2.33301 5 -3 7l-1 3h21h98c5.33301 0 10.833 -1.83301 16.5 -5.5s9.83398 -8.16699 12.501 -13.5l167 -353
c2.66699 -4.66699 5.83398 -7.16699 9.50098 -7.5s6.83398 1.83398 9.50098 6.50098l39 64c6.66699 12 7.33398 24.333 2.00098 37l-106 253c-5.33301 12 -8 18.333 -8 19h21h98c6 0 11.833 -1.83301 17.5 -5.5s9.5 -8.16699 11.5 -13.5l168 -353
c2 -4.66699 4.66699 -7 8 -7s6.33301 2.33301 9 7z" />
    <glyph glyph-name="X" unicode="X" horiz-adv-x="673" 
d="M634 685l-208.999 -316c-8 -11.333 -8 -22.666 0 -33.999l209 -316c3.33301 -4.66699 4 -8.66699 2 -12s-5.66699 -5 -11 -5h-114c-13.333 0 -24 5.66699 -32 17l-132 199c-2.66699 4.66699 -6.33398 7 -11.001 7s-8.33398 -2.33301 -11.001 -7l-132 -199
c-8 -11.333 -18.667 -17 -32 -17h-114c-5.33301 0 -9 1.66699 -11 5s-1.33301 7.33301 2 12l209 316c8 11.333 8 22.666 0 33.999l-208 316c-3.33301 4.66699 -4.16602 8.66699 -2.49902 12s5.5 5 11.5 5h114c13.333 0 23.666 -5.66699 30.999 -17l132 -199
c2 -3.33301 4.33301 -5.5 7 -6.5s5.33398 -1 8.00098 0s5 3.16699 7 6.5l132 199c7.33301 11.333 13 17 17 17h129c5.33301 0 8.83301 -1.66699 10.5 -5s1.16699 -7.33301 -1.5 -12z" />
    <glyph glyph-name="Y" unicode="Y" horiz-adv-x="686" 
d="M353 448l143 236.002c2.66699 4.66699 7 8.83398 13 12.501s12 5.5 18 5.5h110c5.33301 0 9 -1.83301 11 -5.5s1.66699 -7.83398 -1 -12.501l-230 -378c-6.66699 -12 -10 -24.667 -10 -38v-246c0 -5.33301 -2 -10 -6 -14s-9 -6 -15 -6h-88c-6 0 -11 2 -15 6
s-6 8.66699 -6 14v246c0 13.333 -3.33301 26 -10 38l-229 378c-3.33301 5.33301 -4 9.66602 -2 12.999s5.66699 5 11 5h111c3.33301 0 7 -0.833008 11 -2.5s7.83301 -3.83398 11.5 -6.50098s6.5 -5.66699 8.5 -9l143 -236c2.66699 -4.66699 6 -7 10 -7s7.66699 2.33301 11 7
z" />
    <glyph glyph-name="Z" unicode="Z" horiz-adv-x="584" 
d="M73 702l458.998 0.000976562c6 0 10 -1.83301 12 -5.5s1.66699 -7.83398 -1 -12.501l-303 -555c-2.66699 -5.33301 -3 -9.66602 -1 -12.999s6 -5 12 -5h257c6 0 11 -2 15 -6s6 -9 6 -15v-68c0 -5.33301 -2 -10 -6 -14s-9 -6 -15 -6h-459c-6 0 -10 1.66699 -12 5
s-1.66699 7.66602 1 12.999l304 556c2.66699 4.66699 2.83398 8.66699 0.500977 12s-6.16602 5 -11.499 5h-258c-3.33301 0 -6.5 1 -9.5 3s-5.5 4.5 -7.5 7.5s-3 6.5 -3 10.5v67c0 6 2 11 6 15s8.66699 6 14 6z" />
    <glyph glyph-name="bracketleft" unicode="[" horiz-adv-x="281" 
d="M194 645c-6 0 -10.999 -2 -14.999 -6s-6 -9 -6 -15v-530c0 -5.33301 2 -10 6 -14s9 -6 15 -6h21c5.33301 0 10 -2 14 -6s6 -8.66699 6 -14v-89c0 -5.33301 -2 -10 -6 -14s-8.66699 -6 -14 -6h-151c-5.33301 0 -10 2 -14 6s-6 8.66699 -6 14v788c0 6 2 11 6 15
s8.66699 6 14 6h151c3.33301 0 6.66602 -1 9.99902 -3s5.83301 -4.5 7.5 -7.5s2.5 -6.5 2.5 -10.5v-88c0 -5.33301 -2 -10 -6 -14s-8.66699 -6 -14 -6h-21z" />
    <glyph glyph-name="backslash" unicode="\" horiz-adv-x="481" 
d="M176 690l265 -662c2 -5.33301 1.83301 -9.83301 -0.5 -13.5s-6.5 -5.5 -12.5 -5.5h-98c-5.33301 0 -10.833 1.83301 -16.5 5.5s-9.5 8.16699 -11.5 13.5l-265 662c-2 5.33301 -1.66699 9.83301 1 13.5s6.66699 5.5 12 5.5h98c6 0 11.667 -1.83301 17 -5.5
s9 -8.16699 11 -13.5z" />
    <glyph glyph-name="bracketright" unicode="]" horiz-adv-x="281" 
d="M215 774c5.33301 0 10 -2 14 -6s6 -9 6 -15v-788c0 -2.66699 -0.5 -5.16699 -1.5 -7.5s-2.5 -4.5 -4.5 -6.5s-4.16699 -3.5 -6.5 -4.5s-4.83301 -1.5 -7.5 -1.5h-151c-5.33301 0 -10 2 -14 6s-6 8.66699 -6 14v89c0 5.33301 2 10 6 14s8.66699 6 14 6h22
c5.33301 0 10 2 14 6s6 8.66699 6 14v530c0 6 -2 11 -6 15s-8.66699 6 -14 6h-22c-5.33301 0 -10 2 -14 6s-6 8.66699 -6 14v88c0 6 2 11 6 15s8.66699 6 14 6h151z" />
    <glyph glyph-name="asciicircum" unicode="^" horiz-adv-x="434" 
d="M400 497c3.33301 -4.66699 4.16797 -8.66699 2.50098 -12s-5.16699 -5 -10.5 -5h-87c-13.333 0 -24 5.66699 -32 17l-45 63c-3.33301 4.66699 -7.33301 7 -12 7s-8.66699 -2.33301 -12 -7l-46 -63c-8 -11.333 -18.667 -17 -32 -17h-86c-6 0 -9.83301 1.66699 -11.5 5
s-0.833984 7.33301 2.49902 12l173 241c3.33301 4 7.33301 6 12 6s8.66699 -2 12 -6z" />
    <glyph glyph-name="underscore" unicode="_" horiz-adv-x="525" 
d="M454 118c6 0 11 -2 15 -6s6 -8.66699 6 -14v-88c0 -6 -2 -11 -6 -15s-9 -6 -15 -6h-384c-5.33301 0 -10 2 -14 6s-6 9 -6 15v88c0 5.33301 2 10 6 14s8.66699 6 14 6h384z" />
    <glyph glyph-name="grave" unicode="`" horiz-adv-x="190" 
d="M106 690l36.001 -107.001c1.33301 -3.33301 1.66602 -6.83301 0.999023 -10.5s-2.16699 -7 -4.5 -10s-5.16602 -5.16699 -8.49902 -6.5l-2 -1c-5.33301 -2.66699 -10.833 -3 -16.5 -1s-9.83398 5.66699 -12.501 11l-53 100c-2.66699 4.66699 -3 9.5 -1 14.5
s5.33301 8.83301 10 11.5l25 11c5.33301 2 10.5 1.83301 15.5 -0.5s8.5 -6.16602 10.5 -11.499z" />
    <glyph glyph-name="a" unicode="a" horiz-adv-x="529" 
d="M276 501c59.333 0 109.831 -21.001 151.498 -63.001s62.5 -92.667 62.5 -152v-250c0 -6.66699 -2.33301 -12.5 -7 -17.5s-10.667 -7.5 -18 -7.5h-54c-14 0 -25.833 5 -35.5 15s-14.5 21.667 -14.5 35c-9.33301 -16.667 -27.833 -31.5 -55.5 -44.5
s-53.167 -19.5 -76.5 -19.5c-56.667 0 -102.667 13.5 -138 40.5s-53 63.833 -53 110.5c0 54.667 19.667 98.167 59 130.5s92 48.5 158 48.5c33.333 0 66.666 -4.66699 99.999 -14c-5.33301 17.333 -17.166 32.833 -35.499 46.5s-36.833 20.5 -55.5 20.5
c-31.333 0 -58.666 -6.33301 -81.999 -19c-6 -3.33301 -12.167 -4.16602 -18.5 -2.49902s-11.166 5.5 -14.499 11.5l-39 59c-4 6.66699 -5 13.5 -3 20.5s6.33301 12.167 13 15.5c43.333 24 95.333 36 156 36zM228.998 112.999c22 0 44.333 5.16895 67 15.502
s40 27.166 52 50.499c-28 12.667 -59.333 19 -94 19c-21.333 0 -40 -3 -56 -9c-12.667 -4.66699 -21 -10.334 -25 -17.001s-6 -14.667 -6 -24c0 -8 2.83301 -14.667 8.5 -20s12.667 -9 21 -11s15 -3.16699 20 -3.5s9.16699 -0.5 12.5 -0.5z" />
    <glyph glyph-name="b" unicode="b" 
d="M330 497c60 -10 110.165 -38.501 150.498 -85.501s60.833 -100.5 61.5 -160.5c0.666992 -68.667 -22.166 -128 -68.499 -178s-98.5 -75 -156.5 -75c-60 0 -110 21.667 -150 65c0 -14.667 -5 -27 -15 -37s-22.333 -15 -37 -15h-53c-6.66699 0 -12.334 2.33301 -17.001 7
s-7 10.334 -7 17.001v687c0 7.33301 2.33301 13.333 7 18s10.334 7 17.001 7h81c6.66699 0 12.334 -2.33301 17.001 -7s7 -10.667 7 -18v-255c52.667 30 107 40 163 30zM289.998 125.999c34 0 63 12.001 87 36.001s36 52.833 36 86.5s-12 62.5 -36 86.5s-53 36 -87 36
s-63 -12 -87 -36s-36 -52.667 -36 -86c0 -22.667 5.5 -43.334 16.5 -62.001s26 -33.5 45 -44.5s39.5 -16.5 61.5 -16.5z" />
    <glyph glyph-name="c" unicode="c" horiz-adv-x="502" 
d="M394 351c-9.33301 -9.33301 -19.668 -10.002 -31.001 -2.00195c-23.333 16 -50.333 22.833 -81 20.5s-56.334 -13.833 -77.001 -34.5c-24 -24 -36 -52.833 -36 -86.5s12 -62.5 36 -86.5c20.667 -20.667 46.334 -32.167 77.001 -34.5s57.667 4.83398 81 21.501
c11.333 7.33301 21.666 6.33301 30.999 -3l58 -57c4.66699 -5.33301 6.83398 -11.666 6.50098 -18.999s-3.16602 -13.333 -8.49902 -18c-46 -36.667 -98.667 -55 -158 -55c-69.333 0 -128.666 24.333 -177.999 73c-49.333 49.333 -74 108.833 -74 178.5
s24.667 129.167 74 178.5c44 44 98.833 67.667 164.5 71s122.834 -14.334 171.501 -53.001c5.33301 -4.66699 8.16602 -10.667 8.49902 -18s-1.83398 -13.666 -6.50098 -18.999z" />
    <glyph glyph-name="d" unicode="d" 
d="M38 251c0.666992 60 21.165 113.501 61.498 160.501s90.5 75.5 150.5 85.5c56 10 110.333 0 163 -30v255c0 7.33301 2.33301 13.333 7 18s10.334 7 17.001 7h81c6.66699 0 12.334 -2.33301 17.001 -7s7 -10.667 7 -18v-687c0 -6.66699 -2.33301 -12.334 -7 -17.001
s-10.334 -7 -17.001 -7h-53c-14.667 0 -27 5 -37 15s-15 22.333 -15 37c-40 -43.333 -90 -65 -150 -65c-58 0 -110.167 25 -156.5 75s-69.166 109.333 -68.499 178zM166.998 248.501c0 -33.667 12 -62.5 36 -86.5s53 -36 87 -36s63 12 87 36s36 52.833 36 86.5
s-12 62.5 -36 86.5s-53 36 -87 36s-63 -12 -87 -36s-36 -52.833 -36 -86.5z" />
    <glyph glyph-name="e" unicode="e" horiz-adv-x="582" 
d="M533 319c4 -14 7.00098 -28.3311 9.00098 -42.998c0.666992 -3.33301 0.666992 -6.33301 0 -9s-1.83398 -5.16699 -3.50098 -7.5s-3.66699 -4.5 -6 -6.5s-4.83301 -3.33301 -7.5 -4l-317 -93c8 -6.66699 15.667 -12.334 23 -17.001c30 -16 61.333 -19.333 94 -10
c25.333 7.33301 46 21.333 62 42c9.33301 11.333 20 13.666 32 6.99902l70 -39c6.66699 -3.33301 10.834 -8.5 12.501 -15.5s0.5 -13.833 -3.5 -20.5c-34 -48 -79.333 -80.667 -136 -98c-24 -6.66699 -48 -10 -72 -10c-46.667 0 -87 10.333 -121 31
c-10 6.66699 -19.667 13.5 -29 20.5s-17.5 14 -24.5 21s-13.5 13.833 -19.5 20.5s-11.167 13.5 -15.5 20.5l-11.5 18.5c-3.33301 5.33301 -6.33301 11 -9 17s-4.5 10.667 -5.5 14s-2.33301 7.16602 -4 11.499s-2.5 6.83301 -2.5 7.5c-22.667 62 -15.667 126 21 192
c33.333 61.333 83.5 101.833 150.5 121.5s131.167 12.834 192.5 -20.499c37.333 -20.667 67.666 -49 90.999 -85c13.333 -20.667 23.333 -42.667 30 -66zM171.001 280.002l203.003 58.999c-7.33301 6.66699 -15.333 12.334 -24 17.001c-18.667 10 -38.334 15 -59.001 15
c-12 0 -23.667 -1.66699 -35 -5c-32.667 -9.33301 -57.334 -29 -74.001 -59c-4.66699 -8.66699 -8.33398 -17.667 -11.001 -27z" />
    <glyph glyph-name="f" unicode="f" horiz-adv-x="479" 
d="M239 596v-72.9971c0 -6 2.16699 -11.333 6.5 -16s9.83301 -7 16.5 -7h69c4 0 7.66699 -1 11 -3s6.16602 -4.66699 8.49902 -8s3.5 -7.33301 3.5 -12v-83c0 -4 -1.16699 -7.83301 -3.5 -11.5s-5.16602 -6.5 -8.49902 -8.5s-7 -3 -11 -3h-69
c-6.66699 0 -12.167 -2.16699 -16.5 -6.5s-6.5 -9.83301 -6.5 -16.5v-314c0 -6.66699 -2.33301 -12.167 -7 -16.5s-10 -6.5 -16 -6.5h-84c-6 0 -11.333 2.16699 -16 6.5s-7 9.83301 -7 16.5v314c0 4 -1 7.83301 -3 11.5s-4.66699 6.5 -8 8.5s-7 3 -11 3h-18
c-6.66699 0 -12.167 2.16699 -16.5 6.5s-6.5 9.83301 -6.5 16.5v83c0 6.66699 2.16699 12.167 6.5 16.5s9.83301 6.5 16.5 6.5h18c6 0 11.167 2.33301 15.5 7s6.5 10 6.5 16v69c0 51.333 17.5 95.833 52.5 133.5s77.5 57.167 127.5 58.5c53.333 1.33301 99 -16.667 137 -54
c4.66699 -5.33301 6.66699 -11.333 6 -18s-3.66699 -12.334 -9 -17.001l-68 -51c-9.33301 -6.66699 -18.333 -7 -27 -1c-10 8 -22 12 -36 12c-10 -0.666992 -19 -3.83398 -27 -9.50098s-14.333 -12.834 -19 -21.501s-7 -18 -7 -28z" />
    <glyph glyph-name="g" unicode="g" horiz-adv-x="580" 
d="M282 501c15.333 0 31.4971 -2.50098 48.4971 -7.50098s33.167 -12.5 48.5 -22.5s26.666 -21.333 33.999 -34c0 12.667 4.33301 23.334 13 32.001s19 13 31 13h61c6.66699 0 12.334 -2.5 17.001 -7.5s7 -10.833 7 -17.5v-446h-1c-1.33301 -73.333 -28.5 -136 -81.5 -188
s-116.5 -78 -190.5 -78c-52.667 0 -101 13.667 -145 41c-6 4 -9.66699 9.66699 -11 17s0.333984 13.666 5.00098 18.999l50 64c8 11.333 18.333 13.333 31 6c20.667 -11.333 43.334 -17.333 68.001 -18c39.333 -0.666992 73.5 14 102.5 44s43.5 65 43.5 105v7
c-59.333 -33.333 -120.666 -41.666 -183.999 -24.999c-58 14.667 -104.667 45.167 -140 91.5s-52.333 99.166 -51 158.499c1.33301 68.667 25.333 126.834 72 174.501s104 71.5 172 71.5zM289.997 125.999c34 0 63 12 87 36s36 52.833 36 86.5s-12 62.5 -36 86.5
s-53 36 -87 36s-63 -12 -87 -36s-36 -52.833 -36 -86.5s12 -62.5 36 -86.5s53 -36 87 -36z" />
    <glyph glyph-name="h" unicode="h" horiz-adv-x="516" 
d="M297 494c34 -6 64.6689 -19.002 92.002 -39.002s48.666 -45.167 63.999 -75.5s23 -62.833 23 -97.5v-246c0 -6.66699 -2.33301 -12.5 -7 -17.5s-10.667 -7.5 -18 -7.5h-79c-6.66699 0 -12.5 2.5 -17.5 7.5s-7.5 10.833 -7.5 17.5v245c0 26.667 -9.83301 49 -29.5 67
s-42.834 25.667 -69.501 23c-11.333 -1.33301 -22 -4.66602 -32 -9.99902s-18.667 -12.166 -26 -20.499s-13 -18 -17 -29s-6 -22.5 -6 -34.5v-241c0 -6.66699 -2.5 -12.5 -7.5 -17.5s-10.833 -7.5 -17.5 -7.5h-79c-6.66699 0 -12.5 2.5 -17.5 7.5s-7.5 10.833 -7.5 17.5v686
c0 6.66699 2.5 12.5 7.5 17.5s10.833 7.5 17.5 7.5h79c6.66699 0 12.5 -2.5 17.5 -7.5s7.5 -10.833 7.5 -17.5v-265c34.667 34 78 46.333 130 37z" />
    <glyph glyph-name="i" unicode="i" horiz-adv-x="202" 
d="M36 31v430c0 6 2 11 6 15s9 6 15 6h88c6 0 11 -2 15 -6s6 -9 6 -15v-430c0 -5.33301 -2 -10 -6 -14s-9 -6 -15 -6h-88c-6 0 -11 2 -15 6s-6 8.66699 -6 14zM33 614.5c0 19 6.66699 35.167 20 48.5s29.333 20 48 20s34.667 -6.66699 48 -20s20 -29.5 20 -48.5
s-6.66699 -35.167 -20 -48.5s-29.333 -20 -48 -20s-34.667 6.66699 -48 20s-20 29.5 -20 48.5z" />
    <glyph glyph-name="j" unicode="j" horiz-adv-x="326" 
d="M151 457c0 6.66699 2.49707 12.501 7.49707 17.501s10.833 7.5 17.5 7.5h80c6.66699 0 12.5 -2.5 17.5 -7.5s7.5 -10.833 7.5 -17.5v-431h-1c-1.33301 -68.667 -22.166 -128 -62.499 -178s-90.166 -79 -149.499 -87c-7.33301 -0.666992 -13.666 1.5 -18.999 6.5
s-8 11.167 -8 18.5v81c0 12.667 6.66699 20.667 20 24c16.667 4 32 12.667 46 26s24.833 30.166 32.5 50.499s11.5 41.833 11.5 64.5v425zM147.997 614.501c0 19 6.66699 35.167 20 48.5s29.333 20 48 20s34.667 -6.66699 48 -20s20 -29.5 20 -48.5
s-6.66699 -35.167 -20 -48.5s-29.333 -20 -48 -20s-34.667 6.66699 -48 20s-20 29.5 -20 48.5z" />
    <glyph glyph-name="k" unicode="k" horiz-adv-x="543" 
d="M490 466l-176 -202c-4 -4 -5.83301 -9 -5.5 -15s2.16602 -11 5.49902 -15l188 -208c3.33301 -4 4.33301 -7.5 3 -10.5s-4.66602 -4.5 -9.99902 -4.5h-133c-14 0 -25.333 5 -34 15l-99 110c-4 4 -8.66699 6 -14 6s-9.66602 -2 -12.999 -6l-24 -28
c-9.33301 -10.667 -14 -22.667 -14 -36v-41c0 -5.33301 -2 -10 -6 -14s-8.66699 -6 -14 -6h-89c-5.33301 0 -10 2 -14 6s-6 8.66699 -6 14v695c0 6 2 11 6 15s8.66699 6 14 6h89c5.33301 0 10 -2 14 -6s6 -9 6 -15v-416c0 -6 1.33301 -9.5 4 -10.5s6 0.833008 10 5.5
l141 161c8.66699 10.667 19.667 16 33 16h131c5.33301 0 8.66602 -1.5 9.99902 -4.5s0.333008 -6.83301 -3 -11.5z" />
    <glyph glyph-name="l" unicode="l" horiz-adv-x="205" 
d="M38 31v695c0 6 2 11 6 15s8.66699 6 14 6h89c5.33301 0 10 -2 14 -6s6 -9 6 -15v-695c0 -2.66699 -0.5 -5.16699 -1.5 -7.5s-2.5 -4.5 -4.5 -6.5s-4.16699 -3.5 -6.5 -4.5s-4.83301 -1.5 -7.5 -1.5h-89c-5.33301 0 -10 2 -14 6s-6 8.66699 -6 14z" />
    <glyph glyph-name="m" unicode="m" horiz-adv-x="785" 
d="M537 501c58 0 107.501 -21.498 148.501 -64.498s61.5 -94.833 61.5 -155.5v-245c0 -7.33301 -2.5 -13.333 -7.5 -18s-10.833 -7 -17.5 -7h-80c-6.66699 0 -12.334 2.33301 -17.001 7s-7 10.667 -7 18v245c0 25.333 -7.83301 46.666 -23.5 63.999s-34.667 26 -57 26
s-41.333 -8.66699 -57 -26s-23.5 -38.666 -23.5 -63.999v-245c0 -7.33301 -2.33301 -13.333 -7 -18s-10.667 -7 -18 -7h-80c-6.66699 0 -12.334 2.33301 -17.001 7s-7 10.667 -7 18v245c0 25.333 -7.83301 46.666 -23.5 63.999s-34.667 26 -57 26s-41.333 -8.66699 -57 -26
s-23.5 -38.666 -23.5 -63.999v-245c0 -4.66699 -1 -8.83398 -3 -12.501s-5 -6.66699 -9 -9s-8 -3.5 -12 -3.5h-80c-7.33301 0 -13.333 2.33301 -18 7s-7 10.667 -7 18v429c0 6.66699 2.33301 12.334 7 17.001s10.334 7 17.001 7h57c12 0 22.333 -4.33301 31 -13
s13 -19 13 -31c2 1.33301 8.83301 7 20.5 17s22.834 17.667 33.501 23s22.667 8.66602 36 9.99902c50.667 5.33301 97 -13.334 139 -56.001c41.333 41.333 89.666 62 144.999 62z" />
    <glyph glyph-name="n" unicode="n" horiz-adv-x="515" 
d="M167 284v-241.999c0 -6.66699 -2.33301 -12.334 -7 -17.001s-10.334 -7 -17.001 -7h-80c-7.33301 0 -13.333 2.33301 -18 7s-7 10.334 -7 17.001v423c0 6.66699 2.33301 12.334 7 17.001s10.334 7 17.001 7h61c12 0 22.333 -4.33301 31 -13s13 -19 13 -31
c10.667 10.667 27 21 49 31s40.667 15 56 15c60.667 0 109.834 -19.333 147.501 -58s56.5 -88.334 56.5 -149.001v-246c0 -6.66699 -2.33301 -12.5 -7 -17.5s-10.334 -7.5 -17.001 -7.5h-80c-6.66699 0 -12.5 2.5 -17.5 7.5s-7.5 10.833 -7.5 17.5v242
c0 23.333 -7.66699 44.166 -23 62.499s-34.666 28.5 -57.999 30.5c-26.667 2.66699 -49.834 -5 -69.501 -23s-29.5 -40 -29.5 -66z" />
    <glyph glyph-name="o" unicode="o" 
d="M290 501c69.333 0 128.665 -24.667 177.998 -74s74 -108.833 74 -178.5s-24.667 -129 -74 -178s-108.666 -73.5 -177.999 -73.5s-128.666 24.667 -177.999 74s-74 108.666 -74 177.999c0 45.333 11.167 87.333 33.5 126s53 69.334 92 92.001s81.167 34 126.5 34z
M289.999 126c34 0 63 12 87 36s36 52.833 36 86.5s-12 62.5 -36 86.5s-53 36 -87 36s-63 -12 -87 -36s-36 -52.833 -36 -86.5s12 -62.5 36 -86.5s53 -36 87 -36z" />
    <glyph glyph-name="p" unicode="p" 
d="M542 249c-0.666992 -60 -21.166 -113.501 -61.499 -160.501s-90.5 -75.5 -150.5 -85.5c-56 -10 -110.333 0 -163 30v-227c0 -6.66699 -2.33301 -12.334 -7 -17.001s-10.334 -7 -17.001 -7h-81c-6.66699 0 -12.334 2.33301 -17.001 7s-7 10.334 -7 17.001v658
c0 3.33301 0.666992 6.66602 2 9.99902s3 6 5 8s4.5 3.66699 7.5 5s6.16699 2 9.5 2h53c14.667 0 27 -5 37 -15s15 -22.333 15 -37c40 43.333 90 65 150 65c37.333 0 73.333 -11.167 108 -33.5s62.834 -53.166 84.501 -92.499s32.5 -81.666 32.5 -126.999zM413.001 251.499
c0 33.667 -12 62.5 -36 86.5s-53 36 -87 36s-63 -12 -87 -36s-36 -53 -36 -87c0 -22 5.5 -42.5 16.5 -61.5s26 -33.833 45 -44.5s39.5 -16 61.5 -16c34 0 63 12 87 36s36 52.833 36 86.5z" />
    <glyph glyph-name="q" unicode="q" 
d="M216 11c-30 9.33301 -57.5029 23.833 -82.5029 43.5s-45.5 43.334 -61.5 71.001s-26.333 57.167 -31 88.5c-5.33301 37.333 -2.66602 74 8.00098 110s26.834 66.833 48.501 92.5s47.167 46.334 76.5 62.001s59 23.5 89 23.5c60 0 110 -21.667 150 -65
c0 9.33301 2.33301 18 7 26s10.834 14.333 18.501 19s16.5 7 26.5 7h53c4.66699 0 8.83398 -1 12.501 -3s6.5 -4.83301 8.5 -8.5s3 -7.83398 3 -12.501v-659c0 -6.66699 -2.33301 -12.334 -7 -17.001s-10.667 -7 -18 -7h-80c-4.66699 0 -8.83398 1 -12.501 3s-6.5 5 -8.5 9
s-3 8 -3 12v227c-63.333 -36 -129 -43.333 -197 -22zM289.997 374c-34 0 -63 -12 -87 -36s-36 -53 -36 -87c0 -22 5.5 -42.5 16.5 -61.5s26 -33.833 45 -44.5s39.5 -16 61.5 -16s42.5 5.33301 61.5 16s34 25.5 45 44.5s16.5 39.5 16.5 61.5c0 34 -12 63 -36 87
s-53 36 -87 36z" />
    <glyph glyph-name="r" unicode="r" horiz-adv-x="366" 
d="M173 447c38.667 34.667 72.3359 52 101.003 52c10.667 0 20 -0.666992 28 -2c5.33301 -1.33301 9.66602 -4 12.999 -8s5 -8.66699 5 -14v-86c0 -7.33301 -2.83301 -13.333 -8.5 -18s-11.834 -6 -18.501 -4c-12.667 4 -25.334 5.33301 -38.001 4
c-23.333 -2 -42.833 -12 -58.5 -30s-23.5 -39 -23.5 -63v-243c0 -6.66699 -2.33301 -12.334 -7 -17.001s-10.334 -7 -17.001 -7h-81c-6.66699 0 -12.334 2.33301 -17.001 7s-7 10.334 -7 17.001v430c0 6.66699 2.33301 12.334 7 17.001s10.334 7 17.001 7h81
c6.66699 0 12.334 -2.33301 17.001 -7s7 -10.334 7 -17.001v-18z" />
    <glyph glyph-name="s" unicode="s" horiz-adv-x="474" 
d="M256 333c16 -3.33301 29.002 -6.33496 39.002 -9.00195s24 -7.83398 42 -15.501s32.667 -16.167 44 -25.5s22 -22.5 32 -39.5s16.333 -36.167 19 -57.5c6 -44.667 -5.66699 -85 -35 -121c-35.333 -43.333 -83.333 -67.666 -144 -72.999
c-6.66699 -0.666992 -13.334 -1 -20.001 -1c-46 0 -87 12.333 -123 37s-59.333 56.334 -70 95.001c-2 6 -1.16699 11.667 2.5 17s8.83398 8.33301 15.501 9l88 12c10 1.33301 17 -1.66699 21 -9c3.33301 -6 8.66602 -11.5 15.999 -16.5s16.166 -8.83301 26.499 -11.5
s21.166 -3.66699 32.499 -3c24 2 42 10.333 54 25c6 8 8.66699 15.667 8 23c-1.33301 8.66699 -7.16602 15.5 -17.499 20.5s-29.5 10.5 -57.5 16.5c-26 6 -44.667 11.333 -56 16c-42.667 18 -72.334 45 -89.001 81s-16.667 73.667 0 113c14 33.333 39.333 58.333 76 75
s76 20.667 118 12c25.333 -5.33301 50.166 -17.833 74.499 -37.5s39.833 -44.5 46.5 -74.5c0.666992 -4.66699 0.333984 -9 -0.999023 -13s-3.83301 -7.16699 -7.5 -9.5s-7.5 -3.83301 -11.5 -4.5l-96 -2c-4.66699 0 -9.66699 1.66699 -15 5
c-5.33301 4.66699 -10.666 8 -15.999 10c-12 2 -22.667 1.66699 -32 -1s-15 -6 -17 -10c-4 -9.33301 2.66699 -17.666 20 -24.999c4 -1.33301 15 -4 33 -8z" />
    <glyph glyph-name="t" unicode="t" horiz-adv-x="410" 
d="M207 680c8.66699 4 16.8301 3.49902 24.4971 -1.50098s11.5 -11.833 11.5 -20.5v-133c0 -6.66699 2.33301 -12.5 7 -17.5s10.334 -7.5 17.001 -7.5h66c6.66699 0 12.334 -2.33301 17.001 -7s7 -10.334 7 -17.001v-80c0 -7.33301 -2.33301 -13.333 -7 -18
s-10.334 -7 -17.001 -7h-66c-6.66699 0 -12.334 -2.33301 -17.001 -7s-7 -10.667 -7 -18v-163c0 -6 0.833008 -11.833 2.5 -17.5s4.33398 -10.834 8.00098 -15.501s7.83398 -8.83398 12.501 -12.501s10 -6.16699 16 -7.5c10.667 -3.33301 16 -11 16 -23v-82
c0 -7.33301 -2.66699 -13.5 -8 -18.5s-11.666 -7.16699 -18.999 -6.5c-44.667 6.66699 -82.167 27.334 -112.5 62.001s-45.5 75 -45.5 121v164c0 6.66699 -2.33301 12.334 -7 17.001s-10.334 7 -17.001 7h-14c-7.33301 0 -13.333 2.5 -18 7.5s-7 10.833 -7 17.5v80
c0 6.66699 2.33301 12.334 7 17.001s10.667 7 18 7h14c6.66699 0 12.334 2.5 17.001 7.5s7 10.833 7 17.5v95c0 10.667 5 18.334 15 23.001z" />
    <glyph glyph-name="u" unicode="u" horiz-adv-x="516" 
d="M347 201l-0.000976562 241.998c0 6.66699 2.5 12.334 7.5 17.001s10.833 7 17.5 7h80c6.66699 0 12.334 -2.33301 17.001 -7s7 -10.334 7 -17.001v-423c0 -6.66699 -2.33301 -12.334 -7 -17.001s-10.334 -7 -17.001 -7h-61c-12 0 -22.333 4.33301 -31 13s-13 19 -13 31
c-10 -10.667 -26 -21 -48 -31s-41 -15 -57 -15c-60 0 -109 19.333 -147 58s-57 88.334 -57 149.001v246c0 6.66699 2.33301 12.5 7 17.5s10.667 7.5 18 7.5h80c6.66699 0 12.334 -2.5 17.001 -7.5s7 -10.833 7 -17.5v-242c0 -23.333 7.83301 -44.166 23.5 -62.499
s34.834 -28.5 57.501 -30.5c13.333 -1.33301 26.166 0.166992 38.499 4.5s22.833 10.5 31.5 18.5s15.667 17.833 21 29.5s8 23.834 8 36.501z" />
    <glyph glyph-name="v" unicode="v" horiz-adv-x="571" 
d="M295 266l94.0039 193.002c2 5.33301 6 9.66602 12 12.999s11.667 5 17 5h103c5.33301 0 9.16602 -1.66699 11.499 -5s2.16602 -7.66602 -0.500977 -12.999l-236 -488c-2.66699 -4.66699 -5.66699 -7 -9 -7s-6.33301 2.33301 -9 7l-240 488
c-2.66699 5.33301 -2.83398 9.66602 -0.500977 12.999s6.16602 5 11.499 5h103c4 0 8 -0.833008 12 -2.5s7.5 -3.83398 10.5 -6.50098s5.5 -5.66699 7.5 -9l95 -193c2.66699 -5.33301 5.66699 -8 9 -8s6.33301 2.66699 9 8z" />
    <glyph glyph-name="w" unicode="w" horiz-adv-x="795" 
d="M518 256l95.002 203c2.66699 5.33301 6.83398 9.66602 12.501 12.999s11.167 5 16.5 5h102c6 0 10.167 -1.66699 12.5 -5s2.16602 -7.66602 -0.500977 -12.999l-235 -499c-2.66699 -5.33301 -5.66699 -8 -9 -8s-6.33301 2.66699 -9 8l-98 197
c-2.66699 4.66699 -5.66699 7 -9 7s-6.33301 -2.33301 -9 -7l-88 -186c-2 -5.33301 -4.83301 -8 -8.5 -8s-6.5 2.33301 -8.5 7l-244 489c-2.66699 5.33301 -2.83398 9.66602 -0.500977 12.999s6.16602 5 11.499 5h104c5.33301 0 10.833 -1.66699 16.5 -5
s9.83398 -7.66602 12.501 -12.999l96 -193c2.66699 -4.66699 5.83398 -7 9.50098 -7s6.5 2.66699 8.5 8l18 37c5.33301 12 5 24.333 -1 37l-59 118c-2.66699 5.33301 -2.83398 9.66602 -0.500977 12.999s6.16602 5 11.499 5h104c5.33301 0 11 -1.66699 17 -5
s10 -7.66602 12 -12.999l102 -203c2.66699 -5.33301 5.66699 -8 9 -8s6.33301 2.66699 9 8z" />
    <glyph glyph-name="x" unicode="x" horiz-adv-x="517" 
d="M355 477h113.999c6 0 9.83301 -1.66699 11.5 -5s0.833984 -7.33301 -2.49902 -12l-131 -198c-7.33301 -11.333 -7.33301 -22.666 0 -33.999l130 -197c3.33301 -4.66699 4 -8.66699 2 -12s-5.66699 -5 -11 -5h-114c-14 0 -24.667 5.66699 -32 17l-53 80
c-2.66699 4.66699 -6.33398 7 -11.001 7s-8.33398 -2.33301 -11.001 -7l-53 -80c-7.33301 -11.333 -18 -17 -32 -17h-114c-5.33301 0 -8.83301 1.66699 -10.5 5s-1.16699 7.33301 1.5 12l130 197c8 11.333 8 22.666 0 33.999l-131 198c-3.33301 4.66699 -4 8.66699 -2 12
s5.66699 5 11 5h114c14 0 24.667 -5.66699 32 -17l54 -81c2.66699 -4.66699 6.33398 -7 11.001 -7s8.33398 2.33301 11.001 7l54 81c8 11.333 18.667 17 32 17z" />
    <glyph glyph-name="y" unicode="y" horiz-adv-x="586" 
d="M401 477h123h20l-9 -18l-311 -642l-9 -18c-1.33301 -3.33301 -3 -7 -5 -11c-3.33301 -7.33301 -11.666 -11 -24.999 -11h-103c-6 0 -10 1.83301 -12 5.5s-2 8.16699 0 13.5l139 286c6 12 6 24 0 36l-168 341c-2.66699 5.33301 -2.83398 9.66602 -0.500977 12.999
s6.16602 5 11.499 5h103c6 0 11.833 -1.66699 17.5 -5s9.83398 -7.66602 12.501 -12.999l95 -193c2.66699 -5.33301 5.66699 -8 9 -8s6.33301 2.66699 9 8l94 193z" />
    <glyph glyph-name="z" unicode="z" horiz-adv-x="505" 
d="M165 481l283.999 1c5.33301 0 9 -1.66699 11 -5s1.33301 -7.33301 -2 -12l-193 -315c-3.33301 -5.33301 -4 -9.66602 -2 -12.999s6 -5 12 -5h140c5.33301 0 10 -2 14 -6s6 -8.66699 6 -14v-79c0 -4 -0.833008 -7.5 -2.5 -10.5s-4.16699 -5.5 -7.5 -7.5
s-6.66602 -3 -9.99902 -3l-360 -1c-5.33301 0 -9 1.66699 -11 5s-1.33301 7.66602 2 12.999l193 315c3.33301 4.66699 4 8.66699 2 12s-5.66699 5 -11 5h-147c-4 0 -7.5 1 -10.5 3s-5.5 4.5 -7.5 7.5s-3 6.16699 -3 9.5v79c0 6 2 11 6 15s9 6 15 6h41h41z" />
    <glyph glyph-name="braceleft" unicode="{" horiz-adv-x="382" 
d="M277 583v-30.999c0 -72 -21 -137 -63 -195c42 -64 63 -134.333 63 -211v-10c0 -14 4.33301 -26.5 13 -37.5s19.667 -18.5 33 -22.5c10.667 -2.66699 16 -10.334 16 -23.001v-82c0 -7.33301 -2.66699 -13.5 -8 -18.5s-11.666 -6.83301 -18.999 -5.5
c-46.667 6.66699 -85.667 27.834 -117 63.501s-47 77.5 -47 125.5v10c0 65.333 -21.667 122.333 -65 171l-42 46l45 43c41.333 40 62 88.667 62 146v31c0 47.333 15.667 89 47 125s70.333 57.333 117 64c4.66699 0.666992 9.16699 0 13.5 -2s7.66602 -5 9.99902 -9
s3.5 -8.33301 3.5 -13v-82c0 -12.667 -5.33301 -20.334 -16 -23.001c-13.333 -4 -24.333 -11.5 -33 -22.5s-13 -23.5 -13 -37.5z" />
    <glyph glyph-name="verticalbar" unicode="|" horiz-adv-x="205" 
d="M147 709c3.33301 0 6.66699 -0.833984 10 -2.50098s5.83301 -4.16699 7.5 -7.5s2.5 -6.66602 2.5 -9.99902v-751c0 -5.33301 -2 -10 -6 -14s-8.66699 -6 -14 -6h-89c-5.33301 0 -10 2 -14 6s-6 8.66699 -6 14v751c0 5.33301 2 10 6 14s8.66699 6 14 6h89z" />
    <glyph glyph-name="braceright" unicode="}" horiz-adv-x="383" 
d="M294 406l45 -43l-41 -46c-44 -49.333 -66 -106.333 -66 -171v-10c0 -48 -15.667 -89.833 -47 -125.5s-70.333 -56.834 -117 -63.501c-7.33301 -1.33301 -13.666 0.5 -18.999 5.5s-8 11.167 -8 18.5v82c0 12.667 5.33301 20.334 16 23.001
c9.33301 2.66699 17.333 6.83398 24 12.501s12 12.667 16 21s6 17.166 6 26.499v10c0 76.667 21 147 63 211c-42 58.667 -63 123.667 -63 195v31c0 14 -4.33301 26.5 -13 37.5s-19.667 18.167 -33 21.5c-10.667 3.33301 -16 11.333 -16 24v82c0 7.33301 2.66699 13.5 8 18.5
s11.666 6.83301 18.999 5.5c46.667 -6.66699 85.667 -28 117 -64s47 -77.667 47 -125v-31c0 -57.333 20.667 -106 62 -146z" />
    <glyph glyph-name="asciitilde" unicode="~" horiz-adv-x="468" 
d="M413 417c2.66699 -4.66699 4.00195 -9.33398 4.00195 -14.001v-86c0 -6 -2 -11.667 -6 -17s-9 -8.66602 -15 -9.99902c-25.333 -6.66699 -50.333 -10 -75 -10c-34.667 0 -68.334 6 -101.001 18c-6.66699 2 -12 4 -16 6c-17.333 7.33301 -40 9.5 -68 6.5
s-52.333 -10.833 -73 -23.5l-9 14c-2.66699 4.66699 -4 9.66699 -4 15v86c0 14 6.33301 23 19 27c63.333 18 124.333 16.333 183 -5l12 -5c22 -8 45.667 -11 71 -9s48.666 9 69.999 21z" />
    <glyph glyph-name="nonbreakingspace" unicode="&#xa0;" horiz-adv-x="300" 
 />
    <glyph glyph-name="exclamdown" unicode="&#xa1;" horiz-adv-x="222" 
d="M111 287c-20.667 0 -37.999 7.16699 -51.999 21.5s-21 31.5 -21 51.5s7 37 21 51s31.167 21 51.5 21s37.5 -7 51.5 -21s21 -31 21 -51c0 -10 -1.83301 -19.5 -5.5 -28.5s-8.83398 -16.667 -15.501 -23s-14.5 -11.5 -23.5 -15.5s-18.167 -6 -27.5 -6zM145.001 258
c6 0 11 -2 15 -6s6 -9 6 -15l9 -521c0 -6 -2 -11 -6 -15s-8.66699 -6 -14 -6h-89c-5.33301 0 -10 2 -14 6s-6 9 -6 15l9 521c0 2.66699 0.333008 5 1 7s1.66699 3.83301 3 5.5s2.83301 3.16699 4.5 4.5s3.66699 2.33301 6 3s4.5 1 6.5 1h69z" />
    <glyph glyph-name="cent" unicode="&#xa2;" horiz-adv-x="499" 
d="M451 82c5.33301 -5.33301 7.83301 -11.8301 7.5 -19.4971s-3.5 -13.834 -9.5 -18.501c-22 -17.333 -47.333 -31 -76 -41c-11.333 -3.33301 -17 -11 -17 -23v-15c0 -7.33301 -2.5 -13.333 -7.5 -18s-10.833 -7 -17.5 -7h-79c-6.66699 0 -12.5 2.33301 -17.5 7
s-7.5 10.667 -7.5 18v15c0 12 -5.66699 20 -17 24c-37.333 12.667 -69.333 32.334 -96 59.001c-49.333 49.333 -74 108.666 -74 177.999s24.667 128.666 74 177.999c26 26 58 45.333 96 58c11.333 3.33301 17 11.333 17 24v16c0 7.33301 2.5 13.5 7.5 18.5
s10.833 7.5 17.5 7.5h79c6.66699 0 12.5 -2.5 17.5 -7.5s7.5 -11.167 7.5 -18.5v-16c0 -12.667 5.66699 -20.667 17 -24c28.667 -9.33301 54 -22.333 76 -39c6 -4.66699 9.16699 -10.834 9.5 -18.501s-2.16699 -14.167 -7.5 -19.5l-56 -56c-10 -10 -21 -10.667 -33 -2
c-23.333 16 -50.166 22.833 -80.499 20.5s-55.833 -13.833 -76.5 -34.5c-24 -24 -36 -53 -36 -87s12 -63 36 -87c20.667 -20 46.167 -31.333 76.5 -34s57.166 4.33301 80.499 21c12 8 23 7 33 -3z" />
    <glyph glyph-name="sterling" unicode="&#xa3;" horiz-adv-x="540" 
d="M464 118c4 0 7.83105 -0.998047 11.498 -2.99805s6.66699 -4.83301 9 -8.5s3.5 -7.83398 3.5 -12.501v-81c0 -4.66699 -1.16699 -8.83398 -3.5 -12.501s-5.33301 -6.5 -9 -8.5s-7.5 -3 -11.5 -3h-390c-7.33301 0 -13.5 3 -18.5 9s-6.5 12.667 -4.5 20l10 49
c19.333 95.333 33.333 175.333 42 240c0 3.33301 -1.16699 6.33301 -3.5 9s-5.5 4 -9.5 4h-13c-3.33301 0 -6.33301 1.33301 -9 4s-4 5.66699 -4 9v53c0 3.33301 1.33301 6.33301 4 9s5.66699 4 9 4h14c4 0 7.16699 1.33301 9.5 4s3.5 5.66699 3.5 9
c-2 18.667 -5 40.667 -9 66c-8 46.667 -1.16699 91.334 20.5 134.001s55.167 75 100.5 97c27.333 13.333 58 20 92 20h1c49.333 0 93.333 -14.667 132 -44c6 -4.66699 9.16699 -10.5 9.5 -17.5s-1.83398 -13.167 -6.50098 -18.5l-57 -59
c-9.33301 -9.33301 -19.666 -10.333 -30.999 -3c-14.667 8.66699 -30.667 13 -48 13c-29.333 0 -52.666 -12 -69.999 -36c-14.667 -19.333 -20 -42 -16 -68c5.33301 -32.667 9.33301 -61.334 12 -86.001c0.666992 -7.33301 4.66699 -11 12 -11h110
c3.33301 0 6.16602 -1.33301 8.49902 -4s3.5 -5.66699 3.5 -9v-53c0 -3.33301 -1.16699 -6.16602 -3.5 -8.49902s-5.16602 -3.5 -8.49902 -3.5h-111c-7.33301 0 -11.333 -3.66699 -12 -11c-4.66699 -40.667 -13 -95.334 -25 -164.001
c-1.33301 -7.33301 0.333984 -13.833 5.00098 -19.5s10.667 -8.5 18 -8.5h233z" />
    <glyph glyph-name="currency" unicode="&#xa4;" horiz-adv-x="421" 
d="M349 294l21.001 -20.9971c4.66699 -4.66699 7 -10.334 7 -17.001s-2.33301 -12.334 -7 -17.001l-39 -39c-4.66699 -4.66699 -10.334 -7 -17.001 -7s-12.334 2.33301 -17.001 7l-22 22c-6.66699 6.66699 -14.334 8.66699 -23.001 6c-13.333 -4.66699 -27 -7 -41 -7
s-28 2.33301 -42 7c-8.66699 2.66699 -16.667 0.666992 -24 -6l-21 -22c-4.66699 -4.66699 -10.334 -7 -17.001 -7s-12.334 2.33301 -17.001 7l-39 39c-4.66699 4.66699 -7 10.334 -7 17.001s2.33301 12.334 7 17.001l21 21c7.33301 7.33301 9.33301 15.666 6 24.999
c-8 27.333 -8 54.666 0 81.999c3.33301 8.66699 1.33301 16.667 -6 24l-21 21c-4.66699 4.66699 -7 10.334 -7 17.001s2.33301 12.334 7 17.001l39 39c4.66699 4.66699 10.334 7 17.001 7s12.334 -2.33301 17.001 -7l21 -20c7.33301 -8 15.333 -10.333 24 -7
c27.333 8 55 8 83 0c8.66699 -2.66699 16.667 -0.333984 24 6.99902l21 20c4.66699 4.66699 10.334 7 17.001 7s12.334 -2.33301 17.001 -7l39 -39c4.66699 -4.66699 7 -10.334 7 -17.001s-2.33301 -12.334 -7 -17.001l-21 -21c-7.33301 -7.33301 -9.33301 -15.333 -6 -24
c8 -27.333 8 -55 0 -83c-3.33301 -8.66699 -1.33301 -16.667 6 -24zM235.501 334.503c7 7 10.5 15.333 10.5 25s-3.5 18 -10.5 25s-15.333 10.5 -25 10.5s-18 -3.5 -25 -10.5s-10.5 -15.333 -10.5 -25s3.5 -18 10.5 -25s15.333 -10.5 25 -10.5s18 3.5 25 10.5z" />
    <glyph glyph-name="yen" unicode="&#xa5;" horiz-adv-x="687" 
d="M647 692l-195.003 -322c-2.66699 -4.66699 -3.16699 -8.66699 -1.5 -12s5.5 -5 11.5 -5h32c5.33301 0 10 -2 14 -6s6 -9 6 -15v-37c0 -4 -0.833008 -7.5 -2.5 -10.5s-4.16699 -5.33301 -7.5 -7s-6.66602 -2.5 -9.99902 -2.5h-67c-5.33301 0 -10 -2 -14 -6s-6 -9 -6 -15
v-44c0 -6 2 -11 6 -15s8.66699 -6 14 -6h72c5.33301 0 10 -1.83301 14 -5.5s6 -8.5 6 -14.5v-37c0 -6 -2 -11 -6 -15s-8.66699 -6 -14 -6h-72c-5.33301 0 -10 -2 -14 -6s-6 -8.66699 -6 -14v-61c0 -4 -1 -7.5 -3 -10.5s-4.5 -5.33301 -7.5 -7s-6.5 -2.5 -10.5 -2.5h-88
c-5.33301 0 -10 1.83301 -14 5.5s-6 8.5 -6 14.5v61c0 3.33301 -1 6.66602 -3 9.99902s-4.5 5.83301 -7.5 7.5s-6.5 2.5 -10.5 2.5h-71c-6 0 -11 2 -15 6s-6 9 -6 15v37c0 2.66699 0.5 5.33398 1.5 8.00098s2.5 4.83398 4.5 6.50098s4.33301 3 7 4s5.33398 1.5 8.00098 1.5
h71c6 0 11 2 15 6s6 9 6 15v44c0 6 -2 11 -6 15s-9 6 -15 6h-77c-5.33301 0 -10 2 -14 6s-6 8.66699 -6 14v37c0 6 2 11 6 15s8.66699 6 14 6h43c5.33301 0 9 1.66699 11 5s1.66699 7.33301 -1 12l-195 322c-3.33301 4.66699 -4 8.83398 -2 12.501s5.66699 5.5 11 5.5h111
c5.33301 0 11 -1.83301 17 -5.5s10.667 -7.83398 14 -12.501l143 -236c2.66699 -5.33301 6.16699 -8 10.5 -8s7.83301 2.66699 10.5 8l143 236c1.33301 2.66699 3.33301 5 6 7s5.33398 3.83301 8.00098 5.5s5.5 3 8.5 4s5.83301 1.5 8.5 1.5h110c6 0 10 -1.83301 12 -5.5
s1.33301 -7.83398 -2 -12.501z" />
    <glyph glyph-name="section" unicode="&#xa7;" horiz-adv-x="472" 
d="M421 206c-2 -4.66699 -6.66797 -14.3311 -14.001 -28.998c28.667 -47.333 33.334 -99 14.001 -155c-14.667 -43.333 -41.667 -76.666 -81 -99.999c-31.333 -18.667 -66 -28 -104 -28c-17.333 0 -35 2.33301 -53 7c-18.667 4.66699 -37.5 13.167 -56.5 25.5
s-37 30.333 -54 54s-27.833 50.167 -32.5 79.5c-0.666992 6.66699 1.16602 12.667 5.49902 18s10.166 8 17.499 8l84 2c12 0.666992 19.333 -4.33301 22 -15c3.33301 -10 9 -19 17 -27s14.167 -13.167 18.5 -15.5s7.83301 -3.83301 10.5 -4.5
c22.667 -5.33301 42.334 -3 59.001 7c12 6.66699 20 16.667 24 30c2.66699 9.33301 4.33398 18.166 5.00098 26.499s-3 17.333 -11 27s-20.333 18.5 -37 26.5s-44.667 19 -84 33l-14 5c-50 26.667 -84.5 60.834 -103.5 102.501s-20.5 86.5 -4.5 134.5c2 6 7 16.333 15 31
c-28.667 46.667 -33.667 97.667 -15 153c16 48 46.667 83.5 92 106.5s94 28.167 146 15.5c30 -8 59.667 -26.167 89 -54.5s47.333 -63.5 54 -105.5c0.666992 -6.66699 -1.16602 -12.667 -5.49902 -18s-10.166 -8 -17.499 -8l-84 -2c-12 -0.666992 -19.333 4.33301 -22 15
c-1.33301 4.66699 -3.33301 9.16699 -6 13.5s-5.33398 8 -8.00098 11s-5.5 5.83301 -8.5 8.5s-5.83301 4.83398 -8.5 6.50098l-7.5 4.5c-2.33301 1.33301 -4 2.16602 -5 2.49902s-1.83301 0.5 -2.5 0.5c-8 2.66699 -16.333 3.66699 -25 3s-16.834 -2.33398 -24.501 -5.00098
s-14.5 -7 -20.5 -13s-10.667 -13.333 -14 -22c-2 -6 -3.16699 -11.167 -3.5 -15.5s0 -10.333 1 -18s5.33301 -15.334 13 -23.001s18.5 -15.167 32.5 -22.5c42 -14.667 74 -27.334 96 -38.001c50.667 -23.333 86 -56.333 106 -99s21.667 -89 5 -139zM301.999 263.003
c4 26.667 -11.668 47.998 -47.001 63.998c-17.333 8 -45.333 19 -84 33l-4 1c-3.33301 -23.333 12.334 -44.666 47.001 -63.999c38.667 -13.333 68 -24.666 88 -33.999z" />
    <glyph glyph-name="dieresis" unicode="&#xa8;" horiz-adv-x="428" 
d="M101.5 722c15.667 0 29 -5.5 40 -16.5s16.5 -24.333 16.5 -40s-5.5 -29 -16.5 -40s-24.333 -16.5 -40 -16.5s-29 5.5 -40 16.5s-16.5 24.333 -16.5 40s5.5 29 16.5 40s24.333 16.5 40 16.5zM324.5 722c15.667 0 29 -5.5 40 -16.5s16.5 -24.333 16.5 -40
s-5.5 -29 -16.5 -40s-24.333 -16.5 -40 -16.5s-29 5.5 -40 16.5s-16.5 24.333 -16.5 40s5.5 29 16.5 40s24.333 16.5 40 16.5z" />
    <glyph glyph-name="copyright" unicode="&#xa9;" horiz-adv-x="792" 
d="M393 539c51.333 0 94.6699 -18.6689 130.003 -56.002c4.66699 -4.66699 6.66699 -10 6 -16s-3.66699 -11 -9 -15l-30 -22c-9.33301 -6.66699 -18 -5.66699 -26 3c-20 18.667 -43.667 28 -71 28c-30.667 0 -56 -11.667 -76 -35s-28 -50.666 -24 -81.999
c4 -24 15.667 -44.333 35 -61s41.666 -24.667 66.999 -24c18 0 34.333 4.33301 49 13c10 6 19 4.66699 27 -4l24 -28c4 -4.66699 5.5 -10.167 4.5 -16.5s-4.16699 -11.166 -9.5 -14.499c-24.667 -16 -51.667 -25.333 -81 -28s-58.333 2 -87 14
c-21.333 9.33301 -40.166 22.333 -56.499 39s-28.833 35.667 -37.5 57s-13.334 43.333 -14.001 66c-0.666992 50 16.666 92.833 51.999 128.5s77.666 53.5 126.999 53.5zM395.004 704.998c46.667 0 91.332 -9.16699 133.999 -27.5s79.334 -43 110.001 -74
s55.167 -67.667 73.5 -110s27.5 -86.833 27.5 -133.5c0 -62.667 -15.333 -120.5 -46 -173.5s-72.5 -94.833 -125.5 -125.5s-110.833 -46 -173.5 -46s-120.5 15.333 -173.5 46s-94.833 72.5 -125.5 125.5s-46 110.667 -46 173s15.333 120 46 173s72.5 95 125.5 126
s110.833 46.5 173.5 46.5zM395.002 92.998c73.333 0 136.166 26 188.499 78s78.5 114.833 78.5 188.5s-26.167 136.5 -78.5 188.5s-115.166 78 -188.499 78s-136.166 -26 -188.499 -78s-78.5 -114.833 -78.5 -188.5s26.167 -136.5 78.5 -188.5s115.166 -78 188.499 -78z" />
    <glyph glyph-name="guillemotleft" unicode="&#xab;" 
d="M458 345l79 -81c4 -4 6 -8.83301 6 -14.5s-2 -10.167 -6 -13.5l-63 -62c-4 -4 -8.83301 -6 -14.5 -6s-10.5 2 -14.5 6l-168 171c-4 4 -6 8.83301 -6 14.5s2 10.5 6 14.5l168 171c4 4 8.83301 6 14.5 6s10.5 -1.66699 14.5 -5l63 -62c4 -4 6 -8.83301 6 -14.5
s-2 -10.5 -6 -14.5l-79 -81c-4 -4 -6 -8.83301 -6 -14.5s2 -10.5 6 -14.5zM223 345l79 -81c4 -4 6 -8.83301 6 -14.5s-2 -10.5 -6 -14.5l-64 -61c-4 -4 -8.66699 -6 -14 -6s-10 2 -14 6l-168 171c-4 4 -6 8.83301 -6 14.5s2 10.5 6 14.5l168 171c4 4 8.66699 6 14 6
s10 -1.66699 14 -5l64 -62c4 -4 6 -8.83301 6 -14.5s-2 -10.5 -6 -14.5l-79 -81c-4 -4 -6 -8.83301 -6 -14.5s2 -10.5 6 -14.5z" />
    <glyph glyph-name="softhyphen" unicode="&#xad;" horiz-adv-x="0" 
 />
    <glyph glyph-name="registered" unicode="&#xae;" horiz-adv-x="792" 
d="M514 441c3.33301 -22 0.166992 -42.5 -9.5 -61.5s-23.5 -33.833 -41.5 -44.5l73 -127h-90l-65 113h-13v-92c0 -6 -2 -11 -6 -15s-8.66699 -6 -14 -6h-37c-6 0 -11 2 -15 6s-6 9 -6 15v281c0 6 2 11 6 15s9 6 15 6h95c26.667 0 50.5 -8.5 71.5 -25.5
s33.167 -38.5 36.5 -64.5zM410.001 399c7.33301 0 13.665 2.50195 18.998 7.50195s8 11.5 8 19.5c0 3.33301 -0.666992 6.66602 -2 9.99902s-3.16602 6.16602 -5.49902 8.49902s-5.16602 4.33301 -8.49902 6s-7 2.5 -11 2.5h-42v-54h42zM395 705.002
c62.667 0 120.5 -15.5 173.5 -46.5s94.833 -73 125.5 -126s46 -110.667 46 -173s-15.333 -120 -46 -173s-72.5 -94.833 -125.5 -125.5s-110.833 -46 -173.5 -46s-120.5 15.333 -173.5 46s-94.833 72.5 -125.5 125.5s-46 110.667 -46 173s15.333 120 46 173
s72.5 95 125.5 126s110.833 46.5 173.5 46.5zM568 158.002c19.333 16.667 35.999 35.333 49.999 56s24.833 43.5 32.5 68.5s11.5 50.833 11.5 77.5c0 48 -12 92.5 -36 133.5s-56.5 73.333 -97.5 97s-85.5 35.5 -133.5 35.5c-73.333 0 -136.166 -26 -188.499 -78
s-78.5 -114.833 -78.5 -188.5s26.167 -136.5 78.5 -188.5s115.166 -78 188.499 -78c20.667 0 43.334 3.33301 68.001 10c39.333 10 74.333 28.333 105 55z" />
    <glyph glyph-name="degree" unicode="&#xb0;" horiz-adv-x="260" 
d="M129 691c22 0 40.667 -7.66699 56 -23s23 -34 23 -56s-7.66699 -40.667 -23 -56s-34 -23 -56 -23s-40.667 7.66699 -56 23s-23 34 -23 56s7.66699 40.667 23 56s34 23 56 23zM129 584c8 0 14.667 2.66602 20 7.99902s8 11.833 8 19.5s-2.66699 14.334 -8 20.001
s-12 8.5 -20 8.5s-14.667 -2.66699 -20 -8s-8 -12 -8 -20s2.66699 -14.667 8 -20s12 -8 20 -8z" />
    <glyph glyph-name="plusminus" unicode="&#xb1;" horiz-adv-x="488" 
d="M416 119c6 0 11 -2 15 -6s6 -9 6 -15v-88c0 -6 -2 -11 -6 -15s-9 -6 -15 -6h-346c-5.33301 0 -10 2 -14 6s-6 9 -6 15v88c0 6 2 11 6 15s8.66699 6 14 6h346zM416 424c6 0 11 -2 15 -6s6 -8.66699 6 -14v-88c0 -6 -2 -11 -6 -15s-9 -6 -15 -6h-88
c-5.33301 0 -10 -2 -14 -6s-6 -8.66699 -6 -14v-88c0 -6 -2 -10.833 -6 -14.5s-8.66699 -5.5 -14 -5.5h-89c-5.33301 0 -10 1.83301 -14 5.5s-6 8.5 -6 14.5v88c0 5.33301 -2 10 -6 14s-9 6 -15 6h-88c-5.33301 0 -10 2 -14 6s-6 9 -6 15v88c0 5.33301 2 10 6 14
s8.66699 6 14 6h88c6 0 11 2 15 6s6 9 6 15v88c0 5.33301 2 10 6 14s8.66699 6 14 6h89c5.33301 0 10 -2 14 -6s6 -8.66699 6 -14v-88c0 -6 2 -11 6 -15s8.66699 -6 14 -6h88z" />
    <glyph glyph-name="acute" unicode="&#xb4;" horiz-adv-x="190" 
d="M132 691c5.33301 -2.66699 8.83594 -6.49805 10.5029 -11.498s1.16699 -9.83301 -1.5 -14.5l-53 -100c-2.66699 -5.33301 -6.83398 -9 -12.501 -11s-10.834 -1.66699 -15.501 1l-3 1c-4.66699 2 -8.33398 5.66699 -11.001 11s-3 10.666 -1 15.999l37 107
c1.33301 5.33301 4.5 9.16602 9.5 11.499s10.167 2.5 15.5 0.5z" />
    <glyph glyph-name="paragraph" unicode="&#xb6;" horiz-adv-x="609" 
d="M539 730c6 0 11.167 -2.16895 15.5 -6.50195s6.5 -9.16602 6.5 -14.499v-87c0 -5.33301 -2.16699 -10.166 -6.5 -14.499s-9.5 -6.5 -15.5 -6.5s-11.167 -2.16699 -15.5 -6.5s-6.5 -9.5 -6.5 -15.5v-640c0 -6 -2 -11 -6 -15s-9 -6 -15 -6h-86c-6 0 -11.167 2 -15.5 6
s-6.5 9 -6.5 15v640c0 6 -2 11.167 -6 15.5s-9 6.5 -15 6.5h-11c-6 0 -11 -2.16699 -15 -6.5s-6 -9.5 -6 -15.5v-640c0 -6 -2.16699 -11 -6.5 -15s-9.5 -6 -15.5 -6h-86c-6 0 -11 2 -15 6s-6 9 -6 15v443c-44.667 4 -82.167 22.5 -112.5 55.5s-45.5 72.167 -45.5 117.5
c0 48 17 89 51 123s75.333 51 124 51v1h316z" />
    <glyph glyph-name="cedilla" unicode="&#xb8;" horiz-adv-x="265" 
d="M155 -27c18.667 -6.66699 33.502 -16.998 44.502 -30.998s16.5 -29.667 16.5 -47c0 -23.333 -10 -43.333 -30 -60s-44 -25 -72 -25c-20 0 -38.333 4.33301 -55 13c-6 3.33301 -9.5 8.66602 -10.5 15.999s0.833008 13.333 5.5 18l6 6c7.33301 7.33301 15.333 9 24 5
c8.66699 -4.66699 18.667 -7 30 -7c14 0 26 3.33301 36 10s15 14.667 15 24c0 6 -2.33301 11.667 -7 17s-10.834 9.66602 -18.501 12.999s-16.167 5 -25.5 5h-26v33l4 7l37 57c3.33301 5.33301 7.83301 8.5 13.5 9.5s11.167 0.166992 16.5 -2.5l6 -4
c5.33301 -3.33301 8.66602 -8 9.99902 -14s0.333008 -11.333 -3 -16z" />
    <glyph glyph-name="guillemotright" unicode="&#xbb;" 
d="M302 374c4 -4 6 -8.83301 6 -14.5s-2 -10.5 -6 -14.5l-168 -171c-4 -4 -8.83301 -6 -14.5 -6s-10.5 2 -14.5 6l-63 62c-4 3.33301 -6 7.83301 -6 13.5s2 10.5 6 14.5l79 81c4 4 6 8.83301 6 14.5s-2 10.5 -6 14.5l-79 81c-4 4 -6 8.83301 -6 14.5s2 10.5 6 14.5l63 62
c4 3.33301 8.83301 5 14.5 5s10.5 -2 14.5 -6zM537 374c4 -4 6 -8.83301 6 -14.5s-2 -10.5 -6 -14.5l-167 -171c-4 -4 -8.83301 -6 -14.5 -6s-10.5 2 -14.5 6l-63 62c-4 3.33301 -6 7.83301 -6 13.5s1.66699 10.5 5 14.5l80 81c3.33301 4 5 8.83301 5 14.5
s-1.66699 10.5 -5 14.5l-80 81c-3.33301 4 -5 8.83301 -5 14.5s2 10.5 6 14.5l63 62c4 3.33301 8.83301 5 14.5 5s10.5 -2 14.5 -6z" />
    <glyph glyph-name="questiondown" unicode="&#xbf;" horiz-adv-x="504" 
d="M253 287c-20 0 -37.167 7.16602 -51.5 21.499s-21.5 31.5 -21.5 51.5s7.16699 37 21.5 51s31.5 21 51.5 21c13.333 0 25.5 -3.16699 36.5 -9.5s19.667 -15.166 26 -26.499s9.5 -23.333 9.5 -36c0 -20 -7 -37.167 -21 -51.5s-31 -21.5 -51 -21.5zM442 -129.001
c7.33301 -0.666992 13.165 -4 17.498 -10s5.5 -12.333 3.5 -19c-12.667 -56.667 -43.667 -100.667 -93 -132c-35.333 -22.667 -74.333 -34 -117 -34c-24 0 -47.667 3.66699 -71 11c-49.333 16.667 -87.5 48.834 -114.5 96.501s-35.5 97.834 -25.5 150.501
c9.33301 48 32.333 87.333 69 118c24.667 20 43.667 45.167 57 75.5s20 63.166 20 98.499v8c0 6.66699 2.33301 12.334 7 17.001s10.334 7 17.001 7h81c6.66699 0 12.334 -2.33301 17.001 -7s7 -10.334 7 -17.001v-8c0 -54.667 -10.833 -105.834 -32.5 -153.501
s-52.167 -87.834 -91.5 -120.501c-12.667 -10.667 -20.667 -25 -24 -43c-4 -20.667 -0.666992 -40.834 10 -60.501s25.667 -32.5 45 -38.5c27.333 -9.33301 52.666 -6.66602 75.999 8.00098c16.667 11.333 28.334 26.333 35.001 45c4 12.667 12.333 18.334 25 17.001z" />
    <glyph glyph-name="Agrave" unicode="&#xc0;" horiz-adv-x="712" 
d="M672 26c2.66699 -5.33301 2.83301 -9.66602 0.5 -12.999s-6.5 -5 -12.5 -5h-101c-6 0 -11.833 1.66699 -17.5 5s-9.5 7.66602 -11.5 12.999l-28 60c-2.66699 5.33301 -6.83398 9.83301 -12.501 13.5s-11.167 5.5 -16.5 5.5h-239c-5.33301 0 -10.833 -1.83301 -16.5 -5.5
s-9.5 -8.16699 -11.5 -13.5l-26 -60c-2 -3.33301 -4.5 -6.33301 -7.5 -9s-6.5 -5 -10.5 -7s-7.66699 -3 -11 -3h-100c-6 0 -10.167 1.83301 -12.5 5.5s-2.16602 8.16699 0.500977 13.5l299 685c2 4.66699 4.66699 7 8 7s6.33301 -2.33301 9 -7zM412.999 234
c5.33301 0 9.16699 1.83301 11.5 5.5s2.5 7.83398 0.5 12.501l-67 144c-2 5.33301 -4.66699 8 -8 8s-6.33301 -2.66699 -9 -8l-62 -143c-2 -4 -2.66699 -7.33301 -2 -10s2.16699 -4.83398 4.5 -6.50098s5.5 -2.5 9.5 -2.5h122zM303 775l-42.9961 80.998
c-2.66699 4.66699 -2.83398 8.83398 -0.500977 12.501s6.16602 5.5 11.499 5.5h31c5.33301 0 10.666 -1.83301 15.999 -5.5s9 -8.16699 11 -13.5l27 -79c1.33301 -5.33301 0.666016 -9.83301 -2.00098 -13.5s-6.66699 -5.5 -12 -5.5h-9c-5.33301 0 -11 1.83301 -17 5.5
s-10.333 7.83398 -13 12.501z" />
    <glyph glyph-name="Aacute" unicode="&#xc1;" horiz-adv-x="707" 
d="M370 711l299 -684.998c2.66699 -5.33301 2.66699 -9.83301 0 -13.5s-6.66699 -5.5 -12 -5.5h-100c-6 0 -11.667 1.83301 -17 5.5s-9.33301 8.16699 -12 13.5l-26 60c-2 5.33301 -5.83301 9.83301 -11.5 13.5s-11.167 5.5 -16.5 5.5h-239
c-5.33301 0 -10.833 -1.83301 -16.5 -5.5s-9.83398 -8.16699 -12.501 -13.5l-28 -60c-1.33301 -2.66699 -3 -5.16699 -5 -7.5s-4.33301 -4.33301 -7 -6s-5.5 -2.83398 -8.5 -3.50098s-5.83301 -1 -8.5 -1h-101c-6 0 -10.167 1.66699 -12.5 5
s-2.16602 7.66602 0.500977 12.999l317 685c2.66699 4.66699 5.66699 7 9 7s6 -2.33301 8 -7zM417 234.002c6 0 10.1689 1.83398 12.502 5.50098s2.16602 8.16699 -0.500977 13.5l-62 143c-2.66699 5.33301 -5.66699 8 -9 8s-6 -2.66699 -8 -8l-67 -144
c-2 -4.66699 -1.83301 -8.83398 0.5 -12.501s6.16602 -5.5 11.499 -5.5h122zM374.002 757.003l-8.99902 0.00195312h-20c2 6 4 12.333 6 19l27 79c2 5.33301 5.66699 9.83301 11 13.5s10.666 5.5 15.999 5.5h31c5.33301 0 9 -1.83301 11 -5.5s1.66699 -7.83398 -1 -12.501
l-42 -81c-2.66699 -4.66699 -7 -8.83398 -13 -12.501s-11.667 -5.5 -17 -5.5z" />
    <glyph glyph-name="Acircumflex" unicode="&#xc2;" horiz-adv-x="706" 
d="M259 783c-6 0 -9.83105 1.66699 -11.498 5s-0.833984 7.33301 2.49902 12l88 122c3.33301 4.66699 7.33301 7 12 7s8.66699 -2.33301 12 -7l87 -122c3.33301 -4.66699 4.16602 -8.66699 2.49902 -12s-5.16699 -5 -10.5 -5h-22c-14 0 -25 5.66699 -33 17l-24 35
c-3.33301 4 -7.33301 6 -12 6s-8.66699 -2 -12 -6l-25 -35c-8 -11.333 -18.667 -17 -32 -17h-22zM358.002 711l310.999 -684.998c2.66699 -4.66699 2.83398 -8.83398 0.500977 -12.501s-6.5 -5.5 -12.5 -5.5h-101c-5.33301 0 -10.833 1.83301 -16.5 5.5
s-9.83398 7.83398 -12.501 12.501l-27 60c-2 5.33301 -5.83301 9.83301 -11.5 13.5s-11.5 5.5 -17.5 5.5h-238c-6 0 -11.833 -1.83301 -17.5 -5.5s-9.5 -8.16699 -11.5 -13.5l-27 -60c-1.33301 -3.33301 -3.5 -6.33301 -6.5 -9s-6.5 -4.83398 -10.5 -6.50098
s-8 -2.5 -12 -2.5h-100c-6 0 -10.167 1.66699 -12.5 5s-2.16602 7.66602 0.500977 12.999l306 685c2 4.66699 4.66699 7 8 7s6 -2.33301 8 -7zM413.001 234.002c5.33301 0 9.16797 1.83301 11.501 5.5s2.5 8.16699 0.5 13.5l-66 143c-2 5.33301 -4.66699 8 -8 8
s-6.33301 -2.66699 -9 -8l-64 -143c-2 -5.33301 -1.83301 -9.83301 0.5 -13.5s6.16602 -5.5 11.499 -5.5h123z" />
    <glyph glyph-name="Atilde" unicode="&#xc3;" horiz-adv-x="707" 
d="M358 711l310.999 -685c2.66699 -4.66699 2.83398 -8.83398 0.500977 -12.501s-6.5 -5.5 -12.5 -5.5h-101c-5.33301 0 -10.833 1.83301 -16.5 5.5s-9.83398 7.83398 -12.501 12.501l-27 60c-1.33301 2.66699 -3 5.16699 -5 7.5s-4.33301 4.33301 -7 6s-5.5 3 -8.5 4
s-5.83301 1.5 -8.5 1.5h-238c-6 0 -11.833 -1.83301 -17.5 -5.5s-9.5 -8.16699 -11.5 -13.5l-27 -60c-2 -5.33301 -5.83301 -9.66602 -11.5 -12.999s-11.5 -5 -17.5 -5h-100c-6 0 -10.167 1.66699 -12.5 5s-2.16602 7.66602 0.500977 12.999l306 685
c2 4.66699 4.66699 7 8 7s6 -2.33301 8 -7zM412.999 234c5.33301 0 9.16895 1.83301 11.502 5.5s2.16602 8.16699 -0.500977 13.5l-65 143c-2 5.33301 -4.66699 8 -8 8s-6 -2.66699 -8 -8l-65 -143c-2 -5.33301 -1.83301 -9.83301 0.5 -13.5s6.16602 -5.5 11.499 -5.5h123z
M226.002 812l-21.9971 16c-4 3.33301 -6 7.5 -6 12.5s2 9.16699 6 12.5c42.667 33.333 73.334 50 92.001 50c7.33301 0 15.666 -1.33301 24.999 -4s16.666 -5.66699 21.999 -9l9 -4c12 -6.66699 19 -11 21 -13c2.66699 -2 10.667 -3.33301 24 -4l47 6
c4 3.33301 9 5.16602 15 5.49902s11 -1.5 15 -5.5l22 -17c4 -3.33301 6 -7.5 6 -12.5s-2.33301 -9.16699 -7 -12.5c-40 -29.333 -68.667 -44 -86 -44c-26 0 -50.667 9 -74 27l-3 2c-4.66699 4 -12.667 9.33301 -24 16c-1.33301 0.666992 -5.33301 1 -12 1
s-13.334 -1.66699 -20.001 -5s-11.667 -6.66602 -15 -9.99902l-5 -5c-4 -4.66699 -8.83301 -7.16699 -14.5 -7.5s-10.834 1.16699 -15.501 4.5z" />
    <glyph glyph-name="Adieresis" unicode="&#xc4;" horiz-adv-x="706" 
d="M443.5 788c-15.667 0 -29 5.5 -40 16.5s-16.5 24.333 -16.5 40s5.5 29 16.5 40s24.333 16.5 40 16.5s29 -5.5 40 -16.5s16.5 -24.333 16.5 -40s-5.5 -29 -16.5 -40s-24.333 -16.5 -40 -16.5zM257.5 788c-15.667 0 -29 5.5 -40 16.5s-16.5 24.333 -16.5 40s5.5 29 16.5 40
s24.333 16.5 40 16.5s29 -5.5 40 -16.5s16.5 -24.333 16.5 -40s-5.5 -29 -16.5 -40s-24.333 -16.5 -40 -16.5zM358 711l310.999 -685c1.33301 -3.33301 1.83301 -6.33301 1.5 -9s-1.66602 -4.83398 -3.99902 -6.50098s-5.5 -2.5 -9.5 -2.5h-101
c-5.33301 0 -10.833 1.83301 -16.5 5.5s-9.83398 7.83398 -12.501 12.501l-27 60c-2 5.33301 -5.83301 9.83301 -11.5 13.5s-11.5 5.5 -17.5 5.5h-238c-4 0 -8 -0.833008 -12 -2.5s-7.5 -4 -10.5 -7s-5.16699 -6.16699 -6.5 -9.5l-27 -60
c-2 -5.33301 -5.83301 -9.66602 -11.5 -12.999s-11.5 -5 -17.5 -5h-100c-6 0 -10.167 1.66699 -12.5 5s-2.16602 7.66602 0.500977 12.999l306 685c2 4.66699 4.66699 7 8 7s6 -2.33301 8 -7zM412.999 234c5.33301 0 9.16797 1.83301 11.501 5.5s2.5 8.16699 0.5 13.5
l-66 143c-2 5.33301 -4.66699 8 -8 8s-6 -2.66699 -8 -8l-65 -143c-2 -5.33301 -1.83301 -9.83301 0.5 -13.5s6.16602 -5.5 11.499 -5.5h123z" />
    <glyph glyph-name="Aring" unicode="&#xc5;" horiz-adv-x="704" 
d="M418 627l250.999 -601c1.33301 -3.33301 1.66602 -6.33301 0.999023 -9s-2.16699 -5 -4.5 -7s-5.5 -3 -9.5 -3h-99c-3.33301 0 -7 0.833008 -11 2.5s-7.5 4 -10.5 7s-5.16699 6.16699 -6.5 9.5l-25 60c-2 5.33301 -5.83301 9.83301 -11.5 13.5s-11.167 5.5 -16.5 5.5
h-249c-6 0 -11.667 -1.83301 -17 -5.5s-9 -8.16699 -11 -13.5l-25 -60c-2 -4.66699 -5.83301 -9 -11.5 -13s-11.167 -6 -16.5 -6h-99c-5.33301 0 -9.33301 2 -12 6s-3 8.33301 -1 13l248 601c5.33301 12.667 4 24.334 -4 35.001c-12 15.333 -18 31.666 -18 48.999
c0 25.333 8.83301 46.666 26.5 63.999s38.834 26 63.501 26s45.834 -8.66699 63.501 -26s26.5 -38.666 26.5 -63.999c0 -4.66699 -0.666992 -9.66699 -2 -15s-2.83301 -9.83301 -4.5 -13.5l-5 -10.5c-1.66699 -3.33301 -3.16699 -6 -4.5 -8l-2 -2
c-8 -11.333 -9.33301 -23 -4 -35zM349.999 751c-10.667 0 -19.833 -3.83398 -27.5 -11.501s-11.5 -17 -11.5 -28s3.83301 -20.167 11.5 -27.5s16.834 -11 27.501 -11c6.66699 0 13 1.66699 19 5s10.833 8 14.5 14s5.5 12.667 5.5 20c0 10.667 -3.83301 19.834 -11.5 27.501
s-16.834 11.5 -27.501 11.5zM422 233.999c5.33301 0 9.16699 1.83301 11.5 5.5s2.5 8.16699 0.5 13.5l-76 182c-2 4.66699 -4.5 7 -7.5 7s-5.83301 -2.66699 -8.5 -8l-75 -181c-2 -5.33301 -1.66699 -9.83301 1 -13.5s6.66699 -5.5 12 -5.5h142z" />
    <glyph glyph-name="AE" unicode="&#xc6;" horiz-adv-x="854" 
d="M556 601c-6 0 -11 -2 -15 -6s-6 -8.66699 -6 -14v-182c0 -6 2 -11 6 -15s9 -6 15 -6h118c5.33301 0 10 -2 14 -6s6 -8.66699 6 -14v-89c0 -5.33301 -2 -10 -6 -14s-8.66699 -6 -14 -6h-118c-6 0 -11 -2 -15 -6s-6 -8.66699 -6 -14v-90c0 -6 2 -11 6 -15s9 -6 15 -6h234
c6 0 11 -2 15 -6s6 -8.66699 6 -14v-70c0 -5.33301 -2 -10 -6 -14s-9 -6 -15 -6h-15h-349c-5.33301 0 -10 2 -14 6s-6 8.66699 -6 14v106c0 6 -2 11 -6 15s-8.66699 6 -14 6h-130c-6 0 -11.667 -1.83301 -17 -5.5s-9 -8.16699 -11 -13.5l-44 -110
c-1.33301 -3.33301 -3.5 -6.33301 -6.5 -9s-6.5 -4.83398 -10.5 -6.50098s-7.66699 -2.5 -11 -2.5h-99c-5.33301 0 -9.33301 1.83301 -12 5.5s-3 7.83398 -1 12.501l276 685c1.33301 3.33301 3.5 6.5 6.5 9.5s6.33301 5.33301 10 7s7.5 2.5 11.5 2.5h38h219h185
c6 0 11 -2 15 -6s6 -8.66699 6 -14v-89c0 -5.33301 -2 -10 -6 -14s-9 -6 -15 -6h-144h-90zM406 304v255.001c0 5.33301 -0.666992 8.16602 -2 8.49902s-3.33301 -2.16699 -6 -7.5l-103 -257c-2 -5.33301 -1.83301 -9.83301 0.5 -13.5s6.5 -5.5 12.5 -5.5h78
c5.33301 0 10 2 14 6s6 8.66699 6 14z" />
    <glyph glyph-name="Ccedilla" unicode="&#xc7;" horiz-adv-x="704" 
d="M387 600c-58.667 -6 -108.83 -30.999 -150.497 -74.999s-63.834 -96 -66.501 -156c-2.66699 -68 19.833 -126.833 67.5 -176.5s105.5 -74.5 173.5 -74.5c50 0 95.333 14 136 42c4.66699 3.33301 9.83398 4.5 15.501 3.5s10.167 -3.5 13.5 -7.5l54 -67
c4 -5.33301 5.5 -11 4.5 -17s-3.83301 -11 -8.5 -15c-64.667 -45.333 -136.334 -68 -215.001 -68h-1h-2l-10 -15c18.667 -6.66699 33.5 -17.167 44.5 -31.5s16.5 -30.166 16.5 -47.499c0 -23.333 -10 -43.333 -30 -60s-44 -25 -72 -25c-20 0 -38.333 4.33301 -55 13
c-6 3.33301 -9.5 8.5 -10.5 15.5s0.833008 13.167 5.5 18.5l6 6c7.33301 7.33301 15.333 9 24 5c9.33301 -4.66699 19.333 -7 30 -7c14 0 26 3.33301 36 10s15 14.667 15 24s-5 17.5 -15 24.5s-22 10.5 -36 10.5h-25v33l4 7l15 24c-90.667 15.333 -165.834 59 -225.501 131
s-87.834 155 -84.501 249c3.33301 92.667 37.666 173.167 102.999 241.5s144 106.166 236 113.499c34 2.66699 67.167 1 99.5 -5s63.333 -16.167 93 -30.5s56.834 -32.5 81.501 -54.5c4.66699 -4 7.16699 -9.16699 7.5 -15.5s-1.5 -11.5 -5.5 -15.5l-61 -62
c-4 -4 -8.66699 -6.16699 -14 -6.5s-10.333 1.5 -15 5.5c-51.333 43.333 -111 61.666 -179 54.999z" />
    <glyph glyph-name="Egrave" unicode="&#xc8;" horiz-adv-x="494" 
d="M270 775l-41.999 80.998c-2.66699 4.66699 -3 8.83398 -1 12.501s5.66699 5.5 11 5.5h31c5.33301 0 10.666 -1.83301 15.999 -5.5s9 -8.16699 11 -13.5l26 -79l7 -19h-29c-5.33301 0 -11 1.83301 -17 5.5s-10.333 7.83398 -13 12.501zM194.001 586.998
c-6 0 -11.001 -1.99805 -15.001 -5.99805s-6 -8.66699 -6 -14v-169c0 -6 2 -11 6 -15s9 -6 15 -6h118c5.33301 0 10 -2 14 -6s6 -8.66699 6 -14v-81c0 -6 -2 -11 -6 -15s-8.66699 -6 -14 -6h-118c-3.33301 0 -6.16602 -0.5 -8.49902 -1.5s-4.5 -2.33301 -6.5 -4
s-3.5 -3.83398 -4.5 -6.50098s-1.5 -5.33398 -1.5 -8.00098v-83c0 -5.33301 2 -10 6 -14s9 -6 15 -6h234c6 0 10.833 -2 14.5 -6s5.5 -8.66699 5.5 -14v-82c0 -5.33301 -1.83301 -10 -5.5 -14s-8.5 -6 -14.5 -6h-364c-5.33301 0 -10 2 -14 6s-6 8.66699 -6 14v659
c0 5.33301 2 10 6 14s8.66699 6 14 6h364c6 0 10.833 -2 14.5 -6s5.5 -8.66699 5.5 -14v-81c0 -6 -1.83301 -11 -5.5 -15s-8.5 -6 -14.5 -6h-234z" />
    <glyph glyph-name="Eacute" unicode="&#xc9;" horiz-adv-x="494" 
d="M257 757l-7.99707 0.00195312h-21c2 6 4.33301 12.333 7 19l26 79c2 5.33301 5.66699 9.83301 11 13.5s10.666 5.5 15.999 5.5h31c5.33301 0 9.16602 -1.83301 11.499 -5.5s2.16602 -7.83398 -0.500977 -12.501l-43 -81c-2.66699 -4.66699 -7 -8.83398 -13 -12.501
s-11.667 -5.5 -17 -5.5zM194.003 587.002c-6 0 -11 -2 -15 -6s-6 -8.66699 -6 -14v-169c0 -6 2 -11 6 -15s9 -6 15 -6h118c5.33301 0 10 -2 14 -6s6 -8.66699 6 -14v-81c0 -6 -2 -11 -6 -15s-8.66699 -6 -14 -6h-118c-6 0 -11 -2 -15 -6s-6 -8.66699 -6 -14v-83
c0 -5.33301 2 -10 6 -14s9 -6 15 -6h234c6 0 10.833 -2 14.5 -6s5.5 -8.66699 5.5 -14v-82c0 -5.33301 -1.83301 -10 -5.5 -14s-8.5 -6 -14.5 -6h-364c-5.33301 0 -10 2 -14 6s-6 8.66699 -6 14v659c0 5.33301 2 10 6 14s8.66699 6 14 6h364c6 0 10.833 -2 14.5 -6
s5.5 -8.66699 5.5 -14v-81c0 -6 -1.83301 -11 -5.5 -15s-8.5 -6 -14.5 -6h-234z" />
    <glyph glyph-name="Ecircumflex" unicode="&#xca;" horiz-adv-x="494" 
d="M177 783c-5.33301 0 -8.83398 1.66699 -10.501 5s-0.833984 7.33301 2.49902 12l98 137c2.66699 4.66699 6.33398 7 11.001 7s8.66699 -2.33301 12 -7l98 -137c3.33301 -4.66699 4.16602 -8.66699 2.49902 -12s-5.16699 -5 -10.5 -5h-43c-13.333 0 -24 5.66699 -32 17
l-15 20c-3.33301 4.66699 -7.16602 7 -11.499 7s-8.16602 -2.33301 -11.499 -7l-15 -20c-8 -11.333 -18.667 -17 -32 -17h-43zM193.999 587c-6 0 -11.001 -1.99805 -15.001 -5.99805s-6 -8.66699 -6 -14v-169c0 -6 2 -11 6 -15s9 -6 15 -6h118c5.33301 0 10 -2 14 -6
s6 -8.66699 6 -14v-81c0 -6 -2 -11 -6 -15s-8.66699 -6 -14 -6h-118c-3.33301 0 -6.16602 -0.5 -8.49902 -1.5s-4.5 -2.33301 -6.5 -4s-3.5 -3.83398 -4.5 -6.50098s-1.5 -5.33398 -1.5 -8.00098v-83c0 -5.33301 2 -10 6 -14s9 -6 15 -6h234c6 0 10.833 -2 14.5 -6
s5.5 -8.66699 5.5 -14v-82c0 -5.33301 -1.83301 -10 -5.5 -14s-8.5 -6 -14.5 -6h-364c-5.33301 0 -10 2 -14 6s-6 8.66699 -6 14v659c0 5.33301 2 10 6 14s8.66699 6 14 6h364c6 0 10.833 -2 14.5 -6s5.5 -8.66699 5.5 -14v-81c0 -6 -1.83301 -11 -5.5 -15s-8.5 -6 -14.5 -6
h-234z" />
    <glyph glyph-name="Edieresis" unicode="&#xcb;" horiz-adv-x="494" 
d="M372 788c-8 0 -15.501 1.49902 -22.501 4.49902s-13 7 -18 12s-9 11 -12 18s-4.5 14.167 -4.5 21.5c0 10.667 2.5 20.334 7.5 29.001s11.833 15.5 20.5 20.5s18.334 7.5 29.001 7.5c15.333 0 28.5 -5.5 39.5 -16.5s16.5 -24.333 16.5 -40s-5.5 -29 -16.5 -40
s-24.167 -16.5 -39.5 -16.5zM193.999 586.999c-6 0 -11.001 -1.99805 -15.001 -5.99805s-6 -8.66699 -6 -14v-169c0 -6 2 -11 6 -15s9 -6 15 -6h118c5.33301 0 10 -2 14 -6s6 -8.66699 6 -14v-81c0 -6 -2 -11 -6 -15s-8.66699 -6 -14 -6h-118
c-3.33301 0 -6.16602 -0.5 -8.49902 -1.5s-4.5 -2.33301 -6.5 -4s-3.5 -3.83398 -4.5 -6.50098s-1.5 -5.33398 -1.5 -8.00098v-83c0 -5.33301 2 -10 6 -14s9 -6 15 -6h234c6 0 10.833 -2 14.5 -6s5.5 -8.66699 5.5 -14v-82c0 -5.33301 -1.83301 -10 -5.5 -14
s-8.5 -6 -14.5 -6h-364c-5.33301 0 -10 2 -14 6s-6 8.66699 -6 14v659c0 5.33301 2 10 6 14s8.66699 6 14 6h364c6 0 10.833 -2 14.5 -6s5.5 -8.66699 5.5 -14v-81c0 -6 -1.83301 -11 -5.5 -15s-8.5 -6 -14.5 -6h-234zM185.498 788.001c-15.667 0 -29 5.49902 -40 16.499
s-16.5 24.167 -16.5 39.5c0 10.667 2.5 20.334 7.5 29.001s11.833 15.5 20.5 20.5s18 7.5 28 7.5c16 0 29.5 -5.5 40.5 -16.5s16.5 -24.333 16.5 -40s-5.5 -29 -16.5 -40s-24.333 -16.5 -40 -16.5z" />
    <glyph glyph-name="Igrave" unicode="&#xcc;" horiz-adv-x="239" 
d="M110 775l-41.999 80.9961c-2.66699 4.66699 -3 8.83398 -1 12.501s5.66699 5.5 11 5.5h31c3.33301 0 7 -0.833008 11 -2.5s7.33301 -4 10 -7s4.66699 -6.16699 6 -9.5l26 -79c0.666992 -1.33301 1.5 -3.16602 2.5 -5.49902s1.66699 -4.16602 2 -5.49902l1 -4
c0.333008 -1.33301 0.666016 -2.33301 0.999023 -3l0.5 -1h-29c-5.33301 0 -11 1.83301 -17 5.5s-10.333 7.83398 -13 12.501zM163.001 709.996c5.33301 0 10 -2 14 -6s6 -8.66699 6 -14v-660c0 -6 -2 -11 -6 -15s-8.66699 -6 -14 -6h-89c-5.33301 0 -10 2 -14 6s-6 9 -6 15
v660c0 5.33301 2 10 6 14s8.66699 6 14 6h89z" />
    <glyph glyph-name="Iacute" unicode="&#xcd;" horiz-adv-x="239" 
d="M97 757l-7.99707 0.00195312h-21c2 6 4.33301 12.333 7 19l26 79c2 5.33301 5.66699 9.83301 11 13.5s10.666 5.5 15.999 5.5h31c5.33301 0 9.16602 -1.83301 11.499 -5.5s2.16602 -7.83398 -0.500977 -12.501l-43 -81c-2.66699 -4.66699 -7 -8.83398 -13 -12.501
s-11.667 -5.5 -17 -5.5zM163.003 710.002c5.33301 0 10 -2 14 -6s6 -8.66699 6 -14v-660c0 -6 -2 -11 -6 -15s-8.66699 -6 -14 -6h-89c-5.33301 0 -10 2 -14 6s-6 9 -6 15v660c0 5.33301 2 10 6 14s8.66699 6 14 6h89z" />
    <glyph glyph-name="Icircumflex" unicode="&#xce;" horiz-adv-x="306" 
d="M263 800c3.33301 -4.66699 4.16797 -8.66699 2.50098 -12s-5.5 -5 -11.5 -5h-43c-13.333 0 -24 5.66699 -32 17l-14 20c-3.33301 4.66699 -7.33301 7 -12 7s-8.66699 -2.33301 -12 -7l-14 -20c-8 -11.333 -19 -17 -33 -17h-42c-6 0 -9.83301 1.66699 -11.5 5
s-0.833984 7.33301 2.49902 12l98 137c3.33301 4.66699 7.33301 7 12 7s8.66699 -2.33301 12 -7zM197.002 710c6 0 11 -2 15 -6s6 -8.66699 6 -14v-660c0 -6 -2 -11 -6 -15s-9 -6 -15 -6h-88c-6 0 -11 2 -15 6s-6 9 -6 15v660c0 5.33301 2 10 6 14s9 6 15 6h88z" />
    <glyph glyph-name="Idieresis" unicode="&#xcf;" horiz-adv-x="390" 
d="M158 844.5c0 -15.667 -5.5 -29 -16.5 -40s-24.333 -16.5 -40 -16.5s-29 5.5 -40 16.5s-16.5 24.333 -16.5 40s5.5 29 16.5 40s24.333 16.5 40 16.5s29 -5.5 40 -16.5s16.5 -24.333 16.5 -40zM239 710c5.33301 0 10 -2.00195 14 -6.00195s6 -8.66699 6 -14v-660
c0 -6 -2 -11 -6 -15s-8.66699 -6 -14 -6h-89c-2.66699 0 -5.16699 0.666992 -7.5 2s-4.5 2.83301 -6.5 4.5s-3.5 3.83398 -4.5 6.50098s-1.5 5.33398 -1.5 8.00098v660c0 5.33301 2 10 6 14s8.66699 6 14 6h89zM287.5 900.998c15.667 0 29.001 -5.5 40.001 -16.5
s16.5 -24.333 16.5 -40s-5.5 -29 -16.5 -40s-24.167 -16.5 -39.5 -16.5c-10.667 0 -20.334 2.5 -29.001 7.5s-15.5 11.833 -20.5 20.5s-7.5 18 -7.5 28c0 16 5.5 29.5 16.5 40.5s24.333 16.5 40 16.5z" />
    <glyph glyph-name="Eth" unicode="&#xd0;" horiz-adv-x="657" 
d="M241 709c66.667 0 128.5 -15.501 185.5 -46.501s102 -73.5 135 -127.5s49.5 -112.5 49.5 -175.5s-16.5 -121.333 -49.5 -175s-78 -96.167 -135 -127.5s-118.833 -47 -185.5 -47h-142c-6.66699 0 -12.5 2.33301 -17.5 7s-7.5 10.667 -7.5 18v220h-14
c-4.66699 0 -8.5 1.66699 -11.5 5s-4.5 7 -4.5 11v90c0 4.66699 1.5 8.5 4.5 11.5s6.83301 4.5 11.5 4.5h14v308c0 6.66699 2.5 12.334 7.5 17.001s10.833 7 17.5 7h142zM241 131.999c66.667 0 123.501 22.1699 170.501 66.5029s70.5 98.166 70.5 161.499
c0 40.667 -10.833 78.5 -32.5 113.5s-51 62.667 -88 83s-77.167 30.5 -120.5 30.5h-13c-6.66699 0 -12.5 -2.33301 -17.5 -7s-7.5 -10.334 -7.5 -17.001v-161c0 -3.33301 0.666992 -6.5 2 -9.5s3.16602 -5.66699 5.49902 -8s5 -4.16602 8 -5.49902s6.16699 -2 9.5 -2h23
c6.66699 0 12.334 -2.33301 17.001 -7s7 -10.667 7 -18v-72c0 -6.66699 -2.33301 -12.5 -7 -17.5s-10.334 -7.5 -17.001 -7.5h-23c-6.66699 0 -12.5 -2.33301 -17.5 -7s-7.5 -10.334 -7.5 -17.001v-75c0 -6.66699 2.5 -12.334 7.5 -17.001s10.833 -7 17.5 -7h13z" />
    <glyph glyph-name="Ntilde" unicode="&#xd1;" horiz-adv-x="615" 
d="M180 814l-12.999 10.001c-6.66699 4.66699 -10.167 11 -10.5 19s2.16699 14.667 7.5 20c27.333 26.667 56.666 40 87.999 40c26 0 50.667 -9 74 -27l7 -6c21.333 -16.667 43.666 -15.667 66.999 3c11.333 9.33301 22.333 9.66602 33 0.999023l13 -11
c6.66699 -5.33301 10 -11.833 10 -19.5s-2.66699 -14.167 -8 -19.5c-26 -23.333 -53.667 -35 -83 -35c-26 0 -50.333 9 -73 27c-3.33301 2 -6.66602 4.66699 -9.99902 8c-9.33301 7.33301 -19.333 11 -30 11c-12.667 0 -25.667 -6.66699 -39 -20
c-10.667 -10 -21.667 -10.333 -33 -1zM549.001 710.001c7.33301 0 13.501 -2.5 18.501 -7.5s7.5 -10.833 7.5 -17.5v-662c0 -5.33301 -2.5 -9 -7.5 -11s-9.16699 -1 -12.5 3l-367 374c-4 3.33301 -8.5 4 -13.5 2s-7.5 -5.66699 -7.5 -11v-345
c0 -4.66699 -1.16699 -9 -3.5 -13s-5.33301 -7.16699 -9 -9.5s-7.83398 -3.5 -12.501 -3.5h-78c-7.33301 0 -13.5 2.5 -18.5 7.5s-7.5 11.167 -7.5 18.5v661c0 5.33301 2.5 9 7.5 11s9.16699 1 12.5 -3l367 -373c4 -4 8.5 -5 13.5 -3s7.5 5.66699 7.5 11v346
c0 6.66699 2.5 12.5 7.5 17.5s11.167 7.5 18.5 7.5h77z" />
    <glyph glyph-name="Ograve" unicode="&#xd2;" horiz-adv-x="818" 
d="M400 775l-42.998 80.9961c-2 4.66699 -2 8.83398 0 12.501s5.66699 5.5 11 5.5h31c5.33301 0 10.666 -1.83301 15.999 -5.5s9 -8.16699 11 -13.5l26 -79c0.666992 -1.33301 1.5 -3.16602 2.5 -5.49902s1.66699 -4.16602 2 -5.49902l1 -4
c0.333008 -1.33301 0.666016 -2.33301 0.999023 -3l0.5 -1h-29c-5.33301 0 -11 1.83301 -17 5.5s-10.333 7.83398 -13 12.501zM408.502 729.996c67 0 129 -16.5 186 -49.5s102 -78 135 -135s49.5 -119 49.5 -186s-16.5 -129 -49.5 -186s-78 -102 -135 -135
s-119 -49.5 -186 -49.5s-129 16.5 -186 49.5s-102 78 -135 135s-49.5 119 -49.5 186s16.5 129 49.5 186s78 102 135 135s119 49.5 186 49.5zM408.502 117.996c66.333 0 123.166 23.667 170.499 71s71 104.166 71 170.499s-23.667 123.166 -71 170.499
s-104.166 71 -170.499 71s-123.166 -23.667 -170.499 -71s-71 -104.166 -71 -170.499s23.667 -123.166 71 -170.499s104.166 -71 170.499 -71z" />
    <glyph glyph-name="Oacute" unicode="&#xd3;" horiz-adv-x="818" 
d="M408.5 730c67 0 129 -16.5 186 -49.5s102 -78 135 -135s49.5 -119 49.5 -186s-16.5 -129 -49.5 -186s-78 -102 -135 -135s-119 -49.5 -186 -49.5s-129 16.5 -186 49.5s-102 78 -135 135s-49.5 119 -49.5 186s16.5 129 49.5 186s78 102 135 135s119 49.5 186 49.5z
M408.5 118c66.333 0 123.168 23.6689 170.501 71.002s71 104.166 71 170.499s-23.667 123.166 -71 170.499s-104.333 71 -171 71c-43.333 0 -83.5 -10.833 -120.5 -32.5s-66.333 -51 -88 -88s-32.5 -77.167 -32.5 -120.5c0 -66.667 23.667 -123.667 71 -171
s104.166 -71 170.499 -71zM387.002 757.002l-7.99707 0.00195312h-21c2 6 4.33301 12.333 7 19l26 79c2 5.33301 5.66699 9.83301 11 13.5s10.666 5.5 15.999 5.5h31c5.33301 0 9.16602 -1.83301 11.499 -5.5s2.16602 -7.83398 -0.500977 -12.501l-43 -81
c-2.66699 -4.66699 -7 -8.83398 -13 -12.501s-11.667 -5.5 -17 -5.5z" />
    <glyph glyph-name="Ocircumflex" unicode="&#xd4;" horiz-adv-x="818" 
d="M408.5 730c67 0 129 -16.5 186 -49.5s102 -78 135 -135s49.5 -119 49.5 -186s-16.5 -129 -49.5 -186s-78 -102 -135 -135s-119 -49.5 -186 -49.5s-129 16.5 -186 49.5s-102 78 -135 135s-49.5 119 -49.5 186s16.5 129 49.5 186s78 102 135 135s119 49.5 186 49.5z
M408.5 118c66.333 0 123.168 23.6689 170.501 71.002s71 104.166 71 170.499s-23.667 123.166 -71 170.499s-104.333 71 -171 71c-43.333 0 -83.5 -10.833 -120.5 -32.5s-66.333 -51 -88 -88s-32.5 -77.167 -32.5 -120.5c0 -66.667 23.667 -123.667 71 -171
s104.166 -71 170.499 -71zM307.002 783.002c-5.33301 0 -8.83105 1.66699 -10.498 5s-0.833984 7.33301 2.49902 12l98 137c2.66699 4.66699 6.33398 7 11.001 7s8.66699 -2.33301 12 -7l98 -137c3.33301 -4.66699 4.16602 -8.66699 2.49902 -12s-5.16699 -5 -10.5 -5h-43
c-13.333 0 -24 5.66699 -32 17l-15 20c-3.33301 4.66699 -7.33301 7 -12 7s-8.33398 -2.33301 -11.001 -7l-15 -20c-8 -11.333 -18.667 -17 -32 -17h-43z" />
    <glyph glyph-name="Otilde" unicode="&#xd5;" horiz-adv-x="818" 
d="M354 835c-18 0 -35.6689 -12.001 -53.002 -36.001l-54 41c31.333 42 67 63 107 63c26 0 50.667 -9 74 -27l7 -6c10 -9.33301 20.667 -13.166 32 -11.499s20.833 5 28.5 10s14.834 11.5 21.501 19.5l53 -43c-30.667 -37.333 -65 -56 -103 -56c-26 0 -50.333 9 -73 27
c-3.33301 2 -6.66602 4.66699 -9.99902 8c-9.33301 7.33301 -19.333 11 -30 11zM408.498 729.999c67 0 129 -16.5 186 -49.5s102 -78 135 -135s49.5 -119 49.5 -186s-16.5 -129 -49.5 -186s-78 -102 -135 -135s-119 -49.5 -186 -49.5s-129 16.5 -186 49.5s-102 78 -135 135
s-49.5 119 -49.5 186s16.5 129 49.5 186s78 102 135 135s119 49.5 186 49.5zM407.998 117.999c66.667 0 123.667 23.6689 171 71.002s71 104.166 71 170.499s-23.667 123.166 -71 170.499s-104.333 71 -171 71c-43.333 0 -83.5 -10.833 -120.5 -32.5s-66.333 -51 -88 -88
s-32.5 -77.333 -32.5 -121s10.833 -84 32.5 -121s51 -66.333 88 -88s77.167 -32.5 120.5 -32.5z" />
    <glyph glyph-name="Odieresis" unicode="&#xd6;" horiz-adv-x="818" 
d="M501.5 788c-15.667 0 -29 5.5 -40 16.5s-16.5 24.333 -16.5 40s5.5 29 16.5 40s24.333 16.5 40 16.5s29 -5.5 40 -16.5s16.5 -24.333 16.5 -40s-5.5 -29 -16.5 -40s-24.333 -16.5 -40 -16.5zM408.5 730c67 0 129 -16.5 186 -49.5s102 -78 135 -135s49.5 -119 49.5 -186
s-16.5 -129 -49.5 -186s-78 -102 -135 -135s-119 -49.5 -186 -49.5s-129 16.5 -186 49.5s-102 78 -135 135s-49.5 119 -49.5 186s16.5 129 49.5 186s78 102 135 135s119 49.5 186 49.5zM408.5 118c66.333 0 123.168 23.6689 170.501 71.002s71 104.166 71 170.499
s-23.667 123.166 -71 170.499s-104.333 71 -171 71c-43.333 0 -83.5 -10.833 -120.5 -32.5s-66.333 -51 -88 -88s-32.5 -77.167 -32.5 -120.5c0 -66.667 23.667 -123.667 71 -171s104.166 -71 170.499 -71zM315.502 788.002c-15.667 0 -29 5.5 -40 16.5
s-16.5 24.333 -16.5 40s5.5 29 16.5 40s24.333 16.5 40 16.5s29 -5.5 40 -16.5s16.5 -24.333 16.5 -40s-5.5 -29 -16.5 -40s-24.333 -16.5 -40 -16.5z" />
    <glyph glyph-name="multiply" unicode="&#xd7;" horiz-adv-x="433" 
d="M322 345l62 -62c4 -4 6 -8.83301 6 -14.5s-2 -10.5 -6 -14.5l-63 -62c-4 -4 -8.83301 -6 -14.5 -6s-10.167 2 -13.5 6l-63 62c-4 4 -8.83301 6 -14.5 6s-10.167 -2 -13.5 -6l-63 -62c-4 -4 -8.83301 -6 -14.5 -6s-10.167 2 -13.5 6l-63 62c-4 4 -6 8.83301 -6 14.5
s2 10.5 6 14.5l62 62c4 4 6 8.83301 6 14.5s-2 10.5 -6 14.5l-62 62c-4 4 -6 8.83301 -6 14.5s2 10.5 6 14.5l63 63c3.33301 4 7.83301 6 13.5 6s10.5 -2 14.5 -6l63 -62c3.33301 -4 7.83301 -6 13.5 -6s10.5 2 14.5 6l63 62c3.33301 4 7.83301 6 13.5 6s10.5 -2 14.5 -6
l63 -63c4 -4 6 -8.83301 6 -14.5s-2 -10.5 -6 -14.5l-62 -62c-4 -4 -6 -8.83301 -6 -14.5s2 -10.5 6 -14.5z" />
    <glyph glyph-name="Oslash" unicode="&#xd8;" horiz-adv-x="818" 
d="M408.5 730c67 0 129 -16.5 186 -49.5s102 -78 135 -135s49.5 -119 49.5 -186s-16.5 -129 -49.5 -186s-78 -102 -135 -135s-119 -49.5 -186 -49.5s-129 16.5 -186 49.5s-102 78 -135 135s-49.5 119 -49.5 186s16.5 129 49.5 186s78 102 135 135s119 49.5 186 49.5z
M186 267c4 -8 10.167 -12.832 18.5 -14.499s15.5 0.5 21.5 6.5l287 281c6 6 8.16699 13.333 6.5 22s-6.5 14.667 -14.5 18c-49.333 22 -101 26.667 -155 14c-42 -10.667 -78.667 -31.334 -110 -62.001s-52.666 -67 -63.999 -109
c-14.667 -53.333 -11.334 -105.333 9.99902 -156zM646 314.001c9.33301 51.333 3.00098 100.331 -18.999 146.998c-3.33301 8 -9.16602 12.667 -17.499 14s-15.5 -0.666992 -21.5 -6l-292 -287c-6 -6 -8.16699 -13.167 -6.5 -21.5s6.16699 -14.166 13.5 -17.499
c46 -22.667 94.667 -29.667 146 -21c49.333 8 92.166 29.833 128.499 65.5s59.166 77.834 68.499 126.501z" />
    <glyph glyph-name="Ugrave" unicode="&#xd9;" horiz-adv-x="614" 
d="M551 710c6.66699 0 12.332 -2.33301 16.999 -7s7 -10.334 7 -17.001v-421c0 -72.667 -24.5 -135.834 -73.5 -189.501s-109.5 -82.5 -181.5 -86.5c-76.667 -3.33301 -142.834 21.5 -198.501 74.5s-83.5 117.833 -83.5 194.5v428c0 6.66699 2.33301 12.334 7 17.001
s10.334 7 17.001 7h81c6.66699 0 12.334 -2.33301 17.001 -7s7 -10.334 7 -17.001v-424c0 -35.333 11.5 -66.833 34.5 -94.5s51.833 -43.834 86.5 -48.501c28 -3.33301 54.167 0.833984 78.5 12.501s43.666 28.834 57.999 51.501s21.5 47.667 21.5 75v428
c0 6.66699 2.33301 12.334 7 17.001s10.334 7 17.001 7h81zM296.998 775l-42.9971 80c-6 12 -8.5 18.167 -7.5 18.5s8.16699 0.5 21.5 0.5h28c5.33301 0 10.666 -1.83301 15.999 -5.5s9 -8.16699 11 -13.5l26 -79c1.33301 -3.33301 1.66602 -6.5 0.999023 -9.5
s-2.33398 -5.33301 -5.00098 -7s-5.66699 -2.5 -9 -2.5h-9c-3.33301 0 -6.5 0.5 -9.5 1.5s-5.83301 2.33301 -8.5 4s-5.16699 3.5 -7.5 5.5s-3.83301 4.33301 -4.5 7z" />
    <glyph glyph-name="Uacute" unicode="&#xda;" horiz-adv-x="614" 
d="M551 710c6.66699 0 12.3311 -2.33398 16.998 -7.00098s7 -10.334 7 -17.001v-400c0 -72.667 -24.5 -136 -73.5 -190s-109.5 -82.667 -181.5 -86c-76.667 -4 -142.834 20.5 -198.501 73.5s-83.5 117.833 -83.5 194.5v408c0 6.66699 2.33301 12.334 7 17.001
s10.334 7 17.001 7h81c6.66699 0 12.334 -2.33301 17.001 -7s7 -10.334 7 -17.001v-403c0 -36 11.5 -67.833 34.5 -95.5s51.833 -43.5 86.5 -47.5c42 -5.33301 78.833 5.83398 110.5 33.501s47.5 62.5 47.5 104.5v408c0 6.66699 2.33301 12.334 7 17.001s10.334 7 17.001 7
h81zM276.997 756.999c-5.33301 0 -9.33203 1.83301 -11.999 5.5s-3 8.16699 -1 13.5l26 79c2 5.33301 5.66699 9.83301 11 13.5s10.666 5.5 15.999 5.5h28c14 0 21.333 -0.166992 22 -0.5s-2 -6.5 -8 -18.5l-43 -80c-1.33301 -2.66699 -3 -5 -5 -7
s-4.33301 -3.83301 -7 -5.5s-5.5 -3 -8.5 -4s-6.16699 -1.5 -9.5 -1.5h-9z" />
    <glyph glyph-name="Ucircumflex" unicode="&#xdb;" horiz-adv-x="614" 
d="M551 710c6.66699 0 12.3311 -2.33398 16.998 -7.00098s7 -10.334 7 -17.001v-400c0 -72.667 -24.5 -136 -73.5 -190s-109.5 -82.667 -181.5 -86c-76.667 -4 -142.834 20.5 -198.501 73.5s-83.5 117.833 -83.5 194.5v408c0 6.66699 2.33301 12.334 7 17.001
s10.334 7 17.001 7h81c6.66699 0 12.334 -2.33301 17.001 -7s7 -10.334 7 -17.001v-403c0 -36 11.5 -67.833 34.5 -95.5s51.833 -43.5 86.5 -47.5c42 -5.33301 78.833 5.83398 110.5 33.501s47.5 62.5 47.5 104.5v408c0 6.66699 2.33301 12.334 7 17.001s10.334 7 17.001 7
h81zM204.997 782.999c-5.33301 0 -8.83008 1.66699 -10.4971 5s-0.833984 7.33301 2.49902 12l98 137c1.33301 2 3 3.66699 5 5s4.16699 2 6.5 2s4.5 -0.666992 6.5 -2s3.66699 -3 5 -5l98 -137c3.33301 -4.66699 4.16602 -8.66699 2.49902 -12s-5.16699 -5 -10.5 -5h-43
c-13.333 0 -24 5.66699 -32 17l-15 20c-3.33301 4.66699 -7.33301 7 -12 7s-8.33398 -2.33301 -11.001 -7l-15 -20c-8 -11.333 -18.667 -17 -32 -17h-43z" />
    <glyph glyph-name="Udieresis" unicode="&#xdc;" horiz-adv-x="614" 
d="M399.5 788c-15.667 0 -29 5.5 -40 16.5s-16.5 24.333 -16.5 40s5.5 29 16.5 40s24.333 16.5 40 16.5s29 -5.5 40 -16.5s16.5 -24.333 16.5 -40s-5.5 -29 -16.5 -40s-24.333 -16.5 -40 -16.5zM213 788c-10 0 -19.333 2.5 -28 7.5s-15.5 11.833 -20.5 20.5s-7.5 18 -7.5 28
c0 16 5.5 29.5 16.5 40.5s24.333 16.5 40 16.5s29 -5.5 40 -16.5s16.5 -24.333 16.5 -40s-5.5 -29 -16.5 -40s-24.5 -16.5 -40.5 -16.5zM551 710c6.66699 0 12.3311 -2.33398 16.998 -7.00098s7 -10.334 7 -17.001v-400c0 -72.667 -24.5 -136 -73.5 -190
s-109.5 -82.667 -181.5 -86c-76.667 -4 -142.834 20.5 -198.501 73.5s-83.5 117.833 -83.5 194.5v408c0 6.66699 2.33301 12.334 7 17.001s10.334 7 17.001 7h81c6.66699 0 12.334 -2.33301 17.001 -7s7 -10.334 7 -17.001v-403c0 -36 11.5 -67.833 34.5 -95.5
s51.833 -43.5 86.5 -47.5c42 -5.33301 78.833 5.83398 110.5 33.501s47.5 62.5 47.5 104.5v408c0 6.66699 2.33301 12.334 7 17.001s10.334 7 17.001 7h81z" />
    <glyph glyph-name="Yacute" unicode="&#xdd;" horiz-adv-x="689" 
d="M307 757c-5.33301 0 -9.33105 1.83301 -11.998 5.5s-3 8.16699 -1 13.5l26 79c2 5.33301 5.66699 9.83301 11 13.5s10.666 5.5 15.999 5.5h26c14 0 21.667 -0.333008 23 -1s-1.33398 -7 -8.00098 -19l-42 -79c-1.33301 -2.66699 -3 -5 -5 -7s-4.33301 -3.83301 -7 -5.5
s-5.5 -3 -8.5 -4s-6.16699 -1.5 -9.5 -1.5h-9zM639.002 709c6 0 9.83301 -1.66699 11.5 -5s1.16699 -7.33301 -1.5 -12l-230 -379c-6.66699 -11.333 -10 -24 -10 -38v-247c0 -6 -2 -11 -6 -15s-9 -6 -15 -6h-88c-5.33301 0 -10 2 -14 6s-6 9 -6 15v247
c0 13.333 -3.66699 26 -11 38l-229 379c-3.33301 4.66699 -4 8.66699 -2 12s5.66699 5 11 5h111c3.33301 0 7 -0.666992 11 -2s7.83301 -3.5 11.5 -6.5s6.5 -5.83301 8.5 -8.5l143 -236c2.66699 -5.33301 6 -8 10 -8s7.66699 2.66699 11 8l143 236
c2 3.33301 4.66699 6.33301 8 9s7 4.66699 11 6s8 2 12 2h70h40z" />
    <glyph glyph-name="Thorn" unicode="&#xde;" horiz-adv-x="443" 
d="M186 598l22.998 -11.998c10 -5.33301 27.5 -16.333 52.5 -33s47.167 -33.834 66.5 -51.501s36.833 -39.5 52.5 -65.5s23.5 -51.5 23.5 -76.5s-7.5 -50.167 -22.5 -75.5s-33.167 -47.333 -54.5 -66s-42.666 -35.667 -63.999 -51s-39.666 -27 -54.999 -35l-22 -11
c-3.33301 -2 -6.5 -4.5 -9.5 -7.5s-5.33301 -6.5 -7 -10.5s-2.5 -7.66699 -2.5 -11v-63c0 -5.33301 -2 -10 -6 -14s-8.66699 -6 -14 -6h-89c-5.33301 0 -10 2 -14 6s-6 8.66699 -6 14v87v447v126v21h3h106c5.33301 0 10 -2 14 -6s6 -8.66699 6 -14v-62
c0 -6 1.83301 -11.833 5.5 -17.5s8.16699 -9.83398 13.5 -12.501zM184.998 250.002c1.33301 0.666992 3.16211 1.66602 5.49512 2.99902s6.5 4 12.5 8s11.833 8.16699 17.5 12.5s12 10 19 17s13 13.833 18 20.5s9.16699 14.334 12.5 23.001s5 17.167 5 25.5
s-1.66699 16.833 -5 25.5s-7.66602 16.5 -12.999 23.5s-11.166 13.667 -17.499 20s-12.666 12 -18.999 17s-12.166 9.33301 -17.499 13s-9.66602 6.16699 -12.999 7.5l-5 3c-4.66699 2.66699 -8.83398 3 -12.501 1s-5.5 -6 -5.5 -12v-197c0 -6 1.83301 -10 5.5 -12
s7.83398 -1.66699 12.501 1z" />
    <glyph glyph-name="germandbls" unicode="&#xdf;" horiz-adv-x="572" 
d="M445 381c29.333 -22 51.8311 -49.498 67.498 -82.498s22.167 -68.5 19.5 -106.5c-3.33301 -57.333 -26.833 -105.5 -70.5 -144.5s-94.834 -58.5 -153.501 -58.5h-99c-6.66699 0 -12.5 2.5 -17.5 7.5s-7.5 10.833 -7.5 17.5v79c0 6.66699 2.5 12.5 7.5 17.5
s10.833 7.5 17.5 7.5h106c26 0 47.833 9.66699 65.5 29s25.167 42 22.5 68c-1.33301 15.333 -6.5 29.166 -15.5 41.499s-20.167 21.833 -33.5 28.5s-27.666 10 -42.999 10h-13c-7.33301 0 -13.333 2.5 -18 7.5s-7 10.833 -7 17.5v82c0 13.333 6.66699 21.666 20 24.999
c9.33301 2 18.333 5.66699 27 11s16 11.666 22 18.999s10.667 15.833 14 25.5s5 19.834 5 30.501c0 32 -13.833 56.833 -41.5 74.5s-57.5 18.834 -89.5 3.50098c-19.333 -9.33301 -34.666 -23.5 -45.999 -42.5s-17 -39.833 -17 -62.5v-682
c0 -3.33301 -0.666992 -6.5 -2 -9.5s-3.16602 -5.66699 -5.49902 -8s-5 -4.16602 -8 -5.49902s-6.16699 -2 -9.5 -2h-79c-6.66699 0 -12.5 2.5 -17.5 7.5s-7.5 10.833 -7.5 17.5v691c0 64 22.5 118.833 67.5 164.5s99.5 69.167 163.5 70.5
c58.667 1.33301 109.667 -18.834 153 -60.501s66 -91.834 68 -150.501c1.33301 -51.333 -13.667 -97.333 -45 -138z" />
    <glyph glyph-name="agrave" unicode="&#xe0;" horiz-adv-x="529" 
d="M255 553l-42.9961 81c-2.66699 4.66699 -2.83398 8.83398 -0.500977 12.501s6.16602 5.5 11.499 5.5h31c5.33301 0 10.666 -2 15.999 -6s9 -8.66699 11 -14l26 -78c2 -5.33301 1.66699 -9.83301 -1 -13.5s-6.66699 -5.5 -12 -5.5h-9c-6 0 -11.833 1.66699 -17.5 5
s-9.83398 7.66602 -12.501 12.999zM276.004 498c59.333 -0.666992 109.83 -21.834 151.497 -63.501s62.5 -92.167 62.5 -151.5v-250c0 -6.66699 -2.33301 -12.5 -7 -17.5s-10.667 -7.5 -18 -7.5h-54c-14 0 -25.833 5 -35.5 15s-14.5 21.667 -14.5 35
c-9.33301 -16.667 -27.833 -31.5 -55.5 -44.5s-53.167 -19.5 -76.5 -19.5c-36.667 0 -69.334 5.83301 -98.001 17.5s-51.334 29.167 -68.001 52.5s-25 50.333 -25 81c0 54.667 19.667 98.167 59 130.5s92 48.5 158 48.5c32.667 0 66 -4.66699 100 -14
c-5.33301 16.667 -17.166 32 -35.499 46s-36.833 21 -55.5 21c-31.333 0 -58.666 -6.33301 -81.999 -19c-6 -3.33301 -12.167 -4.16602 -18.5 -2.49902s-11.166 5.16699 -14.499 10.5l-39 60c-3.33301 6.66699 -4.16602 13.5 -2.49902 20.5s5.83398 12.167 12.501 15.5
c43.333 24 95.333 36 156 36zM230.001 109c21.333 0 43.333 5.33398 66 16.001s40 27.667 52 51c-28 12.667 -59.333 19 -94 19c-21.333 0 -40 -3 -56 -9c-12.667 -4.66699 -21 -10.334 -25 -17.001s-6 -14.667 -6 -24c0 -8 2.83301 -14.667 8.5 -20s12.667 -9 21 -11
s15 -3.33301 20 -4s9.5 -1 13.5 -1z" />
    <glyph glyph-name="aacute" unicode="&#xe1;" horiz-adv-x="528" 
d="M276 498c59.333 -0.666992 109.83 -21.834 151.497 -63.501s62.5 -92.167 62.5 -151.5v-250c0 -6.66699 -2.33301 -12.5 -7 -17.5s-10.667 -7.5 -18 -7.5h-54c-14 0 -25.833 5 -35.5 15s-14.5 21.667 -14.5 35c-6 -10.667 -16.667 -21.167 -32 -31.5s-32 -18.333 -50 -24
s-34.667 -8.5 -50 -8.5c-36.667 0 -69.334 5.83301 -98.001 17.5s-51.334 29.167 -68.001 52.5s-25 50.333 -25 81c0 54.667 19.667 98.167 59 130.5s92 48.5 158 48.5c32.667 0 66 -4.66699 100 -14c-5.33301 16.667 -17.166 32 -35.499 46s-36.833 21 -55.5 21
c-31.333 0 -58.666 -6.33301 -81.999 -19c-6 -3.33301 -12.167 -4.16602 -18.5 -2.49902s-11.166 5.16699 -14.499 10.5l-39 60c-3.33301 6.66699 -4.16602 13.5 -2.49902 20.5s5.83398 12.167 12.501 15.5c43.333 24 95.333 36 156 36zM229.997 109
c12.667 0 26 2.00098 40 6.00098s28.5 11.167 43.5 21.5s26.5 23.5 34.5 39.5c-28 12.667 -59.333 19 -94 19c-21.333 0 -40 -3 -56 -9c-12.667 -4.66699 -21 -10.334 -25 -17.001s-6 -14.667 -6 -24c0 -8 2.83301 -14.667 8.5 -20s12.667 -9 21 -11s15 -3.33301 20 -4
s9.5 -1 13.5 -1zM234.997 535.001c-6 0 -10.3301 1.83301 -12.9971 5.5s-3 8.16699 -1 13.5l26 78c1.33301 4 3.5 7.33301 6.5 10s6.33301 5 10 7s7.16699 3 10.5 3h31c5.33301 0 9.16602 -1.83301 11.499 -5.5s2.16602 -7.83398 -0.500977 -12.501l-43 -81
c-2.66699 -5.33301 -6.83398 -9.66602 -12.501 -12.999s-11.5 -5 -17.5 -5h-8z" />
    <glyph glyph-name="acircumflex" unicode="&#xe2;" horiz-adv-x="529" 
d="M276 498c59.333 -0.666992 109.83 -21.834 151.497 -63.501s62.5 -92.167 62.5 -151.5v-250c0 -6.66699 -2.33301 -12.5 -7 -17.5s-10.667 -7.5 -18 -7.5h-54c-14 0 -25.833 5 -35.5 15s-14.5 21.667 -14.5 35c-9.33301 -16.667 -27.833 -31.5 -55.5 -44.5
s-53.167 -19.5 -76.5 -19.5c-56.667 0 -102.667 13.5 -138 40.5s-53 63.833 -53 110.5c0 54.667 19.667 98.167 59 130.5s92 48.5 158 48.5c32.667 0 66 -4.66699 100 -14c-5.33301 16.667 -17.166 32 -35.499 46s-36.833 21 -55.5 21
c-31.333 0 -58.666 -6.33301 -81.999 -19c-6 -3.33301 -12.167 -4.16602 -18.5 -2.49902s-11.166 5.16699 -14.499 10.5l-39 60c-4 6.66699 -5 13.5 -3 20.5s6.33301 12.167 13 15.5c43.333 24 95.333 36 156 36zM228.997 109c22 0 44.333 5.33398 67 16.001
s40 27.667 52 51c-28 12.667 -59.333 19 -94 19c-21.333 0 -40 -3 -56 -9c-12.667 -4.66699 -21 -10.334 -25 -17.001s-6 -14.667 -6 -24c0 -8 2.83301 -14.667 8.5 -20s12.667 -9 21 -11s15 -3.33301 20 -4s9.16699 -1 12.5 -1zM162.997 533.001
c-6 0 -9.83105 1.66699 -11.498 5s-0.833984 7.33301 2.49902 12l98 137c3.33301 4.66699 7.33301 7 12 7s8.66699 -2.33301 12 -7l98 -137c3.33301 -4.66699 4.16602 -8.66699 2.49902 -12s-5.5 -5 -11.5 -5h-43c-13.333 0 -24 5.66699 -32 17l-14 20
c-3.33301 4.66699 -7.33301 7 -12 7s-8.66699 -2.33301 -12 -7l-14 -20c-8 -11.333 -19 -17 -33 -17h-42z" />
    <glyph glyph-name="atilde" unicode="&#xe3;" horiz-adv-x="529" 
d="M168 561l-23 17.001c-4.66699 4 -7.33398 8.83301 -8.00098 14.5s1 10.5 5 14.5c28.667 31.333 60 47 94 47c26 0 50.333 -9 73 -27l8 -7c22.667 -17.333 46.334 -15 71.001 7c8 7.33301 16.333 7.66602 25 0.999023l22 -19c4.66699 -3.33301 7.16699 -8 7.5 -14
s-1.5 -11 -5.5 -15c-26.667 -26.667 -56 -40 -88 -40c-26 0 -50.667 9 -74 27l-9 7c-9.33301 8 -19.333 12 -30 12c-14 0 -28 -7.66699 -42 -23c-8 -8 -16.667 -8.66699 -26 -2zM276 498.001c59.333 -0.666992 109.83 -21.834 151.497 -63.501s62.5 -92.167 62.5 -151.5
v-250c0 -6.66699 -2.33301 -12.5 -7 -17.5s-10.667 -7.5 -18 -7.5h-54c-14 0 -25.833 5 -35.5 15s-14.5 21.667 -14.5 35c-9.33301 -16.667 -27.833 -31.5 -55.5 -44.5s-53.167 -19.5 -76.5 -19.5c-56.667 0 -102.667 13.5 -138 40.5s-53 63.833 -53 110.5
c0 54.667 19.667 98.167 59 130.5s92 48.5 158 48.5c32.667 0 66 -4.66699 100 -14c-5.33301 16.667 -17.166 32 -35.499 46s-36.833 21 -55.5 21c-31.333 0 -58.666 -6.33301 -81.999 -19c-6 -3.33301 -12.167 -4.16602 -18.5 -2.49902s-11.166 5.16699 -14.499 10.5
l-39 60c-4 6.66699 -5 13.5 -3 20.5s6.33301 12.167 13 15.5c43.333 24 95.333 36 156 36zM228.997 109.001c13.333 0 27 2 41 6s28.5 11.167 43.5 21.5s26.5 23.5 34.5 39.5c-28 12.667 -59.333 19 -94 19c-21.333 0 -40 -3 -56 -9
c-8.66699 -3.33301 -15.5 -7.5 -20.5 -12.5s-8 -9.5 -9 -13.5s-1.5 -9 -1.5 -15c0 -8 2.83301 -14.667 8.5 -20s12.667 -9 21 -11s15 -3.33301 20 -4s9.16699 -1 12.5 -1z" />
    <glyph glyph-name="adieresis" unicode="&#xe4;" horiz-adv-x="529" 
d="M357 538c-15.333 0 -28.666 5.66699 -39.999 17s-17 24.833 -17 40.5s5.66699 29 17 40s24.666 16.5 39.999 16.5s28.666 -5.5 39.999 -16.5s17 -24.333 17 -40s-5.66699 -29.167 -17 -40.5s-24.666 -17 -39.999 -17zM171 538c-10.667 0 -20.334 2.66699 -29.001 8
s-15.5 12.333 -20.5 21s-7.5 18 -7.5 28c0 16 5.5 29.5 16.5 40.5s24.333 16.5 40 16.5s29.167 -5.5 40.5 -16.5s17 -24.333 17 -40s-5.66699 -29.167 -17 -40.5s-24.666 -17 -39.999 -17zM276 498c59.333 -0.666992 109.832 -21.834 151.499 -63.501
s62.5 -92.167 62.5 -151.5v-250c0 -6.66699 -2.33301 -12.5 -7 -17.5s-10.667 -7.5 -18 -7.5h-54c-14 0 -25.833 5 -35.5 15s-14.5 21.667 -14.5 35c-6 -10.667 -16.667 -21.167 -32 -31.5s-32 -18.333 -50 -24s-34.667 -8.5 -50 -8.5
c-36.667 0 -69.334 5.83301 -98.001 17.5s-51.334 29.167 -68.001 52.5s-25 50.333 -25 81c0 54.667 19.667 98.167 59 130.5s92 48.5 158 48.5c32.667 0 66 -4.66699 100 -14c-5.33301 16.667 -17.166 32 -35.499 46s-36.833 21 -55.5 21
c-31.333 0 -58.666 -6.33301 -81.999 -19c-6 -3.33301 -12.167 -4.16602 -18.5 -2.49902s-11.166 5.16699 -14.499 10.5l-39 60c-4 6.66699 -5 13.5 -3 20.5s6.33301 12.167 13 15.5c43.333 24 95.333 36 156 36zM228.999 109c22 0 44.333 5.33398 67 16.001
s40 27.667 52 51c-28 12.667 -59.333 19 -94 19c-21.333 0 -40 -3 -56 -9c-12.667 -4.66699 -21 -10.334 -25 -17.001s-6 -14.667 -6 -24c0 -8 2.83301 -14.667 8.5 -20s12.667 -9 21 -11s15 -3.33301 20 -4s9.16699 -1 12.5 -1z" />
    <glyph glyph-name="aring" unicode="&#xe5;" horiz-adv-x="529" 
d="M488 303c1.33301 -12 1.99512 -25.667 1.99512 -41v-5v-21v-34v-21v-151v-21c0 -0.666992 -6.66699 -1 -20 -1h-89c-13.333 0 -20 0.333008 -20 1v3v17c0 4 -1.83301 6.33301 -5.5 7s-7.83398 -0.333008 -12.501 -3c-46 -26 -83.667 -39 -113 -39
c-49.333 0 -90.833 10.167 -124.5 30.5s-54.834 48.833 -63.501 85.5c-2.66699 12 -4 23.667 -4 35v1c0 0.666992 0.166992 1.5 0.5 2.5s0.5 1.83301 0.5 2.5c0 13.333 1.33301 25.333 4 36c0 1.33301 0.333008 2.83301 1 4.5s1.33398 3.5 2.00098 5.5
s1.33398 3.66699 2.00098 5c3.33301 9.33301 6 16.333 8 21c2 4 5.33301 9.33301 10 16c4 6.66699 7.33301 11.667 10 15c4.66699 5.33301 10 10.666 16 15.999c3.33301 3.33301 7 6.33301 11 9c39.333 30 90 45 152 45c10 0 21.667 -0.833008 35 -2.5s24.333 -3.5 33 -5.5
l12 -2c4 -0.666992 7.5 -1.33398 10.5 -2.00098s5.33301 -1.16699 7 -1.5s2.5 -0.166016 2.5 0.500977c-6.66699 16.667 -17.167 30.334 -31.5 41.001s-30.5 16 -48.5 16c-10.667 0 -23.5 -1.66699 -38.5 -5s-27.5 -6.66602 -37.5 -9.99902l-14 -6c-5.33301 -2 -11 -2 -17 0
s-10.333 5.33301 -13 10l-48 75c-2 2.66699 -3.83301 5.33398 -5.5 8.00098l-4 6.5l-1.5 2.5h1c8 5.33301 16 10 24 14l1 1c12.667 6 26.334 11.667 41.001 17c0.666992 0.666992 1.83398 1.16699 3.50098 1.5s2.83398 0.5 3.50098 0.5c8.66699 3.33301 18.167 6 28.5 8
s18.5 3.33301 24.5 4l9 1c5.33301 0.666992 8.5 2.33398 9.5 5.00098s-0.833008 5.66699 -5.5 9c-4 2 -8.5 5.16699 -13.5 9.5s-12 13 -21 26s-13.5 25.5 -13.5 37.5c0 24.667 8.83301 45.834 26.5 63.501s38.834 26.5 63.501 26.5s45.834 -8.83301 63.501 -26.5
s26.5 -38.834 26.5 -63.501c0 -12.667 -4.5 -25.334 -13.5 -38.001s-18.167 -22.334 -27.5 -29.001l-14 -9c-11.333 -7.33301 -15 -11.333 -11 -12l4 -1c8.66699 -0.666992 16 -2 22 -4c6 -1.33301 12 -3 18 -5c8 -2.66699 14.667 -5.33398 20 -8.00098l18 -10
c8 -4.66699 13.333 -8 16 -10c4.66699 -3.33301 11 -8.33301 19 -15c0 -0.666992 1.33301 -2.16699 4 -4.5s4.66699 -4.16602 6 -5.49902c6 -6 12.333 -13.667 19 -23c0.666992 -0.666992 1.66699 -1.83398 3 -3.50098s2.33301 -3.16699 3 -4.5
c6.66699 -9.33301 12.334 -20 17.001 -32c0.666992 0 1.16699 -0.5 1.5 -1.5l0.5 -1.5c3.33301 -8 6.16602 -17.167 8.49902 -27.5s3.83301 -18.833 4.5 -25.5zM238.995 583c0 -10.667 3.83301 -19.834 11.5 -27.501s16.834 -11.5 27.501 -11.5s19.834 3.83301 27.501 11.5
s11.5 16.834 11.5 27.501s-3.83301 19.834 -11.5 27.501s-16.834 11.5 -27.501 11.5s-19.834 -3.83301 -27.501 -11.5s-11.5 -16.834 -11.5 -27.501zM331.995 163c1.33301 1.33301 2.83105 2.66504 4.49805 3.99805l4.5 3.5c1.33301 1 2.5 2 3.5 3l2 2l0.5 0.5
c-27.333 12.667 -58.333 19 -93 19c-21.333 0 -40 -3 -56 -9c-20.667 -8 -31 -21.333 -31 -40v-1c0 -6 2 -11.5 6 -16.5s8.66699 -8.66699 14 -11s11.333 -4.16602 18 -5.49902s11.834 -2.16602 15.501 -2.49902s6.83398 -0.5 9.50098 -0.5c10 0 23.5 4.5 40.5 13.5
s31.5 18.167 43.5 27.5z" />
    <glyph glyph-name="ae" unicode="&#xe6;" horiz-adv-x="903" 
d="M859 293l6.00195 -21.9951c2 -5.33301 1.66699 -10.5 -1 -15.5s-6.66699 -8.5 -12 -10.5l-304 -89c-5.33301 -1.33301 -8.5 -3.83301 -9.5 -7.5s0.5 -7.16699 4.5 -10.5l8 -5c30 -16 61.333 -19.333 94 -10c4.66699 1.33301 9.16699 3.16602 13.5 5.49902
s8.5 4.83301 12.5 7.5s7.83301 5.5 11.5 8.5s6.83398 5.83301 9.50098 8.5l7 7l5 5l2 2c3.33301 4 8 6.66699 14 8s11.667 0.666016 17 -2.00098l77 -43c5.33301 -2.66699 8.5 -6.5 9.5 -11.5s-0.5 -9.5 -4.5 -13.5c-5.33301 -6.66699 -12.666 -14.834 -21.999 -24.501
s-26.166 -24.167 -50.499 -43.5s-45.833 -32 -64.5 -38c-23.333 -6.66699 -47.333 -10 -72 -10c-42.667 0 -83 10.333 -121 31l-1 -5c0 -4 -7 -6 -21 -6h-88c-5.33301 0 -10 1 -14 3s-6 4.5 -6 7.5s-1.83301 4.5 -5.5 4.5s-7.83398 -1.33301 -12.501 -4
c-46 -26 -84 -39 -114 -39c-49.333 0 -91.333 12.667 -126 38c-43.333 31.333 -65 74 -65 128c0 62 25.667 109.333 77 142c37.333 24 84 36 140 36c4.66699 0 9.66699 -0.166992 15 -0.5s10.5 -0.833008 15.5 -1.5l15 -2c5 -0.666992 9.5 -1.33398 13.5 -2.00098
s7.66699 -1.33398 11 -2.00098s6 -1 8 -1l2 -1c5.33301 -1.33301 8.83301 -0.666016 10.5 2.00098s0.833984 6 -2.49902 10c-0.666992 1.33301 -1.83398 3 -3.50098 5s-4.83398 5.33301 -9.50098 10s-9.5 8.83398 -14.5 12.501s-11.167 7 -18.5 10s-14.666 4.5 -21.999 4.5
c-10.667 0 -23.5 -1.66699 -38.5 -5s-27.5 -6.66602 -37.5 -9.99902l-14 -6c-5.33301 -2 -11 -2 -17 0s-10.333 5.33301 -13 10l-48 74c-2.66699 5.33301 -3.33398 10.333 -2.00098 15s4.66602 8 9.99902 10c74 28 127.333 42 160 42c19.333 0 41.166 -5.33301 65.499 -16
s44.166 -21.334 59.499 -32.001l22 -16c4 -3.33301 9.16699 -5 15.5 -5s11.833 1.66699 16.5 5c32 25.333 61.333 41.666 88 48.999c66.667 20 130.667 13.333 192 -20c37.333 -20.667 67.666 -49 90.999 -85c2.66699 -4 5.16699 -8.33301 7.5 -13
s4.33301 -8.83398 6 -12.501l5 -10.5c1.66699 -3.33301 2.83398 -6 3.50098 -8l1 -3c4.66699 -12 9 -25 13 -39zM330.002 164.005c4 4 5.66699 7.83301 5 11.5s-3.66699 6.16699 -9 7.5c-25.333 8.66699 -50 13 -74 13c-21.333 0 -40 -3 -56 -9
c-8.66699 -3.33301 -15.5 -7.5 -20.5 -12.5s-8 -9.5 -9 -13.5s-1.5 -9 -1.5 -15c0 -8 2.83301 -14.667 8.5 -20s12.667 -9 21 -11s15 -3.33301 20 -4s9.5 -1 13.5 -1c10 0 23.5 4.5 40.5 13.5s31.5 18.167 43.5 27.5zM674.002 328.005
c5.33301 1.33301 8.50098 3.66797 9.50098 7.00098s-0.833008 6.66602 -5.5 9.99902l-8 5c-18.667 10 -38.334 15 -59.001 15c-12 0 -23.667 -1.66699 -35 -5c-32.667 -9.33301 -57.334 -29 -74.001 -59l-4 -9c-1.33301 -3.33301 -1.66602 -6 -0.999023 -8
s2.16699 -3.5 4.5 -4.5s5.5 -0.833008 9.5 0.5z" />
    <glyph glyph-name="ccedilla" unicode="&#xe7;" horiz-adv-x="501" 
d="M395 138l55.999 -56.9941c5.33301 -4.66699 7.83301 -10.834 7.5 -18.501s-3.16602 -13.834 -8.49902 -18.501c-38 -30 -82 -47.333 -132 -52l-9 -15c17.333 -8 31.166 -19.333 41.499 -34s15.5 -30.667 15.5 -48c0 -26 -10.667 -48.167 -32 -66.5
s-47.333 -27.5 -78 -27.5c-20.667 0 -39.667 4.66699 -57 14c-7.33301 3.33301 -11.666 9.16602 -12.999 17.499s1 15.166 7 20.499l13 15c8 7.33301 17.333 9 28 5c6.66699 -2.66699 14 -4 22 -4c12 0 22.167 2.66699 30.5 8s12.5 11.333 12.5 18
c0 3.33301 -1.16699 6.5 -3.5 9.5s-5.33301 5.66699 -9 8s-8.16699 4.33301 -13.5 6s-11 2.5 -17 2.5h-34v44l5 9l13 21c-48.667 10 -90.667 32.667 -126 68c-49.333 49.333 -74 108.666 -74 177.999s24.667 128.666 74 177.999c44 44 98.833 67.667 164.5 71
s122.834 -14.334 171.501 -53.001c5.33301 -4 8.16602 -9.83301 8.49902 -17.5s-2.16699 -13.834 -7.5 -18.501l-56 -57c-10 -10 -20.667 -11 -32 -3c-24 16.667 -51.167 23.834 -81.5 21.501s-55.833 -13.833 -76.5 -34.5c-24 -24 -36 -53 -36 -87s12 -63 36 -87
c20.667 -20.667 46.167 -32.167 76.5 -34.5s57.5 4.83398 81.5 21.501c11.333 8 22 7 32 -3z" />
    <glyph glyph-name="egrave" unicode="&#xe8;" 
d="M533 316c4.66699 -15.333 7.66602 -29.667 8.99902 -43c0.666992 -6 -0.666016 -11.5 -3.99902 -16.5s-8 -8.5 -14 -10.5l-316 -93c8 -7.33301 15.667 -13 23 -17c30 -16 61.333 -19.333 94 -10c25.333 7.33301 46 21.333 62 42c9.33301 11.333 20 13.666 32 6.99902
l70 -39c6.66699 -3.33301 10.834 -8.66602 12.501 -15.999s0.5 -14 -3.5 -20c-34 -48 -79.333 -80.667 -136 -98c-24 -6.66699 -48 -10 -72 -10c-46.667 0 -87 10.333 -121 31c-10 6.66699 -19.667 13.5 -29 20.5s-17.5 14 -24.5 21s-13.5 13.833 -19.5 20.5
s-11.167 13.5 -15.5 20.5l-11.5 18.5c-3.33301 5.33301 -6.33301 11 -9 17s-4.5 10.667 -5.5 14s-2.33301 7.16602 -4 11.499s-2.5 6.83301 -2.5 7.5c-22.667 62 -15.667 126 21 192c33.333 61.333 83.5 101.833 150.5 121.5s131.167 12.834 192.5 -20.499
c37.333 -20.667 67.666 -49 90.999 -85c13.333 -20.667 23.333 -42.667 30 -66zM170.999 276.999l203.003 58.999c-7.33301 6.66699 -15.333 12.334 -24 17.001c-18.667 10 -38.334 15 -59.001 15c-12 0 -23.667 -1.66699 -35 -5c-32.667 -9.33301 -57.334 -29 -74.001 -59
c-4.66699 -8.66699 -8.33398 -17.667 -11.001 -27zM238.002 552.998l-42.9961 80.998c-2.66699 4.66699 -2.83398 8.83398 -0.500977 12.501s6.16602 5.5 11.499 5.5h31c5.33301 0 10.666 -2 15.999 -6s9 -8.66699 11 -14l27 -78
c1.33301 -5.33301 0.666016 -9.83301 -2.00098 -13.5s-6.66699 -5.5 -12 -5.5h-9c-3.33301 0 -7 0.833008 -11 2.5s-7.66699 3.83398 -11 6.50098s-6 5.66699 -8 9z" />
    <glyph glyph-name="eacute" unicode="&#xe9;" 
d="M533 316c4 -14.667 6.99805 -29 8.99805 -43c0.666992 -6 -0.666016 -11.5 -3.99902 -16.5s-7.66602 -8.5 -12.999 -10.5l-317 -93c8 -7.33301 15.667 -13 23 -17c30 -16 61.333 -19.333 94 -10c25.333 7.33301 46 21.333 62 42c9.33301 11.333 20 13.666 32 6.99902
l70 -39c6.66699 -3.33301 10.834 -8.66602 12.501 -15.999s0.5 -14 -3.5 -20c-34 -48 -79.333 -80.667 -136 -98c-24 -6.66699 -48 -10 -72 -10c-46.667 0 -87 10.333 -121 31c-10 6.66699 -19.667 13.5 -29 20.5s-17.5 14 -24.5 21s-13.5 13.833 -19.5 20.5
s-11.167 13.5 -15.5 20.5l-11.5 18.5c-3.33301 5.33301 -6.33301 11 -9 17s-4.5 10.667 -5.5 14s-2.33301 7.16602 -4 11.499s-2.5 6.83301 -2.5 7.5c-22.667 62 -15.667 126 21 192c33.333 61.333 83.5 101.833 150.5 121.5s131.167 12.834 192.5 -20.499
c37.333 -20.667 67.666 -49 90.999 -85c13.333 -20.667 23.333 -42.667 30 -66zM170.998 277l203.003 58.999c-7.33301 6.66699 -15.333 12.334 -24 17.001c-18.667 10 -38.334 15 -59.001 15c-12 0 -23.667 -1.66699 -35 -5c-32.667 -9.33301 -57.334 -29 -74.001 -59
c-4.66699 -8.66699 -8.33398 -17.667 -11.001 -27zM248.001 534.999c-6 0 -10.332 1.83301 -12.999 5.5s-3 8.16699 -1 13.5l27 78c0.666992 4 2.5 7.33301 5.5 10s6.33301 5 10 7s7.5 3 11.5 3h30c6 0 10 -1.83301 12 -5.5s1.66699 -7.83398 -1 -12.501l-43 -81
c-2.66699 -5.33301 -6.83398 -9.66602 -12.501 -12.999s-11.5 -5 -17.5 -5h-8z" />
    <glyph glyph-name="ecircumflex" unicode="&#xea;" horiz-adv-x="582" 
d="M172 533c-5.33301 0 -8.83203 1.66699 -10.499 5s-0.833984 7.33301 2.49902 12l98 137c3.33301 4.66699 7.33301 7 12 7s8.66699 -2.33301 12 -7l98 -137c2.66699 -4.66699 3.16699 -8.66699 1.5 -12s-5.16699 -5 -10.5 -5h-43c-13.333 0 -24 5.66699 -32 17l-14 20
c-3.33301 4.66699 -7.33301 7 -12 7s-8.66699 -2.33301 -12 -7l-14 -20c-8 -11.333 -19 -17 -33 -17h-43zM533.001 316c4 -14.667 6.99902 -28.998 8.99902 -42.998c0.666992 -4 0.333984 -7.83301 -0.999023 -11.5s-3.5 -6.83398 -6.5 -9.50098s-6.16699 -4.66699 -9.5 -6
l-317 -93c8 -6.66699 15.667 -12.334 23 -17.001c30 -16 61.333 -19.333 94 -10c25.333 7.33301 46 21.333 62 42c9.33301 11.333 20 13.666 32 6.99902l70 -39c6.66699 -3.33301 10.834 -8.66602 12.501 -15.999s0.5 -14 -3.5 -20c-34 -48 -79.333 -80.667 -136 -98
c-24 -6.66699 -48 -10 -72 -10c-46.667 0 -87 10.333 -121 31c-10 6.66699 -19.667 13.5 -29 20.5s-17.5 14 -24.5 21s-13.5 13.833 -19.5 20.5s-11.167 13.5 -15.5 20.5l-11.5 18.5c-3.33301 5.33301 -6.33301 11 -9 17s-4.5 10.667 -5.5 14s-2.33301 7.16602 -4 11.499
s-2.5 6.83301 -2.5 7.5c-22.667 62 -15.667 126 21 192c33.333 61.333 83.5 101.833 150.5 121.5s131.167 12.834 192.5 -20.499c37.333 -20.667 67.666 -49 90.999 -85c13.333 -20.667 23.333 -42.667 30 -66zM171 277.002l202.004 58.999
c-6.66699 6.66699 -14.334 12.334 -23.001 17.001c-18.667 10 -38.334 15 -59.001 15c-12 0 -23.667 -1.66699 -35 -5c-32.667 -9.33301 -57.334 -29 -74.001 -59c-4.66699 -8.66699 -8.33398 -17.667 -11.001 -27z" />
    <glyph glyph-name="edieresis" unicode="&#xeb;" 
d="M184 538c-10 0 -19.333 2.66699 -28 8s-15.5 12.333 -20.5 21s-7.5 18 -7.5 28c0 16 5.5 29.5 16.5 40.5s24.333 16.5 40 16.5s29 -5.5 40 -16.5s16.5 -24.333 16.5 -40s-5.5 -29.167 -16.5 -40.5s-24.5 -17 -40.5 -17zM370.5 538c-15.667 0 -29 5.66699 -40 17
s-16.5 24.833 -16.5 40.5s5.5 29 16.5 40s24.333 16.5 40 16.5s29 -5.5 40 -16.5s16.5 -24.333 16.5 -40s-5.5 -29.167 -16.5 -40.5s-24.333 -17 -40 -17zM533 316c4.66699 -15.333 7.66602 -29.666 8.99902 -42.999c0.666992 -6 -0.666016 -11.5 -3.99902 -16.5
s-8 -8.5 -14 -10.5l-316 -93c8 -6.66699 15.667 -12.334 23 -17.001c30 -16 61.333 -19.333 94 -10c25.333 7.33301 46 21.333 62 42c9.33301 11.333 20 13.666 32 6.99902l70 -39c6.66699 -3.33301 10.834 -8.66602 12.501 -15.999s0.5 -14 -3.5 -20
c-34 -48 -79.333 -80.667 -136 -98c-24 -6.66699 -48 -10 -72 -10c-46.667 0 -87 10.333 -121 31c-10 6.66699 -19.667 13.5 -29 20.5s-17.5 14 -24.5 21s-13.5 13.833 -19.5 20.5s-11.167 13.5 -15.5 20.5l-11.5 18.5c-3.33301 5.33301 -6.33301 11 -9 17
s-4.5 10.667 -5.5 14s-2.33301 7.16602 -4 11.499s-2.5 6.83301 -2.5 7.5c-22.667 62 -15.667 126 21 192c33.333 61.333 83.5 101.833 150.5 121.5s131.167 12.834 192.5 -20.499c37.333 -20.667 67.666 -49 90.999 -85c13.333 -20.667 23.333 -42.667 30 -66zM170.999 277
l203.003 58.999c-7.33301 6.66699 -15.333 12.334 -24 17.001c-18.667 10 -38.334 15 -59.001 15c-12 0 -23.667 -1.66699 -35 -5c-32.667 -9.33301 -57.334 -29 -74.001 -59c-4.66699 -8.66699 -8.33398 -17.667 -11.001 -27z" />
    <glyph glyph-name="igrave" unicode="&#xec;" horiz-adv-x="242" 
d="M121 535c-6 0 -11.8291 1.66699 -17.4961 5s-9.83398 7.66602 -12.501 12.999l-43 81c-2.66699 4.66699 -2.83398 8.83398 -0.500977 12.501s6.16602 5.5 11.499 5.5h31c5.33301 0 10.666 -2 15.999 -6s9 -8.66699 11 -14l26 -78c2 -5.33301 1.66699 -9.83301 -1 -13.5
s-6.66699 -5.5 -12 -5.5h-9zM175.004 480c5.33301 0 9.99902 -2 13.999 -6s6 -8.66699 6 -14v-430c0 -6 -2 -11 -6 -15s-8.66699 -6 -14 -6h-89c-3.33301 0 -6.66602 1 -9.99902 3s-5.83301 4.5 -7.5 7.5s-2.5 6.5 -2.5 10.5v430c0 5.33301 2 10 6 14s8.66699 6 14 6h89z
" />
    <glyph glyph-name="iacute" unicode="&#xed;" horiz-adv-x="246" 
d="M157 480c5.33301 0 10 -2 14 -6s6 -8.66699 6 -14v-430c0 -6 -2 -11 -6 -15s-8.66699 -6 -14 -6h-89c-5.33301 0 -10 2 -14 6s-6 9 -6 15v430c0 5.33301 2 10 6 14s8.66699 6 14 6h89zM184 652c6 0 10.001 -1.83301 12.001 -5.5s1.66699 -7.83398 -1 -12.501l-43 -81
c-2.66699 -5.33301 -6.83398 -9.66602 -12.501 -12.999s-11.5 -5 -17.5 -5h-8c-3.33301 0 -6 0.5 -8 1.5s-3.66699 2.33301 -5 4s-2.16602 3.66699 -2.49902 6s0.166992 4.83301 1.5 7.5l26 78c2 5.33301 5.66699 10 11 14s10.666 6 15.999 6h31z" />
    <glyph glyph-name="icircumflex" unicode="&#xee;" horiz-adv-x="306" 
d="M197 480c6 0 11 -2 15 -6s6 -8.66699 6 -14v-430c0 -6 -2 -11 -6 -15s-9 -6 -15 -6h-88c-6 0 -11 2 -15 6s-6 9 -6 15v430c0 5.33301 2 10 6 14s9 6 15 6h88zM263 550c3.33301 -4.66699 4.16797 -8.66699 2.50098 -12s-5.5 -5 -11.5 -5h-43c-13.333 0 -24 5.66699 -32 17
l-14 20c-2 3.33301 -4.5 5.5 -7.5 6.5s-6 1 -9 0s-5.5 -3.16699 -7.5 -6.5l-14 -20c-8 -11.333 -19 -17 -33 -17h-42c-6 0 -9.83301 1.66699 -11.5 5s-0.833984 7.33301 2.49902 12l98 137c3.33301 4.66699 7.33301 7 12 7s8.66699 -2.33301 12 -7z" />
    <glyph glyph-name="idieresis" unicode="&#xef;" horiz-adv-x="390" 
d="M287.5 652c15.667 0 29.167 -5.5 40.5 -16.5s17 -24.333 17 -40s-5.66699 -29.167 -17 -40.5s-24.833 -17 -40.5 -17s-29 5.66699 -40 17s-16.5 24.833 -16.5 40.5s5.5 29 16.5 40s24.333 16.5 40 16.5zM158 595.5c0 -15.667 -5.5 -29.167 -16.5 -40.5
s-24.333 -17 -40 -17s-29 5.66699 -40 17s-16.5 24.833 -16.5 40.5s5.5 29 16.5 40s24.333 16.5 40 16.5s29 -5.5 40 -16.5s16.5 -24.333 16.5 -40zM239 480c5.33301 0 10 -2 14 -6s6 -8.66699 6 -14v-430c0 -6 -2 -11 -6 -15s-8.66699 -6 -14 -6h-88c-6 0 -11 2 -15 6
s-6 9 -6 15v430c0 5.33301 2 10 6 14s9 6 15 6h88z" />
    <glyph glyph-name="eth" unicode="&#xf0;" horiz-adv-x="580" 
d="M542 241c0 -1.33301 -0.164062 -3.5 -0.49707 -6.5s-0.5 -5.16699 -0.5 -6.5v-2.5v-1.5h-1c-4.66699 -71.333 -34.667 -130.166 -90 -176.499s-119.333 -65.166 -192 -56.499c-56.667 7.33301 -105.5 31.666 -146.5 72.999s-64.833 90.333 -71.5 147
c-6 50 1.66699 96.667 23 140s52.333 77.833 93 103.5s85.334 38.5 134.001 38.5c3.33301 0 13.333 -1 30 -3c-13.333 18 -29 35.333 -47 52c-10 9.33301 -20.667 9.66602 -32 0.999023l-62 -47l-26 35c-4.66699 5.33301 -6.5 11.333 -5.5 18s4.16699 12 9.5 16l12 9
c7.33301 5.33301 10.666 12.5 9.99902 21.5s-5 15.5 -13 19.5c-18.667 10 -37.334 18 -56.001 24l-4 1c-6.66699 2 -11.5 6.16699 -14.5 12.5s-3.5 12.5 -1.5 18.5l25 76c2 6.66699 6 11.5 12 14.5s12.333 3.5 19 1.5l4 -1c52 -17.333 100.667 -41.333 146 -72
c9.33301 -6.66699 18.666 -6.33398 27.999 0.999023l21 15c5.33301 4 11.333 5.5 18 4.5s12 -4.16699 16 -9.5l12 -15c4 -5.33301 5.5 -11.333 4.5 -18s-4.16699 -12 -9.5 -16c-6 -4.66699 -9.33301 -10.667 -10 -18s1.66602 -13.666 6.99902 -18.999
c85.333 -89.333 136 -195.333 152 -318c4.66699 -20 7 -38.667 7 -56zM290.003 118c31.333 0 58.668 10.667 82.001 32s36.666 47.333 39.999 78c-0.666992 10 -2 25.333 -4 46c-7.33301 26 -21.833 47.5 -43.5 64.5s-46.5 25.5 -74.5 25.5c-34 0 -63 -12 -87 -36
s-36 -53 -36 -87s12 -63 36 -87s53 -36 87 -36z" />
    <glyph glyph-name="ntilde" unicode="&#xf1;" horiz-adv-x="515" 
d="M272 488c60.667 0 109.834 -19.3311 147.501 -57.998s56.5 -88.334 56.5 -149.001v-246c0 -6.66699 -2.33301 -12.5 -7 -17.5s-10.334 -7.5 -17.001 -7.5h-80c-6.66699 0 -12.5 2.5 -17.5 7.5s-7.5 10.833 -7.5 17.5v242c0 23.333 -7.66699 44.166 -23 62.499
s-34.666 28.5 -57.999 30.5c-26.667 2.66699 -49.834 -5 -69.501 -23s-29.5 -40 -29.5 -66v-242c0 -6.66699 -2.33301 -12.5 -7 -17.5s-10.334 -7.5 -17.001 -7.5h-80c-7.33301 0 -13.333 2.5 -18 7.5s-7 10.833 -7 17.5v422c0 7.33301 2.33301 13.333 7 18
s10.334 7 17.001 7h61c12 0 22.333 -4.33301 31 -13s13 -19 13 -31c10.667 10.667 27 21 49 31s40.667 15 56 15zM132 563.002l-17 13c-6 4 -9.33301 9.5 -10 16.5s1.33301 12.833 6 17.5c28 29.333 58.667 44 92 44c26 0 50.333 -9 73 -27l8 -7c22 -16.667 44.667 -15 68 5
c10 8.66699 20 9 30 1l17 -14c5.33301 -4.66699 8.16602 -10.5 8.49902 -17.5s-2.16699 -13.167 -7.5 -18.5c-26 -24 -54.333 -36 -85 -36c-25.333 0 -49.666 9 -72.999 27c-2.66699 2 -5.66699 4.66699 -9 8c-10 7.33301 -20 11 -30 11c-13.333 0 -27 -7 -41 -21
c-9.33301 -9.33301 -19.333 -10 -30 -2z" />
    <glyph glyph-name="ograve" unicode="&#xf2;" horiz-adv-x="580" 
d="M281 553l-43 80.998c-2.66699 4.66699 -3 8.83398 -1 12.501s6 5.5 12 5.5h31c5.33301 0 10.666 -2 15.999 -6s9 -8.66699 11 -14l26 -78c2 -5.33301 1.66699 -9.83301 -1 -13.5s-7 -5.5 -13 -5.5h-8c-4 0 -8 0.833008 -12 2.5s-7.66699 3.83398 -11 6.50098
s-5.66602 5.66699 -6.99902 9zM290 492.998c69.333 0 128.666 -24.667 177.999 -74s74 -108.666 74 -177.999s-24.667 -128.666 -74 -177.999s-108.666 -74 -177.999 -74s-128.666 24.667 -177.999 74s-74 108.666 -74 177.999s24.667 128.666 74 177.999
s108.666 74 177.999 74zM290 117.998c34 0 63 12 87 36s36 53 36 87s-12 63 -36 87s-53 36 -87 36s-63 -12 -87 -36s-36 -53 -36 -87s12 -63 36 -87s53 -36 87 -36z" />
    <glyph glyph-name="oacute" unicode="&#xf3;" 
d="M290 493c69.333 0 128.666 -24.667 177.999 -74s74 -108.666 74 -177.999s-24.667 -128.666 -74 -177.999s-108.666 -74 -177.999 -74s-128.666 24.667 -177.999 74s-74 108.666 -74 177.999s24.667 128.666 74 177.999s108.666 74 177.999 74zM290 118c34 0 63 12 87 36
s36 53 36 87s-12 63 -36 87s-53 36 -87 36s-63 -12 -87 -36s-36 -53 -36 -87c0 -16.667 3.33301 -32.5 10 -47.5s15.5 -28 26.5 -39s24 -19.833 39 -26.5s30.833 -10 47.5 -10zM260 535c-5.33301 0 -9.3291 1.83301 -11.9961 5.5s-3 8.16699 -1 13.5l26 78
c2 5.33301 5.66699 10 11 14s10.666 6 15.999 6h31c5.33301 0 9.16602 -1.83301 11.499 -5.5s2.16602 -7.83398 -0.500977 -12.501l-43 -81c-2.66699 -5.33301 -6.83398 -9.66602 -12.501 -12.999s-11.5 -5 -17.5 -5h-9z" />
    <glyph glyph-name="ocircumflex" unicode="&#xf4;" 
d="M188 533c-5.33301 0 -8.82812 1.66699 -10.4951 5s-0.833984 7.33301 2.49902 12l98 137c3.33301 4.66699 7.16602 7 11.499 7s8.16602 -2.33301 11.499 -7l98 -137c3.33301 -4.66699 4.16602 -8.66699 2.49902 -12s-5.16699 -5 -10.5 -5h-43
c-13.333 0 -24 5.66699 -32 17l-15 20c-2.66699 4.66699 -6.33398 7 -11.001 7s-8.66699 -2.33301 -12 -7l-15 -20c-7.33301 -11.333 -18 -17 -32 -17h-43zM365.005 480c52 -16 94.498 -46 127.498 -90s49.5 -93.667 49.5 -149c0 -69.333 -24.667 -128.666 -74 -177.999
s-108.666 -74 -177.999 -74s-128.666 24.667 -177.999 74s-74 108.666 -74 177.999c0 36.667 7.66699 71.5 23 104.5s36.333 61 63 84s57 39.833 91 50.5c26.667 8.66699 51.667 13 75 13s48.333 -4.33301 75 -13zM290.003 118c34 0 63 12 87 36s36 53 36 87s-12 63 -36 87
s-53 36 -87 36s-63 -12 -87 -36s-36 -53 -36 -87c0 -16.667 3.33301 -32.5 10 -47.5s15.5 -28 26.5 -39s24 -19.833 39 -26.5s30.833 -10 47.5 -10z" />
    <glyph glyph-name="otilde" unicode="&#xf5;" 
d="M167 561l-22 16.999c-4.66699 4 -7.33398 8.83301 -8.00098 14.5s1 10.834 5 15.501c28 30.667 59.333 46 94 46c26 0 50.333 -9 73 -27l8 -7c22 -17.333 45.333 -15 70 7c8.66699 7.33301 17.334 7.33301 26.001 0l22 -17c4.66699 -4 7.16699 -9 7.5 -15
s-1.83398 -11 -6.50098 -15c-26.667 -26.667 -56 -40 -88 -40c-26 0 -50.333 9 -73 27c-3.33301 2 -6.66602 4.66699 -9.99902 8c-9.33301 7.33301 -19 11 -29 11c-14 0 -28 -7.33301 -42 -22c-8.66699 -8.66699 -17.667 -9.66699 -27 -3zM290 492.999
c69.333 0 128.666 -24.667 177.999 -74s74 -108.666 74 -177.999s-24.667 -128.666 -74 -177.999s-108.666 -74 -177.999 -74s-128.666 24.667 -177.999 74s-74 108.666 -74 177.999s24.667 128.666 74 177.999s108.666 74 177.999 74zM290 117.999c34 0 63 12 87 36
s36 53 36 87s-12 63 -36 87s-53 36 -87 36s-63 -12 -87 -36s-36 -53 -36 -87s12 -63 36 -87s53 -36 87 -36z" />
    <glyph glyph-name="odieresis" unicode="&#xf6;" 
d="M383.5 538c-15.667 0 -29.167 5.66699 -40.5 17s-17 24.833 -17 40.5s5.66699 29 17 40s24.833 16.5 40.5 16.5s29 -5.5 40 -16.5s16.5 -24.333 16.5 -40s-5.5 -29.167 -16.5 -40.5s-24.333 -17 -40 -17zM197 538c-10 0 -19.499 2.66699 -28.499 8s-16 12.333 -21 21
s-7.5 18 -7.5 28c0 16 5.66699 29.5 17 40.5s24.666 16.5 39.999 16.5s28.666 -5.5 39.999 -16.5s17 -24.333 17 -40s-5.66699 -29.167 -17 -40.5s-24.666 -17 -39.999 -17zM290.001 493c69.333 0 128.668 -24.6689 178.001 -74.002s74 -108.666 74 -177.999
s-24.667 -128.666 -74 -177.999s-108.666 -74 -177.999 -74c-45.333 0 -87.333 11.333 -126 34s-69.334 53.334 -92.001 92.001s-34 80.667 -34 126c0 69.333 24.667 128.666 74 177.999s108.666 74 177.999 74zM290.003 117.998c34 0 63 12 87 36s36 53 36 87
s-12 63 -36 87s-53 36 -87 36s-63 -12 -87 -36s-36 -53 -36 -87c0 -16.667 3.33301 -32.5 10 -47.5s15.5 -28 26.5 -39s24 -19.833 39 -26.5s30.833 -10 47.5 -10z" />
    <glyph glyph-name="divide" unicode="&#xf7;" horiz-adv-x="516" 
d="M257 450c-20 0 -37.167 7.16699 -51.5 21.5s-21.5 31.5 -21.5 51.5s7.16699 37 21.5 51s31.5 21 51.5 21s37 -7 51 -21s21 -31 21 -51s-7 -37.167 -21 -51.5s-31 -21.5 -51 -21.5zM257 124c-20 0 -37.167 7.16699 -51.5 21.5s-21.5 31.5 -21.5 51.5s7.16699 37 21.5 51
s31.5 21 51.5 21s37 -7 51 -21s21 -31 21 -51s-7 -37.167 -21 -51.5s-31 -21.5 -51 -21.5zM443 424c5.33301 0 10 -2 14 -6s6 -8.66699 6 -14v-89c0 -5.33301 -2 -10 -6 -14s-8.66699 -6 -14 -6h-373c-5.33301 0 -10 2 -14 6s-6 8.66699 -6 14v89c0 5.33301 2 10 6 14
s8.66699 6 14 6h373z" />
    <glyph glyph-name="oslash" unicode="&#xf8;" 
d="M290 493c69.333 0 128.666 -24.667 177.999 -74s74 -108.666 74 -177.999s-24.667 -128.666 -74 -177.999s-108.666 -74 -177.999 -74s-128.666 24.667 -177.999 74s-74 108.666 -74 177.999s24.667 128.666 74 177.999s108.666 74 177.999 74zM167 232
c0.666992 -5.33301 2.83301 -8.16602 6.5 -8.49902s7.5 1.16699 11.5 4.5l119 118c4 4 5.66699 7.66699 5 11s-3.66699 5.66602 -9 6.99902h-10c-34 0 -63 -12 -87 -36s-36 -53 -36 -87v-9zM412.999 241l-0.000976562 9c-1.33301 5.33301 -3.66602 8.33301 -6.99902 9
s-7 -1 -11 -5l-119 -118c-4 -3.33301 -5.66699 -6.83301 -5 -10.5s3.66699 -6.16699 9 -7.5h10c34 0 63 12 87 36s36 53 36 87z" />
    <glyph glyph-name="ugrave" unicode="&#xf9;" horiz-adv-x="515" 
d="M248 553l-42.9971 80.998c-2.66699 4.66699 -2.83398 8.83398 -0.500977 12.501s6.16602 5.5 11.499 5.5h31c5.33301 0 10.666 -2 15.999 -6s9 -8.66699 11 -14l26 -78c2 -5.33301 1.66699 -9.83301 -1 -13.5s-6.66699 -5.5 -12 -5.5h-9c-4 0 -8 0.833008 -12 2.5
s-7.5 3.83398 -10.5 6.50098s-5.5 5.66699 -7.5 9zM452.003 463.998c6.66699 0 12.333 -2.33398 17 -7.00098s7 -10.334 7 -17.001v-423c0 -6.66699 -2.33301 -12.334 -7 -17.001s-10.334 -7 -17.001 -7h-61c-8 0 -15.333 2 -22 6s-12 9.33301 -16 16s-6 14 -6 22
c-10 -10.667 -26 -21 -48 -31s-41 -15 -57 -15c-60 0 -109 19.333 -147 58s-57 88.334 -57 149.001v246c0 6.66699 2.33301 12.5 7 17.5s10.667 7.5 18 7.5h80c6.66699 0 12.334 -2.5 17.001 -7.5s7 -10.833 7 -17.5v-242c0 -23.333 7.66699 -44.166 23 -62.499
s34.666 -28.5 57.999 -30.5c26.667 -2.66699 49.834 5 69.501 23s29.5 40 29.5 66v242c0 6.66699 2.33301 12.334 7 17.001s10.667 7 18 7h80z" />
    <glyph glyph-name="uacute" unicode="&#xfa;" horiz-adv-x="515" 
d="M228 535c-6 0 -10.3311 1.83301 -12.998 5.5s-3 8.16699 -1 13.5l27 78c1.33301 5.33301 4.66602 10 9.99902 14s11 6 17 6h30c6 0 10 -1.83301 12 -5.5s1.66699 -7.83398 -1 -12.501l-43 -81c-2.66699 -5.33301 -6.83398 -9.66602 -12.501 -12.999s-11.5 -5 -17.5 -5h-8
zM452.002 464c6.66699 0 12.3311 -2.33398 16.998 -7.00098s7 -10.334 7 -17.001v-423c0 -6.66699 -2.33301 -12.334 -7 -17.001s-10.334 -7 -17.001 -7h-61c-12 0 -22.333 4.33301 -31 13s-13 19 -13 31c-10 -10.667 -26 -21 -48 -31s-41 -15 -57 -15
c-60 0 -109 19.333 -147 58s-57 88.334 -57 149.001v246c0 6.66699 2.33301 12.5 7 17.5s10.667 7.5 18 7.5h80c6.66699 0 12.334 -2.5 17.001 -7.5s7 -10.833 7 -17.5v-242c0 -23.333 7.83301 -44.166 23.5 -62.499s34.834 -28.5 57.501 -30.5
c26.667 -2.66699 49.834 5 69.501 23s29.5 40 29.5 66v242c0 6.66699 2.5 12.334 7.5 17.001s10.833 7 17.5 7h80z" />
    <glyph glyph-name="ucircumflex" unicode="&#xfb;" horiz-adv-x="515" 
d="M156 533c-6 0 -9.83105 1.66699 -11.498 5s-0.833984 7.33301 2.49902 12l98 137c3.33301 4.66699 7.33301 7 12 7s8.66699 -2.33301 12 -7l98 -137c3.33301 -4.66699 4.16602 -8.66699 2.49902 -12s-5.5 -5 -11.5 -5h-42c-14 0 -25 5.66699 -33 17l-14 20
c-3.33301 4.66699 -7.33301 7 -12 7s-8.66699 -2.33301 -12 -7l-14 -20c-8 -11.333 -18.667 -17 -32 -17h-43zM452.002 464c6.66699 0 12.333 -2.33398 17 -7.00098s7 -10.334 7 -17.001v-423c0 -6.66699 -2.33301 -12.334 -7 -17.001s-10.334 -7 -17.001 -7h-61
c-12 0 -22.333 4.33301 -31 13s-13 19 -13 31c-10 -10.667 -26 -21 -48 -31s-41 -15 -57 -15c-60 0 -109 19.333 -147 58s-57 88.334 -57 149.001v246c0 6.66699 2.33301 12.5 7 17.5s10.667 7.5 18 7.5h80c6.66699 0 12.334 -2.5 17.001 -7.5s7 -10.833 7 -17.5v-242
c0 -23.333 7.66699 -44.166 23 -62.499s34.666 -28.5 57.999 -30.5c26.667 -2.66699 49.834 5 69.501 23s29.5 40 29.5 66v242c0 6.66699 2.33301 12.334 7 17.001s10.667 7 18 7h80z" />
    <glyph glyph-name="udieresis" unicode="&#xfc;" horiz-adv-x="515" 
d="M164 538c-15.333 0 -28.666 5.66699 -39.999 17s-17 24.833 -17 40.5s5.66699 29 17 40s24.666 16.5 39.999 16.5s28.666 -5.5 39.999 -16.5s17 -24.333 17 -40s-5.66699 -29.167 -17 -40.5s-24.666 -17 -39.999 -17zM350 538c-10 0 -19.333 2.66699 -28 8
s-15.667 12.333 -21 21s-8 18 -8 28c0 16 5.66699 29.5 17 40.5s24.833 16.5 40.5 16.5s29 -5.5 40 -16.5s16.5 -24.333 16.5 -40s-5.5 -29.167 -16.5 -40.5s-24.5 -17 -40.5 -17zM452 464c4 0 7.99805 -1.00098 11.998 -3.00098s7 -4.83301 9 -8.5s3 -7.83398 3 -12.501
v-423c0 -6.66699 -2.33301 -12.334 -7 -17.001s-10.334 -7 -17.001 -7h-61c-12 0 -22.333 4.33301 -31 13s-13 19 -13 31c-10 -10.667 -26 -21 -48 -31s-41 -15 -57 -15c-60 0 -109 19.333 -147 58s-57 88.334 -57 149.001v246c0 6.66699 2.33301 12.5 7 17.5
s10.667 7.5 18 7.5h80c6.66699 0 12.334 -2.5 17.001 -7.5s7 -10.833 7 -17.5v-242c0 -23.333 7.83301 -44.166 23.5 -62.499s34.834 -28.5 57.501 -30.5c26.667 -2.66699 49.834 5 69.501 23s29.5 40 29.5 66v242c0 6.66699 2.5 12.334 7.5 17.001s10.833 7 17.5 7h80z" />
    <glyph glyph-name="yacute" unicode="&#xfd;" horiz-adv-x="579" 
d="M257 535c-5.33301 0 -9.5 1.83496 -12.5 5.50195s-3.5 8.16699 -1.5 13.5l27 78c2 5.33301 5.5 10 10.5 14s10.5 6 16.5 6h31c5.33301 0 9 -1.83301 11 -5.5s1.66699 -7.83398 -1 -12.501l-42 -81c-2 -3.33301 -4.66699 -6.33301 -8 -9s-7 -4.83398 -11 -6.50098
s-7.66699 -2.5 -11 -2.5h-9zM521 479.002l20.002 0.000976562c-2.66699 -6 -5.66699 -12.333 -9 -19l-236 -487l-9 -19l-9 -18l-57 -117l-9 -19c-1.33301 -3.33301 -3 -6.66602 -5 -9.99902c-3.33301 -7.33301 -12 -11 -26 -11h-102c-6 0 -10 1.66699 -12 5
s-2 7.66602 0 12.999l139 286c6 12 6 24 0 36l-168 341c-2.66699 5.33301 -2.83398 9.66602 -0.500977 12.999s6.16602 5 11.499 5h103c4 0 8 -0.666992 12 -2s7.5 -3.5 10.5 -6.5s5.5 -6.16699 7.5 -9.5l95 -193c2.66699 -5.33301 5.66699 -8 9 -8s6.33301 2.66699 9 8
l94 193l9 19h123z" />
    <glyph glyph-name="thorn" unicode="&#xfe;" 
d="M331 490c59.333 -10.667 109.165 -39.332 149.498 -85.999s60.833 -100.334 61.5 -161.001c0.666992 -70 -23.666 -129.833 -72.999 -179.5s-109 -74.5 -179 -74.5c-42.667 0 -83.667 11 -123 33v-219c0 -6.66699 -2.33301 -12.334 -7 -17.001s-10.334 -7 -17.001 -7h-80
c-7.33301 0 -13.333 2.33301 -18 7s-7 10.334 -7 17.001v882c0 6.66699 2.33301 12.334 7 17.001s10.667 7 18 7h80c6.66699 0 12.334 -2.33301 17.001 -7s7 -10.334 7 -17.001v-225c52.667 29.333 107.334 39.333 164.001 30zM289.999 118.002c34 0 63 12 87 36
s36 53 36 87s-12 63 -36 87s-53 36 -87 36c-22 0 -42.5 -5.5 -61.5 -16.5s-34 -26 -45 -45s-16.5 -39.5 -16.5 -61.5c0 -34 12 -63 36 -87s53 -36 87 -36z" />
    <glyph glyph-name="ydieresis" unicode="&#xff;" horiz-adv-x="579" 
d="M380.5 538c-15.667 0 -29 5.66699 -40 17s-16.5 24.833 -16.5 40.5s5.5 29 16.5 40s24.333 16.5 40 16.5s29 -5.5 40 -16.5s16.5 -24.333 16.5 -40s-5.5 -29.167 -16.5 -40.5s-24.333 -17 -40 -17zM194 538c-10 0 -19.333 2.66699 -28 8s-15.5 12.333 -20.5 21
s-7.5 18 -7.5 28c0 16 5.5 29.5 16.5 40.5s24.333 16.5 40 16.5s29 -5.5 40 -16.5s16.5 -24.333 16.5 -40s-5.5 -29.167 -16.5 -40.5s-24.5 -17 -40.5 -17zM522 479l20.002 -1l-9 -18l-236 -488l-9 -18l-1 -2l-3.5 -7l-4.5 -9l-67 -139
c-2.66699 -5.33301 -6.83398 -9.66602 -12.501 -12.999s-11.5 -5 -17.5 -5h-102c-6 0 -10 1.66699 -12 5s-2 7.66602 0 12.999l20 41l9 19l9 18l101 208c6 12 6 24 0 36l-168 341c-2.66699 5.33301 -2.83398 9.83301 -0.500977 13.5s6.16602 5.5 11.499 5.5h103
c6 0 11.833 -1.83301 17.5 -5.5s9.83398 -8.16699 12.501 -13.5l95 -193c2.66699 -5.33301 5.66699 -8 9 -8s6.33301 2.66699 9 8l94 193l9 19h123z" />
    <glyph glyph-name="dotlessi" unicode="&#x131;" horiz-adv-x="205" 
d="M147 480c5.33301 0 10 -2 14 -6s6 -8.66699 6 -14v-430c0 -6 -2 -11 -6 -15s-8.66699 -6 -14 -6h-89c-5.33301 0 -10 2 -14 6s-6 9 -6 15v430c0 5.33301 2 10 6 14s8.66699 6 14 6h89z" />
    <glyph glyph-name="Lslash" unicode="&#x141;" horiz-adv-x="549" 
d="M477 118c4 0 7.5 -0.832031 10.5 -2.49902s5.5 -4.16699 7.5 -7.5s3 -6.66602 3 -9.99902v-88c0 -6 -2 -11 -6 -15s-9 -6 -15 -6h-364c-5.33301 0 -10 2 -14 6s-6 9 -6 15v254c0 6 -1.83301 10.167 -5.5 12.5s-7.83398 2.16602 -12.501 -0.500977l-7 -3
c-4.66699 -2.66699 -8.83398 -2.83398 -12.501 -0.500977s-5.5 6.5 -5.5 12.5v57c0 5.33301 1.83301 10.833 5.5 16.5s7.83398 9.83398 12.501 12.501l7 3c3.33301 1.33301 6.33301 3.66602 9 6.99902s4.83398 7 6.50098 11s2.5 7.66699 2.5 11v287c0 5.33301 2 10 6 14
s8.66699 6 14 6h89c5.33301 0 10 -2 14 -6s6 -8.66699 6 -14v-225c0 -6 1.83301 -10.167 5.5 -12.5s8.16699 -2.16602 13.5 0.500977l10 5c5.33301 2.66699 9.83301 2.83398 13.5 0.500977s5.5 -6.5 5.5 -12.5v-57c0 -5.33301 -1.83301 -10.833 -5.5 -16.5
s-8.16699 -9.83398 -13.5 -12.501l-10 -5c-5.33301 -2.66699 -9.83301 -6.83398 -13.5 -12.501s-5.5 -11.167 -5.5 -16.5v-187c0 -6 2 -11 6 -15s9 -6 15 -6h234z" />
    <glyph glyph-name="lslash" unicode="&#x142;" horiz-adv-x="397" 
d="M368 412c2.66699 -5.33301 2.99805 -10.665 0.998047 -15.998s-5.33301 -9 -10 -11l-78 -38c-3.33301 -1.33301 -6.5 -3.66602 -9.5 -6.99902s-5.33301 -7 -7 -11s-2.5 -7.66699 -2.5 -11v-288c0 -6 -2 -11 -6 -15s-8.66699 -6 -14 -6h-89
c-3.33301 0 -6.66602 1 -9.99902 3s-5.83301 4.5 -7.5 7.5s-2.5 6.5 -2.5 10.5v226c0 5.33301 -1.83301 9.16602 -5.5 11.499s-7.83398 2.16602 -12.501 -0.500977l-34 -16c-5.33301 -2 -10.666 -2.16699 -15.999 -0.5s-9 5.16699 -11 10.5l-27 55
c-2.66699 5.33301 -3 10.666 -1 15.999s5.66699 9 11 11l78 38c4.66699 2 8.83398 5.83301 12.501 11.5s5.5 11.5 5.5 17.5v315c0 5.33301 2 10 6 14s8.66699 6 14 6h89c5.33301 0 10 -2 14 -6s6 -8.66699 6 -14v-253c0 -6 1.83301 -10 5.5 -12s8.16699 -2 13.5 0l34 17
c4.66699 2 9.66699 2.16699 15 0.5s9.33301 -5.16699 12 -10.5z" />
    <glyph glyph-name="OE" unicode="&#x152;" horiz-adv-x="1107" 
d="M809 601c-4 0 -7.83496 -1.16406 -11.502 -3.49707s-6.66699 -5.33301 -9 -9s-3.5 -7.5 -3.5 -11.5v-174c0 -7.33301 2.33301 -13.333 7 -18s10.334 -7 17.001 -7h111c4 0 7.83301 -1 11.5 -3s6.66699 -5 9 -9s3.5 -8 3.5 -12v-81
c0 -6.66699 -2.33301 -12.334 -7 -17.001s-10.334 -7 -17.001 -7h-111c-6.66699 0 -12.334 -2.33301 -17.001 -7s-7 -10.334 -7 -17.001v-82c0 -6.66699 2.33301 -12.5 7 -17.5s10.334 -7.5 17.001 -7.5h227c6.66699 0 12.334 -2.33301 17.001 -7s7 -10.334 7 -17.001v-81
c0 -6.66699 -2.33301 -12.334 -7 -17.001s-10.334 -7 -17.001 -7h-356c-6.66699 0 -12.334 2.33301 -17.001 7s-7 10.334 -7 17.001v66c-70 -60 -150.667 -90 -242 -90c-68.667 0 -132.167 17.667 -190.5 53s-103.666 83 -135.999 143s-46.5 125 -42.5 195
c4.66699 95.333 41.834 176.833 111.501 244.5s152.167 102.834 247.5 105.501s179.333 -27.333 252 -90v66c0 6.66699 2.33301 12.334 7 17.001s10.334 7 17.001 7h356c6.66699 0 12.334 -2.33301 17.001 -7s7 -10.334 7 -17.001v-81
c0 -6.66699 -2.33301 -12.334 -7 -17.001s-10.334 -7 -17.001 -7h-227zM414.498 118.003c66.333 0 123.166 23.667 170.499 71s71 104.166 71 170.499s-23.667 123.166 -71 170.499s-104.166 71 -170.499 71s-123.166 -23.667 -170.499 -71s-71 -104.166 -71 -170.499
s23.667 -123.166 71 -170.499s104.166 -71 170.499 -71z" />
    <glyph glyph-name="oe" unicode="&#x153;" horiz-adv-x="958" 
d="M912 293l7.00293 -21.999c1.33301 -6 0.666016 -11.333 -2.00098 -16s-6.66699 -8 -12 -10l-304 -89c-5.33301 -1.33301 -8.5 -3.83301 -9.5 -7.5s0.5 -7.16699 4.5 -10.5l8 -5c30 -16 61.333 -19.333 94 -10c9.33301 2.66699 19.166 7.66699 29.499 15
s18.166 14 23.499 20l8 9c3.33301 4 8 6.66699 14 8s11.667 0.666016 17 -2.00098l77 -43c5.33301 -2.66699 8.33301 -6.5 9 -11.5s-0.666016 -9.5 -3.99902 -13.5c-5.33301 -6.66699 -12.666 -15 -21.999 -25s-26.166 -24.5 -50.499 -43.5s-45.833 -31.5 -64.5 -37.5
c-23.333 -6.66699 -47.333 -10 -72 -10c-42.667 0 -83 10.333 -121 31c-7.33301 4 -15.333 9.33301 -24 16s-15.667 12.334 -21 17.001l-7 7c-4 4 -9 6.16699 -15 6.5s-11.333 -1.16699 -16 -4.5c-7.33301 -5.33301 -17 -12 -29 -20s-33.167 -18.833 -63.5 -32.5
s-56.5 -20.5 -78.5 -20.5c-45.333 0 -87.333 11.333 -126 34s-69.334 53.334 -92.001 92.001s-34 80.667 -34 126c0 69.333 24.667 128.666 74 177.999s108.666 74 177.999 74c22 0 47.167 -6 75.5 -18s51.166 -24 68.499 -36l26 -18
c4.66699 -3.33301 10.167 -4.83301 16.5 -4.5s11.5 2.16602 15.5 5.49902c37.333 32.667 71.333 53.334 102 62.001c67.333 20 131.666 13.333 192.999 -20c37.333 -20.667 67.666 -49 90.999 -85c2 -4 4.33301 -8.33301 7 -13s4.83398 -8.83398 6.50098 -12.501l5 -10.5
c1.66699 -3.33301 2.83398 -6 3.50098 -8l1 -3c4.66699 -12 9 -25 13 -39zM288.003 118.001c34 0 63 12 87 36s36 53 36 87s-12 63 -36 87s-53 36 -87 36s-63 -12 -87 -36s-36 -53 -36 -87s12 -63 36 -87s53 -36 87 -36zM727.003 328.001
c5.33301 1.33301 8.50098 3.66797 9.50098 7.00098s-0.833008 6.66602 -5.5 9.99902l-8 5c-18.667 10 -38.334 15 -59.001 15c-12 0 -23.667 -1.66699 -35 -5c-32.667 -9.33301 -57.334 -29 -74.001 -59l-5 -9c-1.33301 -4.66699 -0.666016 -8.16699 2.00098 -10.5
s6.66699 -2.83301 12 -1.5z" />
    <glyph glyph-name="Scaron" unicode="&#x160;" horiz-adv-x="579" 
d="M538 218c7.33301 -70 -11 -132.008 -55 -186.008c-44 -54.667 -101 -85.667 -171 -93c-8.66699 -0.666992 -17.334 -1 -26.001 -1c-60 0 -113.333 18.833 -160 56.5s-76 85.5 -88 143.5c-2 7.33301 -0.833008 14 3.5 20s10.166 9.33301 17.499 10l80 8
c4 0.666992 7.83301 0.166992 11.5 -1.5s6.83398 -4 9.50098 -7s4.66699 -6.16699 6 -9.5c5.33301 -19.333 14.5 -36.166 27.5 -50.499s28.667 -25 47 -32s37.833 -9.5 58.5 -7.5c43.333 4.66699 75.666 26.334 96.999 65.001c13.333 23.333 17.666 50 12.999 80
c-4.66699 30.667 -17.167 53.5 -37.5 68.5s-52.5 29.833 -96.5 44.5c-28.667 10 -49 18 -61 24c-52.667 27.333 -89.334 63 -110.001 107s-22.334 91 -5.00098 141c13.333 38.667 36.666 69.834 69.999 93.501s71 36.167 113 37.5l-89 126c-6 8 -6.66699 16.5 -2 25.5
s12 13.5 22 13.5h23c8 0 14.667 -3.33301 20 -10l30 -43l31 43c4.66699 6.66699 11.334 10 20.001 10h23c10 0 17.333 -4.5 22 -13.5s4 -17.5 -2 -25.5l-90 -126c21.333 0 40 -2 56 -6c19.333 -4.66699 38.833 -13.5 58.5 -26.5s38.334 -31.833 56.001 -56.5
s28.834 -52 33.501 -82c1.33301 -7.33301 -0.5 -13.666 -5.5 -18.999s-11.167 -8.33301 -18.5 -9l-80 -1c-13.333 -0.666992 -21.666 5 -24.999 17c-6.66699 23.333 -23.667 40.666 -51 51.999c-12.667 2.66699 -25 3.33398 -37 2.00098s-23.167 -5.83301 -33.5 -13.5
s-17.833 -17.834 -22.5 -30.501c-2 -6.66699 -3.33301 -12.5 -4 -17.5s-0.166992 -11.833 1.5 -20.5s7.16699 -17.5 16.5 -26.5s22.333 -17.833 39 -26.5c6 -3.33301 20.333 -8.66602 43 -15.999c15.333 -5.33301 27.333 -9.66602 36 -12.999
s21.334 -8.66602 38.001 -15.999s30.167 -14.666 40.5 -21.999s22.333 -17.166 36 -29.499s24.834 -25.333 33.501 -39s16.5 -30.167 23.5 -49.5s11.5 -40 13.5 -62z" />
    <glyph glyph-name="scaron" unicode="&#x161;" horiz-adv-x="478" 
d="M316 690l2 -3h-4zM436 178c5.33301 -44 -6.33105 -83.999 -34.998 -119.999c-35.333 -43.333 -83.333 -67.666 -144 -72.999c-6.66699 -0.666992 -13.334 -1 -20.001 -1c-50.667 0 -94.834 14.667 -132.501 44s-59.5 66.333 -65.5 111l128 16
c1.33301 -11.333 9.83301 -21.5 25.5 -30.5s33.5 -12.5 53.5 -10.5c24 2 42 10.333 54 25c6 7.33301 8.66699 15 8 23c-1.33301 8.66699 -7.16602 15.5 -17.499 20.5s-29.5 10.5 -57.5 16.5c-25.333 5.33301 -44 10.666 -56 15.999c-42.667 17.333 -72.167 44 -88.5 80
s-16.5 73.667 -0.5 113c14 34 39.333 59.167 76 75.5s76 20.166 118 11.499c29.333 -6 57.166 -21 83.499 -45s39.833 -55 40.5 -93l-129 -3c0 2 -2.5 4.66699 -7.5 8s-9.5 5.66602 -13.5 6.99902c-11.333 2.66699 -21.833 2.5 -31.5 -0.5s-15.5 -6.16699 -17.5 -9.5
c-4 -10 2.66699 -18.333 20 -25c4 -2 15 -5 33 -9c11.333 -2 20.333 -3.83301 27 -5.5s16.5 -4.66699 29.5 -9s23.833 -8.66602 32.5 -12.999s18.5 -10.333 29.5 -18s20 -16 27 -25s13.333 -20 19 -33s9.5 -27.5 11.5 -43.5zM358.003 634.001l-120 -131l-120 131h92l28 -30
l28 30h92z" />
    <glyph glyph-name="Ydieresis" unicode="&#x178;" horiz-adv-x="689" 
d="M437.5 788c-15.667 0 -29 5.5 -40 16.5s-16.5 24.333 -16.5 40s5.5 29 16.5 40s24.333 16.5 40 16.5s29 -5.5 40 -16.5s16.5 -24.333 16.5 -40s-5.5 -29 -16.5 -40s-24.333 -16.5 -40 -16.5zM639 709c5.33301 0 9 -1.66699 11 -5s1.66699 -7.33301 -1 -12l-230 -379
c-6.66699 -11.333 -10 -24 -10 -38v-247c0 -6 -2 -11 -6 -15s-9 -6 -15 -6h-88c-5.33301 0 -10 2 -14 6s-6 9 -6 15v247c0 13.333 -3.66699 26 -11 38l-229 379c-3.33301 4.66699 -4 8.66699 -2 12s5.66699 5 11 5h111c3.33301 0 7 -0.666992 11 -2s7.83301 -3.5 11.5 -6.5
s6.5 -5.83301 8.5 -8.5l143 -236c2.66699 -5.33301 6 -8 10 -8s7.66699 2.66699 11 8l143 236c2.66699 4.66699 7 8.66699 13 12s12 5 18 5h110zM251.5 788c-15.667 0 -29 5.5 -40 16.5s-16.5 24.333 -16.5 40s5.5 29 16.5 40s24.333 16.5 40 16.5s29 -5.5 40 -16.5
s16.5 -24.333 16.5 -40s-5.5 -29 -16.5 -40s-24.333 -16.5 -40 -16.5z" />
    <glyph glyph-name="Zcaron" unicode="&#x17d;" horiz-adv-x="622" 
d="M209 783c-6 0 -9.83105 1.66699 -11.498 5s-0.833984 7.33301 2.49902 12l98 137c3.33301 4.66699 7.33301 7 12 7s8.66699 -2.33301 12 -7l98 -137c3.33301 -4.66699 4.16602 -8.66699 2.49902 -12s-5.5 -5 -11.5 -5h-43c-13.333 0 -24 5.66699 -32 17l-14 20
c-3.33301 4.66699 -7.33301 7 -12 7s-8.66699 -2.33301 -12 -7l-14 -20c-8 -11.333 -19 -17 -33 -17h-42zM585.002 692l-328 -543.002c-2.66699 -4.66699 -3.16699 -8.66699 -1.5 -12s5.5 -5 11.5 -5h260c6 0 11 -2 15 -6s6 -9 6 -15v-81c0 -5.33301 -2 -10 -6 -14
s-9 -6 -15 -6h-483c-5.33301 0 -9 1.66699 -11 5s-1.33301 7.33301 2 12l328 543c2.66699 4.66699 3 8.66699 1 12s-5.66699 5 -11 5h-261c-2.66699 0 -5.16699 0.666992 -7.5 2s-4.5 2.83301 -6.5 4.5s-3.5 3.83398 -4.5 6.50098s-1.5 5.33398 -1.5 8.00098v81
c0 5.33301 2 10 6 14s8.66699 6 14 6h483c6 0 9.83301 -1.66699 11.5 -5s1.16699 -7.33301 -1.5 -12z" />
    <glyph glyph-name="zcaron" unicode="&#x17e;" horiz-adv-x="551" 
d="M193 690l2 -3h-4zM349 690l2 -3h-4zM498 479l-222 -353h182v-121h-408l222 352h-188v122h414zM391 634l-120 -131l-120 131h92l28 -30l28 30h92z" />
    <glyph glyph-name="circumflex" unicode="&#x2c6;" horiz-adv-x="306" 
d="M263 571c3.33301 -4.66699 4.16797 -8.66699 2.50098 -12s-5.5 -5 -11.5 -5h-43c-13.333 0 -24 5.66699 -32 17l-14 20c-3.33301 4 -7.33301 6 -12 6s-8.66699 -2 -12 -6l-14 -20c-8 -11.333 -19 -17 -33 -17h-42c-6 0 -9.83301 1.66699 -11.5 5
s-0.833984 7.33301 2.49902 12l98 136c3.33301 4.66699 7.33301 7 12 7s8.66699 -2.33301 12 -7z" />
    <glyph glyph-name="caron" unicode="&#x2c7;" horiz-adv-x="306" 
d="M254 710c6 0 9.83105 -1.66699 11.498 -5s0.833984 -7.33301 -2.49902 -12l-98 -136c-3.33301 -4.66699 -7.33301 -7 -12 -7s-8.66699 2.33301 -12 7l-98 136c-3.33301 4.66699 -4.16602 8.66699 -2.49902 12s5.5 5 11.5 5h42c14 0 25 -5.66699 33 -17l14 -20
c3.33301 -4 7.33301 -6 12 -6s8.66699 2 12 6l14 20c8 11.333 18.667 17 32 17h43z" />
    <glyph glyph-name="ilde" unicode="&#x2dc;" horiz-adv-x="392" 
d="M337 682c5.33301 -4 8.33008 -9.5 8.99707 -16.5s-1.66602 -13.167 -6.99902 -18.5c-26 -24.667 -54.333 -37 -85 -37c-26 0 -50.333 9 -73 27c-2 1.33301 -5.33301 4 -10 8c-9.33301 7.33301 -19.333 11 -30 11c-13.333 0 -26.666 -6.66699 -39.999 -20
c-9.33301 -10 -19.666 -10.667 -30.999 -2l-16 12c-6 4.66699 -9.33301 10.5 -10 17.5s1.33301 12.833 6 17.5c28 28.667 58.333 43 91 43c26 0 50.667 -9 74 -27l7 -6c22 -17.333 44.667 -16 68 4c10 8.66699 20.333 9 31 1z" />
    <glyph glyph-name="endash" unicode="&#x2013;" horiz-adv-x="406" 
d="M335 305c6 0 10.999 -2 14.999 -6s6 -8.66699 6 -14v-89c0 -2.66699 -0.5 -5.16699 -1.5 -7.5s-2.5 -4.5 -4.5 -6.5s-4.16699 -3.5 -6.5 -4.5s-5.16602 -1.5 -8.49902 -1.5h-265c-5.33301 0 -10 2 -14 6s-6 8.66699 -6 14v89c0 5.33301 2 10 6 14s8.66699 6 14 6h265z
" />
    <glyph glyph-name="emdash" unicode="&#x2014;" horiz-adv-x="532" 
d="M459 305c5.33301 0 10 -2 14 -6s6 -8.66699 6 -14v-89c0 -5.33301 -2 -10 -6 -14s-8.66699 -6 -14 -6h-389c-5.33301 0 -10 2 -14 6s-6 8.66699 -6 14v89c0 5.33301 2 10 6 14s8.66699 6 14 6h389z" />
    <glyph glyph-name="quoteleft" unicode="&#x2018;" horiz-adv-x="220" 
d="M162 665c6 0 10.498 -1.83301 13.498 -5.5s3.83301 -8.16699 2.5 -13.5l-30 -130c-1.33301 -5.33301 -4.5 -10 -9.5 -14s-10.167 -6 -15.5 -6h-66c-6 0 -10.667 2 -14 6s-4.66602 8.66699 -3.99902 14l17 129c0.666992 6 3.33398 10.833 8.00098 14.5s9.66699 5.5 15 5.5
h83z" />
    <glyph glyph-name="quoteright" unicode="&#x2019;" horiz-adv-x="209" 
d="M152 665c5.33301 0 9.50098 -1.83105 12.501 -5.49805s3.83301 -8.16699 2.5 -13.5l-34 -130c-0.666992 -2.66699 -1.83398 -5.33398 -3.50098 -8.00098s-3.66699 -4.83398 -6 -6.50098s-5 -3 -8 -4s-5.83301 -1.5 -8.5 -1.5h-49c-5.33301 0 -9.83301 2 -13.5 6
s-5.16699 8.66699 -4.5 14l13 129c0.666992 6 3.16699 10.833 7.5 14.5s9.5 5.5 15.5 5.5h76z" />
    <glyph glyph-name="quotesinglbase" unicode="&#x201a;" horiz-adv-x="201" 
d="M145 56c5.33301 0 9.83301 -2 13.5 -6s5.16699 -8.66699 4.5 -14l-16 -138c-0.666992 -5.33301 -3.16699 -10 -7.5 -14s-9.16602 -6 -14.499 -6h-49c-5.33301 0 -10.333 2 -15 6s-7.33398 8.66699 -8.00098 14l-15 138c-0.666992 5.33301 0.833008 10 4.5 14
s8.16699 6 13.5 6h89z" />
    <glyph glyph-name="quoteleftreversed" unicode="&#x201b;" horiz-adv-x="168" 
d="M105 713c2.66699 0 5.33203 -0.666016 7.99902 -1.99902s4.83398 -2.83301 6.50098 -4.5s3 -3.83398 4 -6.50098s1.5 -5.33398 1.5 -8.00098v-42c0 -14 -2.5 -21 -7.5 -21s-8.16699 -4.33301 -9.5 -13v-7c0 -4.66699 0.5 -9.33398 1.5 -14.001
s1.83301 -8.33398 2.5 -11.001l1 -3c1.33301 -5.33301 1.16602 -11.166 -0.500977 -17.499s-4.5 -11.166 -8.5 -14.499l-2 -1c-4 -4 -8.83301 -5.66699 -14.5 -5s-10.167 3.33398 -13.5 8.00098c-12 15.333 -20.333 31 -25 47l-4 11
c-1.33301 13.333 -2.16602 20 -2.49902 20s-0.5 0.666992 -0.5 2v2v21v10v28c0 6 2 11 6 15s8.66699 6 14 6h43z" />
    <glyph glyph-name="quotedblleft" unicode="&#x201c;" horiz-adv-x="330" 
d="M143 665c6 0 10.667 -1.83301 14 -5.5s4.66602 -8.5 3.99902 -14.5l-14 -129c-0.666992 -5.33301 -3.33398 -10 -8.00098 -14s-9.66699 -6 -15 -6h-68c-5.33301 0 -9.5 2 -12.5 6s-3.83301 8.66699 -2.5 14l32 130c0.666992 3.33301 2.33398 6.5 5.00098 9.5
s5.83398 5.33301 9.50098 7s7.16699 2.5 10.5 2.5h45zM270 665c5.33301 0 9.83301 -1.83301 13.5 -5.5s5.16699 -8.5 4.5 -14.5l-15 -129c-0.666992 -3.33301 -2 -6.5 -4 -9.5s-4.66699 -5.5 -8 -7.5s-7 -3 -11 -3h-68c-5.33301 0 -9.5 2 -12.5 6s-3.83301 8.66699 -2.5 14
l32 130c1.33301 5.33301 4.5 9.83301 9.5 13.5s10.5 5.5 16.5 5.5h45z" />
    <glyph glyph-name="quotedblright" unicode="&#x201d;" horiz-adv-x="332" 
d="M274 665c5.33301 0 9.5 -1.83301 12.5 -5.5s3.83301 -8.16699 2.5 -13.5l-32 -130c-1.33301 -5.33301 -4.5 -10 -9.5 -14s-10.5 -6 -16.5 -6h-46c-6 0 -10.833 2 -14.5 6s-5.16699 8.66699 -4.5 14l15 129c0.666992 6 3.16699 10.833 7.5 14.5s9.5 5.5 15.5 5.5h70z
M147 665c6 0 10.501 -1.83301 13.501 -5.5s3.83301 -8.16699 2.5 -13.5l-33 -130c-1.33301 -5.33301 -4.5 -10 -9.5 -14s-10.167 -6 -15.5 -6h-47c-5.33301 0 -9.83301 2 -13.5 6s-5.16699 8.66699 -4.5 14l15 129c0 4 1.16699 7.5 3.5 10.5s5.16602 5.33301 8.49902 7
s7 2.5 11 2.5h69z" />
    <glyph glyph-name="quotedblbase" unicode="&#x201e;" horiz-adv-x="374" 
d="M145 56c5.33301 0 9.83203 -2 13.499 -6s5.16699 -8.66699 4.5 -14l-13 -138c0 -5.33301 -2.33301 -10 -7 -14s-9.66699 -6 -15 -6h-55c-3.33301 0 -6.66602 1 -9.99902 3s-6 4.5 -8 7.5s-3.33301 6.16699 -4 9.5l-13 138c-0.666992 5.33301 0.833008 10 4.5 14
s8.5 6 14.5 6h88zM316.999 56c5.33301 0 9.83105 -2 13.498 -6s5.16699 -8.66699 4.5 -14l-15 -138c-0.666992 -5.33301 -3.16699 -10 -7.5 -14s-9.5 -6 -15.5 -6h-49c-3.33301 0 -6.66602 1 -9.99902 3s-6.16602 4.5 -8.49902 7.5s-3.5 6.16699 -3.5 9.5l-16 138
c0 5.33301 1.66699 10 5 14s8 6 14 6h88z" />
    <glyph glyph-name="dagger" unicode="&#x2020;" horiz-adv-x="578" 
d="M506 511c5.33301 0 10 -2 14 -6s6 -8.66699 6 -14v-88c0 -6 -2 -11 -6 -15s-8.66699 -6 -14 -6h-133c-5.33301 0 -10 -2 -14 -6s-6 -8.66699 -6 -14v-424c0 -5.33301 -2 -10 -6 -14s-9 -6 -15 -6h-88c-5.33301 0 -10 2 -14 6s-6 8.66699 -6 14v424c0 5.33301 -2 10 -6 14
s-9 6 -15 6h-133c-5.33301 0 -10 2 -14 6s-6 9 -6 15v88c0 5.33301 2 10 6 14s8.66699 6 14 6h133c6 0 11 2 15 6s6 9 6 15v157c0 5.33301 2 10 6 14s8.66699 6 14 6h88c6 0 11 -2 15 -6s6 -8.66699 6 -14v-157c0 -6 2 -11 6 -15s8.66699 -6 14 -6h133z" />
    <glyph glyph-name="daggerdbl" unicode="&#x2021;" horiz-adv-x="579" 
d="M373 382c-5.33301 0 -10 -2 -14 -6s-6 -8.66699 -6 -14v-38c0 -5.33301 2 -10 6 -14s8.66699 -6 14 -6h133c5.33301 0 10 -2 14 -6s6 -9 6 -15v-88c0 -5.33301 -2 -10 -6 -14s-8.66699 -6 -14 -6h-133c-5.33301 0 -10 -2 -14 -6s-6 -9 -6 -15v-216
c0 -5.33301 -2 -10 -6 -14s-9 -6 -15 -6h-88c-5.33301 0 -10 2 -14 6s-6 8.66699 -6 14v216c0 6 -2 11 -6 15s-9 6 -15 6h-133c-5.33301 0 -10 2 -14 6s-6 8.66699 -6 14v88c0 6 2 11 6 15s8.66699 6 14 6h133c6 0 11 2 15 6s6 8.66699 6 14v38c0 5.33301 -2 10 -6 14
s-9 6 -15 6h-133c-5.33301 0 -10 2 -14 6s-6 9 -6 15v88c0 5.33301 2 10 6 14s8.66699 6 14 6h133c6 0 11 2 15 6s6 9 6 15v157c0 5.33301 2 10 6 14s8.66699 6 14 6h88c6 0 11 -2 15 -6s6 -8.66699 6 -14v-157c0 -6 2 -11 6 -15s8.66699 -6 14 -6h133
c5.33301 0 10 -2 14 -6s6 -8.66699 6 -14v-88c0 -6 -2 -11 -6 -15s-8.66699 -6 -14 -6h-133z" />
    <glyph glyph-name="bullet" unicode="&#x2022;" horiz-adv-x="221" 
d="M109 432c20 0 37.167 -7 51.5 -21s21.5 -31 21.5 -51s-7.16699 -37.167 -21.5 -51.5s-31.333 -21.5 -51 -21.5s-36.667 7.16699 -51 21.5s-21.5 31.5 -21.5 51.5s7 37 21 51s31 21 51 21z" />
    <glyph glyph-name="ellipsis" unicode="&#x2026;" horiz-adv-x="734" 
d="M94.5 74c15.667 0 29 -5.5 40 -16.5s16.5 -24.333 16.5 -40s-5.5 -29 -16.5 -40s-24.333 -16.5 -40 -16.5s-29 5.5 -40 16.5s-16.5 24.333 -16.5 40s5.5 29 16.5 40s24.333 16.5 40 16.5zM638.5 74c15.667 0 29 -5.5 40 -16.5s16.5 -24.333 16.5 -40s-5.5 -29 -16.5 -40
s-24.333 -16.5 -40 -16.5s-29 5.5 -40 16.5s-16.5 24.333 -16.5 40s5.5 29 16.5 40s24.333 16.5 40 16.5zM366.5 74c15.667 0 29 -5.5 40 -16.5s16.5 -24.333 16.5 -40s-5.5 -29 -16.5 -40s-24.333 -16.5 -40 -16.5s-29 5.5 -40 16.5s-16.5 24.333 -16.5 40s5.5 29 16.5 40
s24.333 16.5 40 16.5z" />
    <glyph glyph-name="perthousand" unicode="&#x2030;" horiz-adv-x="1170" 
d="M363 572c0 -29.333 -7.33301 -56.501 -22 -81.501s-34.5 -44.667 -59.5 -59s-52.167 -21.5 -81.5 -21.5c-44.667 0 -82.834 15.833 -114.501 47.5s-47.5 69.834 -47.5 114.501s15.833 82.834 47.5 114.501s69.834 47.5 114.501 47.5s83 -15.833 115 -47.5
s48 -69.834 48 -114.501zM200.5 538.999c9 0 16.667 3.16699 23 9.5s9.5 14.166 9.5 23.499s-3.16699 17.166 -9.5 23.499s-14 9.5 -23 9.5s-16.833 -3.16699 -23.5 -9.5s-10 -14.166 -10 -23.499s3.33301 -17.166 10 -23.499s14.5 -9.5 23.5 -9.5zM650 308.999
c44.667 -2 82.002 -19.332 112.002 -51.999c30.667 -33.333 45 -72.333 43 -117s-19.667 -82.334 -53 -113.001c-7.33301 -6.66699 -15.333 -12.667 -24 -18c-26 -16 -54.333 -24 -85 -24h-8c-26.667 1.33301 -52.334 9.33301 -77.001 24c-14 9.33301 -25.667 19 -35 29
c-30.667 33.333 -44.834 72.333 -42.501 117s19.833 82 52.5 112c34 30.667 73 44.667 117 42zM665.002 123c6.66699 6 10.168 13.502 10.501 22.502s-2.5 16.833 -8.5 23.5l-6 7c-11.333 2.66699 -17.333 4 -18 4c-8.66699 0 -16.334 -2.66699 -23.001 -8
c-6.66699 -6.66699 -10 -14.334 -10 -23.001c-0.666992 -9.33301 2 -17.333 8 -24l4 -4c12.667 -4.66699 25.667 -5.33398 39 -2.00098zM1088.5 256.502c30.333 -33 44.502 -71.832 42.502 -116.499s-19.667 -82.334 -53 -113.001
c-7.33301 -6.66699 -15.333 -12.667 -24 -18c-26 -16 -54.333 -24 -85 -24h-8c-26.667 1.33301 -52.334 9.33301 -77.001 24c-14.667 9.33301 -26.334 19 -35.001 29c-30.667 33.333 -45 72.333 -43 117s19.667 82 53 112c33.333 30.667 72.333 44.667 117 42
c44.667 -2 82.167 -19.5 112.5 -52.5zM991.005 123.003c6.66699 6 10.168 13.501 10.501 22.501s-2.5 17.167 -8.5 24.5l-6 6c-11.333 2.66699 -17.333 4 -18 4h-1c-8.66699 0 -16 -2.66699 -22 -8c-6.66699 -6 -10.167 -13.667 -10.5 -23s2.5 -17.333 8.5 -24l6 -7
c11.333 -2.66699 23.666 -2.33398 36.999 0.999023zM610.006 709.004c6 0 10.167 -1.83301 12.5 -5.5s2.5 -8.16699 0.5 -13.5l-265 -662c-2 -5.33301 -5.66699 -9.83301 -11 -13.5s-11 -5.5 -17 -5.5h-98c-5.33301 0 -9.33301 1.83301 -12 5.5s-3 8.16699 -1 13.5l265 662
c1.33301 3.33301 3.5 6.5 6.5 9.5s6.5 5.33301 10.5 7s7.66699 2.5 11 2.5h98z" />
    <glyph glyph-name="guilsinglright" unicode="&#x203a;" horiz-adv-x="346" 
d="M302 374c4 -4 6 -8.83301 6 -14.5s-2 -10.5 -6 -14.5l-168 -171c-4 -4 -8.83301 -6 -14.5 -6s-10.5 2 -14.5 6l-63 62c-4 3.33301 -6 7.83301 -6 13.5s2 10.5 6 14.5l79 81c4 4 6 8.83301 6 14.5s-2 10.5 -6 14.5l-79 81c-4 4 -6 8.83301 -6 14.5s2 10.5 6 14.5l63 62
c4 3.33301 8.83301 5 14.5 5s10.5 -2 14.5 -6z" />
    <glyph glyph-name="fraction" unicode="&#x2044;" horiz-adv-x="614" 
d="M564 709c6 0 10 -1.66699 12 -5s1.33301 -7.33301 -2 -12l-386 -665c-2.66699 -4.66699 -7 -8.83398 -13 -12.501s-12 -5.5 -18 -5.5h-108c-6 0 -10 1.83301 -12 5.5s-1.66699 7.83398 1 12.501l387 665c2.66699 4.66699 7 8.66699 13 12s12 5 18 5h108z" />
    <glyph glyph-name="Euro" unicode="&#x20ac;" horiz-adv-x="705" 
d="M599 172l55.9971 -55.9971c5.33301 -5.33301 7.83301 -11.666 7.5 -18.999s-3.16602 -13.333 -8.49902 -18c-69.333 -60 -150 -90 -242 -90c-50 0 -97.5 9.33301 -142.5 28s-85 45.5 -120 80.5s-61.833 75 -80.5 120s-28 92.333 -28 142s9.33301 97 28 142
s45.5 85 80.5 120s75 61.833 120 80.5s92.167 28 141.5 28c92.667 0 173.667 -30 243 -90c5.33301 -4.66699 8.16602 -10.667 8.49902 -18s-2.16699 -13.666 -7.5 -18.999l-57 -56c-4 -4.66699 -9.16699 -7.16699 -15.5 -7.5s-11.833 1.5 -16.5 5.5
c-46.667 38 -101.834 55.667 -165.501 53s-116.834 -25.334 -159.501 -68.001c-6 -5.33301 -11.5 -11.333 -16.5 -18s-5.66699 -13.834 -2 -21.501s9.83398 -11.5 18.501 -11.5h151c7.33301 0 13.333 -2.33301 18 -7s7 -10.334 7 -17.001v-29
c0 -6.66699 -2.33301 -12.5 -7 -17.5s-10.667 -7.5 -18 -7.5h-200c-3.33301 0 -6.5 -0.666992 -9.5 -2s-5.5 -3.5 -7.5 -6.5s-3 -6.16699 -3 -9.5c-1.33301 -8 -2 -15.667 -2 -23c0 -8 0.666992 -16.667 2 -26c0.666992 -5.33301 2.83398 -9.66602 6.50098 -12.999
s8.16699 -5 13.5 -5h200c4.66699 0 8.83398 -1.16699 12.501 -3.5s6.66699 -5.33301 9 -9s3.5 -7.83398 3.5 -12.501v-29c0 -6.66699 -2.33301 -12.334 -7 -17.001s-10.667 -7 -18 -7h-150c-8 0 -13.833 -3.83301 -17.5 -11.5s-3.16699 -14.834 1.5 -21.501
c4.66699 -5.33301 9.66699 -10.666 15 -15.999c42.667 -42.667 95.834 -65.334 159.501 -68.001s118.834 15 165.501 53c4.66699 4 10.167 5.83301 16.5 5.5s11.833 -2.83301 16.5 -7.5z" />
    <glyph glyph-name="trademark" unicode="&#x2122;" horiz-adv-x="643" 
d="M218 705c2 0 4.00195 -0.331055 6.00195 -0.998047s3.83301 -1.66699 5.5 -3s3.16699 -2.83301 4.5 -4.5s2.33301 -3.5 3 -5.5s1 -4.33301 1 -7v-37c0 -6 -2 -11 -6 -15s-8.66699 -6 -14 -6h-14c-2.66699 0 -5.33398 -0.5 -8.00098 -1.5s-4.83398 -2.33301 -6.50098 -4
s-3.16699 -3.83398 -4.5 -6.50098s-2 -5.33398 -2 -8.00098v-223c0 -5.33301 -2 -10 -6 -14s-8.66699 -6 -14 -6h-38c-5.33301 0 -10 2 -14 6s-6 8.66699 -6 14v223c0 5.33301 -2 10 -6 14s-8.66699 6 -14 6h-15c-5.33301 0 -10 2 -14 6s-6 9 -6 15v37c0 6 2 11 6 15
s8.66699 6 14 6h148zM576.002 709.002c4 0 7.66797 -2 11.001 -6s5 -8.66699 5 -14v-306c0 -5.33301 -2 -10 -6 -14s-9 -6 -15 -6h-37c-6 0 -11 2 -15 6s-6 8.66699 -6 14v140c0 6 -1.33301 9.5 -4 10.5s-5.66699 -0.5 -9 -4.5l-44 -47
c-3.33301 -4.66699 -7.83301 -7 -13.5 -7s-10.167 2.33301 -13.5 7l-43 47c-4 4 -7.33301 5.5 -10 4.5s-4 -4.5 -4 -10.5v-140c0 -4 -1 -7.5 -3 -10.5s-4.5 -5.33301 -7.5 -7s-6.16699 -2.5 -9.5 -2.5h-38c-5.33301 0 -10 2 -14 6s-6 8.66699 -6 14v306
c0 5.33301 1.5 10 4.5 14s6.83301 6 11.5 6c10.667 0 20.667 -5 30 -15l89 -97c4 -4 8.66699 -6 14 -6s9.66602 2 12.999 6l90 97c8.66699 10 18.667 15 30 15z" />
    <glyph glyph-name="minus" unicode="&#x2212;" horiz-adv-x="552" 
d="M479 381c6 0 10.833 -2 14.5 -6s5.5 -9 5.5 -15v-88c0 -6 -2 -11 -6 -15s-8.66699 -6 -14 -6l-409 1c-5.33301 0 -10 2 -14 6s-6 8.66699 -6 14v88c0 6 2 11 6 15s8.66699 6 14 6h409z" />
    <glyph glyph-name="unie992" unicode="&#xe992;" horiz-adv-x="686" 
d="M512 388l-57.0029 -40.999c-2 -2 -2.66699 -4.33301 -2 -7l22 -66c0.666992 -2.66699 -0.166016 -4.83398 -2.49902 -6.50098s-4.5 -1.83398 -6.5 -0.500977l-57 41c-2 2 -4.33301 2 -7 0l-56 -41c-2.66699 -1.33301 -5.16699 -1.16602 -7.5 0.500977
s-3.16602 3.83398 -2.49902 6.50098l22 66c0.666992 3.33301 0 5.66602 -2 6.99902l-57 41c-2 2 -2.5 4.33301 -1.5 7s2.83301 4 5.5 4h70c2.66699 0 4.33398 1.33301 5.00098 4l22 66c0.666992 3.33301 2.5 5 5.5 5s4.83301 -1.66699 5.5 -5l22 -66
c0.666992 -2.66699 2.66699 -4 6 -4h69c3.33301 0 5.33301 -1.33301 6 -4s0 -5 -2 -7zM588.997 548.001c-4.66699 -4.66699 -9.99805 -7.16699 -15.998 -7.5s-11.667 1.5 -17 5.5c-51.333 42 -110.333 60 -177 54c-58.667 -6 -108.834 -31 -150.501 -75
s-63.834 -96 -66.501 -156c-2.66699 -68.667 19.833 -127.667 67.5 -177s105.834 -74 174.501 -74c48.667 0 93 13.667 133 41c5.33301 3.33301 11.166 4.5 17.499 3.5s11.5 -3.83301 15.5 -8.5l50 -63c4.66699 -5.33301 6.5 -11.5 5.5 -18.5s-4.5 -12.833 -10.5 -17.5
c-64 -44 -134.333 -66 -211 -66c-69.333 0 -133 17.5 -191 52.5s-103.167 82.333 -135.5 142s-47.166 124.167 -44.499 193.5c2.66699 47.333 14 92.5 34 135.5s46 80.167 78 111.5s69.5 56.5 112.5 75.5s88.167 29.167 135.5 30.5c95.333 2.66699 179 -27 251 -89
c5.33301 -4 8.16602 -9.66699 8.49902 -17s-2.16699 -13.333 -7.5 -18z" />
    <glyph glyph-name="a.alt1" unicode="&#xf001;" 
d="M250 501c47.333 8 101.663 -5.33496 162.996 -40.002c0 6.66699 2.33301 12.334 7 17.001s10.334 7 17.001 7h80c2 0 4.16699 -0.333008 6.5 -1s4.33301 -1.5 6 -2.5s3.33398 -2.33301 5.00098 -4s3 -3.33398 4 -5.00098s1.83301 -3.66699 2.5 -6s1 -4.5 1 -6.5v-421
c0 -6.66699 -2.5 -12.5 -7.5 -17.5s-10.833 -7.5 -17.5 -7.5h-48c-12.667 0 -24 3.83301 -34 11.5s-16.667 17.5 -20 29.5c-0.666992 2.66699 -4 0.333984 -10 -6.99902c-1.33301 -1.33301 -2.33301 -2.66602 -3 -3.99902c-7.33301 -8.66699 -17.833 -16.334 -31.5 -23.001
s-27.667 -11.834 -42 -15.501s-27.166 -5.5 -38.499 -5.5c-70 0 -129.667 24.833 -179 74.5s-73.666 109.5 -72.999 179.5c0.666992 60.667 21.167 114.334 61.5 161.001s90.5 75.334 150.5 86.001zM289.997 128.998c34 0 63 12 87 36s36 53 36 87s-12 63 -36 87
s-53 36 -87 36c-22 0 -42.5 -5.5 -61.5 -16.5s-34 -26 -45 -45s-16.5 -39.5 -16.5 -61.5c0 -34 12 -63 36 -87s53 -36 87 -36z" />
    <glyph glyph-name="nonmarkingreturn" horiz-adv-x="333" 
 />
    </font>
</defs>
</svg>
