<?xml version="1.0" standalone="no"?>
<!DOCTYPE svg PUBLIC "-//W3C//DTD SVG 1.1//EN" "http://www.w3.org/Graphics/SVG/1.1/DTD/svg11.dtd" >
<svg>
<metadata>
Created by FontForge 20090914 at Sun Feb 23 04:41:30 2020
 By www-data
</metadata>
<defs>
<font id="GeorgeRoundedSemibold" horiz-adv-x="555" >
  <font-face 
    font-family="George Rounded Semibold"
    font-weight="400"
    font-stretch="normal"
    units-per-em="1000"
    panose-1="0 0 0 0 0 0 0 0 0 0"
    ascent="800"
    descent="-200"
    x-height="468.999"
    cap-height="701"
    bbox="24.7132 -317.996 1105.2 938.004"
    underline-thickness="50"
    underline-position="-150"
    unicode-range="U+000A-U+F001"
  />
<missing-glyph horiz-adv-x="577" 
d="M50 700h427v-700h-427v700zM78 680l185 -309l186 309h-371zM251 350l-180 300v-601zM264 329l-185 -308h370zM276 350l181 -303v605z" />
    <glyph glyph-name=".notdef" horiz-adv-x="577" 
d="M50 700h427v-700h-427v700zM78 680l185 -309l186 309h-371zM251 350l-180 300v-601zM264 329l-185 -308h370zM276 350l181 -303v605z" />
    <glyph glyph-name=".null" horiz-adv-x="0" 
 />
    <glyph glyph-name=".null" horiz-adv-x="0" 
 />
    <glyph glyph-name="controlLF" unicode="&#xa;" horiz-adv-x="0" 
 />
    <glyph glyph-name="controlCR" unicode="&#xd;" horiz-adv-x="0" 
 />
    <glyph glyph-name="space" unicode=" " horiz-adv-x="300" 
 />
    <glyph glyph-name="exclam" unicode="!" horiz-adv-x="206" 
d="M85 142c-3.33301 0 -6.66504 0.833984 -9.99805 2.50098s-5.83301 4.16699 -7.5 7.5s-2.83398 6.66602 -3.50098 9.99902l-13 556c0 3.33301 0.833008 6.5 2.5 9.5s4.16699 5.5 7.5 7.5s6.66602 3 9.99902 3h63c5.33301 0 10 -2 14 -6s6 -8.66699 6 -14l-14 -556
c0 -5.33301 -2 -10 -6 -14s-8.66699 -6 -14 -6h-35zM102.501 99.001c16.333 0 30.333 -5.83301 42 -17.5s17.5 -25.667 17.5 -42s-5.83301 -30.333 -17.5 -42s-25.667 -17.5 -42 -17.5s-30.333 5.83301 -42 17.5s-17.5 25.667 -17.5 42s5.83301 30.333 17.5 42
s25.667 17.5 42 17.5z" />
    <glyph glyph-name="quotedbl" unicode="&#x22;" horiz-adv-x="352" 
d="M121 660c2.66699 0 5.33105 -0.666016 7.99805 -1.99902s4.83398 -2.83301 6.50098 -4.5s3 -3.83398 4 -6.50098s1.5 -5.33398 1.5 -8.00098v-137c0 -3.33301 -0.833008 -6.66602 -2.5 -9.99902s-4.16699 -5.83301 -7.5 -7.5s-6.66602 -2.5 -9.99902 -2.5h-63
c-5.33301 0 -10 2 -14 6s-6 8.66699 -6 14v137c0 6 2 11 6 15s8.66699 6 14 6h63zM292.997 660.001c5.33301 0 10 -2.00195 14 -6.00195s6 -9 6 -15v-137c0 -5.33301 -2 -10 -6 -14s-8.66699 -6 -14 -6h-63c-2.66699 0 -5.16699 0.5 -7.5 1.5s-4.5 2.33301 -6.5 4
s-3.5 3.83398 -4.5 6.50098s-1.5 5.33398 -1.5 8.00098v137c0 6 2 11 6 15s8.66699 6 14 6h63z" />
    <glyph glyph-name="numbersign" unicode="#" horiz-adv-x="669" 
d="M597 501c6 0 10.998 -2.00293 14.998 -6.00293s6 -8.66699 6 -14v-63c0 -5.33301 -2 -10 -6 -14s-9 -6 -15 -6h-72c-3.33301 0 -6.66602 -1 -9.99902 -3s-6.16602 -4.5 -8.49902 -7.5s-3.83301 -6.5 -4.5 -10.5l-11 -88c-0.666992 -6 0.666016 -11 3.99902 -15
s8 -6 14 -6h64c6 0 11 -2 15 -6s6 -8.66699 6 -14v-63c0 -3.33301 -1 -6.5 -3 -9.5s-4.5 -5.5 -7.5 -7.5s-6.5 -3 -10.5 -3h-78c-5.33301 0 -10.333 -2 -15 -6s-7.33398 -8.66699 -8.00098 -14l-15 -121c-1.33301 -6 -4.16602 -11 -8.49902 -15s-9.16602 -6 -14.499 -6h-64
c-5.33301 0 -9.83301 2 -13.5 6s-5.16699 9 -4.5 15l16 121c0.666992 5.33301 -0.666016 10 -3.99902 14s-8 6 -14 6h-81c-6 0 -11.167 -2 -15.5 -6s-6.83301 -8.66699 -7.5 -14l-16 -121c-0.666992 -6 -3.33398 -11 -8.00098 -15s-9.66699 -6 -15 -6h-63
c-6 0 -10.667 2 -14 6s-4.66602 9 -3.99902 15l16 121c0.666992 5.33301 -0.833008 10 -4.5 14s-8.16699 6 -13.5 6h-54c-5.33301 0 -10 2 -14 6s-6 8.66699 -6 14v63c0 5.33301 2 10 6 14s8.66699 6 14 6h67c4 0 7.66699 1 11 3s6 4.5 8 7.5s3.33301 6.5 4 10.5l12 88
c0.666992 6 -0.833008 11 -4.5 15s-8.16699 6 -13.5 6h-60c-5.33301 0 -10 2 -14 6s-6 8.66699 -6 14v63c0 5.33301 2 10 6 14s8.66699 6 14 6h73c6 0 11.167 2 15.5 6s6.83301 8.66699 7.5 14l21 162c0.666992 2.66699 1.66699 5.33398 3 8.00098s3 4.83398 5 6.50098
s4.33301 3 7 4s5.33398 1.5 8.00098 1.5h63c6 0 10.667 -1.83301 14 -5.5s4.66602 -8.5 3.99902 -14.5l-21 -162c0 -3.33301 0.666992 -6.66602 2 -9.99902s3.5 -5.83301 6.5 -7.5s6.16699 -2.5 9.5 -2.5h82c5.33301 0 10.333 2 15 6s7.33398 8.66699 8.00098 14l21 162
c0.666992 6 3.16699 10.833 7.5 14.5s9.5 5.5 15.5 5.5h63c5.33301 0 9.83301 -1.83301 13.5 -5.5s5.16699 -8.5 4.5 -14.5l-21 -162c-0.666992 -5.33301 0.666016 -10 3.99902 -14s7.66602 -6 12.999 -6h59zM385.998 288.997l12 88c0.666992 6 -0.666016 11 -3.99902 15
s-8 6 -14 6h-81c-6 0 -11.167 -2 -15.5 -6s-6.83301 -9 -7.5 -15l-12 -88c-0.666992 -6 0.666016 -11 3.99902 -15s8 -6 14 -6h81c6 0 11.167 2 15.5 6s6.83301 9 7.5 15z" />
    <glyph glyph-name="dollar" unicode="$" horiz-adv-x="584" 
d="M543 227c6.66699 -62 -7.66406 -118.499 -42.9971 -169.499s-82.666 -84.833 -141.999 -101.5c-11.333 -3.33301 -17 -11 -17 -23v-19c0 -6.66699 -2.5 -12.5 -7.5 -17.5s-10.833 -7.5 -17.5 -7.5h-54c-6.66699 0 -12.5 2.5 -17.5 7.5s-7.5 10.833 -7.5 17.5v17
c0 12.667 -5.66699 20.667 -17 24c-45.333 12.667 -84.5 36.167 -117.5 70.5s-54.167 74.833 -63.5 121.5c-2 7.33301 -0.833008 14 3.5 20s10.166 9.33301 17.499 10l54 5c4 0.666992 8 0.166992 12 -1.5s7.16699 -4 9.5 -7s4.16602 -6.5 5.49902 -10.5
c9.33301 -36 29.5 -65 60.5 -87s65.167 -31 102.5 -27c42 4.66699 76.167 23.334 102.5 56.001s37.5 69.667 33.5 111c-2 22 -7 40.833 -15 56.5s-19.667 29 -35 40s-30.5 20 -45.5 27s-35.5 14.833 -61.5 23.5c-29.333 10 -50.333 18 -63 24
c-36 18.667 -64.5 40.667 -85.5 66s-34.167 53 -39.5 83s-2.33301 62 9 96c9.33301 28 24.333 52.167 45 72.5s45 35.5 73 45.5c10 4 15 11.667 15 23v28c0 3.33301 0.666992 6.5 2 9.5s3.16602 5.5 5.49902 7.5s5 3.66699 8 5s6.16699 2 9.5 2h54
c6.66699 0 12.5 -2.33301 17.5 -7s7.5 -10.334 7.5 -17.001v-44c0.666992 0 1.83398 -0.166992 3.50098 -0.5s3.16699 -0.5 4.5 -0.5c30.667 -8 60.834 -26.167 90.501 -54.5s48.167 -64.166 55.5 -107.499c1.33301 -7.33301 -0.333984 -14 -5.00098 -20s-11 -9 -19 -9
l-54 -1c-6 0 -11.333 1.66699 -16 5s-7.66699 8 -9 14c-2.66699 10 -6.83398 19.333 -12.501 28s-11.167 15.5 -16.5 20.5s-11.666 9.66699 -18.999 14s-12.166 7 -14.499 8s-4.5 1.83301 -6.5 2.5c-16 2.66699 -31.833 3.16699 -47.5 1.5s-30.334 -7.66699 -44.001 -18
s-23.5 -23.833 -29.5 -40.5c-3.33301 -10 -5.33301 -19.333 -6 -28s0.666016 -18.334 3.99902 -29.001s10.666 -21.334 21.999 -32.001s26.333 -21 45 -31c8 -4 24.333 -10.333 49 -19l37.5 -12.5c9 -3 21.833 -8.5 38.5 -16.5s30.5 -15.667 41.5 -23
s23.5 -17.166 37.5 -29.499s25.333 -25.333 34 -39s16.5 -30.334 23.5 -50.001s11.833 -40.5 14.5 -62.5z" />
    <glyph glyph-name="percent" unicode="%" horiz-adv-x="818" 
d="M740 242c28 -30.667 41 -66.332 39 -106.999c-2 -41.333 -18 -76 -48 -104c-28.667 -26 -62.334 -39 -101.001 -39h-7c-41.333 2 -75.833 18.167 -103.5 48.5s-40.667 66.166 -39 107.499s17.834 76 48.501 104c31.333 28 67.333 40.667 108 38
c40.667 -1.33301 75 -17.333 103 -48zM661 107.002c9.33301 8.66699 14.334 19.334 15.001 32.001s-3.33301 23.667 -12 33l-12 10c-13.333 3.33301 -20.333 5 -21 5h-1c-12 0 -22.333 -4 -31 -12c-9.33301 -8.66699 -14.333 -19.334 -15 -32.001s3.33301 -23.667 12 -33
l12 -10c13.333 -3.33301 26.666 -4 39.999 -2c2.66699 0.666992 7 3.66699 13 9zM337.001 566.002c0 -41.333 -14.666 -76.499 -43.999 -105.499s-64.5 -43.5 -105.5 -43.5s-76.167 14.5 -105.5 43.5s-44 64.167 -44 105.5s14.667 76.666 44 105.999s64.333 44 105 44
c20.667 0 40.167 -4 58.5 -12s34.166 -18.667 47.499 -32s24 -29.333 32 -48s12 -38 12 -58zM187.002 520.003c12.667 0 23.667 4.5 33 13.5s14 19.833 14 32.5s-4.5 23.5 -13.5 32.5s-20 13.5 -33 13.5s-24 -4.5 -33 -13.5s-13.5 -19.833 -13.5 -32.5s4.5 -23.5 13.5 -32.5
s19.833 -13.5 32.5 -13.5zM584.002 703.003c5.33301 0 9.33203 -1.83301 11.999 -5.5s2.66699 -8.16699 0 -13.5l-264 -662c-2.66699 -5.33301 -6.66699 -9.83301 -12 -13.5s-10.666 -5.5 -15.999 -5.5h-71c-5.33301 0 -9.33301 1.83301 -12 5.5s-3 8.16699 -1 13.5l265 662
c2 5.33301 5.83301 9.83301 11.5 13.5s11.167 5.5 16.5 5.5h71z" />
    <glyph glyph-name="ampersand" unicode="&#x26;" horiz-adv-x="681" 
d="M612 291c6.66699 0 12.498 -2.50391 17.498 -7.50391s7.5 -10.833 7.5 -17.5v-54c0 -6.66699 -2.5 -12.5 -7.5 -17.5s-10.833 -7.5 -17.5 -7.5h-62v-9c0 -43.333 -11.167 -83.166 -33.5 -119.499s-52.666 -65.166 -90.999 -86.499s-79.833 -32 -124.5 -32h-8
c-68.667 0 -127.334 23.167 -176.001 69.5s-73 102.5 -73 168.5v18c0 39.333 9.5 76 28.5 110s44.833 62 77.5 84c-34 36 -51 77.333 -51 124v14c0 50.667 18.833 93.834 56.5 129.501s82.834 53.5 135.501 53.5h12c38 0 73 -10 105 -30s55.667 -47 71 -81
c6.66699 -14.667 11.334 -29.667 14.001 -45c0.666992 -7.33301 -1.5 -13.666 -6.5 -18.999s-11.167 -8 -18.5 -8h-56c-12 0 -19.667 6 -23 18c-0.666992 4 -2 8 -4 12c-6.66699 15.333 -17.5 27.5 -32.5 36.5s-31.5 13.5 -49.5 13.5h-12
c-24.667 0 -45.667 -7.83301 -63 -23.5s-26 -34.5 -26 -56.5v-14c0 -22 8.66699 -40.833 26 -56.5s38.333 -23.5 63 -23.5h4c6.66699 0 12.334 -2.33301 17.001 -7s7 -10.334 7 -17.001v-55c0 -6.66699 -2.33301 -12.5 -7 -17.5s-10.334 -7.5 -17.001 -7.5h-2
c-40 0 -74.333 -13 -103 -39s-43 -57.667 -43 -95v-18c0 -37.333 14.333 -69.166 43 -95.499s63 -39.5 103 -39.5h8c19.333 0 38 3.66699 56 11s33.5 17 46.5 29s23.5 26.167 31.5 42.5s12 33.833 12 52.5v9h-63c-6.66699 0 -12.334 2.5 -17.001 7.5s-7 10.833 -7 17.5v54
c0 6.66699 2.33301 12.5 7 17.5s10.334 7.5 17.001 7.5h228z" />
    <glyph glyph-name="quotesingle" unicode="'" horiz-adv-x="179" 
d="M121 660c2.66699 0 5.33105 -0.666016 7.99805 -1.99902s4.83398 -2.83301 6.50098 -4.5s3 -3.83398 4 -6.50098s1.5 -5.33398 1.5 -8.00098v-137c0 -3.33301 -0.833008 -6.66602 -2.5 -9.99902s-4.16699 -5.83301 -7.5 -7.5s-6.66602 -2.5 -9.99902 -2.5h-63
c-5.33301 0 -10 2 -14 6s-6 8.66699 -6 14v137c0 6 2 11 6 15s8.66699 6 14 6h63z" />
    <glyph glyph-name="parenleft" unicode="(" horiz-adv-x="252" 
d="M139 354c0 -36 6.33105 -81.666 18.998 -136.999s24.834 -101.5 36.501 -138.5s17.834 -55.5 18.501 -55.5c2 -5.33301 1.66699 -10 -1 -14s-6.66699 -6 -12 -6h-73c-5.33301 0 -10.666 2 -15.999 6s-8.66602 8.66699 -9.99902 14l-18 62
c-7.33301 25.333 -17 67.5 -29 126.5s-18 106.5 -18 142.5c0 22 2.16699 48.5 6.5 79.5s9.66602 60.5 15.999 88.5s12.666 54.5 18.999 79.5s11.833 45.167 16.5 60.5l6 22c2 5.33301 5.5 9.83301 10.5 13.5s10.5 5.5 16.5 5.5h72c6 0 10.333 -1.83301 13 -5.5
s3 -8.16699 1 -13.5l-20.5 -61.5c-8.33301 -25.667 -19.333 -67.834 -33 -126.501s-20.5 -106 -20.5 -142z" />
    <glyph glyph-name="parenright" unicode=")" horiz-adv-x="253" 
d="M151 684c1.33301 -6 3.49902 -13.832 6.49902 -23.499s8.16699 -28.834 15.5 -57.501s13.833 -56 19.5 -82s10.834 -54.833 15.501 -86.5s7 -58.5 7 -80.5c0 -36 -5.33301 -81.5 -16 -136.5s-21.334 -101.167 -32.001 -138.5l-16 -56c-2 -5.33301 -5.5 -10 -10.5 -14
s-10.5 -6 -16.5 -6h-72c-6 0 -10.333 2 -13 6s-3 8.66699 -1 14l20.5 61.5c8.33301 25.667 19.333 68 33 127s20.5 106.5 20.5 142.5s-6.16699 81.5 -18.5 136.5s-24.5 100.833 -36.5 137.5l-19 56c-1.33301 5.33301 -0.666016 9.83301 2.00098 13.5s6.66699 5.5 12 5.5h72
c6 0 11.5 -1.83301 16.5 -5.5s8.5 -8.16699 10.5 -13.5z" />
    <glyph glyph-name="asterisk" unicode="*" horiz-adv-x="389" 
d="M329 616l11.0039 -61.9971c0.666992 -5.33301 -0.5 -10.333 -3.5 -15s-7.5 -7.33398 -13.5 -8.00098l-27 -5c-6 -1.33301 -10 -4 -12 -8s-1.33301 -8.33301 2 -13l15 -26c2.66699 -4.66699 3.16699 -9.83398 1.5 -15.501s-4.83398 -9.83398 -9.50098 -12.501l-54 -31
c-4.66699 -2.66699 -9.83398 -3.33398 -15.501 -2.00098s-9.83398 4.33301 -12.501 9l-15 26c-2.66699 5.33301 -6.33398 8.16602 -11.001 8.49902s-8.66699 -1.83398 -12 -6.50098l-20 -23c-3.33301 -4 -7.83301 -6.33301 -13.5 -7s-10.834 1 -15.501 5l-48 40
c-4 3.33301 -6.16699 7.83301 -6.5 13.5s1.16699 10.5 4.5 14.5l19 24c4 4 5.33301 8.33301 4 13s-4.66602 7.66699 -9.99902 9l-27 10c-5.33301 2 -9.16602 5.5 -11.499 10.5s-2.5 10.167 -0.5 15.5l22 59c1.33301 5.33301 4.66602 9.16602 9.99902 11.499
s10.666 2.5 15.999 0.5l27 -9c4.66699 -2 9 -1.83301 13 0.5s6 6.5 6 12.5v29c0 5.33301 2 10 6 14s8.66699 6 14 6h63c5.33301 0 10 -2 14 -6s6 -8.66699 6 -14v-42c0 -5.33301 2 -9.66602 6 -12.999s8.66699 -4.66602 14 -3.99902l40 8
c6 0.666992 11.333 -0.666016 16 -3.99902s7.33398 -7.66602 8.00098 -12.999z" />
    <glyph glyph-name="plus" unicode="+" horiz-adv-x="487" 
d="M416 406c6 0 11 -2 15 -6s6 -9 6 -15v-62c0 -6 -2 -11 -6 -15s-9 -6 -15 -6h-101c-5.33301 0 -10 -2 -14 -6s-6 -8.66699 -6 -14v-101c0 -5.33301 -2 -10 -6 -14s-8.66699 -6 -14 -6h-63c-5.33301 0 -10 2 -14 6s-6 8.66699 -6 14v101c0 5.33301 -2 10 -6 14s-9 6 -15 6
h-101c-5.33301 0 -10 2 -14 6s-6 9 -6 15v62c0 6 2 11 6 15s8.66699 6 14 6h101c6 0 11 2 15 6s6 8.66699 6 14v101c0 5.33301 2 10 6 14s8.66699 6 14 6h63c5.33301 0 10 -2 14 -6s6 -8.66699 6 -14v-101c0 -5.33301 2 -10 6 -14s8.66699 -6 14 -6h101z" />
    <glyph glyph-name="comma" unicode="," horiz-adv-x="176" 
d="M119 87c6 0 10.498 -2 13.498 -6s3.83301 -8.66699 2.5 -14l-22 -110c-0.666992 -6 -3.5 -10.833 -8.5 -14.5s-10.167 -5.5 -15.5 -5.5h-19c-3.33301 0 -6.66602 0.833008 -9.99902 2.5s-6.16602 4 -8.49902 7s-3.5 6.5 -3.5 10.5l-10 109
c-0.666992 6 0.833008 11 4.5 15s8.5 6 14.5 6h62z" />
    <glyph glyph-name="hyphen" unicode="-" horiz-adv-x="487" 
d="M416 406c6 0 11 -2 15 -6s6 -9 6 -15v-62c0 -6 -2 -11 -6 -15s-9 -6 -15 -6h-346c-5.33301 0 -10 2 -14 6s-6 9 -6 15v62c0 6 2 11 6 15s8.66699 6 14 6h346z" />
    <glyph glyph-name="period" unicode="." horiz-adv-x="194" 
d="M97 99c16 0 29.833 -5.83398 41.5 -17.501s17.5 -25.667 17.5 -42s-5.83301 -30.333 -17.5 -42s-25.667 -17.5 -42 -17.5s-30.333 5.83301 -42 17.5s-17.5 25.834 -17.5 42.501c0 10.667 2.66699 20.5 8 29.5s12.5 16.167 21.5 21.5s19.167 8 30.5 8z" />
    <glyph glyph-name="slash" unicode="/" horiz-adv-x="453" 
d="M401 703c5.33301 0 9.33203 -1.83301 11.999 -5.5s2.66699 -8.16699 0 -13.5l-264 -662c-2.66699 -5.33301 -6.66699 -9.83301 -12 -13.5s-10.666 -5.5 -15.999 -5.5h-71c-5.33301 0 -9.33301 1.83301 -12 5.5s-3 8.16699 -1 13.5l265 662
c2 5.33301 5.83301 9.83301 11.5 13.5s11.167 5.5 16.5 5.5h71z" />
    <glyph glyph-name="zero" unicode="0" horiz-adv-x="559" 
d="M279.5 0c-66.333 0 -123.166 23.667 -170.499 71s-71 104 -71 170v235c0 66.667 23.667 123.5 71 170.5s104.166 70.5 170.499 70.5s123.166 -23.5 170.499 -70.5s71 -103.833 71 -170.5v-235c0 -66 -23.667 -122.667 -71 -170s-104.166 -71 -170.499 -71zM141 476v-235
c0 -38 13.5 -70.5 40.5 -97.5s59.667 -40.5 98 -40.5s71 13.5 98 40.5s40.5 59.5 40.5 97.5v235c0 38 -13.5 70.5 -40.5 97.5s-59.667 40.5 -98 40.5s-71 -13.5 -98 -40.5s-40.5 -59.5 -40.5 -97.5z" />
    <glyph glyph-name="one" unicode="1" horiz-adv-x="292" 
d="M52 529c-4.66699 -1.33301 -7.16797 -1.83301 -7.50098 -1.5s-0.5 7.5 -0.5 21.5v65c0 6 1.83301 11.667 5.5 17s8.16699 9 13.5 11l22 10c12.667 6 24.667 12.333 36 19l62 36c4.66699 2.66699 8.83398 3 12.501 1s5.5 -6 5.5 -12v-676c0 -5.33301 -2 -10 -6 -14
s-9 -6 -15 -6h-62c-6 0 -11 2 -15 6s-6 8.66699 -6 14v503c0 5.33301 -3 9 -9 11s-11 2.33301 -15 1c-8 -2.66699 -15 -4.66699 -21 -6z" />
    <glyph glyph-name="two" unicode="2" horiz-adv-x="527" 
d="M380 443c3.33301 14.667 5.00098 26.0029 5.00098 34.0029v13c0 36.667 -13.833 67.167 -41.5 91.5s-59.834 34.166 -96.501 29.499c-20 -2.66699 -38.167 -10 -54.5 -22s-29 -27 -38 -45s-13.5 -37.333 -13.5 -58v-21c0 -6.66699 -2.33301 -12.334 -7 -17.001
s-10.334 -7 -17.001 -7h-54c-7.33301 0 -13.333 2.33301 -18 7s-7 10.334 -7 17.001v25c0 66 24.5 121.333 73.5 166s106.833 64 173.5 58c57.333 -5.33301 105.5 -30.333 144.5 -75s58.5 -96.334 58.5 -155.001v-7c0 -17.333 -3 -37.333 -9 -60
c-8 -34.667 -71.667 -126 -191 -274c-6 -8 -6.83301 -16.667 -2.5 -26s11.5 -14 21.5 -14h156c7.33301 0 13.333 -2.33301 18 -7s7 -10.334 7 -17.001v-54c0 -7.33301 -2.33301 -13.333 -7 -18s-10.667 -7 -18 -7h-375c-10 0 -17.167 4.66699 -21.5 14
s-3.16602 18 3.50098 26l37 45l180.5 224.5c55.667 72.333 86.5 116.833 92.5 133.5z" />
    <glyph glyph-name="three" unicode="3" horiz-adv-x="544" 
d="M303 2c-59.333 -7.33301 -113.497 5.99609 -162.497 39.9961s-80.833 79.333 -95.5 136c-2 7.33301 -0.833008 14 3.5 20s10.166 9.33301 17.499 10l54 8c6 0.666992 11.5 -0.666016 16.5 -3.99902s8.5 -8 10.5 -14c8 -28 24 -50.833 48 -68.5s50.667 -26.5 80 -26.5
c40 0 73.5 15.167 100.5 45.5s37.833 65.833 32.5 106.5c-4 34 -19.333 62 -46 84s-57.334 33 -92.001 33h-45c-10 0 -17.333 4.33301 -22 13s-4.33398 17 0.999023 25l108 166c5.33301 8 5.66602 16.333 0.999023 25s-11.667 13 -21 13h-235
c-7.33301 0 -13.333 2.33301 -18 7s-7 10.667 -7 18v54c0 6.66699 2.33301 12.334 7 17.001s10.667 7 18 7h425c10 0 17.333 -4.16699 22 -12.5s4.33398 -16.833 -0.999023 -25.5l-128 -196c-4 -6 -5 -12.5 -3 -19.5s6.33301 -12.167 13 -15.5
c37.333 -19.333 67.5 -47.166 90.5 -83.499s35.167 -76.166 36.5 -119.499c2 -60.667 -17.167 -114.5 -57.5 -161.5s-90.833 -74.167 -151.5 -81.5z" />
    <glyph glyph-name="four" unicode="4" horiz-adv-x="550" 
d="M445 455v-158c0 -5.33301 2 -10 6 -14s8.66699 -6 14 -6h23c5.33301 0 10 -2 14 -6s6 -9 6 -15v-62c0 -6 -2 -11 -6 -15s-8.66699 -6 -14 -6h-23c-5.33301 0 -10 -2 -14 -6s-6 -8.66699 -6 -14v-133c0 -5.33301 -2 -10 -6 -14s-9 -6 -15 -6h-62c-6 0 -11 2 -15 6
s-6 8.66699 -6 14v133c0 5.33301 -2 10 -6 14s-8.66699 6 -14 6h-267c-6 0 -10.167 1.83301 -12.5 5.5s-2.16602 8.16699 0.500977 13.5l213 489c2 5.33301 5.83301 9.83301 11.5 13.5s11.167 5.5 16.5 5.5h72c6 0 10.167 -1.83301 12.5 -5.5
s2.16602 -8.16699 -0.500977 -13.5l-168 -386c-1.33301 -2.66699 -1.83301 -5 -1.5 -7s1 -3.83301 2 -5.5s2.5 -3 4.5 -4s4.33301 -1.5 7 -1.5h110c5.33301 0 10 2 14 6s6 8.66699 6 14v158c0 6 2 11 6 15s9 6 15 6h62c6 0 11 -2 15 -6s6 -9 6 -15z" />
    <glyph glyph-name="five" unicode="5" horiz-adv-x="546" 
d="M134 42c-23.333 16 -43.1641 35.6729 -59.4971 59.0059s-28.166 49 -35.499 77c-2 6.66699 -0.833008 13.167 3.5 19.5s10.166 9.83301 17.499 10.5l53 8c4 0.666992 7.83301 0.166992 11.5 -1.5s7 -3.83398 10 -6.50098s4.83301 -6 5.5 -10
c9.33301 -30 27 -53.667 53 -71c32 -22.667 68 -29.334 108 -20.001c24.667 5.33301 46 17.333 64 36s29.667 40.667 35 66c7.33301 36.667 0.666016 67.667 -20.001 93c-25.333 31.333 -62.666 47 -111.999 47h-177c-7.33301 0 -13.333 2.66699 -18 8
s-6.66699 11.666 -6 18.999l30 319c0.666992 6 3.33398 11.167 8.00098 15.5s10 6.5 16 6.5h360c7.33301 0 13.333 -2.33301 18 -7s7 -10.334 7 -17.001v-54c0 -6.66699 -2.33301 -12.5 -7 -17.5s-10.667 -7.5 -18 -7.5h-266c-6 0 -11.333 -2.16699 -16 -6.5
s-7.33398 -9.5 -8.00098 -15.5l-11 -112c-0.666992 -7.33301 1.5 -13.833 6.5 -19.5s11.167 -8.5 18.5 -8.5h63c39.333 0 75.666 -7.33301 108.999 -22s61 -35.334 83 -62.001c41.333 -50.667 55 -110.667 41 -180c-9.33301 -45.333 -30 -84.333 -62 -117
s-70.333 -54.334 -115 -65.001c-18.667 -4 -37.334 -6 -56.001 -6c-48.667 0 -93.334 14 -134.001 42z" />
    <glyph glyph-name="six" unicode="6" horiz-adv-x="541" 
d="M267 0c-59.333 0 -110.833 20.3398 -154.5 61.0068s-67.834 90.667 -72.501 150h-2v150c0 93.333 31.833 174.166 95.5 242.499s141.5 105.833 233.5 112.5c7.33301 0.666992 13.666 -1.5 18.999 -6.5s8 -10.833 8 -17.5v-54c0 -6.66699 -2.16699 -12.334 -6.5 -17.001
s-9.5 -7.33398 -15.5 -8.00098c-53.333 -4.66699 -100.166 -24.334 -140.499 -59.001s-67.166 -77.334 -80.499 -128.001c36.667 22 75.667 33 117 33c47.333 0 90.333 -12.333 129 -37s67.5 -57.834 86.5 -99.501s24.5 -85.834 16.5 -132.501
c-9.33301 -55.333 -36 -100.833 -80 -136.5s-94.333 -53.5 -151 -53.5h-2zM273 356.007c-37.333 0 -68.668 -12.332 -94.001 -36.999s-38 -54.334 -38 -89.001c0 -35.333 12.333 -65.333 37 -90s54.334 -37 89.001 -37h6c35.333 0 65.333 12.333 90 37s37 54.5 37 89.5
s-12.333 64.833 -37 89.5s-54.667 37 -90 37z" />
    <glyph glyph-name="seven" unicode="7" horiz-adv-x="531" 
d="M254 431l64.001 126.999c4 8 3.5 16 -1.5 24s-12.167 12 -21.5 12h-228c-6.66699 0 -12.5 2.33301 -17.5 7s-7.5 10.667 -7.5 18v53c0 7.33301 2.5 13.333 7.5 18s10.833 7 17.5 7h396c4.66699 0 8.83398 -1.16699 12.501 -3.5s6.5 -5.16602 8.5 -8.49902
s3.16699 -7.16602 3.5 -11.499s-0.5 -8.5 -2.5 -12.5l-139 -277c-56.667 -112.667 -86.667 -232.667 -90 -360c-0.666992 -6.66699 -3.33398 -12.334 -8.00098 -17.001s-10.334 -7 -17.001 -7h-54c-6.66699 0 -12.5 2.5 -17.5 7.5s-7.5 10.833 -7.5 17.5
c4 142.667 38 278 102 406z" />
    <glyph glyph-name="eight" unicode="8" horiz-adv-x="535" 
d="M256 0c-39.333 0 -75.834 9.66699 -109.501 29s-60.167 45.833 -79.5 79.5s-29 70.167 -29 109.5c0 33.333 7.33301 64.666 22 93.999s34.667 54.333 60 75c-38.667 38 -58 84 -58 138c0 52.667 18.833 97.834 56.5 135.501s82.834 56.5 135.501 56.5h27
c53.333 0 98.833 -18.833 136.5 -56.5s56.5 -82.834 56.5 -135.501c0 -54 -19.667 -100 -59 -138c25.333 -20.667 45.333 -45.667 60 -75s22 -60.666 22 -93.999c0 -60 -21.167 -111.333 -63.5 -154s-93.833 -64 -154.5 -64h-23zM279.999 103
c31.333 0 58.167 11.167 80.5 33.5s33.5 49.333 33.5 81s-11.167 58.667 -33.5 81s-49.5 33.5 -81.5 33.5h-23c-32 0 -59.167 -11.167 -81.5 -33.5s-33.5 -49.333 -33.5 -81s11.167 -58.667 33.5 -81s49.5 -33.5 81.5 -33.5h24zM254 614c-24.667 0 -45.667 -8.66699 -63 -26
s-26 -38.333 -26 -63s8.66699 -45.834 26 -63.501s38.333 -26.5 63 -26.5h27c24.667 0 45.667 8.83301 63 26.5s26 38.834 26 63.501s-8.66699 45.667 -26 63s-38.333 26 -63 26h-27z" />
    <glyph glyph-name="nine" unicode="9" horiz-adv-x="542" 
d="M273 258c-47.333 0 -90.333 12.3291 -129 36.9961s-67.5 57.834 -86.5 99.501s-24.5 86.167 -16.5 133.5c9.33301 54.667 36 99.834 80 135.501s94.333 53.5 151 53.5h1c60 0 111.833 -20.333 155.5 -61s67.834 -90.667 72.501 -150h2v-150
c0 -93.333 -31.833 -174 -95.5 -242s-141.5 -105.667 -233.5 -113c-7.33301 -0.666992 -13.666 1.5 -18.999 6.5s-8 11.167 -8 18.5v54c0 4 1 7.83301 3 11.5s4.66699 6.66699 8 9s7 3.5 11 3.5c53.333 4.66699 100.166 24.334 140.499 59.001s67.166 77.334 80.499 128.001
c-36.667 -22 -75.667 -33 -117 -33zM268 613.996c-17.333 0 -33.832 -3.33301 -49.499 -10s-29.167 -15.667 -40.5 -27s-20.333 -24.833 -27 -40.5s-10 -31.834 -10 -48.501c0 -34.667 12.333 -64.5 37 -89.5s54.667 -37.5 90 -37.5c37.333 0 68.666 12.333 93.999 37
s38 54.667 38 90c0 34.667 -12.333 64.334 -37 89.001s-54.667 37 -90 37h-5z" />
    <glyph glyph-name="colon" unicode=":" horiz-adv-x="194" 
d="M96.5 99c16.333 0 30.333 -5.83301 42 -17.5s17.5 -25.667 17.5 -42s-5.83301 -30.333 -17.5 -42s-25.667 -17.5 -42 -17.5s-30.333 5.83301 -42 17.5s-17.5 25.667 -17.5 42s5.83301 30.333 17.5 42s25.667 17.5 42 17.5zM96.5 252c-16.333 0 -30.333 5.83301 -42 17.5
s-17.5 25.667 -17.5 42s5.83301 30.333 17.5 42s25.667 17.5 42 17.5s30.333 -5.83301 42 -17.5s17.5 -25.667 17.5 -42s-5.83301 -30.333 -17.5 -42s-25.667 -17.5 -42 -17.5z" />
    <glyph glyph-name="semicolon" unicode=";" horiz-adv-x="194" 
d="M128 87c5.33301 0 9.66699 -2 13 -6s4.33301 -8.66699 3 -14l-22 -110c-1.33301 -6 -4.33301 -10.833 -9 -14.5s-9.66699 -5.5 -15 -5.5h-19c-6 0 -11.167 1.83301 -15.5 5.5s-6.5 8.5 -6.5 14.5l-10 109c-0.666992 6 0.833008 11 4.5 15s8.16699 6 13.5 6h63z
M96.501 252c-16.333 0 -30.333 5.83301 -42 17.5s-17.5 25.667 -17.5 42s5.83301 30.333 17.5 42s25.667 17.5 42 17.5s30.333 -5.83301 42 -17.5s17.5 -25.667 17.5 -42s-5.83301 -30.333 -17.5 -42s-25.667 -17.5 -42 -17.5z" />
    <glyph glyph-name="less" unicode="&#x3c;" horiz-adv-x="430" 
d="M372 474l-150 -107.998c-4.66699 -3.33301 -7 -7.33301 -7 -12s2.33301 -8.66699 7 -12l150 -109c11.333 -8 17 -18.667 17 -32v-87c0 -5.33301 -1.66699 -8.83301 -5 -10.5s-7.33301 -0.833984 -12 2.49902l-326 236c-4.66699 3.33301 -7 7.33301 -7 12
s2.33301 8.66699 7 12l326 236c4.66699 3.33301 8.66699 4.16602 12 2.49902s5 -5.5 5 -11.5v-86c0 -14 -5.66699 -25 -17 -33z" />
    <glyph glyph-name="equal" unicode="=" horiz-adv-x="487" 
d="M416 299c6 0 11.002 -1.99805 15.002 -5.99805s6 -8.66699 6 -14v-63c0 -2.66699 -0.666992 -5.33398 -2 -8.00098s-2.83301 -4.83398 -4.5 -6.50098s-3.83398 -3 -6.50098 -4s-5.33398 -1.5 -8.00098 -1.5h-346c-5.33301 0 -10 2 -14 6s-6 8.66699 -6 14v63
c0 5.33301 2 10 6 14s8.66699 6 14 6h346zM416.002 509.002c6 0 11.001 -2 15.001 -6s6 -9 6 -15v-62c0 -6 -2 -11 -6 -15s-9 -6 -15 -6h-346c-5.33301 0 -10 2 -14 6s-6 9 -6 15v62c0 4 0.833008 7.5 2.5 10.5s4.16699 5.5 7.5 7.5s6.66602 3 9.99902 3h346z" />
    <glyph glyph-name="greater" unicode="&#x3e;" horiz-adv-x="430" 
d="M383 366c4 -3.33301 6 -7.33496 6 -12.002s-2 -8.66699 -6 -12l-327 -237c-4.66699 -3.33301 -8.66699 -4.16602 -12 -2.49902s-5 5.5 -5 11.5v87c0 13.333 5.66699 24 17 32l150 109c4.66699 3.33301 7 7.33301 7 12s-2.33301 8.66699 -7 12l-150 109
c-11.333 8 -17 18.667 -17 32v87c0 5.33301 1.66699 8.83301 5 10.5s7.33301 0.833984 12 -2.49902z" />
    <glyph glyph-name="question" unicode="?" horiz-adv-x="476" 
d="M235.5 99c16.333 0 30.333 -5.83301 42 -17.5s17.5 -25.667 17.5 -42s-5.83301 -30.333 -17.5 -42s-25.667 -17.5 -42 -17.5s-30.333 5.83301 -42 17.5s-17.5 25.667 -17.5 42s5.83301 30.333 17.5 42s25.667 17.5 42 17.5zM302 700
c46.667 -15.333 82.6689 -45.501 108.002 -90.501s33.333 -91.833 24 -140.5c-8.66699 -46 -30 -83.333 -64 -112c-26 -21.333 -46.167 -48 -60.5 -80s-21.5 -66.333 -21.5 -103v-7c0 -7.33301 -2.5 -13.333 -7.5 -18s-10.833 -7 -17.5 -7h-53
c-7.33301 0 -13.333 2.33301 -18 7s-7 10.667 -7 18v7c0 52 10.333 101 31 147s50 84.667 88 116c15.333 12.667 25 29.667 29 51c2.66699 15.333 1.66699 31 -3 47s-12.334 30 -23.001 42s-23.334 20.333 -38.001 25c-31.333 10.667 -60.333 7.33398 -87 -9.99902
c-20.667 -12.667 -34.334 -30.334 -41.001 -53.001c-2 -6 -5.66699 -10.5 -11 -13.5s-11 -4.16699 -17 -3.5l-52 5c-8 0.666992 -14.167 4.16699 -18.5 10.5s-5.5 12.833 -3.5 19.5c12.667 52.667 41.667 93.334 87 122.001c54.667 35.333 113.334 42.333 176.001 21z" />
    <glyph glyph-name="at" unicode="@" horiz-adv-x="1103" 
d="M1060 379c6 -45.333 6.33203 -89.9941 0.999023 -133.994s-20.5 -81.333 -45.5 -112s-54.167 -52.334 -87.5 -65.001s-68 -17.667 -104 -15c-12.667 1.33301 -25.334 3.66602 -38.001 6.99902s-25 7.66602 -37 12.999s-23.333 11.666 -34 18.999s-20.667 16 -30 26
s-17.666 20.667 -24.999 32c-46 -43.333 -98.333 -65 -157 -65h-7c-58 2 -104 24.333 -138 67c-34.667 43.333 -46.667 94.333 -36 153c10.667 55.333 38.667 101.5 84 138.5s95.666 54.167 150.999 51.5c16 0 32.833 -5.5 50.5 -16.5s28.834 -23.167 33.501 -36.5
c0.666992 15.333 6.5 28 17.5 38s23.833 14.667 38.5 14l26 -2c6.66699 0 12 -2.33301 16 -7s6 -10 6 -16l-10 -203c-2 -34 6.83301 -60.167 26.5 -78.5s43.167 -28.833 70.5 -31.5c12 -0.666992 24.167 0.333008 36.5 3s25 7.33398 38 14.001s24.333 17.167 34 31.5
s15.5 31.833 17.5 52.5c4.66699 35.333 4.33398 71.333 -0.999023 108c-10.667 80 -43.667 149.333 -99 208s-122.666 95.667 -201.999 111c-60 12 -120.333 10.667 -181 -4s-115.667 -41.334 -165 -80.001c-50 -39.333 -89.667 -86.833 -119 -142.5
s-45.666 -114.834 -48.999 -177.501c-2.66699 -54 5 -105.833 23 -155.5s45.333 -93.834 82 -132.501c69.333 -72.667 155.666 -112 258.999 -118c3.33301 0 6.33301 -0.666992 9 -2s5 -3 7 -5s3.5 -4.33301 4.5 -7s1.5 -5.66699 1.5 -9v-57
c0 -6.66699 -2.16699 -12.334 -6.5 -17.001s-9.83301 -6.66699 -16.5 -6c-64 2.66699 -124.667 16.834 -182 42.501s-107.666 61.5 -150.999 107.5c-46.667 48.667 -81.334 104.334 -104.001 167.001s-32.334 128.667 -29.001 198c3.33301 76.667 23.166 149.5 59.499 218.5
s85.833 127.833 148.5 176.5c60.667 48 128.5 81.167 203.5 99.5s150.167 20.166 225.5 5.49902c100.667 -20 186.334 -67.5 257.001 -142.5s113 -163.167 127 -264.5zM628.999 294.006c5.33301 28 0.333008 51.334 -15 70.001c-14.667 18 -34.667 27.333 -60 28h-4
c-29.333 0 -56.333 -10.333 -81 -31s-39.667 -45.667 -45 -75c-5.33301 -27.333 -0.333008 -50.333 15 -69c14 -18 34 -27.667 60 -29c29.333 -1.33301 57 8.66699 83 30s41.667 46.666 47 75.999z" />
    <glyph glyph-name="A" unicode="A" horiz-adv-x="675" 
d="M215 151c-5.33301 0 -9 -2.33301 -11 -7l-61 -136c-2 -4.66699 -5.66699 -7 -11 -7h-87c-4 0 -7.33301 1.83301 -10 5.5s-3 7.5 -1 11.5l296 662c2 4.66699 5.66699 7 11 7s9 -2.66699 11 -8l288 -662c1.33301 -4 0.833008 -7.66699 -1.5 -11s-5.5 -5 -9.5 -5h-87
c-5.33301 0 -9 2.33301 -11 7l-59 135c-2 5.33301 -5.66699 8 -11 8h-246zM351 423c-2 4.66699 -5.66699 7.16699 -11 7.5s-9 -2.16699 -11 -7.5l-68 -152c-2 -4 -1.83301 -7.83301 0.5 -11.5s5.83301 -5.5 10.5 -5.5h134c4 0 7.33301 1.83301 10 5.5s3 7.5 1 11.5z" />
    <glyph glyph-name="B" unicode="B" horiz-adv-x="588" 
d="M395 9c-18 -4.66699 -34.667 -7 -50 -7h-287c-5.33301 0 -10 2 -14 6s-6 9 -6 15v656c0 6 2 11 6 15s8.66699 6 14 6h244c16.667 0 34.334 -2.66699 53.001 -8c44.667 -11.333 81.167 -34.833 109.5 -70.5s42.5 -76.167 42.5 -121.5c0 -42 -13 -80.333 -39 -115
c-3.33301 -4 -4.5 -8.83301 -3.5 -14.5s3.5 -10.167 7.5 -13.5c16 -12 29.667 -26 41 -42s20.166 -33.667 26.499 -53s9.5 -39.333 9.5 -60c0 -46 -14.5 -86.833 -43.5 -122.5s-65.833 -59.167 -110.5 -70.5zM141 579l0.00195312 -156.997
c0 -2.66699 0.5 -5.33398 1.5 -8.00098s2.5 -4.83398 4.5 -6.50098s4.16699 -3.16699 6.5 -4.5s5.16602 -2 8.49902 -2h140c18.667 0 35.667 4.5 51 13.5s27.666 21 36.999 36s14 31.5 14 49.5c0 27.333 -10 50.666 -30 69.999s-44 29 -72 29h-140c-6 0 -11 -2 -15 -6
s-6 -8.66699 -6 -14zM141.002 280.003v-155.999c0 -4 1 -7.5 3 -10.5s4.5 -5.5 7.5 -7.5s6.5 -3 10.5 -3h183c18 0 34.833 4.5 50.5 13.5s28 21 37 36s13.5 31.5 13.5 49.5c0 27.333 -10 50.666 -30 69.999s-43.667 29 -71 29h-183c-6 0 -11 -2 -15 -6s-6 -9 -6 -15z" />
    <glyph glyph-name="C" unicode="C" horiz-adv-x="680" 
d="M328 1c-82.667 16 -151.334 56.8359 -206.001 122.503s-82 141.5 -82 227.5c0 85.333 26.833 160.666 80.5 225.999s121.5 106.666 203.5 123.999c24.667 5.33301 49.334 8 74.001 8c23.333 0 47.666 -2.66699 72.999 -8c60.667 -12.667 114.334 -39.334 161.001 -80.001
c4.66699 -4 7.16699 -9 7.5 -15s-1.5 -11 -5.5 -15l-44 -45c-4 -3.33301 -8.66699 -5.16602 -14 -5.49902s-10 1.16699 -14 4.5c-47.333 40 -102 60 -164 60c-50 0 -95.667 -13 -137 -39s-72.666 -61.5 -93.999 -106.5s-28.333 -92.833 -21 -143.5
c8 -63.333 36 -115.833 84 -157.5s104.333 -62.167 169 -61.5c52.667 0 100.667 15 144 45c4 3.33301 8.66699 4.5 14 3.5s9.66602 -3.5 12.999 -7.5l39 -49c3.33301 -4.66699 4.66602 -9.83398 3.99902 -15.501s-3.66699 -10.5 -9 -14.5c-20 -14 -41.833 -26 -65.5 -36
s-48.167 -17.333 -73.5 -22c-24 -5.33301 -46.333 -8 -67 -8c-23.333 0 -46.666 2.66699 -69.999 8z" />
    <glyph glyph-name="D" unicode="D" horiz-adv-x="588" 
d="M261 8c-23.333 -4.66699 -46.332 -7 -68.999 -7h-134c-5.33301 0 -10 2 -14 6s-6 9 -6 15v658c0 6 2 11 6 15s8.66699 6 14 6h134c24 0 48.667 -2.66699 74 -8c81.333 -16.667 148.833 -57 202.5 -121s80.5 -137.667 80.5 -221c0 -84 -27.333 -158.167 -82 -222.5
s-123.334 -104.5 -206.001 -120.5zM141.001 579v-456c0 -6 2 -11 6 -15s9 -6 15 -6h30c46 0 88.5 11.167 127.5 33.5s69.833 52.666 92.5 90.999s34 79.833 34 124.5c0 68.667 -24.833 127.334 -74.5 176.001s-109.5 73 -179.5 73h-30c-6 0 -11 -2 -15 -6s-6 -9 -6 -15z" />
    <glyph glyph-name="E" unicode="E" horiz-adv-x="481" 
d="M44 21v658.999c0 6 2 11 6 15s8.66699 6 14 6h351c6 0 10.833 -2 14.5 -6s5.5 -9 5.5 -15v-54c0 -4 -0.833008 -7.5 -2.5 -10.5s-4 -5.5 -7 -7.5s-6.5 -3 -10.5 -3h-247c-6 0 -11 -2 -15 -6s-6 -8.66699 -6 -14v-208c0 -5.33301 2 -10 6 -14s9 -6 15 -6h131
c5.33301 0 10 -2 14 -6s6 -9 6 -15v-62c0 -6 -2 -11 -6 -15s-8.66699 -6 -14 -6h-131c-6 0 -11 -2 -15 -6s-6 -8.66699 -6 -14v-116c0 -3.33301 1 -6.66602 3 -9.99902s4.5 -5.83301 7.5 -7.5s6.5 -2.5 10.5 -2.5h247c6 0 10.833 -2 14.5 -6s5.5 -9 5.5 -15v-55
c0 -5.33301 -1.83301 -10 -5.5 -14s-8.5 -6 -14.5 -6h-351c-5.33301 0 -10 2 -14 6s-6 8.66699 -6 14z" />
    <glyph glyph-name="F" unicode="F" horiz-adv-x="481" 
d="M44 21v659c0 6 2 11 6 15s8.66699 6 14 6h351c4 0 7.5 -1 10.5 -3s5.5 -4.5 7.5 -7.5s3 -6.5 3 -10.5v-54c0 -6 -2 -11 -6 -15s-9 -6 -15 -6h-247c-6 0 -11 -2 -15 -6s-6 -8.66699 -6 -14v-208c0 -5.33301 2 -10 6 -14s9 -6 15 -6h131c5.33301 0 10 -2 14 -6s6 -9 6 -15
v-62c0 -6 -2 -11 -6 -15s-8.66699 -6 -14 -6h-131c-6 0 -11 -2 -15 -6s-6 -8.66699 -6 -14v-212c0 -5.33301 -2 -10 -6 -14s-8.66699 -6 -14 -6h-63c-5.33301 0 -10 2 -14 6s-6 8.66699 -6 14z" />
    <glyph glyph-name="G" unicode="G" horiz-adv-x="792" 
d="M326 1c-82.667 16 -151.332 56.834 -205.999 122.501s-82 141.5 -82 227.5c0 85.333 26.833 160.666 80.5 225.999s121.5 106.666 203.5 123.999c24.667 4.66699 49.334 7 74.001 7c23.333 0 47.666 -2.33301 72.999 -7c62 -13.333 116.667 -40.666 164 -81.999
c3.33301 -3.33301 5.16602 -7.66602 5.49902 -12.999s-1.5 -10 -5.5 -14l-47 -47c-8 -8 -16 -8.66699 -24 -2c-48 41.333 -103.333 62 -166 62c-72.667 0 -134.167 -26.167 -184.5 -78.5s-73.5 -114.833 -69.5 -187.5c2.66699 -62.667 25.834 -117 69.501 -163
s96.5 -72 158.5 -78c40.667 -4 79.5 1.16699 116.5 15.5s68.667 35.666 95 63.999s45.166 60.833 56.499 97.5c2 6 1.16699 11.5 -2.5 16.5s-8.5 7.5 -14.5 7.5h-207c-5.33301 0 -9.66602 1.83301 -12.999 5.5s-5 8.16699 -5 13.5v66c0 5.33301 1.66699 9.83301 5 13.5
s7.66602 5.5 12.999 5.5h321c4.66699 0 8.83398 -1.83301 12.501 -5.5s5.5 -8.16699 5.5 -13.5v-33c0 -56.667 -12.5 -110 -37.5 -160s-59.333 -91.5 -103 -124.5s-92.834 -54.833 -147.501 -65.5c-23.333 -5.33301 -46.5 -8 -69.5 -8s-46.167 2.66699 -69.5 8z" />
    <glyph glyph-name="H" unicode="H" horiz-adv-x="588" 
d="M141 233v-212c0 -5.33301 -2 -10 -6 -14s-8.66699 -6 -14 -6h-63c-5.33301 0 -10 2 -14 6s-6 8.66699 -6 14v659c0 6 2 11 6 15s8.66699 6 14 6h63c5.33301 0 10 -2 14 -6s6 -9 6 -15v-303c0 -5.33301 2 -10 6 -14s9 -6 15 -6h263c6 0 11 2 15 6s6 8.66699 6 14v303
c0 6 2 11 6 15s8.66699 6 14 6h63c5.33301 0 10 -2 14 -6s6 -9 6 -15v-659c0 -5.33301 -2 -10 -6 -14s-8.66699 -6 -14 -6h-63c-5.33301 0 -10 2 -14 6s-6 8.66699 -6 14v212c0 5.33301 -2 10 -6 14s-9 6 -15 6h-263c-6 0 -11 -2 -15 -6s-6 -8.66699 -6 -14z" />
    <glyph glyph-name="I" unicode="I" horiz-adv-x="301" 
d="M202 680v-659c0 -5.33301 -2 -10 -6 -14s-8.66699 -6 -14 -6h-63c-5.33301 0 -10 2 -14 6s-6 8.66699 -6 14v659c0 6 2 11 6 15s8.66699 6 14 6h63c5.33301 0 10 -2 14 -6s6 -9 6 -15z" />
    <glyph glyph-name="J" unicode="J" horiz-adv-x="500" 
d="M210 1c-18 0 -34.6631 2.66797 -49.9961 8.00098c-55.333 21.333 -95.333 58.333 -120 111c-2.66699 5.33301 -2.83398 10.833 -0.500977 16.5s6.16602 9.5 11.499 11.5l61 21c10.667 4 18.667 1 24 -9c12.667 -24 31.667 -41.667 57 -53s51.666 -13.333 78.999 -6
c26 6.66699 47 21.167 63 43.5s24 47.166 24 74.499v462c0 5.33301 1.83301 10 5.5 14s8.16699 6 13.5 6h64c5.33301 0 10 -2 14 -6s6 -8.66699 6 -14v-466c0 -46 -13 -87.667 -39 -125s-60 -64.333 -102 -81c-14.667 -5.33301 -31.334 -8 -50.001 -8h-61z" />
    <glyph glyph-name="K" unicode="K" horiz-adv-x="588" 
d="M138 209l-0.000976562 -188c0 -5.33301 -2 -10 -6 -14s-8.66699 -6 -14 -6h-63c-5.33301 0 -10 2 -14 6s-6 8.66699 -6 14v659c0 6 2 11 6 15s8.66699 6 14 6h63c5.33301 0 10 -2 14 -6s6 -9 6 -15v-276c0 -5.33301 1.33301 -8.5 4 -9.5s6 0.5 10 4.5l256 287
c9.33301 10 20.666 15 33.999 15h98c6 0 9.66699 -1.5 11 -4.5s0 -6.5 -4 -10.5l-281 -314c-4 -4.66699 -6 -10 -6 -16s2 -11 6 -15l280 -325c3.33301 -4 4.33301 -7.5 3 -10.5s-4.66602 -4.5 -9.99902 -4.5h-96c-14 0 -25.333 5 -34 15l-213 247
c-3.33301 4.66699 -7.66602 7 -12.999 7s-10 -2 -14 -6l-17 -20c-9.33301 -10 -14 -21.667 -14 -35z" />
    <glyph glyph-name="L" unicode="L" horiz-adv-x="481" 
d="M147 680v-563.001c0 -3.33301 1 -6.66602 3 -9.99902s4.5 -5.83301 7.5 -7.5s6.5 -2.5 10.5 -2.5h247c6 0 10.833 -2 14.5 -6s5.5 -9 5.5 -15v-55c0 -6 -1.83301 -11 -5.5 -15s-8.5 -6 -14.5 -6h-351c-5.33301 0 -10 2 -14 6s-6 9 -6 15v659c0 6 2 11 6 15
s8.66699 6 14 6h63c5.33301 0 10 -2 14 -6s6 -9 6 -15z" />
    <glyph glyph-name="M" unicode="M" horiz-adv-x="656" 
d="M141 457v-436c0 -5.33301 -2 -10 -6 -14s-8.66699 -6 -14 -6h-63c-5.33301 0 -10 2 -14 6s-6 8.66699 -6 14v659v42c0 6 1.33301 9.5 4 10.5s6 -0.5 10 -4.5l11 -12c17.333 -19.333 26.333 -29.333 27 -30l224 -243c3.33301 -4 7.83301 -6 13.5 -6s10.167 2 13.5 6
l224 243c16.667 18 25.667 28 27 30l11 12c4 4 7.33301 5.5 10 4.5s4 -4.5 4 -10.5v-1v-700c0 -5.33301 -2 -10 -6 -14s-8.66699 -6 -14 -6h-63c-5.33301 0 -10 2 -14 6s-6 8.66699 -6 14v436c0 6 -1.33301 9.5 -4 10.5s-6 -0.5 -10 -4.5l-159 -173
c-3.33301 -4 -7.83301 -6 -13.5 -6s-10.167 2 -13.5 6l-159 173c-4 4 -7.33301 5.5 -10 4.5s-4 -4.5 -4 -10.5z" />
    <glyph glyph-name="N" unicode="N" horiz-adv-x="588" 
d="M141 426v-405c0 -5.33301 -2 -10 -6 -14s-8.66699 -6 -14 -6h-63c-5.33301 0 -10 2 -14 6s-6 8.66699 -6 14v682c0 10.667 2.5 17 7.5 19s11.167 -1.33301 18.5 -10l369 -426c3.33301 -4 6.33301 -5.5 9 -4.5s4 4.16699 4 9.5v391c0 3.33301 0.833008 6.5 2.5 9.5
s4 5.33301 7 7s6.5 2.5 10.5 2.5c21.333 0.666992 42.333 0.666992 63 0c4 0 7.5 -0.833008 10.5 -2.5s5.33301 -4 7 -7s2.5 -6.16699 2.5 -9.5v-668c0 -10.667 -2.5 -17 -7.5 -19s-11.167 1 -18.5 9l-368 427c-4 4 -7.33301 5.5 -10 4.5s-4 -4.16699 -4 -9.5z" />
    <glyph glyph-name="O" unicode="O" horiz-adv-x="792" 
d="M326 1c-54.667 10.667 -103.831 32.501 -147.498 65.501s-78 74.5 -103 124.5s-37.5 103.333 -37.5 160c0 85.333 26.833 160.666 80.5 225.999s121.5 106.666 203.5 123.999c24.667 5.33301 49.167 8 73.5 8s49.166 -2.66699 74.499 -8
c53.333 -11.333 101.5 -33.666 144.5 -66.999s76.833 -74.833 101.5 -124.5s37 -102.5 37 -158.5c0 -56.667 -12.5 -110 -37.5 -160s-59.333 -91.5 -103 -124.5s-92.834 -54.833 -147.501 -65.5c-23.333 -5.33301 -46.5 -8 -69.5 -8s-46.167 2.66699 -69.5 8z
M395.503 605.001c-70.333 0 -130.333 -24.833 -180 -74.5s-74.5 -109.5 -74.5 -179.5s24.833 -129.833 74.5 -179.5s109.667 -74.5 180 -74.5s130.333 24.833 180 74.5s74.5 109.5 74.5 179.5s-24.833 129.833 -74.5 179.5s-109.667 74.5 -180 74.5z" />
    <glyph glyph-name="P" unicode="P" horiz-adv-x="519" 
d="M162 299c-5.33301 0 -10.168 -2 -14.501 -6s-6.5 -9 -6.5 -15v-256c0 -6 -2 -11 -6 -15s-9 -6 -15 -6h-61c-6 0 -11 2 -15 6s-6 9 -6 15v664c0 4 1.33301 7.5 4 10.5s6 4.5 10 4.5h255c18.667 0 35.334 -3.33301 50.001 -10c44 -18.667 77.667 -49.667 101 -93
s29.333 -90.333 18 -141c-10.667 -46.667 -35.167 -84.667 -73.5 -114s-81.833 -44 -130.5 -44h-110zM376.998 494c3.33301 30 -5.16797 56 -25.501 78s-45.5 33 -75.5 33h-114c-5.33301 0 -10.166 -2 -14.499 -6s-6.5 -9 -6.5 -15v-160c0 -6 2.16699 -11 6.5 -15
s9.16602 -6 14.499 -6h110c26.667 0 50.334 8.66699 71.001 26s32 39 34 65z" />
    <glyph glyph-name="Q" unicode="Q" horiz-adv-x="792" 
d="M326 1c-82.667 16 -151.332 56.833 -205.999 122.5s-82 141.5 -82 227.5c0 85.333 26.833 160.666 80.5 225.999s121.5 106.666 203.5 123.999c24.667 5.33301 49.167 8 73.5 8s49.166 -2.66699 74.499 -8c81.333 -17.333 148.833 -58.666 202.5 -123.999
s80.5 -140.666 80.5 -225.999c0 -94 -33 -175.667 -99 -245c20 -24 37.333 -48.667 52 -74c4.66699 -6.66699 5 -13.5 1 -20.5s-10.333 -10.5 -19 -10.5h-72c-7.33301 0 -13 3 -17 9c-7.33301 10 -16 21 -26 33c-36 -21.333 -72 -35.333 -108 -42
c-23.333 -5.33301 -46.5 -8 -69.5 -8s-46.167 2.66699 -69.5 8zM396.002 97c24.667 0 49 3.66699 73 11c5.33301 1.33301 8.5 5 9.5 11s-1.16699 10.667 -6.5 14c-78 52 -163.333 78 -256 78c-4.66699 0 -15 -0.666992 -31 -2c23.333 -34.667 53.5 -62 90.5 -82
s77.167 -30 120.5 -30zM141.002 351c0 -8.66699 1.00195 -17.998 3.00195 -27.998c0 -4 1.5 -7.16699 4.5 -9.5s6.5 -3.16602 10.5 -2.49902c20.667 2 39.667 3 57 3c64.667 0 127.5 -10.833 188.5 -32.5s116.833 -52.834 167.5 -93.501
c7.33301 -5.33301 13.666 -4.66602 18.999 2.00098c48 58 66.667 124 56 198c-5.33301 37.333 -18.5 71.666 -39.5 102.999s-47.5 57 -79.5 77s-66.667 32 -104 36c-50 5.33301 -96.833 -2.83398 -140.5 -24.501s-78.334 -52.834 -104.001 -93.501s-38.5 -85.667 -38.5 -135
z" />
    <glyph glyph-name="R" unicode="R" horiz-adv-x="546" 
d="M161 299c-5.33301 0 -10.168 -1.99805 -14.501 -5.99805s-6.5 -9 -6.5 -15v-256c0 -6 -2 -11 -6 -15s-9 -6 -15 -6h-61c-6 0 -11 2 -15 6s-6 9 -6 15v658c0 5.33301 2 10.166 6 14.499s9 6.5 15 6.5h241c26.667 0 50.334 -5.66699 71.001 -17
c33.333 -17.333 60 -42 80 -74s30 -67.333 30 -106c0 -40 -10.667 -76.333 -32 -109s-49.333 -57.667 -84 -75c-5.33301 -2.66699 -8.83301 -6.83398 -10.5 -12.501s-1.16699 -11.167 1.5 -16.5l150 -259c4 -7.33301 4 -14.5 0 -21.5s-10 -10.5 -18 -10.5h-71
c-8 0 -14 3.66699 -18 11l-161 278c-4 6.66699 -10 10 -18 10h-58zM375.998 494.002c3.33301 30 -5.16895 55.999 -25.502 77.999s-45.166 33 -74.499 33h-115c-5.33301 0 -10.166 -2 -14.499 -6s-6.5 -9 -6.5 -15v-169c0 -3.33301 1.16699 -6.16602 3.5 -8.49902
s5.16602 -3.5 8.49902 -3.5h119c26.667 0 50.334 8.66699 71.001 26s32 39 34 65z" />
    <glyph glyph-name="S" unicode="S" horiz-adv-x="562" 
d="M124 51c-0.666992 0 -1.33008 0.499023 -1.99707 1.49902s-1.33398 1.5 -2.00098 1.5c-20.667 16.667 -38 35.667 -52 57s-24 44.333 -30 69c-1.33301 6 0 11.5 4 16.5s9 7.83301 15 8.5l62 6c11.333 1.33301 18.666 -3.66699 21.999 -15
c7.33301 -28.667 23.333 -52.334 48 -71.001c30 -22.667 64.5 -32 103.5 -28s70.833 20 95.5 48s35 59.667 31 95c-2 18.667 -6.66699 34.834 -14 48.501s-18.166 25.334 -32.499 35.001s-28.666 17.334 -42.999 23.001s-33.5 12.5 -57.5 20.5c-28 8.66699 -48 16 -60 22
c-52 24 -87.667 55 -107 93s-20.666 79.333 -3.99902 124c15.333 43.333 45.333 75.333 90 96c44.667 22 93 27 145 15c10.667 -2.66699 23 -7.66699 37 -15c25.333 -12.667 47.666 -30.167 66.999 -52.5s31.666 -48.5 36.999 -78.5c0.666992 -6 -1 -11.5 -5 -16.5
s-9.33301 -7.5 -16 -7.5l-62 -1c-10.667 -0.666992 -17.667 4.66602 -21 15.999c-3.33301 14 -10.5 26.167 -21.5 36.5s-19.833 17 -26.5 20s-11.334 4.83301 -14.001 5.5c-23.333 5.33301 -46 4 -68 -4s-36.667 -22.667 -44 -44
c-3.33301 -8.66699 -5.16602 -16.667 -5.49902 -24s0.833984 -15.5 3.50098 -24.5s9.33398 -18.167 20.001 -27.5s24.667 -18 42 -26c7.33301 -4 22.666 -9.66699 45.999 -17l35.5 -11c8.33301 -2.66699 20.666 -7.5 36.999 -14.5s29.666 -13.833 39.999 -20.5
s22.166 -15.5 35.499 -26.5s24.166 -22.5 32.499 -34.5s15.833 -26.667 22.5 -44s11.334 -36 14.001 -56c6.66699 -62 -11.333 -117.333 -54 -166c-8.66699 -10 -19.334 -20 -32.001 -30c-38 -30 -82 -47.333 -132 -52c-8 -0.666992 -16.667 -1 -26 -1
c-57.333 0 -108.666 16.667 -153.999 50z" />
    <glyph glyph-name="T" unicode="T" horiz-adv-x="508" 
d="M50 626v54c0 6 2 11 6 15s8.66699 6 14 6h367c6 0 11 -2 15 -6s6 -9 6 -15v-54c0 -6 -2 -11 -6 -15s-9 -6 -15 -6h-111c-5.33301 0 -10 -2 -14 -6s-6 -8.66699 -6 -14v-564c0 -5.33301 -2 -10 -6 -14s-9 -6 -15 -6h-62c-6 0 -11 2 -15 6s-6 8.66699 -6 14v564
c0 5.33301 -2 10 -6 14s-8.66699 6 -14 6h-112c-5.33301 0 -10 2 -14 6s-6 9 -6 15z" />
    <glyph glyph-name="U" unicode="U" horiz-adv-x="587" 
d="M236 1c-57.333 12.667 -104.666 42.165 -141.999 88.498s-56 99.5 -56 159.5v432c0 6 2 11 6 15s9 6 15 6h62c5.33301 0 10 -2 14 -6s6 -9 6 -15v-432c0 -44 16.167 -81 48.5 -111s70.5 -43.667 114.5 -41c40 2.66699 73.667 19.334 101 50.001s41 66.334 41 107.001v427
c0 4 0.833008 7.5 2.5 10.5s4.16699 5.5 7.5 7.5s7 3 11 3h61c6 0 11 -2 15 -6s6 -9 6 -15v-432c0 -60 -18.667 -113.167 -56 -159.5s-84.666 -75.833 -141.999 -88.5c-20.667 -5.33301 -39.834 -8 -57.501 -8s-36.834 2.66699 -57.501 8z" />
    <glyph glyph-name="V" unicode="V" horiz-adv-x="678" 
d="M333 -24l-1.99805 6l-16 37l-278 663c-2 5.33301 -1.66699 9.83301 1 13.5s6.66699 5.5 12 5.5h71c6 0 11.667 -1.83301 17 -5.5s9 -8.16699 11 -13.5l183 -437c2.66699 -5.33301 5.5 -8 8.5 -8s5.5 2.66699 7.5 8l180 437c2.66699 5.33301 6.66699 9.83301 12 13.5
s10.666 5.5 15.999 5.5h72c5.33301 0 9.16602 -1.83301 11.499 -5.5s2.5 -8.16699 0.5 -13.5l-273 -663c-1.33301 -3.33301 -4 -9.5 -8 -18.5s-6.66699 -15.167 -8 -18.5l-2 -6c-2 -5.33301 -4.66699 -8 -8 -8s-6 2.66699 -8 8z" />
    <glyph glyph-name="W" unicode="W" horiz-adv-x="933" 
d="M336 -26l-4 8c0 0.666992 -2.16699 6 -6.5 16s-7.5 17 -9.5 21l-279 663c-2 5.33301 -1.66699 9.83301 1 13.5s6.66699 5.5 12 5.5h71c6 0 11.667 -1.83301 17 -5.5s9.33301 -8.16699 12 -13.5l183 -435c2 -5.33301 4.5 -8 7.5 -8s5.5 2.66699 7.5 8l58 144
c4.66699 12.667 4.33398 25.334 -0.999023 38.001l-106 253c-2.66699 5.33301 -2.66699 9.83301 0 13.5s6.66699 5.5 12 5.5h72c5.33301 0 10.833 -1.83301 16.5 -5.5s9.5 -8.16699 11.5 -13.5l183 -435c2 -5.33301 4.5 -8 7.5 -8s5.5 2.66699 7.5 8l173 435
c2.66699 5.33301 6.66699 9.83301 12 13.5s10.666 5.5 15.999 5.5h71c5.33301 0 9.33301 -1.83301 12 -5.5s3 -8.16699 1 -13.5l-264 -662l-15 -38l-3 -8c-2 -5.33301 -4.5 -8 -7.5 -8s-5.5 2.66699 -7.5 8l-4 8l-7.5 18.5l-7.5 18.5l-100 236c-2 5.33301 -4.5 8 -7.5 8
s-5.5 -2.66699 -7.5 -8l-94 -235c-4.66699 -12.667 -9.66699 -25.334 -15 -38.001l-3 -8c-2 -5.33301 -4.5 -8 -7.5 -8s-5.5 2.66699 -7.5 8z" />
    <glyph glyph-name="X" unicode="X" horiz-adv-x="642" 
d="M130 1h-82.999c-5.33301 0 -9 1.66699 -11 5s-1.33301 7.33301 2 12l209 316c8 11.333 8 22.666 0 33.999l-208 316c-3.33301 4.66699 -4.16602 8.66699 -2.49902 12s5.5 5 11.5 5h83c13.333 0 23.666 -5.66699 30.999 -17l147 -222
c3.33301 -4.66699 7.16602 -7 11.499 -7s8.16602 2.33301 11.499 7l147 222c7.33301 11.333 18 17 32 17h83c5.33301 0 8.83301 -1.66699 10.5 -5s1.16699 -7.33301 -1.5 -12l-209 -316c-7.33301 -11.333 -7.33301 -22.666 0 -33.999l209 -316
c3.33301 -4.66699 4.16602 -8.66699 2.49902 -12s-5.5 -5 -11.5 -5h-83c-13.333 0 -24 5.66699 -32 17l-147 222c-3.33301 4.66699 -7.16602 7 -11.499 7s-8.16602 -2.33301 -11.499 -7l-147 -222c-7.33301 -11.333 -18 -17 -32 -17z" />
    <glyph glyph-name="Y" unicode="Y" horiz-adv-x="655" 
d="M275 21v249c0 14 -3.33301 26.667 -10 38l-227 375c-3.33301 4.66699 -4 8.83398 -2 12.501s5.66699 5.5 11 5.5h80c6 0 12 -1.83301 18 -5.5s10.333 -7.83398 13 -12.501l158 -261c3.33301 -4.66699 7 -7 11 -7s7.66699 2.33301 11 7l158 261
c2.66699 4.66699 7 8.83398 13 12.501s12 5.5 18 5.5h80c5.33301 0 9 -1.83301 11 -5.5s1.33301 -7.83398 -2 -12.501l-227 -375c-6.66699 -11.333 -10 -24 -10 -38v-249c0 -5.33301 -2 -10 -6 -14s-9 -6 -15 -6h-62c-6 0 -11 2 -15 6s-6 8.66699 -6 14z" />
    <glyph glyph-name="Z" unicode="Z" horiz-adv-x="577" 
d="M526 76v-55c0 -5.33301 -2 -10 -6 -14s-9 -6 -15 -6h-456c-6 0 -10 1.66699 -12 5s-1.66699 7.33301 1 12l325 570c2.66699 4.66699 3 8.66699 1 12s-5.66699 5 -11 5h-283c-5.33301 0 -10 2 -14 6s-6 9 -6 15v54c0 6 2 11 6 15s8.66699 6 14 6h456
c6 0 10 -1.83301 12 -5.5s1.66699 -7.83398 -1 -12.501l-325 -568c-2.66699 -5.33301 -3 -9.66602 -1 -12.999s5.66699 -5 11 -5h283c4 0 7.5 -1 10.5 -3s5.5 -4.5 7.5 -7.5s3 -6.5 3 -10.5z" />
    <glyph glyph-name="bracketleft" unicode="[" horiz-adv-x="268" 
d="M168 652c-6 0 -11.0039 -2 -15.0039 -6s-6 -9 -6 -15v-555c0 -6 2 -11 6 -15s9 -6 15 -6h34c2.66699 0 5.33398 -0.5 8.00098 -1.5s4.83398 -2.5 6.50098 -4.5s3 -4.16699 4 -6.5s1.5 -4.83301 1.5 -7.5v-63c0 -5.33301 -2 -10 -6 -14s-8.66699 -6 -14 -6h-138
c-5.33301 0 -10 2 -14 6s-6 8.66699 -6 14v763c0 5.33301 2 10 6 14s8.66699 6 14 6h138c2.66699 0 5.33398 -0.5 8.00098 -1.5s4.83398 -2.5 6.50098 -4.5s3 -4.16699 4 -6.5s1.5 -4.83301 1.5 -7.5v-63c0 -5.33301 -2 -10 -6 -14s-8.66699 -6 -14 -6h-34z" />
    <glyph glyph-name="backslash" unicode="\" horiz-adv-x="453" 
d="M149 684l265 -661.999c2 -5.33301 1.66699 -9.83301 -1 -13.5s-6.66699 -5.5 -12 -5.5h-71c-5.33301 0 -10.833 1.83301 -16.5 5.5s-9.5 8.16699 -11.5 13.5l-265 662c-2 5.33301 -1.66699 9.83301 1 13.5s6.66699 5.5 12 5.5h71c3.33301 0 7 -0.833008 11 -2.5
s7.5 -3.83398 10.5 -6.50098s5.16699 -6 6.5 -10z" />
    <glyph glyph-name="bracketright" unicode="]" horiz-adv-x="268" 
d="M202 755c5.33301 0 10 -2 14 -6s6 -8.66699 6 -14v-763c0 -5.33301 -2 -10 -6 -14s-8.66699 -6 -14 -6h-138c-5.33301 0 -10 2 -14 6s-6 8.66699 -6 14v63c0 5.33301 2 10 6 14s8.66699 6 14 6h35c3.33301 0 6.5 1 9.5 3s5.5 4.5 7.5 7.5s3 6.5 3 10.5v555
c0 6 -2 11 -6 15s-8.66699 6 -14 6h-35c-5.33301 0 -10 2 -14 6s-6 8.66699 -6 14v63c0 5.33301 2 10 6 14s8.66699 6 14 6h138z" />
    <glyph glyph-name="asciicircum" unicode="^" horiz-adv-x="433" 
d="M400 491c3.33301 -4.66699 4.16797 -8.66699 2.50098 -12s-5.16699 -5 -10.5 -5h-87c-13.333 0 -24 5.66699 -32 17l-45 63c-3.33301 4.66699 -7.33301 7 -12 7s-8.66699 -2.33301 -12 -7l-46 -63c-8 -11.333 -18.667 -17 -32 -17h-86c-6 0 -9.83301 1.66699 -11.5 5
s-0.833984 7.33301 2.49902 12l173 241c3.33301 4.66699 7.33301 7 12 7s8.66699 -2.33301 12 -7z" />
    <glyph glyph-name="underscore" unicode="_" horiz-adv-x="525" 
d="M454 99c6 0 11 -2 15 -6s6 -8.66699 6 -14v-62c0 -6 -2 -11 -6 -15s-9 -6 -15 -6h-384c-5.33301 0 -10 2 -14 6s-6 9 -6 15v62c0 5.33301 2 10 6 14s8.66699 6 14 6h384z" />
    <glyph glyph-name="grave" unicode="`" horiz-adv-x="189" 
d="M106 684l36.001 -107.001c1.33301 -3.33301 1.66602 -6.83301 0.999023 -10.5s-2.16699 -7 -4.5 -10s-5.16602 -5.16699 -8.49902 -6.5l-2 -1c-5.33301 -2 -10.833 -2.16699 -16.5 -0.5s-9.83398 5.16699 -12.501 10.5l-53 100c-2.66699 4.66699 -3 9.66699 -1 15
s5.33301 9 10 11l25 11c5.33301 2 10.5 1.83301 15.5 -0.5s8.5 -6.16602 10.5 -11.499z" />
    <glyph glyph-name="a" unicode="a" horiz-adv-x="503" 
d="M217 -13c-52.667 0 -95.667 14.166 -129 42.499s-50 65.166 -50 110.499c0 50 18.5 90 55.5 120s86.5 45 148.5 45c40.667 0 80 -6.66699 118 -20c-1.33301 16.667 -6.5 31.834 -15.5 45.501s-20.667 24.667 -35 33s-30.166 12.5 -47.499 12.5
c-38 0 -69.667 -6.33301 -95 -19c-6 -3.33301 -12.333 -4 -19 -2s-12 5.66699 -16 11l-27 43c-4 6 -5 12.833 -3 20.5s6.33301 13.167 13 16.5c41.333 22 90.666 33 147.999 33c55.333 0 102.666 -19.833 141.999 -59.5s59 -87.167 59 -142.5v-252c0 -4 -1 -7.66699 -3 -11
s-4.83301 -6 -8.5 -8s-7.5 -3 -11.5 -3h-24c-15.333 0 -28.5 5.33301 -39.5 16s-16.5 24 -16.5 40c-12 -19.333 -32.667 -36.166 -62 -50.499s-56.666 -21.5 -81.999 -21.5zM188 193.999c-31.333 -9.33301 -47 -27.333 -47 -54c0 -10.667 3.16699 -19.667 9.5 -27
s14.333 -12.5 24 -15.5s17.667 -4.83301 24 -5.5s12.5 -1 18.5 -1c26.667 0 53 7.16699 79 21.5s44.333 35.5 55 63.5c-28.667 17.333 -65 26 -109 26c-20 0 -38 -2.66699 -54 -8z" />
    <glyph glyph-name="b" unicode="b" 
d="M326 5c-42 -8 -79.834 -5.00195 -113.501 8.99805s-57.5 31 -71.5 51c0 -17.333 -6 -32.166 -18 -44.499s-26.667 -18.5 -44 -18.5h-15c-7.33301 0 -13.5 2.66699 -18.5 8s-7.5 11.666 -7.5 18.999v683c0 4.66699 1.16699 9 3.5 13s5.5 7.16699 9.5 9.5
s8.33301 3.5 13 3.5h51c7.33301 0 13.5 -2.5 18.5 -7.5s7.5 -11.167 7.5 -18.5v-276c41.333 28.667 86.666 43 135.999 43c46.667 0 89.5 -12.5 128.5 -37.5s68.5 -58.667 88.5 -101s26.667 -87.5 20 -135.5c-7.33301 -49.333 -28.166 -92.666 -62.499 -129.999
s-76.166 -60.666 -125.499 -69.999zM276.999 375.998c-37.333 0 -69.332 -13.333 -95.999 -40s-40 -58.667 -40 -96s13.333 -69.333 40 -96s58.667 -40 96 -40s69.333 13.333 96 40s40 58.667 40 96c0 18 -3.66699 35.5 -11 52.5s-17 31.5 -29 43.5s-26.333 21.667 -43 29
s-34.334 11 -53.001 11z" />
    <glyph glyph-name="c" unicode="c" horiz-adv-x="478" 
d="M279 1c-66 0 -122.333 23.3359 -169 70.0029s-70 103 -70 169s23.333 122.333 70 169c41.333 41.333 92.833 63.666 154.5 66.999s115.5 -12.667 161.5 -48c6 -4.66699 9.16699 -11 9.5 -19s-2.16699 -14.667 -7.5 -20l-36 -36
c-10.667 -10.667 -22.334 -11.667 -35.001 -3c-26 18.667 -55.833 26.667 -89.5 24s-61.834 -15.334 -84.501 -38.001c-26.667 -26.667 -40 -58.667 -40 -96s13.333 -69.333 40 -96c22.667 -22.667 50.834 -35.334 84.501 -38.001s63.5 5 89.5 23
c12.667 8.66699 24.334 8 35.001 -2l36 -36c5.33301 -6 7.83301 -12.833 7.5 -20.5s-3.5 -14.167 -9.5 -19.5c-42.667 -33.333 -91.667 -50 -147 -50z" />
    <glyph glyph-name="d" unicode="d" 
d="M413 65c-14 -20 -37.8311 -36.9951 -71.498 -50.9951s-71.5 -17 -113.5 -9c-49.333 9.33301 -91.166 32.666 -125.499 69.999s-55.166 80.666 -62.499 129.999c-6.66699 48 0 93.167 20 135.5s49.5 76 88.5 101s81.833 37.5 128.5 37.5
c49.333 0 94.666 -14.333 135.999 -43v276c0 3.33301 0.666992 6.66602 2 9.99902s3.16602 6.16602 5.49902 8.49902s5.16602 4.16602 8.49902 5.49902s6.66602 2 9.99902 2h51c7.33301 0 13.5 -2.5 18.5 -7.5s7.5 -11.167 7.5 -18.5v-683
c0 -7.33301 -2.5 -13.666 -7.5 -18.999s-11.167 -8 -18.5 -8h-15c-17.333 0 -32 6.16699 -44 18.5s-18 27.166 -18 44.499zM413.002 240.005c0 18 -3.66602 35.5 -10.999 52.5s-17 31.5 -29 43.5s-26.333 21.667 -43 29s-34.334 11 -53.001 11
c-37.333 0 -69.333 -13.333 -96 -40s-40 -58.667 -40 -96s13.333 -69.333 40 -96s58.667 -40 96 -40s69.333 13.333 96 40s40 58.667 40 96z" />
    <glyph glyph-name="e" unicode="e" horiz-adv-x="553" 
d="M161 29c-18 9.33301 -34.1689 20.668 -48.502 34.001s-25.5 26.166 -33.5 38.499s-14.667 23.833 -20 34.5s-9 19.334 -11 26.001l-2 10c-18.667 63.333 -12.167 124 19.5 182s79.167 96.333 142.5 115s124.333 12 183 -20c35.333 -19.333 64 -46 86 -80
c12.667 -19.333 22.334 -40 29.001 -62c3.33301 -11.333 6 -22.333 8 -33c1.33301 -4.66699 0.5 -9.33398 -2.5 -14.001s-7.16699 -7.66699 -12.5 -9l-314 -93c-4 -0.666992 -6.5 -2.83398 -7.5 -6.50098s0.166992 -7.16699 3.5 -10.5c8.66699 -8.66699 18.667 -16 30 -22
c32.667 -18 67 -21.667 103 -11c30 8.66699 54 25.334 72 50.001c7.33301 10 16.333 12 27 6l54 -29c5.33301 -3.33301 8.83301 -8 10.5 -14s0.833984 -11.333 -2.49902 -16c-32.667 -48 -76.667 -80 -132 -96c-22 -6.66699 -44.333 -10 -67 -10c-40.667 0 -79 10 -115 30z
M155.998 304.002c-6 -10.667 -10.333 -22 -13 -34c-0.666992 -4 0.333008 -7.33301 3 -10s6 -3.33398 10 -2.00098l216 63c2 0.666992 3.5 2.33398 4.5 5.00098s0.5 5 -1.5 7c-10 10 -21.333 18.667 -34 26c-20 11.333 -41.667 17 -65 17c-13.333 0 -26.333 -2 -39 -6
c-36 -10.667 -63 -32.667 -81 -66z" />
    <glyph glyph-name="f" unicode="f" horiz-adv-x="469" 
d="M144 2c-6 0 -11.167 2.16895 -15.5 6.50195s-6.5 9.5 -6.5 15.5v330c0 6 -2 11 -6 15s-9 6 -15 6h-34c-5.33301 0 -10.166 2.16699 -14.499 6.5s-6.5 9.5 -6.5 15.5v60c0 6 2.16699 11 6.5 15s9.16602 6 14.499 6h34c2.66699 0 5.33398 0.666992 8.00098 2s5 3 7 5
s3.5 4.33301 4.5 7s1.5 5.33398 1.5 8.00098v84c0 47.333 16.167 88.5 48.5 123.5s71.833 53.167 118.5 54.5c50 1.33301 92.333 -15.334 127 -50.001c4.66699 -4.66699 6.66699 -10.167 6 -16.5s-3.33398 -11.5 -8.00098 -15.5l-50 -38
c-8.66699 -6 -17.334 -5.66699 -26.001 1c-13.333 11.333 -28.666 16.666 -45.999 15.999c-12 -0.666992 -23.167 -4.33398 -33.5 -11.001s-18.333 -15.5 -24 -26.5s-8.5 -22.833 -8.5 -35.5v-86c0 -4 0.833008 -7.66699 2.5 -11s4.16699 -6 7.5 -8s7 -3 11 -3h85
c6 0 11 -2 15 -6s6 -9 6 -15v-60c0 -6 -2 -11.167 -6 -15.5s-9 -6.5 -15 -6.5h-85c-6 0 -11 -2 -15 -6s-6 -9 -6 -15v-330c0 -6 -2.16699 -11.167 -6.5 -15.5s-9.5 -6.5 -15.5 -6.5h-60z" />
    <glyph glyph-name="g" unicode="g" horiz-adv-x="554" 
d="M252 2c-55.333 6 -103.17 29.002 -143.503 69.002s-63.5 87.333 -69.5 142c-7.33301 72 12.834 134.333 60.501 187s106.834 79 177.501 79c25.333 0 47.666 -3.5 66.999 -10.5s33.166 -14.167 41.499 -21.5s17.5 -17 27.5 -29c0 15.333 5.33301 28.333 16 39
s23.334 16 38.001 16h27c4 0 7.66699 -1 11 -3s6 -4.66699 8 -8s3 -7 3 -11v-448h-1c-0.666992 -46.667 -12.667 -89.334 -36 -128.001s-54.666 -69.334 -93.999 -92.001s-82.333 -34 -129 -34c-48.667 0 -94 12.667 -136 38c-6 4 -9.66699 9.83301 -11 17.5
s0.333984 14.5 5.00098 20.5l32 41c4 5.33301 9.16699 8.5 15.5 9.5s12.166 0.166992 17.499 -2.5c22.667 -13.333 47.334 -20.333 74.001 -21c28.667 0 55.334 7.33301 80.001 22s44.167 34.667 58.5 60s21.5 52.333 21.5 81v28c-48.667 -33.333 -102.334 -47 -161.001 -41
zM276.996 376.002c-37.333 0 -69.333 -13.333 -96 -40s-40 -58.667 -40 -96s13.333 -69.333 40 -96s58.667 -40 96 -40s69.333 13.333 96 40s40 58.667 40 96c0 18 -3.66699 35.5 -11 52.5s-17 31.5 -29 43.5s-26.5 21.667 -43.5 29s-34.5 11 -52.5 11z" />
    <glyph glyph-name="h" unicode="h" horiz-adv-x="489" 
d="M141 273l0.000976562 -247c0 -6.66699 -2.33301 -12.334 -7 -17.001s-10.334 -7 -17.001 -7h-55c-6.66699 0 -12.334 2.33301 -17.001 7s-7 10.334 -7 17.001v688c0 6.66699 2.33301 12.334 7 17.001s10.334 7 17.001 7h55c6.66699 0 12.334 -2.33301 17.001 -7
s7 -10.334 7 -17.001v-264c40.667 24 83.334 33 128.001 27c52 -6.66699 95.167 -30.5 129.5 -71.5s51.5 -88.167 51.5 -141.5v-238c0 -6.66699 -2.33301 -12.334 -7 -17.001s-10.334 -7 -17.001 -7h-55c-6.66699 0 -12.334 2.33301 -17.001 7s-7 10.334 -7 17.001v242
c0 27.333 -8.83301 51.333 -26.5 72s-39.834 32.334 -66.501 35.001c-20 2 -38.667 -1.33301 -56 -10s-31.166 -21.334 -41.499 -38.001s-15.5 -34.667 -15.5 -54z" />
    <glyph glyph-name="i" unicode="i" horiz-adv-x="202" 
d="M153 453v-430c0 -6 -2 -11 -6 -15s-9 -6 -15 -6h-62c-6 0 -11 2 -15 6s-6 9 -6 15v430c0 5.33301 2 10 6 14s9 6 15 6h62c6 0 11 -2 15 -6s6 -8.66699 6 -14zM169 591.5c0 -18.333 -6.66699 -34 -20 -47s-29.333 -19.5 -48 -19.5s-34.667 6.5 -48 19.5s-20 28.5 -20 46.5
c0 12 3 23.167 9 33.5s14.333 18.5 25 24.5s22 9 34 9c18.667 0 34.667 -6.5 48 -19.5s20 -28.667 20 -47z" />
    <glyph glyph-name="j" unicode="j" horiz-adv-x="326" 
d="M68 -235c-7.33301 -0.666992 -13.667 1.50195 -19 6.50195s-8 11.167 -8 18.5v55c0 6 1.83301 11.167 5.5 15.5s8.5 7.16602 14.5 8.49902c29.333 6 53.833 23.667 73.5 53s29.5 63 29.5 101v426c0 6.66699 2.5 12.334 7.5 17.001s10.833 7 17.5 7h54
c6.66699 0 12.5 -2.33301 17.5 -7s7.5 -10.334 7.5 -17.001v-432h-1c-1.33301 -64.667 -21 -120.834 -59 -168.501s-84.667 -75.5 -140 -83.5zM147.999 591.502c0 18.333 6.66699 34 20 47s29.333 19.5 48 19.5s34.667 -6.5 48 -19.5s20 -28.833 20 -47.5
c0 -12 -3 -23 -9 -33s-14.333 -18 -25 -24s-22 -9 -34 -9c-18.667 0 -34.667 6.5 -48 19.5s-20 28.667 -20 47z" />
    <glyph glyph-name="k" unicode="k" horiz-adv-x="512" 
d="M138 68l-0.00195312 -45c0 -6 -2 -11 -6 -15s-8.66699 -6 -14 -6h-63c-5.33301 0 -10 2 -14 6s-6 9 -6 15v695c0 5.33301 2 10 6 14s8.66699 6 14 6h63c5.33301 0 10 -2 14 -6s6 -8.66699 6 -14v-452c0 -5.33301 1.33301 -8.5 4 -9.5s6 0.5 10 4.5l171 197
c8.66699 10 19.667 15 33 15h97c5.33301 0 8.66602 -1.5 9.99902 -4.5s0.333008 -6.5 -3 -10.5l-176 -203c-4 -4 -6 -9 -6 -15s2 -11 6 -15l187 -208c4 -4 5.33301 -7.5 4 -10.5s-4.66602 -4.5 -9.99902 -4.5h-99c-13.333 0 -24.666 5 -33.999 15l-116 129
c-4 4.66699 -8.66699 7 -14 7s-9.66602 -2.33301 -12.999 -7l-37 -42c-9.33301 -10.667 -14 -22.667 -14 -36z" />
    <glyph glyph-name="l" unicode="l" horiz-adv-x="179" 
d="M141 718l0.000976562 -694.999c0 -6 -2 -11 -6 -15s-8.66699 -6 -14 -6h-63c-5.33301 0 -10 2 -14 6s-6 9 -6 15v695c0 3.33301 0.833008 6.66602 2.5 9.99902s4.16699 5.83301 7.5 7.5s6.66602 2.5 9.99902 2.5h63c5.33301 0 10 -2 14 -6s6 -8.66699 6 -14z" />
    <glyph glyph-name="m" unicode="m" horiz-adv-x="759" 
d="M141 273l0.00488281 -247c0 -6.66699 -2.33301 -12.334 -7 -17.001s-10.334 -7 -17.001 -7h-55c-6.66699 0 -12.334 2.33301 -17.001 7s-7 10.334 -7 17.001v422c0 7.33301 2.33301 13.333 7 18s10.334 7 17.001 7h39c11.333 0 20.833 -4 28.5 -12s11.5 -17.667 11.5 -29
c10 13.333 23.833 24.5 41.5 33.5s35.167 13.5 52.5 13.5c57.333 0 105.333 -22.667 144 -68c40 45.333 88.333 68 145 68c54.667 0 101.167 -20.167 139.5 -60.5s57.5 -88.833 57.5 -145.5v-247c0 -6.66699 -2.33301 -12.334 -7 -17.001s-10.334 -7 -17.001 -7h-55
c-6.66699 0 -12.334 2.33301 -17.001 7s-7 10.334 -7 17.001v247c0 28 -9.16699 52.167 -27.5 72.5s-40.333 30.5 -66 30.5s-47.667 -10.167 -66 -30.5s-27.5 -44.5 -27.5 -72.5v-247c0 -6.66699 -2.33301 -12.334 -7 -17.001s-10.334 -7 -17.001 -7h-55
c-6.66699 0 -12.334 2.33301 -17.001 7s-7 10.334 -7 17.001v247c0 28 -9.16699 52.167 -27.5 72.5s-40.333 30.5 -66 30.5s-47.667 -10.167 -66 -30.5s-27.5 -44.5 -27.5 -72.5z" />
    <glyph glyph-name="n" unicode="n" horiz-adv-x="489" 
d="M141 273l0.00195312 -247.001c0 -6.66699 -2.33301 -12.334 -7 -17.001s-10.334 -7 -17.001 -7h-55c-6.66699 0 -12.334 2.33301 -17.001 7s-7 10.334 -7 17.001v422c0 7.33301 2.33301 13.333 7 18s10.334 7 17.001 7h39c11.333 0 20.833 -4 28.5 -12
s11.5 -17.667 11.5 -29v-2c15.333 15.333 34.833 27.833 58.5 37.5s46.834 12.834 69.501 9.50098c34.667 -4 65.834 -16.167 93.501 -36.5s49.167 -46 64.5 -77s23 -64.167 23 -99.5v-238c0 -6.66699 -2.33301 -12.334 -7 -17.001s-10.334 -7 -17.001 -7h-55
c-6.66699 0 -12.334 2.33301 -17.001 7s-7 10.334 -7 17.001v242c0 27.333 -8.83301 51.333 -26.5 72s-39.5 32.334 -65.5 35.001c-30.667 3.33301 -57.334 -5.33398 -80.001 -26.001s-34 -46 -34 -76z" />
    <glyph glyph-name="o" unicode="o" 
d="M277 1c-66 0 -122.333 23.333 -169 70s-70 103 -70 169s23.333 122.333 70 169s103 70 169 70s122.333 -23.333 169 -70s70 -103 70 -169s-23.333 -122.333 -70 -169s-103 -70 -169 -70zM277 376c-24.667 0 -47.332 -6.16602 -67.999 -18.499
s-37.167 -28.833 -49.5 -49.5s-18.5 -43.334 -18.5 -68.001c0 -37.333 13.333 -69.333 40 -96s58.667 -40 96 -40s69.333 13.333 96 40s40 58.667 40 96c0 18 -3.66699 35.5 -11 52.5s-17 31.5 -29 43.5s-26.333 21.667 -43 29s-34.334 11 -53.001 11z" />
    <glyph glyph-name="p" unicode="p" 
d="M141 416c6 8.66699 14.334 17.168 25.001 25.501s24.167 16.166 40.5 23.499s34.333 12 54 14s41.5 1 65.5 -3c49.333 -9.33301 91.166 -32.5 125.499 -69.5s55.166 -80.5 62.499 -130.5c6.66699 -48 0 -93.167 -20 -135.5s-49.333 -76 -88 -101
s-81.667 -37.5 -129 -37.5c-49.333 0 -94.666 14.333 -135.999 43v-246c0 -4.66699 -1.16699 -9 -3.5 -13s-5.5 -7.16699 -9.5 -9.5s-8.33301 -3.5 -13 -3.5h-51c-7.33301 0 -13.5 2.66699 -18.5 8s-7.5 11.333 -7.5 18v653c0 7.33301 2.5 13.666 7.5 18.999
s11.167 8 18.5 8h15c17.333 0 32 -6.16699 44 -18.5s18 -27.166 18 -44.499zM141.001 241.001c0 -37.333 13.332 -69.334 39.999 -96.001s58.667 -40 96 -40c24.667 0 47.334 6.16699 68.001 18.5s37.167 28.833 49.5 49.5s18.5 43.334 18.5 68.001
c0 37.333 -13.333 69.333 -40 96s-58.667 40 -96 40s-69.333 -13.333 -96 -40s-40 -58.667 -40 -96z" />
    <glyph glyph-name="q" unicode="q" 
d="M228 476c42 8 79.8369 4.99902 113.504 -9.00098s57.5 -31 71.5 -51c0 17.333 6 32.166 18 44.499s26.667 18.5 44 18.5h15c3.33301 0 6.66602 -0.666992 9.99902 -2s6.16602 -3.16602 8.49902 -5.49902s4.16602 -5.16602 5.49902 -8.49902s2 -7 2 -11v-653
c0 -4.66699 -1.16699 -9 -3.5 -13s-5.5 -7.16699 -9.5 -9.5s-8.33301 -3.5 -13 -3.5h-51c-7.33301 0 -13.5 2.66699 -18.5 8s-7.5 11.333 -7.5 18v246c-41.333 -28.667 -86.666 -43 -135.999 -43c-46.667 0 -89.5 12.5 -128.5 37.5s-68.5 58.667 -88.5 101
s-26.667 87.5 -20 135.5c7.33301 50 28.166 93.5 62.499 130.5s76.166 60.167 125.499 69.5zM277.004 104.999c37.333 0 69.333 13.333 96 40s40 58.667 40 96s-13.333 69.333 -40 96s-58.667 40 -96 40s-69.333 -13.333 -96 -40s-40 -58.667 -40 -96s13.333 -69.333 40 -96
s58.667 -40 96 -40z" />
    <glyph glyph-name="r" unicode="r" horiz-adv-x="353" 
d="M147 427c31.333 34.667 65.668 51.999 103.001 51.999c12.667 0 25.334 -1.33301 38.001 -4c3.33301 -0.666992 6.5 -2.16699 9.5 -4.5s5.5 -5.16602 7.5 -8.49902s3 -7 3 -11v-56c0 -8 -3.16699 -14.333 -9.5 -19s-13.5 -6 -21.5 -4c-15.333 4 -31 4.66699 -47 2
c-24 -5.33301 -43.833 -18 -59.5 -38s-23.5 -42.667 -23.5 -68v-242c0 -6.66699 -2.33301 -12.334 -7 -17.001s-10.334 -7 -17.001 -7h-55c-6.66699 0 -12.334 2.33301 -17.001 7s-7 10.334 -7 17.001v428c0 5.33301 1.83301 9.83301 5.5 13.5s8.16699 5.5 13.5 5.5h65
c5.33301 0 9.83301 -1.83301 13.5 -5.5s5.5 -8.16699 5.5 -13.5v-27z" />
    <glyph glyph-name="s" unicode="s" horiz-adv-x="446" 
d="M219 -4c-40.667 0 -77.6699 10.6699 -111.003 32.0029s-56 48.666 -68 81.999c-2.66699 7.33301 -1.83398 14.333 2.49902 21s10.166 10.667 17.499 12l56 7c11.333 1.33301 19.666 -2.66699 24.999 -12c4 -8 10.5 -15.167 19.5 -21.5s19.5 -11 31.5 -14
s24.333 -4.16699 37 -3.5c28 2.66699 49 13 63 31c8.66699 10 12 20.667 10 32c-1.33301 12.667 -8 22.167 -20 28.5s-33.333 12.833 -64 19.5c-25.333 5.33301 -43.333 10.333 -54 15c-39.333 16.667 -66.666 41.334 -81.999 74.001s-15.333 67 0 103
c12.667 30.667 35.834 53.5 69.501 68.5s70.167 18.833 109.5 11.5c22 -4.66699 43.833 -15.334 65.5 -32.001s36.167 -38 43.5 -64c2.66699 -7.33301 1.5 -14.333 -3.5 -21s-11.5 -10 -19.5 -10l-60 -1c-7.33301 -0.666992 -13.666 2.66602 -18.999 9.99902
c-7.33301 8.66699 -16.666 14 -27.999 16c-14.667 3.33301 -28 3 -40 -1s-19.667 -9.66699 -23 -17c-7.33301 -17.333 1.66699 -31 27 -41c4.66699 -2 16.334 -5.33301 35.001 -10c15.333 -3.33301 27.833 -6.16602 37.5 -8.49902s22.834 -7 39.501 -14
s30.334 -14.833 41.001 -23.5s20.667 -20.834 30 -36.501s15.333 -33.5 18 -53.5c5.33301 -40 -5.66699 -76.667 -33 -110c-32.667 -40.667 -77.334 -63.334 -134.001 -68.001c-6.66699 -0.666992 -13 -1 -19 -1z" />
    <glyph glyph-name="t" unicode="t" horiz-adv-x="409" 
d="M193 666c8 4.66699 16.167 4.66602 24.5 -0.000976562s12.5 -11.667 12.5 -21v-142c0 -6.66699 2.33301 -12.5 7 -17.5s10.334 -7.5 17.001 -7.5h79c6.66699 0 12.334 -2.33301 17.001 -7s7 -10.334 7 -17.001v-54c0 -7.33301 -2.33301 -13.333 -7 -18
s-10.334 -7 -17.001 -7h-79c-6.66699 0 -12.334 -2.33301 -17.001 -7s-7 -10.334 -7 -17.001v-177c0 -15.333 4.66699 -29.166 14 -41.499s21.666 -20.5 36.999 -24.5c11.333 -3.33301 17 -11.333 17 -24v-55c0 -7.33301 -2.66699 -13.5 -8 -18.5
s-11.666 -6.83301 -18.999 -5.5c-41.333 6.66699 -75.833 26 -103.5 58s-41.5 69.333 -41.5 112v176c0 6.66699 -2.33301 12.334 -7 17.001s-10.334 7 -17.001 7h-28c-6.66699 0 -12.334 2.5 -17.001 7.5s-7 10.833 -7 17.5v54c0 6.66699 2.33301 12.334 7 17.001
s10.334 7 17.001 7h28c6.66699 0 12.334 2.5 17.001 7.5s7 10.833 7 17.5v110c0 9.33301 4 16.333 12 21z" />
    <glyph glyph-name="u" unicode="u" horiz-adv-x="489" 
d="M219 -2c-52 6.66699 -95.1699 30.501 -129.503 71.501s-51.5 88.167 -51.5 141.5v237c0 7.33301 2.33301 13.333 7 18s10.334 7 17.001 7h55c6.66699 0 12.334 -2.33301 17.001 -7s7 -10.667 7 -18v-246c0 -30 11.333 -55.333 34 -76s49 -29.334 79 -26.001
c26.667 2.66699 48.834 14.334 66.501 35.001s26.5 44.667 26.5 72v237c0 6.66699 2.33301 12.334 7 17.001s10.667 7 18 7h54c6.66699 0 12.334 -2.33301 17.001 -7s7 -10.334 7 -17.001v-417c0 -7.33301 -2.33301 -13.333 -7 -18s-10.334 -7 -17.001 -7h-34
c-12.667 0 -23.334 4.5 -32.001 13.5s-13 19.5 -13 31.5c-3.33301 -8.66699 -12.166 -17.334 -26.499 -26.001s-31 -15.167 -50 -19.5s-36.167 -5.5 -51.5 -3.5z" />
    <glyph glyph-name="v" unicode="v" horiz-adv-x="542" 
d="M504 450l-223 -458c-2 -5.33301 -4.83301 -8 -8.5 -8s-6.5 2.66699 -8.5 8l-226 458c-2.66699 5.33301 -2.83398 9.66602 -0.500977 12.999s6.16602 5 11.499 5h75c5.33301 0 10.833 -1.66699 16.5 -5s9.83398 -7.66602 12.501 -12.999l110 -223
c2 -4.66699 4.83301 -7 8.5 -7s6.83398 2.33301 9.50098 7l108 223c2 5.33301 6 9.83301 12 13.5s11.667 5.5 17 5.5h74c6 0 10 -1.83301 12 -5.5s2 -8.16699 0 -13.5z" />
    <glyph glyph-name="w" unicode="w" horiz-adv-x="766" 
d="M372 177l-86.9971 -186c-2.66699 -4.66699 -5.66699 -7 -9 -7s-6.33301 2.33301 -9 7l-229 459c-2.66699 5.33301 -2.83398 9.83301 -0.500977 13.5s6.16602 5.5 11.499 5.5h75c5.33301 0 11 -1.83301 17 -5.5s10 -8.16699 12 -13.5l111 -222
c2.66699 -5.33301 5.66699 -7.83301 9 -7.5s6.33301 2.83301 9 7.5l32 67c5.33301 12.667 5 25 -1 37l-59 118c-2.66699 5.33301 -2.83398 9.83301 -0.500977 13.5s6.5 5.5 12.5 5.5h74c6 0 11.833 -1.83301 17.5 -5.5s9.83398 -8.16699 12.501 -13.5l116 -233
c2 -4.66699 4.83301 -7 8.5 -7s6.83398 2.66699 9.50098 8l109 232c2.66699 5.33301 6.83398 9.66602 12.501 12.999s11.167 5 16.5 5h74c5.33301 0 9.16602 -1.66699 11.499 -5s2.16602 -7.66602 -0.500977 -12.999l-221 -469c-2 -5.33301 -4.83301 -8 -8.5 -8
s-6.83398 2.66699 -9.50098 8l-98 197c-2.66699 4.66699 -5.66699 7 -9 7s-6.33301 -2.66699 -9 -8z" />
    <glyph glyph-name="x" unicode="x" horiz-adv-x="486" 
d="M39 22l129.999 197c8 11.333 8 22.666 0 33.999l-131 199c-3.33301 4.66699 -4 8.66699 -2 12s5.66699 5 11 5h83c14 0 24.667 -5.66699 32 -17l69 -105c3.33301 -4.66699 7.16602 -7 11.499 -7s8.16602 2.33301 11.499 7l69 105c8 11.333 18.667 17 32 17h83
c6 0 9.83301 -1.66699 11.5 -5s0.833984 -7.33301 -2.49902 -12l-131 -199c-7.33301 -11.333 -7.33301 -22.666 0 -33.999l130 -197c3.33301 -4.66699 4 -8.66699 2 -12s-5.66699 -5 -11 -5h-83c-14 0 -24.667 5.66699 -32 17l-68 103
c-3.33301 4.66699 -7.16602 7 -11.499 7s-8.16602 -2.33301 -11.499 -7l-68 -103c-7.33301 -11.333 -18 -17 -32 -17h-83c-5.33301 0 -8.83301 1.66699 -10.5 5s-1.16699 7.33301 1.5 12z" />
    <glyph glyph-name="y" unicode="y" horiz-adv-x="550" 
d="M105 -141l104 213.999c6 12 6 24.333 0 37l-168 340c-2.66699 5.33301 -2.83398 9.83301 -0.500977 13.5s6.16602 5.5 11.499 5.5h75c5.33301 0 10.833 -1.83301 16.5 -5.5s9.83398 -8.16699 12.501 -13.5l110 -223c2 -4.66699 4.83301 -7 8.5 -7
s6.83398 2.33301 9.50098 7l92 192l9.5 19.5c4.33301 9 6.83301 13.833 7.5 14.5l8 16h94c6 0 10 -1.83301 12 -5.5s2 -8.16699 0 -13.5l-309 -636l-9 -18c-2 -4 -4 -8.66699 -6 -14c-4.66699 -8.66699 -13.667 -13 -27 -13h-74c-6 0 -10 1.83301 -12 5.5
s-2 7.83398 0 12.501l17 36l9 18z" />
    <glyph glyph-name="z" unicode="z" horiz-adv-x="474" 
d="M400 4l-345 -0.000976562c-5.33301 0 -9 1.66699 -11 5s-1.33301 7.33301 2 12l201 334c2.66699 4.66699 3 8.66699 1 12s-5.66699 5 -11 5h-170c-5.33301 0 -10 2 -14 6s-6 9 -6 15v54v23c0 2.66699 6.66699 4 20 4h351c5.33301 0 9 -1.66699 11 -5
s1.66699 -7.66602 -1 -12.999l-201 -334c-3.33301 -4.66699 -4 -8.66699 -2 -12s5.66699 -5 11 -5h164c5.33301 0 10 -2 14 -6s6 -8.66699 6 -14v-61c0 -5.33301 -2 -10 -6 -14s-8.66699 -6 -14 -6z" />
    <glyph glyph-name="braceleft" unicode="{" horiz-adv-x="364" 
d="M246 577l-0.000976562 -31c0 -72 -22 -136.667 -66 -194c44 -64 66 -134.667 66 -212v-10c0 -17.333 5.5 -32.833 16.5 -46.5s24.5 -22.5 40.5 -26.5c12 -2.66699 18 -10.334 18 -23.001v-55c0 -4.66699 -1.16699 -9.16699 -3.5 -13.5s-5.66602 -7.5 -9.99902 -9.5
s-9.16602 -2.66699 -14.499 -2c-42.667 6.66699 -78.334 26.667 -107.001 60s-43 72 -43 116v10c0 68 -22.667 127.667 -68 179l-34 37l36 35c44 42 66 93.667 66 155v31c0 28.667 6.66699 55.834 20 81.501s31.333 46.667 54 63s48 26.833 76 31.5
c7.33301 1.33301 13.833 -0.666992 19.5 -6s8.5 -11.666 8.5 -18.999v-55c0 -12.667 -6 -20.334 -18 -23.001c-16 -4 -29.5 -12.833 -40.5 -26.5s-16.5 -29.167 -16.5 -46.5z" />
    <glyph glyph-name="verticalbar" unicode="|" horiz-adv-x="179" 
d="M121 703c2.66699 0 5.33105 -0.499023 7.99805 -1.49902s4.83398 -2.33301 6.50098 -4s3 -3.83398 4 -6.50098s1.5 -5.33398 1.5 -8.00098v-751c0 -3.33301 -0.833008 -6.66602 -2.5 -9.99902s-4.16699 -5.83301 -7.5 -7.5s-6.66602 -2.5 -9.99902 -2.5h-63
c-5.33301 0 -10 2 -14 6s-6 8.66699 -6 14v751c0 5.33301 2 10 6 14s8.66699 6 14 6h63z" />
    <glyph glyph-name="braceright" unicode="}" horiz-adv-x="365" 
d="M285 391l36 -34.999l-33 -37c-46 -51.333 -69 -111 -69 -179v-10c0 -44 -14.333 -82.667 -43 -116s-64.334 -53.333 -107.001 -60c-7.33301 -1.33301 -13.833 0.666992 -19.5 6s-8.5 11.666 -8.5 18.999v54c0 13.333 6 21.333 18 24c16.667 4 30.334 12.833 41.001 26.5
s16 29.167 16 46.5v10c0 77.333 22 148 66 212c-44 57.333 -66 122 -66 194v31c0 17.333 -5.33301 32.833 -16 46.5s-24.334 22.5 -41.001 26.5c-12 2.66699 -18 10.334 -18 23.001v55c0 7.33301 2.83301 13.666 8.5 18.999s12.167 7.33301 19.5 6
c42.667 -6.66699 78.334 -26.667 107.001 -60s43 -72 43 -116v-31c0 -61.333 22 -113 66 -155z" />
    <glyph glyph-name="asciitilde" unicode="~" horiz-adv-x="467" 
d="M385 393c8 2.66699 15.333 1.66504 22 -3.00195s10 -11 10 -19v-42c0 -12 -6 -19.667 -18 -23c-26 -8 -52 -12 -78 -12c-32.667 0 -64 5.66699 -94 17c-5.33301 2 -10.333 3.66699 -15 5c-40.667 14.667 -84 14 -130 -2c-8 -2.66699 -15.333 -1.66699 -22 3
s-10 11.334 -10 20.001v40c0 12 5.33301 19.667 16 23c61.333 20 121 19.667 179 -1l12 -5c41.333 -15.333 84 -15.666 128 -0.999023z" />
    <glyph glyph-name="nonbreakingspace" unicode="&#xa0;" horiz-adv-x="300" 
 />
    <glyph glyph-name="exclamdown" unicode="&#xa1;" horiz-adv-x="196" 
d="M97.5 294c-16.333 0 -30.333 5.83301 -42 17.5s-17.5 25.834 -17.5 42.501s5.83301 30.667 17.5 42s25.667 17 42 17s30.333 -5.66699 42 -17s17.5 -25.333 17.5 -42s-5.83301 -30.834 -17.5 -42.501s-25.667 -17.5 -42 -17.5zM121 252c6 0 11 -1.99805 15 -5.99805
s6 -8.66699 6 -14l7 -522c0 -2.66699 -0.5 -5.33398 -1.5 -8.00098s-2.5 -4.83398 -4.5 -6.50098s-4.16699 -3.16699 -6.5 -4.5s-4.83301 -2 -7.5 -2h-63c-5.33301 0 -10 2 -14 6s-6 9 -6 15l7 522c0 5.33301 2 10 6 14s9 6 15 6h47z" />
    <glyph glyph-name="cent" unicode="&#xa2;" horiz-adv-x="477" 
d="M395 119l34.998 -34.0029c4.66699 -5.33301 6.83398 -11.666 6.50098 -18.999s-3.16602 -13.333 -8.49902 -18c-24 -19.333 -51 -33.333 -81 -42c-11.333 -3.33301 -17 -11 -17 -23v-25c0 -6.66699 -2.33301 -12.5 -7 -17.5s-10.667 -7.5 -18 -7.5h-53
c-7.33301 0 -13.333 2.5 -18 7.5s-7 10.833 -7 17.5v25c0 12.667 -5.66699 20.667 -17 24c-38.667 11.333 -72 31 -100 59c-46.667 46.667 -70 103 -70 169s23.333 122.333 70 169c27.333 27.333 60.666 46.666 99.999 57.999c11.333 3.33301 17 11 17 23v27
c0 6.66699 2.33301 12.5 7 17.5s10.667 7.5 18 7.5h53c4.66699 0 9 -1.16699 13 -3.5s7 -5.33301 9 -9s3 -7.83398 3 -12.501v-26c0 -12.667 5.66699 -20.667 17 -24c30.667 -8.66699 57.667 -22 81 -40c5.33301 -4 8.33301 -9.66699 9 -17
s-1.66602 -13.666 -6.99902 -18.999l-39 -39c-10 -10 -20.667 -10.667 -32 -2c-26 18.667 -56 26.834 -90 24.501s-62.667 -15.166 -86 -38.499c-26.667 -26.667 -40 -58.667 -40 -96s13.333 -69.333 40 -96c23.333 -22.667 52 -35.167 86 -37.5s64 5.83398 90 24.501
c11.333 8 23.333 5.66699 36 -7z" />
    <glyph glyph-name="sterling" unicode="&#xa3;" horiz-adv-x="525" 
d="M449 99c6.66699 0 12.332 -2.33008 16.999 -6.99707s7 -10.334 7 -17.001v-55c0 -6.66699 -2.33301 -12.334 -7 -17.001s-10.334 -7 -17.001 -7h-373c-8 0 -14.333 3 -19 9s-6.33398 12.667 -5.00098 20l7 33c20 97.333 34 177.666 42 240.999
c0.666992 4 -0.5 7.66699 -3.5 11s-6.5 5 -10.5 5h-23c-4 0 -7.33301 1.33301 -10 4s-4 5.66699 -4 9v51c0 2.66699 0.666992 5 2 7s3 3.66699 5 5s4.33301 2 7 2h24c4.66699 0 8.33398 1.5 11.001 4.5s3.66699 6.5 3 10.5c-2 19.333 -5 41.333 -9 66
c-7.33301 44 -0.833008 85.833 19.5 125.5s51.166 70.167 92.499 91.5c26 13.333 55.333 20 88 20h1c46 -0.666992 87.333 -14.334 124 -41.001c5.33301 -4.66699 8.33301 -10.667 9 -18s-1.66602 -13.666 -6.99902 -18.999l-39 -39c-9.33301 -10 -19.666 -11 -30.999 -3
c-16.667 10.667 -35.334 16 -56.001 16h-1c-29.333 0 -53.666 -10.667 -72.999 -32c-9.33301 -10 -16.333 -23.833 -21 -41.5s-6 -33.5 -4 -47.5c5.33301 -30.667 9 -57.667 11 -81c0.666992 -8 5.33398 -12 14.001 -12h120c4 0 7.33301 -1.33301 10 -4s4 -6 4 -10v-51
c0 -3.33301 -1.33301 -6.33301 -4 -9s-6 -4 -10 -4h-121c-8.66699 0 -13.334 -4.33301 -14.001 -13c-4.66699 -44 -13.667 -102 -27 -174c-1.33301 -7.33301 0.333984 -14 5.00098 -20s10.667 -9 18 -9h248z" />
    <glyph glyph-name="currency" unicode="&#xa4;" horiz-adv-x="420" 
d="M349 288l21.002 -20c4.66699 -5.33301 7 -11.333 7 -18s-2.33301 -12.334 -7 -17.001l-39 -39c-4.66699 -4.66699 -10.334 -7 -17.001 -7s-12.334 2.33301 -17.001 7l-21 21c-7.33301 7.33301 -15.333 9.66602 -24 6.99902c-14 -4.66699 -27.833 -7 -41.5 -7
s-27.5 2.33301 -41.5 7c-8.66699 2.66699 -16.667 0.333984 -24 -6.99902l-21 -21c-4.66699 -4.66699 -10.334 -7 -17.001 -7s-12.334 2.33301 -17.001 7l-39 39c-4.66699 4.66699 -7 10.334 -7 17.001s2.33301 12.667 7 18l20 20
c7.33301 7.33301 9.66602 15.666 6.99902 24.999c-8.66699 27.333 -8.66699 54.666 0 81.999c2.66699 9.33301 0.333984 17.666 -6.99902 24.999l-20 20c-4.66699 4.66699 -7 10.334 -7 17.001s2.33301 12.334 7 17.001l39 39c4.66699 4.66699 10.334 7 17.001 7
s12.334 -2.33301 17.001 -7l21 -20c7.33301 -7.33301 15.333 -9.66602 24 -6.99902c27.333 8 54.666 8 81.999 0c9.33301 -2.66699 17.666 -0.333984 24.999 6.99902l21 20c4.66699 4.66699 10.334 7 17.001 7s12.334 -2.33301 17.001 -7l39 -39
c4.66699 -4.66699 7 -10.334 7 -17.001s-2.33301 -12.334 -7 -17.001l-21 -20c-7.33301 -7.33301 -9.33301 -15.666 -6 -24.999c8 -27.333 8 -54.666 0 -81.999c-3.33301 -9.33301 -1.33301 -17.666 6 -24.999zM235.502 329c7 6.66699 10.5 14.834 10.5 24.501
s-3.5 18 -10.5 25s-15.333 10.5 -25 10.5s-18 -3.5 -25 -10.5s-10.5 -15.333 -10.5 -25s3.5 -17.834 10.5 -24.501s15.333 -10 25 -10s18 3.33301 25 10z" />
    <glyph glyph-name="yen" unicode="&#xa5;" horiz-adv-x="656" 
d="M617 686l-195 -322c-3.33301 -4.66699 -4 -8.66699 -2 -12s6 -5 12 -5h47c5.33301 0 10 -2 14 -6s6 -9 6 -15v-37c0 -5.33301 -2 -10 -6 -14s-8.66699 -6 -14 -6h-80c-5.33301 0 -10 -2 -14 -6s-6 -9 -6 -15v-44c0 -5.33301 2 -10 6 -14s8.66699 -6 14 -6h85
c5.33301 0 10 -2 14 -6s6 -9 6 -15v-37c0 -6 -2 -11 -6 -15s-8.66699 -6 -14 -6h-85c-5.33301 0 -10 -2 -14 -6s-6 -8.66699 -6 -14v-61c0 -5.33301 -2 -10 -6 -14s-9 -6 -15 -6h-62c-5.33301 0 -10 2 -14 6s-6 8.66699 -6 14v61c0 5.33301 -2 10 -6 14s-9 6 -15 6h-84
c-6 0 -11 2 -15 6s-6 9 -6 15v37c0 6 2 11 6 15s9 6 15 6h84c6 0 11 2 15 6s6 8.66699 6 14v44c0 6 -2 11 -6 15s-9 6 -15 6h-90c-5.33301 0 -10 2 -14 6s-6 8.66699 -6 14v37c0 6 2 11 6 15s8.66699 6 14 6h58c5.33301 0 9 1.66699 11 5s1.66699 7.33301 -1 12l-195 322
c-3.33301 5.33301 -4 9.66602 -2 12.999s5.66699 5 11 5h80c6 0 12 -1.66699 18 -5s10.333 -7.66602 13 -12.999l159 -261c2.66699 -4.66699 6 -7 10 -7s7.66699 2.33301 11 7l158 261c3.33301 5.33301 8 9.66602 14 12.999s11.667 5 17 5h80c6 0 9.83301 -1.66699 11.5 -5
s1.16699 -7.66602 -1.5 -12.999z" />
    <glyph glyph-name="section" unicode="&#xa7;" horiz-adv-x="446" 
d="M396 204c-3.33301 -9.33301 -9 -20.6729 -17 -34.0059c30 -44.667 35.667 -94.667 17 -150c-13.333 -40 -38.333 -71 -75 -93c-29.333 -17.333 -61.666 -26 -96.999 -26c-17.333 0 -34 2 -50 6c-17.333 4.66699 -35 12.834 -53 24.501s-35 28.834 -51 51.501
s-26 47.667 -30 75c-0.666992 6 0.833008 11.333 4.5 16s8.5 7 14.5 7l65 1c10.667 0.666992 17.334 -4.66602 20.001 -15.999c2.66699 -12.667 9 -24 19 -34s17.833 -16.333 23.5 -19l12.5 -6c25.333 -6 48.333 -3 69 9c14.667 8.66699 24.667 21 30 37
c14 42 -2.66699 74 -50 96c-18 8 -46.667 19 -86 33l-12 5c-47.333 24.667 -79.833 56.334 -97.5 95.001s-18.834 80.667 -3.50098 126c3.33301 10 9 21.667 17 35c-30.667 44.667 -36.334 94.334 -17.001 149.001c14.667 44.667 43.167 77.667 85.5 99s87.833 26 136.5 14
c17.333 -4 35 -12 53 -24s35 -29.333 51 -52s25.667 -47.667 29 -75c0.666992 -3.33301 0.333984 -6.83301 -0.999023 -10.5s-3.66602 -6.5 -6.99902 -8.5s-7 -3 -11 -3l-64 -2c-10.667 0 -17.334 5.33301 -20.001 16c-3.33301 13.333 -9.83301 24.833 -19.5 34.5
s-17.334 16 -23.001 19s-9.83398 4.83301 -12.501 5.5c-20.667 5.33301 -40.667 4 -60 -4s-32.666 -22 -39.999 -42l-3.5 -13.5c-1 -3.66699 -1.33301 -9.33398 -1 -17.001s2.16602 -14.667 5.49902 -21s9.33301 -13.666 18 -21.999s20 -16.166 34 -23.499
c32.667 -10 63.334 -21.667 92.001 -35c32 -14.667 57.667 -33.667 77 -57s31.333 -49 36 -77s2 -57.667 -8 -89zM298 238.993c14 40.667 -2.66406 72 -49.9971 94c-18.667 8.66699 -47.334 19.667 -86.001 33l-12 5c-0.666992 0.666992 -1.33398 1.16699 -2.00098 1.5
s-1.33398 0.833008 -2.00098 1.5c-12.667 -38.667 5 -70.667 53 -96c32 -10 63 -22 93 -36c0.666992 0 1.66699 -0.5 3 -1.5s2.33301 -1.5 3 -1.5z" />
    <glyph glyph-name="dieresis" unicode="&#xa8;" horiz-adv-x="382" 
d="M97.5 712c14.333 0 26.5 -5.16699 36.5 -15.5s15 -22.666 15 -36.999s-5 -26.666 -15 -36.999s-22.167 -15.5 -36.5 -15.5s-26.666 5.16699 -36.999 15.5s-15.5 22.666 -15.5 36.999s5.16699 26.666 15.5 36.999s22.666 15.5 36.999 15.5zM283.5 712
c14.333 0 26.5 -5.16699 36.5 -15.5s15 -22.666 15 -36.999s-5 -26.666 -15 -36.999s-22.167 -15.5 -36.5 -15.5s-26.666 5.16699 -36.999 15.5s-15.5 22.666 -15.5 36.999s5.16699 26.666 15.5 36.999s22.666 15.5 36.999 15.5z" />
    <glyph glyph-name="copyright" unicode="&#xa9;" horiz-adv-x="792" 
d="M395 699c62.667 0 120.498 -15.502 173.498 -46.502s94.833 -73 125.5 -126s46 -110.667 46 -173s-15.333 -120 -46 -173s-72.5 -94.833 -125.5 -125.5s-110.833 -46 -173.5 -46s-120.5 15.333 -173.5 46s-94.833 72.5 -125.5 125.5s-46 110.833 -46 173.5
c0 46.667 9.16699 91.334 27.5 134.001s42.833 79.334 73.5 110.001s67.334 55.167 110.001 73.5s87.334 27.5 134.001 27.5zM394.998 86.998c73.333 0 136.166 26 188.499 78s78.5 114.833 78.5 188.5s-26.167 136.5 -78.5 188.5s-115.166 78 -188.499 78
s-136.166 -26 -188.499 -78s-78.5 -114.833 -78.5 -188.5s26.167 -136.5 78.5 -188.5s115.166 -78 188.499 -78zM392.998 532.998c50 0 92.6719 -17.668 128.005 -53.001c4.66699 -5.33301 6.66699 -11.5 6 -18.5s-4 -12.833 -10 -17.5l-24 -18
c-10.667 -7.33301 -21.334 -6.33301 -32.001 3c-18.667 17.333 -41.334 26 -68.001 26c-30.667 0 -56 -11.667 -76 -35s-28 -50.666 -24 -81.999c4 -24 15.667 -44.333 35 -61s41.666 -24.667 66.999 -24c16.667 0 32.334 4 47.001 12c12 6.66699 22.333 5 31 -5l19 -23
c4.66699 -6 6.5 -12.667 5.5 -20s-4.5 -12.666 -10.5 -15.999c-24.667 -15.333 -51.334 -24 -80.001 -26s-57 2.66699 -85 14c-12.667 6 -24.667 13.167 -36 21.5s-21.333 17.666 -30 27.999s-16 21.5 -22 33.5s-10.833 24.833 -14.5 38.5s-5.5 27.167 -5.5 40.5
c-0.666992 50 16.666 92.833 51.999 128.5s77.666 53.5 126.999 53.5z" />
    <glyph glyph-name="guillemotleft" unicode="&#xab;" horiz-adv-x="553" 
d="M187 339l88 -89.999c3.33301 -4 5 -8.83301 5 -14.5s-2 -10.167 -6 -13.5l-44 -44c-4 -4 -8.83301 -6 -14.5 -6s-10.5 2 -14.5 6l-159 162c-4 4 -6 8.83301 -6 14.5s2 10.5 6 14.5l159 162c4 4 8.83301 6.16699 14.5 6.5s10.5 -1.5 14.5 -5.5l44 -44
c4 -4 6 -8.83301 6 -14.5s-1.66699 -10.5 -5 -14.5l-88 -90c-2 -2 -3.5 -4.16699 -4.5 -6.5s-1.5 -4.83301 -1.5 -7.5s0.5 -5.33398 1.5 -8.00098s2.5 -5 4.5 -7zM422 339.001l88 -89c4 -4 6 -8.83301 6 -14.5s-2 -10.5 -6 -14.5l-45 -44c-4 -4 -8.83301 -6 -14.5 -6
s-10.5 2 -14.5 6l-159 162c-4 4 -6 8.83301 -6 14.5s2 10.5 6 14.5l159 162c4 4 8.83301 6.16699 14.5 6.5s10.5 -1.5 14.5 -5.5l45 -44c4 -4 6 -8.83301 6 -14.5s-2 -10.5 -6 -14.5l-88 -90c-4 -4 -6 -8.83301 -6 -14.5s2 -10.5 6 -14.5z" />
    <glyph glyph-name="softhyphen" unicode="&#xad;" horiz-adv-x="0" 
 />
    <glyph glyph-name="registered" unicode="&#xae;" horiz-adv-x="792" 
d="M395 699c62.667 0 120.498 -15.502 173.498 -46.502s94.833 -73 125.5 -126s46 -110.667 46 -173s-15.333 -120 -46 -173s-72.5 -94.833 -125.5 -125.5s-110.833 -46 -173.5 -46s-120.5 15.333 -173.5 46s-94.833 72.5 -125.5 125.5s-46 110.833 -46 173.5
c0 46.667 9.16699 91.334 27.5 134.001s42.833 79.334 73.5 110.001s67.334 55.167 110.001 73.5s87.334 27.5 134.001 27.5zM567.998 152.998c29.333 24.667 52.3311 54.5 68.998 89.5s25 72.167 25 111.5c0 73.333 -26.167 136 -78.5 188s-115.166 78 -188.499 78
s-136.166 -26 -188.499 -78s-78.5 -114.833 -78.5 -188.5s26.167 -136.5 78.5 -188.5s115.166 -78 188.499 -78c20.667 0 43.334 3.33301 68.001 10c39.333 10 74.333 28.667 105 56zM462.996 328.998l52.001 -89.998c4.66699 -8 4.66699 -16.167 0 -24.5
s-12 -12.5 -22 -12.5h-33c-9.33301 0 -16.333 4.33301 -21 13l-58 100h-13v-88c0 -6.66699 -2.33301 -12.5 -7 -17.5s-10.334 -7.5 -17.001 -7.5h-29c-6.66699 0 -12.5 2.5 -17.5 7.5s-7.5 10.833 -7.5 17.5v273c0 7.33301 2.5 13.333 7.5 18s10.833 7 17.5 7h91
c26.667 0 50.5 -8.5 71.5 -25.5s33.167 -38.5 36.5 -64.5c2 -14.667 1.16699 -28.834 -2.5 -42.501s-9.66699 -25.834 -18 -36.501s-18.5 -19.667 -30.5 -27zM409.997 393c4.66699 0 9.16699 1.16797 13.5 3.50098s7.66602 5.5 9.99902 9.5s3.5 8.66699 3.5 14
c0 7.33301 -2.66699 13.666 -8 18.999s-11.666 8 -18.999 8h-42v-54h42z" />
    <glyph glyph-name="degree" unicode="&#xb0;" horiz-adv-x="260" 
d="M129 685c22 0 40.667 -7.66699 56 -23s23 -34 23 -56s-7.66699 -40.667 -23 -56s-34 -23 -56 -23s-40.667 7.66699 -56 23s-23 34 -23 56s7.66699 40.667 23 56s34 23 56 23zM129 578c8 0 14.667 2.66699 20 8s8 12 8 20s-2.66699 14.667 -8 20s-12 8 -20 8
s-14.667 -2.66699 -20 -8s-8 -12 -8 -20s2.66699 -14.667 8 -20s12 -8 20 -8z" />
    <glyph glyph-name="plusminus" unicode="&#xb1;" horiz-adv-x="487" 
d="M416 100c6 0 11 -2 15 -6s6 -9 6 -15v-62c0 -6 -2 -11 -6 -15s-9 -6 -15 -6h-346c-5.33301 0 -10 2 -14 6s-6 9 -6 15v62c0 6 2 11 6 15s8.66699 6 14 6h346zM416 406c6 0 11 -2 15 -6s6 -9 6 -15v-62c0 -6 -2 -11 -6 -15s-9 -6 -15 -6h-101c-5.33301 0 -10 -2 -14 -6
s-6 -8.66699 -6 -14v-101c0 -5.33301 -2 -10 -6 -14s-8.66699 -6 -14 -6h-63c-5.33301 0 -10 2 -14 6s-6 8.66699 -6 14v101c0 5.33301 -2 10 -6 14s-9 6 -15 6h-101c-5.33301 0 -10 2 -14 6s-6 9 -6 15v62c0 6 2 11 6 15s8.66699 6 14 6h101c6 0 11 2 15 6s6 8.66699 6 14
v101c0 5.33301 2 10 6 14s8.66699 6 14 6h63c5.33301 0 10 -2 14 -6s6 -8.66699 6 -14v-101c0 -5.33301 2 -10 6 -14s8.66699 -6 14 -6h101z" />
    <glyph glyph-name="acute" unicode="&#xb4;" horiz-adv-x="189" 
d="M132 685c5.33301 -2 8.83301 -5.66797 10.5 -11.001s1.16699 -10.333 -1.5 -15l-53 -100c-2.66699 -5.33301 -6.66699 -8.83301 -12 -10.5s-10.666 -1.5 -15.999 0.5l-3 1c-2.66699 1.33301 -4.83398 3 -6.50098 5s-3.16699 4.16699 -4.5 6.5s-2 4.83301 -2 7.5
s0.333008 5.33398 1 8.00098l37 108c1.33301 4.66699 4.5 8.16699 9.5 10.5s10.167 2.5 15.5 0.5z" />
    <glyph glyph-name="paragraph" unicode="&#xb6;" horiz-adv-x="609" 
d="M541 711c5.33301 0 10 -1.83301 14 -5.5s6 -8.5 6 -14.5v-63c0 -5.33301 -2 -10 -6 -14s-8.66699 -6 -14 -6h-16c-6 0 -10.833 -2 -14.5 -6s-5.5 -8.66699 -5.5 -14v-656c0 -4 -1 -7.5 -3 -10.5s-4.5 -5.33301 -7.5 -7s-6.16699 -2.5 -9.5 -2.5h-64
c-5.33301 0 -10 2 -14 6s-6 8.66699 -6 14v656c0 5.33301 -1.83301 10 -5.5 14s-8.5 6 -14.5 6h-39c-5.33301 0 -10 -2 -14 -6s-6 -8.66699 -6 -14v-656c0 -5.33301 -2 -10 -6 -14s-8.66699 -6 -14 -6h-63c-6 0 -10.833 2 -14.5 6s-5.5 8.66699 -5.5 14v431
c-48 0.666992 -88.5 18 -121.5 52s-49.5 74.667 -49.5 122c0 48 17 89.167 51 123.5s75.333 51.5 124 51.5v-1h318z" />
    <glyph glyph-name="cedilla" unicode="&#xb8;" horiz-adv-x="271" 
d="M172 -37c15.333 -8 27.5 -18.5 36.5 -31.5s13.5 -27.167 13.5 -42.5c0 -23.333 -10 -43.333 -30 -60s-44 -25 -72 -25c-26 0 -48.333 7 -67 21c-2.66699 2 -4.16699 4.66699 -4.5 8s0.5 6.33301 2.5 9l21 21c4 4 8.33301 4.66699 13 2c10 -6.66699 21.667 -10 35 -10
c14 0 26 3.33301 36 10s15 14.667 15 24s-5 17.5 -15 24.5s-22 10.5 -36 10.5h-25v33l4 7l42 66c4 6.66699 9 8 15 4l24 -16c6.66699 -4 8 -9 4 -15l-16 -25c-4 -6.66699 -2.66699 -11.667 4 -15z" />
    <glyph glyph-name="guillemotright" unicode="&#xbb;" horiz-adv-x="553" 
d="M510 368c4 -4 6 -8.83301 6 -14.5s-2 -10.5 -6 -14.5l-159 -162c-4 -4 -8.83301 -6 -14.5 -6s-10.5 2 -14.5 6l-44 44c-4 3.33301 -6.16699 7.83301 -6.5 13.5s1.5 10.5 5.5 14.5l88 90c4 4 6 8.83301 6 14.5s-2 10.5 -6 14.5l-88 90c-4 4 -5.83301 8.83301 -5.5 14.5
s2.5 10.5 6.5 14.5l44 44c4 4 8.83301 5.83301 14.5 5.5s10.5 -2.5 14.5 -6.5zM275 368c3.33301 -4 5 -8.83301 5 -14.5s-1.66699 -10.5 -5 -14.5l-159 -162c-4 -4 -8.83301 -6 -14.5 -6s-10.5 2 -14.5 6l-45 44c-4 3.33301 -6 7.83301 -6 13.5s2 10.5 6 14.5l88 90
c4 4 6 8.83301 6 14.5s-2 10.5 -6 14.5l-88 90c-4 4 -6 8.83301 -6 14.5s2 10.5 6 14.5l45 44c4 4 8.83301 5.83301 14.5 5.5s10.5 -2.5 14.5 -6.5z" />
    <glyph glyph-name="questiondown" unicode="&#xbf;" horiz-adv-x="478" 
d="M236 294c-8 0 -15.667 1.66992 -23 5.00293s-13.666 7.66602 -18.999 12.999s-9.5 11.666 -12.5 18.999s-4.5 15 -4.5 23c0 16.667 5.83301 30.667 17.5 42s25.667 17 42 17s30.333 -5.66699 42 -17s17.5 -25.333 17.5 -42s-5.83301 -30.834 -17.5 -42.501
s-25.834 -17.5 -42.501 -17.5zM435 -74.9971c9.33301 -49.333 1.16504 -96.332 -24.502 -140.999s-61.5 -74.667 -107.5 -90c-22 -8 -44.333 -12 -67 -12c-39.333 0 -75.666 11 -108.999 33c-46.667 29.333 -76 71 -88 125c-1.33301 2.66699 -1.5 5.66699 -0.5 9
s2.33301 6.16602 4 8.49902s3.83398 4.33301 6.50098 6s5.66699 2.5 9 2.5l59 6c12 1.33301 20 -4 24 -16c6.66699 -23.333 20.334 -41.666 41.001 -54.999c27.333 -16.667 56.666 -20 87.999 -10c22 8 39.167 23.167 51.5 45.5s16.166 45.5 11.499 69.5
c-4 20.667 -13.667 37.667 -29 51c-37.333 30.667 -66.5 69 -87.5 115s-31.5 95.333 -31.5 148v10c0 6 2.16699 11.167 6.5 15.5s9.5 6.5 15.5 6.5h59c6.66699 0 12 -2.16699 16 -6.5s6 -9.5 6 -15.5v-10c0 -24.667 3.33301 -48.334 10 -71.001s16 -43.667 28 -63
s26.667 -36 44 -50c34.667 -28.667 56.334 -65.667 65.001 -111z" />
    <glyph glyph-name="Agrave" unicode="&#xc0;" horiz-adv-x="682" 
d="M356 682l288 -662c1.33301 -4 0.833008 -7.83301 -1.5 -11.5s-5.5 -5.5 -9.5 -5.5h-87c-5.33301 0 -9 2.33301 -11 7l-59 136c-2 4.66699 -5.66699 7 -11 7h-246c-5.33301 0 -9 -2.33301 -11 -7l-61 -136c-2 -4.66699 -5.66699 -7 -11 -7h-87
c-4.66699 0 -8.16699 1.83301 -10.5 5.5s-2.5 7.5 -0.5 11.5l296 662c2 4.66699 5.66699 7 11 7s9 -2.33301 11 -7zM410 257c2.66699 0 5.16895 0.833984 7.50195 2.50098s3.66602 3.66699 3.99902 6s0.166016 5.16602 -0.500977 8.49902l-66 152
c-2 4.66699 -5.66699 7 -11 7s-9 -2.33301 -11 -7l-68 -152c-2 -4 -1.83301 -7.83301 0.5 -11.5s5.83301 -5.5 10.5 -5.5h134zM291.002 769.001l-42.999 81c-2.66699 4.66699 -3 8.83398 -1 12.501s6 5.5 12 5.5h30c6 0 11.5 -2 16.5 -6s8.5 -8.66699 10.5 -14l27 -77
c4 -13.333 5.83301 -20 5.5 -20h-20.5h-7c-6 0 -11.833 1.66699 -17.5 5s-9.83398 7.66602 -12.501 12.999z" />
    <glyph glyph-name="Aacute" unicode="&#xc1;" horiz-adv-x="684" 
d="M330 751h-6.99805h-21c-0.666992 0 1.33301 6.33301 6 19l27 78c0.666992 3.33301 2.5 6.5 5.5 9.5s6.33301 5.5 10 7.5s7.5 3 11.5 3h30c5.33301 0 9.16602 -1.83301 11.499 -5.5s2.16602 -7.83398 -0.500977 -12.501l-43 -81
c-2.66699 -5.33301 -7 -9.66602 -13 -12.999s-11.667 -5 -17 -5zM641.002 21c5.33301 -12 7.66895 -18.166 7.00195 -18.499s-8 -0.5 -22 -0.5h-69c-5.33301 0 -10.833 1.66699 -16.5 5s-9.83398 7.66602 -12.501 12.999l-54 123
c-2.66699 5.33301 -6.83398 9.83301 -12.501 13.5s-11.167 5.5 -16.5 5.5h-218c-5.33301 0 -10.833 -1.83301 -16.5 -5.5s-9.5 -8.16699 -11.5 -13.5l-51 -123c-2.66699 -4.66699 -6.66699 -9 -12 -13s-11 -6 -17 -6h-71c-5.33301 0 -9.33301 2 -12 6s-3 8.33301 -1 13
l287 683c2 4.66699 4.66699 7.16699 8 7.5s6 -2.16699 8 -7.5zM399.005 265.001c6 0 10.168 1.83301 12.501 5.5s2.16602 8.16699 -0.500977 13.5l-70 158c-2.66699 5.33301 -5.5 8 -8.5 8s-5.5 -2.66699 -7.5 -8l-67 -158c-1.33301 -2.66699 -1.83301 -5.16699 -1.5 -7.5
s1 -4.33301 2 -6s2.66699 -3 5 -4s4.83301 -1.5 7.5 -1.5h128z" />
    <glyph glyph-name="Acircumflex" unicode="&#xc2;" horiz-adv-x="683" 
d="M641 21c1.33301 -3.33301 2.66602 -6.50098 3.99902 -9.50098s2.33301 -5.33301 3 -7s0.666992 -2.5 0 -2.5h-21h-70c-5.33301 0 -10.833 1.83301 -16.5 5.5s-9.5 7.83398 -11.5 12.501l-54 123c-2 5.33301 -5.83301 9.83301 -11.5 13.5s-11.167 5.5 -16.5 5.5h-218
c-5.33301 0 -10.833 -1.83301 -16.5 -5.5s-9.5 -8.16699 -11.5 -13.5l-53 -123c-2 -4.66699 -5.83301 -8.83398 -11.5 -12.501s-11.167 -5.5 -16.5 -5.5h-72c-6 0 -10.167 1.83301 -12.5 5.5s-2.16602 7.83398 0.500977 12.501l292 683c2 5.33301 4.66699 8 8 8
s6 -2.66699 8 -8zM402 264.999c5.33301 0 9.16699 1.83301 11.5 5.5s2.5 8.16699 0.5 13.5l-69 158c-2 5.33301 -4.66699 8 -8 8s-6 -2.66699 -8 -8l-68 -158c-1.33301 -3.33301 -1.83301 -6.5 -1.5 -9.5s1.83301 -5.33301 4.5 -7s5.66699 -2.5 9 -2.5h129zM235.001 777.999
c-6 0 -9.83105 1.5 -11.498 4.5s-0.833984 6.83301 2.49902 11.5l98 137c3.33301 4.66699 7.33301 7 12 7s8.66699 -2.33301 12 -7l98 -137c2.66699 -4.66699 3.16699 -8.5 1.5 -11.5s-5.16699 -4.5 -10.5 -4.5h-43c-13.333 0 -24 5.33301 -32 16l-14 20
c-2.66699 3.33301 -5.33398 5.5 -8.00098 6.5s-5.5 1 -8.5 0s-5.5 -3.16699 -7.5 -6.5l-14 -20c-8 -10.667 -19 -16 -33 -16h-42z" />
    <glyph glyph-name="Atilde" unicode="&#xc3;" horiz-adv-x="684" 
d="M641 21c5.33301 -12.667 7.66602 -19.001 6.99902 -19.001h-21h-70c-5.33301 0 -10.833 1.83301 -16.5 5.5s-9.5 7.83398 -11.5 12.501l-54 123c-2 5.33301 -5.83301 9.83301 -11.5 13.5s-11.167 5.5 -16.5 5.5h-218c-5.33301 0 -10.833 -1.83301 -16.5 -5.5
s-9.5 -8.16699 -11.5 -13.5l-53 -123c-2 -4.66699 -5.83301 -8.83398 -11.5 -12.501s-11.167 -5.5 -16.5 -5.5h-72c-6 0 -10.167 1.83301 -12.5 5.5s-2.16602 7.83398 0.500977 12.501l292 683c2 4.66699 4.66699 7.16699 8 7.5s6 -2.16699 8 -7.5zM402 264.999
c5.33301 0 9.16699 1.83301 11.5 5.5s2.5 8.16699 0.5 13.5l-69 158c-2 5.33301 -4.66699 8 -8 8s-6 -2.66699 -8 -8l-68 -158c-1.33301 -3.33301 -1.83301 -6.5 -1.5 -9.5s1.83301 -5.33301 4.5 -7s5.66699 -2.5 9 -2.5h129zM212.001 805.999l-20.999 16
c-4.66699 3.33301 -7 7.5 -7 12.5s2 9.16699 6 12.5c43.333 33.333 74 50 92 50c8 0 16.5 -1.33301 25.5 -4s16.5 -5.66699 22.5 -9l8 -4c12 -6.66699 19 -11 21 -13c2.66699 -2 10.667 -3.33301 24 -4l47 6c4 3.33301 9 5.16602 15 5.49902s11.333 -1.5 16 -5.5l21 -17
c4 -3.33301 6 -7.5 6 -12.5s-2.33301 -9.16699 -7 -12.5c-40 -29.333 -68.667 -44 -86 -44c-26 0 -50.667 9 -74 27l-3 2c-4.66699 4 -12.667 9.33301 -24 16c-1.33301 0.666992 -5.33301 1 -12 1s-13.334 -1.66699 -20.001 -5s-11.667 -6.66602 -15 -9.99902l-5 -5
c-3.33301 -4.66699 -8 -7.16699 -14 -7.5s-11.333 1.16699 -16 4.5z" />
    <glyph glyph-name="Adieresis" unicode="&#xc4;" horiz-adv-x="683" 
d="M641 21c5.33301 -12.667 7.66602 -19.001 6.99902 -19.001h-21h-70c-3.33301 0 -7 0.833008 -11 2.5s-7.5 3.83398 -10.5 6.50098s-5.16699 5.66699 -6.5 9l-54 123c-2 5.33301 -5.83301 9.83301 -11.5 13.5s-11.167 5.5 -16.5 5.5h-218c-6 0 -11.667 -1.83301 -17 -5.5
s-9.33301 -8.16699 -12 -13.5l-52 -123c-1.33301 -3.33301 -3.5 -6.33301 -6.5 -9s-6.5 -4.83398 -10.5 -6.50098s-8 -2.5 -12 -2.5h-71c-6 0 -10.167 1.83301 -12.5 5.5s-2.16602 7.83398 0.500977 12.501l292 683c2 4.66699 4.66699 7.16699 8 7.5s6 -2.16699 8 -7.5z
M402 264.999c5.33301 0 9.16797 1.83301 11.501 5.5s2.5 8.16699 0.5 13.5l-69 158c-2 5.33301 -4.66699 8 -8 8s-6 -2.66699 -8 -8l-68 -158c-2 -5.33301 -1.83301 -9.83301 0.5 -13.5s6.16602 -5.5 11.499 -5.5h129zM429.502 785.999
c-14.333 0 -26.666 5.16699 -36.999 15.5s-15.5 22.666 -15.5 36.999s5.16699 26.666 15.5 36.999s22.666 15.5 36.999 15.5s26.666 -5.16699 36.999 -15.5s15.5 -22.666 15.5 -36.999s-5.16699 -26.666 -15.5 -36.999s-22.666 -15.5 -36.999 -15.5zM243.502 785.999
c-14.333 0 -26.666 5.16699 -36.999 15.5s-15.5 22.666 -15.5 36.999s5.16699 26.666 15.5 36.999s22.666 15.5 36.999 15.5s26.666 -5.16699 36.999 -15.5s15.5 -22.666 15.5 -36.999s-5.16699 -26.666 -15.5 -36.999s-22.666 -15.5 -36.999 -15.5z" />
    <glyph glyph-name="Aring" unicode="&#xc5;" horiz-adv-x="682" 
d="M641 20l7.99707 -18.002h-92c-5.33301 0 -10.833 1.83301 -16.5 5.5s-9.5 7.83398 -11.5 12.501l-51 123c-2.66699 5.33301 -6.66699 9.83301 -12 13.5s-11 5.5 -17 5.5h-224c-5.33301 0 -10.833 -1.83301 -16.5 -5.5s-9.5 -8.16699 -11.5 -13.5l-51 -123
c-2 -4.66699 -5.83301 -8.83398 -11.5 -12.501s-11.167 -5.5 -16.5 -5.5h-71c-5.33301 0 -9.33301 1.83301 -12 5.5s-3 7.83398 -1 12.501l245 593c5.33301 12.667 3.33301 24 -6 34c-18 18.667 -27 38.334 -27 59.001c0 24.667 8.83301 45.834 26.5 63.501
s38.834 26.5 63.501 26.5s45.834 -8.83301 63.501 -26.5s26.5 -38.834 26.5 -63.501c0 -9.33301 -2.33301 -19 -7 -29s-9 -17.333 -13 -22l-7 -8c-4 -4 -6.66699 -9.33301 -8 -16s-0.666016 -12.667 2.00098 -18zM335.997 744.998c-10.667 0 -19.834 -3.83301 -27.501 -11.5
s-11.5 -16.834 -11.5 -27.501s3.83301 -19.834 11.5 -27.501s16.834 -11.5 27.501 -11.5s19.834 3.83301 27.501 11.5s11.5 16.834 11.5 27.501s-3.83301 19.834 -11.5 27.501s-16.834 11.5 -27.501 11.5zM405.997 264.998c5.33301 0 9.33398 1.83301 12.001 5.5
s3 8.16699 1 13.5l-75 178c-2 5.33301 -4.66699 8 -8 8s-6 -2.66699 -8 -8l-73 -178c-2 -5.33301 -1.83301 -9.83301 0.5 -13.5s6.16602 -5.5 11.499 -5.5h139z" />
    <glyph glyph-name="AE" unicode="&#xc6;" horiz-adv-x="840" 
d="M529 608c-6 0 -11.001 -1.99902 -15.001 -5.99902s-6 -8.66699 -6 -14v-208c0 -6 2 -11 6 -15s9 -6 15 -6h131c5.33301 0 10 -2 14 -6s6 -8.66699 6 -14v-63c0 -5.33301 -2 -10 -6 -14s-8.66699 -6 -14 -6h-131c-6 0 -11 -2 -15 -6s-6 -8.66699 -6 -14v-116
c0 -4 1 -7.5 3 -10.5s4.5 -5.33301 7.5 -7s6.5 -2.5 10.5 -2.5h247c6 0 11 -2 15 -6s6 -9 6 -15v-62c0 -6 -2 -11 -6 -15s-9 -6 -15 -6h-14h-337c-5.33301 0 -10 2 -14 6s-6 9 -6 15v125c0 3.33301 -0.833008 6.5 -2.5 9.5s-4.16699 5.5 -7.5 7.5s-6.66602 3 -9.99902 3
h-152c-5.33301 0 -10.833 -1.83301 -16.5 -5.5s-9.5 -8.16699 -11.5 -13.5l-49 -122c-1.33301 -4 -3.5 -7.33301 -6.5 -10s-6.5 -4.83398 -10.5 -6.50098s-7.66699 -2.5 -11 -2.5h-71c-5.33301 0 -9.33301 1.83301 -12 5.5s-3 8.16699 -1 13.5l271 671
c2 5.33301 5.66699 9.83301 11 13.5s11 5.5 17 5.5h42h206h185c6 0 11 -2 15 -6s6 -8.66699 6 -14v-63c0 -5.33301 -2 -10 -6 -14s-9 -6 -15 -6h-144h-103zM404.999 286.001v302c0 13.333 -2.16699 20 -6.5 20s-8.83301 -6.33301 -13.5 -19l-123 -305
c-2 -5.33301 -1.83301 -9.83301 0.5 -13.5s6.5 -5.5 12.5 -5.5h110c5.33301 0 10 2 14 6s6 9 6 15z" />
    <glyph glyph-name="Ccedilla" unicode="&#xc7;" horiz-adv-x="680" 
d="M399 608c-50 0 -95.6592 -13.1689 -136.992 -39.502s-72.5 -61.833 -93.5 -106.5s-28.167 -92.334 -21.5 -143.001c8 -64 36 -116.667 84 -158s104.333 -61.666 169 -60.999c51.333 0 98 14 140 42c5.33301 4 11.166 5.5 17.499 4.5s11.5 -4.16699 15.5 -9.5l33 -41
c4.66699 -5.33301 6.5 -11.833 5.5 -19.5s-4.5 -13.5 -10.5 -17.5c-59.333 -40.667 -125.333 -61.334 -198 -62.001l-18 -29c9.33301 -3.33301 17.666 -7.66602 24.999 -12.999s13.666 -11.333 18.999 -18s9.5 -14.167 12.5 -22.5s4.5 -16.833 4.5 -25.5
c0 -23.333 -9.83301 -43.333 -29.5 -60s-43.834 -25 -72.501 -25c-16.667 0 -32.667 3.33301 -48 10c-8 3.33301 -12.833 9.33301 -14.5 18s0.5 16.334 6.5 23.001c8.66699 8.66699 18.334 10.667 29.001 6c8 -4 17 -6 27 -6c14 0 26 3.33301 36 10s15 14.667 15 24
c0 4.66699 -1.33301 9.16699 -4 13.5s-6.33398 8 -11.001 11s-10.167 5.5 -16.5 7.5s-12.833 3 -19.5 3h-25v33l4 7l23 38c-88.667 12.667 -162.334 53.5 -221.001 122.5s-86.667 149.167 -84 240.5c2.66699 89.333 35.5 167.333 98.5 234s139.167 103.667 228.5 111
c32 2.66699 63.5 1.16699 94.5 -4.5s60.5 -15 88.5 -28s54 -29.833 78 -50.5c6 -4.66699 9.16699 -10.667 9.5 -18s-2.16699 -13.666 -7.5 -18.999l-37 -38c-4.66699 -4.66699 -10.334 -7.16699 -17.001 -7.5s-12.334 1.5 -17.001 5.5
c-46.667 38.667 -100.334 58 -161.001 58z" />
    <glyph glyph-name="Egrave" unicode="&#xc8;" horiz-adv-x="481" 
d="M255 773l-39.999 77c-2.66699 4.66699 -3 8.83398 -1 12.501s5.66699 5.5 11 5.5h31c5.33301 0 10.666 -2 15.999 -6s9 -8.66699 11 -14l25 -74c2 -5.33301 1.66699 -9.83301 -1 -13.5s-7 -5.5 -13 -5.5h-9c-5.33301 0 -11 1.66699 -17 5s-10.333 7.66602 -13 12.999z
M168.001 602c-6 0 -11.001 -2 -15.001 -6s-6 -8.66699 -6 -14v-202c0 -6 2 -11 6 -15s9 -6 15 -6h131c5.33301 0 10 -2 14 -6s6 -8.66699 6 -14v-60c0 -4 -0.833008 -7.5 -2.5 -10.5s-4.16699 -5.5 -7.5 -7.5s-6.66602 -3 -9.99902 -3h-131c-6 0 -11 -2 -15 -6
s-6 -8.66699 -6 -14v-113c0 -5.33301 2 -10 6 -14s9 -6 15 -6h247c6 0 11 -2 15 -6s6 -8.66699 6 -14v-61c0 -5.33301 -2 -10 -6 -14s-9 -6 -15 -6h-351c-5.33301 0 -10 2 -14 6s-6 8.66699 -6 14v659c0 5.33301 2 10 6 14s8.66699 6 14 6h351c6 0 11 -2 15 -6
s6 -8.66699 6 -14v-60c0 -6 -2 -11 -6 -15s-9 -6 -15 -6h-247z" />
    <glyph glyph-name="Eacute" unicode="&#xc9;" horiz-adv-x="481" 
d="M237 755c-6 0 -10.332 1.83301 -12.999 5.5s-3 8.16699 -1 13.5l25 74c2 5.33301 5.66699 10 11 14s10.666 6 15.999 6h30c6 0 10 -1.83301 12 -5.5s1.66699 -7.83398 -1 -12.501l-40 -77c-2.66699 -5.33301 -7 -9.66602 -13 -12.999s-11.667 -5 -17 -5h-9zM168.001 602
c-6 0 -11 -2 -15 -6s-6 -8.66699 -6 -14v-202c0 -6 2 -11 6 -15s9 -6 15 -6h131c5.33301 0 10 -2 14 -6s6 -8.66699 6 -14v-60c0 -6 -2 -11 -6 -15s-8.66699 -6 -14 -6h-131c-6 0 -11 -2 -15 -6s-6 -8.66699 -6 -14v-113c0 -5.33301 2 -10 6 -14s9 -6 15 -6h247
c6 0 11 -2 15 -6s6 -8.66699 6 -14v-61c0 -5.33301 -2 -10 -6 -14s-9 -6 -15 -6h-351c-5.33301 0 -10 2 -14 6s-6 8.66699 -6 14v659c0 5.33301 2 10 6 14s8.66699 6 14 6h351c6 0 11 -2 15 -6s6 -8.66699 6 -14v-60c0 -6 -2 -11 -6 -15s-9 -6 -15 -6h-247z" />
    <glyph glyph-name="Ecircumflex" unicode="&#xca;" horiz-adv-x="481" 
d="M168 602c-6 0 -11 -2.00195 -15 -6.00195s-6 -8.66699 -6 -14v-202c0 -3.33301 0.5 -6.16602 1.5 -8.49902s2.5 -4.5 4.5 -6.5s4.33301 -3.5 7 -4.5s5.33398 -1.5 8.00098 -1.5h131c3.33301 0 6.66602 -0.833008 9.99902 -2.5s5.83301 -4.16699 7.5 -7.5
s2.5 -6.66602 2.5 -9.99902v-60c0 -6 -2 -11 -6 -15s-8.66699 -6 -14 -6h-131c-6 0 -11 -2 -15 -6s-6 -8.66699 -6 -14v-113c0 -5.33301 2 -10 6 -14s9 -6 15 -6h247c6 0 10.833 -2 14.5 -6s5.5 -8.66699 5.5 -14v-61c0 -5.33301 -1.83301 -10 -5.5 -14s-8.5 -6 -14.5 -6
h-351c-5.33301 0 -10 2 -14 6s-6 8.66699 -6 14v659c0 5.33301 2 10 6 14s8.66699 6 14 6h351c6 0 10.833 -2 14.5 -6s5.5 -8.66699 5.5 -14v-60c0 -6 -1.83301 -11 -5.5 -15s-8.5 -6 -14.5 -6h-247zM175 777.998c-6 0 -9.83008 1.5 -11.4971 4.5
s-0.833984 6.83301 2.49902 11.5l88 122c3.33301 4.66699 7.33301 7 12 7s8.66699 -2.33301 12 -7l87 -122c3.33301 -4.66699 4.16602 -8.5 2.49902 -11.5s-5.16699 -4.5 -10.5 -4.5h-22c-14 0 -25 5.33301 -33 16l-25 35c-2.66699 4.66699 -6.33398 7 -11.001 7
s-8.66699 -2.33301 -12 -7l-25 -35c-8 -10.667 -18.667 -16 -32 -16h-22z" />
    <glyph glyph-name="Edieresis" unicode="&#xcb;" horiz-adv-x="481" 
d="M172.5 786c-14.333 0 -26.666 5.16699 -36.999 15.5s-15.5 22.666 -15.5 36.999s5.16699 26.666 15.5 36.999s22.666 15.5 36.999 15.5s26.666 -5.16699 36.999 -15.5s15.5 -22.666 15.5 -36.999s-5.16699 -26.666 -15.5 -36.999s-22.666 -15.5 -36.999 -15.5zM358.5 786
c-14.333 0 -26.666 5.16699 -36.999 15.5s-15.5 22.666 -15.5 36.999s5.16699 26.666 15.5 36.999s22.666 15.5 36.999 15.5s26.666 -5.16699 36.999 -15.5s15.5 -22.666 15.5 -36.999s-5.16699 -26.666 -15.5 -36.999s-22.666 -15.5 -36.999 -15.5zM168 602
c-6 0 -10.999 -2.00098 -14.999 -6.00098s-6 -8.66699 -6 -14v-202c0 -6 2 -11 6 -15s9 -6 15 -6h131c3.33301 0 6.66602 -0.833008 9.99902 -2.5s5.83301 -4.16699 7.5 -7.5s2.5 -6.66602 2.5 -9.99902v-60c0 -6 -2 -11 -6 -15s-8.66699 -6 -14 -6h-131c-6 0 -11 -2 -15 -6
s-6 -8.66699 -6 -14v-113c0 -5.33301 2 -10 6 -14s9 -6 15 -6h247c6 0 11 -2 15 -6s6 -8.66699 6 -14v-61c0 -5.33301 -2 -10 -6 -14s-9 -6 -15 -6h-351c-5.33301 0 -10 2 -14 6s-6 8.66699 -6 14v659c0 5.33301 2 10 6 14s8.66699 6 14 6h351c6 0 11 -2 15 -6
s6 -8.66699 6 -14v-60c0 -6 -2 -11 -6 -15s-9 -6 -15 -6h-247z" />
    <glyph glyph-name="Igrave" unicode="&#xcc;" horiz-adv-x="214" 
d="M77 755c-6 0 -10.332 1.83301 -12.999 5.5s-3 8.16699 -1 13.5l25 74c2 5.33301 5.66699 10 11 14s10.666 6 15.999 6h31c5.33301 0 9 -1.83301 11 -5.5s1.66699 -7.83398 -1 -12.501l-40 -77c-2.66699 -5.33301 -7 -9.66602 -13 -12.999s-11.667 -5 -17 -5h-9z
M137.001 704c5.33301 0 10 -2 14 -6s6 -8.66699 6 -14v-660c0 -5.33301 -2 -10 -6 -14s-8.66699 -6 -14 -6h-63c-5.33301 0 -10 2 -14 6s-6 8.66699 -6 14v660c0 5.33301 2 10 6 14s8.66699 6 14 6h63z" />
    <glyph glyph-name="Iacute" unicode="&#xcd;" horiz-adv-x="214" 
d="M138 704c2.66699 0 5.33203 -0.498047 7.99902 -1.49805s4.83398 -2.33301 6.50098 -4s3.16699 -3.83398 4.5 -6.50098s2 -5.33398 2 -8.00098v-660c0 -5.33301 -2 -10 -6 -14s-9 -6 -15 -6h-62c-6 0 -11 2 -15 6s-6 8.66699 -6 14v660c0 5.33301 2 10 6 14s9 6 15 6h62z
M96.998 773.002l-40.9971 77c-2.66699 4.66699 -2.83398 8.83398 -0.500977 12.501s6.16602 5.5 11.499 5.5h30c6 0 11.667 -2 17 -6s8.66602 -8.66699 9.99902 -14l26 -74c1.33301 -5.33301 0.666016 -9.83301 -2.00098 -13.5s-6.66699 -5.5 -12 -5.5h-9
c-2.66699 0 -5.5 0.5 -8.5 1.5s-5.83301 2.16699 -8.5 3.5s-5.16699 3.16602 -7.5 5.49902s-4.16602 4.83301 -5.49902 7.5z" />
    <glyph glyph-name="Icircumflex" unicode="&#xce;" horiz-adv-x="306" 
d="M184 704c6 0 11 -2 15 -6s6 -8.66699 6 -14v-660c0 -5.33301 -2 -10 -6 -14s-9 -6 -15 -6h-62c-6 0 -11 2 -15 6s-6 8.66699 -6 14v660c0 5.33301 2 10 6 14s9 6 15 6h62zM263 794c3.33301 -4.66699 4.16797 -8.5 2.50098 -11.5s-5.5 -4.5 -11.5 -4.5h-43
c-13.333 0 -24 5.33301 -32 16l-14 20c-3.33301 4.66699 -7.33301 7 -12 7s-8.66699 -2.33301 -12 -7l-14 -20c-8 -10.667 -19 -16 -33 -16h-42c-6 0 -9.83301 1.5 -11.5 4.5s-0.833984 6.83301 2.49902 11.5l98 137c3.33301 4.66699 7.33301 7 12 7s8.66699 -2.33301 12 -7
z" />
    <glyph glyph-name="Idieresis" unicode="&#xcf;" horiz-adv-x="380" 
d="M97.5 891c14.333 0 26.5 -5.16699 36.5 -15.5s15 -22.666 15 -36.999s-5 -26.666 -15 -36.999s-22.167 -15.5 -36.5 -15.5s-26.666 5.16699 -36.999 15.5s-15.5 22.666 -15.5 36.999s5.16699 26.666 15.5 36.999s22.666 15.5 36.999 15.5zM221 704c6 0 11 -2 15 -6
s6 -8.66699 6 -14v-660c0 -5.33301 -2 -10 -6 -14s-9 -6 -15 -6h-62c-5.33301 0 -10 2 -14 6s-6 8.66699 -6 14v660c0 5.33301 2 10 6 14s8.66699 6 14 6h62zM283.5 891c14.333 0 26.5 -5.16699 36.5 -15.5s15 -22.666 15 -36.999s-5 -26.666 -15 -36.999
s-22.167 -15.5 -36.5 -15.5s-26.666 5.16699 -36.999 15.5s-15.5 22.666 -15.5 36.999s5.16699 26.666 15.5 36.999s22.666 15.5 36.999 15.5z" />
    <glyph glyph-name="Eth" unicode="&#xd0;" horiz-adv-x="636" 
d="M233 703c50 0 97.666 -9.66602 142.999 -28.999s84.166 -45.5 116.499 -78.5s57.333 -72.5 75 -118.5s25.167 -94.333 22.5 -145c-3.33301 -60.667 -21.666 -116.334 -54.999 -167.001s-76.666 -90.334 -129.999 -119.001s-111 -43 -173 -43h-136
c-4.66699 0 -8.66699 1.66699 -12 5s-5 7.33301 -5 12v219c0 4.66699 -1.5 8.66699 -4.5 12s-6.83301 5 -11.5 5h-2c-3.33301 0 -6.33301 0.666992 -9 2s-4.66699 3.33301 -6 6s-2 5.66699 -2 9v70c0 2.66699 0.666992 5.33398 2 8.00098s3.33301 4.66699 6 6s5.66699 2 9 2
h2c4.66699 0 8.5 1.66699 11.5 5s4.5 7.33301 4.5 12v311c0 4.66699 1.66699 8.5 5 11.5s7.33301 4.5 12 4.5h137zM232.999 107.001c68 0 126.334 22.166 175.001 66.499s75 99.5 79 165.5c4 70.667 -19.333 131.834 -70 183.501s-112.334 77.5 -185.001 77.5h-33
c-4.66699 0 -8.5 -1.66699 -11.5 -5s-4.5 -7.33301 -4.5 -12v-207c0 -4.66699 1.5 -8.66699 4.5 -12s6.83301 -5 11.5 -5h52c4.66699 0 8.66699 -1.5 12 -4.5s5 -6.83301 5 -11.5v-70c0 -4.66699 -1.66699 -8.66699 -5 -12s-7.33301 -5 -12 -5h-52
c-4.66699 0 -8.5 -1.66699 -11.5 -5s-4.5 -7.33301 -4.5 -12v-116c0 -4.66699 1.5 -8.5 4.5 -11.5s6.83301 -4.5 11.5 -4.5h34z" />
    <glyph glyph-name="Ntilde" unicode="&#xd1;" horiz-adv-x="588" 
d="M523 704c7.33301 0 13.499 -2.5 18.499 -7.5s7.5 -11.167 7.5 -18.5v-659c0 -5.33301 -2.5 -9 -7.5 -11s-9.5 -1 -13.5 3l-366 413c-3.33301 4 -7.66602 5 -12.999 3s-8 -5.66699 -8 -11v-386c0 -7.33301 -2.5 -13.666 -7.5 -18.999s-11.167 -8 -18.5 -8h-51
c-7.33301 0 -13.5 2.66699 -18.5 8s-7.5 11.666 -7.5 18.999v658c0 6 2.5 9.83301 7.5 11.5s9.5 0.5 13.5 -3.5l366 -413c4 -4 8.5 -5 13.5 -3s7.5 5.66699 7.5 11v387c0 7.33301 2.5 13.5 7.5 18.5s11.167 7.5 18.5 7.5h51zM166.999 808l-13 9.99902
c-6.66699 4.66699 -10.167 11 -10.5 19s2.16699 14.667 7.5 20c27.333 26.667 56.666 40 87.999 40c26 0 50.667 -9 74 -27l7 -6c21.333 -16.667 43.666 -15.667 66.999 3c11.333 9.33301 22.333 9.33301 33 0l13 -10c6 -4.66699 9.16699 -11.167 9.5 -19.5
s-2.5 -15.166 -8.5 -20.499c-25.333 -22.667 -52.666 -34 -81.999 -34c-26 0 -50.333 9 -73 27c-3.33301 2 -6.66602 4.66699 -9.99902 8c-9.33301 7.33301 -19.333 11 -30 11c-12.667 0 -25.667 -6.33301 -39 -19c-10.667 -10 -21.667 -10.667 -33 -2z" />
    <glyph glyph-name="Ograve" unicode="&#xd2;" horiz-adv-x="792" 
d="M388 769l-43 81c-2.66699 4.66699 -3 8.83398 -1 12.501s6 5.5 12 5.5h30c5.33301 0 10.666 -2 15.999 -6s9 -8.66699 11 -14l26 -77c4.66699 -13.333 6.83398 -20 6.50098 -20h-21.5h-7c-5.33301 0 -11 1.66699 -17 5s-10 7.66602 -12 12.999zM395.5 711
c64.333 0 124 -16 179 -48s98.5 -75.333 130.5 -130s48 -114.334 48 -179.001s-16 -124.5 -48 -179.5s-75.5 -98.5 -130.5 -130.5s-114.667 -48 -179 -48s-124 16 -179 48s-98.5 75.5 -130.5 130.5s-48 114.833 -48 179.5s16 124.334 48 179.001s75.5 98 130.5 130
s114.667 48 179 48zM395.5 99c70.333 0 130.333 25 180 75s74.5 110 74.5 180s-24.833 129.833 -74.5 179.5s-109.667 74.5 -180 74.5s-130.333 -24.833 -180 -74.5s-74.5 -109.5 -74.5 -179.5s24.833 -130 74.5 -180s109.667 -75 180 -75z" />
    <glyph glyph-name="Oacute" unicode="&#xd3;" horiz-adv-x="792" 
d="M374 751h-7h-21.5c-0.333008 0 1.83398 6.33301 6.50098 19l26 78c2 5.33301 5.66699 10 11 14s10.666 6 15.999 6h31c5.33301 0 9 -1.83301 11 -5.5s1.66699 -7.83398 -1 -12.501l-42 -81c-2.66699 -5.33301 -7 -9.66602 -13 -12.999s-11.667 -5 -17 -5zM395.5 711
c64.333 0 124 -16 179 -48s98.5 -75.333 130.5 -130s48 -114.334 48 -179.001s-16 -124.5 -48 -179.5s-75.5 -98.5 -130.5 -130.5s-114.667 -48 -179 -48s-124 16 -179 48s-98.5 75.5 -130.5 130.5s-48 114.833 -48 179.5s16 124.334 48 179.001s75.5 98 130.5 130
s114.667 48 179 48zM395.5 99c70.333 0 130.333 25 180 75s74.5 110 74.5 180s-24.833 129.833 -74.5 179.5s-109.667 74.5 -180 74.5s-130.333 -24.833 -180 -74.5s-74.5 -109.5 -74.5 -179.5s24.833 -130 74.5 -180s109.667 -75 180 -75z" />
    <glyph glyph-name="Ocircumflex" unicode="&#xd4;" horiz-adv-x="792" 
d="M294 778c-5.33301 0 -8.83398 1.5 -10.501 4.5s-0.833984 6.83301 2.49902 11.5l98 137c2.66699 4.66699 6.33398 7 11.001 7s8.66699 -2.33301 12 -7l98 -137c3.33301 -4.66699 4.16602 -8.5 2.49902 -11.5s-5.16699 -4.5 -10.5 -4.5h-43c-13.333 0 -24 5.33301 -32 16
l-15 20c-3.33301 4.66699 -7.16602 7 -11.499 7s-8.16602 -2.33301 -11.499 -7l-15 -20c-8 -10.667 -18.667 -16 -32 -16h-43zM395.499 711c64.333 0 124 -16 179 -48s98.5 -75.333 130.5 -130s48 -114.334 48 -179.001s-16 -124.5 -48 -179.5s-75.5 -98.5 -130.5 -130.5
s-114.667 -48 -179 -48s-124 16 -179 48s-98.5 75.5 -130.5 130.5s-48 114.833 -48 179.5s16 124.334 48 179.001s75.5 98 130.5 130s114.667 48 179 48zM395.499 99c70.333 0 130.333 25 180 75s74.5 110 74.5 180s-24.833 129.833 -74.5 179.5s-109.667 74.5 -180 74.5
s-130.333 -24.833 -180 -74.5s-74.5 -109.5 -74.5 -179.5s24.833 -130 74.5 -180s109.667 -75 180 -75z" />
    <glyph glyph-name="Otilde" unicode="&#xd5;" horiz-adv-x="792" 
d="M275 803l-27.002 21c-4 2.66699 -6.33301 6.5 -7 11.5s1 9.5 5 13.5c28.667 32 60.334 48 95.001 48c26 0 50.667 -9 74 -27l7 -6c23.333 -18 47.333 -15.333 72 8c7.33301 6.66699 15 6.66699 23 0l26 -21c4 -3.33301 6.16699 -7.5 6.5 -12.5s-1.5 -9.5 -5.5 -13.5
c-27.333 -28 -57.333 -42 -90 -42c-26 0 -50.333 9 -73 27c-3.33301 2 -6.66602 4.66699 -9.99902 8c-9.33301 7.33301 -19.333 11 -30 11c-14 0 -28.667 -8 -44 -24c-6.66699 -7.33301 -14 -8 -22 -2zM395.498 711c64.333 0 124 -16 179 -48s98.5 -75.333 130.5 -130
s48 -114.334 48 -179.001s-16 -124.5 -48 -179.5s-75.5 -98.5 -130.5 -130.5s-114.667 -48 -179 -48s-124 16 -179 48s-98.5 75.5 -130.5 130.5s-48 114.833 -48 179.5s16 124.334 48 179.001s75.5 98 130.5 130s114.667 48 179 48zM395.498 99c70.333 0 130.333 25 180 75
s74.5 110 74.5 180s-24.833 129.833 -74.5 179.5s-109.667 74.5 -180 74.5s-130.333 -24.833 -180 -74.5s-74.5 -109.5 -74.5 -179.5s24.833 -130 74.5 -180s109.667 -75 180 -75z" />
    <glyph glyph-name="Odieresis" unicode="&#xd6;" horiz-adv-x="792" 
d="M488.5 786c-14.333 0 -26.666 5.16699 -36.999 15.5s-15.5 22.666 -15.5 36.999s5.16699 26.666 15.5 36.999s22.666 15.5 36.999 15.5s26.666 -5.16699 36.999 -15.5s15.5 -22.666 15.5 -36.999s-5.16699 -26.666 -15.5 -36.999s-22.666 -15.5 -36.999 -15.5zM302.5 786
c-14.333 0 -26.666 5.16699 -36.999 15.5s-15.5 22.666 -15.5 36.999s5.16699 26.666 15.5 36.999s22.666 15.5 36.999 15.5s26.666 -5.16699 36.999 -15.5s15.5 -22.666 15.5 -36.999s-5.16699 -26.666 -15.5 -36.999s-22.666 -15.5 -36.999 -15.5zM395.5 711
c64.333 0 124 -16 179 -48s98.5 -75.333 130.5 -130s48 -114.334 48 -179.001s-16 -124.5 -48 -179.5s-75.5 -98.5 -130.5 -130.5s-114.667 -48 -179 -48s-124 16 -179 48s-98.5 75.5 -130.5 130.5s-48 114.833 -48 179.5s16 124.334 48 179.001s75.5 98 130.5 130
s114.667 48 179 48zM395.5 99c70.333 0 130.333 25 180 75s74.5 110 74.5 180s-24.833 129.833 -74.5 179.5s-109.667 74.5 -180 74.5s-130.333 -24.833 -180 -74.5s-74.5 -109.5 -74.5 -179.5s24.833 -130 74.5 -180s109.667 -75 180 -75z" />
    <glyph glyph-name="multiply" unicode="&#xd7;" horiz-adv-x="414" 
d="M294 340l72 -72c3.33301 -4 5 -8.83301 5 -14.5s-1.66699 -10.5 -5 -14.5l-45 -44c-4 -4 -8.83301 -6 -14.5 -6s-10.5 2 -14.5 6l-71 72c-4 3.33301 -8.83301 5 -14.5 5s-10.5 -1.66699 -14.5 -5l-71 -72c-4 -4 -8.83301 -6 -14.5 -6s-10.5 2 -14.5 6l-44 44
c-4 4 -6 8.83301 -6 14.5s2 10.5 6 14.5l71 72c4 3.33301 6 7.83301 6 13.5s-2 10.5 -6 14.5l-71 72c-4 4 -6 8.83301 -6 14.5s2 10.5 6 14.5l44 44c4 4 8.83301 6 14.5 6s10.5 -2 14.5 -6l71 -72c4 -4 8.83301 -6 14.5 -6s10.5 2 14.5 6l72 72c3.33301 4 7.83301 6 13.5 6
s10.5 -2 14.5 -6l45 -44c4 -4 6 -8.83301 6 -14.5s-2 -10.5 -6 -14.5l-72 -72c-4 -4 -6 -8.66699 -6 -14s2 -10 6 -14z" />
    <glyph glyph-name="Oslash" unicode="&#xd8;" horiz-adv-x="792" 
d="M395.5 711c64.333 0 124 -16 179 -48s98.5 -75.333 130.5 -130s48 -114.334 48 -179.001s-16 -124.5 -48 -179.5s-75.5 -98.5 -130.5 -130.5s-114.667 -48 -179 -48s-124 16 -179 48s-98.5 75.5 -130.5 130.5s-48 114.833 -48 179.5s16 124.334 48 179.001
s75.5 98 130.5 130s114.667 48 179 48zM177 225c2 -4 5.50195 -6.33203 10.502 -6.99902s9.16699 0.666016 12.5 3.99902l331 325c3.33301 3.33301 4.66602 7.33301 3.99902 12s-3 8.33398 -7 11.001c-54 33.333 -112 45 -174 35c-53.333 -8.66699 -99.333 -32.5 -138 -71.5
s-62.334 -85.167 -71.001 -138.5c-10 -60.667 0.666992 -117.334 32 -170.001zM643.002 297.001c16 68.667 5.00195 132.666 -32.998 191.999c-2.66699 4 -6.33398 6.33301 -11.001 7s-9 -0.666016 -13 -3.99902l-332 -326c-3.33301 -4 -4.83301 -8.33301 -4.5 -13
s2.5 -8.33398 6.5 -11.001c61.333 -40.667 127.666 -52.334 198.999 -35.001c46.667 10.667 87.167 33.334 121.5 68.001s56.5 75.334 66.5 122.001z" />
    <glyph glyph-name="Ugrave" unicode="&#xd9;" horiz-adv-x="588" 
d="M524 704c6.66699 0 12.501 -2.49609 17.501 -7.49609s7.5 -10.833 7.5 -17.5v-420c0 -72.667 -26.333 -134.334 -79 -185.001s-115.667 -74 -189 -70c-68.667 3.33301 -126.334 30.666 -173.001 81.999s-70 111.333 -70 180v413c0 6.66699 2.5 12.5 7.5 17.5
s11.167 7.5 18.5 7.5h52c6.66699 0 12.5 -2.5 17.5 -7.5s7.5 -10.833 7.5 -17.5v-415c0 -40.667 13.667 -76.334 41 -107.001s61 -47.334 101 -50.001c44 -2.66699 82.167 11 114.5 41s48.5 67 48.5 111v420c0 6.66699 2.5 12.5 7.5 17.5s10.833 7.5 17.5 7.5h53z
M285.001 769.004l-42.001 81c-2.66699 4.66699 -3 8.83398 -1 12.501s5.66699 5.5 11 5.5h31c3.33301 0 6.83301 -1 10.5 -3s7 -4.5 10 -7.5s5.16699 -6.16699 6.5 -9.5l26 -78c4.66699 -12.667 6.83398 -19 6.50098 -19h-20.5h-8c-5.33301 0 -11 1.66699 -17 5
s-10.333 7.66602 -13 12.999z" />
    <glyph glyph-name="Uacute" unicode="&#xda;" horiz-adv-x="588" 
d="M524 704c6.66699 0 12.501 -2.49609 17.501 -7.49609s7.5 -10.833 7.5 -17.5v-420c0 -72.667 -26.333 -134.334 -79 -185.001s-115.667 -74 -189 -70c-68.667 3.33301 -126.334 30.666 -173.001 81.999s-70 111.333 -70 180v413c0 6.66699 2.5 12.5 7.5 17.5
s11.167 7.5 18.5 7.5h52c6.66699 0 12.5 -2.5 17.5 -7.5s7.5 -10.833 7.5 -17.5v-415c0 -40.667 13.667 -76.334 41 -107.001s61 -47.334 101 -50.001c44 -2.66699 82.167 11 114.5 41s48.5 67 48.5 111v420c0 6.66699 2.5 12.5 7.5 17.5s10.833 7.5 17.5 7.5h53z
M272.001 751.004h-8h-20.5c-0.333008 0 1.83398 6.33301 6.50098 19l26 78c2 5.33301 5.66699 10 11 14s10.666 6 15.999 6h31c5.33301 0 9 -1.83301 11 -5.5s1.66699 -7.83398 -1 -12.501l-42 -81c-2.66699 -5.33301 -7 -9.66602 -13 -12.999s-11.667 -5 -17 -5z" />
    <glyph glyph-name="Ucircumflex" unicode="&#xdb;" horiz-adv-x="588" 
d="M524 704c6.66699 0 12.501 -2.49609 17.501 -7.49609s7.5 -10.833 7.5 -17.5v-420c0 -72.667 -26.333 -134.334 -79 -185.001s-115.667 -74 -189 -70c-68.667 3.33301 -126.334 30.666 -173.001 81.999s-70 111.333 -70 180v413c0 6.66699 2.5 12.5 7.5 17.5
s11.167 7.5 18.5 7.5h52c6.66699 0 12.5 -2.5 17.5 -7.5s7.5 -10.833 7.5 -17.5v-415c0 -40.667 13.667 -76.334 41 -107.001s61 -47.334 101 -50.001c44 -2.66699 82.167 11 114.5 41s48.5 67 48.5 111v420c0 6.66699 2.5 12.5 7.5 17.5s10.833 7.5 17.5 7.5h53z
M192.001 778.004c-5.33301 0 -8.83203 1.5 -10.499 4.5s-0.833984 6.83301 2.49902 11.5l98 137c3.33301 4.66699 7.33301 7 12 7s8.33398 -2.33301 11.001 -7l98 -137c3.33301 -4.66699 4.16602 -8.5 2.49902 -11.5s-5.16699 -4.5 -10.5 -4.5h-43
c-13.333 0 -24 5.33301 -32 16l-15 20c-1.33301 2.66699 -3 4.5 -5 5.5s-4.16699 1.5 -6.5 1.5s-4.5 -0.5 -6.5 -1.5s-3.66699 -2.83301 -5 -5.5l-15 -20c-8 -10.667 -18.667 -16 -32 -16h-43z" />
    <glyph glyph-name="Udieresis" unicode="&#xdc;" horiz-adv-x="588" 
d="M524 704c6.66699 0 12.501 -2.49609 17.501 -7.49609s7.5 -10.833 7.5 -17.5v-420c0 -72.667 -26.333 -134.334 -79 -185.001s-115.667 -74 -189 -70c-68.667 3.33301 -126.334 30.666 -173.001 81.999s-70 111.333 -70 180v413c0 6.66699 2.5 12.5 7.5 17.5
s11.167 7.5 18.5 7.5h52c6.66699 0 12.5 -2.5 17.5 -7.5s7.5 -10.833 7.5 -17.5v-415c0 -40.667 13.667 -76.334 41 -107.001s61 -47.334 101 -50.001c44 -2.66699 82.167 11 114.5 41s48.5 67 48.5 111v420c0 6.66699 2.5 12.5 7.5 17.5s10.833 7.5 17.5 7.5h53z
M386.501 786.004c-14.333 0 -26.5 5.16699 -36.5 15.5s-15 22.666 -15 36.999s5 26.666 15 36.999s22.167 15.5 36.5 15.5s26.666 -5.16699 36.999 -15.5s15.5 -22.666 15.5 -36.999s-5.16699 -26.666 -15.5 -36.999s-22.666 -15.5 -36.999 -15.5zM200.501 786.004
c-14.333 0 -26.666 5.16699 -36.999 15.5s-15.5 22.666 -15.5 36.999s5.16699 26.666 15.5 36.999s22.666 15.5 36.999 15.5s26.666 -5.16699 36.999 -15.5s15.5 -22.666 15.5 -36.999s-5.16699 -26.666 -15.5 -36.999s-22.666 -15.5 -36.999 -15.5z" />
    <glyph glyph-name="Yacute" unicode="&#xdd;" horiz-adv-x="660" 
d="M307 751h-7h-21l6 19l27 78c1.33301 3.33301 3.33301 6.5 6 9.5s5.83398 5.5 9.50098 7.5s7.5 3 11.5 3h30c6 0 10 -1.83301 12 -5.5s1.66699 -7.83398 -1 -12.501l-43 -81c-2.66699 -5.33301 -6.83398 -9.66602 -12.501 -12.999s-11.5 -5 -17.5 -5zM617 703
c3.33301 0 5.16797 -1.66602 5.50098 -4.99902s-1.16699 -7.33301 -4.5 -12l-227 -375c-6.66699 -12 -10 -24.667 -10 -38v-251c0 -5.33301 -2 -10 -6 -14s-9 -6 -15 -6h-62c-6 0 -11 2 -15 6s-6 8.66699 -6 14v251c0 13.333 -3.33301 26 -10 38l-227 375
c-3.33301 4.66699 -4 8.66699 -2 12s5.66699 5 11 5h80c3.33301 0 6.5 -0.333008 9.5 -1s5.83301 -1.83398 8.5 -3.50098s5.16699 -3.66699 7.5 -6s4.16602 -4.5 5.49902 -6.5l159 -261c2.66699 -4.66699 6 -7 10 -7s7.66699 2.33301 11 7l158 261
c2 3.33301 4.66699 6.33301 8 9s7 4.66699 11 6s8 2 12 2h55h33z" />
    <glyph glyph-name="Thorn" unicode="&#xde;" horiz-adv-x="417" 
d="M143 590c64.667 0 120.001 -23.166 166.001 -69.499s69 -102 69 -167s-23 -120.5 -69 -166.5s-101.333 -69 -166 -69h-1v-3c0 -2 -0.166992 -4.5 -0.5 -7.5s-0.5 -6.5 -0.5 -10.5v-73c0 -6 -2 -11 -6 -15s-8.66699 -6 -14 -6h-63c-5.33301 0 -10 2 -14 6s-6 9 -6 15v95
v428v137c0 3.33301 0.833008 6.66602 2.5 9.99902s4.16699 5.83301 7.5 7.5s6.66602 2.5 9.99902 2.5h63c5.33301 0 10 -2 14 -6s6 -8.66699 6 -14v-74c0 -4 0.166992 -7.5 0.5 -10.5s0.5 -5.33301 0.5 -7v-2.5h1zM143.001 221.001c36 0 67 12.999 93 38.999
s39 57.333 39 94s-13 67.834 -39 93.501s-57 38.5 -93 38.5h-1c-0.666992 0 -1 -6.66699 -1 -20v-225c0 -13.333 0.333008 -20 1 -20h1z" />
    <glyph glyph-name="germandbls" unicode="&#xdf;" horiz-adv-x="546" 
d="M414 372c28 -18.667 50.501 -43 67.501 -73s25.5 -62.667 25.5 -98c0 -56.667 -20 -105 -60 -145s-88.333 -60 -145 -60h-131v104h131c28 0 51.833 9.83301 71.5 29.5s29.5 43.5 29.5 71.5s-9.83301 51.833 -29.5 71.5s-43.5 29.5 -71.5 29.5h-42v103
c28 0 51.833 10 71.5 30s29.5 44 29.5 72c0 18 -4.5 34.833 -13.5 50.5s-21.333 28 -37 37s-32.5 13.5 -50.5 13.5c-32.667 0 -60.667 -11.5 -84 -34.5s-35 -50.833 -35 -83.5v-717h-103v717c0 60.667 21.667 112.667 65 156s95.666 65 156.999 65c56 0 104 -20 144 -60
s60 -88 60 -144c0 -51.333 -16.667 -96.333 -50 -135z" />
    <glyph glyph-name="agrave" unicode="&#xe0;" horiz-adv-x="503" 
d="M263 479c56 0 103.501 -19.835 142.501 -59.502s58.5 -87.167 58.5 -142.5v-252c0 -6 -2.16699 -11.333 -6.5 -16s-9.83301 -7 -16.5 -7h-24c-15.333 0 -28.5 5.5 -39.5 16.5s-16.5 24.5 -16.5 40.5c-12 -19.333 -32.667 -36.166 -62 -50.499
s-56.666 -21.5 -81.999 -21.5c-52.667 0 -95.667 14.167 -129 42.5s-50 65.166 -50 110.499c0 50 18.5 90 55.5 120s86.5 45 148.5 45c40.667 0 80 -6.66699 118 -20c-0.666992 10 -2.83398 19.5 -6.50098 28.5s-8.5 17.333 -14.5 25s-13 14.167 -21 19.5
s-16.833 9.5 -26.5 12.5s-19.5 4.5 -29.5 4.5c-38 0 -69.667 -6 -95 -18c-6 -3.33301 -12.333 -4.16602 -19 -2.49902s-12 5.5 -16 11.5l-27 42c-4 6.66699 -5 13.834 -3 21.501s6.33301 13.167 13 16.5c41.333 22 90.666 33 147.999 33zM217.001 90.998
c26.667 0 53 7 79 21s44.333 35.333 55 64c-28.667 17.333 -65 26 -109 26c-20 0 -38 -2.66699 -54 -8c-31.333 -9.33301 -47 -27.333 -47 -54c0 -11.333 3.16699 -20.5 9.5 -27.5s14.5 -12 24.5 -15s18 -4.83301 24 -5.5s12 -1 18 -1zM242.001 546.998l-42.9971 80.998
c-2.66699 4.66699 -2.83398 8.83398 -0.500977 12.501s6.16602 5.5 11.499 5.5h31c5.33301 0 10.666 -2 15.999 -6s9 -8.66699 11 -14l26 -78c2 -5.33301 1.66699 -9.83301 -1 -13.5s-6.66699 -5.5 -12 -5.5h-9c-4 0 -8 0.833008 -12 2.5s-7.5 3.83398 -10.5 6.50098
s-5.5 5.66699 -7.5 9z" />
    <glyph glyph-name="aacute" unicode="&#xe1;" horiz-adv-x="502" 
d="M263 479c56 0 103.501 -19.835 142.501 -59.502s58.5 -87.167 58.5 -142.5v-252c0 -6 -2.16699 -11.333 -6.5 -16s-9.83301 -7 -16.5 -7h-24c-15.333 0 -28.5 5.5 -39.5 16.5s-16.5 24.5 -16.5 40.5c-12 -19.333 -32.667 -36.166 -62 -50.499
s-56.666 -21.5 -81.999 -21.5c-52.667 0 -95.667 14.167 -129 42.5s-50 65.166 -50 110.499c0 50 18.5 90 55.5 120s86.5 45 148.5 45c40.667 0 80 -6.66699 118 -20c-0.666992 10 -2.83398 19.5 -6.50098 28.5s-8.5 17.333 -14.5 25s-13 14.167 -21 19.5
s-16.833 9.5 -26.5 12.5s-19.5 4.5 -29.5 4.5c-38 0 -69.667 -6 -95 -18c-6 -3.33301 -12.333 -4.16602 -19 -2.49902s-12 5.5 -16 11.5l-27 42c-4 6.66699 -5 13.834 -3 21.501s6.33301 13.167 13 16.5c41.333 22 90.666 33 147.999 33zM217.001 90.998
c26.667 0 53 7.16699 79 21.5s44.333 35.5 55 63.5c-28.667 17.333 -65 26 -109 26c-20 0 -38 -2.66699 -54 -8c-31.333 -9.33301 -47 -27.333 -47 -54c0 -11.333 3.16699 -20.5 9.5 -27.5s14.5 -12 24.5 -15s18 -4.83301 24 -5.5s12 -1 18 -1zM222.001 528.998
c-3.33301 0 -5.99805 0.5 -7.99805 1.5s-3.66699 2.33301 -5 4s-2.16602 3.66699 -2.49902 6s0.166992 4.83301 1.5 7.5l26 78c1.33301 4 3.5 7.33301 6.5 10s6.33301 5 10 7s7.16699 3 10.5 3h31c5.33301 0 9.16602 -1.83301 11.499 -5.5
s2.16602 -7.83398 -0.500977 -12.501l-43 -81c-2.66699 -5.33301 -6.83398 -9.66602 -12.501 -12.999s-11.5 -5 -17.5 -5h-8z" />
    <glyph glyph-name="acircumflex" unicode="&#xe2;" horiz-adv-x="503" 
d="M263 479c56 0 103.5 -19.834 142.5 -59.501s58.5 -87.167 58.5 -142.5v-252c0 -6 -2.16699 -11.333 -6.5 -16s-9.83301 -7 -16.5 -7h-24c-15.333 0 -28.5 5.5 -39.5 16.5s-16.5 24.5 -16.5 40.5c-12 -19.333 -32.667 -36.166 -62 -50.499s-56.666 -21.5 -81.999 -21.5
c-52.667 0 -95.667 14.167 -129 42.5s-50 65.166 -50 110.499c0 50 18.5 90 55.5 120s86.5 45 148.5 45c40.667 0 80 -6.66699 118 -20c-2 25.333 -12.333 46.666 -31 63.999s-41 26 -67 26c-38 0 -69.667 -6 -95 -18c-6 -3.33301 -12.333 -4.16602 -19 -2.49902
s-12 5.5 -16 11.5l-27 42c-4 6.66699 -5 13.834 -3 21.501s6.33301 13.167 13 16.5c41.333 22 90.666 33 147.999 33zM217 90.999c26.667 0 53 7 79 21s44.333 35.333 55 64c-28.667 17.333 -65 26 -109 26c-20 0 -38 -2.66699 -54 -8c-31.333 -9.33301 -47 -27.333 -47 -54
c0 -11.333 3.16699 -20.5 9.5 -27.5s14.5 -12 24.5 -15s18 -4.83301 24 -5.5s12 -1 18 -1zM150 527.999c-6 0 -9.83105 1.5 -11.498 4.5s-0.833984 6.83301 2.49902 11.5l98 137c3.33301 4.66699 7.33301 7 12 7s8.66699 -2.33301 12 -7l98 -137
c3.33301 -4.66699 4.16602 -8.5 2.49902 -11.5s-5.5 -4.5 -11.5 -4.5h-42c-14 0 -25 5.33301 -33 16l-14 20c-3.33301 4.66699 -7.33301 7 -12 7s-8.66699 -2.33301 -12 -7l-14 -20c-8 -10.667 -18.667 -16 -32 -16h-43z" />
    <glyph glyph-name="atilde" unicode="&#xe3;" horiz-adv-x="503" 
d="M152 557l-17.001 13.999c-5.33301 4 -8.33301 9.33301 -9 16s1.33301 12.334 6 17.001c27.333 29.333 57.666 44 90.999 44c26 0 50.667 -9 74 -27l7 -6c22 -17.333 45 -16 69 4c9.33301 8.66699 19 9 29 1l18 -14c5.33301 -4.66699 8.16602 -10.5 8.49902 -17.5
s-2.16699 -12.833 -7.5 -17.5c-26 -24.667 -54.333 -37 -85 -37c-26 0 -50.333 9 -73 27c-3.33301 2 -6.66602 4.66699 -9.99902 8c-9.33301 7.33301 -19.333 11 -30 11c-13.333 0 -26.666 -7 -39.999 -21c-9.33301 -9.33301 -19.666 -10 -30.999 -2zM262.999 478.999
c56 0 103.501 -19.834 142.501 -59.501s58.5 -87.167 58.5 -142.5v-252c0 -6 -2.16699 -11.333 -6.5 -16s-9.83301 -7 -16.5 -7h-24c-15.333 0 -28.5 5.5 -39.5 16.5s-16.5 24.5 -16.5 40.5c-8 -12.667 -20.333 -24.667 -37 -36s-34.667 -20.166 -54 -26.499
s-37 -9.5 -53 -9.5c-52.667 0 -95.667 14.167 -129 42.5s-50 65.166 -50 110.499c0 50 18.5 90 55.5 120s86.5 45 148.5 45c40.667 0 80 -6.66699 118 -20c-2 25.333 -12.333 46.666 -31 63.999s-41 26 -67 26c-38 0 -69.667 -6 -95 -18
c-6 -3.33301 -12.333 -4.16602 -19 -2.49902s-12 5.5 -16 11.5l-27 42c-4 6.66699 -5 13.834 -3 21.501s6.33301 13.167 13 16.5c41.333 22 90.666 33 147.999 33zM217 90.998c26.667 0 53 7.16699 79 21.5s44.333 35.5 55 63.5c-28.667 17.333 -65 26 -109 26
c-20 0 -38 -2.66699 -54 -8c-31.333 -9.33301 -47 -27.333 -47 -54c0 -11.333 3.16699 -20.5 9.5 -27.5s14.5 -12 24.5 -15s18 -4.83301 24 -5.5s12 -1 18 -1z" />
    <glyph glyph-name="adieresis" unicode="&#xe4;" horiz-adv-x="503" 
d="M344.5 537c-14.333 0 -26.666 5.16699 -36.999 15.5s-15.5 22.666 -15.5 36.999s5.16699 26.5 15.5 36.5s22.666 15 36.999 15s26.5 -5 36.5 -15s15 -22.167 15 -36.5s-5 -26.666 -15 -36.999s-22.167 -15.5 -36.5 -15.5zM158 537c-14.667 0 -27 5.16797 -37 15.501
s-15 22.666 -15 36.999s5 26.5 15 36.5s22.333 15 37 15c7.33301 0 14.166 -1.33301 20.499 -4s11.833 -6.33398 16.5 -11.001s8.33398 -10.167 11.001 -16.5s4 -13.166 4 -20.499c0 -14 -5 -26.167 -15 -36.5s-22.333 -15.5 -37 -15.5zM263 479.001
c56 0 103.502 -19.835 142.502 -59.502s58.5 -87.167 58.5 -142.5v-252c0 -6 -2.16699 -11.333 -6.5 -16s-9.83301 -7 -16.5 -7h-24c-15.333 0 -28.5 5.5 -39.5 16.5s-16.5 24.5 -16.5 40.5c-8 -12.667 -20.333 -24.667 -37 -36s-34.667 -20.166 -54 -26.499
s-37 -9.5 -53 -9.5c-52.667 0 -95.667 14.167 -129 42.5s-50 65.166 -50 110.499c0 50 18.5 90 55.5 120s86.5 45 148.5 45c40.667 0 80 -6.66699 118 -20c-0.666992 10 -2.83398 19.5 -6.50098 28.5s-8.5 17.333 -14.5 25s-13 14.167 -21 19.5s-16.833 9.5 -26.5 12.5
s-19.5 4.5 -29.5 4.5c-38 0 -69.667 -6 -95 -18c-6 -3.33301 -12.333 -4.16602 -19 -2.49902s-12 5.5 -16 11.5l-27 42c-4 6.66699 -5 13.834 -3 21.501s6.33301 13.167 13 16.5c41.333 22 90.666 33 147.999 33zM217.002 90.999c26.667 0 53 7 79 21s44.333 35.333 55 64
c-28.667 17.333 -65 26 -109 26c-20 0 -38 -2.66699 -54 -8c-31.333 -9.33301 -47 -27.333 -47 -54c0 -11.333 3.16699 -20.5 9.5 -27.5s14.333 -12 24 -15s17.667 -4.83301 24 -5.5s12.5 -1 18.5 -1z" />
    <glyph glyph-name="aring" unicode="&#xe5;" horiz-adv-x="502" 
d="M263 479c56 0 103.501 -19.835 142.501 -59.502s58.5 -87.167 58.5 -142.5v-252c0 -6 -2.16699 -11.333 -6.5 -16s-9.83301 -7 -16.5 -7h-24c-15.333 0 -28.5 5.5 -39.5 16.5s-16.5 24.5 -16.5 40.5c-12 -19.333 -32.667 -36.166 -62 -50.499
s-56.666 -21.5 -81.999 -21.5c-52.667 0 -95.667 14.167 -129 42.5s-50 65.166 -50 110.499c0 50 18.5 90 55.5 120s86.5 45 148.5 45c40.667 0 80 -6.66699 118 -20c-0.666992 10 -2.83398 19.5 -6.50098 28.5s-8.5 17.333 -14.5 25s-13 14.167 -21 19.5
s-16.833 9.5 -26.5 12.5s-19.5 4.5 -29.5 4.5c-38 0 -69.667 -6 -95 -18c-6 -3.33301 -12.333 -4.16602 -19 -2.49902s-12 5.5 -16 11.5l-27 42c-4 6.66699 -5 13.834 -3 21.501s6.33301 13.167 13 16.5c41.333 22 90.666 33 147.999 33zM217.001 90.998
c26.667 0 53 7 79 21s44.333 35.333 55 64c-28.667 17.333 -65 26 -109 26c-20 0 -38 -2.66699 -54 -8c-31.333 -9.33301 -47 -27.333 -47 -54c0 -11.333 3.16699 -20.5 9.5 -27.5s14.5 -12 24.5 -15s18 -4.83301 24 -5.5s12 -1 18 -1zM265.001 486.998
c-16 0 -30.834 4 -44.501 12s-24.667 18.833 -33 32.5s-12.5 28.834 -12.5 45.501c0 24.667 8.83301 45.834 26.5 63.501s39 26.5 64 26.5s46.167 -8.83301 63.5 -26.5s26 -38.834 26 -63.501s-8.66699 -45.834 -26 -63.501s-38.666 -26.5 -63.999 -26.5zM265 615.998
c-10.667 0 -19.835 -3.83203 -27.502 -11.499s-11.5 -16.834 -11.5 -27.501s3.83301 -19.834 11.5 -27.501s16.834 -11.5 27.501 -11.5s19.834 3.83301 27.501 11.5s11.5 16.834 11.5 27.501c0 6.66699 -1.66699 13 -5 19s-8 10.833 -14 14.5s-12.667 5.5 -20 5.5z" />
    <glyph glyph-name="ae" unicode="&#xe6;" horiz-adv-x="874" 
d="M834 284l3 -10.0029c0.666992 -4 0.666992 -7.66699 0 -11s-2.33398 -6.33301 -5.00098 -9s-5.66699 -4.66699 -9 -6l-312 -91c-6 -2 -9.5 -5 -10.5 -9s0.5 -8 4.5 -12c7.33301 -7.33301 16.333 -14 27 -20c33.333 -18 68 -21.667 104 -11c6.66699 2 13.5 5 20.5 9
s13.167 8.33301 18.5 13l15 13.5l11 10.5l3 4c4 4 9 6.66699 15 8s11.333 0.666016 16 -2.00098l55 -30c4.66699 -2.66699 7.5 -6.5 8.5 -11.5s-0.166992 -9.83301 -3.5 -14.5l-2.5 -2.5c-1 -1 -3.33301 -3.5 -7 -7.5l-11 -11.5l-13.5 -13.5
c-5.33301 -5.33301 -10.833 -10.333 -16.5 -15l-18.5 -15c-6.66699 -5.33301 -13.167 -10.166 -19.5 -14.499s-13.166 -8.16602 -20.499 -11.499s-14.333 -6 -21 -8c-22 -6.66699 -44.667 -10 -68 -10c-40 0 -78 10 -114 30l-8 4c-3.33301 2.66699 -6.33301 3.16699 -9 1.5
s-4 -5 -4 -10s-2 -9.16699 -6 -12.5s-8.66699 -5 -14 -5h-63c-5.33301 0 -10 1.33301 -14 4s-6 6 -6 10s-1.83301 6.5 -5.5 7.5s-8.16699 0.5 -13.5 -1.5c-50 -24 -91.667 -36 -125 -36c-47.333 0 -87.333 12 -120 36c-39.333 28.667 -59 67.667 -59 117
c0 57.333 23.667 101 71 131c35.333 22.667 79.666 34 132.999 34c12 0 26.167 -1.16699 42.5 -3.5s29.833 -4.83301 40.5 -7.5l15 -4c5.33301 -1.33301 9 -0.666016 11 2.00098s2 6.33398 0 11.001c-1.33301 2 -3 4.66699 -5 8s-6 9.16602 -12 17.499
s-12.167 15.666 -18.5 21.999s-14.333 12 -24 17s-19.5 7.5 -29.5 7.5c-10.667 0 -24.167 -1.83301 -40.5 -5.5s-29.833 -7.5 -40.5 -11.5l-16 -6c-5.33301 -2 -10.833 -2 -16.5 0s-10.167 5.33301 -13.5 10l-34 53c-2.66699 4.66699 -3.16699 9.33398 -1.5 14.001
s4.83398 8 9.50098 10c70.667 26.667 121.667 40 153 40c20 0 42.167 -5.83301 66.5 -17.5s43.833 -23.167 58.5 -34.5l21 -17c4.66699 -3.33301 10 -5.16602 16 -5.49902s11 1.5 15 5.5c34 28.667 65 47 93 55c63.333 18.667 124.333 12 183 -20
c35.333 -19.333 64 -46 86 -80c4 -6 7.66699 -12.5 11 -19.5s6 -12.833 8 -17.5l3 -6c4 -12.667 8.33301 -25.667 13 -39zM335 162.997c4 4 5.50098 8 4.50098 12s-3.83301 7.33301 -8.5 10c-30.667 12 -61 18 -91 18c-20 0 -38 -2.66699 -54 -8
c-30.667 -9.33301 -46 -27.333 -46 -54c0 -11.333 3 -20.5 9 -27.5s14 -12 24 -15s18.167 -4.83301 24.5 -5.5s12.166 -1 17.499 -1c13.333 0 30 5.83301 50 17.5s36.667 23.5 50 35.5zM685.001 314.997c5.33301 2 8.50195 4.99707 9.50195 8.99707s-0.5 8 -4.5 12
c-7.33301 7.33301 -16.333 14 -27 20c-20.667 10.667 -42.334 16 -65.001 16c-13.333 0 -26.333 -1.66699 -39 -5c-36 -10.667 -63 -32.667 -81 -66c-2.66699 -4.66699 -5 -9.5 -7 -14.5s-3.33301 -8.83301 -4 -11.5l-1 -4c-2.66699 -13.333 -4 -20.166 -4 -20.499
s0.833008 -0.166016 2.5 0.500977s4.16699 1.33398 7.5 2.00098s6.66602 1.66699 9.99902 3z" />
    <glyph glyph-name="ccedilla" unicode="&#xe7;" horiz-adv-x="478" 
d="M392 123l37.001 -36.9961c5.33301 -6 7.83301 -12.833 7.5 -20.5s-3.83301 -13.834 -10.5 -18.501c-32 -25.333 -69.333 -41 -112 -47l-18 -29c17.333 -8 31.333 -19.333 42 -34s16 -30.667 16 -48c0 -26 -10.833 -48.167 -32.5 -66.5s-47.834 -27.5 -78.501 -27.5
c-20.667 0 -39.667 4.33301 -57 13c-7.33301 4 -11.5 10.167 -12.5 18.5s1.16699 15.5 6.5 21.5l13 13c8 8 17.333 10 28 6c6.66699 -2.66699 14 -4 22 -4c12 0 22.167 2.66699 30.5 8s12.5 11.333 12.5 18s-4.16699 12.667 -12.5 18s-18.5 8 -30.5 8h-34v44l5 9l20 32
c-48 9.33301 -89.333 31.333 -124 66c-46.667 46.667 -70 103 -70 169s23.333 122.333 70 169c41.333 41.333 93 63.833 155 67.5s116 -12.5 162 -48.5c6 -4.66699 9.16699 -10.834 9.5 -18.501s-2.16699 -14.167 -7.5 -19.5l-37 -37c-10.667 -10.667 -22 -11.667 -34 -3
c-26 18.667 -56 26.667 -90 24s-62.333 -15.334 -85 -38.001c-26.667 -26.667 -40 -58.667 -40 -96s13.333 -69.333 40 -96c22.667 -22.667 51 -35.334 85 -38.001s64 5.33301 90 24c12 8.66699 23.333 8 34 -2z" />
    <glyph glyph-name="egrave" unicode="&#xe8;" horiz-adv-x="552" 
d="M231 547l-43.002 80.998c-2 4.66699 -2 8.83398 0 12.501s5.66699 5.5 11 5.5h31c4 0 7.83301 -1 11.5 -3s6.83398 -4.33301 9.50098 -7s4.66699 -6 6 -10l27 -78c0.666992 -2.66699 0.833984 -5.16699 0.500977 -7.5s-1 -4.33301 -2 -6s-2.66699 -3 -5 -4
s-4.83301 -1.5 -7.5 -1.5h-9c-3.33301 0 -7 0.833008 -11 2.5s-7.66699 3.83398 -11 6.50098s-6 5.66699 -8 9zM505.998 305.998c3.33301 -10.667 5.99707 -21.3359 7.99707 -32.0029c0.666992 -5.33301 -0.333008 -10.166 -3 -14.499s-6.66699 -7.16602 -12 -8.49902
l-314 -93c-4 -0.666992 -6.5 -3 -7.5 -7s0.166992 -7.33301 3.5 -10c8.66699 -8.66699 18.334 -16 29.001 -22c33.333 -18 68 -21.667 104 -11c30 8.66699 54 25.334 72 50.001c7.33301 10 16 12 26 6l55 -30c5.33301 -2.66699 8.83301 -7 10.5 -13s0.5 -11.667 -3.5 -17
c-15.333 -22.667 -34.166 -42.167 -56.499 -58.5s-47.166 -28.5 -74.499 -36.5c-22 -6.66699 -44.667 -10 -68 -10c-40.667 0 -78.667 9.66699 -114 29c-12.667 7.33301 -24.667 15.5 -36 24.5s-20.833 18 -28.5 27s-14.5 18 -20.5 27s-10.833 17.333 -14.5 25l-9.5 20.5
c-2.66699 6 -4.33398 10.667 -5.00098 14l-1 5c-18.667 64 -12.167 125 19.5 183s79.167 96.333 142.5 115s124.333 12 183 -20c35.333 -19.333 64 -46 86 -80c12.667 -19.333 22.334 -40.333 29.001 -63zM370.995 320.996c2.66699 0.666992 4.5 2.33398 5.5 5.00098
s0.5 5 -1.5 7c-10 10 -21.333 18.667 -34 26c-20 10.667 -41.667 16 -65 16c-12.667 0 -25.667 -1.66699 -39 -5c-36 -10.667 -63 -32.667 -81 -66c-6 -10.667 -10.333 -22 -13 -34c-0.666992 -4 0.333008 -7.33301 3 -10s6 -3.33398 10 -2.00098z" />
    <glyph glyph-name="eacute" unicode="&#xe9;" horiz-adv-x="552" 
d="M241 529c-5.33301 0 -9.33105 1.83301 -11.998 5.5s-3.33398 8.16699 -2.00098 13.5l27 78c2 5.33301 5.66699 10 11 14s10.666 6 15.999 6h31c5.33301 0 9 -1.83301 11 -5.5s2 -7.83398 0 -12.501l-43 -81c-2.66699 -5.33301 -7 -9.66602 -13 -12.999s-11.667 -5 -17 -5
h-9zM506.002 306c3.33301 -10.667 5.99902 -21.3359 7.99902 -32.0029c0.666992 -5.33301 -0.333008 -10.166 -3 -14.499s-6.66699 -7.16602 -12 -8.49902l-314 -93c-4 -0.666992 -6.5 -3 -7.5 -7s0.166992 -7.33301 3.5 -10c8.66699 -8.66699 18.334 -16 29.001 -22
c33.333 -18 68 -21.667 104 -11c30 8.66699 54 25.334 72 50.001c7.33301 10 16 12 26 6l55 -30c5.33301 -2.66699 8.83301 -7 10.5 -13s0.5 -11.667 -3.5 -17c-32 -47.333 -75.667 -79 -131 -95c-22 -6.66699 -44.667 -10 -68 -10c-40.667 0 -78.667 9.66699 -114 29
c-12.667 7.33301 -24.667 15.5 -36 24.5s-20.833 18 -28.5 27s-14.5 18 -20.5 27s-10.833 17.333 -14.5 25l-9.5 20.5c-2.66699 6 -4.33398 10.667 -5.00098 14l-1 5c-18.667 64 -12.167 125 19.5 183s79.167 96.333 142.5 115s124.333 12 183 -20
c35.333 -19.333 64 -46 86 -80c12.667 -19.333 22.334 -40.333 29.001 -63zM371.001 320.998c2.66699 0.666992 4.5 2.33301 5.5 5s0.5 5 -1.5 7c-10 10 -21.333 18.667 -34 26c-20 10.667 -41.667 16 -65 16c-12.667 0 -25.667 -1.66699 -39 -5
c-36 -10.667 -63 -32.667 -81 -66c-6 -10.667 -10.333 -22 -13 -34c-0.666992 -2.66699 -0.5 -5.16699 0.5 -7.5s2.66699 -4 5 -5s4.83301 -0.833008 7.5 0.5z" />
    <glyph glyph-name="ecircumflex" unicode="&#xea;" horiz-adv-x="553" 
d="M166 528c-6 0 -9.83105 1.5 -11.498 4.5s-0.833984 6.83301 2.49902 11.5l98 137c3.33301 4.66699 7.33301 7 12 7s8.66699 -2.33301 12 -7l98 -137c3.33301 -4.66699 4.16602 -8.5 2.49902 -11.5s-5.5 -4.5 -11.5 -4.5h-42c-14 0 -25 5.33301 -33 16l-14 20
c-3.33301 4.66699 -7.33301 7 -12 7s-8.66699 -2.33301 -12 -7l-14 -20c-8 -10.667 -18.667 -16 -32 -16h-43zM506.002 306c3.33301 -10.667 5.99805 -21.3359 7.99805 -32.0029c1.33301 -5.33301 0.5 -10.166 -2.5 -14.499s-7.16699 -7.16602 -12.5 -8.49902l-314 -93
c-4 -0.666992 -6.5 -3 -7.5 -7s0.166992 -7.33301 3.5 -10c8.66699 -8.66699 18.667 -16 30 -22c32.667 -18 67 -21.667 103 -11c30 8.66699 54 25.334 72 50.001c7.33301 10 16 12 26 6l55 -30c5.33301 -2.66699 8.83301 -7 10.5 -13s0.5 -11.667 -3.5 -17
c-15.333 -22.667 -34.166 -42.167 -56.499 -58.5s-47.166 -28.5 -74.499 -36.5c-22 -6.66699 -44.667 -10 -68 -10c-40.667 0 -78.667 9.66699 -114 29c-12.667 7.33301 -24.667 15.5 -36 24.5s-20.833 18 -28.5 27s-14.5 18 -20.5 27s-10.833 17.333 -14.5 25l-9.5 20.5
c-2.66699 6 -4.33398 10.667 -5.00098 14l-1 5c-18.667 64 -12.167 125 19.5 183s79.167 96.333 142.5 115s124.333 12 183 -20c35.333 -19.333 64 -46 86 -80c12.667 -19.333 22.334 -40.333 29.001 -63zM372 320.998c2 0.666992 3.5 2.33398 4.5 5.00098s0.5 5 -1.5 7
c-10 10 -21.333 18.667 -34 26c-20 10.667 -41.667 16 -65 16c-12.667 0 -25.667 -1.66699 -39 -5c-36 -10.667 -63 -32.667 -81 -66c-6 -10.667 -10.333 -22 -13 -34c-0.666992 -4 0.333008 -7.33301 3 -10s6 -3.33398 10 -2.00098z" />
    <glyph glyph-name="edieresis" unicode="&#xeb;" horiz-adv-x="553" 
d="M363.5 537c-14.333 0 -26.5 5.16699 -36.5 15.5s-15 22.666 -15 36.999s5 26.5 15 36.5s22.167 15 36.5 15s26.666 -5 36.999 -15s15.5 -22.167 15.5 -36.5s-5.16699 -26.666 -15.5 -36.999s-22.666 -15.5 -36.999 -15.5zM178 537
c-9.33301 0 -17.999 2.33203 -25.999 6.99902s-14.333 11 -19 19s-7 16.667 -7 26c0 14.667 5 27 15 37s22.167 15 36.5 15s26.666 -5 36.999 -15s15.5 -22.167 15.5 -36.5s-5.16699 -26.666 -15.5 -36.999s-22.5 -15.5 -36.5 -15.5zM506.001 305.999
c3.33301 -10.667 5.99902 -21.3359 7.99902 -32.0029c1.33301 -5.33301 0.5 -10.166 -2.5 -14.499s-7.16699 -7.16602 -12.5 -8.49902l-314 -93c-4 -0.666992 -6.5 -3 -7.5 -7s0.166992 -7.33301 3.5 -10c8.66699 -8.66699 18.667 -16 30 -22c32.667 -18 67 -21.667 103 -11
c30 8.66699 54 25.334 72 50.001c7.33301 10 16 12 26 6l55 -30c5.33301 -2.66699 8.83301 -7 10.5 -13s0.5 -11.667 -3.5 -17c-15.333 -22.667 -34.166 -42.167 -56.499 -58.5s-47.166 -28.5 -74.499 -36.5c-22 -6.66699 -44.667 -10 -68 -10
c-40.667 0 -78.667 9.66699 -114 29c-12.667 7.33301 -24.667 15.5 -36 24.5s-20.833 18 -28.5 27s-14.5 18 -20.5 27s-10.833 17.333 -14.5 25l-9.5 20.5c-2.66699 6 -4.33398 10.667 -5.00098 14l-1 5c-18.667 64 -12.334 125 18.999 183c32 58 79.667 96.333 143 115
s124.333 12 183 -20c35.333 -19.333 64 -46 86 -80c12.667 -19.333 22.334 -40.333 29.001 -63zM372 320.997c2 0.666992 3.5 2.33398 4.5 5.00098s0.5 5 -1.5 7c-10 10 -21.333 18.667 -34 26c-20 10.667 -41.667 16 -65 16c-12.667 0 -25.667 -1.66699 -39 -5
c-36 -10.667 -63 -32.667 -81 -66c-6 -10.667 -10.333 -22 -13 -34c-0.666992 -4 0.333008 -7.33301 3 -10s6 -3.33398 10 -2.00098z" />
    <glyph glyph-name="igrave" unicode="&#xec;" horiz-adv-x="228" 
d="M121 529c-2.66699 0 -5.49902 0.5 -8.49902 1.5s-5.83301 2.16699 -8.5 3.5s-5.16699 3.16602 -7.5 5.49902s-4.16602 4.83301 -5.49902 7.5l-43 81c-2.66699 4.66699 -2.83398 8.83398 -0.500977 12.501s6.16602 5.5 11.499 5.5h31c3.33301 0 6.83301 -1 10.5 -3
s7 -4.33301 10 -7s5.16699 -6 6.5 -10l26 -78c2 -5.33301 1.66699 -9.83301 -1 -13.5s-6.66699 -5.5 -12 -5.5h-9zM162.001 474c5.33301 0 10 -2 14 -6s6 -8.66699 6 -14v-430c0 -6 -2 -11 -6 -15s-8.66699 -6 -14 -6h-63c-5.33301 0 -10 2 -14 6s-6 9 -6 15v430
c0 5.33301 2 10 6 14s8.66699 6 14 6h63z" />
    <glyph glyph-name="iacute" unicode="&#xed;" horiz-adv-x="233" 
d="M131 474c2.66699 0 5.33203 -0.5 7.99902 -1.5s4.83398 -2.5 6.50098 -4.5s3 -4.16699 4 -6.5s1.5 -4.83301 1.5 -7.5v-430c0 -6 -2 -11 -6 -15s-8.66699 -6 -14 -6h-63c-5.33301 0 -10 2 -14 6s-6 9 -6 15v430c0 5.33301 2 10 6 14s8.66699 6 14 6h63zM170.998 646
c6 0 10 -1.83301 12 -5.5s1.66699 -7.83398 -1 -12.501l-43 -81c-2.66699 -5.33301 -6.83398 -9.66602 -12.501 -12.999s-11.5 -5 -17.5 -5h-8c-3.33301 0 -6 0.5 -8 1.5s-3.66699 2.33301 -5 4s-2.16602 3.66699 -2.49902 6s0.166992 4.83301 1.5 7.5l26 78
c1.33301 4 3.5 7.33301 6.5 10s6.33301 5 10 7s7.16699 3 10.5 3h31z" />
    <glyph glyph-name="icircumflex" unicode="&#xee;" horiz-adv-x="306" 
d="M184 474c2.66699 0 5.33203 -0.499023 7.99902 -1.49902s4.83398 -2.5 6.50098 -4.5s3.16699 -4.16699 4.5 -6.5s2 -4.83301 2 -7.5v-430c0 -6 -2 -11 -6 -15s-9 -6 -15 -6h-62c-6 0 -11 2 -15 6s-6 9 -6 15v430c0 3.33301 1 6.66602 3 9.99902s4.5 5.83301 7.5 7.5
s6.5 2.5 10.5 2.5h62zM262.998 544.001c3.33301 -4.66699 4.16797 -8.5 2.50098 -11.5s-5.5 -4.5 -11.5 -4.5h-43c-13.333 0 -24 5.33301 -32 16l-14 20c-2 3.33301 -4.5 5.5 -7.5 6.5s-6 1 -9 0s-5.5 -3.16699 -7.5 -6.5l-14 -20c-8 -10.667 -19 -16 -33 -16h-42
c-6 0 -9.83301 1.5 -11.5 4.5s-0.833984 6.83301 2.49902 11.5l98 137c3.33301 4.66699 7.33301 7 12 7s8.66699 -2.33301 12 -7z" />
    <glyph glyph-name="idieresis" unicode="&#xef;" horiz-adv-x="380" 
d="M97.5 641c14.333 0 26.5 -5 36.5 -15s15 -22.167 15 -36.5s-5 -26.666 -15 -36.999s-22.167 -15.5 -36.5 -15.5s-26.666 5.16699 -36.999 15.5s-15.5 22.666 -15.5 36.999s5.16699 26.5 15.5 36.5s22.666 15 36.999 15zM283.5 641c14.333 0 26.5 -5 36.5 -15
s15 -22.167 15 -36.5s-5 -26.666 -15 -36.999s-22.167 -15.5 -36.5 -15.5s-26.666 5.16699 -36.999 15.5s-15.5 22.666 -15.5 36.999s5.16699 26.5 15.5 36.5s22.666 15 36.999 15zM221 474c6 0 11 -1.99902 15 -5.99902s6 -8.66699 6 -14v-430c0 -6 -2 -11 -6 -15
s-9 -6 -15 -6h-62c-5.33301 0 -10 2 -14 6s-6 9 -6 15v430c0 3.33301 0.833008 6.66602 2.5 9.99902s4 5.83301 7 7.5s6.5 2.5 10.5 2.5h62z" />
    <glyph glyph-name="eth" unicode="&#xf0;" horiz-adv-x="554" 
d="M516 235c0 -1.33301 -0.166016 -3.50098 -0.499023 -6.50098s-0.5 -5.16699 -0.5 -6.5v-2.5v-1.5h-1c-4.66699 -64.667 -31.167 -118.667 -79.5 -162s-105.166 -63.333 -170.499 -60c-60.667 3.33301 -112.834 27.166 -156.501 71.499s-66.834 96.833 -69.501 157.5
c-2.66699 68 19.5 126.5 66.5 175.5s104.5 73.5 172.5 73.5c18 0 37.667 -2.66699 59 -8c-18.667 28.667 -41 55 -67 79c-8.66699 8 -18.334 8.33301 -29.001 1l-56 -43c-5.33301 -3.33301 -11 -4.66602 -17 -3.99902s-11 3.66699 -15 9l-14 18
c-3.33301 5.33301 -4.66602 11 -3.99902 17s3.66699 11 9 15l28 21c6.66699 4.66699 9.66699 11 9 19s-4.66699 14 -12 18c-22.667 12.667 -45 22.334 -67 29.001l-6 2c-4 1.33301 -7.33301 3.5 -10 6.5s-4.33398 6.33301 -5.00098 10s-0.333984 7.5 0.999023 11.5l18 56
c2 6 5.66699 10.333 11 13s11 3.33398 17 2.00098l6 -2c50 -16.667 96.667 -39.667 140 -69c8.66699 -6 17.334 -6 26.001 0l35 27c4.66699 3.33301 10 4.5 16 3.5s11 -3.83301 15 -8.5l14 -19c4 -4.66699 5.5 -10 4.5 -16s-3.83301 -11 -8.5 -15l-15 -11
c-5.33301 -4 -8.16602 -9.33301 -8.49902 -16s1.83398 -12.334 6.50098 -17.001c85.333 -88 135.666 -192.667 150.999 -314c4.66699 -19.333 7 -37.333 7 -54zM277.001 98.999c34.667 0 64.833 11.832 90.5 35.499s40.167 52.834 43.5 87.501c0 11.333 -1 27.333 -3 48
c-8 29.333 -24.167 53.5 -48.5 72.5s-51.833 28.5 -82.5 28.5c-37.333 0 -69.333 -13.333 -96 -40s-40 -58.667 -40 -96s13.333 -69.333 40 -96s58.667 -40 96 -40z" />
    <glyph glyph-name="ntilde" unicode="&#xf1;" horiz-adv-x="489" 
d="M269 479c52 -6.66699 95.1729 -30.501 129.506 -71.501s51.5 -88.167 51.5 -141.5v-238c0 -6.66699 -2.33301 -12.5 -7 -17.5s-10.334 -7.5 -17.001 -7.5h-55c-6.66699 0 -12.334 2.5 -17.001 7.5s-7 10.833 -7 17.5v241c0 27.333 -8.83301 51.5 -26.5 72.5
s-39.834 32.5 -66.501 34.5c-30 3.33301 -56.333 -5.33398 -79 -26.001s-34 -46 -34 -76v-246c0 -6.66699 -2.33301 -12.5 -7 -17.5s-10.334 -7.5 -17.001 -7.5h-55c-6.66699 0 -12.334 2.5 -17.001 7.5s-7 10.833 -7 17.5v421c0 6.66699 2.5 12.5 7.5 17.5
s10.833 7.5 17.5 7.5h30c8.66699 0 16.667 -2.16699 24 -6.5s13.166 -10.166 17.499 -17.499s6.5 -15.333 6.5 -24c14 14.667 32.667 27.834 56 39.501s47.333 16.167 72 13.5zM120.006 556.999l-19 13.999c-5.33301 4 -8.33301 9.33301 -9 16s1.33301 12.334 6 17.001
c28 29.333 58.667 44 92 44c26 0 50.333 -9 73 -27l8 -7c22 -16.667 45 -14.667 69 6c9.33301 8 18.666 8 27.999 0l19 -15c5.33301 -4 8 -9.5 8 -16.5s-2.33301 -12.833 -7 -17.5c-26 -24.667 -54.667 -37 -86 -37c-25.333 0 -49.666 9 -72.999 27
c-2.66699 2 -5.66699 4.66699 -9 8c-10 7.33301 -20 11 -30 11c-13.333 0 -27 -7 -41 -21c-9.33301 -9.33301 -19 -10 -29 -2z" />
    <glyph glyph-name="ograve" unicode="&#xf2;" horiz-adv-x="554" 
d="M268 547l-42.999 81c-2.66699 4.66699 -3 8.83398 -1 12.501s6 5.5 12 5.5h31c5.33301 0 10.666 -2 15.999 -6s9 -8.66699 11 -14l26 -78c1.33301 -2.66699 1.83301 -5.16699 1.5 -7.5s-1.16602 -4.33301 -2.49902 -6s-3 -3 -5 -4s-4.66699 -1.5 -8 -1.5h-8
c-6 0 -11.833 1.66699 -17.5 5s-9.83398 7.66602 -12.501 12.999zM277.001 474c66 0 122.333 -23.333 169 -70s70 -103 70 -169s-23.333 -122.333 -70 -169s-103 -70 -169 -70s-122.333 23.333 -169 70s-70 103 -70 169s23.333 122.333 70 169s103 70 169 70zM277.001 99
c24.667 0 47.334 6.16699 68.001 18.5s37.167 28.833 49.5 49.5s18.5 43.334 18.5 68.001c0 37.333 -13.333 69.333 -40 96s-58.667 40 -96 40c-24.667 0 -47.334 -6.16699 -68.001 -18.5s-37.167 -28.833 -49.5 -49.5s-18.5 -43.334 -18.5 -68.001
c0 -37.333 13.333 -69.333 40 -96s58.667 -40 96 -40z" />
    <glyph glyph-name="oacute" unicode="&#xf3;" 
d="M277 474c43.333 0 83.333 -10.667 120 -32s65.667 -50.333 87 -87s32 -76.667 32 -120c0 -66 -23.333 -122.333 -70 -169s-103 -70 -169 -70c-43.333 0 -83.333 10.667 -120 32s-65.667 50.333 -87 87s-32 76.667 -32 120c0 66 23.333 122.333 70 169s103 70 169 70z
M277 99c37.333 0 69.334 13.332 96.001 39.999s40 58.667 40 96c0 18.667 -3.66699 36.334 -11 53.001s-17 31 -29 43s-26.333 21.667 -43 29s-34.334 11 -53.001 11c-37.333 0 -69.333 -13.333 -96 -40s-40 -58.667 -40 -96s13.333 -69.333 40 -96s58.667 -40 96 -40z
M247.001 528.999c-2.66699 0 -4.99805 0.501953 -6.99805 1.50195s-3.66699 2.33301 -5 4s-2.16602 3.66699 -2.49902 6s0.166992 4.83301 1.5 7.5l26 78c2 5.33301 5.66699 10 11 14s10.666 6 15.999 6h31c5.33301 0 9.16602 -1.83301 11.499 -5.5
s2.16602 -7.83398 -0.500977 -12.501l-43 -81c-2 -3.33301 -4.5 -6.33301 -7.5 -9s-6.5 -4.83398 -10.5 -6.50098s-8 -2.5 -12 -2.5h-9z" />
    <glyph glyph-name="ocircumflex" unicode="&#xf4;" 
d="M175 528c-5.33301 0 -8.83105 1.5 -10.498 4.5s-0.833984 6.83301 2.49902 11.5l98 137c3.33301 4.66699 7.33301 7 12 7s8.66699 -2.33301 12 -7l97 -137c3.33301 -4.66699 4.16602 -8.5 2.49902 -11.5s-5.16699 -4.5 -10.5 -4.5h-43c-13.333 0 -24 5.33301 -32 16
l-14 20c-3.33301 4.66699 -7.33301 7 -12 7s-8.66699 -2.33301 -12 -7l-14 -20c-8 -10.667 -19 -16 -33 -16h-43zM277.002 474c66 0 122.333 -23.333 169 -70s70 -103 70 -169s-23.333 -122.333 -70 -169s-103 -70 -169 -70c-43.333 0 -83.333 10.667 -120 32
s-65.667 50.333 -87 87s-32 76.667 -32 120c0 66 23.333 122.333 70 169s103 70 169 70zM277.002 99c37.333 0 69.334 13.332 96.001 39.999s40 58.667 40 96c0 24.667 -6.16699 47.334 -18.5 68.001s-28.833 37.167 -49.5 49.5s-43.334 18.5 -68.001 18.5
c-37.333 0 -69.333 -13.333 -96 -40s-40 -58.667 -40 -96s13.333 -69.333 40 -96s58.667 -40 96 -40z" />
    <glyph glyph-name="otilde" unicode="&#xf5;" 
d="M277 474c66 0 122.333 -23.333 169 -70s70 -103 70 -169s-23.333 -122.333 -70 -169s-103 -70 -169 -70c-43.333 0 -83.333 10.667 -120 32s-65.667 50.333 -87 87s-32 76.667 -32 120c0 66 23.333 122.333 70 169s103 70 169 70zM277 99
c37.333 0 69.334 13.332 96.001 39.999s40 58.667 40 96c0 24.667 -6.16699 47.334 -18.5 68.001s-28.833 37.167 -49.5 49.5s-43.334 18.5 -68.001 18.5c-37.333 0 -69.333 -13.333 -96 -40s-40 -58.667 -40 -96s13.333 -69.333 40 -96s58.667 -40 96 -40zM154.001 555.999
l-21.0029 16.001c-5.33301 4 -8.16602 9 -8.49902 15s1.5 11 5.5 15c28 30.667 59 46 93 46c26 0 50.333 -9 73 -27l8 -7c22.667 -17.333 46 -15 70 7c8.66699 7.33301 17.334 7.33301 26.001 0l22 -17c4.66699 -4 7.16699 -9 7.5 -15s-1.5 -11 -5.5 -15
c-27.333 -26.667 -56.666 -40 -87.999 -40c-26 0 -50.667 9 -74 27c-2.66699 2 -5.66699 4.66699 -9 8c-10 7.33301 -20 11 -30 11c-14 0 -28 -7.33301 -42 -22c-8 -8.66699 -17 -9.33398 -27 -2.00098z" />
    <glyph glyph-name="odieresis" unicode="&#xf6;" 
d="M183.5 537c-14.333 0 -26.5 5.16699 -36.5 15.5s-15 22.666 -15 36.999s5 26.5 15 36.5s22.167 15 36.5 15s26.666 -5 36.999 -15s15.5 -22.167 15.5 -36.5s-5.16699 -26.666 -15.5 -36.999s-22.666 -15.5 -36.999 -15.5zM370 537
c-9.33301 0 -17.999 2.33203 -25.999 6.99902s-14.333 11 -19 19s-7 16.667 -7 26c0 14.667 5.16699 27 15.5 37s22.666 15 36.999 15s26.5 -5 36.5 -15s15 -22.167 15 -36.5s-5 -26.666 -15 -36.999s-22.333 -15.5 -37 -15.5zM277.001 473.999
c66 0 122.333 -23.333 169 -70s70 -103 70 -169s-23.333 -122.333 -70 -169s-103 -70 -169 -70c-43.333 0 -83.333 10.667 -120 32s-65.667 50.333 -87 87s-32 76.667 -32 120c0 66 23.333 122.333 70 169s103 70 169 70zM277.001 98.999c37.333 0 69.333 13.333 96 40
s40 58.667 40 96s-13.333 69.333 -40 96s-58.667 40 -96 40s-69.333 -13.333 -96 -40s-40 -58.667 -40 -96s13.333 -69.333 40 -96s58.667 -40 96 -40z" />
    <glyph glyph-name="divide" unicode="&#xf7;" horiz-adv-x="515" 
d="M443 405c5.33301 0 10 -2 14 -6s6 -8.66699 6 -14v-63c0 -5.33301 -2 -10 -6 -14s-8.66699 -6 -14 -6h-373c-5.33301 0 -10 2 -14 6s-6 8.66699 -6 14v63c0 5.33301 2 10 6 14s8.66699 6 14 6h373zM256.5 457c-16.333 0 -30.333 5.83301 -42 17.5s-17.5 25.667 -17.5 42
s5.83301 30.333 17.5 42s25.667 17.5 42 17.5s30.333 -5.83301 42 -17.5s17.5 -25.667 17.5 -42s-5.83301 -30.333 -17.5 -42s-25.667 -17.5 -42 -17.5zM256.5 250c16.333 0 30.333 -5.83301 42 -17.5s17.5 -25.667 17.5 -42s-5.83301 -30.333 -17.5 -42
s-25.667 -17.5 -42 -17.5s-30.333 5.83301 -42 17.5s-17.5 25.667 -17.5 42s5.83301 30.333 17.5 42s25.667 17.5 42 17.5z" />
    <glyph glyph-name="oslash" unicode="&#xf8;" 
d="M277 474c43.333 0 83.333 -10.667 120 -32s65.667 -50.333 87 -87s32 -76.667 32 -120c0 -66 -23.333 -122.333 -70 -169s-103 -70 -169 -70c-43.333 0 -83.333 10.667 -120 32s-65.667 50.333 -87 87s-32 76.667 -32 120c0 66 23.333 122.333 70 169s103 70 169 70z
M145 204c2 -5.33301 5.00098 -8.50195 9.00098 -9.50195s8 0.166992 12 3.5l150 148c4 4 5.5 8 4.5 12s-4.16699 6.66699 -9.5 8c-10 3.33301 -21.333 5 -34 5c-37.333 0 -69.333 -13.333 -96 -40s-40 -58.667 -40 -96c0 -3.33301 0.166992 -6.66602 0.5 -9.99902
s0.666016 -6.16602 0.999023 -8.49902s0.833008 -4.5 1.5 -6.5s1 -3.66699 1 -5v-1zM277.001 98.998c37.333 0 69.334 13.334 96.001 40.001s40 58.667 40 96c0 5.33301 -0.333008 10.666 -1 15.999s-1.33398 9.33301 -2.00098 12l-1 4c-2 5.33301 -5 8.5 -9 9.5
s-8 -0.5 -12 -4.5l-150 -147c-4 -4 -5.5 -8 -4.5 -12s4.16699 -7 9.5 -9c10 -3.33301 21.333 -5 34 -5z" />
    <glyph glyph-name="ugrave" unicode="&#xf9;" horiz-adv-x="489" 
d="M235 547l-42.9961 80.998c-2.66699 4.66699 -2.83398 8.83398 -0.500977 12.501s6.16602 5.5 11.499 5.5h31c5.33301 0 10.666 -2 15.999 -6s9 -8.66699 11 -14l27 -78c1.33301 -5.33301 0.666016 -9.83301 -2.00098 -13.5s-6.66699 -5.5 -12 -5.5h-9
c-3.33301 0 -7 0.833008 -11 2.5s-7.66699 3.83398 -11 6.50098s-6 5.66699 -8 9zM426.004 467.998c4.66699 0 8.82812 -1.00098 12.4951 -3.00098s6.5 -4.83301 8.5 -8.5s3.33301 -7.83398 4 -12.501v-418c0 -6.66699 -2.5 -12.334 -7.5 -17.001s-10.833 -7 -17.5 -7h-34
c-12 0 -22.5 4.33301 -31.5 13s-13.5 19.334 -13.5 32.001c-5.33301 -14 -22.166 -26.5 -50.499 -37.5s-54.166 -14.833 -77.499 -11.5c-52 6.66699 -95.167 30.334 -129.5 71.001s-51.5 87.667 -51.5 141v238c0 6.66699 2.33301 12.5 7 17.5s10.667 7.5 18 7.5h54
c6.66699 0 12.334 -2.5 17.001 -7.5s7 -10.833 7 -17.5v-246c0 -30 11.333 -55.333 34 -76s49 -29.334 79 -26.001c26.667 2.66699 48.834 14.334 66.501 35.001s26.5 44.667 26.5 72v237c0 4.66699 1.16699 8.83398 3.5 12.501s5.33301 6.5 9 8.5s7.83398 3 12.501 3h54z
" />
    <glyph glyph-name="uacute" unicode="&#xfa;" horiz-adv-x="489" 
d="M215 529c-6 0 -10.334 1.83496 -13.001 5.50195s-3 8.16699 -1 13.5l27 78c0.666992 4 2.5 7.33301 5.5 10s6.33301 5 10 7s7.5 3 11.5 3h30c6 0 10 -1.83301 12 -5.5s1.66699 -7.83398 -1 -12.501l-43 -81c-1.33301 -3.33301 -3.66602 -6.33301 -6.99902 -9
s-7 -4.83398 -11 -6.50098s-8 -2.5 -12 -2.5h-8zM425.999 468.002c6.66699 0 12.3291 -2.33301 16.9961 -7s7 -10.334 7 -17.001v-418c0 -6.66699 -2.33301 -12.334 -7 -17.001s-10.334 -7 -17.001 -7h-34c-8 0 -15.5 2 -22.5 6s-12.5 9.5 -16.5 16.5s-6 14.5 -6 22.5
c-5.33301 -14 -22.166 -26.5 -50.499 -37.5s-54.166 -14.833 -77.499 -11.5c-52 6.66699 -95.167 30.334 -129.5 71.001s-51.5 87.667 -51.5 141v238c0 6.66699 2.33301 12.5 7 17.5s10.334 7.5 17.001 7.5h55c6.66699 0 12.334 -2.5 17.001 -7.5s7 -10.833 7 -17.5v-246
c0 -30 11.333 -55.333 34 -76s49 -29.334 79 -26.001c26.667 2.66699 48.834 14.334 66.501 35.001s26.5 44.667 26.5 72v237c0 6.66699 2.5 12.334 7.5 17.001s10.833 7 17.5 7h54z" />
    <glyph glyph-name="ucircumflex" unicode="&#xfb;" horiz-adv-x="489" 
d="M143 528c-5.33301 0 -8.83105 1.5 -10.498 4.5s-0.833984 6.83301 2.49902 11.5l97 137c3.33301 4.66699 7.33301 7 12 7s8.66699 -2.33301 12 -7l98 -137c3.33301 -4.66699 4.16602 -8.5 2.49902 -11.5s-5.16699 -4.5 -10.5 -4.5h-43c-14 0 -24.667 5.33301 -32 16
l-15 20c-3.33301 4.66699 -7.33301 7 -12 7s-8.66699 -2.33301 -12 -7l-14 -20c-8 -10.667 -18.667 -16 -32 -16h-43zM426.002 468c6.66699 0 12.3301 -2.33301 16.9971 -7s7 -10.334 7 -17.001v-418c0 -6.66699 -2.33301 -12.334 -7 -17.001s-10.334 -7 -17.001 -7h-34
c-8 0 -15.5 2 -22.5 6s-12.5 9.5 -16.5 16.5s-6 14.5 -6 22.5c-5.33301 -14 -22.166 -26.5 -50.499 -37.5s-54.166 -14.833 -77.499 -11.5c-52 6.66699 -95.167 30.334 -129.5 71.001s-51.5 87.667 -51.5 141v238c0 6.66699 2.33301 12.5 7 17.5s10.667 7.5 18 7.5h54
c6.66699 0 12.334 -2.5 17.001 -7.5s7 -10.833 7 -17.5v-246c0 -30 11.333 -55.333 34 -76s49.334 -29.334 80.001 -26.001c26 2.66699 47.833 14.334 65.5 35.001s26.5 44.667 26.5 72v237c0 6.66699 2.5 12.334 7.5 17.001s10.833 7 17.5 7h54z" />
    <glyph glyph-name="udieresis" unicode="&#xfc;" horiz-adv-x="489" 
d="M337.5 537c-14.333 0 -26.666 5.16699 -36.999 15.5s-15.5 22.666 -15.5 36.999s5.16699 26.5 15.5 36.5s22.666 15 36.999 15s26.5 -5 36.5 -15s15 -22.167 15 -36.5s-5 -26.666 -15 -36.999s-22.167 -15.5 -36.5 -15.5zM151.5 537
c-14.333 0 -26.666 5.16699 -36.999 15.5s-15.5 22.666 -15.5 36.999s5.16699 26.5 15.5 36.5s22.666 15 36.999 15s26.5 -5 36.5 -15s15 -22.167 15 -36.5s-5 -26.666 -15 -36.999s-22.167 -15.5 -36.5 -15.5zM426 468c6.66699 0 12.3281 -2.33301 16.9951 -7
s7 -10.334 7 -17.001v-418c0 -6.66699 -2.33301 -12.334 -7 -17.001s-10.334 -7 -17.001 -7h-34c-8 0 -15.5 2 -22.5 6s-12.5 9.5 -16.5 16.5s-6 14.5 -6 22.5c-5.33301 -14 -22.166 -26.5 -50.499 -37.5s-54.166 -14.833 -77.499 -11.5
c-52 6.66699 -95.167 30.334 -129.5 71.001s-51.5 87.667 -51.5 141v238c0 6.66699 2.33301 12.5 7 17.5s10.334 7.5 17.001 7.5h55c6.66699 0 12.334 -2.5 17.001 -7.5s7 -10.833 7 -17.5v-246c0 -30 11.333 -55.333 34 -76s49 -29.334 79 -26.001
c26.667 2.66699 48.834 14.334 66.501 35.001s26.5 44.667 26.5 72v237c0 4.66699 1.16699 8.83398 3.5 12.501s5.33301 6.5 9 8.5s7.83398 3 12.501 3h54z" />
    <glyph glyph-name="yacute" unicode="&#xfd;" horiz-adv-x="543" 
d="M250 527h-7.99902h-20l6 20l27 78c2 5.33301 5.5 9.83301 10.5 13.5s10.5 5.5 16.5 5.5h30c6 0 10 -1.66699 12 -5s1.66699 -7.66602 -1 -12.999l-43 -81c-2.66699 -4.66699 -6.83398 -8.83398 -12.501 -12.501s-11.5 -5.5 -17.5 -5.5zM494.001 473
c4.66699 0 8.00098 -1.83398 10.001 -5.50098s2.33301 -7.5 1 -11.5l-310 -638l-9 -18c-2 -4 -4 -8.66699 -6 -14c-4.66699 -8.66699 -13.667 -13 -27 -13h-74c-6 0 -10 1.83301 -12 5.5s-2 7.83398 0 12.501l139 286c6 12 6 24.333 0 37l-168 340
c-2.66699 5.33301 -2.83398 9.83301 -0.500977 13.5s6.16602 5.5 11.499 5.5h75c5.33301 0 10.833 -1.83301 16.5 -5.5s9.83398 -8.16699 12.501 -13.5l110 -223c2.66699 -4.66699 5.66699 -7 9 -7s6.33301 2.66699 9 8l114 234c2 4.66699 5.33301 7 10 7h89z" />
    <glyph glyph-name="thorn" unicode="&#xfe;" 
d="M277 474c67.333 0 124.501 -24.332 171.501 -72.999s69.5 -107 67.5 -175c-2 -61.333 -25.5 -114.333 -70.5 -159s-98.5 -68.334 -160.5 -71.001c-52 -1.33301 -100 13 -144 43v-244c0 -6 -2.16699 -11.167 -6.5 -15.5s-9.5 -6.5 -15.5 -6.5h-59
c-6 0 -11.167 2.16699 -15.5 6.5s-6.5 9.5 -6.5 15.5v886c0 4 1 7.66699 3 11s4.66699 6 8 8s7 3 11 3h59c6 0 11.167 -2.16699 15.5 -6.5s6.5 -9.5 6.5 -15.5v-249c41.333 28 86.666 42 135.999 42zM277.001 99.001c24.667 0 47.335 6.16602 68.002 18.499
s37.167 28.833 49.5 49.5s18.5 43.334 18.5 68.001s-6.16699 47.334 -18.5 68.001s-28.833 37.167 -49.5 49.5s-43.334 18.5 -68.001 18.5s-47.334 -6.16699 -68.001 -18.5s-37.167 -28.833 -49.5 -49.5s-18.5 -43.334 -18.5 -68.001c0 -37.333 13.333 -69.333 40 -96
s58.667 -40 96 -40z" />
    <glyph glyph-name="ydieresis" unicode="&#xff;" horiz-adv-x="543" 
d="M366 537c-9.33301 0 -17.999 2.33203 -25.999 6.99902s-14.333 11 -19 19s-7 16.667 -7 26c0 14.667 5.16699 27 15.5 37s22.666 15 36.999 15s26.5 -5 36.5 -15s15 -22.167 15 -36.5s-5 -26.666 -15 -36.999s-22.333 -15.5 -37 -15.5zM180.001 536.999
c-14.667 0 -27 5.16699 -37 15.5s-15 22.666 -15 36.999s5 26.5 15 36.5s22.333 15 37 15s27 -5 37 -15s15 -22.167 15 -36.5s-5 -26.666 -15 -36.999s-22.333 -15.5 -37 -15.5zM493.001 472.999c5.33301 0 9.16895 -1.83301 11.502 -5.5s2.5 -8.16699 0.5 -13.5l-223 -458
l-9 -18c-2.66699 -6 -5.33398 -12.333 -8.00098 -19l-82 -168c-2.66699 -4.66699 -6.83398 -8.83398 -12.501 -12.501s-11.167 -5.5 -16.5 -5.5h-74c-6 0 -10 1.83301 -12 5.5s-2 7.83398 0 12.501l17 36l9 18l9 18l104 214c6 12 6 24.333 0 37l-168 340
c-2.66699 5.33301 -2.83398 9.83301 -0.500977 13.5s6.16602 5.5 11.499 5.5h75c5.33301 0 10.833 -1.83301 16.5 -5.5s9.83398 -8.16699 12.501 -13.5l110 -223c2 -4.66699 4.83301 -7 8.5 -7s6.83398 2.66699 9.50098 8l108 222l9 19h94z" />
    <glyph glyph-name="dotlessi" unicode="&#x131;" horiz-adv-x="179" 
d="M121 469c2.66699 0 5.33203 -0.665039 7.99902 -1.99805s4.83398 -2.83301 6.50098 -4.5s3 -3.83398 4 -6.50098s1.5 -5.33398 1.5 -8.00098v-430c0 -5.33301 -2 -10 -6 -14s-8.66699 -6 -14 -6h-63c-5.33301 0 -10 2 -14 6s-6 8.66699 -6 14v430c0 6 2 11 6 15
s8.66699 6 14 6h63z" />
    <glyph glyph-name="Lslash" unicode="&#x141;" horiz-adv-x="548" 
d="M477 99c6 0 11 -1.99902 15 -5.99902s6 -8.66699 6 -14v-62c0 -6 -2 -11 -6 -15s-9 -6 -15 -6h-351c-5.33301 0 -10 2 -14 6s-6 9 -6 15v268c0 6 -1.83301 10.167 -5.5 12.5s-7.83398 2.16602 -12.501 -0.500977l-20 -9
c-4.66699 -2.66699 -8.83398 -2.83398 -12.501 -0.500977s-5.5 6.16602 -5.5 11.499v16c0 6 1.83301 11.833 5.5 17.5s7.83398 9.5 12.501 11.5l20 9c4.66699 2.66699 8.83398 6.83398 12.501 12.501s5.5 11.5 5.5 17.5v301c0 5.33301 2 10 6 14s8.66699 6 14 6h63
c5.33301 0 10 -2 14 -6s6 -8.66699 6 -14v-252c0 -6 1.83301 -10 5.5 -12s8.16699 -2 13.5 0l23 11c5.33301 2.66699 9.83301 2.83398 13.5 0.500977s5.5 -6.16602 5.5 -11.499v-16c0 -5.33301 -1.83301 -11 -5.5 -17s-8.16699 -10 -13.5 -12l-23 -11
c-5.33301 -2.66699 -9.83301 -6.83398 -13.5 -12.501s-5.5 -11.167 -5.5 -16.5v-215c0 -6 2 -11 6 -15s9 -6 15 -6h247z" />
    <glyph glyph-name="lslash" unicode="&#x142;" horiz-adv-x="331" 
d="M303 409c2 -5.33301 2.16602 -10.668 0.499023 -16.001s-5.16699 -9 -10.5 -11l-58 -28c-5.33301 -2.66699 -9.83301 -6.83398 -13.5 -12.501s-5.5 -11.167 -5.5 -16.5v-301c0 -6 -2 -11 -6 -15s-8.66699 -6 -14 -6h-63c-5.33301 0 -10 2 -14 6s-6 9 -6 15v251
c0 5.33301 -1.83301 9.16602 -5.5 11.499s-7.83398 2.5 -12.501 0.5l-29 -14c-5.33301 -2.66699 -10.666 -3 -15.999 -1s-9 5.33301 -11 10l-12 25c-2.66699 4.66699 -3 9.83398 -1 15.501s5.66699 9.5 11 11.5l58 28c4.66699 2.66699 8.83398 6.83398 12.501 12.501
s5.5 11.167 5.5 16.5v328c0 5.33301 2 10 6 14s9 6 15 6h62c5.33301 0 10 -2 14 -6s6 -8.66699 6 -14v-278c0 -5.33301 1.83301 -9.16602 5.5 -11.499s8.16699 -2.5 13.5 -0.5l29 14c4.66699 2.66699 9.66699 3 15 1s9.33301 -5.33301 12 -10z" />
    <glyph glyph-name="OE" unicode="&#x152;" horiz-adv-x="1093" 
d="M785 608c-7.33301 0 -13.501 -2.49707 -18.501 -7.49707s-7.5 -11.167 -7.5 -18.5v-197c0 -7.33301 2.5 -13.5 7.5 -18.5s11.167 -7.5 18.5 -7.5h121c6.66699 0 12.5 -2.5 17.5 -7.5s7.5 -10.833 7.5 -17.5v-52c0 -7.33301 -2.5 -13.5 -7.5 -18.5
s-10.833 -7.5 -17.5 -7.5h-121c-4.66699 0 -9 -1.16699 -13 -3.5s-7.16699 -5.33301 -9.5 -9s-3.5 -7.83398 -3.5 -12.501v-106c0 -6.66699 2.5 -12.5 7.5 -17.5s11.167 -7.5 18.5 -7.5h237c6.66699 0 12.5 -2.5 17.5 -7.5s7.5 -11.167 7.5 -18.5v-52
c0 -7.33301 -2.5 -13.5 -7.5 -18.5s-10.833 -7.5 -17.5 -7.5h-341c-6.66699 0 -12.5 2.5 -17.5 7.5s-7.5 11.167 -7.5 18.5v81c-33.333 -33.333 -71.833 -59.5 -115.5 -78.5s-89.834 -28.5 -138.501 -28.5c-54 0 -104.833 11.5 -152.5 34.5s-87.667 53.333 -120 91
s-56.166 82.5 -71.499 134.5s-18.333 105.333 -9 160c12.667 74.667 46.5 139 101.5 193s120.167 86.667 195.5 98c59.333 9.33301 116 4.66602 170 -14.001s100.667 -48 140 -88v81c0 6.66699 2.5 12.5 7.5 17.5s10.833 7.5 17.5 7.5h341
c4.66699 0 8.83398 -1.16699 12.501 -3.5s6.66699 -5.33301 9 -9s3.5 -7.83398 3.5 -12.501v-52c0 -7.33301 -2.5 -13.5 -7.5 -18.5s-10.833 -7.5 -17.5 -7.5h-237zM653.999 321.003c4.66699 40 0.333008 78.832 -13 116.499s-33.166 69.667 -59.499 96
s-58.333 46.333 -96 60s-76.834 17.834 -117.501 12.501c-56 -7.33301 -104.667 -31.5 -146 -72.5s-65.666 -89.833 -72.999 -146.5c-4.66699 -40.667 -0.333984 -79.834 12.999 -117.501s33.166 -69.667 59.499 -96s58.333 -46.166 96 -59.499s76.834 -17.333 117.501 -12
c56.667 6.66699 105.5 30.667 146.5 72s65.167 90.333 72.5 147z" />
    <glyph glyph-name="oe" unicode="&#x153;" horiz-adv-x="928" 
d="M886 284l2.99902 -11.001c2 -5.33301 1.66699 -10.5 -1 -15.5s-6.66699 -8.16699 -12 -9.5l-313 -92c-5.33301 -1.33301 -8.5 -4 -9.5 -8s0.5 -8 4.5 -12c7.33301 -7.33301 16.333 -14 27 -20c33.333 -18 68 -21.667 104 -11c10.667 3.33301 21.667 9 33 17
s20 15.667 26 23l9 10c4 4 9 6.66699 15 8s11.333 0.666016 16 -2.00098l55 -30c4.66699 -2.66699 7.5 -6.5 8.5 -11.5s-0.166992 -9.83301 -3.5 -14.5l-2.5 -2.5c-1 -1 -3.33301 -3.5 -7 -7.5l-11 -11.5l-13.5 -13.5c-5.33301 -5.33301 -10.833 -10.333 -16.5 -15
l-18.5 -15c-6.66699 -5.33301 -13.167 -10.166 -19.5 -14.499s-13.166 -8.16602 -20.499 -11.499s-14.333 -6 -21 -8c-22 -6.66699 -44.667 -10 -68 -10c-40 0 -78 9.66699 -114 29c-8.66699 4.66699 -18 11 -28 19s-18 15 -24 21l-8 8c-4 4 -8.83301 6.16699 -14.5 6.5
s-10.834 -1.16699 -15.501 -4.5c-2.66699 -2 -6.16699 -4.83301 -10.5 -8.5s-13.333 -10 -27 -19s-27.167 -17 -40.5 -24s-28.666 -13.333 -45.999 -19s-33 -8.5 -47 -8.5c-66 0 -122.333 23.333 -169 70s-70 103 -70 169s23.333 122.333 70 169s103 70 169 70
c22.667 0 48.167 -6.5 76.5 -19.5s51.166 -26.167 68.499 -39.5l26 -19c4.66699 -4 9.83398 -5.83301 15.501 -5.5s10.834 2.5 15.501 6.5c38 36.667 73.333 59.667 106 69c63.333 18.667 124 12 182 -20c36 -19.333 65 -46 87 -80l7 -11.5
c2.66699 -4.33301 4.66699 -8.33301 6 -12s2.66602 -7 3.99902 -10s2.33301 -5.5 3 -7.5l1 -2c4.66699 -12.667 9 -25.667 13 -39zM274.999 98.999c37.333 0 69.334 13.332 96.001 39.999s40 58.667 40 96c0 24.667 -6.16699 47.334 -18.5 68.001s-28.833 37.167 -49.5 49.5
s-43.334 18.5 -68.001 18.5c-37.333 0 -69.333 -13.333 -96 -40s-40 -58.667 -40 -96s13.333 -69.333 40 -96s58.667 -40 96 -40zM738 314.998c5.33301 2 8.50098 5 9.50098 9s-0.5 8 -4.5 12c-7.33301 7.33301 -16.333 14 -27 20c-20.667 10.667 -42.334 16 -65.001 16
c-13.333 0 -26.333 -1.66699 -39 -5c-36 -10.667 -63 -32.667 -81 -66c-2.66699 -4.66699 -5 -9.66699 -7 -15s-3.33301 -9.33301 -4 -12l-1 -4c-1.33301 -5.33301 -0.5 -9.5 2.5 -12.5s7.16699 -3.5 12.5 -1.5z" />
    <glyph glyph-name="Scaron" unicode="&#x160;" horiz-adv-x="553" 
d="M510 233c11.333 -61.333 2 -117.338 -28 -168.005c-20 -34 -46 -61.333 -78 -82s-67.333 -33 -106 -37c-8.66699 -0.666992 -17 -1 -25 -1c-56.667 0 -107.167 18 -151.5 54s-72.5 82 -84.5 138c-1.33301 6 0 11.667 4 17s9.33301 8.33301 16 9l59 6
c4 0.666992 7.66699 0.333984 11 -0.999023s6.16602 -3.33301 8.49902 -6s3.83301 -6 4.5 -10c8 -32.667 26 -59 54 -79s59.333 -28 94 -24c22.667 2.66699 43.5 10.334 62.5 23.001s34.167 29.334 45.5 50.001c12.667 24.667 17.334 52 14.001 82
c-2.66699 18.667 -7.5 34.834 -14.5 48.501s-17.5 25.334 -31.5 35.001s-27.833 17.667 -41.5 24s-32.167 13.5 -55.5 21.5c-28 9.33301 -47.667 17 -59 23c-50.667 26 -85.667 59.167 -105 99.5s-20.666 84.5 -3.99902 132.5c15.333 46 45.166 80.167 89.499 102.5
s91.5 27.166 141.5 14.499c29.333 -7.33301 58.166 -24.833 86.499 -52.5s45.833 -61.834 52.5 -102.501c0.666992 -6.66699 -1.16602 -12.5 -5.49902 -17.5s-9.83301 -7.83301 -16.5 -8.5l-59 -1c-12 0 -19.667 6 -23 18c-3.33301 14 -10.333 26.333 -21 37
s-19.167 17.667 -25.5 21s-10.833 5.33301 -13.5 6c-22.667 5.33301 -44.5 3.83301 -65.5 -4.5s-35.167 -23.5 -42.5 -45.5c-3.33301 -11.333 -5.33301 -22.5 -6 -33.5s4.33301 -23.167 15 -36.5s27 -25.666 49 -36.999c7.33301 -4 22.333 -9.66699 45 -17
c14 -4.66699 25 -8.5 33 -11.5s19.5 -7.83301 34.5 -14.5s27.333 -13.167 37 -19.5s20.834 -14.833 33.501 -25.5s23.167 -21.667 31.5 -33s16.166 -25.166 23.499 -41.499s13 -33.833 17 -52.5zM256 742.995l-79 110c-5.33301 7.33301 -5.83301 15 -1.5 23
s10.833 12 19.5 12h29c8 0 14 -3 18 -9l32 -44l31 44c4.66699 6 10.667 9 18 9h29c9.33301 0 16 -4 20 -12s3.33301 -15.667 -2 -23l-78 -110c-4.66699 -6 -10.667 -9 -18 -9s-13.333 3 -18 9z" />
    <glyph glyph-name="scaron" unicode="&#x161;" horiz-adv-x="446" 
d="M220 487l-100.002 117c-4 4.66699 -4.66699 9.83398 -2 15.501s7.33398 8.5 14.001 8.5h50c4.66699 0 8.33398 -1.66699 11.001 -5l27 -31l26 31c3.33301 3.33301 7 5 11 5h51c6.66699 0 11.167 -2.83301 13.5 -8.5s1.5 -10.834 -2.5 -15.501zM404.998 171
c5.33301 -40.667 -5.66699 -77.668 -33 -111.001c-32.667 -40.667 -77.334 -63.334 -134.001 -68.001c-6 -0.666992 -12.333 -1 -19 -1c-42 0 -79.333 10.667 -112 32s-55 48.666 -67 81.999c-2 8 -1 15.333 3 22s10 10.334 18 11.001l55 7c11.333 2 19.666 -2 24.999 -12
c6.66699 -12.667 18.167 -22.667 34.5 -30s34.166 -10 53.499 -8c28 2 49 12 63 30c8.66699 10 12 21 10 33c-1.33301 12.667 -8 22.167 -20 28.5s-33.667 12.833 -65 19.5c-24.667 5.33301 -42.334 10 -53.001 14c-39.333 16.667 -66.666 41.5 -81.999 74.5
s-15.333 67.167 0 102.5c12.667 31.333 35.834 54.5 69.501 69.5s70.167 18.5 109.5 10.5c21.333 -4.66699 43 -15.334 65 -32.001s36.667 -37.667 44 -63c2.66699 -7.33301 1.5 -14.333 -3.5 -21s-11.5 -10 -19.5 -10l-60 -2c-7.33301 0 -13.666 3.33301 -18.999 10
c-7.33301 8.66699 -16.666 14.334 -27.999 17.001c-10 2 -19.5 2.33301 -28.5 1s-16.5 -3.66602 -22.5 -6.99902s-10 -7.33301 -12 -12c-7.33301 -17.333 1.66699 -31.333 27 -42c4.66699 -2 16.334 -5 35.001 -9c15.333 -3.33301 27.666 -6.16602 36.999 -8.49902
s22.5 -7.16602 39.5 -14.499s30.833 -15.333 41.5 -24s20.667 -20.834 30 -36.501s15.333 -33.167 18 -52.5z" />
    <glyph glyph-name="Ydieresis" unicode="&#x178;" horiz-adv-x="660" 
d="M423.5 786c-14.333 0 -26.666 5.16699 -36.999 15.5s-15.5 22.666 -15.5 36.999s5.16699 26.666 15.5 36.999s22.666 15.5 36.999 15.5s26.666 -5.16699 36.999 -15.5s15.5 -22.666 15.5 -36.999s-5.16699 -26.666 -15.5 -36.999s-22.666 -15.5 -36.999 -15.5zM237.5 786
c-14.333 0 -26.666 5.16699 -36.999 15.5s-15.5 22.666 -15.5 36.999s5.16699 26.666 15.5 36.999s22.666 15.5 36.999 15.5s26.5 -5.16699 36.5 -15.5s15 -22.666 15 -36.999s-5 -26.666 -15 -36.999s-22.167 -15.5 -36.5 -15.5zM610 703
c5.33301 0 9.00195 -1.66699 11.002 -5s1.66699 -7.33301 -1 -12l-227 -375c-7.33301 -12 -11 -24.667 -11 -38v-251c0 -4 -0.833008 -7.5 -2.5 -10.5s-4.16699 -5.33301 -7.5 -7s-6.66602 -2.5 -9.99902 -2.5h-63c-5.33301 0 -10 2 -14 6s-6 8.66699 -6 14v251
c0 13.333 -3.66699 26 -11 38l-227 375c-2.66699 4.66699 -3.83398 8.66699 -3.50098 12s2.16602 5 5.49902 5h88c5.33301 0 11 -1.66699 17 -5s10.667 -7.33301 14 -12l158 -261c2.66699 -4.66699 6.16699 -7 10.5 -7s7.83301 2.33301 10.5 7l158 261
c2.66699 4.66699 7.16699 8.66699 13.5 12s12.166 5 17.499 5h80z" />
    <glyph glyph-name="Zcaron" unicode="&#x17d;" horiz-adv-x="577" 
d="M187 778c-6 0 -9.83105 1.5 -11.498 4.5s-0.833984 6.83301 2.49902 11.5l98 137c3.33301 4.66699 7.33301 7 12 7s8.66699 -2.33301 12 -7l98 -137c3.33301 -4.66699 4.16602 -8.5 2.49902 -11.5s-5.5 -4.5 -11.5 -4.5h-43c-13.333 0 -24 5.33301 -32 16l-14 20
c-3.33301 4.66699 -7.33301 7 -12 7s-8.66699 -2.33301 -12 -7l-14 -20c-8 -10.667 -19 -16 -33 -16h-42zM541.002 686l-329 -564.003c-2.66699 -4.66699 -3 -8.66699 -1 -12s5.66699 -5 11 -5h283c6 0 11 -2 15 -6s6 -9 6 -15v-60c0 -6 -2 -11 -6 -15s-9 -6 -15 -6h-460
c-6 0 -10 1.83301 -12 5.5s-1.66699 7.83398 1 12.501l329 564c2.66699 4.66699 3 8.83398 1 12.501s-5.66699 5.5 -11 5.5h-283c-5.33301 0 -10 2 -14 6s-6 8.66699 -6 14v61c0 5.33301 2 10 6 14s8.66699 6 14 6h461c5.33301 0 9 -1.66699 11 -5
s1.66699 -7.66602 -1 -12.999z" />
    <glyph glyph-name="zcaron" unicode="&#x17e;" horiz-adv-x="475" 
d="M398 104c7.33301 0 13.332 -2.5 17.999 -7.5s7 -10.833 7 -17.5v-50c0 -6.66699 -2.33301 -12.5 -7 -17.5s-10.667 -7.5 -18 -7.5h-315c-10 0 -17.333 4.33301 -22 13s-4.66699 17 0 25l199 325h-185c-6.66699 0 -12.5 2.5 -17.5 7.5s-7.5 10.833 -7.5 17.5v50
c0 7.33301 2.5 13.333 7.5 18s10.833 7 17.5 7h322c10 0 17.333 -4.16699 22 -12.5s4.33398 -16.833 -0.999023 -25.5l-176 -287c-4.66699 -8.66699 -4.66699 -17.167 0 -25.5s12 -12.5 22 -12.5h134zM236.999 487l-100.002 117c-4 4.66699 -4.66699 9.83398 -2 15.501
s7 8.5 13 8.5h51c4.66699 0 8.33398 -1.66699 11.001 -5l27 -31l26 31c2.66699 3.33301 6.33398 5 11.001 5h51c6 0 10.333 -2.83301 13 -8.5s2 -10.834 -2 -15.501z" />
    <glyph glyph-name="circumflex" unicode="&#x2c6;" horiz-adv-x="306" 
d="M263 565c3.33301 -4.66699 4.16797 -8.66699 2.50098 -12s-5.5 -5 -11.5 -5h-43c-13.333 0 -24 5.66699 -32 17l-14 20c-3.33301 4.66699 -7.33301 7 -12 7s-8.66699 -2.33301 -12 -7l-14 -20c-8 -11.333 -19 -17 -33 -17h-42c-6 0 -9.83301 1.66699 -11.5 5
s-0.833984 7.33301 2.49902 12l98 136c3.33301 4.66699 7.33301 7 12 7s8.66699 -2.33301 12 -7z" />
    <glyph glyph-name="caron" unicode="&#x2c7;" horiz-adv-x="306" 
d="M254 704c6 0 9.83105 -1.66699 11.498 -5s0.833984 -7 -2.49902 -11l-98 -137c-3.33301 -4.66699 -7.33301 -7 -12 -7s-8.66699 2.33301 -12 7l-98 137c-3.33301 4 -4.16602 7.66699 -2.49902 11s5.5 5 11.5 5h42c14 0 25 -5.33301 33 -16l14 -20
c3.33301 -4.66699 7.33301 -7 12 -7s8.66699 2.33301 12 7l14 20c8 10.667 18.667 16 32 16h43z" />
    <glyph glyph-name="ilde" unicode="&#x2dc;" horiz-adv-x="394" 
d="M341 674c4.66699 -3.33301 7.16699 -8.16699 7.5 -14.5s-1.5 -11.5 -5.5 -15.5c-26.667 -26.667 -56 -40 -88 -40c-26 0 -50.333 9 -73 27c-2 2 -5 4.66699 -9 8c-10 7.33301 -20 11 -30 11c-14 0 -28 -7 -42 -21c-8.66699 -9.33301 -17.667 -10.333 -27 -3l-22 16
c-4.66699 4 -7.33398 9 -8.00098 15s1 11.333 5 16c28.667 30 60 45 94 45c26 0 50.333 -9 73 -27l7 -6c22.667 -17.333 46.334 -15.333 71.001 6c8 8 16.667 8.33301 26 1z" />
    <glyph glyph-name="endash" unicode="&#x2013;" horiz-adv-x="406" 
d="M335 286c6 0 11 -2 15 -6s6 -8.66699 6 -14v-62c0 -6 -2 -11 -6 -15s-9 -6 -15 -6h-265c-5.33301 0 -10 2 -14 6s-6 9 -6 15v62c0 5.33301 2 10 6 14s8.66699 6 14 6h265z" />
    <glyph glyph-name="emdash" unicode="&#x2014;" horiz-adv-x="531" 
d="M459 286c5.33301 0 10 -2 14 -6s6 -8.66699 6 -14v-62c0 -6 -2 -11 -6 -15s-8.66699 -6 -14 -6h-389c-5.33301 0 -10 2 -14 6s-6 9 -6 15v62c0 5.33301 2 10 6 14s8.66699 6 14 6h389z" />
    <glyph glyph-name="quoteleft" unicode="&#x2018;" horiz-adv-x="196" 
d="M139 660c5.33301 0 9.66797 -2 13.001 -6s4.33301 -8.66699 3 -14l-29 -130c-1.33301 -5.33301 -4.33301 -10 -9 -14s-10 -6 -16 -6h-44c-6 0 -10.667 2 -14 6s-4.66602 8.66699 -3.99902 14l18 129c0.666992 4 2.16699 7.5 4.5 10.5s5.16602 5.5 8.49902 7.5
s6.66602 3 9.99902 3h59z" />
    <glyph glyph-name="quoteright" unicode="&#x2019;" horiz-adv-x="188" 
d="M131 660c5.33301 0 9.49902 -2 12.499 -6s3.83301 -8.66699 2.5 -14l-32 -130c-1.33301 -5.33301 -4.5 -10 -9.5 -14s-10.167 -6 -15.5 -6h-31c-5.33301 0 -9.83301 2 -13.5 6s-5.16699 8.66699 -4.5 14l15 129c0.666992 6 3.33398 11 8.00098 15s9.66699 6 15 6h53z" />
    <glyph glyph-name="quotesinglbase" unicode="&#x201a;" horiz-adv-x="176" 
d="M119 50c6 0 10.833 -1.99902 14.5 -5.99902s5.16699 -8.66699 4.5 -14l-12 -137c-0.666992 -6 -3.16699 -11 -7.5 -15s-9.5 -6 -15.5 -6h-30c-6 0 -11.167 2 -15.5 6s-6.83301 9 -7.5 15l-12 137c0 3.33301 0.666992 6.66602 2 9.99902s3.5 5.83301 6.5 7.5
s6.5 2.5 10.5 2.5h62z" />
    <glyph glyph-name="quoteleftreversed" unicode="&#x201b;" horiz-adv-x="167" 
d="M105 707c5.33301 0 10 -2.00098 14 -6.00098s6 -9 6 -15v-42c0 -14 -2.5 -21 -7.5 -21s-8.16699 -5.33301 -9.5 -16v-8c0 -6 0.5 -11.833 1.5 -17.5s2.16699 -10.167 3.5 -13.5l1 -5c1.33301 -5.33301 1 -11 -1 -17s-5 -10.667 -9 -14l-2 -1
c-4.66699 -3.33301 -9.66699 -4.5 -15 -3.5s-9.66602 3.83301 -12.999 8.5c-12.667 18.667 -21.334 36.334 -26.001 53.001l-3 14c-1.33301 13.333 -2.16602 20 -2.49902 20s-0.5 0.666992 -0.5 2v2v1v23v11v24c0 4 0.833008 7.5 2.5 10.5s4.16699 5.5 7.5 7.5
s6.66602 3 9.99902 3h43z" />
    <glyph glyph-name="quotedblleft" unicode="&#x201c;" horiz-adv-x="314" 
d="M128 660c6 0 10.6689 -2 14.002 -6s4.66602 -9 3.99902 -15l-16 -129c-0.666992 -5.33301 -3.33398 -10 -8.00098 -14s-9.66699 -6 -15 -6h-51c-5.33301 0 -9.5 2 -12.5 6s-3.83301 8.66699 -2.5 14l31 130c1.33301 5.33301 4.33301 10 9 14s10 6 16 6h31zM254.002 660
c6 0 10.668 -2 14.001 -6s4.66602 -9 3.99902 -15l-16 -129c-0.666992 -5.33301 -3.16699 -10 -7.5 -14s-9.5 -6 -15.5 -6h-51c-5.33301 0 -9.5 2 -12.5 6s-3.83301 8.66699 -2.5 14l31 130c1.33301 5.33301 4.5 10 9.5 14s10.167 6 15.5 6h31z" />
    <glyph glyph-name="quotedblright" unicode="&#x201d;" horiz-adv-x="316" 
d="M132 660c3.33301 0 6.33203 -1 8.99902 -3s4.66699 -4.5 6 -7.5s1.33301 -6.16699 0 -9.5l-31 -130c-1.33301 -5.33301 -4.33301 -10 -9 -14s-10 -6 -16 -6h-33c-5.33301 0 -9.83301 2 -13.5 6s-5.16699 8.66699 -4.5 14l16 129c0.666992 6 3.33398 11 8.00098 15
s9.66699 6 15 6h53zM257.999 660c3.33301 0 6.50195 -1 9.50195 -3s5 -4.5 6 -7.5s1.16699 -6.16699 0.5 -9.5l-31 -130c-1.33301 -5.33301 -4.5 -10 -9.5 -14s-10.5 -6 -16.5 -6h-33c-5.33301 0 -9.83301 2 -13.5 6s-5.16699 8.66699 -4.5 14l16 129
c0.666992 4 2.16699 7.5 4.5 10.5s5.16602 5.5 8.49902 7.5s6.66602 3 9.99902 3h53z" />
    <glyph glyph-name="quotedblbase" unicode="&#x201e;" horiz-adv-x="349" 
d="M119 50c6 0 10.8311 -2 14.498 -6s5.16699 -8.66699 4.5 -14l-10 -137c-0.666992 -6 -3.16699 -11 -7.5 -15s-9.16602 -6 -14.499 -6h-36c-5.33301 0 -10.166 2 -14.499 6s-6.5 9 -6.5 15l-11 137c-0.666992 5.33301 0.833008 10 4.5 14s8.5 6 14.5 6h62zM291.998 50
c5.33301 0 9.83301 -2 13.5 -6s5.16699 -8.66699 4.5 -14l-12 -137c0 -3.33301 -0.666992 -6.16602 -2 -8.49902s-3 -4.5 -5 -6.5s-4.33301 -3.5 -7 -4.5s-5.33398 -1.5 -8.00098 -1.5h-31c-6 0 -11.167 2 -15.5 6s-6.5 9 -6.5 15l-13 137
c0 3.33301 0.833008 6.66602 2.5 9.99902s3.83398 5.83301 6.50098 7.5s6 2.5 10 2.5h63z" />
    <glyph glyph-name="dagger" unicode="&#x2020;" horiz-adv-x="578" 
d="M506 492c5.33301 0 10 -2 14 -6s6 -8.66699 6 -14v-62c0 -6 -2 -11 -6 -15s-8.66699 -6 -14 -6h-146c-5.33301 0 -10 -2 -14 -6s-6 -8.66699 -6 -14v-437c0 -5.33301 -2 -10 -6 -14s-9 -6 -15 -6h-62c-6 0 -10.833 2 -14.5 6s-5.5 8.66699 -5.5 14v437
c0 5.33301 -2 10 -6 14s-9 6 -15 6h-146c-5.33301 0 -10 2 -14 6s-6 9 -6 15v62c0 5.33301 2 10 6 14s8.66699 6 14 6h146c6 0 11 2 15 6s6 9 6 15v170c0 5.33301 1.83301 10 5.5 14s8.5 6 14.5 6h62c6 0 11 -2 15 -6s6 -8.66699 6 -14v-170c0 -6 2 -11 6 -15
s8.66699 -6 14 -6h146z" />
    <glyph glyph-name="daggerdbl" unicode="&#x2021;" horiz-adv-x="578" 
d="M360 389c-5.33301 0 -10 -2 -14 -6s-6 -8.66699 -6 -14v-64c0 -5.33301 2 -10 6 -14s8.66699 -6 14 -6h146c5.33301 0 10 -2 14 -6s6 -8.66699 6 -14v-63c0 -5.33301 -2 -10 -6 -14s-8.66699 -6 -14 -6h-146c-5.33301 0 -10 -2 -14 -6s-6 -9 -6 -15v-229
c0 -5.33301 -2 -10 -6 -14s-9 -6 -15 -6h-62c-6 0 -11 2 -15 6s-6 8.66699 -6 14v229c0 6 -2 11 -6 15s-8.66699 6 -14 6h-146c-5.33301 0 -10 2 -14 6s-6 8.66699 -6 14v63c0 5.33301 2 10 6 14s8.66699 6 14 6h146c5.33301 0 10 2 14 6s6 8.66699 6 14v64
c0 5.33301 -2 10 -6 14s-8.66699 6 -14 6h-146c-5.33301 0 -10 2 -14 6s-6 9 -6 15v62c0 5.33301 2 10 6 14s8.66699 6 14 6h146c5.33301 0 10 2 14 6s6 9 6 15v170c0 5.33301 2 10 6 14s9 6 15 6h62c6 0 11 -2 15 -6s6 -8.66699 6 -14v-170c0 -6 2 -11 6 -15
s8.66699 -6 14 -6h146c5.33301 0 10 -2 14 -6s6 -8.66699 6 -14v-62c0 -6 -2 -11 -6 -15s-8.66699 -6 -14 -6h-146z" />
    <glyph glyph-name="bullet" unicode="&#x2022;" horiz-adv-x="195" 
d="M96.5 413c16.333 0 30.333 -5.83301 42 -17.5s17.5 -25.667 17.5 -42s-5.83301 -30.333 -17.5 -42s-25.667 -17.5 -42 -17.5s-30.333 5.83301 -42 17.5s-17.5 25.667 -17.5 42s5.83301 30.333 17.5 42s25.667 17.5 42 17.5z" />
    <glyph glyph-name="ellipsis" unicode="&#x2026;" horiz-adv-x="739" 
d="M98 71c6 0 11.999 -1 17.999 -3s11.5 -4.83301 16.5 -8.5s9.33301 -8 13 -13s6.5 -10.5 8.5 -16.5s3 -12.333 3 -19c0 -16 -5.83301 -29.833 -17.5 -41.5s-25.667 -17.5 -42 -17.5s-30.333 5.83301 -42 17.5s-17.5 25.667 -17.5 42s5.83301 30.333 17.5 42
s25.834 17.5 42.501 17.5zM640.999 71c16.667 0 30.833 -5.83203 42.5 -17.499s17.5 -25.667 17.5 -42s-5.83301 -30.333 -17.5 -42s-25.667 -17.5 -42 -17.5s-30.333 5.83301 -42 17.5s-17.5 25.5 -17.5 41.5c0 10.667 2.66699 20.667 8 30s12.5 16.666 21.5 21.999
s18.833 8 29.5 8zM369.498 71.001c16.333 0 30.333 -5.83301 42 -17.5s17.5 -25.667 17.5 -42s-5.83301 -30.333 -17.5 -42s-25.667 -17.5 -42 -17.5s-30.333 5.83301 -42 17.5s-17.5 25.667 -17.5 42s5.83301 30.333 17.5 42s25.667 17.5 42 17.5z" />
    <glyph glyph-name="perthousand" unicode="&#x2030;" horiz-adv-x="1144" 
d="M337 566.5c0 -27 -6.66699 -51.998 -20 -74.998s-31.5 -41.167 -54.5 -54.5s-48.167 -20 -75.5 -20c-40.667 0 -75.667 14.5 -105 43.5s-44 64.167 -44 105.5s14.667 76.666 44 105.999s64.333 44 105 44c27.333 0 52.5 -6.83301 75.5 -20.5s41.167 -31.834 54.5 -54.501
s20 -47.5 20 -74.5zM187 520.002c12.667 0 23.5 4.5 32.5 13.5s13.5 19.833 13.5 32.5s-4.5 23.5 -13.5 32.5s-19.833 13.5 -32.5 13.5s-23.5 -4.5 -32.5 -13.5s-13.5 -19.833 -13.5 -32.5s4.5 -23.5 13.5 -32.5s19.833 -13.5 32.5 -13.5zM1066 242.002
c28 -30.667 40.998 -66.3359 38.998 -107.003c-2 -41.333 -18.333 -76 -49 -104c-12.667 -11.333 -27 -20.666 -43 -27.999c-18.667 -7.33301 -37.667 -11 -57 -11h-7c-16 0.666992 -32.667 4.33398 -50 11.001c-21.333 8.66699 -39.333 21.334 -54 38.001
c-27.333 30 -40.166 65.667 -38.499 107s17.834 76 48.501 104c31.333 28 67 40.667 107 38c41.333 -1.33301 76 -17.333 104 -48zM986.998 107c9.33301 8.66699 14.333 19.332 15 31.999s-3.33301 23.667 -12 33c-2.66699 2.66699 -5 4.83398 -7 6.50098
s-3.33301 2.83398 -4 3.50098h-2c-12.667 3.33301 -19.667 5 -21 5h-1c-11.333 0 -21.333 -4 -30 -12c-10 -8.66699 -15.167 -19.334 -15.5 -32.001s3.83398 -23.667 12.501 -33l12 -10c13.333 -3.33301 26.666 -4 39.999 -2c2.66699 0.666992 7 3.66699 13 9z
M636.998 289.998c41.333 -1.33301 75.832 -17.335 103.499 -48.002s40.5 -66.5 38.5 -107.5s-18 -75.5 -48 -103.5c-12.667 -11.333 -27.334 -20.666 -44.001 -27.999c-18.667 -7.33301 -37.667 -11 -57 -11h-7c-16 0.666992 -32.333 4.33398 -49 11.001
c-22 9.33301 -40.333 22 -55 38c-27.333 30 -40.166 65.667 -38.499 107s17.834 76 48.501 104c31.333 28 67.333 40.667 108 38zM660.997 106.996c9.33301 8.66699 14.333 19.334 15 32.001s-3.33301 23.667 -12 33l-12 10c-13.333 3.33301 -20.666 5 -21.999 5
c-12 0 -22.333 -4 -31 -12c-9.33301 -8.66699 -14.333 -19.334 -15 -32.001s3.33301 -23.667 12 -33l12 -10c13.333 -3.33301 26.666 -4 39.999 -2c2.66699 0.666992 7 3.66699 13 9zM583.997 702.996c5.33301 0 9.33203 -1.83301 11.999 -5.5s2.66699 -8.16699 0 -13.5
l-264 -662c-2.66699 -5.33301 -6.66699 -9.83301 -12 -13.5s-10.666 -5.5 -15.999 -5.5h-71c-5.33301 0 -9.33301 1.83301 -12 5.5s-3 8.16699 -1 13.5l265 662c2 5.33301 5.83301 9.83301 11.5 13.5s11.167 5.5 16.5 5.5h71z" />
    <glyph glyph-name="guilsinglright" unicode="&#x203a;" horiz-adv-x="318" 
d="M275 368c3.33301 -4 5 -8.83301 5 -14.5s-1.66699 -10.5 -5 -14.5l-159 -162c-4 -4 -8.83301 -6 -14.5 -6s-10.5 2 -14.5 6l-45 44c-4 3.33301 -6 7.83301 -6 13.5s2 10.5 6 14.5l88 90c4 4 6 8.83301 6 14.5s-2 10.5 -6 14.5l-88 90c-4 4 -6 8.83301 -6 14.5
s2 10.5 6 14.5l45 44c4 4 8.83301 5.83301 14.5 5.5s10.5 -2.5 14.5 -6.5z" />
    <glyph glyph-name="fraction" unicode="&#x2044;" horiz-adv-x="584" 
d="M534 703c6 0 10 -1.66699 12 -5s1.66699 -7.33301 -1 -12l-387 -665c-2.66699 -4.66699 -7 -8.83398 -13 -12.501s-12 -5.5 -18 -5.5h-78c-6 0 -10 1.83301 -12 5.5s-1.66699 7.83398 1 12.501l387 665c2.66699 4.66699 7 8.66699 13 12s12 5 18 5h78z" />
    <glyph glyph-name="Euro" unicode="&#x20ac;" horiz-adv-x="682" 
d="M595 157l38.002 -38.002c5.33301 -5.33301 7.83301 -11.5 7.5 -18.5s-3.16602 -12.833 -8.49902 -17.5c-67.333 -58 -145 -87 -233 -87c-48 0 -93.833 9 -137.5 27s-82.334 44 -116.001 78s-59.5 72.667 -77.5 116s-27 89 -27 137c0 60 14 116.167 42 168.5
s67.333 95.5 118 129.5c37.333 25.333 78.333 42.666 123 51.999c56 11.333 110.833 10 164.5 -4s101.5 -39 143.5 -75c5.33301 -4.66699 8.16602 -10.667 8.49902 -18s-2.16699 -13.666 -7.5 -18.999l-38 -38c-4.66699 -4.66699 -10.167 -7.16699 -16.5 -7.5
s-11.833 1.5 -16.5 5.5c-48.667 40.667 -106.667 59.667 -174 57s-123.666 -26.334 -168.999 -71.001c-10.667 -10.667 -20.334 -23 -29.001 -37c-3.33301 -4.66699 -3.5 -9.66699 -0.5 -15s7.5 -8 13.5 -8h176c7.33301 0 13.333 -2.5 18 -7.5s7 -10.833 7 -17.5v-29
c0 -6.66699 -2.33301 -12.5 -7 -17.5s-10.667 -7.5 -18 -7.5h-217c-9.33301 0 -14.666 -4.33301 -15.999 -13c-1.33301 -10 -2 -19.333 -2 -28c0 -9.33301 0.666992 -19.666 2 -30.999c1.33301 -8.66699 6.66602 -13 15.999 -13h217c7.33301 0 13.333 -2.33301 18 -7
s7 -10.667 7 -18v-28c0 -7.33301 -2.33301 -13.333 -7 -18s-10.667 -7 -18 -7h-175c-6 0 -10.5 -2.66699 -13.5 -8s-2.83301 -10.666 0.5 -15.999c8.66699 -13.333 18 -24.666 28 -33.999c45.333 -45.333 101.666 -69.333 168.999 -72s125.333 16.333 174 57
c4.66699 4 10.167 5.83301 16.5 5.5s11.833 -2.83301 16.5 -7.5z" />
    <glyph glyph-name="trademark" unicode="&#x2122;" horiz-adv-x="643" 
d="M218 699c5.33301 0 10 -2 14 -6s6 -9 6 -15v-37c0 -5.33301 -2 -10 -6 -14s-8.66699 -6 -14 -6h-14c-6 0 -11 -2 -15 -6s-6 -9 -6 -15v-223c0 -5.33301 -2 -10 -6 -14s-8.66699 -6 -14 -6h-38c-5.33301 0 -10 2 -14 6s-6 8.66699 -6 14v223c0 6 -2 11 -6 15
s-8.66699 6 -14 6h-15c-5.33301 0 -10 2 -14 6s-6 8.66699 -6 14v37c0 6 2 11 6 15s8.66699 6 14 6h148zM576 703c4 0 7.66602 -2 10.999 -6s5 -8.66699 5 -14v-306c0 -5.33301 -2 -10 -6 -14s-9 -6 -15 -6h-37c-6 0 -11 2 -15 6s-6 8.66699 -6 14v140
c0 6 -1.33301 9.5 -4 10.5s-5.66699 -0.5 -9 -4.5l-44 -47c-3.33301 -4 -7.66602 -6 -12.999 -6s-10 2 -14 6l-43 47c-4 4 -7.33301 5.5 -10 4.5s-4 -4.5 -4 -10.5v-140c0 -5.33301 -2 -10 -6 -14s-8.66699 -6 -14 -6h-38c-5.33301 0 -10 2 -14 6s-6 8.66699 -6 14v306
c0 5.33301 1.5 10 4.5 14s6.83301 6 11.5 6c10.667 0 20.667 -5 30 -15l89 -97c4 -4 8.66699 -6 14 -6s10 2 14 6l89 97c8.66699 10 18.667 15 30 15z" />
    <glyph glyph-name="minus" unicode="&#x2212;" horiz-adv-x="551" 
d="M479 362c5.33301 0 10 -2 14 -6s6 -9 6 -15v-62c0 -6 -2 -11 -6 -15s-8.66699 -6 -14 -6l-409 1c-5.33301 0 -10 2 -14 6s-6 8.66699 -6 14v63c0 5.33301 2 10 6 14s8.66699 6 14 6h409z" />
    <glyph glyph-name="unie991" unicode="&#xe991;" horiz-adv-x="659" 
d="M495 382l-56.0029 -41c-2 -1.33301 -2.66699 -3.66602 -2 -6.99902l21 -65c1.33301 -2.66699 0.666016 -5 -2.00098 -7s-5 -2 -7 0l-56 40c-2.66699 2 -5 2 -7 0l-56 -40c-2.66699 -2 -5.16699 -2 -7.5 0s-3.16602 4.33301 -2.49902 7l22 65
c0.666992 3.33301 -0.333008 5.66602 -3 6.99902l-55 41c-2.66699 1.33301 -3.5 3.5 -2.5 6.5s2.83301 4.5 5.5 4.5h69c3.33301 0 5.33301 1.33301 6 4l21 66c0.666992 2 1.83398 3.33301 3.50098 4s3.33398 0.666992 5.00098 0s2.83398 -2 3.50098 -4l22 -66
c0.666992 -2.66699 2.66699 -4 6 -4h68c3.33301 0 5.5 -1.5 6.5 -4.5s0.166992 -5.16699 -2.5 -6.5zM586.997 557c-4.66699 -4.66699 -10.001 -7.16504 -16.001 -7.49805s-11.667 1.5 -17 5.5c-56 46.667 -120.667 66.334 -194 59.001c-42 -4 -80.5 -17.667 -115.5 -41
s-63.167 -53.333 -84.5 -90s-32.666 -76 -33.999 -118c-3.33301 -74.667 20.834 -138.834 72.501 -192.501s114.5 -80.5 188.5 -80.5c54 0 103 15 147 45c5.33301 3.33301 11 4.5 17 3.5s11 -3.83301 15 -8.5l25 -31c4.66699 -5.33301 6.5 -11.5 5.5 -18.5
s-4.5 -12.5 -10.5 -16.5c-60 -41.333 -126.333 -62 -199 -62c-65.333 0 -125.5 16.5 -180.5 49.5s-97.667 77.833 -128 134.5s-44.166 117.667 -41.499 183c4.66699 87.333 37.667 162.666 99 225.999s135.333 98.666 222 105.999c96.667 7.33301 181.667 -20 255 -82
c5.33301 -4.66699 8.16602 -10.5 8.49902 -17.5s-1.83398 -13.167 -6.50098 -18.5z" />
    <glyph glyph-name="a.alt1" unicode="&#xf001;" 
d="M269 0c-62 2 -115.329 25.334 -159.996 70.001s-68.334 98 -71.001 160c-2.66699 68 19.666 126.333 66.999 175s104.666 73 171.999 73c49.333 0 94.666 -14.333 135.999 -43v17c0 5.33301 1.83301 10 5.5 14s8.5 6 14.5 6h63c5.33301 0 10 -2 14 -6s6 -8.66699 6 -14
v-431c0 -5.33301 -2 -10 -6 -14s-8.66699 -6 -14 -6h-42c-11.333 0 -21 4.16699 -29 12.5s-12 18.166 -12 29.499c-43.333 -30.667 -91.333 -45 -144 -43zM277.004 375.001c-37.333 0 -69.332 -13.334 -95.999 -40.001s-40 -58.667 -40 -96s13.333 -69.333 40 -96
s58.667 -40 96 -40s69.333 13.333 96 40s40 58.667 40 96c0 18.667 -3.66699 36.334 -11 53.001s-17 31 -29 43s-26.333 21.667 -43 29s-34.334 11 -53.001 11z" />
    <glyph glyph-name="nonmarkingreturn" horiz-adv-x="333" 
 />
    </font>
</defs>
</svg>
